%TF.GenerationSoftware,KiCad,Pcbnew,6.0.4-6f826c9f35~116~ubuntu20.04.1*%
%TF.CreationDate,2022-03-30T14:52:51+00:00*%
%TF.ProjectId,SPACEDOS02B_PCB01A,53504143-4544-44f5-9330-32425f504342,REV*%
%TF.SameCoordinates,Original*%
%TF.FileFunction,Soldermask,Top*%
%TF.FilePolarity,Negative*%
%FSLAX46Y46*%
G04 Gerber Fmt 4.6, Leading zero omitted, Abs format (unit mm)*
G04 Created by KiCad (PCBNEW 6.0.4-6f826c9f35~116~ubuntu20.04.1) date 2022-03-30 14:52:51*
%MOMM*%
%LPD*%
G01*
G04 APERTURE LIST*
G04 Aperture macros list*
%AMRoundRect*
0 Rectangle with rounded corners*
0 $1 Rounding radius*
0 $2 $3 $4 $5 $6 $7 $8 $9 X,Y pos of 4 corners*
0 Add a 4 corners polygon primitive as box body*
4,1,4,$2,$3,$4,$5,$6,$7,$8,$9,$2,$3,0*
0 Add four circle primitives for the rounded corners*
1,1,$1+$1,$2,$3*
1,1,$1+$1,$4,$5*
1,1,$1+$1,$6,$7*
1,1,$1+$1,$8,$9*
0 Add four rect primitives between the rounded corners*
20,1,$1+$1,$2,$3,$4,$5,0*
20,1,$1+$1,$4,$5,$6,$7,0*
20,1,$1+$1,$6,$7,$8,$9,0*
20,1,$1+$1,$8,$9,$2,$3,0*%
G04 Aperture macros list end*
%ADD10C,0.100000*%
%ADD11RoundRect,0.200000X0.762000X-0.762000X0.762000X0.762000X-0.762000X0.762000X-0.762000X-0.762000X0*%
%ADD12C,2.900000*%
%ADD13RoundRect,0.200000X-0.762000X-0.762000X0.762000X-0.762000X0.762000X0.762000X-0.762000X0.762000X0*%
%ADD14C,1.924000*%
%ADD15RoundRect,0.350000X-0.700000X0.150000X-0.700000X-0.150000X0.700000X-0.150000X0.700000X0.150000X0*%
%ADD16RoundRect,0.450000X-1.100000X0.250000X-1.100000X-0.250000X1.100000X-0.250000X1.100000X0.250000X0*%
%ADD17C,1.900000*%
%ADD18RoundRect,0.418750X-0.218750X-0.256250X0.218750X-0.256250X0.218750X0.256250X-0.218750X0.256250X0*%
G04 APERTURE END LIST*
D10*
G36*
X38100000Y23000D02*
G01*
X0Y23000D01*
X0Y25169000D01*
X38100000Y25169000D01*
X38100000Y23000D01*
G37*
X38100000Y23000D02*
X0Y23000D01*
X0Y25169000D01*
X38100000Y25169000D01*
X38100000Y23000D01*
D11*
%TO.C,J19*%
X7366000Y99083000D03*
X7366000Y101623000D03*
%TD*%
%TO.C,J6*%
X9906000Y101623000D03*
%TD*%
%TO.C,J4*%
X12446000Y101623000D03*
%TD*%
%TO.C,J7*%
X9906000Y99083000D03*
%TD*%
%TO.C,J5*%
X12446000Y99083000D03*
%TD*%
D12*
%TO.C,BT1*%
X19050000Y94479000D03*
X19050000Y26979000D03*
%TD*%
D13*
%TO.C,J3*%
X14986000Y101623000D03*
X14986000Y99083000D03*
%TD*%
%TO.C,J2*%
X17526000Y101623000D03*
X17526000Y99083000D03*
%TD*%
D14*
%TO.C,D1*%
X8596000Y14715000D03*
X8596000Y9715000D03*
%TD*%
D15*
%TO.C,J14*%
X8504800Y62990400D03*
X8504800Y61740400D03*
X8504800Y60490400D03*
X8504800Y59240400D03*
X8504800Y57990400D03*
X8504800Y56740400D03*
D16*
X5304800Y64840400D03*
X5304800Y54890400D03*
%TD*%
D17*
%TO.C,Y1*%
X19468000Y56762000D03*
X14568000Y56762000D03*
%TD*%
D18*
%TO.C,R16*%
X78714500Y85240000D03*
X80289500Y85240000D03*
%TD*%
%TO.C,R14*%
X84654500Y91139000D03*
X86229500Y91139000D03*
%TD*%
D15*
%TO.C,J1*%
X6828400Y78312000D03*
X6828400Y77062000D03*
X6828400Y75812000D03*
X6828400Y74562000D03*
X6828400Y73312000D03*
X6828400Y72062000D03*
X6828400Y70812000D03*
X6828400Y69562000D03*
D16*
X3628400Y80162000D03*
X3628400Y67712000D03*
%TD*%
D18*
%TO.C,R18*%
X47218500Y60602000D03*
X48793500Y60602000D03*
%TD*%
%TO.C,R17*%
X47091500Y58443000D03*
X48666500Y58443000D03*
%TD*%
D13*
%TO.C,J9*%
X25146000Y106449000D03*
%TD*%
%TO.C,J10*%
X30226000Y106449000D03*
%TD*%
%TO.C,J11*%
X20066000Y106449000D03*
%TD*%
%TO.C,J12*%
X22606000Y106449000D03*
%TD*%
%TO.C,J13*%
X32766000Y106449000D03*
%TD*%
%TO.C,J8*%
X27686000Y106449000D03*
%TD*%
M02*
