%TF.GenerationSoftware,KiCad,Pcbnew,6.0.4-6f826c9f35~116~ubuntu20.04.1*%
%TF.CreationDate,2022-03-30T14:52:51+00:00*%
%TF.ProjectId,SPACEDOS02B_PCB01A,53504143-4544-44f5-9330-32425f504342,REV*%
%TF.SameCoordinates,Original*%
%TF.FileFunction,Copper,L1,Top*%
%TF.FilePolarity,Positive*%
%FSLAX46Y46*%
G04 Gerber Fmt 4.6, Leading zero omitted, Abs format (unit mm)*
G04 Created by KiCad (PCBNEW 6.0.4-6f826c9f35~116~ubuntu20.04.1) date 2022-03-30 14:52:51*
%MOMM*%
%LPD*%
G01*
G04 APERTURE LIST*
G04 Aperture macros list*
%AMRoundRect*
0 Rectangle with rounded corners*
0 $1 Rounding radius*
0 $2 $3 $4 $5 $6 $7 $8 $9 X,Y pos of 4 corners*
0 Add a 4 corners polygon primitive as box body*
4,1,4,$2,$3,$4,$5,$6,$7,$8,$9,$2,$3,0*
0 Add four circle primitives for the rounded corners*
1,1,$1+$1,$2,$3*
1,1,$1+$1,$4,$5*
1,1,$1+$1,$6,$7*
1,1,$1+$1,$8,$9*
0 Add four rect primitives between the rounded corners*
20,1,$1+$1,$2,$3,$4,$5,0*
20,1,$1+$1,$4,$5,$6,$7,0*
20,1,$1+$1,$6,$7,$8,$9,0*
20,1,$1+$1,$8,$9,$2,$3,0*%
G04 Aperture macros list end*
%TA.AperFunction,ComponentPad*%
%ADD10R,1.524000X1.524000*%
%TD*%
%TA.AperFunction,ComponentPad*%
%ADD11C,2.500000*%
%TD*%
%TA.AperFunction,ComponentPad*%
%ADD12C,1.524000*%
%TD*%
%TA.AperFunction,SMDPad,CuDef*%
%ADD13RoundRect,0.150000X-0.700000X0.150000X-0.700000X-0.150000X0.700000X-0.150000X0.700000X0.150000X0*%
%TD*%
%TA.AperFunction,SMDPad,CuDef*%
%ADD14RoundRect,0.250000X-1.100000X0.250000X-1.100000X-0.250000X1.100000X-0.250000X1.100000X0.250000X0*%
%TD*%
%TA.AperFunction,ComponentPad*%
%ADD15C,1.500000*%
%TD*%
%TA.AperFunction,SMDPad,CuDef*%
%ADD16RoundRect,0.218750X-0.218750X-0.256250X0.218750X-0.256250X0.218750X0.256250X-0.218750X0.256250X0*%
%TD*%
%TA.AperFunction,ViaPad*%
%ADD17C,0.800000*%
%TD*%
%TA.AperFunction,Conductor*%
%ADD18C,0.250000*%
%TD*%
%TA.AperFunction,Conductor*%
%ADD19C,0.400000*%
%TD*%
%TA.AperFunction,Conductor*%
%ADD20C,0.800000*%
%TD*%
%TA.AperFunction,Conductor*%
%ADD21C,0.600000*%
%TD*%
G04 APERTURE END LIST*
D10*
%TO.P,J19,1*%
%TO.N,/cpu/RST#*%
X7366000Y99083000D03*
%TO.P,J19,2*%
X7366000Y101623000D03*
%TD*%
%TO.P,J6,1*%
%TO.N,/cpu/RX0*%
X9906000Y101623000D03*
%TD*%
%TO.P,J4,1*%
%TO.N,/cpu/PC4*%
X12446000Y101623000D03*
%TD*%
%TO.P,J7,1*%
%TO.N,/cpu/TX0*%
X9906000Y99083000D03*
%TD*%
%TO.P,J5,1*%
%TO.N,/cpu/PC3*%
X12446000Y99083000D03*
%TD*%
D11*
%TO.P,BT1,1,+*%
%TO.N,/power/3*%
X19050000Y94479000D03*
%TO.P,BT1,2,-*%
%TO.N,GND*%
X19050000Y26979000D03*
%TD*%
D10*
%TO.P,J3,1*%
%TO.N,/power/3*%
X14986000Y101623000D03*
%TO.P,J3,2*%
X14986000Y99083000D03*
%TD*%
%TO.P,J2,1*%
%TO.N,GND*%
X17526000Y101623000D03*
%TO.P,J2,2*%
X17526000Y99083000D03*
%TD*%
D12*
%TO.P,D1,1,K*%
%TO.N,/K*%
X8596000Y14715000D03*
%TO.P,D1,2,A*%
%TO.N,/A*%
X8596000Y9715000D03*
%TD*%
D13*
%TO.P,J14,1*%
%TO.N,+5V*%
X8504800Y62990400D03*
%TO.P,J14,2*%
%TO.N,Net-(J14-Pad2)*%
X8504800Y61740400D03*
%TO.P,J14,3*%
%TO.N,Net-(J14-Pad3)*%
X8504800Y60490400D03*
%TO.P,J14,4*%
%TO.N,unconnected-(J14-Pad4)*%
X8504800Y59240400D03*
%TO.P,J14,5*%
%TO.N,unconnected-(J14-Pad5)*%
X8504800Y57990400D03*
%TO.P,J14,6*%
%TO.N,GND*%
X8504800Y56740400D03*
D14*
%TO.P,J14,MP*%
X5304800Y64840400D03*
X5304800Y54890400D03*
%TD*%
D15*
%TO.P,Y1,1,1*%
%TO.N,Net-(C38-Pad1)*%
X19468000Y56762000D03*
%TO.P,Y1,2,2*%
%TO.N,Net-(C41-Pad1)*%
X14568000Y56762000D03*
%TD*%
D16*
%TO.P,R16,1*%
%TO.N,/cpu/PC0*%
X78714500Y85240000D03*
%TO.P,R16,2*%
%TO.N,Net-(J1-Pad5)*%
X80289500Y85240000D03*
%TD*%
%TO.P,R14,1*%
%TO.N,/cpu/PC1*%
X84654500Y91139000D03*
%TO.P,R14,2*%
%TO.N,Net-(J1-Pad4)*%
X86229500Y91139000D03*
%TD*%
D13*
%TO.P,J1,1*%
%TO.N,/cpu/TIMEPULSE*%
X6828400Y78312000D03*
%TO.P,J1,2*%
%TO.N,/cpu/EXTINT*%
X6828400Y77062000D03*
%TO.P,J1,3*%
%TO.N,/cpu/GEO_STAT*%
X6828400Y75812000D03*
%TO.P,J1,4*%
%TO.N,Net-(J1-Pad4)*%
X6828400Y74562000D03*
%TO.P,J1,5*%
%TO.N,Net-(J1-Pad5)*%
X6828400Y73312000D03*
%TO.P,J1,6*%
%TO.N,/cpu/TX1*%
X6828400Y72062000D03*
%TO.P,J1,7*%
%TO.N,/cpu/RX1*%
X6828400Y70812000D03*
%TO.P,J1,8*%
%TO.N,GND*%
X6828400Y69562000D03*
D14*
%TO.P,J1,MP*%
X3628400Y80162000D03*
X3628400Y67712000D03*
%TD*%
D16*
%TO.P,R18,1*%
%TO.N,/cpu/TX0*%
X47218500Y60602000D03*
%TO.P,R18,2*%
%TO.N,Net-(J14-Pad3)*%
X48793500Y60602000D03*
%TD*%
%TO.P,R17,1*%
%TO.N,/cpu/RX0*%
X47091500Y58443000D03*
%TO.P,R17,2*%
%TO.N,Net-(J14-Pad2)*%
X48666500Y58443000D03*
%TD*%
D10*
%TO.P,J9,1*%
%TO.N,/cpu/PB5*%
X25146000Y106449000D03*
%TD*%
%TO.P,J10,1*%
%TO.N,/cpu/SD_VDD*%
X30226000Y106449000D03*
%TD*%
%TO.P,J11,1*%
%TO.N,/cpu/PB7*%
X20066000Y106449000D03*
%TD*%
%TO.P,J12,1*%
%TO.N,/cpu/PB6*%
X22606000Y106449000D03*
%TD*%
%TO.P,J13,1*%
%TO.N,GND*%
X32766000Y106449000D03*
%TD*%
%TO.P,J8,1*%
%TO.N,/cpu/PB4*%
X27686000Y106449000D03*
%TD*%
D17*
%TO.N,GND*%
X8522339Y38810523D03*
X10839993Y40897407D03*
X22720300Y60513100D03*
X13208000Y26096100D03*
X5842000Y10183000D03*
X5842000Y7643000D03*
X6350000Y6119000D03*
X7366000Y5103000D03*
X20307300Y54798100D03*
X13970000Y27455000D03*
X16002000Y26439000D03*
X16624300Y43749100D03*
X9893300Y28636100D03*
X13576300Y40955100D03*
X15608300Y22286100D03*
X14592300Y40955100D03*
X7988300Y37526100D03*
X9893300Y27366100D03*
X16116300Y23429100D03*
X10528300Y29906100D03*
X8623300Y36256100D03*
X9893300Y36256100D03*
X7480300Y13269100D03*
X17018000Y27455000D03*
X17018000Y26439000D03*
X15608300Y42987100D03*
X10528300Y32446100D03*
X8623300Y40066100D03*
X10528300Y33716100D03*
X10528300Y31176100D03*
X10528300Y26096100D03*
X15608300Y41717100D03*
X12052300Y40955100D03*
X16002000Y27455000D03*
X14084300Y24826100D03*
X15608300Y21016100D03*
X10528300Y34986100D03*
X6604000Y11961000D03*
X27673300Y34351100D03*
X24713000Y20300000D03*
X14338300Y10856100D03*
X13081000Y10818000D03*
X12192000Y7897000D03*
X14224000Y6373000D03*
X14338300Y2601100D03*
X24244300Y30033100D03*
X24498300Y22921100D03*
X24498300Y32446100D03*
X11963000Y11800000D03*
X25133300Y2601100D03*
X10213000Y11800000D03*
X21196300Y22921100D03*
X21958300Y2601100D03*
X28943300Y10856100D03*
X13213000Y11800000D03*
X28308300Y7681100D03*
X13068300Y2601100D03*
X26403300Y3236100D03*
X27673300Y4506100D03*
X26403300Y33716100D03*
X28816300Y34097100D03*
X23863300Y31176100D03*
X21196300Y21651100D03*
X23863300Y34351100D03*
X23228300Y22921100D03*
X24498300Y21651100D03*
X23228300Y21651100D03*
X24498300Y26731100D03*
X25768300Y19111100D03*
X24498300Y25461100D03*
X24498300Y24191100D03*
X9652000Y7897000D03*
X13462000Y7897000D03*
X20053300Y2601100D03*
X28308300Y5776100D03*
X28816300Y32573100D03*
X28943300Y8951100D03*
X10922000Y7897000D03*
X29578300Y19746100D03*
X29578300Y28001100D03*
X27673300Y26096100D03*
X28308300Y21016100D03*
X33896300Y39177100D03*
X30848300Y28001100D03*
X33896300Y34351100D03*
X27673300Y22286100D03*
X32385000Y28344000D03*
X20186300Y38829100D03*
X32118300Y26731100D03*
X33896300Y35875100D03*
X24123300Y38956100D03*
X32639000Y31392000D03*
X20440300Y5047100D03*
X24713000Y19111100D03*
X33896300Y37399100D03*
X24713000Y17841100D03*
X27038300Y17841100D03*
X18408300Y33279100D03*
X28943300Y14031100D03*
X23996300Y9365100D03*
X24123300Y37686100D03*
X16503300Y39591100D03*
X17386486Y33489286D03*
X28308300Y27366100D03*
X21456300Y33495100D03*
X27673300Y24826100D03*
X30213300Y18476100D03*
X25768300Y17841100D03*
X28943300Y12761100D03*
X30213300Y15301100D03*
X16668300Y34511100D03*
X30213300Y17206100D03*
X27673300Y23556100D03*
X15868300Y38956100D03*
X33896300Y40701100D03*
X32639000Y29868000D03*
X32372300Y33081100D03*
X19170300Y5047100D03*
X15887735Y10380557D03*
X14598300Y12286100D03*
X30213300Y37526100D03*
X20313300Y10381100D03*
X10160000Y2817000D03*
X17138300Y10381100D03*
X18408300Y10381100D03*
X24123300Y10729100D03*
X24123300Y12286100D03*
X23736300Y14793100D03*
X22218300Y12921100D03*
X11938000Y26185000D03*
X14732000Y7897000D03*
X14224000Y5103000D03*
X8382000Y7897000D03*
X9906000Y6627000D03*
X10922000Y5357000D03*
X12700000Y5103000D03*
X15494000Y2563000D03*
X16764000Y2563000D03*
X18034000Y2563000D03*
X8636000Y3833000D03*
X10414000Y13993000D03*
X11684000Y13993000D03*
X12954000Y13993000D03*
X6604000Y14755000D03*
X6858000Y16025000D03*
X7874000Y17041000D03*
X11430000Y16533000D03*
X10922000Y15263000D03*
X6096000Y18311000D03*
X6096000Y19835000D03*
X6096000Y21105000D03*
X6096000Y22375000D03*
X6096000Y23645000D03*
X6096000Y25677000D03*
X6096000Y27201000D03*
X11176000Y27709000D03*
X12700000Y27455000D03*
X23876000Y2601100D03*
X19558000Y98575000D03*
X29210000Y52347000D03*
X9652000Y50315000D03*
X32766000Y102131000D03*
X11684000Y50315000D03*
X17780000Y80795000D03*
X10668000Y81049000D03*
X32766000Y103401000D03*
X21336000Y85367000D03*
X20066000Y67079000D03*
X32766000Y104671000D03*
X16002000Y49553000D03*
X30226000Y74953000D03*
X31750000Y63015000D03*
X30734000Y76223000D03*
X26670000Y37615000D03*
X7366000Y69111000D03*
X30480000Y86637000D03*
X17780000Y89939000D03*
X17780000Y85875000D03*
X31242000Y70381000D03*
X19558000Y100607000D03*
X28194000Y56411000D03*
X9652000Y89431000D03*
X30226000Y38631000D03*
X5080000Y101877000D03*
X11684000Y95019000D03*
X30480000Y84351000D03*
X31750000Y67333000D03*
X7620000Y50315000D03*
X10922000Y88161000D03*
X28194000Y54633000D03*
X30734000Y68857000D03*
X11684000Y92987000D03*
X20066000Y75715000D03*
X10414000Y68603000D03*
X12446000Y89685000D03*
X30226000Y88415000D03*
X21590000Y67587000D03*
X9906000Y83843000D03*
X19304000Y66317000D03*
X10160000Y96289000D03*
X17780000Y92225000D03*
X28448000Y88415000D03*
X31496000Y77747000D03*
X21082000Y87653000D03*
X31750000Y65555000D03*
X32258000Y68857000D03*
X21336000Y75715000D03*
X25908000Y57173000D03*
X18288000Y66571000D03*
X18796000Y75715000D03*
X10414000Y71143000D03*
X16256000Y62507000D03*
X6604000Y82319000D03*
X9398000Y95527000D03*
X8128000Y85875000D03*
X8382000Y82319000D03*
X18288000Y60221000D03*
X19558000Y102131000D03*
X6858000Y87145000D03*
X6350000Y49299000D03*
X31242000Y79017000D03*
X11430000Y57681000D03*
X29464000Y72667000D03*
X14732000Y65047000D03*
X12192000Y86891000D03*
X6604000Y84605000D03*
X16256000Y65047000D03*
X5080000Y100099000D03*
X17780000Y78763000D03*
X5080000Y98067000D03*
X28448000Y60983000D03*
%TO.N,Net-(R1-Pad2)*%
X12007568Y38854203D03*
X19431000Y36472000D03*
%TO.N,/cpu/RST#*%
X14224000Y52855000D03*
X12353395Y79689929D03*
%TO.N,/cpu/PC0*%
X8382000Y63015000D03*
X8382000Y67333000D03*
%TO.N,/cpu/PB5*%
X25400000Y55395000D03*
%TO.N,/cpu/PB7*%
X21844000Y64539000D03*
%TO.N,/cpu/PB6*%
X22720300Y55941100D03*
X24371300Y52004100D03*
%TO.N,/cpu/RX0*%
X15494000Y61237000D03*
X13970002Y80795000D03*
%TO.N,/cpu/TX0*%
X14732000Y60475000D03*
X12972133Y80475541D03*
%TO.N,+3V3*%
X13582300Y28923100D03*
X26028300Y28923100D03*
X27033000Y59096004D03*
X11430000Y63819100D03*
X31115000Y36472000D03*
X11430000Y74953000D03*
%TO.N,PA1*%
X19812000Y31519000D03*
X18542002Y64285000D03*
%TO.N,PA0*%
X14338300Y43241100D03*
X14224000Y55903000D03*
X18796000Y62761000D03*
%TO.N,PB0*%
X22212300Y62037100D03*
X23228300Y42766100D03*
%TO.N,/cpu/SD_VDD*%
X25908000Y63015000D03*
%TO.N,/cpu/PB4*%
X25654000Y59819100D03*
%TO.N,/cpu/PC4*%
X15748000Y67841000D03*
%TO.N,/cpu/PC3*%
X14478000Y67079000D03*
%TO.N,/cpu/RX1*%
X7366000Y71143000D03*
%TD*%
D18*
%TO.N,GND*%
X-72476700Y206822100D02*
X-72222700Y207076100D01*
X-73746700Y206822100D02*
X-72476700Y206822100D01*
X-74762700Y178374100D02*
X-76032700Y178374100D01*
D19*
X-78534700Y207838100D02*
X-78026700Y207838100D01*
X-75778700Y212918100D02*
X-75016700Y212156100D01*
X-78699700Y212918100D02*
X-75778700Y212918100D01*
X-78026700Y207838100D02*
X-76794700Y206606100D01*
X-78534700Y207534472D02*
X-77816514Y206816286D01*
D18*
X-78064700Y183708100D02*
X-76794700Y183708100D01*
D19*
X-71079700Y212283100D02*
X-71079700Y211013100D01*
X-78534700Y207838100D02*
X-78534700Y207534472D01*
%TO.N,Net-(R1-Pad2)*%
X-75772000Y209799000D02*
X-80813229Y209799000D01*
X-82795433Y211781204D02*
X-83195432Y212181203D01*
X-80813229Y209799000D02*
X-82795433Y211781204D01*
%TO.N,/cpu/RST#*%
X-82849605Y252451244D02*
X-82849605Y253016929D01*
X-82849605Y228052605D02*
X-82849605Y252451244D01*
X-80979000Y226182000D02*
X-82849605Y228052605D01*
%TO.N,/cpu/PC0*%
X-86821000Y240660000D02*
X-86821000Y236342000D01*
%TO.N,/cpu/PB5*%
X-70057000Y279776000D02*
X-71082689Y278750311D01*
X-71082689Y278750311D02*
X-71082689Y230001689D01*
X-71082689Y230001689D02*
X-69803000Y228722000D01*
%TO.N,/cpu/PB7*%
X-72282709Y238942291D02*
X-72282709Y275772291D01*
X-75137000Y279776000D02*
X-75137000Y278614000D01*
X-73359000Y237866000D02*
X-72282709Y238942291D01*
X-75137000Y278614000D02*
X-72295291Y275772291D01*
X-72295291Y275772291D02*
X-72282709Y275772291D01*
%TO.N,/cpu/PB6*%
X-70831700Y225331100D02*
X-70831700Y227617100D01*
X-70831700Y227617100D02*
X-72082701Y228868101D01*
X-72082701Y228868101D02*
X-72482700Y229268100D01*
X-71682699Y278861699D02*
X-72597000Y279776000D01*
X-71682699Y230068101D02*
X-71682699Y278861699D01*
X-72482700Y229268100D02*
X-71682699Y230068101D01*
%TO.N,/cpu/RX0*%
X-81230858Y253554175D02*
X-81232998Y253556315D01*
X-81648990Y236503990D02*
X-81648990Y252185000D01*
X-79709000Y234564000D02*
X-81648990Y236503990D01*
X-81232998Y253556315D02*
X-81232998Y254122000D01*
X-81230858Y252603132D02*
X-81230858Y253554175D01*
X-81648990Y252185000D02*
X-81230858Y252603132D01*
%TO.N,/cpu/TX0*%
X-81830868Y253402542D02*
X-82230867Y253802541D01*
X-82249000Y252433532D02*
X-81830868Y252851664D01*
X-81830868Y252851664D02*
X-81830868Y253402542D01*
X-82248999Y235579999D02*
X-82249000Y252433532D01*
X-82230867Y253681863D02*
X-82230867Y253802541D01*
X-80471000Y233802000D02*
X-82248999Y235579999D01*
D20*
%TO.N,+3V3*%
X-81620700Y202250100D02*
X-69174700Y202250100D01*
X-63688001Y227941005D02*
X-68170000Y232423004D01*
D21*
X-83773000Y248280000D02*
X-83773000Y237146100D01*
D20*
X-63688001Y210198999D02*
X-63688001Y227941005D01*
X-64088000Y209799000D02*
X-63688001Y210198999D01*
D19*
%TO.N,PA1*%
X-75391000Y206361802D02*
X-74095699Y207657103D01*
X-74095699Y207657103D02*
X-74095699Y235046701D01*
X-74095699Y235046701D02*
X-76260999Y237212001D01*
X-76260999Y237212001D02*
X-76660998Y237612000D01*
X-75391000Y204846000D02*
X-75391000Y206361802D01*
%TO.N,PA0*%
X-80864700Y216568100D02*
X-80051998Y217380802D01*
X-80051998Y232443002D02*
X-76407000Y236088000D01*
X-80051998Y229064998D02*
X-80051998Y232443002D01*
X-80051998Y229064998D02*
X-80051998Y227540998D01*
X-80051998Y231182174D02*
X-80051998Y229064998D01*
X-80051998Y217380802D02*
X-80051998Y227540998D01*
%TO.N,PB0*%
X-72990700Y235364100D02*
X-73406690Y234948110D01*
X-73406690Y234948110D02*
X-73406690Y217525090D01*
X-73406690Y217525090D02*
X-71974700Y216093100D01*
%TO.N,/cpu/SD_VDD*%
X-69882669Y236929669D02*
X-69882669Y274870331D01*
X-69882669Y274870331D02*
X-68787000Y275966000D01*
X-69295000Y236342000D02*
X-69882669Y236929669D01*
X-68787000Y275966000D02*
X-64977000Y279776000D01*
%TO.N,/cpu/PB4*%
X-69549000Y233146100D02*
X-70482679Y234079779D01*
X-70482679Y234079779D02*
X-70482679Y276810321D01*
X-68787000Y278506000D02*
X-67517000Y279776000D01*
X-70482679Y276810321D02*
X-68787000Y278506000D01*
%TO.N,/cpu/PC4*%
X-79055001Y251981999D02*
X-79055001Y268788001D01*
X-79455000Y241168000D02*
X-79055001Y241567999D01*
X-79055001Y268788001D02*
X-81379001Y271112001D01*
X-79055001Y241567999D02*
X-79055001Y251981999D01*
X-81379001Y273572001D02*
X-81594999Y273787999D01*
X-81594999Y273787999D02*
X-82757000Y274950000D01*
X-81379001Y271112001D02*
X-81379001Y273572001D01*
%TO.N,/cpu/PC3*%
X-80325001Y255283999D02*
X-80325001Y256553999D01*
X-80325001Y256553999D02*
X-80325001Y258585999D01*
X-80325001Y258585999D02*
X-80325001Y268816001D01*
X-80325001Y240805999D02*
X-80325001Y255283999D01*
X-82757000Y271248000D02*
X-82757000Y272410000D01*
X-80725000Y240406000D02*
X-80325001Y240805999D01*
X-80325001Y268816001D02*
X-82757000Y271248000D01*
%TD*%
%TA.AperFunction,Conductor*%
%TO.N,GND*%
G36*
X-57335879Y283254998D02*
G01*
X-57289386Y283201342D01*
X-57278000Y283149000D01*
X-57278000Y173551000D01*
X-57298002Y173482879D01*
X-57351658Y173436386D01*
X-57404000Y173425000D01*
X-95002000Y173425000D01*
X-95070121Y173445002D01*
X-95116614Y173498658D01*
X-95128000Y173551000D01*
X-95128000Y183055504D01*
X-87574063Y183055504D01*
X-87558268Y182867410D01*
X-87506240Y182685966D01*
X-87419960Y182518083D01*
X-87416135Y182513257D01*
X-87416133Y182513254D01*
X-87306544Y182374986D01*
X-87306540Y182374981D01*
X-87302715Y182370156D01*
X-87158970Y182247820D01*
X-87153592Y182244814D01*
X-87153590Y182244813D01*
X-87076585Y182201777D01*
X-86994200Y182155733D01*
X-86814683Y182097405D01*
X-86627255Y182075055D01*
X-86621120Y182075527D01*
X-86621118Y182075527D01*
X-86445197Y182089063D01*
X-86445193Y182089064D01*
X-86439055Y182089536D01*
X-86433123Y182091192D01*
X-86433119Y182091193D01*
X-86263196Y182138637D01*
X-86263192Y182138638D01*
X-86257252Y182140297D01*
X-86177703Y182180480D01*
X-86094272Y182222623D01*
X-86094270Y182222624D01*
X-86088771Y182225402D01*
X-85940030Y182341612D01*
X-85936004Y182346276D01*
X-85936001Y182346279D01*
X-85820722Y182479831D01*
X-85820721Y182479833D01*
X-85816693Y182484499D01*
X-85723458Y182648622D01*
X-85663877Y182827728D01*
X-85640220Y183014995D01*
X-85639843Y183042000D01*
X-85658262Y183229855D01*
X-85712819Y183410555D01*
X-85801434Y183577217D01*
X-85920734Y183723492D01*
X-85926525Y183728283D01*
X-86061423Y183839880D01*
X-86061426Y183839882D01*
X-86066173Y183843809D01*
X-86232212Y183933586D01*
X-86412526Y183989403D01*
X-86418644Y183990046D01*
X-86418649Y183990047D01*
X-86594119Y184008489D01*
X-86594121Y184008489D01*
X-86600248Y184009133D01*
X-86715875Y183998610D01*
X-86782086Y183992585D01*
X-86782087Y183992585D01*
X-86788227Y183992026D01*
X-86969303Y183938732D01*
X-87136580Y183851282D01*
X-87283684Y183733007D01*
X-87405014Y183588412D01*
X-87495948Y183423004D01*
X-87553022Y183243083D01*
X-87574063Y183055504D01*
X-95128000Y183055504D01*
X-95128000Y188055504D01*
X-87574063Y188055504D01*
X-87558268Y187867410D01*
X-87506240Y187685966D01*
X-87419960Y187518083D01*
X-87416135Y187513257D01*
X-87416133Y187513254D01*
X-87306544Y187374986D01*
X-87306540Y187374981D01*
X-87302715Y187370156D01*
X-87158970Y187247820D01*
X-87153592Y187244814D01*
X-87153590Y187244813D01*
X-87076585Y187201776D01*
X-86994200Y187155733D01*
X-86814683Y187097405D01*
X-86627255Y187075055D01*
X-86621120Y187075527D01*
X-86621118Y187075527D01*
X-86445197Y187089063D01*
X-86445193Y187089064D01*
X-86439055Y187089536D01*
X-86433123Y187091192D01*
X-86433119Y187091193D01*
X-86263196Y187138637D01*
X-86263192Y187138638D01*
X-86257252Y187140297D01*
X-86177703Y187180480D01*
X-86094272Y187222623D01*
X-86094270Y187222624D01*
X-86088771Y187225402D01*
X-85940030Y187341612D01*
X-85936004Y187346276D01*
X-85936001Y187346279D01*
X-85820722Y187479831D01*
X-85820721Y187479833D01*
X-85816693Y187484499D01*
X-85723458Y187648622D01*
X-85663877Y187827728D01*
X-85640220Y188014995D01*
X-85639843Y188042000D01*
X-85658262Y188229855D01*
X-85712819Y188410555D01*
X-85801434Y188577217D01*
X-85920734Y188723492D01*
X-85926525Y188728283D01*
X-86061423Y188839880D01*
X-86061426Y188839882D01*
X-86066173Y188843809D01*
X-86232212Y188933586D01*
X-86412526Y188989403D01*
X-86418644Y188990046D01*
X-86418649Y188990047D01*
X-86594119Y189008489D01*
X-86594121Y189008489D01*
X-86600248Y189009133D01*
X-86715875Y188998610D01*
X-86782086Y188992585D01*
X-86782087Y188992585D01*
X-86788227Y188992026D01*
X-86969303Y188938732D01*
X-87136580Y188851282D01*
X-87283684Y188733007D01*
X-87405014Y188588412D01*
X-87495948Y188423004D01*
X-87553022Y188243083D01*
X-87574063Y188055504D01*
X-95128000Y188055504D01*
X-95128000Y202250100D01*
X-82226382Y202250100D01*
X-82205744Y202093338D01*
X-82145236Y201947259D01*
X-82048982Y201821818D01*
X-81923541Y201725564D01*
X-81777462Y201665056D01*
X-81620700Y201644418D01*
X-81612512Y201645496D01*
X-81589527Y201648522D01*
X-81573081Y201649600D01*
X-69222319Y201649600D01*
X-69205873Y201648522D01*
X-69174700Y201644418D01*
X-69166512Y201645496D01*
X-69135339Y201649600D01*
X-69026126Y201663978D01*
X-69017938Y201665056D01*
X-68871859Y201725564D01*
X-68746418Y201821818D01*
X-68650164Y201947259D01*
X-68589656Y202093338D01*
X-68569018Y202250100D01*
X-68589656Y202406862D01*
X-68650164Y202552941D01*
X-68746418Y202678382D01*
X-68871859Y202774636D01*
X-69017938Y202835144D01*
X-69135339Y202850600D01*
X-69174700Y202855782D01*
X-69182888Y202854704D01*
X-69205873Y202851678D01*
X-69222319Y202850600D01*
X-81573081Y202850600D01*
X-81589527Y202851678D01*
X-81612512Y202854704D01*
X-81620700Y202855782D01*
X-81777462Y202835144D01*
X-81923541Y202774636D01*
X-82048982Y202678382D01*
X-82145236Y202552941D01*
X-82205744Y202406862D01*
X-82226382Y202250100D01*
X-95128000Y202250100D01*
X-95128000Y212181203D01*
X-83801114Y212181203D01*
X-83780476Y212024441D01*
X-83719968Y211878362D01*
X-83623714Y211752921D01*
X-83498273Y211656667D01*
X-83352194Y211596159D01*
X-83344006Y211595081D01*
X-83195432Y211575521D01*
X-83195816Y211572607D01*
X-83141290Y211556597D01*
X-83120316Y211539694D01*
X-81074138Y209493516D01*
X-81074134Y209493513D01*
X-81051571Y209470950D01*
X-81042732Y209466446D01*
X-81042730Y209466445D01*
X-81031971Y209460963D01*
X-81015115Y209450635D01*
X-80997318Y209437704D01*
X-80976397Y209430906D01*
X-80958137Y209423342D01*
X-80947370Y209417856D01*
X-80947366Y209417855D01*
X-80938533Y209413354D01*
X-80928742Y209411803D01*
X-80928741Y209411803D01*
X-80916807Y209409913D01*
X-80897582Y209405297D01*
X-80886097Y209401565D01*
X-80886093Y209401564D01*
X-80876662Y209398500D01*
X-76278731Y209398500D01*
X-76210610Y209378498D01*
X-76200540Y209370382D01*
X-76200282Y209370718D01*
X-76074841Y209274464D01*
X-75928762Y209213956D01*
X-75772000Y209193318D01*
X-75763812Y209194396D01*
X-75623426Y209212878D01*
X-75615238Y209213956D01*
X-75469159Y209274464D01*
X-75343718Y209370718D01*
X-75247464Y209496159D01*
X-75186956Y209642238D01*
X-75166318Y209799000D01*
X-75186956Y209955762D01*
X-75247464Y210101841D01*
X-75343718Y210227282D01*
X-75469159Y210323536D01*
X-75615238Y210384044D01*
X-75772000Y210404682D01*
X-75928762Y210384044D01*
X-76074841Y210323536D01*
X-76200282Y210227282D01*
X-76202072Y210229614D01*
X-76251948Y210202379D01*
X-76278731Y210199500D01*
X-80595146Y210199500D01*
X-80663267Y210219502D01*
X-80684241Y210236405D01*
X-82553923Y212106087D01*
X-82587949Y212168399D01*
X-82589331Y212181258D01*
X-82589750Y212181203D01*
X-82609310Y212329777D01*
X-82610388Y212337965D01*
X-82670896Y212484044D01*
X-82767150Y212609485D01*
X-82892591Y212705739D01*
X-83038670Y212766247D01*
X-83195432Y212786885D01*
X-83352194Y212766247D01*
X-83498273Y212705739D01*
X-83623714Y212609485D01*
X-83719968Y212484044D01*
X-83780476Y212337965D01*
X-83801114Y212181203D01*
X-95128000Y212181203D01*
X-95128000Y236342000D01*
X-87426682Y236342000D01*
X-87406044Y236185238D01*
X-87345536Y236039159D01*
X-87314785Y235999083D01*
X-87255645Y235922011D01*
X-87249282Y235913718D01*
X-87123841Y235817464D01*
X-86977762Y235756956D01*
X-86821000Y235736318D01*
X-86812812Y235737396D01*
X-86672426Y235755878D01*
X-86664238Y235756956D01*
X-86518159Y235817464D01*
X-86392718Y235913718D01*
X-86386354Y235922011D01*
X-86327215Y235999083D01*
X-86296464Y236039159D01*
X-86235956Y236185238D01*
X-86215318Y236342000D01*
X-86235956Y236498762D01*
X-86296464Y236644841D01*
X-86392718Y236770282D01*
X-86390386Y236772072D01*
X-86417621Y236821948D01*
X-86420500Y236848731D01*
X-86420500Y237146100D01*
X-84378682Y237146100D01*
X-84377604Y237137912D01*
X-84363412Y237030116D01*
X-84358044Y236989338D01*
X-84297536Y236843259D01*
X-84201282Y236717818D01*
X-84075841Y236621564D01*
X-83929762Y236561056D01*
X-83773000Y236540418D01*
X-83764812Y236541496D01*
X-83624426Y236559978D01*
X-83616238Y236561056D01*
X-83470159Y236621564D01*
X-83463608Y236626591D01*
X-83463604Y236626593D01*
X-83452808Y236634877D01*
X-83386588Y236660477D01*
X-83317039Y236646212D01*
X-83266244Y236596611D01*
X-83250105Y236534914D01*
X-83250105Y227989172D01*
X-83247041Y227979741D01*
X-83247040Y227979737D01*
X-83243308Y227968252D01*
X-83238692Y227949027D01*
X-83237421Y227941005D01*
X-83235251Y227927301D01*
X-83230750Y227918468D01*
X-83230749Y227918464D01*
X-83225264Y227907699D01*
X-83217700Y227889439D01*
X-83210901Y227868515D01*
X-83197966Y227850712D01*
X-83187640Y227833860D01*
X-83177655Y227814263D01*
X-83155092Y227791700D01*
X-83155089Y227791696D01*
X-81620509Y226257116D01*
X-81586483Y226194804D01*
X-81585101Y226181945D01*
X-81584682Y226182000D01*
X-81564044Y226025238D01*
X-81503536Y225879159D01*
X-81407282Y225753718D01*
X-81281841Y225657464D01*
X-81135762Y225596956D01*
X-80979000Y225576318D01*
X-80970812Y225577396D01*
X-80830426Y225595878D01*
X-80822238Y225596956D01*
X-80676159Y225657464D01*
X-80669606Y225662492D01*
X-80669603Y225662494D01*
X-80655202Y225673544D01*
X-80588982Y225699145D01*
X-80519433Y225684881D01*
X-80468637Y225635279D01*
X-80452498Y225573582D01*
X-80452498Y217598884D01*
X-80472500Y217530763D01*
X-80489403Y217509789D01*
X-80789583Y217209609D01*
X-80851895Y217175583D01*
X-80864755Y217174201D01*
X-80864700Y217173782D01*
X-81021462Y217153144D01*
X-81167541Y217092636D01*
X-81292982Y216996382D01*
X-81389236Y216870941D01*
X-81449744Y216724862D01*
X-81450822Y216716674D01*
X-81453779Y216694211D01*
X-81470382Y216568100D01*
X-81449744Y216411338D01*
X-81389236Y216265259D01*
X-81320759Y216176018D01*
X-81314772Y216168216D01*
X-81292982Y216139818D01*
X-81167541Y216043564D01*
X-81021462Y215983056D01*
X-80864700Y215962418D01*
X-80856512Y215963496D01*
X-80716126Y215981978D01*
X-80707938Y215983056D01*
X-80561859Y216043564D01*
X-80436418Y216139818D01*
X-80414627Y216168216D01*
X-80408641Y216176018D01*
X-80340164Y216265259D01*
X-80279656Y216411338D01*
X-80265168Y216521382D01*
X-80259018Y216568100D01*
X-80256104Y216567716D01*
X-80240094Y216622243D01*
X-80223191Y216643217D01*
X-79723948Y217142460D01*
X-79718504Y217153144D01*
X-79713960Y217162061D01*
X-79703630Y217178918D01*
X-79696533Y217188687D01*
X-79690702Y217196712D01*
X-79683904Y217217634D01*
X-79676340Y217235895D01*
X-79670853Y217246663D01*
X-79670852Y217246667D01*
X-79666352Y217255498D01*
X-79664801Y217265287D01*
X-79664799Y217265295D01*
X-79662909Y217277229D01*
X-79658295Y217296449D01*
X-79654563Y217307935D01*
X-79654562Y217307942D01*
X-79651499Y217317369D01*
X-79651499Y217349277D01*
X-79651498Y217349283D01*
X-79651498Y230102335D01*
X-76690006Y230102335D01*
X-76674408Y229916586D01*
X-76672709Y229910661D01*
X-76631667Y229767530D01*
X-76623029Y229737405D01*
X-76537824Y229571615D01*
X-76422041Y229425532D01*
X-76280088Y229304721D01*
X-76117373Y229213783D01*
X-75940093Y229156181D01*
X-75755002Y229134110D01*
X-75748867Y229134582D01*
X-75748865Y229134582D01*
X-75575290Y229147938D01*
X-75575285Y229147939D01*
X-75569149Y229148411D01*
X-75563219Y229150067D01*
X-75563217Y229150067D01*
X-75395541Y229196883D01*
X-75395542Y229196883D01*
X-75389613Y229198538D01*
X-75223232Y229282583D01*
X-75198745Y229301714D01*
X-75081206Y229393546D01*
X-75081205Y229393547D01*
X-75076345Y229397344D01*
X-74977861Y229511439D01*
X-74958570Y229533788D01*
X-74958569Y229533789D01*
X-74954546Y229538450D01*
X-74949294Y229547694D01*
X-74865521Y229695163D01*
X-74862474Y229700526D01*
X-74803636Y229877399D01*
X-74780273Y230062332D01*
X-74779901Y230089000D01*
X-74798091Y230274513D01*
X-74799872Y230280412D01*
X-74799873Y230280417D01*
X-74850186Y230447061D01*
X-74851967Y230452960D01*
X-74939478Y230617544D01*
X-74943368Y230622314D01*
X-74943371Y230622318D01*
X-75053395Y230757220D01*
X-75053398Y230757223D01*
X-75057290Y230761995D01*
X-75062944Y230766673D01*
X-75196166Y230876884D01*
X-75200915Y230880813D01*
X-75364884Y230969471D01*
X-75453917Y230997031D01*
X-75537064Y231022769D01*
X-75537067Y231022770D01*
X-75542951Y231024591D01*
X-75549076Y231025235D01*
X-75549077Y231025235D01*
X-75722204Y231043432D01*
X-75722205Y231043432D01*
X-75728332Y231044076D01*
X-75806451Y231036967D01*
X-75907829Y231027741D01*
X-75907832Y231027740D01*
X-75913968Y231027182D01*
X-75919878Y231025443D01*
X-75919881Y231025442D01*
X-76086871Y230976293D01*
X-76092786Y230974552D01*
X-76257977Y230888193D01*
X-76403248Y230771392D01*
X-76523065Y230628599D01*
X-76526029Y230623207D01*
X-76526032Y230623203D01*
X-76600744Y230487301D01*
X-76612865Y230465254D01*
X-76669228Y230287576D01*
X-76690006Y230102335D01*
X-79651498Y230102335D01*
X-79651498Y232224919D01*
X-79631496Y232293040D01*
X-79614593Y232314014D01*
X-76482116Y235446491D01*
X-76419804Y235480517D01*
X-76406945Y235481899D01*
X-76407000Y235482318D01*
X-76250238Y235502956D01*
X-76104159Y235563464D01*
X-75978718Y235659718D01*
X-75882464Y235785159D01*
X-75821956Y235931238D01*
X-75820969Y235938736D01*
X-75784185Y235999083D01*
X-75720325Y236030104D01*
X-75649830Y236021676D01*
X-75610335Y235994944D01*
X-74533104Y234917713D01*
X-74499078Y234855401D01*
X-74496199Y234828618D01*
X-74496199Y207875185D01*
X-74516201Y207807064D01*
X-74533104Y207786090D01*
X-75696484Y206622711D01*
X-75696487Y206622707D01*
X-75719050Y206600144D01*
X-75723554Y206591304D01*
X-75729035Y206580547D01*
X-75739361Y206563695D01*
X-75752296Y206545892D01*
X-75759093Y206524972D01*
X-75766659Y206506708D01*
X-75772144Y206495943D01*
X-75772145Y206495939D01*
X-75776646Y206487106D01*
X-75778197Y206477315D01*
X-75778197Y206477314D01*
X-75780087Y206465380D01*
X-75784703Y206446155D01*
X-75788435Y206434670D01*
X-75788436Y206434666D01*
X-75791500Y206425235D01*
X-75791500Y205352731D01*
X-75811502Y205284610D01*
X-75819618Y205274540D01*
X-75819282Y205274282D01*
X-75915536Y205148841D01*
X-75976044Y205002762D01*
X-75996682Y204846000D01*
X-75976044Y204689238D01*
X-75915536Y204543159D01*
X-75819282Y204417718D01*
X-75693841Y204321464D01*
X-75547762Y204260956D01*
X-75391000Y204240318D01*
X-75382812Y204241396D01*
X-75242426Y204259878D01*
X-75234238Y204260956D01*
X-75088159Y204321464D01*
X-74962718Y204417718D01*
X-74866464Y204543159D01*
X-74805956Y204689238D01*
X-74785318Y204846000D01*
X-74805956Y205002762D01*
X-74866464Y205148841D01*
X-74962718Y205274282D01*
X-74960386Y205276072D01*
X-74987621Y205325948D01*
X-74990500Y205352731D01*
X-74990500Y206143719D01*
X-74970498Y206211840D01*
X-74953595Y206232814D01*
X-73790216Y207396194D01*
X-73767649Y207418761D01*
X-73763147Y207427596D01*
X-73757661Y207438362D01*
X-73747331Y207455219D01*
X-73740234Y207464988D01*
X-73734403Y207473013D01*
X-73727605Y207493935D01*
X-73720041Y207512196D01*
X-73714554Y207522964D01*
X-73714553Y207522968D01*
X-73710053Y207531799D01*
X-73708502Y207541588D01*
X-73708500Y207541596D01*
X-73706610Y207553530D01*
X-73701996Y207572750D01*
X-73698264Y207584236D01*
X-73698263Y207584243D01*
X-73695200Y207593670D01*
X-73695200Y207625578D01*
X-73695199Y207625584D01*
X-73695199Y216943016D01*
X-73675197Y217011137D01*
X-73621541Y217057630D01*
X-73551267Y217067734D01*
X-73486687Y217038240D01*
X-73480104Y217032111D01*
X-72616209Y216168216D01*
X-72582183Y216105904D01*
X-72580801Y216093045D01*
X-72580382Y216093100D01*
X-72563177Y215962418D01*
X-72559744Y215936338D01*
X-72499236Y215790259D01*
X-72402982Y215664818D01*
X-72277541Y215568564D01*
X-72131462Y215508056D01*
X-71974700Y215487418D01*
X-71966512Y215488496D01*
X-71826126Y215506978D01*
X-71817938Y215508056D01*
X-71671859Y215568564D01*
X-71546418Y215664818D01*
X-71450164Y215790259D01*
X-71389656Y215936338D01*
X-71386222Y215962418D01*
X-71370096Y216084912D01*
X-71369018Y216093100D01*
X-71389656Y216249862D01*
X-71450164Y216395941D01*
X-71546418Y216521382D01*
X-71671859Y216617636D01*
X-71817938Y216678144D01*
X-71974700Y216698782D01*
X-71974316Y216701696D01*
X-72028842Y216717706D01*
X-72049816Y216734609D01*
X-72969285Y217654078D01*
X-73003311Y217716390D01*
X-73006190Y217743173D01*
X-73006190Y228657371D01*
X-72986188Y228725492D01*
X-72932532Y228771985D01*
X-72862258Y228782089D01*
X-72803485Y228757333D01*
X-72785541Y228743564D01*
X-72639462Y228683056D01*
X-72631274Y228681978D01*
X-72482700Y228662418D01*
X-72483084Y228659504D01*
X-72428558Y228643494D01*
X-72407584Y228626591D01*
X-71269105Y227488112D01*
X-71235079Y227425800D01*
X-71232200Y227399017D01*
X-71232200Y225837831D01*
X-71252202Y225769710D01*
X-71260318Y225759640D01*
X-71259982Y225759382D01*
X-71356236Y225633941D01*
X-71416744Y225487862D01*
X-71437382Y225331100D01*
X-71416744Y225174338D01*
X-71356236Y225028259D01*
X-71259982Y224902818D01*
X-71134541Y224806564D01*
X-70988462Y224746056D01*
X-70831700Y224725418D01*
X-70823512Y224726496D01*
X-70683126Y224744978D01*
X-70674938Y224746056D01*
X-70528859Y224806564D01*
X-70403418Y224902818D01*
X-70307164Y225028259D01*
X-70246656Y225174338D01*
X-70226018Y225331100D01*
X-70246656Y225487862D01*
X-70307164Y225633941D01*
X-70403418Y225759382D01*
X-70401086Y225761172D01*
X-70428321Y225811048D01*
X-70431200Y225837831D01*
X-70431200Y227680533D01*
X-70435013Y227692270D01*
X-70437997Y227701452D01*
X-70442613Y227720678D01*
X-70444503Y227732611D01*
X-70446054Y227742404D01*
X-70456040Y227762003D01*
X-70463604Y227780264D01*
X-70470403Y227801189D01*
X-70483334Y227818987D01*
X-70493663Y227835843D01*
X-70499148Y227846607D01*
X-70499149Y227846608D01*
X-70503650Y227855442D01*
X-70526213Y227878005D01*
X-70526216Y227878009D01*
X-71074996Y228426789D01*
X-71827212Y229179006D01*
X-71861238Y229241318D01*
X-71856173Y229312134D01*
X-71827212Y229357196D01*
X-71504995Y229679413D01*
X-71442683Y229713439D01*
X-71371868Y229708374D01*
X-71326810Y229679417D01*
X-70444507Y228797114D01*
X-70410483Y228734804D01*
X-70409101Y228721945D01*
X-70408682Y228722000D01*
X-70388044Y228565238D01*
X-70327536Y228419159D01*
X-70231282Y228293718D01*
X-70105841Y228197464D01*
X-69959762Y228136956D01*
X-69803000Y228116318D01*
X-69794812Y228117396D01*
X-69654426Y228135878D01*
X-69646238Y228136956D01*
X-69500159Y228197464D01*
X-69374718Y228293718D01*
X-69278464Y228419159D01*
X-69217956Y228565238D01*
X-69197318Y228722000D01*
X-69217956Y228878762D01*
X-69278464Y229024841D01*
X-69374718Y229150282D01*
X-69500159Y229246536D01*
X-69646238Y229307044D01*
X-69658930Y229308715D01*
X-69803000Y229327682D01*
X-69802616Y229330596D01*
X-69857142Y229346606D01*
X-69878116Y229363509D01*
X-70645284Y230130677D01*
X-70679310Y230192989D01*
X-70682189Y230219772D01*
X-70682189Y232423004D01*
X-68775682Y232423004D01*
X-68755044Y232266242D01*
X-68694536Y232120163D01*
X-68598282Y231994722D01*
X-68591736Y231989699D01*
X-68573329Y231975575D01*
X-68560938Y231964707D01*
X-64325406Y227729175D01*
X-64291380Y227666863D01*
X-64288501Y227640080D01*
X-64288501Y210499924D01*
X-64308503Y210431803D01*
X-64325406Y210410829D01*
X-64478938Y210257297D01*
X-64491328Y210246430D01*
X-64516282Y210227282D01*
X-64612536Y210101841D01*
X-64673044Y209955762D01*
X-64693682Y209799000D01*
X-64673044Y209642238D01*
X-64612536Y209496159D01*
X-64516282Y209370718D01*
X-64390841Y209274464D01*
X-64244762Y209213956D01*
X-64088000Y209193318D01*
X-64079812Y209194396D01*
X-63939426Y209212878D01*
X-63931238Y209213956D01*
X-63785159Y209274464D01*
X-63659718Y209370718D01*
X-63640570Y209395672D01*
X-63629703Y209408062D01*
X-63297063Y209740702D01*
X-63284672Y209751570D01*
X-63266265Y209765694D01*
X-63259719Y209770717D01*
X-63163465Y209896158D01*
X-63102957Y210042237D01*
X-63087501Y210159638D01*
X-63082319Y210198999D01*
X-63086423Y210230172D01*
X-63087501Y210246618D01*
X-63087501Y227893386D01*
X-63086423Y227909832D01*
X-63083397Y227932817D01*
X-63082319Y227941005D01*
X-63102957Y228097767D01*
X-63163465Y228243846D01*
X-63235551Y228337790D01*
X-63259719Y228369287D01*
X-63284673Y228388435D01*
X-63297063Y228399302D01*
X-67711703Y232813942D01*
X-67722571Y232826333D01*
X-67736695Y232844740D01*
X-67741718Y232851286D01*
X-67867159Y232947540D01*
X-68013238Y233008048D01*
X-68170000Y233028686D01*
X-68326762Y233008048D01*
X-68472841Y232947540D01*
X-68598282Y232851286D01*
X-68694536Y232725845D01*
X-68744106Y232606172D01*
X-68751671Y232587908D01*
X-68755044Y232579766D01*
X-68775682Y232423004D01*
X-70682189Y232423004D01*
X-70682189Y233408706D01*
X-70662187Y233476827D01*
X-70608531Y233523320D01*
X-70538257Y233533424D01*
X-70473677Y233503930D01*
X-70467094Y233497801D01*
X-70190509Y233221216D01*
X-70156483Y233158904D01*
X-70155101Y233146045D01*
X-70154682Y233146100D01*
X-70134044Y232989338D01*
X-70073536Y232843259D01*
X-69977282Y232717818D01*
X-69851841Y232621564D01*
X-69705762Y232561056D01*
X-69697574Y232559978D01*
X-69627381Y232550737D01*
X-69549000Y232540418D01*
X-69540812Y232541496D01*
X-69400426Y232559978D01*
X-69392238Y232561056D01*
X-69246159Y232621564D01*
X-69120718Y232717818D01*
X-69024464Y232843259D01*
X-68963956Y232989338D01*
X-68943318Y233146100D01*
X-68963956Y233302862D01*
X-69024464Y233448941D01*
X-69120718Y233574382D01*
X-69246159Y233670636D01*
X-69392238Y233731144D01*
X-69549000Y233751782D01*
X-69548616Y233754696D01*
X-69603142Y233770706D01*
X-69624116Y233787609D01*
X-70045274Y234208767D01*
X-70079300Y234271079D01*
X-70082179Y234297862D01*
X-70082179Y236039790D01*
X-70062177Y236107911D01*
X-70008521Y236154404D01*
X-69938247Y236164508D01*
X-69873667Y236135014D01*
X-69839770Y236088008D01*
X-69819536Y236039159D01*
X-69788785Y235999083D01*
X-69729645Y235922011D01*
X-69723282Y235913718D01*
X-69597841Y235817464D01*
X-69451762Y235756956D01*
X-69295000Y235736318D01*
X-69286812Y235737396D01*
X-69146426Y235755878D01*
X-69138238Y235756956D01*
X-68992159Y235817464D01*
X-68866718Y235913718D01*
X-68860354Y235922011D01*
X-68801215Y235999083D01*
X-68770464Y236039159D01*
X-68709956Y236185238D01*
X-68689318Y236342000D01*
X-68709956Y236498762D01*
X-68770464Y236644841D01*
X-68866718Y236770282D01*
X-68992159Y236866536D01*
X-69138238Y236927044D01*
X-69295000Y236947682D01*
X-69294616Y236950596D01*
X-69349142Y236966606D01*
X-69370117Y236983509D01*
X-69445265Y237058658D01*
X-69479290Y237120971D01*
X-69482169Y237147753D01*
X-69482169Y274652248D01*
X-69462167Y274720369D01*
X-69445264Y274741343D01*
X-65410012Y278776595D01*
X-65347700Y278810621D01*
X-65320917Y278813500D01*
X-64195252Y278813500D01*
X-64189184Y278814707D01*
X-64148939Y278822712D01*
X-64148938Y278822712D01*
X-64136769Y278825133D01*
X-64070448Y278869448D01*
X-64026133Y278935769D01*
X-64014500Y278994252D01*
X-64014500Y280557748D01*
X-64026133Y280616231D01*
X-64070448Y280682552D01*
X-64136769Y280726867D01*
X-64148938Y280729288D01*
X-64148939Y280729288D01*
X-64189184Y280737293D01*
X-64195252Y280738500D01*
X-65758748Y280738500D01*
X-65764816Y280737293D01*
X-65805061Y280729288D01*
X-65805062Y280729288D01*
X-65817231Y280726867D01*
X-65883552Y280682552D01*
X-65927867Y280616231D01*
X-65939500Y280557748D01*
X-65939500Y279432083D01*
X-65959502Y279363962D01*
X-65976405Y279342988D01*
X-66339405Y278979988D01*
X-66401717Y278945962D01*
X-66472532Y278951027D01*
X-66529368Y278993574D01*
X-66554179Y279060094D01*
X-66554500Y279069083D01*
X-66554500Y280557748D01*
X-66566133Y280616231D01*
X-66610448Y280682552D01*
X-66676769Y280726867D01*
X-66688938Y280729288D01*
X-66688939Y280729288D01*
X-66729184Y280737293D01*
X-66735252Y280738500D01*
X-68298748Y280738500D01*
X-68304816Y280737293D01*
X-68345061Y280729288D01*
X-68345062Y280729288D01*
X-68357231Y280726867D01*
X-68423552Y280682552D01*
X-68467867Y280616231D01*
X-68479500Y280557748D01*
X-68479500Y279432083D01*
X-68499502Y279363962D01*
X-68516405Y279342988D01*
X-68879405Y278979988D01*
X-68941717Y278945962D01*
X-69012532Y278951027D01*
X-69069368Y278993574D01*
X-69094179Y279060094D01*
X-69094500Y279069083D01*
X-69094500Y280557748D01*
X-69106133Y280616231D01*
X-69150448Y280682552D01*
X-69216769Y280726867D01*
X-69228938Y280729288D01*
X-69228939Y280729288D01*
X-69269184Y280737293D01*
X-69275252Y280738500D01*
X-70838748Y280738500D01*
X-70844816Y280737293D01*
X-70885061Y280729288D01*
X-70885062Y280729288D01*
X-70897231Y280726867D01*
X-70963552Y280682552D01*
X-71007867Y280616231D01*
X-71019500Y280557748D01*
X-71019500Y279432083D01*
X-71039502Y279363962D01*
X-71056405Y279342988D01*
X-71237905Y279161488D01*
X-71300217Y279127462D01*
X-71371032Y279132527D01*
X-71416095Y279161488D01*
X-71597595Y279342988D01*
X-71631621Y279405300D01*
X-71634500Y279432083D01*
X-71634500Y280557748D01*
X-71646133Y280616231D01*
X-71690448Y280682552D01*
X-71756769Y280726867D01*
X-71768938Y280729288D01*
X-71768939Y280729288D01*
X-71809184Y280737293D01*
X-71815252Y280738500D01*
X-73378748Y280738500D01*
X-73384816Y280737293D01*
X-73425061Y280729288D01*
X-73425062Y280729288D01*
X-73437231Y280726867D01*
X-73503552Y280682552D01*
X-73547867Y280616231D01*
X-73559500Y280557748D01*
X-73559500Y278994252D01*
X-73547867Y278935769D01*
X-73503552Y278869448D01*
X-73437231Y278825133D01*
X-73425062Y278822712D01*
X-73425061Y278822712D01*
X-73384816Y278814707D01*
X-73378748Y278813500D01*
X-72253083Y278813500D01*
X-72184962Y278793498D01*
X-72163988Y278776595D01*
X-72120104Y278732711D01*
X-72086078Y278670399D01*
X-72083199Y278643616D01*
X-72083199Y276430781D01*
X-72103201Y276362660D01*
X-72156857Y276316167D01*
X-72227131Y276306063D01*
X-72291711Y276335557D01*
X-72298294Y276341686D01*
X-74555012Y278598405D01*
X-74589038Y278660717D01*
X-74583973Y278731533D01*
X-74541426Y278788368D01*
X-74474906Y278813179D01*
X-74465917Y278813500D01*
X-74355252Y278813500D01*
X-74349184Y278814707D01*
X-74308939Y278822712D01*
X-74308938Y278822712D01*
X-74296769Y278825133D01*
X-74230448Y278869448D01*
X-74186133Y278935769D01*
X-74174500Y278994252D01*
X-74174500Y280557748D01*
X-74186133Y280616231D01*
X-74230448Y280682552D01*
X-74296769Y280726867D01*
X-74308938Y280729288D01*
X-74308939Y280729288D01*
X-74349184Y280737293D01*
X-74355252Y280738500D01*
X-75918748Y280738500D01*
X-75924816Y280737293D01*
X-75965061Y280729288D01*
X-75965062Y280729288D01*
X-75977231Y280726867D01*
X-76043552Y280682552D01*
X-76087867Y280616231D01*
X-76099500Y280557748D01*
X-76099500Y278994252D01*
X-76087867Y278935769D01*
X-76043552Y278869448D01*
X-75977231Y278825133D01*
X-75965062Y278822712D01*
X-75965061Y278822712D01*
X-75924816Y278814707D01*
X-75918748Y278813500D01*
X-75663500Y278813500D01*
X-75595379Y278793498D01*
X-75548886Y278739842D01*
X-75537500Y278687500D01*
X-75537500Y278550567D01*
X-75534436Y278541136D01*
X-75534435Y278541132D01*
X-75530703Y278529647D01*
X-75526087Y278510422D01*
X-75522646Y278488696D01*
X-75518145Y278479863D01*
X-75518144Y278479859D01*
X-75512659Y278469094D01*
X-75505095Y278450834D01*
X-75498296Y278429910D01*
X-75485361Y278412107D01*
X-75475035Y278395255D01*
X-75465050Y278375658D01*
X-75442487Y278353095D01*
X-75442484Y278353091D01*
X-72720114Y275630722D01*
X-72686088Y275568410D01*
X-72683209Y275541627D01*
X-72683209Y239160373D01*
X-72703211Y239092252D01*
X-72720114Y239071278D01*
X-73283883Y238507509D01*
X-73346195Y238473483D01*
X-73359055Y238472101D01*
X-73359000Y238471682D01*
X-73515762Y238451044D01*
X-73661841Y238390536D01*
X-73787282Y238294282D01*
X-73883536Y238168841D01*
X-73944044Y238022762D01*
X-73964682Y237866000D01*
X-73944044Y237709238D01*
X-73883536Y237563159D01*
X-73787282Y237437718D01*
X-73661841Y237341464D01*
X-73515762Y237280956D01*
X-73359000Y237260318D01*
X-73350812Y237261396D01*
X-73210426Y237279878D01*
X-73202238Y237280956D01*
X-73056159Y237341464D01*
X-72930718Y237437718D01*
X-72834464Y237563159D01*
X-72773956Y237709238D01*
X-72767197Y237760574D01*
X-72753318Y237866000D01*
X-72750404Y237865616D01*
X-72734394Y237920143D01*
X-72717491Y237941117D01*
X-72298294Y238360314D01*
X-72235982Y238394340D01*
X-72165167Y238389275D01*
X-72108331Y238346728D01*
X-72083520Y238280208D01*
X-72083199Y238271219D01*
X-72083199Y230286183D01*
X-72103201Y230218062D01*
X-72120104Y230197088D01*
X-72407583Y229909609D01*
X-72469895Y229875583D01*
X-72482755Y229874201D01*
X-72482700Y229873782D01*
X-72639462Y229853144D01*
X-72785541Y229792636D01*
X-72792092Y229787609D01*
X-72803485Y229778867D01*
X-72869705Y229753266D01*
X-72939254Y229767530D01*
X-72990050Y229817131D01*
X-73006190Y229878829D01*
X-73006190Y234645880D01*
X-72986188Y234714001D01*
X-72932532Y234760494D01*
X-72896638Y234770801D01*
X-72833938Y234779056D01*
X-72687859Y234839564D01*
X-72562418Y234935818D01*
X-72466164Y235061259D01*
X-72405656Y235207338D01*
X-72402568Y235230790D01*
X-72386096Y235355912D01*
X-72385018Y235364100D01*
X-72395865Y235446491D01*
X-72404578Y235512674D01*
X-72405656Y235520862D01*
X-72466164Y235666941D01*
X-72562418Y235792382D01*
X-72687859Y235888636D01*
X-72833938Y235949144D01*
X-72990700Y235969782D01*
X-73147462Y235949144D01*
X-73293541Y235888636D01*
X-73418982Y235792382D01*
X-73515236Y235666941D01*
X-73575744Y235520862D01*
X-73576822Y235512674D01*
X-73592154Y235396215D01*
X-73620876Y235331288D01*
X-73680142Y235292196D01*
X-73751133Y235291351D01*
X-73806171Y235323566D01*
X-76019489Y237536884D01*
X-76053515Y237599196D01*
X-76054897Y237612055D01*
X-76055316Y237612000D01*
X-76074876Y237760574D01*
X-76075954Y237768762D01*
X-76136462Y237914841D01*
X-76232716Y238040282D01*
X-76358157Y238136536D01*
X-76504236Y238197044D01*
X-76660998Y238217682D01*
X-76817760Y238197044D01*
X-76963839Y238136536D01*
X-77089280Y238040282D01*
X-77185534Y237914841D01*
X-77246042Y237768762D01*
X-77266680Y237612000D01*
X-77246042Y237455238D01*
X-77185534Y237309159D01*
X-77089280Y237183718D01*
X-76963839Y237087464D01*
X-76817760Y237026956D01*
X-76809572Y237025878D01*
X-76660998Y237006318D01*
X-76661382Y237003404D01*
X-76606856Y236987394D01*
X-76585882Y236970491D01*
X-76500056Y236884665D01*
X-76466030Y236822353D01*
X-76471095Y236751538D01*
X-76513642Y236694702D01*
X-76556168Y236674044D01*
X-76563762Y236673044D01*
X-76709841Y236612536D01*
X-76835282Y236516282D01*
X-76931536Y236390841D01*
X-76992044Y236244762D01*
X-76993122Y236236574D01*
X-76999880Y236185238D01*
X-77012682Y236088000D01*
X-77015596Y236088384D01*
X-77031606Y236033858D01*
X-77048509Y236012884D01*
X-80357482Y232703911D01*
X-80357485Y232703907D01*
X-80380048Y232681344D01*
X-80384552Y232672504D01*
X-80390033Y232661747D01*
X-80400359Y232644895D01*
X-80413294Y232627092D01*
X-80420091Y232606172D01*
X-80427657Y232587908D01*
X-80433142Y232577143D01*
X-80433143Y232577139D01*
X-80437644Y232568306D01*
X-80439195Y232558515D01*
X-80439195Y232558514D01*
X-80441085Y232546580D01*
X-80445701Y232527355D01*
X-80449433Y232515870D01*
X-80449434Y232515866D01*
X-80452498Y232506435D01*
X-80452498Y231165532D01*
X-80472500Y231097411D01*
X-80526156Y231050918D01*
X-80591668Y231040222D01*
X-80628332Y231044076D01*
X-80706451Y231036967D01*
X-80807829Y231027741D01*
X-80807832Y231027740D01*
X-80813968Y231027182D01*
X-80819878Y231025443D01*
X-80819881Y231025442D01*
X-80986871Y230976293D01*
X-80992786Y230974552D01*
X-81157977Y230888193D01*
X-81303248Y230771392D01*
X-81423065Y230628599D01*
X-81426029Y230623207D01*
X-81426032Y230623203D01*
X-81500744Y230487301D01*
X-81512865Y230465254D01*
X-81569228Y230287576D01*
X-81590006Y230102335D01*
X-81574408Y229916586D01*
X-81572709Y229910661D01*
X-81531667Y229767530D01*
X-81523029Y229737405D01*
X-81520212Y229731924D01*
X-81488728Y229670663D01*
X-81475381Y229600932D01*
X-81496367Y229547694D01*
X-81494379Y229546546D01*
X-81498509Y229539393D01*
X-81503536Y229532841D01*
X-81564044Y229386762D01*
X-81584682Y229230000D01*
X-81564044Y229073238D01*
X-81503536Y228927159D01*
X-81407282Y228801718D01*
X-81281841Y228705464D01*
X-81135762Y228644956D01*
X-80979000Y228624318D01*
X-80970812Y228625396D01*
X-80830426Y228643878D01*
X-80822238Y228644956D01*
X-80676159Y228705464D01*
X-80669606Y228710492D01*
X-80669603Y228710494D01*
X-80655202Y228721544D01*
X-80588982Y228747145D01*
X-80519433Y228732881D01*
X-80468637Y228683279D01*
X-80452498Y228621582D01*
X-80452498Y226790418D01*
X-80472500Y226722297D01*
X-80526156Y226675804D01*
X-80596430Y226665700D01*
X-80655202Y226690456D01*
X-80669603Y226701506D01*
X-80669606Y226701508D01*
X-80676159Y226706536D01*
X-80822238Y226767044D01*
X-80979000Y226787682D01*
X-80978616Y226790596D01*
X-81033142Y226806606D01*
X-81054116Y226823509D01*
X-82412200Y228181593D01*
X-82446226Y228243905D01*
X-82449105Y228270688D01*
X-82449105Y234909522D01*
X-82429103Y234977643D01*
X-82375447Y235024136D01*
X-82305173Y235034240D01*
X-82240593Y235004746D01*
X-82234010Y234998617D01*
X-81112509Y233877117D01*
X-81078484Y233814805D01*
X-81077101Y233801945D01*
X-81076682Y233802000D01*
X-81056044Y233645238D01*
X-80995536Y233499159D01*
X-80899282Y233373718D01*
X-80773841Y233277464D01*
X-80627762Y233216956D01*
X-80471000Y233196318D01*
X-80462812Y233197396D01*
X-80322426Y233215878D01*
X-80314238Y233216956D01*
X-80168159Y233277464D01*
X-80042718Y233373718D01*
X-79946464Y233499159D01*
X-79885956Y233645238D01*
X-79865318Y233802000D01*
X-79867585Y233819217D01*
X-79856647Y233889363D01*
X-79809520Y233942463D01*
X-79741166Y233961654D01*
X-79726226Y233960586D01*
X-79709000Y233958318D01*
X-79700812Y233959396D01*
X-79691780Y233960585D01*
X-79552238Y233978956D01*
X-79406159Y234039464D01*
X-79280718Y234135718D01*
X-79184464Y234261159D01*
X-79123956Y234407238D01*
X-79103318Y234564000D01*
X-79123956Y234720762D01*
X-79184464Y234866841D01*
X-79280718Y234992282D01*
X-79406159Y235088536D01*
X-79552238Y235149044D01*
X-79709000Y235169682D01*
X-79708616Y235172596D01*
X-79763143Y235188606D01*
X-79784117Y235205509D01*
X-81211585Y236632978D01*
X-81245611Y236695290D01*
X-81248490Y236722073D01*
X-81248490Y239795271D01*
X-81228488Y239863392D01*
X-81174832Y239909885D01*
X-81104558Y239919989D01*
X-81045785Y239895233D01*
X-81027841Y239881464D01*
X-80881762Y239820956D01*
X-80725000Y239800318D01*
X-80716812Y239801396D01*
X-80576426Y239819878D01*
X-80568238Y239820956D01*
X-80422159Y239881464D01*
X-80296718Y239977718D01*
X-80200464Y240103159D01*
X-80139956Y240249238D01*
X-80124743Y240364789D01*
X-80119318Y240406000D01*
X-80116404Y240405616D01*
X-80100394Y240460142D01*
X-80083491Y240481116D01*
X-80019517Y240545090D01*
X-80019514Y240545094D01*
X-79996951Y240567657D01*
X-79986966Y240587254D01*
X-79976640Y240604106D01*
X-79963705Y240621909D01*
X-79963458Y240621728D01*
X-79919231Y240668558D01*
X-79850316Y240685626D01*
X-79779007Y240659705D01*
X-79757841Y240643464D01*
X-79611762Y240582956D01*
X-79455000Y240562318D01*
X-79446812Y240563396D01*
X-79306426Y240581878D01*
X-79298238Y240582956D01*
X-79152159Y240643464D01*
X-79026718Y240739718D01*
X-78930464Y240865159D01*
X-78869956Y241011238D01*
X-78849318Y241168000D01*
X-78846404Y241167616D01*
X-78830394Y241222142D01*
X-78813491Y241243116D01*
X-78749517Y241307090D01*
X-78749514Y241307094D01*
X-78726951Y241329657D01*
X-78716966Y241349254D01*
X-78706640Y241366106D01*
X-78693705Y241383909D01*
X-78686906Y241404833D01*
X-78679342Y241423093D01*
X-78673857Y241433858D01*
X-78673856Y241433862D01*
X-78669355Y241442695D01*
X-78665914Y241464421D01*
X-78661298Y241483646D01*
X-78657566Y241495131D01*
X-78657565Y241495135D01*
X-78654501Y241504566D01*
X-78654501Y267841560D01*
X-77608037Y267841560D01*
X-77607740Y267836408D01*
X-77607740Y267836404D01*
X-77594604Y267608597D01*
X-77594603Y267608591D01*
X-77594306Y267603438D01*
X-77541869Y267370755D01*
X-77539925Y267365968D01*
X-77539924Y267365964D01*
X-77501040Y267270205D01*
X-77452133Y267149761D01*
X-77327507Y266946391D01*
X-77171340Y266766106D01*
X-76987824Y266613748D01*
X-76781888Y266493409D01*
X-76559063Y266408320D01*
X-76553995Y266407289D01*
X-76553992Y266407288D01*
X-76438733Y266383838D01*
X-76325334Y266360767D01*
X-76320161Y266360577D01*
X-76320158Y266360577D01*
X-76092139Y266352216D01*
X-76092135Y266352216D01*
X-76086975Y266352027D01*
X-76081854Y266352683D01*
X-75855511Y266381679D01*
X-75855510Y266381679D01*
X-75850391Y266382335D01*
X-75621932Y266450875D01*
X-75407736Y266555809D01*
X-75326508Y266613748D01*
X-75217758Y266691319D01*
X-75213555Y266694317D01*
X-75044603Y266862680D01*
X-74905418Y267056377D01*
X-74856894Y267154556D01*
X-74802031Y267265563D01*
X-74802030Y267265565D01*
X-74799737Y267270205D01*
X-74730400Y267498423D01*
X-74729725Y267503549D01*
X-74699704Y267731579D01*
X-74699703Y267731586D01*
X-74699267Y267734901D01*
X-74697529Y267806000D01*
X-74705245Y267899857D01*
X-74716649Y268038565D01*
X-74716650Y268038571D01*
X-74717073Y268043716D01*
X-74775179Y268275048D01*
X-74787585Y268303580D01*
X-74868228Y268489047D01*
X-74868230Y268489050D01*
X-74870288Y268493784D01*
X-74999845Y268694049D01*
X-75028640Y268725695D01*
X-75156893Y268866642D01*
X-75156895Y268866643D01*
X-75160371Y268870464D01*
X-75164422Y268873663D01*
X-75164426Y268873667D01*
X-75343500Y269015091D01*
X-75343504Y269015093D01*
X-75347555Y269018293D01*
X-75362137Y269026343D01*
X-75453740Y269076910D01*
X-75556369Y269133564D01*
X-75561238Y269135288D01*
X-75561242Y269135290D01*
X-75776337Y269211459D01*
X-75776339Y269211460D01*
X-75781206Y269213183D01*
X-75898617Y269234098D01*
X-76010940Y269254106D01*
X-76010944Y269254106D01*
X-76016028Y269255012D01*
X-76099860Y269256036D01*
X-76249360Y269257863D01*
X-76249362Y269257863D01*
X-76254529Y269257926D01*
X-76490302Y269221847D01*
X-76717018Y269147745D01*
X-76721606Y269145357D01*
X-76721610Y269145355D01*
X-76853099Y269076906D01*
X-76928586Y269037610D01*
X-76932719Y269034507D01*
X-76932722Y269034505D01*
X-77115190Y268897503D01*
X-77119325Y268894398D01*
X-77284113Y268721958D01*
X-77418525Y268524918D01*
X-77518949Y268308572D01*
X-77582691Y268078728D01*
X-77608037Y267841560D01*
X-78654501Y267841560D01*
X-78654501Y268819520D01*
X-78654502Y268819526D01*
X-78654502Y268851434D01*
X-78657565Y268860861D01*
X-78657566Y268860868D01*
X-78661298Y268872354D01*
X-78665912Y268891574D01*
X-78667802Y268903508D01*
X-78667804Y268903516D01*
X-78669355Y268913305D01*
X-78673855Y268922136D01*
X-78673856Y268922140D01*
X-78679343Y268932908D01*
X-78686907Y268951169D01*
X-78693705Y268972091D01*
X-78706633Y268989885D01*
X-78716963Y269006742D01*
X-78722449Y269017508D01*
X-78722450Y269017509D01*
X-78726951Y269026343D01*
X-78816659Y269116051D01*
X-80933012Y271232405D01*
X-80967038Y271294717D01*
X-80961973Y271365532D01*
X-80919426Y271422368D01*
X-80852906Y271447179D01*
X-80843917Y271447500D01*
X-79435252Y271447500D01*
X-79421894Y271450157D01*
X-79388939Y271456712D01*
X-79388938Y271456712D01*
X-79376769Y271459133D01*
X-79310448Y271503448D01*
X-79266133Y271569769D01*
X-79254500Y271628252D01*
X-79254500Y273191748D01*
X-79266133Y273250231D01*
X-79310448Y273316552D01*
X-79376769Y273360867D01*
X-79388938Y273363288D01*
X-79388939Y273363288D01*
X-79429184Y273371293D01*
X-79435252Y273372500D01*
X-80852501Y273372500D01*
X-80920622Y273392502D01*
X-80967115Y273446158D01*
X-80978501Y273498500D01*
X-80978501Y273603520D01*
X-80978502Y273603526D01*
X-80978502Y273635434D01*
X-80981565Y273644861D01*
X-80981566Y273644868D01*
X-80985298Y273656354D01*
X-80989912Y273675574D01*
X-80991802Y273687508D01*
X-80991804Y273687516D01*
X-80993355Y273697305D01*
X-80997855Y273706136D01*
X-80997856Y273706140D01*
X-81003343Y273716908D01*
X-81010907Y273735169D01*
X-81017705Y273756091D01*
X-81030633Y273773885D01*
X-81040964Y273790744D01*
X-81047870Y273804298D01*
X-81060974Y273874075D01*
X-81034273Y273939859D01*
X-80976246Y273980765D01*
X-80935603Y273987500D01*
X-79435252Y273987500D01*
X-79429184Y273988707D01*
X-79388939Y273996712D01*
X-79388938Y273996712D01*
X-79376769Y273999133D01*
X-79310448Y274043448D01*
X-79266133Y274109769D01*
X-79254500Y274168252D01*
X-79254500Y275731748D01*
X-79266133Y275790231D01*
X-79310448Y275856552D01*
X-79376769Y275900867D01*
X-79388938Y275903288D01*
X-79388939Y275903288D01*
X-79429184Y275911293D01*
X-79435252Y275912500D01*
X-80998748Y275912500D01*
X-81004816Y275911293D01*
X-81045061Y275903288D01*
X-81045062Y275903288D01*
X-81057231Y275900867D01*
X-81123552Y275856552D01*
X-81167867Y275790231D01*
X-81179500Y275731748D01*
X-81179500Y274243083D01*
X-81199502Y274174962D01*
X-81253158Y274128469D01*
X-81323432Y274118365D01*
X-81388012Y274147859D01*
X-81394595Y274153988D01*
X-81757595Y274516988D01*
X-81791621Y274579300D01*
X-81794500Y274606083D01*
X-81794500Y275731748D01*
X-81806133Y275790231D01*
X-81850448Y275856552D01*
X-81916769Y275900867D01*
X-81928938Y275903288D01*
X-81928939Y275903288D01*
X-81969184Y275911293D01*
X-81975252Y275912500D01*
X-83538748Y275912500D01*
X-83544816Y275911293D01*
X-83585061Y275903288D01*
X-83585062Y275903288D01*
X-83597231Y275900867D01*
X-83663552Y275856552D01*
X-83707867Y275790231D01*
X-83719500Y275731748D01*
X-83719500Y274168252D01*
X-83707867Y274109769D01*
X-83663552Y274043448D01*
X-83597231Y273999133D01*
X-83585062Y273996712D01*
X-83585061Y273996712D01*
X-83544816Y273988707D01*
X-83538748Y273987500D01*
X-82413083Y273987500D01*
X-82344962Y273967498D01*
X-82323988Y273950595D01*
X-81960988Y273587595D01*
X-81926962Y273525283D01*
X-81932027Y273454468D01*
X-81974574Y273397632D01*
X-82041094Y273372821D01*
X-82050083Y273372500D01*
X-83538748Y273372500D01*
X-83544816Y273371293D01*
X-83585061Y273363288D01*
X-83585062Y273363288D01*
X-83597231Y273360867D01*
X-83663552Y273316552D01*
X-83707867Y273250231D01*
X-83719500Y273191748D01*
X-83719500Y271628252D01*
X-83707867Y271569769D01*
X-83663552Y271503448D01*
X-83597231Y271459133D01*
X-83585062Y271456712D01*
X-83585061Y271456712D01*
X-83552106Y271450157D01*
X-83538748Y271447500D01*
X-83283500Y271447500D01*
X-83215379Y271427498D01*
X-83168886Y271373842D01*
X-83157500Y271321500D01*
X-83157500Y271184567D01*
X-83154436Y271175136D01*
X-83154435Y271175132D01*
X-83150703Y271163647D01*
X-83146087Y271144422D01*
X-83142646Y271122696D01*
X-83138145Y271113863D01*
X-83138144Y271113859D01*
X-83132659Y271103094D01*
X-83125095Y271084834D01*
X-83118296Y271063910D01*
X-83105361Y271046107D01*
X-83095035Y271029255D01*
X-83085050Y271009658D01*
X-83062487Y270987095D01*
X-83062484Y270987091D01*
X-80762406Y268687013D01*
X-80728380Y268624701D01*
X-80725501Y268597918D01*
X-80725501Y254745001D01*
X-80745503Y254676880D01*
X-80799159Y254630387D01*
X-80869433Y254620283D01*
X-80915193Y254639559D01*
X-80916452Y254637379D01*
X-80923605Y254641509D01*
X-80930157Y254646536D01*
X-81076236Y254707044D01*
X-81232998Y254727682D01*
X-81389760Y254707044D01*
X-81535839Y254646536D01*
X-81661280Y254550282D01*
X-81757534Y254424841D01*
X-81760694Y254417212D01*
X-81760697Y254417207D01*
X-81768850Y254397524D01*
X-81813398Y254342243D01*
X-81880762Y254319823D01*
X-81933473Y254329333D01*
X-82074105Y254387585D01*
X-82230867Y254408223D01*
X-82387629Y254387585D01*
X-82533708Y254327077D01*
X-82659149Y254230823D01*
X-82755403Y254105382D01*
X-82815911Y253959303D01*
X-82836549Y253802541D01*
X-82835471Y253794353D01*
X-82829933Y253752288D01*
X-82840872Y253682140D01*
X-82888000Y253629041D01*
X-82938408Y253610920D01*
X-82998179Y253603051D01*
X-83006367Y253601973D01*
X-83152446Y253541465D01*
X-83277887Y253445211D01*
X-83374141Y253319770D01*
X-83434649Y253173691D01*
X-83455287Y253016929D01*
X-83434649Y252860167D01*
X-83374141Y252714088D01*
X-83369114Y252707537D01*
X-83277887Y252588647D01*
X-83280219Y252586857D01*
X-83252984Y252536981D01*
X-83250105Y252510198D01*
X-83250105Y248891186D01*
X-83270107Y248823065D01*
X-83323763Y248776572D01*
X-83394037Y248766468D01*
X-83452808Y248791223D01*
X-83463604Y248799507D01*
X-83463608Y248799509D01*
X-83470159Y248804536D01*
X-83616238Y248865044D01*
X-83773000Y248885682D01*
X-83929762Y248865044D01*
X-84075841Y248804536D01*
X-84201282Y248708282D01*
X-84297536Y248582841D01*
X-84358044Y248436762D01*
X-84378682Y248280000D01*
X-84358044Y248123238D01*
X-84297536Y247977159D01*
X-84292506Y247970604D01*
X-84290381Y247966923D01*
X-84273500Y247903922D01*
X-84273500Y237522178D01*
X-84290381Y237459177D01*
X-84292506Y237455496D01*
X-84297536Y237448941D01*
X-84358044Y237302862D01*
X-84378682Y237146100D01*
X-86420500Y237146100D01*
X-86420500Y240153269D01*
X-86400498Y240221390D01*
X-86392382Y240231460D01*
X-86392718Y240231718D01*
X-86385128Y240241609D01*
X-86296464Y240357159D01*
X-86235956Y240503238D01*
X-86215318Y240660000D01*
X-86235956Y240816762D01*
X-86296464Y240962841D01*
X-86392718Y241088282D01*
X-86518159Y241184536D01*
X-86664238Y241245044D01*
X-86821000Y241265682D01*
X-86977762Y241245044D01*
X-87123841Y241184536D01*
X-87249282Y241088282D01*
X-87345536Y240962841D01*
X-87406044Y240816762D01*
X-87426682Y240660000D01*
X-87406044Y240503238D01*
X-87345536Y240357159D01*
X-87256872Y240241609D01*
X-87249282Y240231718D01*
X-87251614Y240229928D01*
X-87224379Y240180052D01*
X-87221500Y240153269D01*
X-87221500Y236848731D01*
X-87241502Y236780610D01*
X-87249618Y236770540D01*
X-87249282Y236770282D01*
X-87345536Y236644841D01*
X-87406044Y236498762D01*
X-87426682Y236342000D01*
X-95128000Y236342000D01*
X-95128000Y271628252D01*
X-88799500Y271628252D01*
X-88787867Y271569769D01*
X-88743552Y271503448D01*
X-88677231Y271459133D01*
X-88665062Y271456712D01*
X-88665061Y271456712D01*
X-88632106Y271450157D01*
X-88618748Y271447500D01*
X-87055252Y271447500D01*
X-87041894Y271450157D01*
X-87008939Y271456712D01*
X-87008938Y271456712D01*
X-86996769Y271459133D01*
X-86930448Y271503448D01*
X-86886133Y271569769D01*
X-86874500Y271628252D01*
X-86259500Y271628252D01*
X-86247867Y271569769D01*
X-86203552Y271503448D01*
X-86137231Y271459133D01*
X-86125062Y271456712D01*
X-86125061Y271456712D01*
X-86092106Y271450157D01*
X-86078748Y271447500D01*
X-84515252Y271447500D01*
X-84501894Y271450157D01*
X-84468939Y271456712D01*
X-84468938Y271456712D01*
X-84456769Y271459133D01*
X-84390448Y271503448D01*
X-84346133Y271569769D01*
X-84334500Y271628252D01*
X-84334500Y273191748D01*
X-84346133Y273250231D01*
X-84390448Y273316552D01*
X-84456769Y273360867D01*
X-84468938Y273363288D01*
X-84468939Y273363288D01*
X-84509184Y273371293D01*
X-84515252Y273372500D01*
X-86078748Y273372500D01*
X-86084816Y273371293D01*
X-86125061Y273363288D01*
X-86125062Y273363288D01*
X-86137231Y273360867D01*
X-86203552Y273316552D01*
X-86247867Y273250231D01*
X-86259500Y273191748D01*
X-86259500Y271628252D01*
X-86874500Y271628252D01*
X-86874500Y273191748D01*
X-86886133Y273250231D01*
X-86930448Y273316552D01*
X-86996769Y273360867D01*
X-87008938Y273363288D01*
X-87008939Y273363288D01*
X-87049184Y273371293D01*
X-87055252Y273372500D01*
X-88618748Y273372500D01*
X-88624816Y273371293D01*
X-88665061Y273363288D01*
X-88665062Y273363288D01*
X-88677231Y273360867D01*
X-88743552Y273316552D01*
X-88787867Y273250231D01*
X-88799500Y273191748D01*
X-88799500Y271628252D01*
X-95128000Y271628252D01*
X-95128000Y274168252D01*
X-88799500Y274168252D01*
X-88787867Y274109769D01*
X-88743552Y274043448D01*
X-88677231Y273999133D01*
X-88665062Y273996712D01*
X-88665061Y273996712D01*
X-88624816Y273988707D01*
X-88618748Y273987500D01*
X-87055252Y273987500D01*
X-87049184Y273988707D01*
X-87008939Y273996712D01*
X-87008938Y273996712D01*
X-86996769Y273999133D01*
X-86930448Y274043448D01*
X-86886133Y274109769D01*
X-86874500Y274168252D01*
X-86259500Y274168252D01*
X-86247867Y274109769D01*
X-86203552Y274043448D01*
X-86137231Y273999133D01*
X-86125062Y273996712D01*
X-86125061Y273996712D01*
X-86084816Y273988707D01*
X-86078748Y273987500D01*
X-84515252Y273987500D01*
X-84509184Y273988707D01*
X-84468939Y273996712D01*
X-84468938Y273996712D01*
X-84456769Y273999133D01*
X-84390448Y274043448D01*
X-84346133Y274109769D01*
X-84334500Y274168252D01*
X-84334500Y275731748D01*
X-84346133Y275790231D01*
X-84390448Y275856552D01*
X-84456769Y275900867D01*
X-84468938Y275903288D01*
X-84468939Y275903288D01*
X-84509184Y275911293D01*
X-84515252Y275912500D01*
X-86078748Y275912500D01*
X-86084816Y275911293D01*
X-86125061Y275903288D01*
X-86125062Y275903288D01*
X-86137231Y275900867D01*
X-86203552Y275856552D01*
X-86247867Y275790231D01*
X-86259500Y275731748D01*
X-86259500Y274168252D01*
X-86874500Y274168252D01*
X-86874500Y275731748D01*
X-86886133Y275790231D01*
X-86930448Y275856552D01*
X-86996769Y275900867D01*
X-87008938Y275903288D01*
X-87008939Y275903288D01*
X-87049184Y275911293D01*
X-87055252Y275912500D01*
X-88618748Y275912500D01*
X-88624816Y275911293D01*
X-88665061Y275903288D01*
X-88665062Y275903288D01*
X-88677231Y275900867D01*
X-88743552Y275856552D01*
X-88787867Y275790231D01*
X-88799500Y275731748D01*
X-88799500Y274168252D01*
X-95128000Y274168252D01*
X-95128000Y283149000D01*
X-95107998Y283217121D01*
X-95054342Y283263614D01*
X-95002000Y283275000D01*
X-57404000Y283275000D01*
X-57335879Y283254998D01*
G37*
%TD.AperFunction*%
%TD*%
M02*
