%TF.GenerationSoftware,KiCad,Pcbnew,6.0.4-6f826c9f35~116~ubuntu20.04.1*%
%TF.CreationDate,2023-08-03T19:45:13+00:00*%
%TF.ProjectId,SPACEDOS02B_PCB02A,53504143-4544-44f5-9330-32425f504342,REV*%
%TF.SameCoordinates,Original*%
%TF.FileFunction,Copper,L2,Bot*%
%TF.FilePolarity,Positive*%
%FSLAX46Y46*%
G04 Gerber Fmt 4.6, Leading zero omitted, Abs format (unit mm)*
G04 Created by KiCad (PCBNEW 6.0.4-6f826c9f35~116~ubuntu20.04.1) date 2023-08-03 19:45:13*
%MOMM*%
%LPD*%
G01*
G04 APERTURE LIST*
%TA.AperFunction,ComponentPad*%
%ADD10R,1.524000X1.524000*%
%TD*%
%TA.AperFunction,SMDPad,CuDef*%
%ADD11R,0.889000X1.397000*%
%TD*%
%TA.AperFunction,SMDPad,CuDef*%
%ADD12R,1.397000X0.889000*%
%TD*%
%TA.AperFunction,SMDPad,CuDef*%
%ADD13R,1.200000X1.600000*%
%TD*%
%TA.AperFunction,SMDPad,CuDef*%
%ADD14R,2.500000X5.000000*%
%TD*%
%TA.AperFunction,ViaPad*%
%ADD15C,0.800000*%
%TD*%
%TA.AperFunction,Conductor*%
%ADD16C,0.400000*%
%TD*%
%TA.AperFunction,Conductor*%
%ADD17C,0.600000*%
%TD*%
G04 APERTURE END LIST*
D10*
%TO.P,J21,1*%
%TO.N,Net-(J21-Pad1)*%
X146491000Y-66578000D03*
%TD*%
%TO.P,J23,1*%
%TO.N,Net-(J23-Pad1)*%
X143951000Y-66578000D03*
%TD*%
%TO.P,J24,1*%
%TO.N,/cpu/SD_VDD3*%
X149031000Y-66578000D03*
%TD*%
%TO.P,J25,1*%
%TO.N,Net-(J25-Pad1)*%
X138871000Y-66578000D03*
%TD*%
%TO.P,J26,1*%
%TO.N,Net-(J26-Pad1)*%
X141411000Y-66578000D03*
%TD*%
%TO.P,J27,1*%
%TO.N,GND*%
X151571000Y-66578000D03*
%TD*%
D11*
%TO.P,C33,1*%
%TO.N,/cpu/SD_VDD3*%
X141030000Y-71150000D03*
%TO.P,C33,2*%
%TO.N,GND*%
X139125000Y-71150000D03*
%TD*%
%TO.P,C37,1*%
%TO.N,/cpu/SD_VDD3*%
X141030000Y-73690000D03*
%TO.P,C37,2*%
%TO.N,GND*%
X139125000Y-73690000D03*
%TD*%
D12*
%TO.P,R24,1*%
%TO.N,Net-(J21-Pad1)*%
X133537000Y-72293000D03*
%TO.P,R24,2*%
%TO.N,Net-(J28-Pad1)*%
X133537000Y-74198000D03*
%TD*%
%TO.P,R25,1*%
%TO.N,Net-(J23-Pad1)*%
X136077000Y-72293000D03*
%TO.P,R25,2*%
%TO.N,Net-(J28-Pad2)*%
X136077000Y-74198000D03*
%TD*%
%TO.P,R26,1*%
%TO.N,Net-(J25-Pad1)*%
X143697000Y-72293000D03*
%TO.P,R26,2*%
%TO.N,Net-(J28-Pad5)*%
X143697000Y-74198000D03*
%TD*%
%TO.P,R27,1*%
%TO.N,Net-(J26-Pad1)*%
X148777000Y-72293000D03*
%TO.P,R27,2*%
%TO.N,Net-(J28-Pad7)*%
X148777000Y-74198000D03*
%TD*%
D13*
%TO.P,J28,1,CD/DAT3*%
%TO.N,Net-(J28-Pad1)*%
X133735000Y-76606000D03*
%TO.P,J28,2,CMD*%
%TO.N,Net-(J28-Pad2)*%
X136235000Y-76606000D03*
%TO.P,J28,3,VSS*%
%TO.N,GND*%
X138735000Y-76606000D03*
%TO.P,J28,4,VDD*%
%TO.N,/cpu/SD_VDD3*%
X141235000Y-76606000D03*
%TO.P,J28,5,CLK*%
%TO.N,Net-(J28-Pad5)*%
X143735000Y-76606000D03*
%TO.P,J28,6,VSS*%
%TO.N,GND*%
X146235000Y-76606000D03*
%TO.P,J28,7,DAT0*%
%TO.N,Net-(J28-Pad7)*%
X148665000Y-76606000D03*
%TO.P,J28,8,DAT1*%
%TO.N,unconnected-(J28-Pad8)*%
X150465000Y-76606000D03*
%TO.P,J28,9,DAT2*%
%TO.N,unconnected-(J28-Pad9)*%
X131235000Y-76606000D03*
D14*
%TO.P,J28,12,SHELL1*%
%TO.N,GND*%
X123900000Y-80106000D03*
X154350000Y-110306000D03*
X123900000Y-104306000D03*
X154350000Y-80106000D03*
%TD*%
D15*
%TO.N,/cpu/SD_VDD3*%
X142173000Y-71150000D03*
%TD*%
D16*
%TO.N,/cpu/SD_VDD3*%
X141235000Y-73895000D02*
X141030000Y-73690000D01*
X141030000Y-73690000D02*
X141030000Y-71150000D01*
X141235000Y-76606000D02*
X141235000Y-73895000D01*
D17*
X141030000Y-71150000D02*
X142173000Y-71150000D01*
D16*
%TO.N,Net-(J28-Pad1)*%
X133735000Y-76606000D02*
X133735000Y-74396000D01*
X133735000Y-74396000D02*
X133537000Y-74198000D01*
%TO.N,Net-(J28-Pad2)*%
X136235000Y-74356000D02*
X136077000Y-74198000D01*
X136235000Y-76606000D02*
X136235000Y-74356000D01*
%TO.N,Net-(J28-Pad5)*%
X143735000Y-76606000D02*
X143735000Y-74236000D01*
X143735000Y-74236000D02*
X143697000Y-74198000D01*
%TO.N,Net-(J28-Pad7)*%
X148665000Y-74310000D02*
X148777000Y-74198000D01*
X148665000Y-76606000D02*
X148665000Y-74310000D01*
%TO.N,Net-(J21-Pad1)*%
X145890989Y-64815989D02*
X146491000Y-65416000D01*
X133537000Y-72293000D02*
X133537000Y-68819456D01*
X137540467Y-64815989D02*
X145890989Y-64815989D01*
X146491000Y-65416000D02*
X146491000Y-66578000D01*
X133537000Y-68819456D02*
X137540467Y-64815989D01*
%TO.N,Net-(J23-Pad1)*%
X136077000Y-67127998D02*
X137788999Y-65415999D01*
X137788999Y-65415999D02*
X143042999Y-65415999D01*
X136077000Y-72293000D02*
X136077000Y-67127998D01*
X143951000Y-66324000D02*
X143951000Y-66578000D01*
X143042999Y-65415999D02*
X143951000Y-66324000D01*
%TO.N,Net-(J25-Pad1)*%
X143697000Y-72293000D02*
X143697000Y-71448500D01*
X138871000Y-66622500D02*
X138871000Y-66578000D01*
X143697000Y-71448500D02*
X138871000Y-66622500D01*
%TO.N,Net-(J26-Pad1)*%
X148777000Y-72293000D02*
X145964000Y-72293000D01*
X141411000Y-67740000D02*
X141411000Y-66578000D01*
X145964000Y-72293000D02*
X141411000Y-67740000D01*
%TD*%
%TA.AperFunction,Conductor*%
%TO.N,GND*%
G36*
X156247121Y-63694002D02*
G01*
X156293614Y-63747658D01*
X156305000Y-63800000D01*
X156305000Y-112548000D01*
X156284998Y-112616121D01*
X156231342Y-112662614D01*
X156179000Y-112674000D01*
X119431000Y-112674000D01*
X119362879Y-112653998D01*
X119316386Y-112600342D01*
X119305000Y-112548000D01*
X119305000Y-77425748D01*
X130434500Y-77425748D01*
X130446133Y-77484231D01*
X130490448Y-77550552D01*
X130556769Y-77594867D01*
X130568938Y-77597288D01*
X130568939Y-77597288D01*
X130609184Y-77605293D01*
X130615252Y-77606500D01*
X131854748Y-77606500D01*
X131860816Y-77605293D01*
X131901061Y-77597288D01*
X131901062Y-77597288D01*
X131913231Y-77594867D01*
X131979552Y-77550552D01*
X132023867Y-77484231D01*
X132035500Y-77425748D01*
X132035500Y-75786252D01*
X132023867Y-75727769D01*
X131979552Y-75661448D01*
X131913231Y-75617133D01*
X131901062Y-75614712D01*
X131901061Y-75614712D01*
X131860816Y-75606707D01*
X131854748Y-75605500D01*
X130615252Y-75605500D01*
X130609184Y-75606707D01*
X130568939Y-75614712D01*
X130568938Y-75614712D01*
X130556769Y-75617133D01*
X130490448Y-75661448D01*
X130446133Y-75727769D01*
X130434500Y-75786252D01*
X130434500Y-77425748D01*
X119305000Y-77425748D01*
X119305000Y-74662248D01*
X132638000Y-74662248D01*
X132649633Y-74720731D01*
X132693948Y-74787052D01*
X132760269Y-74831367D01*
X132772438Y-74833788D01*
X132772439Y-74833788D01*
X132812684Y-74841793D01*
X132818752Y-74843000D01*
X133208500Y-74843000D01*
X133276621Y-74863002D01*
X133323114Y-74916658D01*
X133334500Y-74969000D01*
X133334500Y-75479500D01*
X133314498Y-75547621D01*
X133260842Y-75594114D01*
X133208500Y-75605500D01*
X133115252Y-75605500D01*
X133109184Y-75606707D01*
X133068939Y-75614712D01*
X133068938Y-75614712D01*
X133056769Y-75617133D01*
X132990448Y-75661448D01*
X132946133Y-75727769D01*
X132934500Y-75786252D01*
X132934500Y-77425748D01*
X132946133Y-77484231D01*
X132990448Y-77550552D01*
X133056769Y-77594867D01*
X133068938Y-77597288D01*
X133068939Y-77597288D01*
X133109184Y-77605293D01*
X133115252Y-77606500D01*
X134354748Y-77606500D01*
X134360816Y-77605293D01*
X134401061Y-77597288D01*
X134401062Y-77597288D01*
X134413231Y-77594867D01*
X134479552Y-77550552D01*
X134523867Y-77484231D01*
X134535500Y-77425748D01*
X134535500Y-75786252D01*
X134523867Y-75727769D01*
X134479552Y-75661448D01*
X134413231Y-75617133D01*
X134401062Y-75614712D01*
X134401061Y-75614712D01*
X134360816Y-75606707D01*
X134354748Y-75605500D01*
X134261500Y-75605500D01*
X134193379Y-75585498D01*
X134146886Y-75531842D01*
X134135500Y-75479500D01*
X134135500Y-74968384D01*
X134155502Y-74900263D01*
X134209158Y-74853770D01*
X134249119Y-74843000D01*
X134255248Y-74843000D01*
X134279718Y-74838133D01*
X134301561Y-74833788D01*
X134301562Y-74833788D01*
X134313731Y-74831367D01*
X134380052Y-74787052D01*
X134424367Y-74720731D01*
X134436000Y-74662248D01*
X135178000Y-74662248D01*
X135189633Y-74720731D01*
X135233948Y-74787052D01*
X135300269Y-74831367D01*
X135312438Y-74833788D01*
X135312439Y-74833788D01*
X135352684Y-74841793D01*
X135358752Y-74843000D01*
X135708500Y-74843000D01*
X135776621Y-74863002D01*
X135823114Y-74916658D01*
X135834500Y-74969000D01*
X135834500Y-75479500D01*
X135814498Y-75547621D01*
X135760842Y-75594114D01*
X135708500Y-75605500D01*
X135615252Y-75605500D01*
X135609184Y-75606707D01*
X135568939Y-75614712D01*
X135568938Y-75614712D01*
X135556769Y-75617133D01*
X135490448Y-75661448D01*
X135446133Y-75727769D01*
X135434500Y-75786252D01*
X135434500Y-77425748D01*
X135446133Y-77484231D01*
X135490448Y-77550552D01*
X135556769Y-77594867D01*
X135568938Y-77597288D01*
X135568939Y-77597288D01*
X135609184Y-77605293D01*
X135615252Y-77606500D01*
X136854748Y-77606500D01*
X136860816Y-77605293D01*
X136901061Y-77597288D01*
X136901062Y-77597288D01*
X136913231Y-77594867D01*
X136979552Y-77550552D01*
X137023867Y-77484231D01*
X137035500Y-77425748D01*
X137035500Y-75786252D01*
X137023867Y-75727769D01*
X136979552Y-75661448D01*
X136913231Y-75617133D01*
X136901062Y-75614712D01*
X136901061Y-75614712D01*
X136860816Y-75606707D01*
X136854748Y-75605500D01*
X136761500Y-75605500D01*
X136693379Y-75585498D01*
X136646886Y-75531842D01*
X136635500Y-75479500D01*
X136635500Y-74969000D01*
X136655502Y-74900879D01*
X136709158Y-74854386D01*
X136761500Y-74843000D01*
X136795248Y-74843000D01*
X136801316Y-74841793D01*
X136841561Y-74833788D01*
X136841562Y-74833788D01*
X136853731Y-74831367D01*
X136920052Y-74787052D01*
X136964367Y-74720731D01*
X136976000Y-74662248D01*
X136976000Y-73733752D01*
X136964367Y-73675269D01*
X136920052Y-73608948D01*
X136853731Y-73564633D01*
X136841562Y-73562212D01*
X136841561Y-73562212D01*
X136801316Y-73554207D01*
X136795248Y-73553000D01*
X135358752Y-73553000D01*
X135352684Y-73554207D01*
X135312439Y-73562212D01*
X135312438Y-73562212D01*
X135300269Y-73564633D01*
X135233948Y-73608948D01*
X135189633Y-73675269D01*
X135178000Y-73733752D01*
X135178000Y-74662248D01*
X134436000Y-74662248D01*
X134436000Y-73733752D01*
X134424367Y-73675269D01*
X134380052Y-73608948D01*
X134313731Y-73564633D01*
X134301562Y-73562212D01*
X134301561Y-73562212D01*
X134261316Y-73554207D01*
X134255248Y-73553000D01*
X132818752Y-73553000D01*
X132812684Y-73554207D01*
X132772439Y-73562212D01*
X132772438Y-73562212D01*
X132760269Y-73564633D01*
X132693948Y-73608948D01*
X132649633Y-73675269D01*
X132638000Y-73733752D01*
X132638000Y-74662248D01*
X119305000Y-74662248D01*
X119305000Y-72757248D01*
X132638000Y-72757248D01*
X132639207Y-72763316D01*
X132647028Y-72802633D01*
X132649633Y-72815731D01*
X132693948Y-72882052D01*
X132760269Y-72926367D01*
X132772438Y-72928788D01*
X132772439Y-72928788D01*
X132812684Y-72936793D01*
X132818752Y-72938000D01*
X134255248Y-72938000D01*
X134261316Y-72936793D01*
X134301561Y-72928788D01*
X134301562Y-72928788D01*
X134313731Y-72926367D01*
X134380052Y-72882052D01*
X134424367Y-72815731D01*
X134426973Y-72802633D01*
X134434793Y-72763316D01*
X134436000Y-72757248D01*
X134436000Y-71828752D01*
X134424367Y-71770269D01*
X134380052Y-71703948D01*
X134313731Y-71659633D01*
X134301562Y-71657212D01*
X134301561Y-71657212D01*
X134261316Y-71649207D01*
X134255248Y-71648000D01*
X134063500Y-71648000D01*
X133995379Y-71627998D01*
X133948886Y-71574342D01*
X133937500Y-71522000D01*
X133937500Y-69037539D01*
X133957502Y-68969418D01*
X133974405Y-68948444D01*
X135461405Y-67461444D01*
X135523717Y-67427418D01*
X135594532Y-67432483D01*
X135651368Y-67475030D01*
X135676179Y-67541550D01*
X135676500Y-67550539D01*
X135676500Y-71522000D01*
X135656498Y-71590121D01*
X135602842Y-71636614D01*
X135550500Y-71648000D01*
X135358752Y-71648000D01*
X135352684Y-71649207D01*
X135312439Y-71657212D01*
X135312438Y-71657212D01*
X135300269Y-71659633D01*
X135233948Y-71703948D01*
X135189633Y-71770269D01*
X135178000Y-71828752D01*
X135178000Y-72757248D01*
X135179207Y-72763316D01*
X135187028Y-72802633D01*
X135189633Y-72815731D01*
X135233948Y-72882052D01*
X135300269Y-72926367D01*
X135312438Y-72928788D01*
X135312439Y-72928788D01*
X135352684Y-72936793D01*
X135358752Y-72938000D01*
X136795248Y-72938000D01*
X136801316Y-72936793D01*
X136841561Y-72928788D01*
X136841562Y-72928788D01*
X136853731Y-72926367D01*
X136920052Y-72882052D01*
X136964367Y-72815731D01*
X136966973Y-72802633D01*
X136974793Y-72763316D01*
X136976000Y-72757248D01*
X136976000Y-71828752D01*
X136964367Y-71770269D01*
X136920052Y-71703948D01*
X136853731Y-71659633D01*
X136841562Y-71657212D01*
X136841561Y-71657212D01*
X136801316Y-71649207D01*
X136795248Y-71648000D01*
X136603500Y-71648000D01*
X136535379Y-71627998D01*
X136488886Y-71574342D01*
X136477500Y-71522000D01*
X136477500Y-67346081D01*
X136497502Y-67277960D01*
X136514405Y-67256986D01*
X137693405Y-66077985D01*
X137755717Y-66043960D01*
X137826532Y-66049024D01*
X137883368Y-66091571D01*
X137908179Y-66158091D01*
X137908500Y-66167080D01*
X137908500Y-67359748D01*
X137920133Y-67418231D01*
X137964448Y-67484552D01*
X138030769Y-67528867D01*
X138042938Y-67531288D01*
X138042939Y-67531288D01*
X138083184Y-67539293D01*
X138089252Y-67540500D01*
X139170417Y-67540500D01*
X139238538Y-67560502D01*
X139259512Y-67577405D01*
X142046115Y-70364008D01*
X142080141Y-70426320D01*
X142075076Y-70497135D01*
X142032529Y-70553971D01*
X142005238Y-70569512D01*
X141908137Y-70609733D01*
X141870159Y-70625464D01*
X141863858Y-70630299D01*
X141795008Y-70647003D01*
X141727915Y-70623784D01*
X141684027Y-70567978D01*
X141675000Y-70521146D01*
X141675000Y-70431752D01*
X141663367Y-70373269D01*
X141619052Y-70306948D01*
X141552731Y-70262633D01*
X141540562Y-70260212D01*
X141540561Y-70260212D01*
X141500316Y-70252207D01*
X141494248Y-70251000D01*
X140565752Y-70251000D01*
X140559684Y-70252207D01*
X140519439Y-70260212D01*
X140519438Y-70260212D01*
X140507269Y-70262633D01*
X140440948Y-70306948D01*
X140396633Y-70373269D01*
X140385000Y-70431752D01*
X140385000Y-71868248D01*
X140396633Y-71926731D01*
X140440948Y-71993052D01*
X140507269Y-72037367D01*
X140528084Y-72041507D01*
X140590992Y-72074415D01*
X140626123Y-72136111D01*
X140629500Y-72165086D01*
X140629500Y-72674914D01*
X140609498Y-72743035D01*
X140555842Y-72789528D01*
X140528084Y-72798493D01*
X140507269Y-72802633D01*
X140440948Y-72846948D01*
X140396633Y-72913269D01*
X140394212Y-72925438D01*
X140394212Y-72925439D01*
X140393546Y-72928788D01*
X140385000Y-72971752D01*
X140385000Y-74408248D01*
X140396633Y-74466731D01*
X140440948Y-74533052D01*
X140507269Y-74577367D01*
X140519438Y-74579788D01*
X140519439Y-74579788D01*
X140559684Y-74587793D01*
X140565752Y-74589000D01*
X140708500Y-74589000D01*
X140776621Y-74609002D01*
X140823114Y-74662658D01*
X140834500Y-74715000D01*
X140834500Y-75479500D01*
X140814498Y-75547621D01*
X140760842Y-75594114D01*
X140708500Y-75605500D01*
X140615252Y-75605500D01*
X140609184Y-75606707D01*
X140568939Y-75614712D01*
X140568938Y-75614712D01*
X140556769Y-75617133D01*
X140490448Y-75661448D01*
X140446133Y-75727769D01*
X140434500Y-75786252D01*
X140434500Y-77425748D01*
X140446133Y-77484231D01*
X140490448Y-77550552D01*
X140556769Y-77594867D01*
X140568938Y-77597288D01*
X140568939Y-77597288D01*
X140609184Y-77605293D01*
X140615252Y-77606500D01*
X141854748Y-77606500D01*
X141860816Y-77605293D01*
X141901061Y-77597288D01*
X141901062Y-77597288D01*
X141913231Y-77594867D01*
X141979552Y-77550552D01*
X142023867Y-77484231D01*
X142035500Y-77425748D01*
X142035500Y-75786252D01*
X142023867Y-75727769D01*
X141979552Y-75661448D01*
X141913231Y-75617133D01*
X141901062Y-75614712D01*
X141901061Y-75614712D01*
X141860816Y-75606707D01*
X141854748Y-75605500D01*
X141761500Y-75605500D01*
X141693379Y-75585498D01*
X141646886Y-75531842D01*
X141635500Y-75479500D01*
X141635500Y-74662248D01*
X142798000Y-74662248D01*
X142809633Y-74720731D01*
X142853948Y-74787052D01*
X142920269Y-74831367D01*
X142932438Y-74833788D01*
X142932439Y-74833788D01*
X142972684Y-74841793D01*
X142978752Y-74843000D01*
X143208500Y-74843000D01*
X143276621Y-74863002D01*
X143323114Y-74916658D01*
X143334500Y-74969000D01*
X143334500Y-75479500D01*
X143314498Y-75547621D01*
X143260842Y-75594114D01*
X143208500Y-75605500D01*
X143115252Y-75605500D01*
X143109184Y-75606707D01*
X143068939Y-75614712D01*
X143068938Y-75614712D01*
X143056769Y-75617133D01*
X142990448Y-75661448D01*
X142946133Y-75727769D01*
X142934500Y-75786252D01*
X142934500Y-77425748D01*
X142946133Y-77484231D01*
X142990448Y-77550552D01*
X143056769Y-77594867D01*
X143068938Y-77597288D01*
X143068939Y-77597288D01*
X143109184Y-77605293D01*
X143115252Y-77606500D01*
X144354748Y-77606500D01*
X144360816Y-77605293D01*
X144401061Y-77597288D01*
X144401062Y-77597288D01*
X144413231Y-77594867D01*
X144479552Y-77550552D01*
X144523867Y-77484231D01*
X144535500Y-77425748D01*
X147864500Y-77425748D01*
X147876133Y-77484231D01*
X147920448Y-77550552D01*
X147986769Y-77594867D01*
X147998938Y-77597288D01*
X147998939Y-77597288D01*
X148039184Y-77605293D01*
X148045252Y-77606500D01*
X149284748Y-77606500D01*
X149290816Y-77605293D01*
X149331061Y-77597288D01*
X149331062Y-77597288D01*
X149343231Y-77594867D01*
X149409552Y-77550552D01*
X149453867Y-77484231D01*
X149453903Y-77484051D01*
X149493139Y-77435361D01*
X149560502Y-77412940D01*
X149629293Y-77430498D01*
X149675267Y-77479876D01*
X149676133Y-77484231D01*
X149720448Y-77550552D01*
X149786769Y-77594867D01*
X149798938Y-77597288D01*
X149798939Y-77597288D01*
X149839184Y-77605293D01*
X149845252Y-77606500D01*
X151084748Y-77606500D01*
X151090816Y-77605293D01*
X151131061Y-77597288D01*
X151131062Y-77597288D01*
X151143231Y-77594867D01*
X151209552Y-77550552D01*
X151253867Y-77484231D01*
X151265500Y-77425748D01*
X151265500Y-75786252D01*
X151253867Y-75727769D01*
X151209552Y-75661448D01*
X151143231Y-75617133D01*
X151131062Y-75614712D01*
X151131061Y-75614712D01*
X151090816Y-75606707D01*
X151084748Y-75605500D01*
X149845252Y-75605500D01*
X149839184Y-75606707D01*
X149798939Y-75614712D01*
X149798938Y-75614712D01*
X149786769Y-75617133D01*
X149720448Y-75661448D01*
X149676133Y-75727769D01*
X149676097Y-75727949D01*
X149636861Y-75776639D01*
X149569498Y-75799060D01*
X149500707Y-75781502D01*
X149454733Y-75732124D01*
X149453867Y-75727769D01*
X149409552Y-75661448D01*
X149343231Y-75617133D01*
X149331062Y-75614712D01*
X149331061Y-75614712D01*
X149290816Y-75606707D01*
X149284748Y-75605500D01*
X149191500Y-75605500D01*
X149123379Y-75585498D01*
X149076886Y-75531842D01*
X149065500Y-75479500D01*
X149065500Y-74969000D01*
X149085502Y-74900879D01*
X149139158Y-74854386D01*
X149191500Y-74843000D01*
X149495248Y-74843000D01*
X149501316Y-74841793D01*
X149541561Y-74833788D01*
X149541562Y-74833788D01*
X149553731Y-74831367D01*
X149620052Y-74787052D01*
X149664367Y-74720731D01*
X149676000Y-74662248D01*
X149676000Y-73733752D01*
X149664367Y-73675269D01*
X149620052Y-73608948D01*
X149553731Y-73564633D01*
X149541562Y-73562212D01*
X149541561Y-73562212D01*
X149501316Y-73554207D01*
X149495248Y-73553000D01*
X148058752Y-73553000D01*
X148052684Y-73554207D01*
X148012439Y-73562212D01*
X148012438Y-73562212D01*
X148000269Y-73564633D01*
X147933948Y-73608948D01*
X147889633Y-73675269D01*
X147878000Y-73733752D01*
X147878000Y-74662248D01*
X147889633Y-74720731D01*
X147933948Y-74787052D01*
X148000269Y-74831367D01*
X148012438Y-74833788D01*
X148012439Y-74833788D01*
X148052684Y-74841793D01*
X148058752Y-74843000D01*
X148138500Y-74843000D01*
X148206621Y-74863002D01*
X148253114Y-74916658D01*
X148264500Y-74969000D01*
X148264500Y-75479500D01*
X148244498Y-75547621D01*
X148190842Y-75594114D01*
X148138500Y-75605500D01*
X148045252Y-75605500D01*
X148039184Y-75606707D01*
X147998939Y-75614712D01*
X147998938Y-75614712D01*
X147986769Y-75617133D01*
X147920448Y-75661448D01*
X147876133Y-75727769D01*
X147864500Y-75786252D01*
X147864500Y-77425748D01*
X144535500Y-77425748D01*
X144535500Y-75786252D01*
X144523867Y-75727769D01*
X144479552Y-75661448D01*
X144413231Y-75617133D01*
X144401062Y-75614712D01*
X144401061Y-75614712D01*
X144360816Y-75606707D01*
X144354748Y-75605500D01*
X144261500Y-75605500D01*
X144193379Y-75585498D01*
X144146886Y-75531842D01*
X144135500Y-75479500D01*
X144135500Y-74969000D01*
X144155502Y-74900879D01*
X144209158Y-74854386D01*
X144261500Y-74843000D01*
X144415248Y-74843000D01*
X144421316Y-74841793D01*
X144461561Y-74833788D01*
X144461562Y-74833788D01*
X144473731Y-74831367D01*
X144540052Y-74787052D01*
X144584367Y-74720731D01*
X144596000Y-74662248D01*
X144596000Y-73733752D01*
X144584367Y-73675269D01*
X144540052Y-73608948D01*
X144473731Y-73564633D01*
X144461562Y-73562212D01*
X144461561Y-73562212D01*
X144421316Y-73554207D01*
X144415248Y-73553000D01*
X142978752Y-73553000D01*
X142972684Y-73554207D01*
X142932439Y-73562212D01*
X142932438Y-73562212D01*
X142920269Y-73564633D01*
X142853948Y-73608948D01*
X142809633Y-73675269D01*
X142798000Y-73733752D01*
X142798000Y-74662248D01*
X141635500Y-74662248D01*
X141635500Y-74546658D01*
X141652980Y-74489036D01*
X141651723Y-74488515D01*
X141656472Y-74477049D01*
X141663367Y-74466731D01*
X141675000Y-74408248D01*
X141675000Y-72971752D01*
X141666454Y-72928788D01*
X141665788Y-72925439D01*
X141665788Y-72925438D01*
X141663367Y-72913269D01*
X141619052Y-72846948D01*
X141552731Y-72802633D01*
X141531916Y-72798493D01*
X141469008Y-72765585D01*
X141433877Y-72703889D01*
X141430500Y-72674914D01*
X141430500Y-72165086D01*
X141450502Y-72096965D01*
X141504158Y-72050472D01*
X141531916Y-72041507D01*
X141552731Y-72037367D01*
X141619052Y-71993052D01*
X141663367Y-71926731D01*
X141675000Y-71868248D01*
X141675000Y-71778854D01*
X141695002Y-71710733D01*
X141748658Y-71664240D01*
X141818932Y-71654136D01*
X141863822Y-71669673D01*
X141870159Y-71674536D01*
X142016238Y-71735044D01*
X142173000Y-71755682D01*
X142181188Y-71754604D01*
X142321574Y-71736122D01*
X142329762Y-71735044D01*
X142475841Y-71674536D01*
X142601282Y-71578282D01*
X142697536Y-71452841D01*
X142753488Y-71317762D01*
X142798037Y-71262481D01*
X142865400Y-71240060D01*
X142934191Y-71257618D01*
X142958992Y-71276885D01*
X143115012Y-71432905D01*
X143149038Y-71495217D01*
X143143973Y-71566032D01*
X143101426Y-71622868D01*
X143034906Y-71647679D01*
X143025917Y-71648000D01*
X142978752Y-71648000D01*
X142972684Y-71649207D01*
X142932439Y-71657212D01*
X142932438Y-71657212D01*
X142920269Y-71659633D01*
X142853948Y-71703948D01*
X142809633Y-71770269D01*
X142798000Y-71828752D01*
X142798000Y-72757248D01*
X142799207Y-72763316D01*
X142807028Y-72802633D01*
X142809633Y-72815731D01*
X142853948Y-72882052D01*
X142920269Y-72926367D01*
X142932438Y-72928788D01*
X142932439Y-72928788D01*
X142972684Y-72936793D01*
X142978752Y-72938000D01*
X144415248Y-72938000D01*
X144421316Y-72936793D01*
X144461561Y-72928788D01*
X144461562Y-72928788D01*
X144473731Y-72926367D01*
X144540052Y-72882052D01*
X144584367Y-72815731D01*
X144586973Y-72802633D01*
X144594793Y-72763316D01*
X144596000Y-72757248D01*
X144596000Y-71828752D01*
X144593266Y-71815008D01*
X144599594Y-71744296D01*
X144643147Y-71688228D01*
X144710100Y-71664608D01*
X144779193Y-71680934D01*
X144805939Y-71701331D01*
X145725658Y-72621050D01*
X145734492Y-72625551D01*
X145734493Y-72625552D01*
X145745259Y-72631038D01*
X145762116Y-72641368D01*
X145779910Y-72654296D01*
X145800832Y-72661094D01*
X145819093Y-72668658D01*
X145829861Y-72674145D01*
X145829865Y-72674146D01*
X145838696Y-72678646D01*
X145848485Y-72680197D01*
X145848493Y-72680199D01*
X145860427Y-72682089D01*
X145879647Y-72686703D01*
X145891133Y-72690435D01*
X145891140Y-72690436D01*
X145900567Y-72693499D01*
X145932477Y-72693499D01*
X145932481Y-72693500D01*
X147761914Y-72693500D01*
X147830035Y-72713502D01*
X147876528Y-72767158D01*
X147885493Y-72794916D01*
X147889633Y-72815731D01*
X147933948Y-72882052D01*
X148000269Y-72926367D01*
X148012438Y-72928788D01*
X148012439Y-72928788D01*
X148052684Y-72936793D01*
X148058752Y-72938000D01*
X149495248Y-72938000D01*
X149501316Y-72936793D01*
X149541561Y-72928788D01*
X149541562Y-72928788D01*
X149553731Y-72926367D01*
X149620052Y-72882052D01*
X149664367Y-72815731D01*
X149666973Y-72802633D01*
X149674793Y-72763316D01*
X149676000Y-72757248D01*
X149676000Y-71828752D01*
X149664367Y-71770269D01*
X149620052Y-71703948D01*
X149553731Y-71659633D01*
X149541562Y-71657212D01*
X149541561Y-71657212D01*
X149501316Y-71649207D01*
X149495248Y-71648000D01*
X148058752Y-71648000D01*
X148052684Y-71649207D01*
X148012439Y-71657212D01*
X148012438Y-71657212D01*
X148000269Y-71659633D01*
X147933948Y-71703948D01*
X147889633Y-71770269D01*
X147885493Y-71791083D01*
X147852585Y-71853992D01*
X147790889Y-71889123D01*
X147761914Y-71892500D01*
X146182082Y-71892500D01*
X146113961Y-71872498D01*
X146092987Y-71855595D01*
X141992988Y-67755595D01*
X141958962Y-67693283D01*
X141964027Y-67622467D01*
X142006574Y-67565632D01*
X142073094Y-67540821D01*
X142082083Y-67540500D01*
X142192748Y-67540500D01*
X142198816Y-67539293D01*
X142239061Y-67531288D01*
X142239062Y-67531288D01*
X142251231Y-67528867D01*
X142317552Y-67484552D01*
X142361867Y-67418231D01*
X142373500Y-67359748D01*
X142373500Y-65942499D01*
X142393502Y-65874378D01*
X142447158Y-65827885D01*
X142499500Y-65816499D01*
X142824916Y-65816499D01*
X142893037Y-65836501D01*
X142914011Y-65853404D01*
X142951595Y-65890988D01*
X142985621Y-65953300D01*
X142988500Y-65980083D01*
X142988500Y-67359748D01*
X143000133Y-67418231D01*
X143044448Y-67484552D01*
X143110769Y-67528867D01*
X143122938Y-67531288D01*
X143122939Y-67531288D01*
X143163184Y-67539293D01*
X143169252Y-67540500D01*
X144732748Y-67540500D01*
X144738816Y-67539293D01*
X144779061Y-67531288D01*
X144779062Y-67531288D01*
X144791231Y-67528867D01*
X144857552Y-67484552D01*
X144901867Y-67418231D01*
X144913500Y-67359748D01*
X144913500Y-65796252D01*
X144901867Y-65737769D01*
X144857552Y-65671448D01*
X144791231Y-65627133D01*
X144779062Y-65624712D01*
X144779061Y-65624712D01*
X144738816Y-65616707D01*
X144732748Y-65615500D01*
X143861083Y-65615500D01*
X143792962Y-65595498D01*
X143771988Y-65578595D01*
X143624977Y-65431584D01*
X143590951Y-65369272D01*
X143596016Y-65298457D01*
X143638563Y-65241621D01*
X143705083Y-65216810D01*
X143714072Y-65216489D01*
X145672906Y-65216489D01*
X145741027Y-65236491D01*
X145762001Y-65253394D01*
X145909012Y-65400405D01*
X145943038Y-65462717D01*
X145937973Y-65533532D01*
X145895426Y-65590368D01*
X145828906Y-65615179D01*
X145819917Y-65615500D01*
X145709252Y-65615500D01*
X145703184Y-65616707D01*
X145662939Y-65624712D01*
X145662938Y-65624712D01*
X145650769Y-65627133D01*
X145584448Y-65671448D01*
X145540133Y-65737769D01*
X145528500Y-65796252D01*
X145528500Y-67359748D01*
X145540133Y-67418231D01*
X145584448Y-67484552D01*
X145650769Y-67528867D01*
X145662938Y-67531288D01*
X145662939Y-67531288D01*
X145703184Y-67539293D01*
X145709252Y-67540500D01*
X147272748Y-67540500D01*
X147278816Y-67539293D01*
X147319061Y-67531288D01*
X147319062Y-67531288D01*
X147331231Y-67528867D01*
X147397552Y-67484552D01*
X147441867Y-67418231D01*
X147453500Y-67359748D01*
X148068500Y-67359748D01*
X148080133Y-67418231D01*
X148124448Y-67484552D01*
X148190769Y-67528867D01*
X148202938Y-67531288D01*
X148202939Y-67531288D01*
X148243184Y-67539293D01*
X148249252Y-67540500D01*
X149812748Y-67540500D01*
X149818816Y-67539293D01*
X149859061Y-67531288D01*
X149859062Y-67531288D01*
X149871231Y-67528867D01*
X149937552Y-67484552D01*
X149981867Y-67418231D01*
X149993500Y-67359748D01*
X149993500Y-65796252D01*
X149981867Y-65737769D01*
X149937552Y-65671448D01*
X149871231Y-65627133D01*
X149859062Y-65624712D01*
X149859061Y-65624712D01*
X149818816Y-65616707D01*
X149812748Y-65615500D01*
X148249252Y-65615500D01*
X148243184Y-65616707D01*
X148202939Y-65624712D01*
X148202938Y-65624712D01*
X148190769Y-65627133D01*
X148124448Y-65671448D01*
X148080133Y-65737769D01*
X148068500Y-65796252D01*
X148068500Y-67359748D01*
X147453500Y-67359748D01*
X147453500Y-65796252D01*
X147441867Y-65737769D01*
X147397552Y-65671448D01*
X147331231Y-65627133D01*
X147319062Y-65624712D01*
X147319061Y-65624712D01*
X147278816Y-65616707D01*
X147272748Y-65615500D01*
X147017500Y-65615500D01*
X146949379Y-65595498D01*
X146902886Y-65541842D01*
X146891500Y-65489500D01*
X146891500Y-65352567D01*
X146888436Y-65343136D01*
X146888435Y-65343132D01*
X146884703Y-65331647D01*
X146880087Y-65312422D01*
X146878197Y-65300488D01*
X146878197Y-65300487D01*
X146876646Y-65290696D01*
X146872145Y-65281863D01*
X146872144Y-65281859D01*
X146866658Y-65271092D01*
X146859092Y-65252828D01*
X146855360Y-65241342D01*
X146852296Y-65231911D01*
X146839365Y-65214113D01*
X146829037Y-65197258D01*
X146823555Y-65186499D01*
X146823554Y-65186497D01*
X146819050Y-65177658D01*
X146796487Y-65155095D01*
X146796484Y-65155091D01*
X146151898Y-64510505D01*
X146151894Y-64510502D01*
X146129331Y-64487939D01*
X146109735Y-64477954D01*
X146092882Y-64467628D01*
X146075079Y-64454693D01*
X146054155Y-64447894D01*
X146035895Y-64440330D01*
X146025130Y-64434845D01*
X146025126Y-64434844D01*
X146016293Y-64430343D01*
X146006502Y-64428792D01*
X146006501Y-64428792D01*
X145994567Y-64426902D01*
X145975342Y-64422286D01*
X145963857Y-64418554D01*
X145963853Y-64418553D01*
X145954422Y-64415489D01*
X137508948Y-64415489D01*
X137508944Y-64415490D01*
X137477034Y-64415490D01*
X137467607Y-64418553D01*
X137467600Y-64418554D01*
X137456114Y-64422286D01*
X137436894Y-64426900D01*
X137424960Y-64428790D01*
X137424952Y-64428792D01*
X137415163Y-64430343D01*
X137406332Y-64434843D01*
X137406328Y-64434844D01*
X137395560Y-64440331D01*
X137377299Y-64447895D01*
X137356377Y-64454693D01*
X137341385Y-64465586D01*
X137338583Y-64467621D01*
X137321726Y-64477951D01*
X137310960Y-64483437D01*
X137310959Y-64483438D01*
X137302125Y-64487939D01*
X137279558Y-64510506D01*
X133231516Y-68558547D01*
X133231513Y-68558551D01*
X133208950Y-68581114D01*
X133204446Y-68589954D01*
X133198965Y-68600711D01*
X133188639Y-68617563D01*
X133175704Y-68635366D01*
X133168907Y-68656286D01*
X133161341Y-68674550D01*
X133155856Y-68685315D01*
X133155855Y-68685319D01*
X133151354Y-68694152D01*
X133149803Y-68703943D01*
X133149803Y-68703944D01*
X133147913Y-68715878D01*
X133143297Y-68735103D01*
X133139565Y-68746588D01*
X133139564Y-68746592D01*
X133136500Y-68756023D01*
X133136500Y-71522000D01*
X133116498Y-71590121D01*
X133062842Y-71636614D01*
X133010500Y-71648000D01*
X132818752Y-71648000D01*
X132812684Y-71649207D01*
X132772439Y-71657212D01*
X132772438Y-71657212D01*
X132760269Y-71659633D01*
X132693948Y-71703948D01*
X132649633Y-71770269D01*
X132638000Y-71828752D01*
X132638000Y-72757248D01*
X119305000Y-72757248D01*
X119305000Y-63800000D01*
X119325002Y-63731879D01*
X119378658Y-63685386D01*
X119431000Y-63674000D01*
X156179000Y-63674000D01*
X156247121Y-63694002D01*
G37*
%TD.AperFunction*%
%TD*%
M02*
