%TF.GenerationSoftware,KiCad,Pcbnew,6.0.4-6f826c9f35~116~ubuntu20.04.1*%
%TF.CreationDate,2023-08-03T19:42:58+00:00*%
%TF.ProjectId,SPACEDOS02B_PCB01A,53504143-4544-44f5-9330-32425f504342,rev?*%
%TF.SameCoordinates,Original*%
%TF.FileFunction,Legend,Bot*%
%TF.FilePolarity,Positive*%
%FSLAX46Y46*%
G04 Gerber Fmt 4.6, Leading zero omitted, Abs format (unit mm)*
G04 Created by KiCad (PCBNEW 6.0.4-6f826c9f35~116~ubuntu20.04.1) date 2023-08-03 19:42:58*
%MOMM*%
%LPD*%
G01*
G04 APERTURE LIST*
%ADD10C,0.050000*%
%ADD11C,0.150000*%
%ADD12C,0.127000*%
%ADD13C,0.304800*%
%ADD14C,0.120000*%
%ADD15R,1.524000X1.524000*%
G04 APERTURE END LIST*
D10*
%TO.C,J22*%
X25740490Y48940243D02*
X25740490Y49225958D01*
X25740490Y49083100D02*
X25240490Y49083100D01*
X25311919Y49130720D01*
X25359538Y49178339D01*
X25383347Y49225958D01*
D11*
%TO.C,U5*%
X24845680Y42258005D02*
X25655204Y42258005D01*
X25750442Y42210386D01*
X25798061Y42162767D01*
X25845680Y42067529D01*
X25845680Y41877053D01*
X25798061Y41781815D01*
X25750442Y41734196D01*
X25655204Y41686577D01*
X24845680Y41686577D01*
X24845680Y40734196D02*
X24845680Y41210386D01*
X25321871Y41258005D01*
X25274252Y41210386D01*
X25226633Y41115148D01*
X25226633Y40877053D01*
X25274252Y40781815D01*
X25321871Y40734196D01*
X25417109Y40686577D01*
X25655204Y40686577D01*
X25750442Y40734196D01*
X25798061Y40781815D01*
X25845680Y40877053D01*
X25845680Y41115148D01*
X25798061Y41210386D01*
X25750442Y41258005D01*
%TO.C,U4*%
X13328204Y39376720D02*
X13328204Y38567196D01*
X13280585Y38471958D01*
X13232966Y38424339D01*
X13137728Y38376720D01*
X12947252Y38376720D01*
X12852014Y38424339D01*
X12804395Y38471958D01*
X12756776Y38567196D01*
X12756776Y39376720D01*
X11852014Y39043386D02*
X11852014Y38376720D01*
X12090109Y39424339D02*
X12328204Y38710053D01*
X11709157Y38710053D01*
%TO.C,U10*%
X17981680Y65053196D02*
X18791204Y65053196D01*
X18886442Y65005577D01*
X18934061Y64957958D01*
X18981680Y64862720D01*
X18981680Y64672243D01*
X18934061Y64577005D01*
X18886442Y64529386D01*
X18791204Y64481767D01*
X17981680Y64481767D01*
X18981680Y63481767D02*
X18981680Y64053196D01*
X18981680Y63767481D02*
X17981680Y63767481D01*
X18124538Y63862720D01*
X18219776Y63957958D01*
X18267395Y64053196D01*
X17981680Y62862720D02*
X17981680Y62767481D01*
X18029300Y62672243D01*
X18076919Y62624624D01*
X18172157Y62577005D01*
X18362633Y62529386D01*
X18600728Y62529386D01*
X18791204Y62577005D01*
X18886442Y62624624D01*
X18934061Y62672243D01*
X18981680Y62767481D01*
X18981680Y62862720D01*
X18934061Y62957958D01*
X18886442Y63005577D01*
X18791204Y63053196D01*
X18600728Y63100815D01*
X18362633Y63100815D01*
X18172157Y63053196D01*
X18076919Y63005577D01*
X18029300Y62957958D01*
X17981680Y62862720D01*
%TO.C,U2*%
X19892680Y33495005D02*
X20702204Y33495005D01*
X20797442Y33447386D01*
X20845061Y33399767D01*
X20892680Y33304529D01*
X20892680Y33114053D01*
X20845061Y33018815D01*
X20797442Y32971196D01*
X20702204Y32923577D01*
X19892680Y32923577D01*
X19987919Y32495005D02*
X19940300Y32447386D01*
X19892680Y32352148D01*
X19892680Y32114053D01*
X19940300Y32018815D01*
X19987919Y31971196D01*
X20083157Y31923577D01*
X20178395Y31923577D01*
X20321252Y31971196D01*
X20892680Y32542624D01*
X20892680Y31923577D01*
%TO.C,U1*%
X17860680Y11143005D02*
X18670204Y11143005D01*
X18765442Y11095386D01*
X18813061Y11047767D01*
X18860680Y10952529D01*
X18860680Y10762053D01*
X18813061Y10666815D01*
X18765442Y10619196D01*
X18670204Y10571577D01*
X17860680Y10571577D01*
X18860680Y9571577D02*
X18860680Y10143005D01*
X18860680Y9857291D02*
X17860680Y9857291D01*
X18003538Y9952529D01*
X18098776Y10047767D01*
X18146395Y10143005D01*
%TO.C,U11*%
X5284380Y76191096D02*
X6093904Y76191096D01*
X6189142Y76143477D01*
X6236761Y76095858D01*
X6284380Y76000620D01*
X6284380Y75810143D01*
X6236761Y75714905D01*
X6189142Y75667286D01*
X6093904Y75619667D01*
X5284380Y75619667D01*
X6284380Y74619667D02*
X6284380Y75191096D01*
X6284380Y74905381D02*
X5284380Y74905381D01*
X5427238Y75000620D01*
X5522476Y75095858D01*
X5570095Y75191096D01*
X6284380Y73667286D02*
X6284380Y74238715D01*
X6284380Y73953000D02*
X5284380Y73953000D01*
X5427238Y74048239D01*
X5522476Y74143477D01*
X5570095Y74238715D01*
D12*
%TO.C,L1*%
X16092714Y75588000D02*
X16092714Y75950858D01*
X15330714Y75950858D01*
X16092714Y74934858D02*
X16092714Y75370286D01*
X16092714Y75152572D02*
X15330714Y75152572D01*
X15439571Y75225143D01*
X15512142Y75297715D01*
X15548428Y75370286D01*
D11*
%TO.C,U8*%
X30016380Y60535905D02*
X30825904Y60535905D01*
X30921142Y60488286D01*
X30968761Y60440667D01*
X31016380Y60345429D01*
X31016380Y60154953D01*
X30968761Y60059715D01*
X30921142Y60012096D01*
X30825904Y59964477D01*
X30016380Y59964477D01*
X30444952Y59345429D02*
X30397333Y59440667D01*
X30349714Y59488286D01*
X30254476Y59535905D01*
X30206857Y59535905D01*
X30111619Y59488286D01*
X30064000Y59440667D01*
X30016380Y59345429D01*
X30016380Y59154953D01*
X30064000Y59059715D01*
X30111619Y59012096D01*
X30206857Y58964477D01*
X30254476Y58964477D01*
X30349714Y59012096D01*
X30397333Y59059715D01*
X30444952Y59154953D01*
X30444952Y59345429D01*
X30492571Y59440667D01*
X30540190Y59488286D01*
X30635428Y59535905D01*
X30825904Y59535905D01*
X30921142Y59488286D01*
X30968761Y59440667D01*
X31016380Y59345429D01*
X31016380Y59154953D01*
X30968761Y59059715D01*
X30921142Y59012096D01*
X30825904Y58964477D01*
X30635428Y58964477D01*
X30540190Y59012096D01*
X30492571Y59059715D01*
X30444952Y59154953D01*
%TO.C,D3*%
X18998095Y82882620D02*
X18998095Y83882620D01*
X18760000Y83882620D01*
X18617142Y83835000D01*
X18521904Y83739762D01*
X18474285Y83644524D01*
X18426666Y83454048D01*
X18426666Y83311191D01*
X18474285Y83120715D01*
X18521904Y83025477D01*
X18617142Y82930239D01*
X18760000Y82882620D01*
X18998095Y82882620D01*
X18093333Y83882620D02*
X17474285Y83882620D01*
X17807619Y83501667D01*
X17664761Y83501667D01*
X17569523Y83454048D01*
X17521904Y83406429D01*
X17474285Y83311191D01*
X17474285Y83073096D01*
X17521904Y82977858D01*
X17569523Y82930239D01*
X17664761Y82882620D01*
X17950476Y82882620D01*
X18045714Y82930239D01*
X18093333Y82977858D01*
%TO.C,L3*%
X28868666Y62308620D02*
X29344857Y62308620D01*
X29344857Y63308620D01*
X28630571Y63308620D02*
X28011523Y63308620D01*
X28344857Y62927667D01*
X28202000Y62927667D01*
X28106761Y62880048D01*
X28059142Y62832429D01*
X28011523Y62737191D01*
X28011523Y62499096D01*
X28059142Y62403858D01*
X28106761Y62356239D01*
X28202000Y62308620D01*
X28487714Y62308620D01*
X28582952Y62356239D01*
X28630571Y62403858D01*
%TO.C,U3*%
X25988680Y15715005D02*
X26798204Y15715005D01*
X26893442Y15667386D01*
X26941061Y15619767D01*
X26988680Y15524529D01*
X26988680Y15334053D01*
X26941061Y15238815D01*
X26893442Y15191196D01*
X26798204Y15143577D01*
X25988680Y15143577D01*
X25988680Y14762624D02*
X25988680Y14143577D01*
X26369633Y14476910D01*
X26369633Y14334053D01*
X26417252Y14238815D01*
X26464871Y14191196D01*
X26560109Y14143577D01*
X26798204Y14143577D01*
X26893442Y14191196D01*
X26941061Y14238815D01*
X26988680Y14334053D01*
X26988680Y14619767D01*
X26941061Y14715005D01*
X26893442Y14762624D01*
%TO.C,R1*%
X11716966Y43582720D02*
X12050300Y44058910D01*
X12288395Y43582720D02*
X12288395Y44582720D01*
X11907442Y44582720D01*
X11812204Y44535100D01*
X11764585Y44487481D01*
X11716966Y44392243D01*
X11716966Y44249386D01*
X11764585Y44154148D01*
X11812204Y44106529D01*
X11907442Y44058910D01*
X12288395Y44058910D01*
X10764585Y43582720D02*
X11336014Y43582720D01*
X11050300Y43582720D02*
X11050300Y44582720D01*
X11145538Y44439862D01*
X11240776Y44344624D01*
X11336014Y44297005D01*
D13*
%TO.C,C1*%
X27532585Y27780100D02*
X27605157Y27852672D01*
X27677728Y28070386D01*
X27677728Y28215529D01*
X27605157Y28433243D01*
X27460014Y28578386D01*
X27314871Y28650958D01*
X27024585Y28723529D01*
X26806871Y28723529D01*
X26516585Y28650958D01*
X26371442Y28578386D01*
X26226300Y28433243D01*
X26153728Y28215529D01*
X26153728Y28070386D01*
X26226300Y27852672D01*
X26298871Y27780100D01*
X27677728Y26328672D02*
X27677728Y27199529D01*
X27677728Y26764100D02*
X26153728Y26764100D01*
X26371442Y26909243D01*
X26516585Y27054386D01*
X26589157Y27199529D01*
X27396997Y33105392D02*
X27396997Y31944249D01*
X27977568Y32524820D02*
X26816425Y32524820D01*
D11*
%TO.C,C29*%
X23471142Y86183858D02*
X23518761Y86231477D01*
X23566380Y86374334D01*
X23566380Y86469572D01*
X23518761Y86612429D01*
X23423523Y86707667D01*
X23328285Y86755286D01*
X23137809Y86802905D01*
X22994952Y86802905D01*
X22804476Y86755286D01*
X22709238Y86707667D01*
X22614000Y86612429D01*
X22566380Y86469572D01*
X22566380Y86374334D01*
X22614000Y86231477D01*
X22661619Y86183858D01*
X22661619Y85802905D02*
X22614000Y85755286D01*
X22566380Y85660048D01*
X22566380Y85421953D01*
X22614000Y85326715D01*
X22661619Y85279096D01*
X22756857Y85231477D01*
X22852095Y85231477D01*
X22994952Y85279096D01*
X23566380Y85850524D01*
X23566380Y85231477D01*
X23566380Y84755286D02*
X23566380Y84564810D01*
X23518761Y84469572D01*
X23471142Y84421953D01*
X23328285Y84326715D01*
X23137809Y84279096D01*
X22756857Y84279096D01*
X22661619Y84326715D01*
X22614000Y84374334D01*
X22566380Y84469572D01*
X22566380Y84660048D01*
X22614000Y84755286D01*
X22661619Y84802905D01*
X22756857Y84850524D01*
X22994952Y84850524D01*
X23090190Y84802905D01*
X23137809Y84755286D01*
X23185428Y84660048D01*
X23185428Y84469572D01*
X23137809Y84374334D01*
X23090190Y84326715D01*
X22994952Y84279096D01*
%TO.C,C52*%
X31853142Y51084858D02*
X31900761Y51132477D01*
X31948380Y51275334D01*
X31948380Y51370572D01*
X31900761Y51513429D01*
X31805523Y51608667D01*
X31710285Y51656286D01*
X31519809Y51703905D01*
X31376952Y51703905D01*
X31186476Y51656286D01*
X31091238Y51608667D01*
X30996000Y51513429D01*
X30948380Y51370572D01*
X30948380Y51275334D01*
X30996000Y51132477D01*
X31043619Y51084858D01*
X30948380Y50180096D02*
X30948380Y50656286D01*
X31424571Y50703905D01*
X31376952Y50656286D01*
X31329333Y50561048D01*
X31329333Y50322953D01*
X31376952Y50227715D01*
X31424571Y50180096D01*
X31519809Y50132477D01*
X31757904Y50132477D01*
X31853142Y50180096D01*
X31900761Y50227715D01*
X31948380Y50322953D01*
X31948380Y50561048D01*
X31900761Y50656286D01*
X31853142Y50703905D01*
X31043619Y49751524D02*
X30996000Y49703905D01*
X30948380Y49608667D01*
X30948380Y49370572D01*
X30996000Y49275334D01*
X31043619Y49227715D01*
X31138857Y49180096D01*
X31234095Y49180096D01*
X31376952Y49227715D01*
X31948380Y49799143D01*
X31948380Y49180096D01*
%TO.C,M8*%
X36406380Y69666524D02*
X35406380Y69666524D01*
X36120666Y69333191D01*
X35406380Y68999858D01*
X36406380Y68999858D01*
X35834952Y68380810D02*
X35787333Y68476048D01*
X35739714Y68523667D01*
X35644476Y68571286D01*
X35596857Y68571286D01*
X35501619Y68523667D01*
X35454000Y68476048D01*
X35406380Y68380810D01*
X35406380Y68190334D01*
X35454000Y68095096D01*
X35501619Y68047477D01*
X35596857Y67999858D01*
X35644476Y67999858D01*
X35739714Y68047477D01*
X35787333Y68095096D01*
X35834952Y68190334D01*
X35834952Y68380810D01*
X35882571Y68476048D01*
X35930190Y68523667D01*
X36025428Y68571286D01*
X36215904Y68571286D01*
X36311142Y68523667D01*
X36358761Y68476048D01*
X36406380Y68380810D01*
X36406380Y68190334D01*
X36358761Y68095096D01*
X36311142Y68047477D01*
X36215904Y67999858D01*
X36025428Y67999858D01*
X35930190Y68047477D01*
X35882571Y68095096D01*
X35834952Y68190334D01*
%TO.C,M6*%
X31872523Y1991620D02*
X31872523Y2991620D01*
X31539190Y2277334D01*
X31205857Y2991620D01*
X31205857Y1991620D01*
X30301095Y2991620D02*
X30491571Y2991620D01*
X30586809Y2944000D01*
X30634428Y2896381D01*
X30729666Y2753524D01*
X30777285Y2563048D01*
X30777285Y2182096D01*
X30729666Y2086858D01*
X30682047Y2039239D01*
X30586809Y1991620D01*
X30396333Y1991620D01*
X30301095Y2039239D01*
X30253476Y2086858D01*
X30205857Y2182096D01*
X30205857Y2420191D01*
X30253476Y2515429D01*
X30301095Y2563048D01*
X30396333Y2610667D01*
X30586809Y2610667D01*
X30682047Y2563048D01*
X30729666Y2515429D01*
X30777285Y2420191D01*
%TO.C,U6*%
X11334380Y55648905D02*
X12143904Y55648905D01*
X12239142Y55601286D01*
X12286761Y55553667D01*
X12334380Y55458429D01*
X12334380Y55267953D01*
X12286761Y55172715D01*
X12239142Y55125096D01*
X12143904Y55077477D01*
X11334380Y55077477D01*
X11334380Y54172715D02*
X11334380Y54363191D01*
X11382000Y54458429D01*
X11429619Y54506048D01*
X11572476Y54601286D01*
X11762952Y54648905D01*
X12143904Y54648905D01*
X12239142Y54601286D01*
X12286761Y54553667D01*
X12334380Y54458429D01*
X12334380Y54267953D01*
X12286761Y54172715D01*
X12239142Y54125096D01*
X12143904Y54077477D01*
X11905809Y54077477D01*
X11810571Y54125096D01*
X11762952Y54172715D01*
X11715333Y54267953D01*
X11715333Y54458429D01*
X11762952Y54553667D01*
X11810571Y54601286D01*
X11905809Y54648905D01*
%TO.C,J22*%
X26784300Y49464100D02*
X26784300Y54544100D01*
X26784300Y54544100D02*
X19164300Y54544100D01*
X19164300Y49464100D02*
X26784300Y49464100D01*
X19164300Y54544100D02*
X19164300Y49464100D01*
D14*
%TO.C,U5*%
X23783300Y40596100D02*
X23783300Y42396100D01*
X27003300Y42396100D02*
X27003300Y39946100D01*
%TO.C,U4*%
X11666300Y40439100D02*
X14116300Y40439100D01*
X13466300Y37219100D02*
X11666300Y37219100D01*
D11*
%TO.C,C8*%
X11550300Y34003100D02*
X11550300Y32479100D01*
X12566300Y34003100D02*
X11550300Y34003100D01*
X14598300Y32479100D02*
X14598300Y34003100D01*
X11550300Y32479100D02*
X12566300Y32479100D01*
X13582300Y32479100D02*
X14598300Y32479100D01*
X14598300Y34003100D02*
X13582300Y34003100D01*
X14852300Y32479100D02*
G75*
G03*
X14852300Y32479100I-127000J0D01*
G01*
%TO.C,C3*%
X18534500Y6063100D02*
X17518500Y6063100D01*
X16502500Y6063100D02*
X15486500Y6063100D01*
X17518500Y4539100D02*
X18534500Y4539100D01*
X18534500Y4539100D02*
X18534500Y6063100D01*
X15486500Y6063100D02*
X15486500Y4539100D01*
X15486500Y4539100D02*
X16502500Y4539100D01*
X18788500Y4539100D02*
G75*
G03*
X18788500Y4539100I-127000J0D01*
G01*
%TO.C,R6*%
X25520300Y5364600D02*
X25520300Y6380600D01*
X25520300Y8412600D02*
X23996300Y8412600D01*
X23996300Y5364600D02*
X25520300Y5364600D01*
X23996300Y8412600D02*
X23996300Y7396600D01*
X25520300Y7396600D02*
X25520300Y8412600D01*
X23996300Y6380600D02*
X23996300Y5364600D01*
X25647300Y8539600D02*
G75*
G03*
X25647300Y8539600I-127000J0D01*
G01*
%TO.C,C13*%
X11550300Y34765100D02*
X12566300Y34765100D01*
X13582300Y34765100D02*
X14598300Y34765100D01*
X11550300Y36289100D02*
X11550300Y34765100D01*
X12566300Y36289100D02*
X11550300Y36289100D01*
X14598300Y34765100D02*
X14598300Y36289100D01*
X14598300Y36289100D02*
X13582300Y36289100D01*
X14852300Y34765100D02*
G75*
G03*
X14852300Y34765100I-127000J0D01*
G01*
%TO.C,C24*%
X13004800Y18857100D02*
X11988800Y18857100D01*
X9956800Y18857100D02*
X9956800Y17333100D01*
X10972800Y18857100D02*
X9956800Y18857100D01*
X9956800Y17333100D02*
X10972800Y17333100D01*
X13004800Y17333100D02*
X13004800Y18857100D01*
X11988800Y17333100D02*
X13004800Y17333100D01*
X9956800Y18857100D02*
G75*
G03*
X9956800Y18857100I-127000J0D01*
G01*
%TO.C,C4*%
X27749500Y31646000D02*
X26733500Y31646000D01*
X25717500Y31646000D02*
X24701500Y31646000D01*
X26733500Y30122000D02*
X27749500Y30122000D01*
X27749500Y30122000D02*
X27749500Y31646000D01*
X24701500Y30122000D02*
X25717500Y30122000D01*
X24701500Y31646000D02*
X24701500Y30122000D01*
X28003500Y30122000D02*
G75*
G03*
X28003500Y30122000I-127000J0D01*
G01*
%TO.C,U10*%
X23671300Y68994100D02*
X23671300Y68319100D01*
X13321300Y58644100D02*
X13321300Y59319100D01*
X13321300Y68994100D02*
X13996300Y68994100D01*
X13321300Y58644100D02*
X13996300Y58644100D01*
X23096300Y58644100D02*
X23096300Y57369100D01*
X23671300Y68994100D02*
X22996300Y68994100D01*
X23671300Y58644100D02*
X23671300Y59319100D01*
X23671300Y58644100D02*
X23096300Y58644100D01*
X13321300Y68994100D02*
X13321300Y68319100D01*
%TO.C,R4*%
X11550300Y30193100D02*
X12566300Y30193100D01*
X14598300Y30193100D02*
X14598300Y31717100D01*
X11550300Y31717100D02*
X11550300Y30193100D01*
X13582300Y30193100D02*
X14598300Y30193100D01*
X14598300Y31717100D02*
X13582300Y31717100D01*
X12566300Y31717100D02*
X11550300Y31717100D01*
X14852300Y30193100D02*
G75*
G03*
X14852300Y30193100I-127000J0D01*
G01*
%TO.C,C10*%
X21456300Y11905100D02*
X21456300Y10889100D01*
X22980300Y10889100D02*
X22980300Y11905100D01*
X22980300Y11905100D02*
X21456300Y11905100D01*
X21456300Y9873100D02*
X21456300Y8857100D01*
X22980300Y8857100D02*
X22980300Y9873100D01*
X21456300Y8857100D02*
X22980300Y8857100D01*
X23107300Y12032100D02*
G75*
G03*
X23107300Y12032100I-127000J0D01*
G01*
%TO.C,C5*%
X21456300Y5364600D02*
X22980300Y5364600D01*
X22980300Y8412600D02*
X21456300Y8412600D01*
X22980300Y5364600D02*
X22980300Y6380600D01*
X21456300Y8412600D02*
X21456300Y7396600D01*
X21456300Y6380600D02*
X21456300Y5364600D01*
X22980300Y7396600D02*
X22980300Y8412600D01*
X23107300Y8539600D02*
G75*
G03*
X23107300Y8539600I-127000J0D01*
G01*
%TO.C,R3*%
X23869300Y35019100D02*
X24885300Y35019100D01*
X26917300Y35019100D02*
X26917300Y36543100D01*
X25901300Y35019100D02*
X26917300Y35019100D01*
X23869300Y36543100D02*
X23869300Y35019100D01*
X26917300Y36543100D02*
X25901300Y36543100D01*
X24885300Y36543100D02*
X23869300Y36543100D01*
X23869300Y36543100D02*
G75*
G03*
X23869300Y36543100I-127000J0D01*
G01*
%TO.C,R2*%
X21773800Y14699100D02*
X22789800Y14699100D01*
X19741800Y14699100D02*
X20757800Y14699100D01*
X20757800Y16223100D02*
X19741800Y16223100D01*
X22789800Y14699100D02*
X22789800Y16223100D01*
X22789800Y16223100D02*
X21773800Y16223100D01*
X19741800Y16223100D02*
X19741800Y14699100D01*
X19741800Y16223100D02*
G75*
G03*
X19741800Y16223100I-127000J0D01*
G01*
%TO.C,U2*%
X17865300Y30658100D02*
X18010300Y30658100D01*
X23015300Y30658100D02*
X22870300Y30658100D01*
X17865300Y30658100D02*
X17865300Y34808100D01*
X23015300Y30658100D02*
X23015300Y34808100D01*
X23015300Y34808100D02*
X22870300Y34808100D01*
X22870300Y30658100D02*
X22870300Y29258100D01*
%TO.C,R10*%
X18097500Y25169000D02*
X17081500Y25169000D01*
X20129500Y23645000D02*
X20129500Y25169000D01*
X17081500Y23645000D02*
X18097500Y23645000D01*
X19113500Y23645000D02*
X20129500Y23645000D01*
X20129500Y25169000D02*
X19113500Y25169000D01*
X17081500Y25169000D02*
X17081500Y23645000D01*
X20383500Y23645000D02*
G75*
G03*
X20383500Y23645000I-127000J0D01*
G01*
%TO.C,C18*%
X23805800Y27907100D02*
X22789800Y27907100D01*
X20757800Y27907100D02*
X20757800Y26383100D01*
X23805800Y26383100D02*
X23805800Y27907100D01*
X21773800Y27907100D02*
X20757800Y27907100D01*
X22789800Y26383100D02*
X23805800Y26383100D01*
X20757800Y26383100D02*
X21773800Y26383100D01*
X24059800Y26383100D02*
G75*
G03*
X24059800Y26383100I-127000J0D01*
G01*
%TO.C,U1*%
X20983300Y8306100D02*
X20838300Y8306100D01*
X15833300Y8306100D02*
X15833300Y12456100D01*
X20838300Y8306100D02*
X20838300Y6906100D01*
X20983300Y8306100D02*
X20983300Y12456100D01*
X15833300Y8306100D02*
X15978300Y8306100D01*
X20983300Y12456100D02*
X20838300Y12456100D01*
%TO.C,C20*%
X25012300Y10889100D02*
X25012300Y9365100D01*
X28060300Y9365100D02*
X28060300Y10889100D01*
X26028300Y10889100D02*
X25012300Y10889100D01*
X25012300Y9365100D02*
X26028300Y9365100D01*
X27044300Y9365100D02*
X28060300Y9365100D01*
X28060300Y10889100D02*
X27044300Y10889100D01*
X25012300Y10889100D02*
G75*
G03*
X25012300Y10889100I-127000J0D01*
G01*
%TO.C,R7*%
X15451000Y17526500D02*
X15451000Y16510500D01*
X16975000Y14478500D02*
X16975000Y15494500D01*
X16975000Y17526500D02*
X15451000Y17526500D01*
X15451000Y15494500D02*
X15451000Y14478500D01*
X16975000Y16510500D02*
X16975000Y17526500D01*
X15451000Y14478500D02*
X16975000Y14478500D01*
X17102000Y17653500D02*
G75*
G03*
X17102000Y17653500I-127000J0D01*
G01*
%TO.C,R9*%
X17486500Y18812000D02*
X17486500Y17288000D01*
X17486500Y17288000D02*
X18502500Y17288000D01*
X20534500Y18812000D02*
X19518500Y18812000D01*
X20534500Y17288000D02*
X20534500Y18812000D01*
X18502500Y18812000D02*
X17486500Y18812000D01*
X19518500Y17288000D02*
X20534500Y17288000D01*
X20788500Y17288000D02*
G75*
G03*
X20788500Y17288000I-127000J0D01*
G01*
%TO.C,C11*%
X23018500Y17038000D02*
X24034500Y17038000D01*
X20986500Y18562000D02*
X20986500Y17038000D01*
X22002500Y18562000D02*
X20986500Y18562000D01*
X24034500Y17038000D02*
X24034500Y18562000D01*
X20986500Y17038000D02*
X22002500Y17038000D01*
X24034500Y18562000D02*
X23018500Y18562000D01*
X20986500Y18562000D02*
G75*
G03*
X20986500Y18562000I-127000J0D01*
G01*
%TO.C,C16*%
X19113500Y21613000D02*
X20129500Y21613000D01*
X20129500Y23137000D02*
X19113500Y23137000D01*
X17081500Y23137000D02*
X17081500Y21613000D01*
X17081500Y21613000D02*
X18097500Y21613000D01*
X18097500Y23137000D02*
X17081500Y23137000D01*
X20129500Y21613000D02*
X20129500Y23137000D01*
X17081500Y23137000D02*
G75*
G03*
X17081500Y23137000I-127000J0D01*
G01*
%TO.C,R11*%
X20757800Y24097100D02*
X21773800Y24097100D01*
X21773800Y25621100D02*
X20757800Y25621100D01*
X23805800Y24097100D02*
X23805800Y25621100D01*
X20757800Y25621100D02*
X20757800Y24097100D01*
X23805800Y25621100D02*
X22789800Y25621100D01*
X22789800Y24097100D02*
X23805800Y24097100D01*
X24059800Y24097100D02*
G75*
G03*
X24059800Y24097100I-127000J0D01*
G01*
%TO.C,C15*%
X17201800Y21049100D02*
X17201800Y19525100D01*
X20249800Y21049100D02*
X19233800Y21049100D01*
X19233800Y19525100D02*
X20249800Y19525100D01*
X18217800Y21049100D02*
X17201800Y21049100D01*
X17201800Y19525100D02*
X18217800Y19525100D01*
X20249800Y19525100D02*
X20249800Y21049100D01*
X20503800Y19525100D02*
G75*
G03*
X20503800Y19525100I-127000J0D01*
G01*
%TO.C,R5*%
X27806300Y36543100D02*
X27806300Y35527100D01*
X27806300Y38575100D02*
X27806300Y37559100D01*
X29330300Y35527100D02*
X29330300Y36543100D01*
X27806300Y35527100D02*
X29330300Y35527100D01*
X29330300Y37559100D02*
X29330300Y38575100D01*
X29330300Y38575100D02*
X27806300Y38575100D01*
X29457300Y38702100D02*
G75*
G03*
X29457300Y38702100I-127000J0D01*
G01*
%TO.C,C12*%
X22726300Y38575100D02*
X21710300Y38575100D01*
X19678300Y37051100D02*
X20694300Y37051100D01*
X20694300Y38575100D02*
X19678300Y38575100D01*
X19678300Y38575100D02*
X19678300Y37051100D01*
X21710300Y37051100D02*
X22726300Y37051100D01*
X22726300Y37051100D02*
X22726300Y38575100D01*
X22980300Y37051100D02*
G75*
G03*
X22980300Y37051100I-127000J0D01*
G01*
%TO.C,U11*%
X6932000Y76578000D02*
X6932000Y77653000D01*
X6757000Y76578000D02*
X6757000Y73328000D01*
X10007000Y73328000D02*
X9732000Y73328000D01*
X10007000Y76578000D02*
X9732000Y76578000D01*
X6757000Y73328000D02*
X7032000Y73328000D01*
X6757000Y76578000D02*
X6932000Y76578000D01*
X10007000Y76578000D02*
X10007000Y73328000D01*
X7632000Y75953000D02*
G75*
G03*
X7632000Y75953000I-250000J0D01*
G01*
%TO.C,R13*%
X18916300Y41115100D02*
X18916300Y42131100D01*
X18916300Y42131100D02*
X17392300Y42131100D01*
X17392300Y42131100D02*
X17392300Y41115100D01*
X17392300Y40099100D02*
X17392300Y39083100D01*
X17392300Y39083100D02*
X18916300Y39083100D01*
X18916300Y39083100D02*
X18916300Y40099100D01*
X17519300Y38956100D02*
G75*
G03*
X17519300Y38956100I-127000J0D01*
G01*
%TO.C,C9*%
X30727300Y39464100D02*
X30727300Y40988100D01*
X28695300Y40988100D02*
X27679300Y40988100D01*
X27679300Y40988100D02*
X27679300Y39464100D01*
X27679300Y39464100D02*
X28695300Y39464100D01*
X29711300Y39464100D02*
X30727300Y39464100D01*
X30727300Y40988100D02*
X29711300Y40988100D01*
X27679300Y40988100D02*
G75*
G03*
X27679300Y40988100I-127000J0D01*
G01*
%TO.C,C14*%
X27679300Y42004100D02*
X28695300Y42004100D01*
X30727300Y43528100D02*
X29711300Y43528100D01*
X30727300Y42004100D02*
X30727300Y43528100D01*
X28695300Y43528100D02*
X27679300Y43528100D01*
X29711300Y42004100D02*
X30727300Y42004100D01*
X27679300Y43528100D02*
X27679300Y42004100D01*
X27679300Y43528100D02*
G75*
G03*
X27679300Y43528100I-127000J0D01*
G01*
%TO.C,C7*%
X19678300Y39337100D02*
X20694300Y39337100D01*
X21710300Y39337100D02*
X22726300Y39337100D01*
X22726300Y39337100D02*
X22726300Y40861100D01*
X22726300Y40861100D02*
X21710300Y40861100D01*
X20694300Y40861100D02*
X19678300Y40861100D01*
X19678300Y40861100D02*
X19678300Y39337100D01*
X22980300Y39337100D02*
G75*
G03*
X22980300Y39337100I-127000J0D01*
G01*
%TO.C,R12*%
X21075300Y43528100D02*
X20059300Y43528100D01*
X22091300Y42004100D02*
X23107300Y42004100D01*
X20059300Y42004100D02*
X21075300Y42004100D01*
X23107300Y42004100D02*
X23107300Y43528100D01*
X23107300Y43528100D02*
X22091300Y43528100D01*
X20059300Y43528100D02*
X20059300Y42004100D01*
X23361300Y42004100D02*
G75*
G03*
X23361300Y42004100I-127000J0D01*
G01*
%TO.C,L1*%
X14986000Y73048000D02*
X14986000Y74572000D01*
X14986000Y77620000D02*
X17780000Y77620000D01*
X14986000Y76096000D02*
X14986000Y77620000D01*
X14986000Y76096000D02*
X14986000Y77620000D01*
X17780000Y73048000D02*
X14986000Y73048000D01*
X17780000Y77620000D02*
X17780000Y76096000D01*
X17780000Y74572000D02*
X17780000Y73048000D01*
X18086605Y77747000D02*
G75*
G03*
X18086605Y77747000I-179605J0D01*
G01*
%TO.C,C19*%
X15868300Y37051100D02*
X16884300Y37051100D01*
X15868300Y38575100D02*
X15868300Y37051100D01*
X18916300Y38575100D02*
X17900300Y38575100D01*
X17900300Y37051100D02*
X18916300Y37051100D01*
X18916300Y37051100D02*
X18916300Y38575100D01*
X16884300Y38575100D02*
X15868300Y38575100D01*
X19170300Y37051100D02*
G75*
G03*
X19170300Y37051100I-127000J0D01*
G01*
D14*
%TO.C,U8*%
X29124000Y58559000D02*
X29124000Y61009000D01*
X32344000Y60359000D02*
X32344000Y58559000D01*
D11*
%TO.C,C2*%
X10020300Y19619100D02*
X11036300Y19619100D01*
X11036300Y21143100D02*
X10020300Y21143100D01*
X13068300Y19619100D02*
X13068300Y21143100D01*
X12052300Y19619100D02*
X13068300Y19619100D01*
X13068300Y21143100D02*
X12052300Y21143100D01*
X10020300Y21143100D02*
X10020300Y19619100D01*
X10020300Y21143100D02*
G75*
G03*
X10020300Y21143100I-127000J0D01*
G01*
D14*
%TO.C,D3*%
X16510000Y84335000D02*
X20810000Y84335000D01*
X20810000Y84335000D02*
X20810000Y82335000D01*
X20810000Y82335000D02*
X16510000Y82335000D01*
D11*
%TO.C,F2*%
X18288000Y86065500D02*
X19812000Y86065500D01*
X19812000Y88097500D02*
X19812000Y89113500D01*
X19812000Y86065500D02*
X19812000Y87081500D01*
X18288000Y87081500D02*
X18288000Y86065500D01*
X18288000Y89113500D02*
X18288000Y88097500D01*
X19812000Y89113500D02*
X18288000Y89113500D01*
X18415000Y85938500D02*
G75*
G03*
X18415000Y85938500I-127000J0D01*
G01*
%TO.C,C55*%
X27178000Y86446500D02*
X27178000Y87462500D01*
X27178000Y84414500D02*
X27178000Y85430500D01*
X27178000Y87462500D02*
X25654000Y87462500D01*
X25654000Y85430500D02*
X25654000Y84414500D01*
X25654000Y84414500D02*
X27178000Y84414500D01*
X25654000Y87462500D02*
X25654000Y86446500D01*
X27305000Y87589500D02*
G75*
G03*
X27305000Y87589500I-127000J0D01*
G01*
D14*
%TO.C,L3*%
X28440748Y63471000D02*
X28963252Y63471000D01*
X28440748Y62051000D02*
X28963252Y62051000D01*
D11*
%TO.C,R22*%
X8750300Y19936600D02*
X8750300Y20952600D01*
X7226300Y18920600D02*
X7226300Y17904600D01*
X8750300Y20952600D02*
X7226300Y20952600D01*
X7226300Y17904600D02*
X8750300Y17904600D01*
X7226300Y20952600D02*
X7226300Y19936600D01*
X8750300Y17904600D02*
X8750300Y18920600D01*
X7353300Y17777600D02*
G75*
G03*
X7353300Y17777600I-127000J0D01*
G01*
%TO.C,R19*%
X8750300Y23746600D02*
X8750300Y24762600D01*
X8750300Y24762600D02*
X7226300Y24762600D01*
X7226300Y22730600D02*
X7226300Y21714600D01*
X8750300Y21714600D02*
X8750300Y22730600D01*
X7226300Y24762600D02*
X7226300Y23746600D01*
X7226300Y21714600D02*
X8750300Y21714600D01*
X7353300Y21587600D02*
G75*
G03*
X7353300Y21587600I-127000J0D01*
G01*
%TO.C,R15*%
X7226300Y28572600D02*
X7226300Y27556600D01*
X7226300Y26540600D02*
X7226300Y25524600D01*
X7226300Y25524600D02*
X8750300Y25524600D01*
X8750300Y25524600D02*
X8750300Y26540600D01*
X8750300Y28572600D02*
X7226300Y28572600D01*
X8750300Y27556600D02*
X8750300Y28572600D01*
X7353300Y25397600D02*
G75*
G03*
X7353300Y25397600I-127000J0D01*
G01*
%TO.C,C23*%
X10020300Y23175100D02*
X10020300Y21651100D01*
X13068300Y21651100D02*
X13068300Y23175100D01*
X11036300Y23175100D02*
X10020300Y23175100D01*
X10020300Y21651100D02*
X11036300Y21651100D01*
X13068300Y23175100D02*
X12052300Y23175100D01*
X12052300Y21651100D02*
X13068300Y21651100D01*
X10020300Y23175100D02*
G75*
G03*
X10020300Y23175100I-127000J0D01*
G01*
%TO.C,C21*%
X10020300Y25207100D02*
X10020300Y23683100D01*
X11036300Y25207100D02*
X10020300Y25207100D01*
X12052300Y23683100D02*
X13068300Y23683100D01*
X10020300Y23683100D02*
X11036300Y23683100D01*
X13068300Y23683100D02*
X13068300Y25207100D01*
X13068300Y25207100D02*
X12052300Y25207100D01*
X10020300Y25207100D02*
G75*
G03*
X10020300Y25207100I-127000J0D01*
G01*
%TO.C,C34*%
X15988000Y53249000D02*
X17512000Y53249000D01*
X17512000Y55281000D02*
X17512000Y56297000D01*
X15988000Y56297000D02*
X15988000Y55281000D01*
X17512000Y56297000D02*
X15988000Y56297000D01*
X17512000Y53249000D02*
X17512000Y54265000D01*
X15988000Y54265000D02*
X15988000Y53249000D01*
X16115000Y53122000D02*
G75*
G03*
X16115000Y53122000I-127000J0D01*
G01*
%TO.C,C27*%
X22352000Y79588500D02*
X20828000Y79588500D01*
X20828000Y76540500D02*
X22352000Y76540500D01*
X22352000Y78572500D02*
X22352000Y79588500D01*
X20828000Y79588500D02*
X20828000Y78572500D01*
X22352000Y76540500D02*
X22352000Y77556500D01*
X20828000Y77556500D02*
X20828000Y76540500D01*
X20955000Y76413500D02*
G75*
G03*
X20955000Y76413500I-127000J0D01*
G01*
%TO.C,R20*%
X10985500Y72667000D02*
X12001500Y72667000D01*
X13017500Y72667000D02*
X14033500Y72667000D01*
X14033500Y72667000D02*
X14033500Y74191000D01*
X12001500Y74191000D02*
X10985500Y74191000D01*
X10985500Y74191000D02*
X10985500Y72667000D01*
X14033500Y74191000D02*
X13017500Y74191000D01*
X10985500Y74191000D02*
G75*
G03*
X10985500Y74191000I-127000J0D01*
G01*
%TO.C,R23*%
X18542000Y51686600D02*
X18542000Y52702600D01*
X18542000Y49654600D02*
X18542000Y50670600D01*
X17018000Y49654600D02*
X18542000Y49654600D01*
X17018000Y52702600D02*
X17018000Y51686600D01*
X18542000Y52702600D02*
X17018000Y52702600D01*
X17018000Y50670600D02*
X17018000Y49654600D01*
X17145000Y49527600D02*
G75*
G03*
X17145000Y49527600I-127000J0D01*
G01*
%TO.C,C26*%
X24638000Y78699500D02*
X24638000Y79715500D01*
X23114000Y77683500D02*
X23114000Y76667500D01*
X24638000Y79715500D02*
X23114000Y79715500D01*
X23114000Y76667500D02*
X24638000Y76667500D01*
X23114000Y79715500D02*
X23114000Y78699500D01*
X24638000Y76667500D02*
X24638000Y77683500D01*
X23241000Y76540500D02*
G75*
G03*
X23241000Y76540500I-127000J0D01*
G01*
D14*
%TO.C,U3*%
X28116300Y16237100D02*
X27186300Y16237100D01*
X24956300Y16237100D02*
X24956300Y14777100D01*
X28116300Y16237100D02*
X28116300Y14077100D01*
X24956300Y16237100D02*
X25886300Y16237100D01*
D11*
%TO.C,C43*%
X16573500Y50188000D02*
X16573500Y51712000D01*
X15557500Y50188000D02*
X16573500Y50188000D01*
X16573500Y51712000D02*
X15557500Y51712000D01*
X14541500Y51712000D02*
X13525500Y51712000D01*
X13525500Y50188000D02*
X14541500Y50188000D01*
X13525500Y51712000D02*
X13525500Y50188000D01*
X16827500Y50188000D02*
G75*
G03*
X16827500Y50188000I-127000J0D01*
G01*
%TO.C,C39*%
X9144000Y64602500D02*
X9144000Y63586500D01*
X9144000Y62570500D02*
X9144000Y61554500D01*
X10668000Y63586500D02*
X10668000Y64602500D01*
X10668000Y61554500D02*
X10668000Y62570500D01*
X10668000Y64602500D02*
X9144000Y64602500D01*
X9144000Y61554500D02*
X10668000Y61554500D01*
X9271000Y61427500D02*
G75*
G03*
X9271000Y61427500I-127000J0D01*
G01*
%TO.C,C28*%
X18796000Y76540500D02*
X20320000Y76540500D01*
X20320000Y76540500D02*
X20320000Y77556500D01*
X18796000Y79588500D02*
X18796000Y78572500D01*
X20320000Y79588500D02*
X18796000Y79588500D01*
X20320000Y78572500D02*
X20320000Y79588500D01*
X18796000Y77556500D02*
X18796000Y76540500D01*
X18923000Y76413500D02*
G75*
G03*
X18923000Y76413500I-127000J0D01*
G01*
%TO.C,R1*%
X11042300Y43147100D02*
X10026300Y43147100D01*
X12058300Y41623100D02*
X13074300Y41623100D01*
X10026300Y43147100D02*
X10026300Y41623100D01*
X13074300Y43147100D02*
X12058300Y43147100D01*
X13074300Y41623100D02*
X13074300Y43147100D01*
X10026300Y41623100D02*
X11042300Y41623100D01*
X13328300Y41623100D02*
G75*
G03*
X13328300Y41623100I-127000J0D01*
G01*
%TO.C,C36*%
X23685500Y82573000D02*
X22669500Y82573000D01*
X24701500Y81049000D02*
X25717500Y81049000D01*
X22669500Y81049000D02*
X23685500Y81049000D01*
X25717500Y82573000D02*
X24701500Y82573000D01*
X22669500Y82573000D02*
X22669500Y81049000D01*
X25717500Y81049000D02*
X25717500Y82573000D01*
X22669500Y82573000D02*
G75*
G03*
X22669500Y82573000I-127000J0D01*
G01*
%TO.C,C32*%
X26987500Y64285000D02*
X28003500Y64285000D01*
X29019500Y64285000D02*
X30035500Y64285000D01*
X30035500Y65809000D02*
X29019500Y65809000D01*
X28003500Y65809000D02*
X26987500Y65809000D01*
X30035500Y64285000D02*
X30035500Y65809000D01*
X26987500Y65809000D02*
X26987500Y64285000D01*
X26987500Y65809000D02*
G75*
G03*
X26987500Y65809000I-127000J0D01*
G01*
%TO.C,R21*%
X10477500Y59459000D02*
X10477500Y60983000D01*
X7429500Y60983000D02*
X7429500Y59459000D01*
X7429500Y59459000D02*
X8445500Y59459000D01*
X8445500Y60983000D02*
X7429500Y60983000D01*
X10477500Y60983000D02*
X9461500Y60983000D01*
X9461500Y59459000D02*
X10477500Y59459000D01*
X7429500Y60983000D02*
G75*
G03*
X7429500Y60983000I-127000J0D01*
G01*
%TO.C,C44*%
X21018500Y72540000D02*
X20002500Y72540000D01*
X21018500Y71016000D02*
X21018500Y72540000D01*
X17970500Y72540000D02*
X17970500Y71016000D01*
X18986500Y72540000D02*
X17970500Y72540000D01*
X20002500Y71016000D02*
X21018500Y71016000D01*
X17970500Y71016000D02*
X18986500Y71016000D01*
X21272500Y71016000D02*
G75*
G03*
X21272500Y71016000I-127000J0D01*
G01*
%TO.C,C31*%
X16637000Y71016000D02*
X17653000Y71016000D01*
X14605000Y71016000D02*
X15621000Y71016000D01*
X17653000Y71016000D02*
X17653000Y72540000D01*
X14605000Y72540000D02*
X14605000Y71016000D01*
X15621000Y72540000D02*
X14605000Y72540000D01*
X17653000Y72540000D02*
X16637000Y72540000D01*
X17907000Y71016000D02*
G75*
G03*
X17907000Y71016000I-127000J0D01*
G01*
%TO.C,C40*%
X19494500Y74826000D02*
X18478500Y74826000D01*
X18478500Y73302000D02*
X19494500Y73302000D01*
X20510500Y73302000D02*
X21526500Y73302000D01*
X21526500Y73302000D02*
X21526500Y74826000D01*
X21526500Y74826000D02*
X20510500Y74826000D01*
X18478500Y74826000D02*
X18478500Y73302000D01*
X21780500Y73302000D02*
G75*
G03*
X21780500Y73302000I-127000J0D01*
G01*
%TO.C,C50*%
X32067500Y53109000D02*
X32067500Y54633000D01*
X30035500Y54633000D02*
X29019500Y54633000D01*
X31051500Y53109000D02*
X32067500Y53109000D01*
X29019500Y53109000D02*
X30035500Y53109000D01*
X29019500Y54633000D02*
X29019500Y53109000D01*
X32067500Y54633000D02*
X31051500Y54633000D01*
X32321500Y53109000D02*
G75*
G03*
X32321500Y53109000I-127000J0D01*
G01*
%TO.C,C42*%
X29019500Y56919000D02*
X29019500Y55395000D01*
X32067500Y55395000D02*
X32067500Y56919000D01*
X32067500Y56919000D02*
X31051500Y56919000D01*
X31051500Y55395000D02*
X32067500Y55395000D01*
X30035500Y56919000D02*
X29019500Y56919000D01*
X29019500Y55395000D02*
X30035500Y55395000D01*
X32321500Y55395000D02*
G75*
G03*
X32321500Y55395000I-127000J0D01*
G01*
%TO.C,C35*%
X30035500Y66571000D02*
X30035500Y68095000D01*
X26987500Y66571000D02*
X28003500Y66571000D01*
X30035500Y68095000D02*
X29019500Y68095000D01*
X29019500Y66571000D02*
X30035500Y66571000D01*
X26987500Y68095000D02*
X26987500Y66571000D01*
X28003500Y68095000D02*
X26987500Y68095000D01*
X26987500Y68095000D02*
G75*
G03*
X26987500Y68095000I-127000J0D01*
G01*
%TO.C,C47*%
X12192000Y78318500D02*
X10668000Y78318500D01*
X12192000Y75270500D02*
X12192000Y76286500D01*
X10668000Y75270500D02*
X12192000Y75270500D01*
X10668000Y78318500D02*
X10668000Y77302500D01*
X10668000Y76286500D02*
X10668000Y75270500D01*
X12192000Y77302500D02*
X12192000Y78318500D01*
X10795000Y75143500D02*
G75*
G03*
X10795000Y75143500I-127000J0D01*
G01*
%TO.C,C54*%
X27813000Y51394500D02*
X27813000Y50378500D01*
X29337000Y50378500D02*
X29337000Y51394500D01*
X29337000Y51394500D02*
X27813000Y51394500D01*
X29337000Y48346500D02*
X29337000Y49362500D01*
X27813000Y48346500D02*
X29337000Y48346500D01*
X27813000Y49362500D02*
X27813000Y48346500D01*
X27940000Y48219500D02*
G75*
G03*
X27940000Y48219500I-127000J0D01*
G01*
%TO.C,R8*%
X14661800Y19562000D02*
X13645800Y19562000D01*
X16693800Y18038000D02*
X16693800Y19562000D01*
X13645800Y18038000D02*
X14661800Y18038000D01*
X16693800Y19562000D02*
X15677800Y19562000D01*
X15677800Y18038000D02*
X16693800Y18038000D01*
X13645800Y19562000D02*
X13645800Y18038000D01*
X16947800Y18038000D02*
G75*
G03*
X16947800Y18038000I-127000J0D01*
G01*
%TO.C,C6*%
X22002500Y20541100D02*
X20986500Y20541100D01*
X20986500Y19017100D02*
X22002500Y19017100D01*
X24034500Y19017100D02*
X24034500Y20541100D01*
X24034500Y20541100D02*
X23018500Y20541100D01*
X20986500Y20541100D02*
X20986500Y19017100D01*
X23018500Y19017100D02*
X24034500Y19017100D01*
X20986500Y20541100D02*
G75*
G03*
X20986500Y20541100I-127000J0D01*
G01*
%TO.C,C1*%
X31537560Y24526360D02*
X31537560Y30525840D01*
X26785220Y32527360D02*
X27885040Y32527360D01*
X28136500Y24549220D02*
X28136500Y30548700D01*
X27285600Y33126800D02*
X27285600Y31927920D01*
X28139040Y31826320D02*
X31537560Y31826320D01*
X28136500Y31844100D02*
X31535020Y31844100D01*
%TO.C,C29*%
X22352000Y87573000D02*
X22352000Y83509000D01*
X22352000Y83509000D02*
X23876000Y83509000D01*
X23876000Y83509000D02*
X23876000Y87573000D01*
X23876000Y83509000D02*
X23749000Y83509000D01*
X23876000Y87573000D02*
X22352000Y87573000D01*
%TO.C,C52*%
X32258000Y52394000D02*
X30734000Y52394000D01*
X30734000Y48330000D02*
X32258000Y48330000D01*
X32258000Y48330000D02*
X32258000Y52394000D01*
X30734000Y52394000D02*
X30861000Y52394000D01*
X30734000Y52394000D02*
X30734000Y48330000D01*
D14*
%TO.C,M8*%
X34704000Y62057000D02*
X34704000Y63657000D01*
X34704000Y74057000D02*
X34704000Y75657000D01*
X3904000Y86057000D02*
X3904000Y87657000D01*
X14104000Y91007000D02*
X12504000Y91007000D01*
X32104000Y91007000D02*
X30504000Y91007000D01*
X26104000Y46707000D02*
X24504000Y46707000D01*
X3904000Y50057000D02*
X3904000Y51657000D01*
X34704000Y50057000D02*
X34704000Y51657000D01*
X32104000Y46707000D02*
X30504000Y46707000D01*
X3904000Y68057000D02*
X3904000Y69657000D01*
X34704000Y68057000D02*
X34704000Y69657000D01*
X8104000Y46707000D02*
X6504000Y46707000D01*
X8104000Y91007000D02*
X6504000Y91007000D01*
X14104000Y46707000D02*
X12504000Y46707000D01*
X20104000Y46707000D02*
X18504000Y46707000D01*
X34704000Y56057000D02*
X34704000Y57657000D01*
X3904000Y56057000D02*
X3904000Y57657000D01*
X26104000Y91007000D02*
X24504000Y91007000D01*
X3904000Y80057000D02*
X3904000Y81657000D01*
X3904000Y74057000D02*
X3904000Y75657000D01*
X34704000Y80057000D02*
X34704000Y81657000D01*
X20104000Y91007000D02*
X18504000Y91007000D01*
X3904000Y62057000D02*
X3904000Y63657000D01*
X34704000Y86057000D02*
X34704000Y87657000D01*
D11*
%TO.C,C17*%
X17018000Y30312500D02*
X17018000Y31328500D01*
X17018000Y28280500D02*
X17018000Y29296500D01*
X15494000Y31328500D02*
X15494000Y30312500D01*
X17018000Y31328500D02*
X15494000Y31328500D01*
X15494000Y28280500D02*
X17018000Y28280500D01*
X15494000Y29296500D02*
X15494000Y28280500D01*
X17145000Y31455500D02*
G75*
G03*
X17145000Y31455500I-127000J0D01*
G01*
%TO.C,J9*%
X26416000Y107719000D02*
X23876000Y107719000D01*
X26416000Y105179000D02*
X26416000Y107719000D01*
X23876000Y107719000D02*
X23876000Y105179000D01*
X23876000Y105179000D02*
X26416000Y105179000D01*
%TO.C,J10*%
X31496000Y105179000D02*
X31496000Y107719000D01*
X31496000Y107719000D02*
X28956000Y107719000D01*
X28956000Y107719000D02*
X28956000Y105179000D01*
X28956000Y105179000D02*
X31496000Y105179000D01*
%TO.C,J11*%
X21336000Y107719000D02*
X18796000Y107719000D01*
X18796000Y107719000D02*
X18796000Y105179000D01*
X18796000Y105179000D02*
X21336000Y105179000D01*
X21336000Y105179000D02*
X21336000Y107719000D01*
%TO.C,J12*%
X23876000Y105179000D02*
X23876000Y107719000D01*
X21336000Y105179000D02*
X23876000Y105179000D01*
X21336000Y107719000D02*
X21336000Y105179000D01*
X23876000Y107719000D02*
X21336000Y107719000D01*
%TO.C,J13*%
X31496000Y107719000D02*
X31496000Y105179000D01*
X34036000Y105179000D02*
X34036000Y107719000D01*
X31496000Y105179000D02*
X34036000Y105179000D01*
X34036000Y107719000D02*
X31496000Y107719000D01*
%TO.C,J8*%
X26416000Y105179000D02*
X28956000Y105179000D01*
X28956000Y105179000D02*
X28956000Y107719000D01*
X28956000Y107719000D02*
X26416000Y107719000D01*
X26416000Y107719000D02*
X26416000Y105179000D01*
%TO.C,C30*%
X11557000Y52918500D02*
X11557000Y51902500D01*
X13081000Y54950500D02*
X11557000Y54950500D01*
X13081000Y51902500D02*
X13081000Y52918500D01*
X11557000Y54950500D02*
X11557000Y53934500D01*
X13081000Y53934500D02*
X13081000Y54950500D01*
X11557000Y51902500D02*
X13081000Y51902500D01*
X13208000Y55077500D02*
G75*
G03*
X13208000Y55077500I-127000J0D01*
G01*
%TO.C,U6*%
X5807000Y56962000D02*
X5952000Y56962000D01*
X5807000Y52812000D02*
X5952000Y52812000D01*
X10957000Y52812000D02*
X10907000Y52812000D01*
X10957000Y52812000D02*
X10957000Y56962000D01*
X10957000Y56962000D02*
X10812000Y56962000D01*
X10907000Y52812000D02*
X10907000Y51412000D01*
X5807000Y52812000D02*
X5807000Y56962000D01*
%TO.C,C38*%
X69880000Y62645590D02*
X69880000Y64169590D01*
D14*
X67975000Y62645590D02*
X68737000Y62645590D01*
X67975000Y64169590D02*
X68737000Y64169590D01*
D11*
X66832000Y64169590D02*
X66832000Y62645590D01*
D14*
%TO.C,C41*%
X72165000Y64169590D02*
X72927000Y64169590D01*
X72165000Y62645590D02*
X72927000Y62645590D01*
D11*
X74070000Y62645590D02*
X74070000Y64169590D01*
X71022000Y64169590D02*
X71022000Y62645590D01*
%TD*%
D15*
%TO.C,J9*%
X25146000Y106449000D03*
%TD*%
%TO.C,J10*%
X30226000Y106449000D03*
%TD*%
%TO.C,J11*%
X20066000Y106449000D03*
%TD*%
%TO.C,J12*%
X22606000Y106449000D03*
%TD*%
%TO.C,J13*%
X32766000Y106449000D03*
%TD*%
%TO.C,J8*%
X27686000Y106449000D03*
%TD*%
M02*
