%TF.GenerationSoftware,KiCad,Pcbnew,6.0.4-6f826c9f35~116~ubuntu20.04.1*%
%TF.CreationDate,2022-03-30T14:35:40+00:00*%
%TF.ProjectId,SPACEDOS02B_PCB02A,53504143-4544-44f5-9330-32425f504342,REV*%
%TF.SameCoordinates,Original*%
%TF.FileFunction,Copper,L1,Top*%
%TF.FilePolarity,Positive*%
%FSLAX46Y46*%
G04 Gerber Fmt 4.6, Leading zero omitted, Abs format (unit mm)*
G04 Created by KiCad (PCBNEW 6.0.4-6f826c9f35~116~ubuntu20.04.1) date 2022-03-30 14:35:40*
%MOMM*%
%LPD*%
G01*
G04 APERTURE LIST*
%TA.AperFunction,ComponentPad*%
%ADD10R,1.524000X1.524000*%
%TD*%
%TA.AperFunction,ViaPad*%
%ADD11C,0.800000*%
%TD*%
%TA.AperFunction,Conductor*%
%ADD12C,0.600000*%
%TD*%
G04 APERTURE END LIST*
D10*
%TO.P,J21,1*%
%TO.N,Net-(J21-Pad1)*%
X146491000Y-66578000D03*
%TD*%
%TO.P,J23,1*%
%TO.N,Net-(J23-Pad1)*%
X143951000Y-66578000D03*
%TD*%
%TO.P,J24,1*%
%TO.N,/cpu/SD_VDD3*%
X149031000Y-66578000D03*
%TD*%
%TO.P,J25,1*%
%TO.N,Net-(J25-Pad1)*%
X138871000Y-66578000D03*
%TD*%
%TO.P,J26,1*%
%TO.N,Net-(J26-Pad1)*%
X141411000Y-66578000D03*
%TD*%
%TO.P,J27,1*%
%TO.N,GND*%
X151571000Y-66578000D03*
%TD*%
D11*
%TO.N,/cpu/SD_VDD3*%
X142173000Y-71150000D03*
%TD*%
D12*
%TO.N,/cpu/SD_VDD3*%
X142738685Y-71150000D02*
X142173000Y-71150000D01*
X149031000Y-66578000D02*
X149031000Y-67940000D01*
X145821000Y-71150000D02*
X142738685Y-71150000D01*
X149031000Y-67940000D02*
X145821000Y-71150000D01*
%TD*%
%TA.AperFunction,Conductor*%
%TO.N,GND*%
G36*
X156247121Y-63694002D02*
G01*
X156293614Y-63747658D01*
X156305000Y-63800000D01*
X156305000Y-112548000D01*
X156284998Y-112616121D01*
X156231342Y-112662614D01*
X156179000Y-112674000D01*
X119431000Y-112674000D01*
X119362879Y-112653998D01*
X119316386Y-112600342D01*
X119305000Y-112548000D01*
X119305000Y-71150000D01*
X141567318Y-71150000D01*
X141587956Y-71306762D01*
X141648464Y-71452841D01*
X141744718Y-71578282D01*
X141870159Y-71674536D01*
X142016238Y-71735044D01*
X142173000Y-71755682D01*
X142181188Y-71754604D01*
X142321574Y-71736122D01*
X142329762Y-71735044D01*
X142475841Y-71674536D01*
X142482396Y-71669506D01*
X142486077Y-71667381D01*
X142549078Y-71650500D01*
X145750819Y-71650500D01*
X145762704Y-71651828D01*
X145762745Y-71651318D01*
X145771691Y-71652038D01*
X145780447Y-71654019D01*
X145833263Y-71650742D01*
X145841067Y-71650500D01*
X145856940Y-71650500D01*
X145867052Y-71649052D01*
X145877106Y-71648022D01*
X145905097Y-71646285D01*
X145923538Y-71645141D01*
X145931982Y-71642093D01*
X145935694Y-71641324D01*
X145950399Y-71637657D01*
X145954027Y-71636596D01*
X145962918Y-71635323D01*
X146005282Y-71616061D01*
X146014637Y-71612254D01*
X146049943Y-71599509D01*
X146049947Y-71599507D01*
X146058387Y-71596460D01*
X146065635Y-71591165D01*
X146068975Y-71589389D01*
X146082089Y-71581726D01*
X146085261Y-71579697D01*
X146093428Y-71575984D01*
X146100223Y-71570129D01*
X146100226Y-71570127D01*
X146128675Y-71545613D01*
X146136596Y-71539324D01*
X146143402Y-71534352D01*
X146147336Y-71531478D01*
X146158079Y-71520735D01*
X146164926Y-71514377D01*
X146195237Y-71488259D01*
X146202037Y-71482400D01*
X146206920Y-71474866D01*
X146212819Y-71468104D01*
X146212824Y-71468108D01*
X146221800Y-71457014D01*
X149335280Y-68343534D01*
X149344624Y-68336068D01*
X149344292Y-68335678D01*
X149351128Y-68329860D01*
X149358720Y-68325070D01*
X149393756Y-68285399D01*
X149399102Y-68279712D01*
X149410321Y-68268493D01*
X149416450Y-68260316D01*
X149422832Y-68252477D01*
X149447684Y-68224337D01*
X149447685Y-68224336D01*
X149453623Y-68217612D01*
X149457434Y-68209494D01*
X149459506Y-68206341D01*
X149467329Y-68193320D01*
X149469141Y-68190011D01*
X149474527Y-68182824D01*
X149490857Y-68139263D01*
X149494784Y-68129943D01*
X149510737Y-68095964D01*
X149514553Y-68087837D01*
X149515934Y-68078965D01*
X149517042Y-68075342D01*
X149520888Y-68060683D01*
X149521701Y-68056986D01*
X149524852Y-68048580D01*
X149528302Y-68002157D01*
X149529453Y-67992139D01*
X149531500Y-67978991D01*
X149531500Y-67963796D01*
X149531846Y-67954459D01*
X149534811Y-67914556D01*
X149535476Y-67905608D01*
X149533603Y-67896832D01*
X149532992Y-67887875D01*
X149532998Y-67887875D01*
X149531500Y-67873682D01*
X149531500Y-67666500D01*
X149551502Y-67598379D01*
X149605158Y-67551886D01*
X149657500Y-67540500D01*
X149812748Y-67540500D01*
X149818816Y-67539293D01*
X149859061Y-67531288D01*
X149859062Y-67531288D01*
X149871231Y-67528867D01*
X149937552Y-67484552D01*
X149981867Y-67418231D01*
X149993500Y-67359748D01*
X149993500Y-65796252D01*
X149981867Y-65737769D01*
X149937552Y-65671448D01*
X149871231Y-65627133D01*
X149859062Y-65624712D01*
X149859061Y-65624712D01*
X149818816Y-65616707D01*
X149812748Y-65615500D01*
X148249252Y-65615500D01*
X148243184Y-65616707D01*
X148202939Y-65624712D01*
X148202938Y-65624712D01*
X148190769Y-65627133D01*
X148124448Y-65671448D01*
X148080133Y-65737769D01*
X148068500Y-65796252D01*
X148068500Y-67359748D01*
X148080133Y-67418231D01*
X148124448Y-67484552D01*
X148190769Y-67528867D01*
X148202938Y-67531288D01*
X148202939Y-67531288D01*
X148243184Y-67539293D01*
X148249252Y-67540500D01*
X148404500Y-67540500D01*
X148472621Y-67560502D01*
X148519114Y-67614158D01*
X148530500Y-67666500D01*
X148530500Y-67680496D01*
X148510498Y-67748617D01*
X148493595Y-67769591D01*
X145650591Y-70612595D01*
X145588279Y-70646621D01*
X145561496Y-70649500D01*
X142549078Y-70649500D01*
X142486077Y-70632619D01*
X142482396Y-70630494D01*
X142475841Y-70625464D01*
X142329762Y-70564956D01*
X142173000Y-70544318D01*
X142016238Y-70564956D01*
X141870159Y-70625464D01*
X141744718Y-70721718D01*
X141648464Y-70847159D01*
X141587956Y-70993238D01*
X141567318Y-71150000D01*
X119305000Y-71150000D01*
X119305000Y-67359748D01*
X137908500Y-67359748D01*
X137920133Y-67418231D01*
X137964448Y-67484552D01*
X138030769Y-67528867D01*
X138042938Y-67531288D01*
X138042939Y-67531288D01*
X138083184Y-67539293D01*
X138089252Y-67540500D01*
X139652748Y-67540500D01*
X139658816Y-67539293D01*
X139699061Y-67531288D01*
X139699062Y-67531288D01*
X139711231Y-67528867D01*
X139777552Y-67484552D01*
X139821867Y-67418231D01*
X139833500Y-67359748D01*
X140448500Y-67359748D01*
X140460133Y-67418231D01*
X140504448Y-67484552D01*
X140570769Y-67528867D01*
X140582938Y-67531288D01*
X140582939Y-67531288D01*
X140623184Y-67539293D01*
X140629252Y-67540500D01*
X142192748Y-67540500D01*
X142198816Y-67539293D01*
X142239061Y-67531288D01*
X142239062Y-67531288D01*
X142251231Y-67528867D01*
X142317552Y-67484552D01*
X142361867Y-67418231D01*
X142373500Y-67359748D01*
X142988500Y-67359748D01*
X143000133Y-67418231D01*
X143044448Y-67484552D01*
X143110769Y-67528867D01*
X143122938Y-67531288D01*
X143122939Y-67531288D01*
X143163184Y-67539293D01*
X143169252Y-67540500D01*
X144732748Y-67540500D01*
X144738816Y-67539293D01*
X144779061Y-67531288D01*
X144779062Y-67531288D01*
X144791231Y-67528867D01*
X144857552Y-67484552D01*
X144901867Y-67418231D01*
X144913500Y-67359748D01*
X145528500Y-67359748D01*
X145540133Y-67418231D01*
X145584448Y-67484552D01*
X145650769Y-67528867D01*
X145662938Y-67531288D01*
X145662939Y-67531288D01*
X145703184Y-67539293D01*
X145709252Y-67540500D01*
X147272748Y-67540500D01*
X147278816Y-67539293D01*
X147319061Y-67531288D01*
X147319062Y-67531288D01*
X147331231Y-67528867D01*
X147397552Y-67484552D01*
X147441867Y-67418231D01*
X147453500Y-67359748D01*
X147453500Y-65796252D01*
X147441867Y-65737769D01*
X147397552Y-65671448D01*
X147331231Y-65627133D01*
X147319062Y-65624712D01*
X147319061Y-65624712D01*
X147278816Y-65616707D01*
X147272748Y-65615500D01*
X145709252Y-65615500D01*
X145703184Y-65616707D01*
X145662939Y-65624712D01*
X145662938Y-65624712D01*
X145650769Y-65627133D01*
X145584448Y-65671448D01*
X145540133Y-65737769D01*
X145528500Y-65796252D01*
X145528500Y-67359748D01*
X144913500Y-67359748D01*
X144913500Y-65796252D01*
X144901867Y-65737769D01*
X144857552Y-65671448D01*
X144791231Y-65627133D01*
X144779062Y-65624712D01*
X144779061Y-65624712D01*
X144738816Y-65616707D01*
X144732748Y-65615500D01*
X143169252Y-65615500D01*
X143163184Y-65616707D01*
X143122939Y-65624712D01*
X143122938Y-65624712D01*
X143110769Y-65627133D01*
X143044448Y-65671448D01*
X143000133Y-65737769D01*
X142988500Y-65796252D01*
X142988500Y-67359748D01*
X142373500Y-67359748D01*
X142373500Y-65796252D01*
X142361867Y-65737769D01*
X142317552Y-65671448D01*
X142251231Y-65627133D01*
X142239062Y-65624712D01*
X142239061Y-65624712D01*
X142198816Y-65616707D01*
X142192748Y-65615500D01*
X140629252Y-65615500D01*
X140623184Y-65616707D01*
X140582939Y-65624712D01*
X140582938Y-65624712D01*
X140570769Y-65627133D01*
X140504448Y-65671448D01*
X140460133Y-65737769D01*
X140448500Y-65796252D01*
X140448500Y-67359748D01*
X139833500Y-67359748D01*
X139833500Y-65796252D01*
X139821867Y-65737769D01*
X139777552Y-65671448D01*
X139711231Y-65627133D01*
X139699062Y-65624712D01*
X139699061Y-65624712D01*
X139658816Y-65616707D01*
X139652748Y-65615500D01*
X138089252Y-65615500D01*
X138083184Y-65616707D01*
X138042939Y-65624712D01*
X138042938Y-65624712D01*
X138030769Y-65627133D01*
X137964448Y-65671448D01*
X137920133Y-65737769D01*
X137908500Y-65796252D01*
X137908500Y-67359748D01*
X119305000Y-67359748D01*
X119305000Y-63800000D01*
X119325002Y-63731879D01*
X119378658Y-63685386D01*
X119431000Y-63674000D01*
X156179000Y-63674000D01*
X156247121Y-63694002D01*
G37*
%TD.AperFunction*%
%TD*%
M02*
