%TF.GenerationSoftware,KiCad,Pcbnew,6.0.4-6f826c9f35~116~ubuntu20.04.1*%
%TF.CreationDate,2023-08-04T09:46:51+00:00*%
%TF.ProjectId,SPACEDOS02B_PCB01A,53504143-4544-44f5-9330-32425f504342,rev?*%
%TF.SameCoordinates,Original*%
%TF.FileFunction,Soldermask,Bot*%
%TF.FilePolarity,Negative*%
%FSLAX46Y46*%
G04 Gerber Fmt 4.6, Leading zero omitted, Abs format (unit mm)*
G04 Created by KiCad (PCBNEW 6.0.4-6f826c9f35~116~ubuntu20.04.1) date 2023-08-04 09:46:51*
%MOMM*%
%LPD*%
G01*
G04 APERTURE LIST*
G04 Aperture macros list*
%AMRoundRect*
0 Rectangle with rounded corners*
0 $1 Rounding radius*
0 $2 $3 $4 $5 $6 $7 $8 $9 X,Y pos of 4 corners*
0 Add a 4 corners polygon primitive as box body*
4,1,4,$2,$3,$4,$5,$6,$7,$8,$9,$2,$3,0*
0 Add four circle primitives for the rounded corners*
1,1,$1+$1,$2,$3*
1,1,$1+$1,$4,$5*
1,1,$1+$1,$6,$7*
1,1,$1+$1,$8,$9*
0 Add four rect primitives between the rounded corners*
20,1,$1+$1,$2,$3,$4,$5,0*
20,1,$1+$1,$4,$5,$6,$7,0*
20,1,$1+$1,$6,$7,$8,$9,0*
20,1,$1+$1,$8,$9,$2,$3,0*%
G04 Aperture macros list end*
%ADD10C,0.100000*%
%ADD11RoundRect,0.200000X0.762000X-0.762000X0.762000X0.762000X-0.762000X0.762000X-0.762000X-0.762000X0*%
%ADD12C,2.900000*%
%ADD13RoundRect,0.200000X-0.762000X-0.762000X0.762000X-0.762000X0.762000X0.762000X-0.762000X0.762000X0*%
%ADD14C,1.924000*%
%ADD15C,1.900000*%
%ADD16RoundRect,0.200000X0.325000X-0.780000X0.325000X0.780000X-0.325000X0.780000X-0.325000X-0.780000X0*%
%ADD17RoundRect,0.200000X0.780000X0.325000X-0.780000X0.325000X-0.780000X-0.325000X0.780000X-0.325000X0*%
%ADD18RoundRect,0.200000X0.444500X0.698500X-0.444500X0.698500X-0.444500X-0.698500X0.444500X-0.698500X0*%
%ADD19RoundRect,0.200000X-0.698500X0.444500X-0.698500X-0.444500X0.698500X-0.444500X0.698500X0.444500X0*%
%ADD20RoundRect,0.200000X-0.444500X-0.698500X0.444500X-0.698500X0.444500X0.698500X-0.444500X0.698500X0*%
%ADD21RoundRect,0.200000X0.275000X-0.750000X0.275000X0.750000X-0.275000X0.750000X-0.275000X-0.750000X0*%
%ADD22RoundRect,0.200000X-0.750000X-0.275000X0.750000X-0.275000X0.750000X0.275000X-0.750000X0.275000X0*%
%ADD23RoundRect,0.200000X0.300000X-0.775000X0.300000X0.775000X-0.300000X0.775000X-0.300000X-0.775000X0*%
%ADD24RoundRect,0.200000X-0.125000X0.550000X-0.125000X-0.550000X0.125000X-0.550000X0.125000X0.550000X0*%
%ADD25RoundRect,0.200000X0.698500X-0.444500X0.698500X0.444500X-0.698500X0.444500X-0.698500X-0.444500X0*%
%ADD26RoundRect,0.200000X-1.270000X0.635000X-1.270000X-0.635000X1.270000X-0.635000X1.270000X0.635000X0*%
%ADD27RoundRect,0.200000X-0.325000X0.530000X-0.325000X-0.530000X0.325000X-0.530000X0.325000X0.530000X0*%
%ADD28RoundRect,0.200000X0.650000X0.850000X-0.650000X0.850000X-0.650000X-0.850000X0.650000X-0.850000X0*%
%ADD29RoundRect,0.450000X-0.325000X-0.450000X0.325000X-0.450000X0.325000X0.450000X-0.325000X0.450000X0*%
%ADD30RoundRect,0.200000X-0.500000X-0.900000X0.500000X-0.900000X0.500000X0.900000X-0.500000X0.900000X0*%
%ADD31RoundRect,0.200000X0.400000X-0.450000X0.400000X0.450000X-0.400000X0.450000X-0.400000X-0.450000X0*%
%ADD32RoundRect,0.200000X-1.249680X1.275080X-1.249680X-1.275080X1.249680X-1.275080X1.249680X1.275080X0*%
%ADD33RoundRect,0.200000X0.750000X-0.650000X0.750000X0.650000X-0.750000X0.650000X-0.750000X-0.650000X0*%
%ADD34RoundRect,0.200000X1.500000X-0.350000X1.500000X0.350000X-1.500000X0.350000X-1.500000X-0.350000X0*%
%ADD35RoundRect,0.200000X-0.750000X0.650000X-0.750000X-0.650000X0.750000X-0.650000X0.750000X0.650000X0*%
%ADD36RoundRect,0.200000X-1.500000X0.350000X-1.500000X-0.350000X1.500000X-0.350000X1.500000X0.350000X0*%
%ADD37RoundRect,0.200000X1.900000X-0.500000X1.900000X0.500000X-1.900000X0.500000X-1.900000X-0.500000X0*%
%ADD38RoundRect,0.200000X0.500000X-1.900000X0.500000X1.900000X-0.500000X1.900000X-0.500000X-1.900000X0*%
%ADD39RoundRect,0.200000X0.775000X-0.500000X0.775000X0.500000X-0.775000X0.500000X-0.775000X-0.500000X0*%
%ADD40RoundRect,0.200000X0.500000X-0.500000X0.500000X0.500000X-0.500000X0.500000X-0.500000X-0.500000X0*%
%ADD41RoundRect,0.200000X0.500000X-1.150000X0.500000X1.150000X-0.500000X1.150000X-0.500000X-1.150000X0*%
%ADD42RoundRect,0.200000X1.275000X-1.650000X1.275000X1.650000X-1.275000X1.650000X-1.275000X-1.650000X0*%
G04 APERTURE END LIST*
D10*
G36*
X3810000Y23000D02*
G01*
X0Y23000D01*
X0Y110005000D01*
X3810000Y110005000D01*
X3810000Y23000D01*
G37*
X3810000Y23000D02*
X0Y23000D01*
X0Y110005000D01*
X3810000Y110005000D01*
X3810000Y23000D01*
G36*
X38100000Y23000D02*
G01*
X35052000Y23000D01*
X35052000Y110005000D01*
X38100000Y110005000D01*
X38100000Y23000D01*
G37*
X38100000Y23000D02*
X35052000Y23000D01*
X35052000Y110005000D01*
X38100000Y110005000D01*
X38100000Y23000D01*
G36*
X38100000Y107719000D02*
G01*
X0Y107719000D01*
X0Y110005000D01*
X38100000Y110005000D01*
X38100000Y107719000D01*
G37*
X38100000Y107719000D02*
X0Y107719000D01*
X0Y110005000D01*
X38100000Y110005000D01*
X38100000Y107719000D01*
G36*
X38100000Y-231000D02*
G01*
X0Y-231000D01*
X0Y785000D01*
X38100000Y785000D01*
X38100000Y-231000D01*
G37*
X38100000Y-231000D02*
X0Y-231000D01*
X0Y785000D01*
X38100000Y785000D01*
X38100000Y-231000D01*
D11*
%TO.C,J19*%
X7366000Y99083000D03*
X7366000Y101623000D03*
%TD*%
%TO.C,J6*%
X9906000Y101623000D03*
%TD*%
%TO.C,J4*%
X12446000Y101623000D03*
%TD*%
%TO.C,J7*%
X9906000Y99083000D03*
%TD*%
%TO.C,J5*%
X12446000Y99083000D03*
%TD*%
D12*
%TO.C,BT1*%
X19050000Y94479000D03*
X19050000Y26979000D03*
%TD*%
D13*
%TO.C,J3*%
X14986000Y101623000D03*
X14986000Y99083000D03*
%TD*%
%TO.C,J2*%
X17526000Y101623000D03*
X17526000Y99083000D03*
%TD*%
D14*
%TO.C,D1*%
X8596000Y14715000D03*
X8596000Y9715000D03*
%TD*%
D15*
%TO.C,Y1*%
X19468000Y56762000D03*
X14568000Y56762000D03*
%TD*%
D11*
%TO.C,J22*%
X25514300Y50734100D03*
X25514300Y53274100D03*
X22974300Y50734100D03*
X22974300Y53274100D03*
X20434300Y50734100D03*
X20434300Y53274100D03*
%TD*%
D16*
%TO.C,U5*%
X26343300Y40146100D03*
X25393300Y40146100D03*
X24443300Y40146100D03*
X24443300Y42846100D03*
X26343300Y42846100D03*
%TD*%
D17*
%TO.C,U4*%
X13916300Y39779100D03*
X13916300Y38829100D03*
X13916300Y37879100D03*
X11216300Y37879100D03*
X11216300Y39779100D03*
%TD*%
D18*
%TO.C,C8*%
X14026800Y33241100D03*
X12121800Y33241100D03*
%TD*%
%TO.C,C3*%
X17963000Y5301100D03*
X16058000Y5301100D03*
%TD*%
D19*
%TO.C,R6*%
X24758300Y7841100D03*
X24758300Y5936100D03*
%TD*%
D18*
%TO.C,C13*%
X14026800Y35527100D03*
X12121800Y35527100D03*
%TD*%
D20*
%TO.C,C24*%
X10528300Y18095100D03*
X12433300Y18095100D03*
%TD*%
D18*
%TO.C,C4*%
X27178000Y30884000D03*
X25273000Y30884000D03*
%TD*%
D21*
%TO.C,U10*%
X22496300Y58119100D03*
X21696300Y58119100D03*
X20896300Y58119100D03*
X20096300Y58119100D03*
X19296300Y58119100D03*
X18496300Y58119100D03*
X17696300Y58119100D03*
X16896300Y58119100D03*
X16096300Y58119100D03*
X15296300Y58119100D03*
X14496300Y58119100D03*
D22*
X12796300Y59819100D03*
X12796300Y60619100D03*
X12796300Y61419100D03*
X12796300Y62219100D03*
X12796300Y63019100D03*
X12796300Y63819100D03*
X12796300Y64619100D03*
X12796300Y65419100D03*
X12796300Y66219100D03*
X12796300Y67019100D03*
X12796300Y67819100D03*
D21*
X14496300Y69519100D03*
X15296300Y69519100D03*
X16096300Y69519100D03*
X16896300Y69519100D03*
X17696300Y69519100D03*
X18496300Y69519100D03*
X19296300Y69519100D03*
X20096300Y69519100D03*
X20896300Y69519100D03*
X21696300Y69519100D03*
X22496300Y69519100D03*
D22*
X24196300Y67819100D03*
X24196300Y67019100D03*
X24196300Y66219100D03*
X24196300Y65419100D03*
X24196300Y64619100D03*
X24196300Y63819100D03*
X24196300Y63019100D03*
X24196300Y62219100D03*
X24196300Y61419100D03*
X24196300Y60619100D03*
X24196300Y59819100D03*
%TD*%
D18*
%TO.C,R4*%
X14026800Y30955100D03*
X12121800Y30955100D03*
%TD*%
D19*
%TO.C,C10*%
X22218300Y11333600D03*
X22218300Y9428600D03*
%TD*%
%TO.C,C5*%
X22218300Y7841100D03*
X22218300Y5936100D03*
%TD*%
D20*
%TO.C,R3*%
X24440800Y35781100D03*
X26345800Y35781100D03*
%TD*%
%TO.C,R2*%
X20313300Y15461100D03*
X22218300Y15461100D03*
%TD*%
D23*
%TO.C,U2*%
X22345300Y30033100D03*
X21075300Y30033100D03*
X19805300Y30033100D03*
X18535300Y30033100D03*
X18535300Y35433100D03*
X19805300Y35433100D03*
X21075300Y35433100D03*
X22345300Y35433100D03*
%TD*%
D18*
%TO.C,R10*%
X19558000Y24407000D03*
X17653000Y24407000D03*
%TD*%
%TO.C,C18*%
X23234300Y27145100D03*
X21329300Y27145100D03*
%TD*%
D23*
%TO.C,U1*%
X20313300Y7681100D03*
X19043300Y7681100D03*
X17773300Y7681100D03*
X16503300Y7681100D03*
X16503300Y13081100D03*
X17773300Y13081100D03*
X19043300Y13081100D03*
X20313300Y13081100D03*
%TD*%
D20*
%TO.C,C20*%
X25583800Y10127100D03*
X27488800Y10127100D03*
%TD*%
D19*
%TO.C,R7*%
X16213000Y16955000D03*
X16213000Y15050000D03*
%TD*%
D18*
%TO.C,R9*%
X19963000Y18050000D03*
X18058000Y18050000D03*
%TD*%
D20*
%TO.C,C11*%
X21558000Y17800000D03*
X23463000Y17800000D03*
%TD*%
%TO.C,C16*%
X17653000Y22375000D03*
X19558000Y22375000D03*
%TD*%
D18*
%TO.C,R11*%
X23234300Y24859100D03*
X21329300Y24859100D03*
%TD*%
%TO.C,C15*%
X19678300Y20287100D03*
X17773300Y20287100D03*
%TD*%
D19*
%TO.C,R5*%
X28568300Y38003600D03*
X28568300Y36098600D03*
%TD*%
D18*
%TO.C,C12*%
X22154800Y37813100D03*
X20249800Y37813100D03*
%TD*%
D24*
%TO.C,U11*%
X7382000Y77103000D03*
X7882000Y77103000D03*
X8382000Y77103000D03*
X8882000Y77103000D03*
X9382000Y77103000D03*
X9382000Y72803000D03*
X8882000Y72803000D03*
X8382000Y72803000D03*
X7882000Y72803000D03*
X7382000Y72803000D03*
%TD*%
D25*
%TO.C,R13*%
X18154300Y39654600D03*
X18154300Y41559600D03*
%TD*%
D20*
%TO.C,C9*%
X28250800Y40226100D03*
X30155800Y40226100D03*
%TD*%
%TO.C,C14*%
X28250800Y42766100D03*
X30155800Y42766100D03*
%TD*%
D18*
%TO.C,C7*%
X22154800Y40099100D03*
X20249800Y40099100D03*
%TD*%
%TO.C,R12*%
X22535800Y42766100D03*
X20630800Y42766100D03*
%TD*%
D26*
%TO.C,L1*%
X16383000Y76858000D03*
X16383000Y73810000D03*
%TD*%
D18*
%TO.C,C19*%
X18344800Y37813100D03*
X16439800Y37813100D03*
%TD*%
D27*
%TO.C,U8*%
X29784000Y60559000D03*
X30734000Y60559000D03*
X31684000Y60559000D03*
X31684000Y58359000D03*
X29784000Y58359000D03*
%TD*%
D20*
%TO.C,C2*%
X10591800Y20381100D03*
X12496800Y20381100D03*
%TD*%
D28*
%TO.C,D3*%
X20010000Y83335000D03*
X16510000Y83335000D03*
%TD*%
D25*
%TO.C,F2*%
X19050000Y86637000D03*
X19050000Y88542000D03*
%TD*%
D19*
%TO.C,C55*%
X26416000Y86891000D03*
X26416000Y84986000D03*
%TD*%
D29*
%TO.C,L3*%
X27677000Y62761000D03*
X29727000Y62761000D03*
%TD*%
D30*
%TO.C,Y2*%
X9124000Y80033000D03*
X6624000Y80033000D03*
%TD*%
D25*
%TO.C,R22*%
X7988300Y18476100D03*
X7988300Y20381100D03*
%TD*%
%TO.C,R19*%
X7988300Y22286100D03*
X7988300Y24191100D03*
%TD*%
%TO.C,R15*%
X7988300Y26096100D03*
X7988300Y28001100D03*
%TD*%
D20*
%TO.C,C23*%
X10591800Y22413100D03*
X12496800Y22413100D03*
%TD*%
%TO.C,C21*%
X10591800Y24445100D03*
X12496800Y24445100D03*
%TD*%
D25*
%TO.C,C34*%
X16750000Y53820500D03*
X16750000Y55725500D03*
%TD*%
%TO.C,C27*%
X21590000Y77112000D03*
X21590000Y79017000D03*
%TD*%
D20*
%TO.C,R20*%
X11557000Y73429000D03*
X13462000Y73429000D03*
%TD*%
D25*
%TO.C,R23*%
X17780000Y50226100D03*
X17780000Y52131100D03*
%TD*%
%TO.C,C26*%
X23876000Y77239000D03*
X23876000Y79144000D03*
%TD*%
D31*
%TO.C,U3*%
X27486300Y14477100D03*
X25586300Y14477100D03*
X26536300Y16477100D03*
%TD*%
D18*
%TO.C,C43*%
X16002000Y50950000D03*
X14097000Y50950000D03*
%TD*%
D25*
%TO.C,C39*%
X9906000Y62126000D03*
X9906000Y64031000D03*
%TD*%
%TO.C,C28*%
X19558000Y77112000D03*
X19558000Y79017000D03*
%TD*%
D18*
%TO.C,R1*%
X12502800Y42385100D03*
X10597800Y42385100D03*
%TD*%
D20*
%TO.C,C36*%
X23241000Y81811000D03*
X25146000Y81811000D03*
%TD*%
%TO.C,C32*%
X27559000Y65047000D03*
X29464000Y65047000D03*
%TD*%
%TO.C,R21*%
X8001000Y60221000D03*
X9906000Y60221000D03*
%TD*%
D18*
%TO.C,C44*%
X20447000Y71778000D03*
X18542000Y71778000D03*
%TD*%
%TO.C,C31*%
X17081500Y71778000D03*
X15176500Y71778000D03*
%TD*%
%TO.C,C40*%
X20955000Y74064000D03*
X19050000Y74064000D03*
%TD*%
%TO.C,C50*%
X31496000Y53871000D03*
X29591000Y53871000D03*
%TD*%
%TO.C,C42*%
X31496000Y56157000D03*
X29591000Y56157000D03*
%TD*%
D20*
%TO.C,C35*%
X27559000Y67333000D03*
X29464000Y67333000D03*
%TD*%
D25*
%TO.C,C47*%
X11430000Y75842000D03*
X11430000Y77747000D03*
%TD*%
%TO.C,C54*%
X28575000Y48918000D03*
X28575000Y50823000D03*
%TD*%
D18*
%TO.C,R8*%
X16122300Y18800000D03*
X14217300Y18800000D03*
%TD*%
D20*
%TO.C,C6*%
X21558000Y19779100D03*
X23463000Y19779100D03*
%TD*%
D32*
%TO.C,C1*%
X29838300Y30050860D03*
X29838300Y25001340D03*
%TD*%
D33*
%TO.C,C29*%
X23114000Y84191000D03*
D34*
X23114000Y85541000D03*
D33*
X23114000Y86891000D03*
%TD*%
D35*
%TO.C,C52*%
X31496000Y51712000D03*
D36*
X31496000Y50362000D03*
D35*
X31496000Y49012000D03*
%TD*%
D37*
%TO.C,M8*%
X10304000Y90757000D03*
D38*
X4154000Y71857000D03*
X34454000Y71857000D03*
D39*
X5429000Y90757000D03*
D38*
X34454000Y53857000D03*
D40*
X4154000Y90757000D03*
D37*
X22304000Y46957000D03*
D38*
X4154000Y65857000D03*
D40*
X34454000Y90757000D03*
D38*
X34454000Y65857000D03*
X4154000Y59857000D03*
D39*
X5429000Y46957000D03*
D38*
X4154000Y53857000D03*
D41*
X34454000Y89107000D03*
D39*
X33179000Y90757000D03*
D41*
X4154000Y48607000D03*
D37*
X28304000Y90757000D03*
X16304000Y90757000D03*
X28304000Y46957000D03*
D38*
X34454000Y83857000D03*
X4154000Y83857000D03*
D41*
X4154000Y89107000D03*
D38*
X34454000Y77857000D03*
D37*
X10304000Y46957000D03*
D40*
X34454000Y46957000D03*
X4154000Y46957000D03*
D38*
X4154000Y77857000D03*
D37*
X22304000Y90757000D03*
D38*
X34454000Y59857000D03*
D39*
X33179000Y46957000D03*
D37*
X16304000Y46957000D03*
D41*
X34454000Y48607000D03*
%TD*%
D38*
%TO.C,M6*%
X34478000Y31834000D03*
D42*
X33703000Y43584000D03*
D37*
X10328000Y934000D03*
D42*
X33703000Y2084000D03*
D37*
X22328000Y934000D03*
D42*
X4953000Y2084000D03*
D38*
X4178000Y7834000D03*
D37*
X28328000Y934000D03*
X16328000Y44734000D03*
D38*
X4178000Y37834000D03*
X4178000Y25834000D03*
X4178000Y19834000D03*
X4178000Y31834000D03*
X34478000Y25834000D03*
D37*
X22328000Y44734000D03*
D42*
X4953000Y43584000D03*
D37*
X28328000Y44734000D03*
D38*
X34478000Y37834000D03*
X4178000Y13834000D03*
X34478000Y7834000D03*
D37*
X10328000Y44734000D03*
D38*
X34478000Y19834000D03*
X34478000Y13834000D03*
D37*
X16328000Y934000D03*
%TD*%
D19*
%TO.C,C17*%
X16256000Y30757000D03*
X16256000Y28852000D03*
%TD*%
D13*
%TO.C,J9*%
X25146000Y106449000D03*
%TD*%
%TO.C,J10*%
X30226000Y106449000D03*
%TD*%
%TO.C,J11*%
X20066000Y106449000D03*
%TD*%
%TO.C,J12*%
X22606000Y106449000D03*
%TD*%
%TO.C,J13*%
X32766000Y106449000D03*
%TD*%
%TO.C,J8*%
X27686000Y106449000D03*
%TD*%
D19*
%TO.C,C30*%
X12319000Y54379000D03*
X12319000Y52474000D03*
%TD*%
D23*
%TO.C,U6*%
X10287000Y52187000D03*
X9017000Y52187000D03*
X7747000Y52187000D03*
X6477000Y52187000D03*
X6477000Y57587000D03*
X7747000Y57587000D03*
X9017000Y57587000D03*
X10287000Y57587000D03*
%TD*%
D20*
%TO.C,C38*%
X67403500Y63407590D03*
X69308500Y63407590D03*
%TD*%
%TO.C,C41*%
X71593500Y63407590D03*
X73498500Y63407590D03*
%TD*%
M02*
