M48
; DRILL file {KiCad 6.0.4-6f826c9f35~116~ubuntu20.04.1} date Thu Aug  3 19:42:58 2023
; FORMAT={-:-/ absolute / metric / decimal}
; #@! TF.CreationDate,2023-08-03T19:42:58+00:00
; #@! TF.GenerationSoftware,Kicad,Pcbnew,6.0.4-6f826c9f35~116~ubuntu20.04.1
; #@! TF.FileFunction,Plated,1,2,PTH
FMAT,2
METRIC
; #@! TA.AperFunction,Plated,PTH,ViaDrill
T1C0.400
; #@! TA.AperFunction,Plated,PTH,ComponentDrill
T2C0.762
; #@! TA.AperFunction,Plated,PTH,ComponentDrill
T3C0.800
; #@! TA.AperFunction,Plated,PTH,ComponentDrill
T4C0.889
; #@! TA.AperFunction,Plated,PTH,ComponentDrill
T5C1.600
%
G90
G05
T1
X5.08Y101.877
X5.08Y100.099
X5.08Y98.067
X5.842Y10.183
X5.842Y7.643
X6.096Y27.201
X6.096Y25.677
X6.096Y23.645
X6.096Y22.375
X6.096Y21.105
X6.096Y19.835
X6.096Y18.311
X6.35Y49.299
X6.35Y6.119
X6.604Y84.605
X6.604Y82.319
X6.604Y14.755
X6.604Y11.961
X6.858Y87.145
X6.858Y16.025
X7.366Y71.143
X7.366Y69.111
X7.366Y5.103
X7.48Y13.269
X7.62Y50.315
X7.874Y17.041
X7.988Y37.526
X8.128Y85.875
X8.382Y82.319
X8.382Y67.333
X8.382Y63.015
X8.382Y7.897
X8.522Y38.811
X8.623Y40.066
X8.623Y36.256
X8.636Y3.833
X9.398Y95.527
X9.652Y89.431
X9.652Y50.315
X9.652Y7.897
X9.893Y36.256
X9.893Y28.636
X9.893Y27.366
X9.906Y83.843
X9.906Y6.627
X10.16Y96.289
X10.16Y2.817
X10.213Y11.8
X10.414Y71.143
X10.414Y68.603
X10.414Y13.993
X10.528Y34.986
X10.528Y33.716
X10.528Y32.446
X10.528Y31.176
X10.528Y29.906
X10.528Y26.096
X10.668Y81.049
X10.84Y40.897
X10.922Y88.161
X10.922Y15.263
X10.922Y7.897
X10.922Y5.357
X11.176Y27.709
X11.43Y74.953
X11.43Y63.819
X11.43Y57.681
X11.43Y16.533
X11.684Y95.019
X11.684Y92.987
X11.684Y50.315
X11.684Y13.993
X11.938Y26.185
X11.963Y11.8
X12.008Y38.854
X12.052Y40.955
X12.192Y86.891
X12.192Y7.897
X12.353Y79.69
X12.446Y89.685
X12.7Y27.455
X12.7Y5.103
X12.954Y13.993
X12.972Y80.476
X13.068Y2.601
X13.081Y10.818
X13.208Y26.096
X13.213Y11.8
X13.462Y7.897
X13.576Y40.955
X13.582Y28.923
X13.97Y27.455
X13.97Y80.795
X14.084Y24.826
X14.224Y55.903
X14.224Y52.855
X14.224Y6.373
X14.224Y5.103
X14.338Y43.241
X14.338Y10.856
X14.338Y2.601
X14.478Y67.079
X14.592Y40.955
X14.598Y12.286
X14.732Y65.047
X14.732Y60.475
X14.732Y7.897
X15.494Y61.237
X15.494Y2.563
X15.608Y42.987
X15.608Y41.717
X15.608Y22.286
X15.608Y21.016
X15.748Y67.841
X15.868Y38.956
X15.888Y10.381
X16.002Y49.553
X16.002Y27.455
X16.002Y26.439
X16.116Y23.429
X16.256Y65.047
X16.256Y62.507
X16.503Y39.591
X16.624Y43.749
X16.668Y34.511
X16.764Y2.563
X17.018Y27.455
X17.018Y26.439
X17.138Y10.381
X17.386Y33.489
X17.78Y92.225
X17.78Y89.939
X17.78Y85.875
X17.78Y80.795
X17.78Y78.763
X18.034Y2.563
X18.288Y66.571
X18.288Y60.221
X18.408Y33.279
X18.408Y10.381
X18.542Y64.285
X18.796Y75.715
X18.796Y62.761
X19.17Y5.047
X19.304Y66.317
X19.431Y36.472
X19.558Y102.131
X19.558Y100.607
X19.558Y98.575
X19.812Y31.519
X20.053Y2.601
X20.066Y75.715
X20.066Y67.079
X20.186Y38.829
X20.307Y54.798
X20.313Y10.381
X20.44Y5.047
X21.082Y87.653
X21.196Y22.921
X21.196Y21.651
X21.336Y85.367
X21.336Y75.715
X21.456Y33.495
X21.59Y67.587
X21.844Y64.539
X21.958Y2.601
X22.212Y62.037
X22.218Y12.921
X22.72Y60.513
X22.72Y55.941
X23.228Y42.766
X23.228Y22.921
X23.228Y21.651
X23.736Y14.793
X23.863Y34.351
X23.863Y31.176
X23.876Y2.601
X23.996Y9.365
X24.123Y38.956
X24.123Y37.686
X24.123Y12.286
X24.123Y10.729
X24.244Y30.033
X24.371Y52.004
X24.498Y32.446
X24.498Y26.731
X24.498Y25.461
X24.498Y24.191
X24.498Y22.921
X24.498Y21.651
X24.713Y20.3
X24.713Y19.111
X24.713Y17.841
X25.133Y2.601
X25.4Y55.395
X25.654Y59.819
X25.768Y19.111
X25.768Y17.841
X25.908Y63.015
X25.908Y57.173
X26.028Y28.923
X26.403Y33.716
X26.403Y3.236
X26.67Y37.615
X27.033Y59.096
X27.038Y17.841
X27.673Y34.351
X27.673Y26.096
X27.673Y24.826
X27.673Y23.556
X27.673Y22.286
X27.673Y4.506
X28.194Y56.411
X28.194Y54.633
X28.308Y27.366
X28.308Y21.016
X28.308Y7.681
X28.308Y5.776
X28.448Y88.415
X28.448Y60.983
X28.816Y34.097
X28.816Y32.573
X28.943Y14.031
X28.943Y12.761
X28.943Y10.856
X28.943Y8.951
X29.21Y52.347
X29.464Y72.667
X29.578Y28.001
X29.578Y19.746
X30.213Y37.526
X30.213Y18.476
X30.213Y17.206
X30.213Y15.301
X30.226Y88.415
X30.226Y74.953
X30.226Y38.631
X30.48Y86.637
X30.48Y84.351
X30.734Y76.223
X30.734Y68.857
X30.848Y28.001
X31.115Y36.472
X31.242Y79.017
X31.242Y70.381
X31.496Y77.747
X31.75Y67.333
X31.75Y65.555
X31.75Y63.015
X32.118Y26.731
X32.258Y68.857
X32.372Y33.081
X32.385Y28.344
X32.639Y31.392
X32.639Y29.868
X32.766Y104.671
X32.766Y103.401
X32.766Y102.131
X33.896Y40.701
X33.896Y39.177
X33.896Y37.399
X33.896Y35.875
X33.896Y34.351
T2
X8.596Y14.715
X8.596Y9.715
T3
X14.568Y56.762
X19.468Y56.762
T4
X7.366Y101.623
X7.366Y99.083
X9.906Y101.623
X9.906Y99.083
X12.446Y101.623
X12.446Y99.083
X14.986Y101.623
X14.986Y99.083
X17.526Y101.623
X17.526Y99.083
X20.066Y106.449
X22.606Y106.449
X25.146Y106.449
X27.686Y106.449
X30.226Y106.449
X32.766Y106.449
T5
X19.05Y94.479
X19.05Y26.979
T0
M30
