%TF.GenerationSoftware,KiCad,Pcbnew,6.0.4-6f826c9f35~116~ubuntu20.04.1*%
%TF.CreationDate,2023-08-03T19:42:58+00:00*%
%TF.ProjectId,SPACEDOS02B_PCB01A,53504143-4544-44f5-9330-32425f504342,rev?*%
%TF.SameCoordinates,Original*%
%TF.FileFunction,Copper,L1,Top*%
%TF.FilePolarity,Positive*%
%FSLAX46Y46*%
G04 Gerber Fmt 4.6, Leading zero omitted, Abs format (unit mm)*
G04 Created by KiCad (PCBNEW 6.0.4-6f826c9f35~116~ubuntu20.04.1) date 2023-08-03 19:42:58*
%MOMM*%
%LPD*%
G01*
G04 APERTURE LIST*
G04 Aperture macros list*
%AMRoundRect*
0 Rectangle with rounded corners*
0 $1 Rounding radius*
0 $2 $3 $4 $5 $6 $7 $8 $9 X,Y pos of 4 corners*
0 Add a 4 corners polygon primitive as box body*
4,1,4,$2,$3,$4,$5,$6,$7,$8,$9,$2,$3,0*
0 Add four circle primitives for the rounded corners*
1,1,$1+$1,$2,$3*
1,1,$1+$1,$4,$5*
1,1,$1+$1,$6,$7*
1,1,$1+$1,$8,$9*
0 Add four rect primitives between the rounded corners*
20,1,$1+$1,$2,$3,$4,$5,0*
20,1,$1+$1,$4,$5,$6,$7,0*
20,1,$1+$1,$6,$7,$8,$9,0*
20,1,$1+$1,$8,$9,$2,$3,0*%
G04 Aperture macros list end*
%TA.AperFunction,ComponentPad*%
%ADD10R,1.524000X1.524000*%
%TD*%
%TA.AperFunction,ComponentPad*%
%ADD11C,2.500000*%
%TD*%
%TA.AperFunction,ComponentPad*%
%ADD12C,1.524000*%
%TD*%
%TA.AperFunction,SMDPad,CuDef*%
%ADD13RoundRect,0.150000X-0.700000X0.150000X-0.700000X-0.150000X0.700000X-0.150000X0.700000X0.150000X0*%
%TD*%
%TA.AperFunction,SMDPad,CuDef*%
%ADD14RoundRect,0.250000X-1.100000X0.250000X-1.100000X-0.250000X1.100000X-0.250000X1.100000X0.250000X0*%
%TD*%
%TA.AperFunction,SMDPad,CuDef*%
%ADD15R,1.060000X0.650000*%
%TD*%
%TA.AperFunction,ComponentPad*%
%ADD16C,1.500000*%
%TD*%
%TA.AperFunction,ViaPad*%
%ADD17C,0.800000*%
%TD*%
%TA.AperFunction,Conductor*%
%ADD18C,0.250000*%
%TD*%
%TA.AperFunction,Conductor*%
%ADD19C,0.400000*%
%TD*%
%TA.AperFunction,Conductor*%
%ADD20C,0.800000*%
%TD*%
%TA.AperFunction,Conductor*%
%ADD21C,0.600000*%
%TD*%
G04 APERTURE END LIST*
D10*
%TO.P,J19,1*%
%TO.N,/cpu/RST#*%
X7366000Y99083000D03*
%TO.P,J19,2*%
X7366000Y101623000D03*
%TD*%
%TO.P,J6,1*%
%TO.N,/cpu/RX0*%
X9906000Y101623000D03*
%TD*%
%TO.P,J4,1*%
%TO.N,/cpu/PC4*%
X12446000Y101623000D03*
%TD*%
%TO.P,J7,1*%
%TO.N,/cpu/TX0*%
X9906000Y99083000D03*
%TD*%
%TO.P,J5,1*%
%TO.N,/cpu/PC3*%
X12446000Y99083000D03*
%TD*%
D11*
%TO.P,BT1,1,+*%
%TO.N,/power/3*%
X19050000Y94479000D03*
%TO.P,BT1,2,-*%
%TO.N,GND*%
X19050000Y26979000D03*
%TD*%
D10*
%TO.P,J3,1*%
%TO.N,/power/3*%
X14986000Y101623000D03*
%TO.P,J3,2*%
X14986000Y99083000D03*
%TD*%
%TO.P,J2,1*%
%TO.N,GND*%
X17526000Y101623000D03*
%TO.P,J2,2*%
X17526000Y99083000D03*
%TD*%
D12*
%TO.P,D1,1,K*%
%TO.N,/K*%
X8596000Y14715000D03*
%TO.P,D1,2,A*%
%TO.N,/A*%
X8596000Y9715000D03*
%TD*%
D13*
%TO.P,J14,1*%
%TO.N,UAV_5V*%
X8504800Y62990400D03*
%TO.P,J14,2*%
%TO.N,/cpu/RX0*%
X8504800Y61740400D03*
%TO.P,J14,3*%
%TO.N,/cpu/TX0*%
X8504800Y60490400D03*
%TO.P,J14,4*%
%TO.N,unconnected-(J14-Pad4)*%
X8504800Y59240400D03*
%TO.P,J14,5*%
%TO.N,unconnected-(J14-Pad5)*%
X8504800Y57990400D03*
%TO.P,J14,6*%
%TO.N,GND*%
X8504800Y56740400D03*
D14*
%TO.P,J14,MP*%
X5304800Y64840400D03*
X5304800Y54890400D03*
%TD*%
D15*
%TO.P,U7,1,VIN*%
%TO.N,UAV_5V*%
X29800000Y123650000D03*
%TO.P,U7,2,GND*%
%TO.N,GND*%
X29800000Y122700000D03*
%TO.P,U7,3,EN*%
%TO.N,UAV_5V*%
X29800000Y121750000D03*
%TO.P,U7,4,NC*%
%TO.N,unconnected-(U7-Pad4)*%
X32000000Y121750000D03*
%TO.P,U7,5,VOUT*%
%TO.N,/power/3*%
X32000000Y123650000D03*
%TD*%
D16*
%TO.P,Y1,1,1*%
%TO.N,Net-(C38-Pad1)*%
X19468000Y56762000D03*
%TO.P,Y1,2,2*%
%TO.N,Net-(C41-Pad1)*%
X14568000Y56762000D03*
%TD*%
D13*
%TO.P,J1,1*%
%TO.N,/cpu/TIMEPULSE*%
X6828400Y78312000D03*
%TO.P,J1,2*%
%TO.N,/cpu/EXTINT*%
X6828400Y77062000D03*
%TO.P,J1,3*%
%TO.N,/cpu/GEO_STAT*%
X6828400Y75812000D03*
%TO.P,J1,4*%
%TO.N,/cpu/PC1*%
X6828400Y74562000D03*
%TO.P,J1,5*%
%TO.N,/cpu/PC0*%
X6828400Y73312000D03*
%TO.P,J1,6*%
%TO.N,/cpu/TX1*%
X6828400Y72062000D03*
%TO.P,J1,7*%
%TO.N,/cpu/RX1*%
X6828400Y70812000D03*
%TO.P,J1,8*%
%TO.N,GND*%
X6828400Y69562000D03*
D14*
%TO.P,J1,MP*%
X3628400Y80162000D03*
X3628400Y67712000D03*
%TD*%
D10*
%TO.P,J9,1*%
%TO.N,/cpu/PB5*%
X25146000Y106449000D03*
%TD*%
%TO.P,J10,1*%
%TO.N,/cpu/SD_VDD*%
X30226000Y106449000D03*
%TD*%
%TO.P,J11,1*%
%TO.N,/cpu/PB7*%
X20066000Y106449000D03*
%TD*%
%TO.P,J12,1*%
%TO.N,/cpu/PB6*%
X22606000Y106449000D03*
%TD*%
%TO.P,J13,1*%
%TO.N,GND*%
X32766000Y106449000D03*
%TD*%
%TO.P,J8,1*%
%TO.N,/cpu/PB4*%
X27686000Y106449000D03*
%TD*%
D17*
%TO.N,GND*%
X8522339Y38810523D03*
X10839993Y40897407D03*
X22720300Y60513100D03*
X13208000Y26096100D03*
X5842000Y10183000D03*
X5842000Y7643000D03*
X6350000Y6119000D03*
X7366000Y5103000D03*
X20307300Y54798100D03*
X13970000Y27455000D03*
X16002000Y26439000D03*
X16624300Y43749100D03*
X9893300Y28636100D03*
X13576300Y40955100D03*
X15608300Y22286100D03*
X14592300Y40955100D03*
X7988300Y37526100D03*
X9893300Y27366100D03*
X16116300Y23429100D03*
X10528300Y29906100D03*
X8623300Y36256100D03*
X9893300Y36256100D03*
X7480300Y13269100D03*
X17018000Y27455000D03*
X17018000Y26439000D03*
X15608300Y42987100D03*
X10528300Y32446100D03*
X8623300Y40066100D03*
X10528300Y33716100D03*
X10528300Y31176100D03*
X10528300Y26096100D03*
X15608300Y41717100D03*
X12052300Y40955100D03*
X16002000Y27455000D03*
X14084300Y24826100D03*
X15608300Y21016100D03*
X10528300Y34986100D03*
X6604000Y11961000D03*
X27673300Y34351100D03*
X24713000Y20300000D03*
X14338300Y10856100D03*
X13081000Y10818000D03*
X12192000Y7897000D03*
X14224000Y6373000D03*
X14338300Y2601100D03*
X24244300Y30033100D03*
X24498300Y22921100D03*
X24498300Y32446100D03*
X11963000Y11800000D03*
X25133300Y2601100D03*
X10213000Y11800000D03*
X21196300Y22921100D03*
X21958300Y2601100D03*
X28943300Y10856100D03*
X13213000Y11800000D03*
X28308300Y7681100D03*
X13068300Y2601100D03*
X26403300Y3236100D03*
X27673300Y4506100D03*
X26403300Y33716100D03*
X28816300Y34097100D03*
X23863300Y31176100D03*
X21196300Y21651100D03*
X23863300Y34351100D03*
X23228300Y22921100D03*
X24498300Y21651100D03*
X23228300Y21651100D03*
X24498300Y26731100D03*
X25768300Y19111100D03*
X24498300Y25461100D03*
X24498300Y24191100D03*
X9652000Y7897000D03*
X13462000Y7897000D03*
X20053300Y2601100D03*
X28308300Y5776100D03*
X28816300Y32573100D03*
X28943300Y8951100D03*
X10922000Y7897000D03*
X29578300Y19746100D03*
X29578300Y28001100D03*
X27673300Y26096100D03*
X28308300Y21016100D03*
X33896300Y39177100D03*
X30848300Y28001100D03*
X33896300Y34351100D03*
X27673300Y22286100D03*
X32385000Y28344000D03*
X20186300Y38829100D03*
X32118300Y26731100D03*
X33896300Y35875100D03*
X24123300Y38956100D03*
X32639000Y31392000D03*
X20440300Y5047100D03*
X24713000Y19111100D03*
X33896300Y37399100D03*
X24713000Y17841100D03*
X27038300Y17841100D03*
X18408300Y33279100D03*
X28943300Y14031100D03*
X23996300Y9365100D03*
X24123300Y37686100D03*
X16503300Y39591100D03*
X17386486Y33489286D03*
X28308300Y27366100D03*
X21456300Y33495100D03*
X27673300Y24826100D03*
X30213300Y18476100D03*
X25768300Y17841100D03*
X28943300Y12761100D03*
X30213300Y15301100D03*
X16668300Y34511100D03*
X30213300Y17206100D03*
X27673300Y23556100D03*
X15868300Y38956100D03*
X33896300Y40701100D03*
X32639000Y29868000D03*
X32372300Y33081100D03*
X19170300Y5047100D03*
X15887735Y10380557D03*
X14598300Y12286100D03*
X30213300Y37526100D03*
X20313300Y10381100D03*
X10160000Y2817000D03*
X17138300Y10381100D03*
X18408300Y10381100D03*
X24123300Y10729100D03*
X24123300Y12286100D03*
X23736300Y14793100D03*
X22218300Y12921100D03*
X11938000Y26185000D03*
X14732000Y7897000D03*
X14224000Y5103000D03*
X8382000Y7897000D03*
X9906000Y6627000D03*
X10922000Y5357000D03*
X12700000Y5103000D03*
X15494000Y2563000D03*
X16764000Y2563000D03*
X18034000Y2563000D03*
X8636000Y3833000D03*
X10414000Y13993000D03*
X11684000Y13993000D03*
X12954000Y13993000D03*
X6604000Y14755000D03*
X6858000Y16025000D03*
X7874000Y17041000D03*
X11430000Y16533000D03*
X10922000Y15263000D03*
X6096000Y18311000D03*
X6096000Y19835000D03*
X6096000Y21105000D03*
X6096000Y22375000D03*
X6096000Y23645000D03*
X6096000Y25677000D03*
X6096000Y27201000D03*
X11176000Y27709000D03*
X12700000Y27455000D03*
X23876000Y2601100D03*
X19558000Y98575000D03*
X29210000Y52347000D03*
X9652000Y50315000D03*
X32766000Y102131000D03*
X11684000Y50315000D03*
X17780000Y80795000D03*
X10668000Y81049000D03*
X32766000Y103401000D03*
X21336000Y85367000D03*
X20066000Y67079000D03*
X32766000Y104671000D03*
X16002000Y49553000D03*
X30226000Y74953000D03*
X31750000Y63015000D03*
X30734000Y76223000D03*
X26670000Y37615000D03*
X7366000Y69111000D03*
X30480000Y86637000D03*
X17780000Y89939000D03*
X17780000Y85875000D03*
X31242000Y70381000D03*
X19558000Y100607000D03*
X28194000Y56411000D03*
X9652000Y89431000D03*
X30226000Y38631000D03*
X5080000Y101877000D03*
X11684000Y95019000D03*
X30480000Y84351000D03*
X31750000Y67333000D03*
X7620000Y50315000D03*
X10922000Y88161000D03*
X28194000Y54633000D03*
X30734000Y68857000D03*
X11684000Y92987000D03*
X20066000Y75715000D03*
X10414000Y68603000D03*
X12446000Y89685000D03*
X30226000Y88415000D03*
X21590000Y67587000D03*
X9906000Y83843000D03*
X19304000Y66317000D03*
X10160000Y96289000D03*
X17780000Y92225000D03*
X28448000Y88415000D03*
X31496000Y77747000D03*
X21082000Y87653000D03*
X31750000Y65555000D03*
X32258000Y68857000D03*
X21336000Y75715000D03*
X25908000Y57173000D03*
X18288000Y66571000D03*
X18796000Y75715000D03*
X10414000Y71143000D03*
X16256000Y62507000D03*
X6604000Y82319000D03*
X9398000Y95527000D03*
X8128000Y85875000D03*
X8382000Y82319000D03*
X18288000Y60221000D03*
X19558000Y102131000D03*
X6858000Y87145000D03*
X6350000Y49299000D03*
X31242000Y79017000D03*
X11430000Y57681000D03*
X29464000Y72667000D03*
X14732000Y65047000D03*
X12192000Y86891000D03*
X6604000Y84605000D03*
X16256000Y65047000D03*
X5080000Y100099000D03*
X17780000Y78763000D03*
X5080000Y98067000D03*
X28448000Y60983000D03*
%TO.N,Net-(R1-Pad2)*%
X12007568Y38854203D03*
X19431000Y36472000D03*
%TO.N,/cpu/RST#*%
X14224000Y52855000D03*
X12353395Y79689929D03*
%TO.N,/cpu/PC0*%
X8382000Y63015000D03*
X8382000Y67333000D03*
%TO.N,/cpu/PB5*%
X25400000Y55395000D03*
%TO.N,/cpu/PB7*%
X21844000Y64539000D03*
%TO.N,/cpu/PB6*%
X22720300Y55941100D03*
X24371300Y52004100D03*
%TO.N,/cpu/RX0*%
X15494000Y61237000D03*
X13970002Y80795000D03*
%TO.N,/cpu/TX0*%
X14732000Y60475000D03*
X12972133Y80475541D03*
%TO.N,+3V3*%
X27033000Y59096004D03*
X11430000Y63819100D03*
X11430000Y74953000D03*
%TO.N,PA1*%
X19812000Y31519000D03*
X18542002Y64285000D03*
%TO.N,PA0*%
X14338300Y43241100D03*
X18796000Y62761000D03*
%TO.N,PB0*%
X22212300Y62037100D03*
X23228300Y42766100D03*
%TO.N,/cpu/PB4*%
X25654000Y59819100D03*
%TO.N,/cpu/PC4*%
X15748000Y67841000D03*
%TO.N,/cpu/PC3*%
X14478000Y67079000D03*
%TO.N,POWER_ANALOG_3V3*%
X13582300Y28923100D03*
X26028300Y28923100D03*
X31115000Y36472000D03*
%TO.N,/cpu/RX1*%
X14224000Y55903000D03*
X7366000Y71143000D03*
%TO.N,Net-(U10-Pad41)*%
X25908000Y63015000D03*
%TD*%
D18*
%TO.N,GND*%
X-72476700Y206822100D02*
X-72222700Y207076100D01*
X-73746700Y206822100D02*
X-72476700Y206822100D01*
X-74762700Y178374100D02*
X-76032700Y178374100D01*
D19*
X-78534700Y207838100D02*
X-78026700Y207838100D01*
X-75778700Y212918100D02*
X-75016700Y212156100D01*
X-78699700Y212918100D02*
X-75778700Y212918100D01*
X-78026700Y207838100D02*
X-76794700Y206606100D01*
X-78534700Y207534472D02*
X-77816514Y206816286D01*
D18*
X-78064700Y183708100D02*
X-76794700Y183708100D01*
D19*
X-71079700Y212283100D02*
X-71079700Y211013100D01*
X-78534700Y207838100D02*
X-78534700Y207534472D01*
%TO.N,Net-(R1-Pad2)*%
X-75772000Y209799000D02*
X-80813229Y209799000D01*
X-82795433Y211781204D02*
X-83195432Y212181203D01*
X-80813229Y209799000D02*
X-82795433Y211781204D01*
%TO.N,/cpu/RST#*%
X-82849605Y252451244D02*
X-82849605Y253016929D01*
X-82849605Y228052605D02*
X-82849605Y252451244D01*
X-80979000Y226182000D02*
X-82849605Y228052605D01*
%TO.N,/cpu/PC0*%
X-86821000Y240660000D02*
X-86821000Y236342000D01*
%TO.N,/cpu/PB5*%
X-70057000Y279776000D02*
X-71082689Y278750311D01*
X-71082689Y278750311D02*
X-71082689Y230001689D01*
X-71082689Y230001689D02*
X-69803000Y228722000D01*
%TO.N,/cpu/PB7*%
X-72282709Y238942291D02*
X-72282709Y275772291D01*
X-75137000Y279776000D02*
X-75137000Y278614000D01*
X-73359000Y237866000D02*
X-72282709Y238942291D01*
X-75137000Y278614000D02*
X-72295291Y275772291D01*
X-72295291Y275772291D02*
X-72282709Y275772291D01*
%TO.N,/cpu/PB6*%
X-70831700Y225331100D02*
X-70831700Y227617100D01*
X-70831700Y227617100D02*
X-72082701Y228868101D01*
X-72082701Y228868101D02*
X-72482700Y229268100D01*
X-71682699Y278861699D02*
X-72597000Y279776000D01*
X-71682699Y230068101D02*
X-71682699Y278861699D01*
X-72482700Y229268100D02*
X-71682699Y230068101D01*
%TO.N,/cpu/RX0*%
X-81230858Y253554175D02*
X-81232998Y253556315D01*
X-81648990Y236503990D02*
X-81648990Y252185000D01*
X-79709000Y234564000D02*
X-81648990Y236503990D01*
X-81232998Y253556315D02*
X-81232998Y254122000D01*
X-81230858Y252603132D02*
X-81230858Y253554175D01*
X-81648990Y252185000D02*
X-81230858Y252603132D01*
%TO.N,/cpu/TX0*%
X-81830868Y253402542D02*
X-82230867Y253802541D01*
X-82249000Y252433532D02*
X-81830868Y252851664D01*
X-81830868Y252851664D02*
X-81830868Y253402542D01*
X-82248999Y235579999D02*
X-82249000Y252433532D01*
X-82230867Y253681863D02*
X-82230867Y253802541D01*
X-80471000Y233802000D02*
X-82248999Y235579999D01*
D20*
%TO.N,+3V3*%
X-81620700Y202250100D02*
X-69174700Y202250100D01*
X-63688001Y227941005D02*
X-68170000Y232423004D01*
D21*
X-83773000Y248280000D02*
X-83773000Y237146100D01*
D20*
X-63688001Y210198999D02*
X-63688001Y227941005D01*
X-64088000Y209799000D02*
X-63688001Y210198999D01*
D19*
%TO.N,PA1*%
X-75391000Y206361802D02*
X-74095699Y207657103D01*
X-74095699Y207657103D02*
X-74095699Y235046701D01*
X-74095699Y235046701D02*
X-76260999Y237212001D01*
X-76260999Y237212001D02*
X-76660998Y237612000D01*
X-75391000Y204846000D02*
X-75391000Y206361802D01*
%TO.N,PA0*%
X-80864700Y216568100D02*
X-80051998Y217380802D01*
X-80051998Y232443002D02*
X-76407000Y236088000D01*
X-80051998Y229064998D02*
X-80051998Y232443002D01*
X-80051998Y229064998D02*
X-80051998Y227540998D01*
X-80051998Y231182174D02*
X-80051998Y229064998D01*
X-80051998Y217380802D02*
X-80051998Y227540998D01*
%TO.N,PB0*%
X-72990700Y235364100D02*
X-73406690Y234948110D01*
X-73406690Y234948110D02*
X-73406690Y217525090D01*
X-73406690Y217525090D02*
X-71974700Y216093100D01*
%TO.N,/cpu/SD_VDD*%
X-69882669Y236929669D02*
X-69882669Y274870331D01*
X-69882669Y274870331D02*
X-68787000Y275966000D01*
X-69295000Y236342000D02*
X-69882669Y236929669D01*
X-68787000Y275966000D02*
X-64977000Y279776000D01*
%TO.N,/cpu/PB4*%
X-69549000Y233146100D02*
X-70482679Y234079779D01*
X-70482679Y234079779D02*
X-70482679Y276810321D01*
X-68787000Y278506000D02*
X-67517000Y279776000D01*
X-70482679Y276810321D02*
X-68787000Y278506000D01*
%TO.N,/cpu/PC4*%
X-79055001Y251981999D02*
X-79055001Y268788001D01*
X-79455000Y241168000D02*
X-79055001Y241567999D01*
X-79055001Y268788001D02*
X-81379001Y271112001D01*
X-79055001Y241567999D02*
X-79055001Y251981999D01*
X-81379001Y273572001D02*
X-81594999Y273787999D01*
X-81594999Y273787999D02*
X-82757000Y274950000D01*
X-81379001Y271112001D02*
X-81379001Y273572001D01*
%TO.N,/cpu/PC3*%
X-80325001Y255283999D02*
X-80325001Y256553999D01*
X-80325001Y256553999D02*
X-80325001Y258585999D01*
X-80325001Y258585999D02*
X-80325001Y268816001D01*
X-80325001Y240805999D02*
X-80325001Y255283999D01*
X-82757000Y271248000D02*
X-82757000Y272410000D01*
X-80725000Y240406000D02*
X-80325001Y240805999D01*
X-80325001Y268816001D02*
X-82757000Y271248000D01*
%TD*%
M02*
