  0
SECTION
  2
HEADER
  9
$ANGBASE
  50
0.0
  9
$ANGDIR
  70
1
  9
$MEASUREMENT
  70
0
  0
ENDSEC
  0
SECTION
  2
TABLES
  0
TABLE
  2
LTYPE
  70
4
  0
LTYPE
  5
40F
  2
CONTINUOUS
  70
0
  3
Solid line
  72
65
  73
0
  40
0.0
  0
LTYPE
  5
410
  2
DASHDOT
 70
0
  3
Dash Dot ____ _ ____ _
 72
65
 73
4
 40
2.0
 49
1.25
 49
-0.25
 49
0.25
 49
-0.25
  0
LTYPE
  5
411
  2
DASHED
 70
0
  3
Dashed __ __ __ __ __
 72
65
 73
2
 40
0.75
 49
0.5
 49
-0.25
  0
LTYPE
  5
43B
  2
DOTTED
 70
0
  3
Dotted .  .  .  .
 72
65
 73
2
 40
0.2
 49
0.0
 49
-0.2
  0
ENDTAB
  0
TABLE
  2
STYLE
  70
4
  0
STYLE
  2
KICAD
  70
0
  40
0
  41
1
  42
1
  50
0
  71
0
  3
isocp.shx
  0
STYLE
  2
KICADB
  70
0
  40
0
  41
1
  42
1
  50
0
  71
0
  3
isocp.shx
  0
STYLE
  2
KICADI
  70
0
  40
0
  41
1
  42
1
  50
15
  71
0
  3
isocp.shx
  0
STYLE
  2
KICADBI
  70
0
  40
0
  41
1
  42
1
  50
15
  71
0
  3
isocp.shx
  0
ENDTAB
  0
TABLE
  2
LAYER
  70
1
  0
LAYER
  2
BLACK
  70
0
  62
7
  6
CONTINUOUS
  0
ENDTAB
  0
ENDSEC
  0
SECTION
  2
ENTITIES
0
LINE
8
BLACK
6
CONTINUOUS
10
5.59426
20
-4.06841
11
5.59642
21
-4.07057
0
LINE
8
BLACK
6
CONTINUOUS
10
5.59642
20
-4.07057
11
5.59722
21
-4.07352
0
LINE
8
BLACK
6
CONTINUOUS
10
5.59722
20
-4.07352
11
5.59642
21
-4.07647
0
LINE
8
BLACK
6
CONTINUOUS
10
5.59642
20
-4.07647
11
5.59426
21
-4.07864
0
LINE
8
BLACK
6
CONTINUOUS
10
5.59426
20
-4.07864
11
5.59131
21
-4.07943
0
LINE
8
BLACK
6
CONTINUOUS
10
5.59131
20
-4.07943
11
5.54632
21
-4.07943
0
LINE
8
BLACK
6
CONTINUOUS
10
5.54632
20
-4.07943
11
5.54336
21
-4.07864
0
LINE
8
BLACK
6
CONTINUOUS
10
5.54336
20
-4.07864
11
5.5412
21
-4.07647
0
LINE
8
BLACK
6
CONTINUOUS
10
5.5412
20
-4.07647
11
5.54041
21
-4.07352
0
LINE
8
BLACK
6
CONTINUOUS
10
5.54041
20
-4.07352
11
5.5412
21
-4.07057
0
LINE
8
BLACK
6
CONTINUOUS
10
5.5412
20
-4.07057
11
5.54336
21
-4.06841
0
LINE
8
BLACK
6
CONTINUOUS
10
5.54336
20
-4.06841
11
5.54632
21
-4.06762
0
LINE
8
BLACK
6
CONTINUOUS
10
5.54632
20
-4.06762
11
5.59131
21
-4.06762
0
LINE
8
BLACK
6
CONTINUOUS
10
5.59131
20
-4.06762
11
5.59426
21
-4.06841
0
LINE
8
BLACK
6
CONTINUOUS
10
5.62918
20
-4.00329
11
5.63051
21
-4.00356
0
LINE
8
BLACK
6
CONTINUOUS
10
5.63051
20
-4.00356
11
5.63613
21
-4.00637
0
LINE
8
BLACK
6
CONTINUOUS
10
5.63613
20
-4.00637
11
5.63685
21
-4.007
0
LINE
8
BLACK
6
CONTINUOUS
10
5.63685
20
-4.007
11
5.63767
21
-4.00748
0
LINE
8
BLACK
6
CONTINUOUS
10
5.63767
20
-4.00748
11
5.64048
21
-4.01029
0
LINE
8
BLACK
6
CONTINUOUS
10
5.64048
20
-4.01029
11
5.64096
21
-4.01111
0
LINE
8
BLACK
6
CONTINUOUS
10
5.64096
20
-4.01111
11
5.64159
21
-4.01182
0
LINE
8
BLACK
6
CONTINUOUS
10
5.64159
20
-4.01182
11
5.6444
21
-4.01745
0
LINE
8
BLACK
6
CONTINUOUS
10
5.6444
20
-4.01745
11
5.64467
21
-4.01878
0
LINE
8
BLACK
6
CONTINUOUS
10
5.64467
20
-4.01878
11
5.64502
21
-4.02009
0
LINE
8
BLACK
6
CONTINUOUS
10
5.64502
20
-4.02009
11
5.64502
21
-4.02853
0
LINE
8
BLACK
6
CONTINUOUS
10
5.64502
20
-4.02853
11
5.64467
21
-4.02984
0
LINE
8
BLACK
6
CONTINUOUS
10
5.64467
20
-4.02984
11
5.6444
21
-4.03117
0
LINE
8
BLACK
6
CONTINUOUS
10
5.6444
20
-4.03117
11
5.64159
21
-4.03679
0
LINE
8
BLACK
6
CONTINUOUS
10
5.64159
20
-4.03679
11
5.64096
21
-4.0375
0
LINE
8
BLACK
6
CONTINUOUS
10
5.64096
20
-4.0375
11
5.64048
21
-4.03833
0
LINE
8
BLACK
6
CONTINUOUS
10
5.64048
20
-4.03833
11
5.63767
21
-4.04114
0
LINE
8
BLACK
6
CONTINUOUS
10
5.63767
20
-4.04114
11
5.63685
21
-4.04161
0
LINE
8
BLACK
6
CONTINUOUS
10
5.63685
20
-4.04161
11
5.63613
21
-4.04224
0
LINE
8
BLACK
6
CONTINUOUS
10
5.63613
20
-4.04224
11
5.63051
21
-4.04506
0
LINE
8
BLACK
6
CONTINUOUS
10
5.63051
20
-4.04506
11
5.62918
21
-4.04533
0
LINE
8
BLACK
6
CONTINUOUS
10
5.62918
20
-4.04533
11
5.62787
21
-4.04568
0
LINE
8
BLACK
6
CONTINUOUS
10
5.62787
20
-4.04568
11
5.61128
21
-4.04568
0
LINE
8
BLACK
6
CONTINUOUS
10
5.61128
20
-4.04568
11
5.61128
21
-4.0679
0
LINE
8
BLACK
6
CONTINUOUS
10
5.61128
20
-4.0679
11
5.61049
21
-4.07085
0
LINE
8
BLACK
6
CONTINUOUS
10
5.61049
20
-4.07085
11
5.60832
21
-4.07301
0
LINE
8
BLACK
6
CONTINUOUS
10
5.60832
20
-4.07301
11
5.60537
21
-4.0738
0
LINE
8
BLACK
6
CONTINUOUS
10
5.60537
20
-4.0738
11
5.60242
21
-4.07301
0
LINE
8
BLACK
6
CONTINUOUS
10
5.60242
20
-4.07301
11
5.60026
21
-4.07085
0
LINE
8
BLACK
6
CONTINUOUS
10
5.60026
20
-4.07085
11
5.59947
21
-4.0679
0
LINE
8
BLACK
6
CONTINUOUS
10
5.59947
20
-4.0679
11
5.59947
21
-4.00884
0
LINE
8
BLACK
6
CONTINUOUS
10
5.59947
20
-4.00884
11
5.60026
21
-4.00589
0
LINE
8
BLACK
6
CONTINUOUS
10
5.60026
20
-4.00589
11
5.60242
21
-4.00373
0
LINE
8
BLACK
6
CONTINUOUS
10
5.60242
20
-4.00373
11
5.60537
21
-4.00294
0
LINE
8
BLACK
6
CONTINUOUS
10
5.60537
20
-4.00294
11
5.62787
21
-4.00294
0
LINE
8
BLACK
6
CONTINUOUS
10
5.62787
20
-4.00294
11
5.62918
21
-4.00329
0
LINE
8
BLACK
6
CONTINUOUS
10
5.61128
20
-4.01475
11
5.61128
21
-4.03387
0
LINE
8
BLACK
6
CONTINUOUS
10
5.61128
20
-4.03387
11
5.62647
21
-4.03387
0
LINE
8
BLACK
6
CONTINUOUS
10
5.62647
20
-4.03387
11
5.62999
21
-4.03211
0
LINE
8
BLACK
6
CONTINUOUS
10
5.62999
20
-4.03211
11
5.63145
21
-4.03065
0
LINE
8
BLACK
6
CONTINUOUS
10
5.63145
20
-4.03065
11
5.63321
21
-4.02713
0
LINE
8
BLACK
6
CONTINUOUS
10
5.63321
20
-4.02713
11
5.63321
21
-4.02148
0
LINE
8
BLACK
6
CONTINUOUS
10
5.63321
20
-4.02148
11
5.63145
21
-4.01796
0
LINE
8
BLACK
6
CONTINUOUS
10
5.63145
20
-4.01796
11
5.62999
21
-4.01651
0
LINE
8
BLACK
6
CONTINUOUS
10
5.62999
20
-4.01651
11
5.62647
21
-4.01475
0
LINE
8
BLACK
6
CONTINUOUS
10
5.62647
20
-4.01475
11
5.61128
21
-4.01475
0
LINE
8
BLACK
6
CONTINUOUS
10
5.18931
20
-4.00373
11
5.19148
21
-4.00589
0
LINE
8
BLACK
6
CONTINUOUS
10
5.19148
20
-4.00589
11
5.19227
21
-4.00884
0
LINE
8
BLACK
6
CONTINUOUS
10
5.19227
20
-4.00884
11
5.19148
21
-4.01179
0
LINE
8
BLACK
6
CONTINUOUS
10
5.19148
20
-4.01179
11
5.18931
21
-4.01396
0
LINE
8
BLACK
6
CONTINUOUS
10
5.18931
20
-4.01396
11
5.18636
21
-4.01475
0
LINE
8
BLACK
6
CONTINUOUS
10
5.18636
20
-4.01475
11
5.16415
21
-4.01475
0
LINE
8
BLACK
6
CONTINUOUS
10
5.16415
20
-4.01475
11
5.16415
21
-4.03106
0
LINE
8
BLACK
6
CONTINUOUS
10
5.16415
20
-4.03106
11
5.17792
21
-4.03106
0
LINE
8
BLACK
6
CONTINUOUS
10
5.17792
20
-4.03106
11
5.18088
21
-4.03185
0
LINE
8
BLACK
6
CONTINUOUS
10
5.18088
20
-4.03185
11
5.18304
21
-4.03401
0
LINE
8
BLACK
6
CONTINUOUS
10
5.18304
20
-4.03401
11
5.18383
21
-4.03696
0
LINE
8
BLACK
6
CONTINUOUS
10
5.18383
20
-4.03696
11
5.18304
21
-4.03992
0
LINE
8
BLACK
6
CONTINUOUS
10
5.18304
20
-4.03992
11
5.18088
21
-4.04208
0
LINE
8
BLACK
6
CONTINUOUS
10
5.18088
20
-4.04208
11
5.17792
21
-4.04287
0
LINE
8
BLACK
6
CONTINUOUS
10
5.17792
20
-4.04287
11
5.16415
21
-4.04287
0
LINE
8
BLACK
6
CONTINUOUS
10
5.16415
20
-4.04287
11
5.16415
21
-4.06199
0
LINE
8
BLACK
6
CONTINUOUS
10
5.16415
20
-4.06199
11
5.18636
21
-4.06199
0
LINE
8
BLACK
6
CONTINUOUS
10
5.18636
20
-4.06199
11
5.18931
21
-4.06278
0
LINE
8
BLACK
6
CONTINUOUS
10
5.18931
20
-4.06278
11
5.19148
21
-4.06494
0
LINE
8
BLACK
6
CONTINUOUS
10
5.19148
20
-4.06494
11
5.19227
21
-4.0679
0
LINE
8
BLACK
6
CONTINUOUS
10
5.19227
20
-4.0679
11
5.19148
21
-4.07085
0
LINE
8
BLACK
6
CONTINUOUS
10
5.19148
20
-4.07085
11
5.18931
21
-4.07301
0
LINE
8
BLACK
6
CONTINUOUS
10
5.18931
20
-4.07301
11
5.18636
21
-4.0738
0
LINE
8
BLACK
6
CONTINUOUS
10
5.18636
20
-4.0738
11
5.15824
21
-4.0738
0
LINE
8
BLACK
6
CONTINUOUS
10
5.15824
20
-4.0738
11
5.15529
21
-4.07301
0
LINE
8
BLACK
6
CONTINUOUS
10
5.15529
20
-4.07301
11
5.15313
21
-4.07085
0
LINE
8
BLACK
6
CONTINUOUS
10
5.15313
20
-4.07085
11
5.15233
21
-4.0679
0
LINE
8
BLACK
6
CONTINUOUS
10
5.15233
20
-4.0679
11
5.15233
21
-4.00884
0
LINE
8
BLACK
6
CONTINUOUS
10
5.15233
20
-4.00884
11
5.15313
21
-4.00589
0
LINE
8
BLACK
6
CONTINUOUS
10
5.15313
20
-4.00589
11
5.15529
21
-4.00373
0
LINE
8
BLACK
6
CONTINUOUS
10
5.15529
20
-4.00373
11
5.15824
21
-4.00294
0
LINE
8
BLACK
6
CONTINUOUS
10
5.15824
20
-4.00294
11
5.18636
21
-4.00294
0
LINE
8
BLACK
6
CONTINUOUS
10
5.18636
20
-4.00294
11
5.18931
21
-4.00373
0
LINE
8
BLACK
6
CONTINUOUS
10
5.1226
20
-4.00318
11
5.12355
21
-4.00324
0
LINE
8
BLACK
6
CONTINUOUS
10
5.12355
20
-4.00324
11
5.13199
21
-4.00605
0
LINE
8
BLACK
6
CONTINUOUS
10
5.13199
20
-4.00605
11
5.13312
21
-4.0068
0
LINE
8
BLACK
6
CONTINUOUS
10
5.13312
20
-4.0068
11
5.13429
21
-4.00748
0
LINE
8
BLACK
6
CONTINUOUS
10
5.13429
20
-4.00748
11
5.13711
21
-4.01029
0
LINE
8
BLACK
6
CONTINUOUS
10
5.13711
20
-4.01029
11
5.13863
21
-4.01294
0
LINE
8
BLACK
6
CONTINUOUS
10
5.13863
20
-4.01294
11
5.13863
21
-4.01599
0
LINE
8
BLACK
6
CONTINUOUS
10
5.13863
20
-4.01599
11
5.13711
21
-4.01864
0
LINE
8
BLACK
6
CONTINUOUS
10
5.13711
20
-4.01864
11
5.13446
21
-4.02017
0
LINE
8
BLACK
6
CONTINUOUS
10
5.13446
20
-4.02017
11
5.1314
21
-4.02017
0
LINE
8
BLACK
6
CONTINUOUS
10
5.1314
20
-4.02017
11
5.12875
21
-4.01864
0
LINE
8
BLACK
6
CONTINUOUS
10
5.12875
20
-4.01864
11
5.12693
21
-4.01682
0
LINE
8
BLACK
6
CONTINUOUS
10
5.12693
20
-4.01682
11
5.12072
21
-4.01475
0
LINE
8
BLACK
6
CONTINUOUS
10
5.12072
20
-4.01475
11
5.11702
21
-4.01475
0
LINE
8
BLACK
6
CONTINUOUS
10
5.11702
20
-4.01475
11
5.11081
21
-4.01682
0
LINE
8
BLACK
6
CONTINUOUS
10
5.11081
20
-4.01682
11
5.10685
21
-4.02078
0
LINE
8
BLACK
6
CONTINUOUS
10
5.10685
20
-4.02078
11
5.10476
21
-4.02496
0
LINE
8
BLACK
6
CONTINUOUS
10
5.10476
20
-4.02496
11
5.10228
21
-4.03488
0
LINE
8
BLACK
6
CONTINUOUS
10
5.10228
20
-4.03488
11
5.10228
21
-4.04186
0
LINE
8
BLACK
6
CONTINUOUS
10
5.10228
20
-4.04186
11
5.10476
21
-4.05177
0
LINE
8
BLACK
6
CONTINUOUS
10
5.10476
20
-4.05177
11
5.10685
21
-4.05596
0
LINE
8
BLACK
6
CONTINUOUS
10
5.10685
20
-4.05596
11
5.11081
21
-4.05992
0
LINE
8
BLACK
6
CONTINUOUS
10
5.11081
20
-4.05992
11
5.11702
21
-4.06199
0
LINE
8
BLACK
6
CONTINUOUS
10
5.11702
20
-4.06199
11
5.12072
21
-4.06199
0
LINE
8
BLACK
6
CONTINUOUS
10
5.12072
20
-4.06199
11
5.12693
21
-4.05992
0
LINE
8
BLACK
6
CONTINUOUS
10
5.12693
20
-4.05992
11
5.12875
21
-4.0581
0
LINE
8
BLACK
6
CONTINUOUS
10
5.12875
20
-4.0581
11
5.1314
21
-4.05657
0
LINE
8
BLACK
6
CONTINUOUS
10
5.1314
20
-4.05657
11
5.13446
21
-4.05657
0
LINE
8
BLACK
6
CONTINUOUS
10
5.13446
20
-4.05657
11
5.13711
21
-4.0581
0
LINE
8
BLACK
6
CONTINUOUS
10
5.13711
20
-4.0581
11
5.13863
21
-4.06074
0
LINE
8
BLACK
6
CONTINUOUS
10
5.13863
20
-4.06074
11
5.13863
21
-4.0638
0
LINE
8
BLACK
6
CONTINUOUS
10
5.13863
20
-4.0638
11
5.13711
21
-4.06645
0
LINE
8
BLACK
6
CONTINUOUS
10
5.13711
20
-4.06645
11
5.13429
21
-4.06926
0
LINE
8
BLACK
6
CONTINUOUS
10
5.13429
20
-4.06926
11
5.13312
21
-4.06994
0
LINE
8
BLACK
6
CONTINUOUS
10
5.13312
20
-4.06994
11
5.13199
21
-4.07069
0
LINE
8
BLACK
6
CONTINUOUS
10
5.13199
20
-4.07069
11
5.12355
21
-4.0735
0
LINE
8
BLACK
6
CONTINUOUS
10
5.12355
20
-4.0735
11
5.1226
21
-4.07356
0
LINE
8
BLACK
6
CONTINUOUS
10
5.1226
20
-4.07356
11
5.12168
21
-4.0738
0
LINE
8
BLACK
6
CONTINUOUS
10
5.12168
20
-4.0738
11
5.11606
21
-4.0738
0
LINE
8
BLACK
6
CONTINUOUS
10
5.11606
20
-4.0738
11
5.11514
21
-4.07356
0
LINE
8
BLACK
6
CONTINUOUS
10
5.11514
20
-4.07356
11
5.11419
21
-4.0735
0
LINE
8
BLACK
6
CONTINUOUS
10
5.11419
20
-4.0735
11
5.10575
21
-4.07069
0
LINE
8
BLACK
6
CONTINUOUS
10
5.10575
20
-4.07069
11
5.10462
21
-4.06994
0
LINE
8
BLACK
6
CONTINUOUS
10
5.10462
20
-4.06994
11
5.10345
21
-4.06926
0
LINE
8
BLACK
6
CONTINUOUS
10
5.10345
20
-4.06926
11
5.09782
21
-4.06364
0
LINE
8
BLACK
6
CONTINUOUS
10
5.09782
20
-4.06364
11
5.09735
21
-4.06281
0
LINE
8
BLACK
6
CONTINUOUS
10
5.09735
20
-4.06281
11
5.09671
21
-4.0621
0
LINE
8
BLACK
6
CONTINUOUS
10
5.09671
20
-4.0621
11
5.0939
21
-4.05648
0
LINE
8
BLACK
6
CONTINUOUS
10
5.0939
20
-4.05648
11
5.09377
21
-4.05584
0
LINE
8
BLACK
6
CONTINUOUS
10
5.09377
20
-4.05584
11
5.09346
21
-4.05527
0
LINE
8
BLACK
6
CONTINUOUS
10
5.09346
20
-4.05527
11
5.09064
21
-4.04402
0
LINE
8
BLACK
6
CONTINUOUS
10
5.09064
20
-4.04402
11
5.09066
21
-4.04329
0
LINE
8
BLACK
6
CONTINUOUS
10
5.09066
20
-4.04329
11
5.09047
21
-4.04259
0
LINE
8
BLACK
6
CONTINUOUS
10
5.09047
20
-4.04259
11
5.09047
21
-4.03415
0
LINE
8
BLACK
6
CONTINUOUS
10
5.09047
20
-4.03415
11
5.09066
21
-4.03345
0
LINE
8
BLACK
6
CONTINUOUS
10
5.09066
20
-4.03345
11
5.09064
21
-4.03272
0
LINE
8
BLACK
6
CONTINUOUS
10
5.09064
20
-4.03272
11
5.09346
21
-4.02147
0
LINE
8
BLACK
6
CONTINUOUS
10
5.09346
20
-4.02147
11
5.09377
21
-4.0209
0
LINE
8
BLACK
6
CONTINUOUS
10
5.09377
20
-4.0209
11
5.0939
21
-4.02026
0
LINE
8
BLACK
6
CONTINUOUS
10
5.0939
20
-4.02026
11
5.09671
21
-4.01464
0
LINE
8
BLACK
6
CONTINUOUS
10
5.09671
20
-4.01464
11
5.09735
21
-4.01393
0
LINE
8
BLACK
6
CONTINUOUS
10
5.09735
20
-4.01393
11
5.09782
21
-4.0131
0
LINE
8
BLACK
6
CONTINUOUS
10
5.09782
20
-4.0131
11
5.10345
21
-4.00748
0
LINE
8
BLACK
6
CONTINUOUS
10
5.10345
20
-4.00748
11
5.10462
21
-4.0068
0
LINE
8
BLACK
6
CONTINUOUS
10
5.10462
20
-4.0068
11
5.10575
21
-4.00605
0
LINE
8
BLACK
6
CONTINUOUS
10
5.10575
20
-4.00605
11
5.11419
21
-4.00324
0
LINE
8
BLACK
6
CONTINUOUS
10
5.11419
20
-4.00324
11
5.11514
21
-4.00318
0
LINE
8
BLACK
6
CONTINUOUS
10
5.11514
20
-4.00318
11
5.11606
21
-4.00294
0
LINE
8
BLACK
6
CONTINUOUS
10
5.11606
20
-4.00294
11
5.12168
21
-4.00294
0
LINE
8
BLACK
6
CONTINUOUS
10
5.12168
20
-4.00294
11
5.1226
21
-4.00318
0
LINE
8
BLACK
6
CONTINUOUS
10
5.22665
20
-4.00318
11
5.2276
21
-4.00324
0
LINE
8
BLACK
6
CONTINUOUS
10
5.2276
20
-4.00324
11
5.23604
21
-4.00605
0
LINE
8
BLACK
6
CONTINUOUS
10
5.23604
20
-4.00605
11
5.23717
21
-4.0068
0
LINE
8
BLACK
6
CONTINUOUS
10
5.23717
20
-4.0068
11
5.23834
21
-4.00748
0
LINE
8
BLACK
6
CONTINUOUS
10
5.23834
20
-4.00748
11
5.24397
21
-4.0131
0
LINE
8
BLACK
6
CONTINUOUS
10
5.24397
20
-4.0131
11
5.24444
21
-4.01393
0
LINE
8
BLACK
6
CONTINUOUS
10
5.24444
20
-4.01393
11
5.24507
21
-4.01464
0
LINE
8
BLACK
6
CONTINUOUS
10
5.24507
20
-4.01464
11
5.24789
21
-4.02026
0
LINE
8
BLACK
6
CONTINUOUS
10
5.24789
20
-4.02026
11
5.24802
21
-4.0209
0
LINE
8
BLACK
6
CONTINUOUS
10
5.24802
20
-4.0209
11
5.24833
21
-4.02147
0
LINE
8
BLACK
6
CONTINUOUS
10
5.24833
20
-4.02147
11
5.25115
21
-4.03272
0
LINE
8
BLACK
6
CONTINUOUS
10
5.25115
20
-4.03272
11
5.25113
21
-4.03345
0
LINE
8
BLACK
6
CONTINUOUS
10
5.25113
20
-4.03345
11
5.25132
21
-4.03415
0
LINE
8
BLACK
6
CONTINUOUS
10
5.25132
20
-4.03415
11
5.25132
21
-4.04259
0
LINE
8
BLACK
6
CONTINUOUS
10
5.25132
20
-4.04259
11
5.25113
21
-4.04329
0
LINE
8
BLACK
6
CONTINUOUS
10
5.25113
20
-4.04329
11
5.25115
21
-4.04402
0
LINE
8
BLACK
6
CONTINUOUS
10
5.25115
20
-4.04402
11
5.24833
21
-4.05527
0
LINE
8
BLACK
6
CONTINUOUS
10
5.24833
20
-4.05527
11
5.24802
21
-4.05584
0
LINE
8
BLACK
6
CONTINUOUS
10
5.24802
20
-4.05584
11
5.24789
21
-4.05648
0
LINE
8
BLACK
6
CONTINUOUS
10
5.24789
20
-4.05648
11
5.24507
21
-4.0621
0
LINE
8
BLACK
6
CONTINUOUS
10
5.24507
20
-4.0621
11
5.24444
21
-4.06281
0
LINE
8
BLACK
6
CONTINUOUS
10
5.24444
20
-4.06281
11
5.24397
21
-4.06364
0
LINE
8
BLACK
6
CONTINUOUS
10
5.24397
20
-4.06364
11
5.23834
21
-4.06926
0
LINE
8
BLACK
6
CONTINUOUS
10
5.23834
20
-4.06926
11
5.23717
21
-4.06994
0
LINE
8
BLACK
6
CONTINUOUS
10
5.23717
20
-4.06994
11
5.23604
21
-4.07069
0
LINE
8
BLACK
6
CONTINUOUS
10
5.23604
20
-4.07069
11
5.2276
21
-4.0735
0
LINE
8
BLACK
6
CONTINUOUS
10
5.2276
20
-4.0735
11
5.22665
21
-4.07356
0
LINE
8
BLACK
6
CONTINUOUS
10
5.22665
20
-4.07356
11
5.22573
21
-4.0738
0
LINE
8
BLACK
6
CONTINUOUS
10
5.22573
20
-4.0738
11
5.21167
21
-4.0738
0
LINE
8
BLACK
6
CONTINUOUS
10
5.21167
20
-4.0738
11
5.20872
21
-4.07301
0
LINE
8
BLACK
6
CONTINUOUS
10
5.20872
20
-4.07301
11
5.20656
21
-4.07085
0
LINE
8
BLACK
6
CONTINUOUS
10
5.20656
20
-4.07085
11
5.20576
21
-4.0679
0
LINE
8
BLACK
6
CONTINUOUS
10
5.20576
20
-4.0679
11
5.20576
21
-4.00884
0
LINE
8
BLACK
6
CONTINUOUS
10
5.20576
20
-4.00884
11
5.20656
21
-4.00589
0
LINE
8
BLACK
6
CONTINUOUS
10
5.20656
20
-4.00589
11
5.20872
21
-4.00373
0
LINE
8
BLACK
6
CONTINUOUS
10
5.20872
20
-4.00373
11
5.21167
21
-4.00294
0
LINE
8
BLACK
6
CONTINUOUS
10
5.21167
20
-4.00294
11
5.22573
21
-4.00294
0
LINE
8
BLACK
6
CONTINUOUS
10
5.22573
20
-4.00294
11
5.22665
21
-4.00318
0
LINE
8
BLACK
6
CONTINUOUS
10
5.21758
20
-4.01475
11
5.21758
21
-4.06199
0
LINE
8
BLACK
6
CONTINUOUS
10
5.21758
20
-4.06199
11
5.22477
21
-4.06199
0
LINE
8
BLACK
6
CONTINUOUS
10
5.22477
20
-4.06199
11
5.23098
21
-4.05992
0
LINE
8
BLACK
6
CONTINUOUS
10
5.23098
20
-4.05992
11
5.23494
21
-4.05596
0
LINE
8
BLACK
6
CONTINUOUS
10
5.23494
20
-4.05596
11
5.23703
21
-4.05177
0
LINE
8
BLACK
6
CONTINUOUS
10
5.23703
20
-4.05177
11
5.23951
21
-4.04186
0
LINE
8
BLACK
6
CONTINUOUS
10
5.23951
20
-4.04186
11
5.23951
21
-4.03488
0
LINE
8
BLACK
6
CONTINUOUS
10
5.23951
20
-4.03488
11
5.23703
21
-4.02496
0
LINE
8
BLACK
6
CONTINUOUS
10
5.23703
20
-4.02496
11
5.23494
21
-4.02078
0
LINE
8
BLACK
6
CONTINUOUS
10
5.23494
20
-4.02078
11
5.23098
21
-4.01682
0
LINE
8
BLACK
6
CONTINUOUS
10
5.23098
20
-4.01682
11
5.22477
21
-4.01475
0
LINE
8
BLACK
6
CONTINUOUS
10
5.22477
20
-4.01475
11
5.21758
21
-4.01475
0
LINE
8
BLACK
6
CONTINUOUS
10
5.01332
20
-4.00329
11
5.01465
21
-4.00356
0
LINE
8
BLACK
6
CONTINUOUS
10
5.01465
20
-4.00356
11
5.02027
21
-4.00637
0
LINE
8
BLACK
6
CONTINUOUS
10
5.02027
20
-4.00637
11
5.02098
21
-4.007
0
LINE
8
BLACK
6
CONTINUOUS
10
5.02098
20
-4.007
11
5.02181
21
-4.00748
0
LINE
8
BLACK
6
CONTINUOUS
10
5.02181
20
-4.00748
11
5.02462
21
-4.01029
0
LINE
8
BLACK
6
CONTINUOUS
10
5.02462
20
-4.01029
11
5.0251
21
-4.01111
0
LINE
8
BLACK
6
CONTINUOUS
10
5.0251
20
-4.01111
11
5.02573
21
-4.01182
0
LINE
8
BLACK
6
CONTINUOUS
10
5.02573
20
-4.01182
11
5.02854
21
-4.01745
0
LINE
8
BLACK
6
CONTINUOUS
10
5.02854
20
-4.01745
11
5.02881
21
-4.01878
0
LINE
8
BLACK
6
CONTINUOUS
10
5.02881
20
-4.01878
11
5.02916
21
-4.02009
0
LINE
8
BLACK
6
CONTINUOUS
10
5.02916
20
-4.02009
11
5.02916
21
-4.02853
0
LINE
8
BLACK
6
CONTINUOUS
10
5.02916
20
-4.02853
11
5.02881
21
-4.02984
0
LINE
8
BLACK
6
CONTINUOUS
10
5.02881
20
-4.02984
11
5.02854
21
-4.03117
0
LINE
8
BLACK
6
CONTINUOUS
10
5.02854
20
-4.03117
11
5.02573
21
-4.03679
0
LINE
8
BLACK
6
CONTINUOUS
10
5.02573
20
-4.03679
11
5.0251
21
-4.0375
0
LINE
8
BLACK
6
CONTINUOUS
10
5.0251
20
-4.0375
11
5.02462
21
-4.03833
0
LINE
8
BLACK
6
CONTINUOUS
10
5.02462
20
-4.03833
11
5.02181
21
-4.04114
0
LINE
8
BLACK
6
CONTINUOUS
10
5.02181
20
-4.04114
11
5.02098
21
-4.04161
0
LINE
8
BLACK
6
CONTINUOUS
10
5.02098
20
-4.04161
11
5.02027
21
-4.04224
0
LINE
8
BLACK
6
CONTINUOUS
10
5.02027
20
-4.04224
11
5.01465
21
-4.04506
0
LINE
8
BLACK
6
CONTINUOUS
10
5.01465
20
-4.04506
11
5.01332
21
-4.04533
0
LINE
8
BLACK
6
CONTINUOUS
10
5.01332
20
-4.04533
11
5.01201
21
-4.04568
0
LINE
8
BLACK
6
CONTINUOUS
10
5.01201
20
-4.04568
11
4.99542
21
-4.04568
0
LINE
8
BLACK
6
CONTINUOUS
10
4.99542
20
-4.04568
11
4.99542
21
-4.0679
0
LINE
8
BLACK
6
CONTINUOUS
10
4.99542
20
-4.0679
11
4.99463
21
-4.07085
0
LINE
8
BLACK
6
CONTINUOUS
10
4.99463
20
-4.07085
11
4.99246
21
-4.07301
0
LINE
8
BLACK
6
CONTINUOUS
10
4.99246
20
-4.07301
11
4.98951
21
-4.0738
0
LINE
8
BLACK
6
CONTINUOUS
10
4.98951
20
-4.0738
11
4.98656
21
-4.07301
0
LINE
8
BLACK
6
CONTINUOUS
10
4.98656
20
-4.07301
11
4.9844
21
-4.07085
0
LINE
8
BLACK
6
CONTINUOUS
10
4.9844
20
-4.07085
11
4.98361
21
-4.0679
0
LINE
8
BLACK
6
CONTINUOUS
10
4.98361
20
-4.0679
11
4.98361
21
-4.00884
0
LINE
8
BLACK
6
CONTINUOUS
10
4.98361
20
-4.00884
11
4.9844
21
-4.00589
0
LINE
8
BLACK
6
CONTINUOUS
10
4.9844
20
-4.00589
11
4.98656
21
-4.00373
0
LINE
8
BLACK
6
CONTINUOUS
10
4.98656
20
-4.00373
11
4.98951
21
-4.00294
0
LINE
8
BLACK
6
CONTINUOUS
10
4.98951
20
-4.00294
11
5.01201
21
-4.00294
0
LINE
8
BLACK
6
CONTINUOUS
10
5.01201
20
-4.00294
11
5.01332
21
-4.00329
0
LINE
8
BLACK
6
CONTINUOUS
10
4.99542
20
-4.01475
11
4.99542
21
-4.03387
0
LINE
8
BLACK
6
CONTINUOUS
10
4.99542
20
-4.03387
11
5.01061
21
-4.03387
0
LINE
8
BLACK
6
CONTINUOUS
10
5.01061
20
-4.03387
11
5.01413
21
-4.03211
0
LINE
8
BLACK
6
CONTINUOUS
10
5.01413
20
-4.03211
11
5.01559
21
-4.03065
0
LINE
8
BLACK
6
CONTINUOUS
10
5.01559
20
-4.03065
11
5.01735
21
-4.02713
0
LINE
8
BLACK
6
CONTINUOUS
10
5.01735
20
-4.02713
11
5.01735
21
-4.02148
0
LINE
8
BLACK
6
CONTINUOUS
10
5.01735
20
-4.02148
11
5.01559
21
-4.01796
0
LINE
8
BLACK
6
CONTINUOUS
10
5.01559
20
-4.01796
11
5.01413
21
-4.01651
0
LINE
8
BLACK
6
CONTINUOUS
10
5.01413
20
-4.01651
11
5.01061
21
-4.01475
0
LINE
8
BLACK
6
CONTINUOUS
10
5.01061
20
-4.01475
11
4.99542
21
-4.01475
0
LINE
8
BLACK
6
CONTINUOUS
10
5.29453
20
-4.00329
11
5.29586
21
-4.00356
0
LINE
8
BLACK
6
CONTINUOUS
10
5.29586
20
-4.00356
11
5.30149
21
-4.00637
0
LINE
8
BLACK
6
CONTINUOUS
10
5.30149
20
-4.00637
11
5.3022
21
-4.007
0
LINE
8
BLACK
6
CONTINUOUS
10
5.3022
20
-4.007
11
5.30302
21
-4.00748
0
LINE
8
BLACK
6
CONTINUOUS
10
5.30302
20
-4.00748
11
5.30865
21
-4.0131
0
LINE
8
BLACK
6
CONTINUOUS
10
5.30865
20
-4.0131
11
5.30867
21
-4.01315
0
LINE
8
BLACK
6
CONTINUOUS
10
5.30867
20
-4.01315
11
5.30872
21
-4.01317
0
LINE
8
BLACK
6
CONTINUOUS
10
5.30872
20
-4.01317
11
5.30944
21
-4.01447
0
LINE
8
BLACK
6
CONTINUOUS
10
5.30944
20
-4.01447
11
5.31018
21
-4.01575
0
LINE
8
BLACK
6
CONTINUOUS
10
5.31018
20
-4.01575
11
5.31018
21
-4.0158
0
LINE
8
BLACK
6
CONTINUOUS
10
5.31018
20
-4.0158
11
5.3102
21
-4.01585
0
LINE
8
BLACK
6
CONTINUOUS
10
5.3102
20
-4.01585
11
5.31301
21
-4.02709
0
LINE
8
BLACK
6
CONTINUOUS
10
5.31301
20
-4.02709
11
5.313
21
-4.02782
0
LINE
8
BLACK
6
CONTINUOUS
10
5.313
20
-4.02782
11
5.31319
21
-4.02853
0
LINE
8
BLACK
6
CONTINUOUS
10
5.31319
20
-4.02853
11
5.31319
21
-4.04821
0
LINE
8
BLACK
6
CONTINUOUS
10
5.31319
20
-4.04821
11
5.313
21
-4.04892
0
LINE
8
BLACK
6
CONTINUOUS
10
5.313
20
-4.04892
11
5.31301
21
-4.04964
0
LINE
8
BLACK
6
CONTINUOUS
10
5.31301
20
-4.04964
11
5.3102
21
-4.06089
0
LINE
8
BLACK
6
CONTINUOUS
10
5.3102
20
-4.06089
11
5.31018
21
-4.06094
0
LINE
8
BLACK
6
CONTINUOUS
10
5.31018
20
-4.06094
11
5.31018
21
-4.06099
0
LINE
8
BLACK
6
CONTINUOUS
10
5.31018
20
-4.06099
11
5.30944
21
-4.06227
0
LINE
8
BLACK
6
CONTINUOUS
10
5.30944
20
-4.06227
11
5.30872
21
-4.06357
0
LINE
8
BLACK
6
CONTINUOUS
10
5.30872
20
-4.06357
11
5.30867
21
-4.06359
0
LINE
8
BLACK
6
CONTINUOUS
10
5.30867
20
-4.06359
11
5.30865
21
-4.06364
0
LINE
8
BLACK
6
CONTINUOUS
10
5.30865
20
-4.06364
11
5.30302
21
-4.06926
0
LINE
8
BLACK
6
CONTINUOUS
10
5.30302
20
-4.06926
11
5.3022
21
-4.06974
0
LINE
8
BLACK
6
CONTINUOUS
10
5.3022
20
-4.06974
11
5.30149
21
-4.07037
0
LINE
8
BLACK
6
CONTINUOUS
10
5.30149
20
-4.07037
11
5.29586
21
-4.07318
0
LINE
8
BLACK
6
CONTINUOUS
10
5.29586
20
-4.07318
11
5.29453
21
-4.07345
0
LINE
8
BLACK
6
CONTINUOUS
10
5.29453
20
-4.07345
11
5.29322
21
-4.0738
0
LINE
8
BLACK
6
CONTINUOUS
10
5.29322
20
-4.0738
11
5.28197
21
-4.0738
0
LINE
8
BLACK
6
CONTINUOUS
10
5.28197
20
-4.0738
11
5.28066
21
-4.07345
0
LINE
8
BLACK
6
CONTINUOUS
10
5.28066
20
-4.07345
11
5.27933
21
-4.07318
0
LINE
8
BLACK
6
CONTINUOUS
10
5.27933
20
-4.07318
11
5.27371
21
-4.07037
0
LINE
8
BLACK
6
CONTINUOUS
10
5.27371
20
-4.07037
11
5.273
21
-4.06974
0
LINE
8
BLACK
6
CONTINUOUS
10
5.273
20
-4.06974
11
5.27217
21
-4.06926
0
LINE
8
BLACK
6
CONTINUOUS
10
5.27217
20
-4.06926
11
5.26655
21
-4.06364
0
LINE
8
BLACK
6
CONTINUOUS
10
5.26655
20
-4.06364
11
5.26652
21
-4.06359
0
LINE
8
BLACK
6
CONTINUOUS
10
5.26652
20
-4.06359
11
5.26648
21
-4.06357
0
LINE
8
BLACK
6
CONTINUOUS
10
5.26648
20
-4.06357
11
5.26576
21
-4.06227
0
LINE
8
BLACK
6
CONTINUOUS
10
5.26576
20
-4.06227
11
5.26502
21
-4.06099
0
LINE
8
BLACK
6
CONTINUOUS
10
5.26502
20
-4.06099
11
5.26502
21
-4.06094
0
LINE
8
BLACK
6
CONTINUOUS
10
5.26502
20
-4.06094
11
5.265
21
-4.06089
0
LINE
8
BLACK
6
CONTINUOUS
10
5.265
20
-4.06089
11
5.26218
21
-4.04964
0
LINE
8
BLACK
6
CONTINUOUS
10
5.26218
20
-4.04964
11
5.2622
21
-4.04892
0
LINE
8
BLACK
6
CONTINUOUS
10
5.2622
20
-4.04892
11
5.26201
21
-4.04821
0
LINE
8
BLACK
6
CONTINUOUS
10
5.26201
20
-4.04821
11
5.26201
21
-4.02853
0
LINE
8
BLACK
6
CONTINUOUS
10
5.26201
20
-4.02853
11
5.2622
21
-4.02782
0
LINE
8
BLACK
6
CONTINUOUS
10
5.2622
20
-4.02782
11
5.26218
21
-4.02709
0
LINE
8
BLACK
6
CONTINUOUS
10
5.26218
20
-4.02709
11
5.265
21
-4.01585
0
LINE
8
BLACK
6
CONTINUOUS
10
5.265
20
-4.01585
11
5.26502
21
-4.0158
0
LINE
8
BLACK
6
CONTINUOUS
10
5.26502
20
-4.0158
11
5.26502
21
-4.01575
0
LINE
8
BLACK
6
CONTINUOUS
10
5.26502
20
-4.01575
11
5.26576
21
-4.01447
0
LINE
8
BLACK
6
CONTINUOUS
10
5.26576
20
-4.01447
11
5.26648
21
-4.01317
0
LINE
8
BLACK
6
CONTINUOUS
10
5.26648
20
-4.01317
11
5.26652
21
-4.01315
0
LINE
8
BLACK
6
CONTINUOUS
10
5.26652
20
-4.01315
11
5.26655
21
-4.0131
0
LINE
8
BLACK
6
CONTINUOUS
10
5.26655
20
-4.0131
11
5.27217
21
-4.00748
0
LINE
8
BLACK
6
CONTINUOUS
10
5.27217
20
-4.00748
11
5.273
21
-4.007
0
LINE
8
BLACK
6
CONTINUOUS
10
5.273
20
-4.007
11
5.27371
21
-4.00637
0
LINE
8
BLACK
6
CONTINUOUS
10
5.27371
20
-4.00637
11
5.27933
21
-4.00356
0
LINE
8
BLACK
6
CONTINUOUS
10
5.27933
20
-4.00356
11
5.28066
21
-4.00329
0
LINE
8
BLACK
6
CONTINUOUS
10
5.28066
20
-4.00329
11
5.28197
21
-4.00294
0
LINE
8
BLACK
6
CONTINUOUS
10
5.28197
20
-4.00294
11
5.29322
21
-4.00294
0
LINE
8
BLACK
6
CONTINUOUS
10
5.29322
20
-4.00294
11
5.29453
21
-4.00329
0
LINE
8
BLACK
6
CONTINUOUS
10
5.28337
20
-4.01475
11
5.27985
21
-4.01651
0
LINE
8
BLACK
6
CONTINUOUS
10
5.27985
20
-4.01651
11
5.27606
21
-4.0203
0
LINE
8
BLACK
6
CONTINUOUS
10
5.27606
20
-4.0203
11
5.27382
21
-4.02925
0
LINE
8
BLACK
6
CONTINUOUS
10
5.27382
20
-4.02925
11
5.27382
21
-4.04748
0
LINE
8
BLACK
6
CONTINUOUS
10
5.27382
20
-4.04748
11
5.27606
21
-4.05644
0
LINE
8
BLACK
6
CONTINUOUS
10
5.27606
20
-4.05644
11
5.27985
21
-4.06023
0
LINE
8
BLACK
6
CONTINUOUS
10
5.27985
20
-4.06023
11
5.28337
21
-4.06199
0
LINE
8
BLACK
6
CONTINUOUS
10
5.28337
20
-4.06199
11
5.29183
21
-4.06199
0
LINE
8
BLACK
6
CONTINUOUS
10
5.29183
20
-4.06199
11
5.29535
21
-4.06023
0
LINE
8
BLACK
6
CONTINUOUS
10
5.29535
20
-4.06023
11
5.29914
21
-4.05644
0
LINE
8
BLACK
6
CONTINUOUS
10
5.29914
20
-4.05644
11
5.30138
21
-4.04748
0
LINE
8
BLACK
6
CONTINUOUS
10
5.30138
20
-4.04748
11
5.30138
21
-4.02925
0
LINE
8
BLACK
6
CONTINUOUS
10
5.30138
20
-4.02925
11
5.29914
21
-4.0203
0
LINE
8
BLACK
6
CONTINUOUS
10
5.29914
20
-4.0203
11
5.29535
21
-4.01651
0
LINE
8
BLACK
6
CONTINUOUS
10
5.29535
20
-4.01651
11
5.29183
21
-4.01475
0
LINE
8
BLACK
6
CONTINUOUS
10
5.29183
20
-4.01475
11
5.28337
21
-4.01475
0
LINE
8
BLACK
6
CONTINUOUS
10
5.35601
20
-4.00318
11
5.35696
21
-4.00324
0
LINE
8
BLACK
6
CONTINUOUS
10
5.35696
20
-4.00324
11
5.36539
21
-4.00605
0
LINE
8
BLACK
6
CONTINUOUS
10
5.36539
20
-4.00605
11
5.36794
21
-4.00774
0
LINE
8
BLACK
6
CONTINUOUS
10
5.36794
20
-4.00774
11
5.36931
21
-4.01047
0
LINE
8
BLACK
6
CONTINUOUS
10
5.36931
20
-4.01047
11
5.36913
21
-4.01352
0
LINE
8
BLACK
6
CONTINUOUS
10
5.36913
20
-4.01352
11
5.36744
21
-4.01607
0
LINE
8
BLACK
6
CONTINUOUS
10
5.36744
20
-4.01607
11
5.36471
21
-4.01744
0
LINE
8
BLACK
6
CONTINUOUS
10
5.36471
20
-4.01744
11
5.36166
21
-4.01726
0
LINE
8
BLACK
6
CONTINUOUS
10
5.36166
20
-4.01726
11
5.35413
21
-4.01475
0
LINE
8
BLACK
6
CONTINUOUS
10
5.35413
20
-4.01475
11
5.34242
21
-4.01475
0
LINE
8
BLACK
6
CONTINUOUS
10
5.34242
20
-4.01475
11
5.3389
21
-4.01651
0
LINE
8
BLACK
6
CONTINUOUS
10
5.3389
20
-4.01651
11
5.33745
21
-4.01796
0
LINE
8
BLACK
6
CONTINUOUS
10
5.33745
20
-4.01796
11
5.33569
21
-4.02148
0
LINE
8
BLACK
6
CONTINUOUS
10
5.33569
20
-4.02148
11
5.33569
21
-4.02432
0
LINE
8
BLACK
6
CONTINUOUS
10
5.33569
20
-4.02432
11
5.33745
21
-4.02784
0
LINE
8
BLACK
6
CONTINUOUS
10
5.33745
20
-4.02784
11
5.3389
21
-4.0293
0
LINE
8
BLACK
6
CONTINUOUS
10
5.3389
20
-4.0293
11
5.34309
21
-4.03139
0
LINE
8
BLACK
6
CONTINUOUS
10
5.34309
20
-4.03139
11
5.35371
21
-4.03405
0
LINE
8
BLACK
6
CONTINUOUS
10
5.35371
20
-4.03405
11
5.35428
21
-4.03436
0
LINE
8
BLACK
6
CONTINUOUS
10
5.35428
20
-4.03436
11
5.35492
21
-4.03449
0
LINE
8
BLACK
6
CONTINUOUS
10
5.35492
20
-4.03449
11
5.36054
21
-4.03731
0
LINE
8
BLACK
6
CONTINUOUS
10
5.36054
20
-4.03731
11
5.36125
21
-4.03794
0
LINE
8
BLACK
6
CONTINUOUS
10
5.36125
20
-4.03794
11
5.36208
21
-4.03841
0
LINE
8
BLACK
6
CONTINUOUS
10
5.36208
20
-4.03841
11
5.36489
21
-4.04122
0
LINE
8
BLACK
6
CONTINUOUS
10
5.36489
20
-4.04122
11
5.36537
21
-4.04205
0
LINE
8
BLACK
6
CONTINUOUS
10
5.36537
20
-4.04205
11
5.366
21
-4.04276
0
LINE
8
BLACK
6
CONTINUOUS
10
5.366
20
-4.04276
11
5.36881
21
-4.04838
0
LINE
8
BLACK
6
CONTINUOUS
10
5.36881
20
-4.04838
11
5.36908
21
-4.04971
0
LINE
8
BLACK
6
CONTINUOUS
10
5.36908
20
-4.04971
11
5.36943
21
-4.05102
0
LINE
8
BLACK
6
CONTINUOUS
10
5.36943
20
-4.05102
11
5.36943
21
-4.05665
0
LINE
8
BLACK
6
CONTINUOUS
10
5.36943
20
-4.05665
11
5.36908
21
-4.05796
0
LINE
8
BLACK
6
CONTINUOUS
10
5.36908
20
-4.05796
11
5.36881
21
-4.05929
0
LINE
8
BLACK
6
CONTINUOUS
10
5.36881
20
-4.05929
11
5.366
21
-4.06491
0
LINE
8
BLACK
6
CONTINUOUS
10
5.366
20
-4.06491
11
5.36537
21
-4.06562
0
LINE
8
BLACK
6
CONTINUOUS
10
5.36537
20
-4.06562
11
5.36489
21
-4.06645
0
LINE
8
BLACK
6
CONTINUOUS
10
5.36489
20
-4.06645
11
5.36208
21
-4.06926
0
LINE
8
BLACK
6
CONTINUOUS
10
5.36208
20
-4.06926
11
5.36125
21
-4.06974
0
LINE
8
BLACK
6
CONTINUOUS
10
5.36125
20
-4.06974
11
5.36054
21
-4.07037
0
LINE
8
BLACK
6
CONTINUOUS
10
5.36054
20
-4.07037
11
5.35492
21
-4.07318
0
LINE
8
BLACK
6
CONTINUOUS
10
5.35492
20
-4.07318
11
5.35359
21
-4.07345
0
LINE
8
BLACK
6
CONTINUOUS
10
5.35359
20
-4.07345
11
5.35228
21
-4.0738
0
LINE
8
BLACK
6
CONTINUOUS
10
5.35228
20
-4.0738
11
5.33822
21
-4.0738
0
LINE
8
BLACK
6
CONTINUOUS
10
5.33822
20
-4.0738
11
5.3373
21
-4.07356
0
LINE
8
BLACK
6
CONTINUOUS
10
5.3373
20
-4.07356
11
5.33635
21
-4.0735
0
LINE
8
BLACK
6
CONTINUOUS
10
5.33635
20
-4.0735
11
5.32791
21
-4.07069
0
LINE
8
BLACK
6
CONTINUOUS
10
5.32791
20
-4.07069
11
5.32536
21
-4.069
0
LINE
8
BLACK
6
CONTINUOUS
10
5.32536
20
-4.069
11
5.324
21
-4.06627
0
LINE
8
BLACK
6
CONTINUOUS
10
5.324
20
-4.06627
11
5.32418
21
-4.06322
0
LINE
8
BLACK
6
CONTINUOUS
10
5.32418
20
-4.06322
11
5.32586
21
-4.06067
0
LINE
8
BLACK
6
CONTINUOUS
10
5.32586
20
-4.06067
11
5.3286
21
-4.0593
0
LINE
8
BLACK
6
CONTINUOUS
10
5.3286
20
-4.0593
11
5.33165
21
-4.05948
0
LINE
8
BLACK
6
CONTINUOUS
10
5.33165
20
-4.05948
11
5.33918
21
-4.06199
0
LINE
8
BLACK
6
CONTINUOUS
10
5.33918
20
-4.06199
11
5.35088
21
-4.06199
0
LINE
8
BLACK
6
CONTINUOUS
10
5.35088
20
-4.06199
11
5.3544
21
-4.06023
0
LINE
8
BLACK
6
CONTINUOUS
10
5.3544
20
-4.06023
11
5.35586
21
-4.05877
0
LINE
8
BLACK
6
CONTINUOUS
10
5.35586
20
-4.05877
11
5.35762
21
-4.05525
0
LINE
8
BLACK
6
CONTINUOUS
10
5.35762
20
-4.05525
11
5.35762
21
-4.05242
0
LINE
8
BLACK
6
CONTINUOUS
10
5.35762
20
-4.05242
11
5.35586
21
-4.0489
0
LINE
8
BLACK
6
CONTINUOUS
10
5.35586
20
-4.0489
11
5.3544
21
-4.04744
0
LINE
8
BLACK
6
CONTINUOUS
10
5.3544
20
-4.04744
11
5.35022
21
-4.04535
0
LINE
8
BLACK
6
CONTINUOUS
10
5.35022
20
-4.04535
11
5.3396
21
-4.04269
0
LINE
8
BLACK
6
CONTINUOUS
10
5.3396
20
-4.04269
11
5.33903
21
-4.04238
0
LINE
8
BLACK
6
CONTINUOUS
10
5.33903
20
-4.04238
11
5.33839
21
-4.04224
0
LINE
8
BLACK
6
CONTINUOUS
10
5.33839
20
-4.04224
11
5.33276
21
-4.03943
0
LINE
8
BLACK
6
CONTINUOUS
10
5.33276
20
-4.03943
11
5.33205
21
-4.0388
0
LINE
8
BLACK
6
CONTINUOUS
10
5.33205
20
-4.0388
11
5.33123
21
-4.03833
0
LINE
8
BLACK
6
CONTINUOUS
10
5.33123
20
-4.03833
11
5.32842
21
-4.03551
0
LINE
8
BLACK
6
CONTINUOUS
10
5.32842
20
-4.03551
11
5.32794
21
-4.03469
0
LINE
8
BLACK
6
CONTINUOUS
10
5.32794
20
-4.03469
11
5.32731
21
-4.03398
0
LINE
8
BLACK
6
CONTINUOUS
10
5.32731
20
-4.03398
11
5.3245
21
-4.02836
0
LINE
8
BLACK
6
CONTINUOUS
10
5.3245
20
-4.02836
11
5.32423
21
-4.02703
0
LINE
8
BLACK
6
CONTINUOUS
10
5.32423
20
-4.02703
11
5.32388
21
-4.02571
0
LINE
8
BLACK
6
CONTINUOUS
10
5.32388
20
-4.02571
11
5.32388
21
-4.02009
0
LINE
8
BLACK
6
CONTINUOUS
10
5.32388
20
-4.02009
11
5.32423
21
-4.01878
0
LINE
8
BLACK
6
CONTINUOUS
10
5.32423
20
-4.01878
11
5.3245
21
-4.01745
0
LINE
8
BLACK
6
CONTINUOUS
10
5.3245
20
-4.01745
11
5.32731
21
-4.01182
0
LINE
8
BLACK
6
CONTINUOUS
10
5.32731
20
-4.01182
11
5.32794
21
-4.01111
0
LINE
8
BLACK
6
CONTINUOUS
10
5.32794
20
-4.01111
11
5.32842
21
-4.01029
0
LINE
8
BLACK
6
CONTINUOUS
10
5.32842
20
-4.01029
11
5.33123
21
-4.00748
0
LINE
8
BLACK
6
CONTINUOUS
10
5.33123
20
-4.00748
11
5.33205
21
-4.007
0
LINE
8
BLACK
6
CONTINUOUS
10
5.33205
20
-4.007
11
5.33276
21
-4.00637
0
LINE
8
BLACK
6
CONTINUOUS
10
5.33276
20
-4.00637
11
5.33839
21
-4.00356
0
LINE
8
BLACK
6
CONTINUOUS
10
5.33839
20
-4.00356
11
5.33972
21
-4.00329
0
LINE
8
BLACK
6
CONTINUOUS
10
5.33972
20
-4.00329
11
5.34103
21
-4.00294
0
LINE
8
BLACK
6
CONTINUOUS
10
5.34103
20
-4.00294
11
5.35509
21
-4.00294
0
LINE
8
BLACK
6
CONTINUOUS
10
5.35509
20
-4.00294
11
5.35601
21
-4.00318
0
LINE
8
BLACK
6
CONTINUOUS
10
4.95668
20
-4.00318
11
4.95763
21
-4.00324
0
LINE
8
BLACK
6
CONTINUOUS
10
4.95763
20
-4.00324
11
4.96607
21
-4.00605
0
LINE
8
BLACK
6
CONTINUOUS
10
4.96607
20
-4.00605
11
4.96862
21
-4.00774
0
LINE
8
BLACK
6
CONTINUOUS
10
4.96862
20
-4.00774
11
4.96999
21
-4.01047
0
LINE
8
BLACK
6
CONTINUOUS
10
4.96999
20
-4.01047
11
4.9698
21
-4.01352
0
LINE
8
BLACK
6
CONTINUOUS
10
4.9698
20
-4.01352
11
4.96812
21
-4.01607
0
LINE
8
BLACK
6
CONTINUOUS
10
4.96812
20
-4.01607
11
4.96539
21
-4.01744
0
LINE
8
BLACK
6
CONTINUOUS
10
4.96539
20
-4.01744
11
4.96233
21
-4.01726
0
LINE
8
BLACK
6
CONTINUOUS
10
4.96233
20
-4.01726
11
4.95481
21
-4.01475
0
LINE
8
BLACK
6
CONTINUOUS
10
4.95481
20
-4.01475
11
4.9431
21
-4.01475
0
LINE
8
BLACK
6
CONTINUOUS
10
4.9431
20
-4.01475
11
4.93958
21
-4.01651
0
LINE
8
BLACK
6
CONTINUOUS
10
4.93958
20
-4.01651
11
4.93812
21
-4.01796
0
LINE
8
BLACK
6
CONTINUOUS
10
4.93812
20
-4.01796
11
4.93636
21
-4.02148
0
LINE
8
BLACK
6
CONTINUOUS
10
4.93636
20
-4.02148
11
4.93636
21
-4.02432
0
LINE
8
BLACK
6
CONTINUOUS
10
4.93636
20
-4.02432
11
4.93812
21
-4.02784
0
LINE
8
BLACK
6
CONTINUOUS
10
4.93812
20
-4.02784
11
4.93958
21
-4.0293
0
LINE
8
BLACK
6
CONTINUOUS
10
4.93958
20
-4.0293
11
4.94377
21
-4.03139
0
LINE
8
BLACK
6
CONTINUOUS
10
4.94377
20
-4.03139
11
4.95439
21
-4.03405
0
LINE
8
BLACK
6
CONTINUOUS
10
4.95439
20
-4.03405
11
4.95496
21
-4.03436
0
LINE
8
BLACK
6
CONTINUOUS
10
4.95496
20
-4.03436
11
4.95559
21
-4.03449
0
LINE
8
BLACK
6
CONTINUOUS
10
4.95559
20
-4.03449
11
4.96122
21
-4.03731
0
LINE
8
BLACK
6
CONTINUOUS
10
4.96122
20
-4.03731
11
4.96193
21
-4.03794
0
LINE
8
BLACK
6
CONTINUOUS
10
4.96193
20
-4.03794
11
4.96275
21
-4.03841
0
LINE
8
BLACK
6
CONTINUOUS
10
4.96275
20
-4.03841
11
4.96556
21
-4.04122
0
LINE
8
BLACK
6
CONTINUOUS
10
4.96556
20
-4.04122
11
4.96604
21
-4.04205
0
LINE
8
BLACK
6
CONTINUOUS
10
4.96604
20
-4.04205
11
4.96667
21
-4.04276
0
LINE
8
BLACK
6
CONTINUOUS
10
4.96667
20
-4.04276
11
4.96948
21
-4.04838
0
LINE
8
BLACK
6
CONTINUOUS
10
4.96948
20
-4.04838
11
4.96976
21
-4.04971
0
LINE
8
BLACK
6
CONTINUOUS
10
4.96976
20
-4.04971
11
4.97011
21
-4.05102
0
LINE
8
BLACK
6
CONTINUOUS
10
4.97011
20
-4.05102
11
4.97011
21
-4.05665
0
LINE
8
BLACK
6
CONTINUOUS
10
4.97011
20
-4.05665
11
4.96976
21
-4.05796
0
LINE
8
BLACK
6
CONTINUOUS
10
4.96976
20
-4.05796
11
4.96948
21
-4.05929
0
LINE
8
BLACK
6
CONTINUOUS
10
4.96948
20
-4.05929
11
4.96667
21
-4.06491
0
LINE
8
BLACK
6
CONTINUOUS
10
4.96667
20
-4.06491
11
4.96604
21
-4.06562
0
LINE
8
BLACK
6
CONTINUOUS
10
4.96604
20
-4.06562
11
4.96556
21
-4.06645
0
LINE
8
BLACK
6
CONTINUOUS
10
4.96556
20
-4.06645
11
4.96275
21
-4.06926
0
LINE
8
BLACK
6
CONTINUOUS
10
4.96275
20
-4.06926
11
4.96193
21
-4.06974
0
LINE
8
BLACK
6
CONTINUOUS
10
4.96193
20
-4.06974
11
4.96122
21
-4.07037
0
LINE
8
BLACK
6
CONTINUOUS
10
4.96122
20
-4.07037
11
4.95559
21
-4.07318
0
LINE
8
BLACK
6
CONTINUOUS
10
4.95559
20
-4.07318
11
4.95426
21
-4.07345
0
LINE
8
BLACK
6
CONTINUOUS
10
4.95426
20
-4.07345
11
4.95295
21
-4.0738
0
LINE
8
BLACK
6
CONTINUOUS
10
4.95295
20
-4.0738
11
4.93889
21
-4.0738
0
LINE
8
BLACK
6
CONTINUOUS
10
4.93889
20
-4.0738
11
4.93797
21
-4.07356
0
LINE
8
BLACK
6
CONTINUOUS
10
4.93797
20
-4.07356
11
4.93702
21
-4.0735
0
LINE
8
BLACK
6
CONTINUOUS
10
4.93702
20
-4.0735
11
4.92859
21
-4.07069
0
LINE
8
BLACK
6
CONTINUOUS
10
4.92859
20
-4.07069
11
4.92604
21
-4.069
0
LINE
8
BLACK
6
CONTINUOUS
10
4.92604
20
-4.069
11
4.92467
21
-4.06627
0
LINE
8
BLACK
6
CONTINUOUS
10
4.92467
20
-4.06627
11
4.92485
21
-4.06322
0
LINE
8
BLACK
6
CONTINUOUS
10
4.92485
20
-4.06322
11
4.92654
21
-4.06067
0
LINE
8
BLACK
6
CONTINUOUS
10
4.92654
20
-4.06067
11
4.92927
21
-4.0593
0
LINE
8
BLACK
6
CONTINUOUS
10
4.92927
20
-4.0593
11
4.93232
21
-4.05948
0
LINE
8
BLACK
6
CONTINUOUS
10
4.93232
20
-4.05948
11
4.93985
21
-4.06199
0
LINE
8
BLACK
6
CONTINUOUS
10
4.93985
20
-4.06199
11
4.95156
21
-4.06199
0
LINE
8
BLACK
6
CONTINUOUS
10
4.95156
20
-4.06199
11
4.95508
21
-4.06023
0
LINE
8
BLACK
6
CONTINUOUS
10
4.95508
20
-4.06023
11
4.95654
21
-4.05877
0
LINE
8
BLACK
6
CONTINUOUS
10
4.95654
20
-4.05877
11
4.9583
21
-4.05525
0
LINE
8
BLACK
6
CONTINUOUS
10
4.9583
20
-4.05525
11
4.9583
21
-4.05242
0
LINE
8
BLACK
6
CONTINUOUS
10
4.9583
20
-4.05242
11
4.95654
21
-4.0489
0
LINE
8
BLACK
6
CONTINUOUS
10
4.95654
20
-4.0489
11
4.95508
21
-4.04744
0
LINE
8
BLACK
6
CONTINUOUS
10
4.95508
20
-4.04744
11
4.95089
21
-4.04535
0
LINE
8
BLACK
6
CONTINUOUS
10
4.95089
20
-4.04535
11
4.94027
21
-4.04269
0
LINE
8
BLACK
6
CONTINUOUS
10
4.94027
20
-4.04269
11
4.9397
21
-4.04238
0
LINE
8
BLACK
6
CONTINUOUS
10
4.9397
20
-4.04238
11
4.93906
21
-4.04224
0
LINE
8
BLACK
6
CONTINUOUS
10
4.93906
20
-4.04224
11
4.93344
21
-4.03943
0
LINE
8
BLACK
6
CONTINUOUS
10
4.93344
20
-4.03943
11
4.93273
21
-4.0388
0
LINE
8
BLACK
6
CONTINUOUS
10
4.93273
20
-4.0388
11
4.9319
21
-4.03833
0
LINE
8
BLACK
6
CONTINUOUS
10
4.9319
20
-4.03833
11
4.92909
21
-4.03551
0
LINE
8
BLACK
6
CONTINUOUS
10
4.92909
20
-4.03551
11
4.92862
21
-4.03469
0
LINE
8
BLACK
6
CONTINUOUS
10
4.92862
20
-4.03469
11
4.92799
21
-4.03398
0
LINE
8
BLACK
6
CONTINUOUS
10
4.92799
20
-4.03398
11
4.92517
21
-4.02836
0
LINE
8
BLACK
6
CONTINUOUS
10
4.92517
20
-4.02836
11
4.9249
21
-4.02703
0
LINE
8
BLACK
6
CONTINUOUS
10
4.9249
20
-4.02703
11
4.92455
21
-4.02571
0
LINE
8
BLACK
6
CONTINUOUS
10
4.92455
20
-4.02571
11
4.92455
21
-4.02009
0
LINE
8
BLACK
6
CONTINUOUS
10
4.92455
20
-4.02009
11
4.9249
21
-4.01878
0
LINE
8
BLACK
6
CONTINUOUS
10
4.9249
20
-4.01878
11
4.92517
21
-4.01745
0
LINE
8
BLACK
6
CONTINUOUS
10
4.92517
20
-4.01745
11
4.92799
21
-4.01182
0
LINE
8
BLACK
6
CONTINUOUS
10
4.92799
20
-4.01182
11
4.92862
21
-4.01111
0
LINE
8
BLACK
6
CONTINUOUS
10
4.92862
20
-4.01111
11
4.92909
21
-4.01029
0
LINE
8
BLACK
6
CONTINUOUS
10
4.92909
20
-4.01029
11
4.9319
21
-4.00748
0
LINE
8
BLACK
6
CONTINUOUS
10
4.9319
20
-4.00748
11
4.93273
21
-4.007
0
LINE
8
BLACK
6
CONTINUOUS
10
4.93273
20
-4.007
11
4.93344
21
-4.00637
0
LINE
8
BLACK
6
CONTINUOUS
10
4.93344
20
-4.00637
11
4.93906
21
-4.00356
0
LINE
8
BLACK
6
CONTINUOUS
10
4.93906
20
-4.00356
11
4.94039
21
-4.00329
0
LINE
8
BLACK
6
CONTINUOUS
10
4.94039
20
-4.00329
11
4.9417
21
-4.00294
0
LINE
8
BLACK
6
CONTINUOUS
10
4.9417
20
-4.00294
11
4.95576
21
-4.00294
0
LINE
8
BLACK
6
CONTINUOUS
10
4.95576
20
-4.00294
11
4.95668
21
-4.00318
0
LINE
8
BLACK
6
CONTINUOUS
10
5.74448
20
-4.00329
11
5.74581
21
-4.00356
0
LINE
8
BLACK
6
CONTINUOUS
10
5.74581
20
-4.00356
11
5.75143
21
-4.00637
0
LINE
8
BLACK
6
CONTINUOUS
10
5.75143
20
-4.00637
11
5.75214
21
-4.007
0
LINE
8
BLACK
6
CONTINUOUS
10
5.75214
20
-4.007
11
5.75297
21
-4.00748
0
LINE
8
BLACK
6
CONTINUOUS
10
5.75297
20
-4.00748
11
5.75578
21
-4.01029
0
LINE
8
BLACK
6
CONTINUOUS
10
5.75578
20
-4.01029
11
5.75625
21
-4.01111
0
LINE
8
BLACK
6
CONTINUOUS
10
5.75625
20
-4.01111
11
5.75688
21
-4.01182
0
LINE
8
BLACK
6
CONTINUOUS
10
5.75688
20
-4.01182
11
5.7597
21
-4.01745
0
LINE
8
BLACK
6
CONTINUOUS
10
5.7597
20
-4.01745
11
5.75997
21
-4.01878
0
LINE
8
BLACK
6
CONTINUOUS
10
5.75997
20
-4.01878
11
5.76032
21
-4.02009
0
LINE
8
BLACK
6
CONTINUOUS
10
5.76032
20
-4.02009
11
5.76032
21
-4.02571
0
LINE
8
BLACK
6
CONTINUOUS
10
5.76032
20
-4.02571
11
5.75997
21
-4.02703
0
LINE
8
BLACK
6
CONTINUOUS
10
5.75997
20
-4.02703
11
5.7597
21
-4.02836
0
LINE
8
BLACK
6
CONTINUOUS
10
5.7597
20
-4.02836
11
5.75688
21
-4.03398
0
LINE
8
BLACK
6
CONTINUOUS
10
5.75688
20
-4.03398
11
5.75625
21
-4.03469
0
LINE
8
BLACK
6
CONTINUOUS
10
5.75625
20
-4.03469
11
5.75578
21
-4.03551
0
LINE
8
BLACK
6
CONTINUOUS
10
5.75578
20
-4.03551
11
5.75572
21
-4.03557
0
LINE
8
BLACK
6
CONTINUOUS
10
5.75572
20
-4.03557
11
5.75578
21
-4.0356
0
LINE
8
BLACK
6
CONTINUOUS
10
5.75578
20
-4.0356
11
5.75859
21
-4.03841
0
LINE
8
BLACK
6
CONTINUOUS
10
5.75859
20
-4.03841
11
5.75907
21
-4.03923
0
LINE
8
BLACK
6
CONTINUOUS
10
5.75907
20
-4.03923
11
5.7597
21
-4.03995
0
LINE
8
BLACK
6
CONTINUOUS
10
5.7597
20
-4.03995
11
5.76251
21
-4.04557
0
LINE
8
BLACK
6
CONTINUOUS
10
5.76251
20
-4.04557
11
5.76278
21
-4.0469
0
LINE
8
BLACK
6
CONTINUOUS
10
5.76278
20
-4.0469
11
5.76313
21
-4.04821
0
LINE
8
BLACK
6
CONTINUOUS
10
5.76313
20
-4.04821
11
5.76313
21
-4.05665
0
LINE
8
BLACK
6
CONTINUOUS
10
5.76313
20
-4.05665
11
5.76278
21
-4.05796
0
LINE
8
BLACK
6
CONTINUOUS
10
5.76278
20
-4.05796
11
5.76251
21
-4.05929
0
LINE
8
BLACK
6
CONTINUOUS
10
5.76251
20
-4.05929
11
5.7597
21
-4.06491
0
LINE
8
BLACK
6
CONTINUOUS
10
5.7597
20
-4.06491
11
5.75907
21
-4.06562
0
LINE
8
BLACK
6
CONTINUOUS
10
5.75907
20
-4.06562
11
5.75859
21
-4.06645
0
LINE
8
BLACK
6
CONTINUOUS
10
5.75859
20
-4.06645
11
5.75578
21
-4.06926
0
LINE
8
BLACK
6
CONTINUOUS
10
5.75578
20
-4.06926
11
5.75496
21
-4.06974
0
LINE
8
BLACK
6
CONTINUOUS
10
5.75496
20
-4.06974
11
5.75424
21
-4.07037
0
LINE
8
BLACK
6
CONTINUOUS
10
5.75424
20
-4.07037
11
5.74862
21
-4.07318
0
LINE
8
BLACK
6
CONTINUOUS
10
5.74862
20
-4.07318
11
5.74729
21
-4.07345
0
LINE
8
BLACK
6
CONTINUOUS
10
5.74729
20
-4.07345
11
5.74598
21
-4.0738
0
LINE
8
BLACK
6
CONTINUOUS
10
5.74598
20
-4.0738
11
5.72348
21
-4.0738
0
LINE
8
BLACK
6
CONTINUOUS
10
5.72348
20
-4.0738
11
5.72053
21
-4.07301
0
LINE
8
BLACK
6
CONTINUOUS
10
5.72053
20
-4.07301
11
5.71837
21
-4.07085
0
LINE
8
BLACK
6
CONTINUOUS
10
5.71837
20
-4.07085
11
5.71758
21
-4.0679
0
LINE
8
BLACK
6
CONTINUOUS
10
5.71758
20
-4.0679
11
5.71758
21
-4.00884
0
LINE
8
BLACK
6
CONTINUOUS
10
5.71758
20
-4.00884
11
5.71837
21
-4.00589
0
LINE
8
BLACK
6
CONTINUOUS
10
5.71837
20
-4.00589
11
5.72053
21
-4.00373
0
LINE
8
BLACK
6
CONTINUOUS
10
5.72053
20
-4.00373
11
5.72348
21
-4.00294
0
LINE
8
BLACK
6
CONTINUOUS
10
5.72348
20
-4.00294
11
5.74317
21
-4.00294
0
LINE
8
BLACK
6
CONTINUOUS
10
5.74317
20
-4.00294
11
5.74448
21
-4.00329
0
LINE
8
BLACK
6
CONTINUOUS
10
5.72939
20
-4.04287
11
5.72939
21
-4.06199
0
LINE
8
BLACK
6
CONTINUOUS
10
5.72939
20
-4.06199
11
5.74458
21
-4.06199
0
LINE
8
BLACK
6
CONTINUOUS
10
5.74458
20
-4.06199
11
5.7481
21
-4.06023
0
LINE
8
BLACK
6
CONTINUOUS
10
5.7481
20
-4.06023
11
5.74956
21
-4.05877
0
LINE
8
BLACK
6
CONTINUOUS
10
5.74956
20
-4.05877
11
5.75132
21
-4.05525
0
LINE
8
BLACK
6
CONTINUOUS
10
5.75132
20
-4.05525
11
5.75132
21
-4.04961
0
LINE
8
BLACK
6
CONTINUOUS
10
5.75132
20
-4.04961
11
5.74956
21
-4.04609
0
LINE
8
BLACK
6
CONTINUOUS
10
5.74956
20
-4.04609
11
5.74841
21
-4.04494
0
LINE
8
BLACK
6
CONTINUOUS
10
5.74841
20
-4.04494
11
5.74221
21
-4.04287
0
LINE
8
BLACK
6
CONTINUOUS
10
5.74221
20
-4.04287
11
5.72939
21
-4.04287
0
LINE
8
BLACK
6
CONTINUOUS
10
5.72939
20
-4.01475
11
5.72939
21
-4.03106
0
LINE
8
BLACK
6
CONTINUOUS
10
5.72939
20
-4.03106
11
5.74177
21
-4.03106
0
LINE
8
BLACK
6
CONTINUOUS
10
5.74177
20
-4.03106
11
5.74529
21
-4.0293
0
LINE
8
BLACK
6
CONTINUOUS
10
5.74529
20
-4.0293
11
5.74675
21
-4.02784
0
LINE
8
BLACK
6
CONTINUOUS
10
5.74675
20
-4.02784
11
5.74851
21
-4.02432
0
LINE
8
BLACK
6
CONTINUOUS
10
5.74851
20
-4.02432
11
5.74851
21
-4.02148
0
LINE
8
BLACK
6
CONTINUOUS
10
5.74851
20
-4.02148
11
5.74675
21
-4.01796
0
LINE
8
BLACK
6
CONTINUOUS
10
5.74675
20
-4.01796
11
5.74529
21
-4.01651
0
LINE
8
BLACK
6
CONTINUOUS
10
5.74529
20
-4.01651
11
5.74177
21
-4.01475
0
LINE
8
BLACK
6
CONTINUOUS
10
5.74177
20
-4.01475
11
5.72939
21
-4.01475
0
LINE
8
BLACK
6
CONTINUOUS
10
5.68784
20
-4.00318
11
5.68879
21
-4.00324
0
LINE
8
BLACK
6
CONTINUOUS
10
5.68879
20
-4.00324
11
5.69723
21
-4.00605
0
LINE
8
BLACK
6
CONTINUOUS
10
5.69723
20
-4.00605
11
5.69836
21
-4.0068
0
LINE
8
BLACK
6
CONTINUOUS
10
5.69836
20
-4.0068
11
5.69954
21
-4.00748
0
LINE
8
BLACK
6
CONTINUOUS
10
5.69954
20
-4.00748
11
5.70235
21
-4.01029
0
LINE
8
BLACK
6
CONTINUOUS
10
5.70235
20
-4.01029
11
5.70388
21
-4.01294
0
LINE
8
BLACK
6
CONTINUOUS
10
5.70388
20
-4.01294
11
5.70388
21
-4.01599
0
LINE
8
BLACK
6
CONTINUOUS
10
5.70388
20
-4.01599
11
5.70235
21
-4.01864
0
LINE
8
BLACK
6
CONTINUOUS
10
5.70235
20
-4.01864
11
5.6997
21
-4.02017
0
LINE
8
BLACK
6
CONTINUOUS
10
5.6997
20
-4.02017
11
5.69664
21
-4.02017
0
LINE
8
BLACK
6
CONTINUOUS
10
5.69664
20
-4.02017
11
5.694
21
-4.01864
0
LINE
8
BLACK
6
CONTINUOUS
10
5.694
20
-4.01864
11
5.69217
21
-4.01682
0
LINE
8
BLACK
6
CONTINUOUS
10
5.69217
20
-4.01682
11
5.68597
21
-4.01475
0
LINE
8
BLACK
6
CONTINUOUS
10
5.68597
20
-4.01475
11
5.68226
21
-4.01475
0
LINE
8
BLACK
6
CONTINUOUS
10
5.68226
20
-4.01475
11
5.67605
21
-4.01682
0
LINE
8
BLACK
6
CONTINUOUS
10
5.67605
20
-4.01682
11
5.67209
21
-4.02078
0
LINE
8
BLACK
6
CONTINUOUS
10
5.67209
20
-4.02078
11
5.67
21
-4.02496
0
LINE
8
BLACK
6
CONTINUOUS
10
5.67
20
-4.02496
11
5.66752
21
-4.03488
0
LINE
8
BLACK
6
CONTINUOUS
10
5.66752
20
-4.03488
11
5.66752
21
-4.04186
0
LINE
8
BLACK
6
CONTINUOUS
10
5.66752
20
-4.04186
11
5.67
21
-4.05177
0
LINE
8
BLACK
6
CONTINUOUS
10
5.67
20
-4.05177
11
5.67209
21
-4.05596
0
LINE
8
BLACK
6
CONTINUOUS
10
5.67209
20
-4.05596
11
5.67605
21
-4.05992
0
LINE
8
BLACK
6
CONTINUOUS
10
5.67605
20
-4.05992
11
5.68226
21
-4.06199
0
LINE
8
BLACK
6
CONTINUOUS
10
5.68226
20
-4.06199
11
5.68597
21
-4.06199
0
LINE
8
BLACK
6
CONTINUOUS
10
5.68597
20
-4.06199
11
5.69217
21
-4.05992
0
LINE
8
BLACK
6
CONTINUOUS
10
5.69217
20
-4.05992
11
5.694
21
-4.0581
0
LINE
8
BLACK
6
CONTINUOUS
10
5.694
20
-4.0581
11
5.69664
21
-4.05657
0
LINE
8
BLACK
6
CONTINUOUS
10
5.69664
20
-4.05657
11
5.6997
21
-4.05657
0
LINE
8
BLACK
6
CONTINUOUS
10
5.6997
20
-4.05657
11
5.70235
21
-4.0581
0
LINE
8
BLACK
6
CONTINUOUS
10
5.70235
20
-4.0581
11
5.70388
21
-4.06074
0
LINE
8
BLACK
6
CONTINUOUS
10
5.70388
20
-4.06074
11
5.70388
21
-4.0638
0
LINE
8
BLACK
6
CONTINUOUS
10
5.70388
20
-4.0638
11
5.70235
21
-4.06645
0
LINE
8
BLACK
6
CONTINUOUS
10
5.70235
20
-4.06645
11
5.69954
21
-4.06926
0
LINE
8
BLACK
6
CONTINUOUS
10
5.69954
20
-4.06926
11
5.69836
21
-4.06994
0
LINE
8
BLACK
6
CONTINUOUS
10
5.69836
20
-4.06994
11
5.69723
21
-4.07069
0
LINE
8
BLACK
6
CONTINUOUS
10
5.69723
20
-4.07069
11
5.68879
21
-4.0735
0
LINE
8
BLACK
6
CONTINUOUS
10
5.68879
20
-4.0735
11
5.68784
21
-4.07356
0
LINE
8
BLACK
6
CONTINUOUS
10
5.68784
20
-4.07356
11
5.68692
21
-4.0738
0
LINE
8
BLACK
6
CONTINUOUS
10
5.68692
20
-4.0738
11
5.6813
21
-4.0738
0
LINE
8
BLACK
6
CONTINUOUS
10
5.6813
20
-4.0738
11
5.68038
21
-4.07356
0
LINE
8
BLACK
6
CONTINUOUS
10
5.68038
20
-4.07356
11
5.67943
21
-4.0735
0
LINE
8
BLACK
6
CONTINUOUS
10
5.67943
20
-4.0735
11
5.671
21
-4.07069
0
LINE
8
BLACK
6
CONTINUOUS
10
5.671
20
-4.07069
11
5.66986
21
-4.06994
0
LINE
8
BLACK
6
CONTINUOUS
10
5.66986
20
-4.06994
11
5.66869
21
-4.06926
0
LINE
8
BLACK
6
CONTINUOUS
10
5.66869
20
-4.06926
11
5.66306
21
-4.06364
0
LINE
8
BLACK
6
CONTINUOUS
10
5.66306
20
-4.06364
11
5.66259
21
-4.06281
0
LINE
8
BLACK
6
CONTINUOUS
10
5.66259
20
-4.06281
11
5.66196
21
-4.0621
0
LINE
8
BLACK
6
CONTINUOUS
10
5.66196
20
-4.0621
11
5.65914
21
-4.05648
0
LINE
8
BLACK
6
CONTINUOUS
10
5.65914
20
-4.05648
11
5.65901
21
-4.05584
0
LINE
8
BLACK
6
CONTINUOUS
10
5.65901
20
-4.05584
11
5.6587
21
-4.05527
0
LINE
8
BLACK
6
CONTINUOUS
10
5.6587
20
-4.05527
11
5.65588
21
-4.04402
0
LINE
8
BLACK
6
CONTINUOUS
10
5.65588
20
-4.04402
11
5.6559
21
-4.04329
0
LINE
8
BLACK
6
CONTINUOUS
10
5.6559
20
-4.04329
11
5.65571
21
-4.04259
0
LINE
8
BLACK
6
CONTINUOUS
10
5.65571
20
-4.04259
11
5.65571
21
-4.03415
0
LINE
8
BLACK
6
CONTINUOUS
10
5.65571
20
-4.03415
11
5.6559
21
-4.03345
0
LINE
8
BLACK
6
CONTINUOUS
10
5.6559
20
-4.03345
11
5.65588
21
-4.03272
0
LINE
8
BLACK
6
CONTINUOUS
10
5.65588
20
-4.03272
11
5.6587
21
-4.02147
0
LINE
8
BLACK
6
CONTINUOUS
10
5.6587
20
-4.02147
11
5.65901
21
-4.0209
0
LINE
8
BLACK
6
CONTINUOUS
10
5.65901
20
-4.0209
11
5.65914
21
-4.02026
0
LINE
8
BLACK
6
CONTINUOUS
10
5.65914
20
-4.02026
11
5.66196
21
-4.01464
0
LINE
8
BLACK
6
CONTINUOUS
10
5.66196
20
-4.01464
11
5.66259
21
-4.01393
0
LINE
8
BLACK
6
CONTINUOUS
10
5.66259
20
-4.01393
11
5.66306
21
-4.0131
0
LINE
8
BLACK
6
CONTINUOUS
10
5.66306
20
-4.0131
11
5.66869
21
-4.00748
0
LINE
8
BLACK
6
CONTINUOUS
10
5.66869
20
-4.00748
11
5.66986
21
-4.0068
0
LINE
8
BLACK
6
CONTINUOUS
10
5.66986
20
-4.0068
11
5.671
21
-4.00605
0
LINE
8
BLACK
6
CONTINUOUS
10
5.671
20
-4.00605
11
5.67943
21
-4.00324
0
LINE
8
BLACK
6
CONTINUOUS
10
5.67943
20
-4.00324
11
5.68038
21
-4.00318
0
LINE
8
BLACK
6
CONTINUOUS
10
5.68038
20
-4.00318
11
5.6813
21
-4.00294
0
LINE
8
BLACK
6
CONTINUOUS
10
5.6813
20
-4.00294
11
5.68692
21
-4.00294
0
LINE
8
BLACK
6
CONTINUOUS
10
5.68692
20
-4.00294
11
5.68784
21
-4.00318
0
LINE
8
BLACK
6
CONTINUOUS
10
5.40702
20
-4.00329
11
5.40835
21
-4.00356
0
LINE
8
BLACK
6
CONTINUOUS
10
5.40835
20
-4.00356
11
5.41397
21
-4.00637
0
LINE
8
BLACK
6
CONTINUOUS
10
5.41397
20
-4.00637
11
5.41469
21
-4.007
0
LINE
8
BLACK
6
CONTINUOUS
10
5.41469
20
-4.007
11
5.41551
21
-4.00748
0
LINE
8
BLACK
6
CONTINUOUS
10
5.41551
20
-4.00748
11
5.41832
21
-4.01029
0
LINE
8
BLACK
6
CONTINUOUS
10
5.41832
20
-4.01029
11
5.4188
21
-4.01111
0
LINE
8
BLACK
6
CONTINUOUS
10
5.4188
20
-4.01111
11
5.41943
21
-4.01182
0
LINE
8
BLACK
6
CONTINUOUS
10
5.41943
20
-4.01182
11
5.42224
21
-4.01745
0
LINE
8
BLACK
6
CONTINUOUS
10
5.42224
20
-4.01745
11
5.42237
21
-4.01809
0
LINE
8
BLACK
6
CONTINUOUS
10
5.42237
20
-4.01809
11
5.42269
21
-4.01866
0
LINE
8
BLACK
6
CONTINUOUS
10
5.42269
20
-4.01866
11
5.4255
21
-4.02991
0
LINE
8
BLACK
6
CONTINUOUS
10
5.4255
20
-4.02991
11
5.42549
21
-4.03063
0
LINE
8
BLACK
6
CONTINUOUS
10
5.42549
20
-4.03063
11
5.42567
21
-4.03134
0
LINE
8
BLACK
6
CONTINUOUS
10
5.42567
20
-4.03134
11
5.42567
21
-4.0454
0
LINE
8
BLACK
6
CONTINUOUS
10
5.42567
20
-4.0454
11
5.42549
21
-4.0461
0
LINE
8
BLACK
6
CONTINUOUS
10
5.42549
20
-4.0461
11
5.4255
21
-4.04683
0
LINE
8
BLACK
6
CONTINUOUS
10
5.4255
20
-4.04683
11
5.42269
21
-4.05808
0
LINE
8
BLACK
6
CONTINUOUS
10
5.42269
20
-4.05808
11
5.42237
21
-4.05865
0
LINE
8
BLACK
6
CONTINUOUS
10
5.42237
20
-4.05865
11
5.42224
21
-4.05929
0
LINE
8
BLACK
6
CONTINUOUS
10
5.42224
20
-4.05929
11
5.41943
21
-4.06491
0
LINE
8
BLACK
6
CONTINUOUS
10
5.41943
20
-4.06491
11
5.4188
21
-4.06562
0
LINE
8
BLACK
6
CONTINUOUS
10
5.4188
20
-4.06562
11
5.41832
21
-4.06645
0
LINE
8
BLACK
6
CONTINUOUS
10
5.41832
20
-4.06645
11
5.41551
21
-4.06926
0
LINE
8
BLACK
6
CONTINUOUS
10
5.41551
20
-4.06926
11
5.41469
21
-4.06974
0
LINE
8
BLACK
6
CONTINUOUS
10
5.41469
20
-4.06974
11
5.41397
21
-4.07037
0
LINE
8
BLACK
6
CONTINUOUS
10
5.41397
20
-4.07037
11
5.40835
21
-4.07318
0
LINE
8
BLACK
6
CONTINUOUS
10
5.40835
20
-4.07318
11
5.40702
21
-4.07345
0
LINE
8
BLACK
6
CONTINUOUS
10
5.40702
20
-4.07345
11
5.40571
21
-4.0738
0
LINE
8
BLACK
6
CONTINUOUS
10
5.40571
20
-4.0738
11
5.40008
21
-4.0738
0
LINE
8
BLACK
6
CONTINUOUS
10
5.40008
20
-4.0738
11
5.39877
21
-4.07345
0
LINE
8
BLACK
6
CONTINUOUS
10
5.39877
20
-4.07345
11
5.39744
21
-4.07318
0
LINE
8
BLACK
6
CONTINUOUS
10
5.39744
20
-4.07318
11
5.39182
21
-4.07037
0
LINE
8
BLACK
6
CONTINUOUS
10
5.39182
20
-4.07037
11
5.39111
21
-4.06974
0
LINE
8
BLACK
6
CONTINUOUS
10
5.39111
20
-4.06974
11
5.39028
21
-4.06926
0
LINE
8
BLACK
6
CONTINUOUS
10
5.39028
20
-4.06926
11
5.38747
21
-4.06645
0
LINE
8
BLACK
6
CONTINUOUS
10
5.38747
20
-4.06645
11
5.387
21
-4.06562
0
LINE
8
BLACK
6
CONTINUOUS
10
5.387
20
-4.06562
11
5.38637
21
-4.06491
0
LINE
8
BLACK
6
CONTINUOUS
10
5.38637
20
-4.06491
11
5.38355
21
-4.05929
0
LINE
8
BLACK
6
CONTINUOUS
10
5.38355
20
-4.05929
11
5.38342
21
-4.05865
0
LINE
8
BLACK
6
CONTINUOUS
10
5.38342
20
-4.05865
11
5.38311
21
-4.05808
0
LINE
8
BLACK
6
CONTINUOUS
10
5.38311
20
-4.05808
11
5.38029
21
-4.04683
0
LINE
8
BLACK
6
CONTINUOUS
10
5.38029
20
-4.04683
11
5.38031
21
-4.0461
0
LINE
8
BLACK
6
CONTINUOUS
10
5.38031
20
-4.0461
11
5.38012
21
-4.0454
0
LINE
8
BLACK
6
CONTINUOUS
10
5.38012
20
-4.0454
11
5.38012
21
-4.03134
0
LINE
8
BLACK
6
CONTINUOUS
10
5.38012
20
-4.03134
11
5.38031
21
-4.03063
0
LINE
8
BLACK
6
CONTINUOUS
10
5.38031
20
-4.03063
11
5.38029
21
-4.02991
0
LINE
8
BLACK
6
CONTINUOUS
10
5.38029
20
-4.02991
11
5.38311
21
-4.01866
0
LINE
8
BLACK
6
CONTINUOUS
10
5.38311
20
-4.01866
11
5.38342
21
-4.01809
0
LINE
8
BLACK
6
CONTINUOUS
10
5.38342
20
-4.01809
11
5.38355
21
-4.01745
0
LINE
8
BLACK
6
CONTINUOUS
10
5.38355
20
-4.01745
11
5.38637
21
-4.01182
0
LINE
8
BLACK
6
CONTINUOUS
10
5.38637
20
-4.01182
11
5.387
21
-4.01111
0
LINE
8
BLACK
6
CONTINUOUS
10
5.387
20
-4.01111
11
5.38747
21
-4.01029
0
LINE
8
BLACK
6
CONTINUOUS
10
5.38747
20
-4.01029
11
5.39028
21
-4.00748
0
LINE
8
BLACK
6
CONTINUOUS
10
5.39028
20
-4.00748
11
5.39111
21
-4.007
0
LINE
8
BLACK
6
CONTINUOUS
10
5.39111
20
-4.007
11
5.39182
21
-4.00637
0
LINE
8
BLACK
6
CONTINUOUS
10
5.39182
20
-4.00637
11
5.39744
21
-4.00356
0
LINE
8
BLACK
6
CONTINUOUS
10
5.39744
20
-4.00356
11
5.39877
21
-4.00329
0
LINE
8
BLACK
6
CONTINUOUS
10
5.39877
20
-4.00329
11
5.40008
21
-4.00294
0
LINE
8
BLACK
6
CONTINUOUS
10
5.40008
20
-4.00294
11
5.40571
21
-4.00294
0
LINE
8
BLACK
6
CONTINUOUS
10
5.40571
20
-4.00294
11
5.40702
21
-4.00329
0
LINE
8
BLACK
6
CONTINUOUS
10
5.40148
20
-4.01475
11
5.39796
21
-4.01651
0
LINE
8
BLACK
6
CONTINUOUS
10
5.39796
20
-4.01651
11
5.3965
21
-4.01796
0
LINE
8
BLACK
6
CONTINUOUS
10
5.3965
20
-4.01796
11
5.39441
21
-4.02215
0
LINE
8
BLACK
6
CONTINUOUS
10
5.39441
20
-4.02215
11
5.39193
21
-4.03207
0
LINE
8
BLACK
6
CONTINUOUS
10
5.39193
20
-4.03207
11
5.39193
21
-4.04467
0
LINE
8
BLACK
6
CONTINUOUS
10
5.39193
20
-4.04467
11
5.39441
21
-4.05459
0
LINE
8
BLACK
6
CONTINUOUS
10
5.39441
20
-4.05459
11
5.3965
21
-4.05877
0
LINE
8
BLACK
6
CONTINUOUS
10
5.3965
20
-4.05877
11
5.39796
21
-4.06023
0
LINE
8
BLACK
6
CONTINUOUS
10
5.39796
20
-4.06023
11
5.40148
21
-4.06199
0
LINE
8
BLACK
6
CONTINUOUS
10
5.40148
20
-4.06199
11
5.40431
21
-4.06199
0
LINE
8
BLACK
6
CONTINUOUS
10
5.40431
20
-4.06199
11
5.40783
21
-4.06023
0
LINE
8
BLACK
6
CONTINUOUS
10
5.40783
20
-4.06023
11
5.40929
21
-4.05877
0
LINE
8
BLACK
6
CONTINUOUS
10
5.40929
20
-4.05877
11
5.41139
21
-4.05459
0
LINE
8
BLACK
6
CONTINUOUS
10
5.41139
20
-4.05459
11
5.41386
21
-4.04467
0
LINE
8
BLACK
6
CONTINUOUS
10
5.41386
20
-4.04467
11
5.41386
21
-4.03207
0
LINE
8
BLACK
6
CONTINUOUS
10
5.41386
20
-4.03207
11
5.41139
21
-4.02215
0
LINE
8
BLACK
6
CONTINUOUS
10
5.41139
20
-4.02215
11
5.40929
21
-4.01796
0
LINE
8
BLACK
6
CONTINUOUS
10
5.40929
20
-4.01796
11
5.40783
21
-4.01651
0
LINE
8
BLACK
6
CONTINUOUS
10
5.40783
20
-4.01651
11
5.40431
21
-4.01475
0
LINE
8
BLACK
6
CONTINUOUS
10
5.40431
20
-4.01475
11
5.40148
21
-4.01475
0
LINE
8
BLACK
6
CONTINUOUS
10
5.46607
20
-4.00329
11
5.4674
21
-4.00356
0
LINE
8
BLACK
6
CONTINUOUS
10
5.4674
20
-4.00356
11
5.47303
21
-4.00637
0
LINE
8
BLACK
6
CONTINUOUS
10
5.47303
20
-4.00637
11
5.47374
21
-4.007
0
LINE
8
BLACK
6
CONTINUOUS
10
5.47374
20
-4.007
11
5.47456
21
-4.00748
0
LINE
8
BLACK
6
CONTINUOUS
10
5.47456
20
-4.00748
11
5.47738
21
-4.01029
0
LINE
8
BLACK
6
CONTINUOUS
10
5.47738
20
-4.01029
11
5.47785
21
-4.01111
0
LINE
8
BLACK
6
CONTINUOUS
10
5.47785
20
-4.01111
11
5.47848
21
-4.01182
0
LINE
8
BLACK
6
CONTINUOUS
10
5.47848
20
-4.01182
11
5.48129
21
-4.01745
0
LINE
8
BLACK
6
CONTINUOUS
10
5.48129
20
-4.01745
11
5.48157
21
-4.01878
0
LINE
8
BLACK
6
CONTINUOUS
10
5.48157
20
-4.01878
11
5.48192
21
-4.02009
0
LINE
8
BLACK
6
CONTINUOUS
10
5.48192
20
-4.02009
11
5.48192
21
-4.02571
0
LINE
8
BLACK
6
CONTINUOUS
10
5.48192
20
-4.02571
11
5.48167
21
-4.02663
0
LINE
8
BLACK
6
CONTINUOUS
10
5.48167
20
-4.02663
11
5.48161
21
-4.02758
0
LINE
8
BLACK
6
CONTINUOUS
10
5.48161
20
-4.02758
11
5.4788
21
-4.03602
0
LINE
8
BLACK
6
CONTINUOUS
10
5.4788
20
-4.03602
11
5.47805
21
-4.03715
0
LINE
8
BLACK
6
CONTINUOUS
10
5.47805
20
-4.03715
11
5.47738
21
-4.03833
0
LINE
8
BLACK
6
CONTINUOUS
10
5.47738
20
-4.03833
11
5.45371
21
-4.06199
0
LINE
8
BLACK
6
CONTINUOUS
10
5.45371
20
-4.06199
11
5.47601
21
-4.06199
0
LINE
8
BLACK
6
CONTINUOUS
10
5.47601
20
-4.06199
11
5.47897
21
-4.06278
0
LINE
8
BLACK
6
CONTINUOUS
10
5.47897
20
-4.06278
11
5.48113
21
-4.06494
0
LINE
8
BLACK
6
CONTINUOUS
10
5.48113
20
-4.06494
11
5.48192
21
-4.0679
0
LINE
8
BLACK
6
CONTINUOUS
10
5.48192
20
-4.0679
11
5.48113
21
-4.07085
0
LINE
8
BLACK
6
CONTINUOUS
10
5.48113
20
-4.07085
11
5.47897
21
-4.07301
0
LINE
8
BLACK
6
CONTINUOUS
10
5.47897
20
-4.07301
11
5.47601
21
-4.0738
0
LINE
8
BLACK
6
CONTINUOUS
10
5.47601
20
-4.0738
11
5.43945
21
-4.0738
0
LINE
8
BLACK
6
CONTINUOUS
10
5.43945
20
-4.0738
11
5.4387
21
-4.0736
0
LINE
8
BLACK
6
CONTINUOUS
10
5.4387
20
-4.0736
11
5.43793
21
-4.0736
0
LINE
8
BLACK
6
CONTINUOUS
10
5.43793
20
-4.0736
11
5.43725
21
-4.07321
0
LINE
8
BLACK
6
CONTINUOUS
10
5.43725
20
-4.07321
11
5.4365
21
-4.07301
0
LINE
8
BLACK
6
CONTINUOUS
10
5.4365
20
-4.07301
11
5.43595
21
-4.07246
0
LINE
8
BLACK
6
CONTINUOUS
10
5.43595
20
-4.07246
11
5.43528
21
-4.07207
0
LINE
8
BLACK
6
CONTINUOUS
10
5.43528
20
-4.07207
11
5.43489
21
-4.0714
0
LINE
8
BLACK
6
CONTINUOUS
10
5.43489
20
-4.0714
11
5.43434
21
-4.07085
0
LINE
8
BLACK
6
CONTINUOUS
10
5.43434
20
-4.07085
11
5.43414
21
-4.0701
0
LINE
8
BLACK
6
CONTINUOUS
10
5.43414
20
-4.0701
11
5.43375
21
-4.06942
0
LINE
8
BLACK
6
CONTINUOUS
10
5.43375
20
-4.06942
11
5.43375
21
-4.06865
0
LINE
8
BLACK
6
CONTINUOUS
10
5.43375
20
-4.06865
11
5.43355
21
-4.0679
0
LINE
8
BLACK
6
CONTINUOUS
10
5.43355
20
-4.0679
11
5.43375
21
-4.06715
0
LINE
8
BLACK
6
CONTINUOUS
10
5.43375
20
-4.06715
11
5.43375
21
-4.06637
0
LINE
8
BLACK
6
CONTINUOUS
10
5.43375
20
-4.06637
11
5.43414
21
-4.06569
0
LINE
8
BLACK
6
CONTINUOUS
10
5.43414
20
-4.06569
11
5.43434
21
-4.06494
0
LINE
8
BLACK
6
CONTINUOUS
10
5.43434
20
-4.06494
11
5.43489
21
-4.06439
0
LINE
8
BLACK
6
CONTINUOUS
10
5.43489
20
-4.06439
11
5.43528
21
-4.06372
0
LINE
8
BLACK
6
CONTINUOUS
10
5.43528
20
-4.06372
11
5.46804
21
-4.03096
0
LINE
8
BLACK
6
CONTINUOUS
10
5.46804
20
-4.03096
11
5.47011
21
-4.02476
0
LINE
8
BLACK
6
CONTINUOUS
10
5.47011
20
-4.02476
11
5.47011
21
-4.02148
0
LINE
8
BLACK
6
CONTINUOUS
10
5.47011
20
-4.02148
11
5.46835
21
-4.01796
0
LINE
8
BLACK
6
CONTINUOUS
10
5.46835
20
-4.01796
11
5.46689
21
-4.01651
0
LINE
8
BLACK
6
CONTINUOUS
10
5.46689
20
-4.01651
11
5.46337
21
-4.01475
0
LINE
8
BLACK
6
CONTINUOUS
10
5.46337
20
-4.01475
11
5.4521
21
-4.01475
0
LINE
8
BLACK
6
CONTINUOUS
10
5.4521
20
-4.01475
11
5.44858
21
-4.01651
0
LINE
8
BLACK
6
CONTINUOUS
10
5.44858
20
-4.01651
11
5.44644
21
-4.01864
0
LINE
8
BLACK
6
CONTINUOUS
10
5.44644
20
-4.01864
11
5.44379
21
-4.02017
0
LINE
8
BLACK
6
CONTINUOUS
10
5.44379
20
-4.02017
11
5.44074
21
-4.02017
0
LINE
8
BLACK
6
CONTINUOUS
10
5.44074
20
-4.02017
11
5.43809
21
-4.01864
0
LINE
8
BLACK
6
CONTINUOUS
10
5.43809
20
-4.01864
11
5.43656
21
-4.01599
0
LINE
8
BLACK
6
CONTINUOUS
10
5.43656
20
-4.01599
11
5.43656
21
-4.01294
0
LINE
8
BLACK
6
CONTINUOUS
10
5.43656
20
-4.01294
11
5.43809
21
-4.01029
0
LINE
8
BLACK
6
CONTINUOUS
10
5.43809
20
-4.01029
11
5.4409
21
-4.00748
0
LINE
8
BLACK
6
CONTINUOUS
10
5.4409
20
-4.00748
11
5.44173
21
-4.007
0
LINE
8
BLACK
6
CONTINUOUS
10
5.44173
20
-4.007
11
5.44244
21
-4.00637
0
LINE
8
BLACK
6
CONTINUOUS
10
5.44244
20
-4.00637
11
5.44806
21
-4.00356
0
LINE
8
BLACK
6
CONTINUOUS
10
5.44806
20
-4.00356
11
5.44939
21
-4.00329
0
LINE
8
BLACK
6
CONTINUOUS
10
5.44939
20
-4.00329
11
5.4507
21
-4.00294
0
LINE
8
BLACK
6
CONTINUOUS
10
5.4507
20
-4.00294
11
5.46476
21
-4.00294
0
LINE
8
BLACK
6
CONTINUOUS
10
5.46476
20
-4.00294
11
5.46607
21
-4.00329
0
LINE
8
BLACK
6
CONTINUOUS
10
5.52232
20
-4.00329
11
5.52365
21
-4.00356
0
LINE
8
BLACK
6
CONTINUOUS
10
5.52365
20
-4.00356
11
5.52927
21
-4.00637
0
LINE
8
BLACK
6
CONTINUOUS
10
5.52927
20
-4.00637
11
5.52998
21
-4.007
0
LINE
8
BLACK
6
CONTINUOUS
10
5.52998
20
-4.007
11
5.53081
21
-4.00748
0
LINE
8
BLACK
6
CONTINUOUS
10
5.53081
20
-4.00748
11
5.53362
21
-4.01029
0
LINE
8
BLACK
6
CONTINUOUS
10
5.53362
20
-4.01029
11
5.53409
21
-4.01111
0
LINE
8
BLACK
6
CONTINUOUS
10
5.53409
20
-4.01111
11
5.53473
21
-4.01182
0
LINE
8
BLACK
6
CONTINUOUS
10
5.53473
20
-4.01182
11
5.53754
21
-4.01745
0
LINE
8
BLACK
6
CONTINUOUS
10
5.53754
20
-4.01745
11
5.53781
21
-4.01878
0
LINE
8
BLACK
6
CONTINUOUS
10
5.53781
20
-4.01878
11
5.53816
21
-4.02009
0
LINE
8
BLACK
6
CONTINUOUS
10
5.53816
20
-4.02009
11
5.53816
21
-4.02571
0
LINE
8
BLACK
6
CONTINUOUS
10
5.53816
20
-4.02571
11
5.53781
21
-4.02703
0
LINE
8
BLACK
6
CONTINUOUS
10
5.53781
20
-4.02703
11
5.53754
21
-4.02836
0
LINE
8
BLACK
6
CONTINUOUS
10
5.53754
20
-4.02836
11
5.53473
21
-4.03398
0
LINE
8
BLACK
6
CONTINUOUS
10
5.53473
20
-4.03398
11
5.53409
21
-4.03469
0
LINE
8
BLACK
6
CONTINUOUS
10
5.53409
20
-4.03469
11
5.53362
21
-4.03551
0
LINE
8
BLACK
6
CONTINUOUS
10
5.53362
20
-4.03551
11
5.53357
21
-4.03557
0
LINE
8
BLACK
6
CONTINUOUS
10
5.53357
20
-4.03557
11
5.53362
21
-4.0356
0
LINE
8
BLACK
6
CONTINUOUS
10
5.53362
20
-4.0356
11
5.53643
21
-4.03841
0
LINE
8
BLACK
6
CONTINUOUS
10
5.53643
20
-4.03841
11
5.53691
21
-4.03923
0
LINE
8
BLACK
6
CONTINUOUS
10
5.53691
20
-4.03923
11
5.53754
21
-4.03995
0
LINE
8
BLACK
6
CONTINUOUS
10
5.53754
20
-4.03995
11
5.54035
21
-4.04557
0
LINE
8
BLACK
6
CONTINUOUS
10
5.54035
20
-4.04557
11
5.54062
21
-4.0469
0
LINE
8
BLACK
6
CONTINUOUS
10
5.54062
20
-4.0469
11
5.54097
21
-4.04821
0
LINE
8
BLACK
6
CONTINUOUS
10
5.54097
20
-4.04821
11
5.54097
21
-4.05665
0
LINE
8
BLACK
6
CONTINUOUS
10
5.54097
20
-4.05665
11
5.54062
21
-4.05796
0
LINE
8
BLACK
6
CONTINUOUS
10
5.54062
20
-4.05796
11
5.54035
21
-4.05929
0
LINE
8
BLACK
6
CONTINUOUS
10
5.54035
20
-4.05929
11
5.53754
21
-4.06491
0
LINE
8
BLACK
6
CONTINUOUS
10
5.53754
20
-4.06491
11
5.53691
21
-4.06562
0
LINE
8
BLACK
6
CONTINUOUS
10
5.53691
20
-4.06562
11
5.53643
21
-4.06645
0
LINE
8
BLACK
6
CONTINUOUS
10
5.53643
20
-4.06645
11
5.53362
21
-4.06926
0
LINE
8
BLACK
6
CONTINUOUS
10
5.53362
20
-4.06926
11
5.5328
21
-4.06974
0
LINE
8
BLACK
6
CONTINUOUS
10
5.5328
20
-4.06974
11
5.53208
21
-4.07037
0
LINE
8
BLACK
6
CONTINUOUS
10
5.53208
20
-4.07037
11
5.52646
21
-4.07318
0
LINE
8
BLACK
6
CONTINUOUS
10
5.52646
20
-4.07318
11
5.52513
21
-4.07345
0
LINE
8
BLACK
6
CONTINUOUS
10
5.52513
20
-4.07345
11
5.52382
21
-4.0738
0
LINE
8
BLACK
6
CONTINUOUS
10
5.52382
20
-4.0738
11
5.50132
21
-4.0738
0
LINE
8
BLACK
6
CONTINUOUS
10
5.50132
20
-4.0738
11
5.49837
21
-4.07301
0
LINE
8
BLACK
6
CONTINUOUS
10
5.49837
20
-4.07301
11
5.49621
21
-4.07085
0
LINE
8
BLACK
6
CONTINUOUS
10
5.49621
20
-4.07085
11
5.49542
21
-4.0679
0
LINE
8
BLACK
6
CONTINUOUS
10
5.49542
20
-4.0679
11
5.49542
21
-4.00884
0
LINE
8
BLACK
6
CONTINUOUS
10
5.49542
20
-4.00884
11
5.49621
21
-4.00589
0
LINE
8
BLACK
6
CONTINUOUS
10
5.49621
20
-4.00589
11
5.49837
21
-4.00373
0
LINE
8
BLACK
6
CONTINUOUS
10
5.49837
20
-4.00373
11
5.50132
21
-4.00294
0
LINE
8
BLACK
6
CONTINUOUS
10
5.50132
20
-4.00294
11
5.52101
21
-4.00294
0
LINE
8
BLACK
6
CONTINUOUS
10
5.52101
20
-4.00294
11
5.52232
21
-4.00329
0
LINE
8
BLACK
6
CONTINUOUS
10
5.50723
20
-4.04287
11
5.50723
21
-4.06199
0
LINE
8
BLACK
6
CONTINUOUS
10
5.50723
20
-4.06199
11
5.52242
21
-4.06199
0
LINE
8
BLACK
6
CONTINUOUS
10
5.52242
20
-4.06199
11
5.52595
21
-4.06023
0
LINE
8
BLACK
6
CONTINUOUS
10
5.52595
20
-4.06023
11
5.5274
21
-4.05877
0
LINE
8
BLACK
6
CONTINUOUS
10
5.5274
20
-4.05877
11
5.52916
21
-4.05525
0
LINE
8
BLACK
6
CONTINUOUS
10
5.52916
20
-4.05525
11
5.52916
21
-4.04961
0
LINE
8
BLACK
6
CONTINUOUS
10
5.52916
20
-4.04961
11
5.5274
21
-4.04609
0
LINE
8
BLACK
6
CONTINUOUS
10
5.5274
20
-4.04609
11
5.52625
21
-4.04494
0
LINE
8
BLACK
6
CONTINUOUS
10
5.52625
20
-4.04494
11
5.52005
21
-4.04287
0
LINE
8
BLACK
6
CONTINUOUS
10
5.52005
20
-4.04287
11
5.50723
21
-4.04287
0
LINE
8
BLACK
6
CONTINUOUS
10
5.50723
20
-4.01475
11
5.50723
21
-4.03106
0
LINE
8
BLACK
6
CONTINUOUS
10
5.50723
20
-4.03106
11
5.51961
21
-4.03106
0
LINE
8
BLACK
6
CONTINUOUS
10
5.51961
20
-4.03106
11
5.52313
21
-4.0293
0
LINE
8
BLACK
6
CONTINUOUS
10
5.52313
20
-4.0293
11
5.52459
21
-4.02784
0
LINE
8
BLACK
6
CONTINUOUS
10
5.52459
20
-4.02784
11
5.52635
21
-4.02432
0
LINE
8
BLACK
6
CONTINUOUS
10
5.52635
20
-4.02432
11
5.52635
21
-4.02148
0
LINE
8
BLACK
6
CONTINUOUS
10
5.52635
20
-4.02148
11
5.52459
21
-4.01796
0
LINE
8
BLACK
6
CONTINUOUS
10
5.52459
20
-4.01796
11
5.52313
21
-4.01651
0
LINE
8
BLACK
6
CONTINUOUS
10
5.52313
20
-4.01651
11
5.51961
21
-4.01475
0
LINE
8
BLACK
6
CONTINUOUS
10
5.51961
20
-4.01475
11
5.50723
21
-4.01475
0
LINE
8
BLACK
6
CONTINUOUS
10
5.80072
20
-4.00329
11
5.80205
21
-4.00356
0
LINE
8
BLACK
6
CONTINUOUS
10
5.80205
20
-4.00356
11
5.80767
21
-4.00637
0
LINE
8
BLACK
6
CONTINUOUS
10
5.80767
20
-4.00637
11
5.80839
21
-4.007
0
LINE
8
BLACK
6
CONTINUOUS
10
5.80839
20
-4.007
11
5.80921
21
-4.00748
0
LINE
8
BLACK
6
CONTINUOUS
10
5.80921
20
-4.00748
11
5.81202
21
-4.01029
0
LINE
8
BLACK
6
CONTINUOUS
10
5.81202
20
-4.01029
11
5.8125
21
-4.01111
0
LINE
8
BLACK
6
CONTINUOUS
10
5.8125
20
-4.01111
11
5.81313
21
-4.01182
0
LINE
8
BLACK
6
CONTINUOUS
10
5.81313
20
-4.01182
11
5.81594
21
-4.01745
0
LINE
8
BLACK
6
CONTINUOUS
10
5.81594
20
-4.01745
11
5.81607
21
-4.01809
0
LINE
8
BLACK
6
CONTINUOUS
10
5.81607
20
-4.01809
11
5.81639
21
-4.01866
0
LINE
8
BLACK
6
CONTINUOUS
10
5.81639
20
-4.01866
11
5.8192
21
-4.02991
0
LINE
8
BLACK
6
CONTINUOUS
10
5.8192
20
-4.02991
11
5.81919
21
-4.03063
0
LINE
8
BLACK
6
CONTINUOUS
10
5.81919
20
-4.03063
11
5.81938
21
-4.03134
0
LINE
8
BLACK
6
CONTINUOUS
10
5.81938
20
-4.03134
11
5.81938
21
-4.0454
0
LINE
8
BLACK
6
CONTINUOUS
10
5.81938
20
-4.0454
11
5.81919
21
-4.0461
0
LINE
8
BLACK
6
CONTINUOUS
10
5.81919
20
-4.0461
11
5.8192
21
-4.04683
0
LINE
8
BLACK
6
CONTINUOUS
10
5.8192
20
-4.04683
11
5.81639
21
-4.05808
0
LINE
8
BLACK
6
CONTINUOUS
10
5.81639
20
-4.05808
11
5.81607
21
-4.05865
0
LINE
8
BLACK
6
CONTINUOUS
10
5.81607
20
-4.05865
11
5.81594
21
-4.05929
0
LINE
8
BLACK
6
CONTINUOUS
10
5.81594
20
-4.05929
11
5.81313
21
-4.06491
0
LINE
8
BLACK
6
CONTINUOUS
10
5.81313
20
-4.06491
11
5.8125
21
-4.06562
0
LINE
8
BLACK
6
CONTINUOUS
10
5.8125
20
-4.06562
11
5.81202
21
-4.06645
0
LINE
8
BLACK
6
CONTINUOUS
10
5.81202
20
-4.06645
11
5.80921
21
-4.06926
0
LINE
8
BLACK
6
CONTINUOUS
10
5.80921
20
-4.06926
11
5.80839
21
-4.06974
0
LINE
8
BLACK
6
CONTINUOUS
10
5.80839
20
-4.06974
11
5.80767
21
-4.07037
0
LINE
8
BLACK
6
CONTINUOUS
10
5.80767
20
-4.07037
11
5.80205
21
-4.07318
0
LINE
8
BLACK
6
CONTINUOUS
10
5.80205
20
-4.07318
11
5.80072
21
-4.07345
0
LINE
8
BLACK
6
CONTINUOUS
10
5.80072
20
-4.07345
11
5.79941
21
-4.0738
0
LINE
8
BLACK
6
CONTINUOUS
10
5.79941
20
-4.0738
11
5.79379
21
-4.0738
0
LINE
8
BLACK
6
CONTINUOUS
10
5.79379
20
-4.0738
11
5.79247
21
-4.07345
0
LINE
8
BLACK
6
CONTINUOUS
10
5.79247
20
-4.07345
11
5.79114
21
-4.07318
0
LINE
8
BLACK
6
CONTINUOUS
10
5.79114
20
-4.07318
11
5.78552
21
-4.07037
0
LINE
8
BLACK
6
CONTINUOUS
10
5.78552
20
-4.07037
11
5.78481
21
-4.06974
0
LINE
8
BLACK
6
CONTINUOUS
10
5.78481
20
-4.06974
11
5.78398
21
-4.06926
0
LINE
8
BLACK
6
CONTINUOUS
10
5.78398
20
-4.06926
11
5.78117
21
-4.06645
0
LINE
8
BLACK
6
CONTINUOUS
10
5.78117
20
-4.06645
11
5.7807
21
-4.06562
0
LINE
8
BLACK
6
CONTINUOUS
10
5.7807
20
-4.06562
11
5.78007
21
-4.06491
0
LINE
8
BLACK
6
CONTINUOUS
10
5.78007
20
-4.06491
11
5.77725
21
-4.05929
0
LINE
8
BLACK
6
CONTINUOUS
10
5.77725
20
-4.05929
11
5.77712
21
-4.05865
0
LINE
8
BLACK
6
CONTINUOUS
10
5.77712
20
-4.05865
11
5.77681
21
-4.05808
0
LINE
8
BLACK
6
CONTINUOUS
10
5.77681
20
-4.05808
11
5.774
21
-4.04683
0
LINE
8
BLACK
6
CONTINUOUS
10
5.774
20
-4.04683
11
5.77401
21
-4.0461
0
LINE
8
BLACK
6
CONTINUOUS
10
5.77401
20
-4.0461
11
5.77382
21
-4.0454
0
LINE
8
BLACK
6
CONTINUOUS
10
5.77382
20
-4.0454
11
5.77382
21
-4.03134
0
LINE
8
BLACK
6
CONTINUOUS
10
5.77382
20
-4.03134
11
5.77401
21
-4.03063
0
LINE
8
BLACK
6
CONTINUOUS
10
5.77401
20
-4.03063
11
5.774
21
-4.02991
0
LINE
8
BLACK
6
CONTINUOUS
10
5.774
20
-4.02991
11
5.77681
21
-4.01866
0
LINE
8
BLACK
6
CONTINUOUS
10
5.77681
20
-4.01866
11
5.77712
21
-4.01809
0
LINE
8
BLACK
6
CONTINUOUS
10
5.77712
20
-4.01809
11
5.77725
21
-4.01745
0
LINE
8
BLACK
6
CONTINUOUS
10
5.77725
20
-4.01745
11
5.78007
21
-4.01182
0
LINE
8
BLACK
6
CONTINUOUS
10
5.78007
20
-4.01182
11
5.7807
21
-4.01111
0
LINE
8
BLACK
6
CONTINUOUS
10
5.7807
20
-4.01111
11
5.78117
21
-4.01029
0
LINE
8
BLACK
6
CONTINUOUS
10
5.78117
20
-4.01029
11
5.78398
21
-4.00748
0
LINE
8
BLACK
6
CONTINUOUS
10
5.78398
20
-4.00748
11
5.78481
21
-4.007
0
LINE
8
BLACK
6
CONTINUOUS
10
5.78481
20
-4.007
11
5.78552
21
-4.00637
0
LINE
8
BLACK
6
CONTINUOUS
10
5.78552
20
-4.00637
11
5.79114
21
-4.00356
0
LINE
8
BLACK
6
CONTINUOUS
10
5.79114
20
-4.00356
11
5.79247
21
-4.00329
0
LINE
8
BLACK
6
CONTINUOUS
10
5.79247
20
-4.00329
11
5.79379
21
-4.00294
0
LINE
8
BLACK
6
CONTINUOUS
10
5.79379
20
-4.00294
11
5.79941
21
-4.00294
0
LINE
8
BLACK
6
CONTINUOUS
10
5.79941
20
-4.00294
11
5.80072
21
-4.00329
0
LINE
8
BLACK
6
CONTINUOUS
10
5.79518
20
-4.01475
11
5.79166
21
-4.01651
0
LINE
8
BLACK
6
CONTINUOUS
10
5.79166
20
-4.01651
11
5.7902
21
-4.01796
0
LINE
8
BLACK
6
CONTINUOUS
10
5.7902
20
-4.01796
11
5.78811
21
-4.02215
0
LINE
8
BLACK
6
CONTINUOUS
10
5.78811
20
-4.02215
11
5.78563
21
-4.03207
0
LINE
8
BLACK
6
CONTINUOUS
10
5.78563
20
-4.03207
11
5.78563
21
-4.04467
0
LINE
8
BLACK
6
CONTINUOUS
10
5.78563
20
-4.04467
11
5.78811
21
-4.05459
0
LINE
8
BLACK
6
CONTINUOUS
10
5.78811
20
-4.05459
11
5.7902
21
-4.05877
0
LINE
8
BLACK
6
CONTINUOUS
10
5.7902
20
-4.05877
11
5.79166
21
-4.06023
0
LINE
8
BLACK
6
CONTINUOUS
10
5.79166
20
-4.06023
11
5.79518
21
-4.06199
0
LINE
8
BLACK
6
CONTINUOUS
10
5.79518
20
-4.06199
11
5.79802
21
-4.06199
0
LINE
8
BLACK
6
CONTINUOUS
10
5.79802
20
-4.06199
11
5.80154
21
-4.06023
0
LINE
8
BLACK
6
CONTINUOUS
10
5.80154
20
-4.06023
11
5.80299
21
-4.05877
0
LINE
8
BLACK
6
CONTINUOUS
10
5.80299
20
-4.05877
11
5.80509
21
-4.05459
0
LINE
8
BLACK
6
CONTINUOUS
10
5.80509
20
-4.05459
11
5.80756
21
-4.04467
0
LINE
8
BLACK
6
CONTINUOUS
10
5.80756
20
-4.04467
11
5.80756
21
-4.03207
0
LINE
8
BLACK
6
CONTINUOUS
10
5.80756
20
-4.03207
11
5.80509
21
-4.02215
0
LINE
8
BLACK
6
CONTINUOUS
10
5.80509
20
-4.02215
11
5.80299
21
-4.01796
0
LINE
8
BLACK
6
CONTINUOUS
10
5.80299
20
-4.01796
11
5.80154
21
-4.01651
0
LINE
8
BLACK
6
CONTINUOUS
10
5.80154
20
-4.01651
11
5.79802
21
-4.01475
0
LINE
8
BLACK
6
CONTINUOUS
10
5.79802
20
-4.01475
11
5.79518
21
-4.01475
0
LINE
8
BLACK
6
CONTINUOUS
10
5.85978
20
-4.00329
11
5.86111
21
-4.00356
0
LINE
8
BLACK
6
CONTINUOUS
10
5.86111
20
-4.00356
11
5.86673
21
-4.00637
0
LINE
8
BLACK
6
CONTINUOUS
10
5.86673
20
-4.00637
11
5.86744
21
-4.007
0
LINE
8
BLACK
6
CONTINUOUS
10
5.86744
20
-4.007
11
5.86826
21
-4.00748
0
LINE
8
BLACK
6
CONTINUOUS
10
5.86826
20
-4.00748
11
5.87108
21
-4.01029
0
LINE
8
BLACK
6
CONTINUOUS
10
5.87108
20
-4.01029
11
5.87155
21
-4.01111
0
LINE
8
BLACK
6
CONTINUOUS
10
5.87155
20
-4.01111
11
5.87218
21
-4.01182
0
LINE
8
BLACK
6
CONTINUOUS
10
5.87218
20
-4.01182
11
5.875
21
-4.01745
0
LINE
8
BLACK
6
CONTINUOUS
10
5.875
20
-4.01745
11
5.87527
21
-4.01878
0
LINE
8
BLACK
6
CONTINUOUS
10
5.87527
20
-4.01878
11
5.87562
21
-4.02009
0
LINE
8
BLACK
6
CONTINUOUS
10
5.87562
20
-4.02009
11
5.87562
21
-4.02571
0
LINE
8
BLACK
6
CONTINUOUS
10
5.87562
20
-4.02571
11
5.87537
21
-4.02663
0
LINE
8
BLACK
6
CONTINUOUS
10
5.87537
20
-4.02663
11
5.87532
21
-4.02758
0
LINE
8
BLACK
6
CONTINUOUS
10
5.87532
20
-4.02758
11
5.8725
21
-4.03602
0
LINE
8
BLACK
6
CONTINUOUS
10
5.8725
20
-4.03602
11
5.87176
21
-4.03715
0
LINE
8
BLACK
6
CONTINUOUS
10
5.87176
20
-4.03715
11
5.87108
21
-4.03833
0
LINE
8
BLACK
6
CONTINUOUS
10
5.87108
20
-4.03833
11
5.84741
21
-4.06199
0
LINE
8
BLACK
6
CONTINUOUS
10
5.84741
20
-4.06199
11
5.86971
21
-4.06199
0
LINE
8
BLACK
6
CONTINUOUS
10
5.86971
20
-4.06199
11
5.87267
21
-4.06278
0
LINE
8
BLACK
6
CONTINUOUS
10
5.87267
20
-4.06278
11
5.87483
21
-4.06494
0
LINE
8
BLACK
6
CONTINUOUS
10
5.87483
20
-4.06494
11
5.87562
21
-4.0679
0
LINE
8
BLACK
6
CONTINUOUS
10
5.87562
20
-4.0679
11
5.87483
21
-4.07085
0
LINE
8
BLACK
6
CONTINUOUS
10
5.87483
20
-4.07085
11
5.87267
21
-4.07301
0
LINE
8
BLACK
6
CONTINUOUS
10
5.87267
20
-4.07301
11
5.86971
21
-4.0738
0
LINE
8
BLACK
6
CONTINUOUS
10
5.86971
20
-4.0738
11
5.83316
21
-4.0738
0
LINE
8
BLACK
6
CONTINUOUS
10
5.83316
20
-4.0738
11
5.8324
21
-4.0736
0
LINE
8
BLACK
6
CONTINUOUS
10
5.8324
20
-4.0736
11
5.83163
21
-4.0736
0
LINE
8
BLACK
6
CONTINUOUS
10
5.83163
20
-4.0736
11
5.83095
21
-4.07321
0
LINE
8
BLACK
6
CONTINUOUS
10
5.83095
20
-4.07321
11
5.8302
21
-4.07301
0
LINE
8
BLACK
6
CONTINUOUS
10
5.8302
20
-4.07301
11
5.82965
21
-4.07246
0
LINE
8
BLACK
6
CONTINUOUS
10
5.82965
20
-4.07246
11
5.82898
21
-4.07207
0
LINE
8
BLACK
6
CONTINUOUS
10
5.82898
20
-4.07207
11
5.82859
21
-4.0714
0
LINE
8
BLACK
6
CONTINUOUS
10
5.82859
20
-4.0714
11
5.82804
21
-4.07085
0
LINE
8
BLACK
6
CONTINUOUS
10
5.82804
20
-4.07085
11
5.82784
21
-4.0701
0
LINE
8
BLACK
6
CONTINUOUS
10
5.82784
20
-4.0701
11
5.82745
21
-4.06942
0
LINE
8
BLACK
6
CONTINUOUS
10
5.82745
20
-4.06942
11
5.82745
21
-4.06865
0
LINE
8
BLACK
6
CONTINUOUS
10
5.82745
20
-4.06865
11
5.82725
21
-4.0679
0
LINE
8
BLACK
6
CONTINUOUS
10
5.82725
20
-4.0679
11
5.82745
21
-4.06715
0
LINE
8
BLACK
6
CONTINUOUS
10
5.82745
20
-4.06715
11
5.82745
21
-4.06637
0
LINE
8
BLACK
6
CONTINUOUS
10
5.82745
20
-4.06637
11
5.82784
21
-4.06569
0
LINE
8
BLACK
6
CONTINUOUS
10
5.82784
20
-4.06569
11
5.82804
21
-4.06494
0
LINE
8
BLACK
6
CONTINUOUS
10
5.82804
20
-4.06494
11
5.82859
21
-4.06439
0
LINE
8
BLACK
6
CONTINUOUS
10
5.82859
20
-4.06439
11
5.82898
21
-4.06372
0
LINE
8
BLACK
6
CONTINUOUS
10
5.82898
20
-4.06372
11
5.86174
21
-4.03096
0
LINE
8
BLACK
6
CONTINUOUS
10
5.86174
20
-4.03096
11
5.86381
21
-4.02476
0
LINE
8
BLACK
6
CONTINUOUS
10
5.86381
20
-4.02476
11
5.86381
21
-4.02148
0
LINE
8
BLACK
6
CONTINUOUS
10
5.86381
20
-4.02148
11
5.86205
21
-4.01796
0
LINE
8
BLACK
6
CONTINUOUS
10
5.86205
20
-4.01796
11
5.86059
21
-4.01651
0
LINE
8
BLACK
6
CONTINUOUS
10
5.86059
20
-4.01651
11
5.85707
21
-4.01475
0
LINE
8
BLACK
6
CONTINUOUS
10
5.85707
20
-4.01475
11
5.8458
21
-4.01475
0
LINE
8
BLACK
6
CONTINUOUS
10
5.8458
20
-4.01475
11
5.84228
21
-4.01651
0
LINE
8
BLACK
6
CONTINUOUS
10
5.84228
20
-4.01651
11
5.84014
21
-4.01864
0
LINE
8
BLACK
6
CONTINUOUS
10
5.84014
20
-4.01864
11
5.8375
21
-4.02017
0
LINE
8
BLACK
6
CONTINUOUS
10
5.8375
20
-4.02017
11
5.83444
21
-4.02017
0
LINE
8
BLACK
6
CONTINUOUS
10
5.83444
20
-4.02017
11
5.83179
21
-4.01864
0
LINE
8
BLACK
6
CONTINUOUS
10
5.83179
20
-4.01864
11
5.83026
21
-4.01599
0
LINE
8
BLACK
6
CONTINUOUS
10
5.83026
20
-4.01599
11
5.83026
21
-4.01294
0
LINE
8
BLACK
6
CONTINUOUS
10
5.83026
20
-4.01294
11
5.83179
21
-4.01029
0
LINE
8
BLACK
6
CONTINUOUS
10
5.83179
20
-4.01029
11
5.8346
21
-4.00748
0
LINE
8
BLACK
6
CONTINUOUS
10
5.8346
20
-4.00748
11
5.83543
21
-4.007
0
LINE
8
BLACK
6
CONTINUOUS
10
5.83543
20
-4.007
11
5.83614
21
-4.00637
0
LINE
8
BLACK
6
CONTINUOUS
10
5.83614
20
-4.00637
11
5.84176
21
-4.00356
0
LINE
8
BLACK
6
CONTINUOUS
10
5.84176
20
-4.00356
11
5.84309
21
-4.00329
0
LINE
8
BLACK
6
CONTINUOUS
10
5.84309
20
-4.00329
11
5.8444
21
-4.00294
0
LINE
8
BLACK
6
CONTINUOUS
10
5.8444
20
-4.00294
11
5.85846
21
-4.00294
0
LINE
8
BLACK
6
CONTINUOUS
10
5.85846
20
-4.00294
11
5.85978
21
-4.00329
0
LINE
8
BLACK
6
CONTINUOUS
10
5.90778
20
-4.00322
11
5.90814
21
-4.00324
0
LINE
8
BLACK
6
CONTINUOUS
10
5.90814
20
-4.00324
11
5.90913
21
-4.00389
0
LINE
8
BLACK
6
CONTINUOUS
10
5.90913
20
-4.00389
11
5.91019
21
-4.00442
0
LINE
8
BLACK
6
CONTINUOUS
10
5.91019
20
-4.00442
11
5.91039
21
-4.00472
0
LINE
8
BLACK
6
CONTINUOUS
10
5.91039
20
-4.00472
11
5.91069
21
-4.00492
0
LINE
8
BLACK
6
CONTINUOUS
10
5.91069
20
-4.00492
11
5.91122
21
-4.00598
0
LINE
8
BLACK
6
CONTINUOUS
10
5.91122
20
-4.00598
11
5.91187
21
-4.00697
0
LINE
8
BLACK
6
CONTINUOUS
10
5.91187
20
-4.00697
11
5.93156
21
-4.06603
0
LINE
8
BLACK
6
CONTINUOUS
10
5.93156
20
-4.06603
11
5.93174
21
-4.06908
0
LINE
8
BLACK
6
CONTINUOUS
10
5.93174
20
-4.06908
11
5.93037
21
-4.07181
0
LINE
8
BLACK
6
CONTINUOUS
10
5.93037
20
-4.07181
11
5.92782
21
-4.0735
0
LINE
8
BLACK
6
CONTINUOUS
10
5.92782
20
-4.0735
11
5.92477
21
-4.07368
0
LINE
8
BLACK
6
CONTINUOUS
10
5.92477
20
-4.07368
11
5.92204
21
-4.07232
0
LINE
8
BLACK
6
CONTINUOUS
10
5.92204
20
-4.07232
11
5.92035
21
-4.06976
0
LINE
8
BLACK
6
CONTINUOUS
10
5.92035
20
-4.06976
11
5.91608
21
-4.05693
0
LINE
8
BLACK
6
CONTINUOUS
10
5.91608
20
-4.05693
11
5.89647
21
-4.05693
0
LINE
8
BLACK
6
CONTINUOUS
10
5.89647
20
-4.05693
11
5.89219
21
-4.06976
0
LINE
8
BLACK
6
CONTINUOUS
10
5.89219
20
-4.06976
11
5.8905
21
-4.07231
0
LINE
8
BLACK
6
CONTINUOUS
10
5.8905
20
-4.07231
11
5.88777
21
-4.07368
0
LINE
8
BLACK
6
CONTINUOUS
10
5.88777
20
-4.07368
11
5.88472
21
-4.0735
0
LINE
8
BLACK
6
CONTINUOUS
10
5.88472
20
-4.0735
11
5.88217
21
-4.07181
0
LINE
8
BLACK
6
CONTINUOUS
10
5.88217
20
-4.07181
11
5.8808
21
-4.06908
0
LINE
8
BLACK
6
CONTINUOUS
10
5.8808
20
-4.06908
11
5.88098
21
-4.06603
0
LINE
8
BLACK
6
CONTINUOUS
10
5.88098
20
-4.06603
11
5.90067
21
-4.00697
0
LINE
8
BLACK
6
CONTINUOUS
10
5.90067
20
-4.00697
11
5.90132
21
-4.00598
0
LINE
8
BLACK
6
CONTINUOUS
10
5.90132
20
-4.00598
11
5.90185
21
-4.00492
0
LINE
8
BLACK
6
CONTINUOUS
10
5.90185
20
-4.00492
11
5.90215
21
-4.00472
0
LINE
8
BLACK
6
CONTINUOUS
10
5.90215
20
-4.00472
11
5.90235
21
-4.00442
0
LINE
8
BLACK
6
CONTINUOUS
10
5.90235
20
-4.00442
11
5.90341
21
-4.00389
0
LINE
8
BLACK
6
CONTINUOUS
10
5.90341
20
-4.00389
11
5.9044
21
-4.00324
0
LINE
8
BLACK
6
CONTINUOUS
10
5.9044
20
-4.00324
11
5.90476
21
-4.00322
0
LINE
8
BLACK
6
CONTINUOUS
10
5.90476
20
-4.00322
11
5.90509
21
-4.00306
0
LINE
8
BLACK
6
CONTINUOUS
10
5.90509
20
-4.00306
11
5.90627
21
-4.00313
0
LINE
8
BLACK
6
CONTINUOUS
10
5.90627
20
-4.00313
11
5.90745
21
-4.00306
0
LINE
8
BLACK
6
CONTINUOUS
10
5.90745
20
-4.00306
11
5.90778
21
-4.00322
0
LINE
8
BLACK
6
CONTINUOUS
10
5.9004
20
-4.04512
11
5.91214
21
-4.04512
0
LINE
8
BLACK
6
CONTINUOUS
10
5.91214
20
-4.04512
11
5.90627
21
-4.02752
0
LINE
8
BLACK
6
CONTINUOUS
10
5.90627
20
-4.02752
11
5.9004
21
-4.04512
0
LINE
8
BLACK
6
CONTINUOUS
10
5.06132
20
-4.00322
11
5.06168
21
-4.00324
0
LINE
8
BLACK
6
CONTINUOUS
10
5.06168
20
-4.00324
11
5.06267
21
-4.00389
0
LINE
8
BLACK
6
CONTINUOUS
10
5.06267
20
-4.00389
11
5.06373
21
-4.00442
0
LINE
8
BLACK
6
CONTINUOUS
10
5.06373
20
-4.00442
11
5.06393
21
-4.00472
0
LINE
8
BLACK
6
CONTINUOUS
10
5.06393
20
-4.00472
11
5.06423
21
-4.00492
0
LINE
8
BLACK
6
CONTINUOUS
10
5.06423
20
-4.00492
11
5.06476
21
-4.00598
0
LINE
8
BLACK
6
CONTINUOUS
10
5.06476
20
-4.00598
11
5.06542
21
-4.00697
0
LINE
8
BLACK
6
CONTINUOUS
10
5.06542
20
-4.00697
11
5.0851
21
-4.06603
0
LINE
8
BLACK
6
CONTINUOUS
10
5.0851
20
-4.06603
11
5.08529
21
-4.06908
0
LINE
8
BLACK
6
CONTINUOUS
10
5.08529
20
-4.06908
11
5.08392
21
-4.07181
0
LINE
8
BLACK
6
CONTINUOUS
10
5.08392
20
-4.07181
11
5.08137
21
-4.0735
0
LINE
8
BLACK
6
CONTINUOUS
10
5.08137
20
-4.0735
11
5.07832
21
-4.07368
0
LINE
8
BLACK
6
CONTINUOUS
10
5.07832
20
-4.07368
11
5.07558
21
-4.07232
0
LINE
8
BLACK
6
CONTINUOUS
10
5.07558
20
-4.07232
11
5.0739
21
-4.06976
0
LINE
8
BLACK
6
CONTINUOUS
10
5.0739
20
-4.06976
11
5.06962
21
-4.05693
0
LINE
8
BLACK
6
CONTINUOUS
10
5.06962
20
-4.05693
11
5.05001
21
-4.05693
0
LINE
8
BLACK
6
CONTINUOUS
10
5.05001
20
-4.05693
11
5.04573
21
-4.06976
0
LINE
8
BLACK
6
CONTINUOUS
10
5.04573
20
-4.06976
11
5.04405
21
-4.07231
0
LINE
8
BLACK
6
CONTINUOUS
10
5.04405
20
-4.07231
11
5.04131
21
-4.07368
0
LINE
8
BLACK
6
CONTINUOUS
10
5.04131
20
-4.07368
11
5.03826
21
-4.0735
0
LINE
8
BLACK
6
CONTINUOUS
10
5.03826
20
-4.0735
11
5.03571
21
-4.07181
0
LINE
8
BLACK
6
CONTINUOUS
10
5.03571
20
-4.07181
11
5.03434
21
-4.06908
0
LINE
8
BLACK
6
CONTINUOUS
10
5.03434
20
-4.06908
11
5.03453
21
-4.06603
0
LINE
8
BLACK
6
CONTINUOUS
10
5.03453
20
-4.06603
11
5.05421
21
-4.00697
0
LINE
8
BLACK
6
CONTINUOUS
10
5.05421
20
-4.00697
11
5.05487
21
-4.00598
0
LINE
8
BLACK
6
CONTINUOUS
10
5.05487
20
-4.00598
11
5.0554
21
-4.00492
0
LINE
8
BLACK
6
CONTINUOUS
10
5.0554
20
-4.00492
11
5.0557
21
-4.00472
0
LINE
8
BLACK
6
CONTINUOUS
10
5.0557
20
-4.00472
11
5.0559
21
-4.00442
0
LINE
8
BLACK
6
CONTINUOUS
10
5.0559
20
-4.00442
11
5.05696
21
-4.00389
0
LINE
8
BLACK
6
CONTINUOUS
10
5.05696
20
-4.00389
11
5.05795
21
-4.00324
0
LINE
8
BLACK
6
CONTINUOUS
10
5.05795
20
-4.00324
11
5.05831
21
-4.00322
0
LINE
8
BLACK
6
CONTINUOUS
10
5.05831
20
-4.00322
11
5.05863
21
-4.00306
0
LINE
8
BLACK
6
CONTINUOUS
10
5.05863
20
-4.00306
11
5.05981
21
-4.00313
0
LINE
8
BLACK
6
CONTINUOUS
10
5.05981
20
-4.00313
11
5.061
21
-4.00306
0
LINE
8
BLACK
6
CONTINUOUS
10
5.061
20
-4.00306
11
5.06132
21
-4.00322
0
LINE
8
BLACK
6
CONTINUOUS
10
5.05395
20
-4.04512
11
5.06568
21
-4.04512
0
LINE
8
BLACK
6
CONTINUOUS
10
5.06568
20
-4.04512
11
5.05981
21
-4.02752
0
LINE
8
BLACK
6
CONTINUOUS
10
5.05981
20
-4.02752
11
5.05395
21
-4.04512
0
LINE
8
BLACK
6
CONTINUOUS
10
5.32289
20
-3.84373
11
5.32505
21
-3.84589
0
LINE
8
BLACK
6
CONTINUOUS
10
5.32505
20
-3.84589
11
5.32584
21
-3.84884
0
LINE
8
BLACK
6
CONTINUOUS
10
5.32584
20
-3.84884
11
5.32584
21
-3.89665
0
LINE
8
BLACK
6
CONTINUOUS
10
5.32584
20
-3.89665
11
5.32549
21
-3.89796
0
LINE
8
BLACK
6
CONTINUOUS
10
5.32549
20
-3.89796
11
5.32522
21
-3.89929
0
LINE
8
BLACK
6
CONTINUOUS
10
5.32522
20
-3.89929
11
5.32241
21
-3.90491
0
LINE
8
BLACK
6
CONTINUOUS
10
5.32241
20
-3.90491
11
5.32178
21
-3.90562
0
LINE
8
BLACK
6
CONTINUOUS
10
5.32178
20
-3.90562
11
5.3213
21
-3.90645
0
LINE
8
BLACK
6
CONTINUOUS
10
5.3213
20
-3.90645
11
5.31849
21
-3.90926
0
LINE
8
BLACK
6
CONTINUOUS
10
5.31849
20
-3.90926
11
5.31767
21
-3.90974
0
LINE
8
BLACK
6
CONTINUOUS
10
5.31767
20
-3.90974
11
5.31695
21
-3.91037
0
LINE
8
BLACK
6
CONTINUOUS
10
5.31695
20
-3.91037
11
5.31133
21
-3.91318
0
LINE
8
BLACK
6
CONTINUOUS
10
5.31133
20
-3.91318
11
5.31
21
-3.91345
0
LINE
8
BLACK
6
CONTINUOUS
10
5.31
20
-3.91345
11
5.30869
21
-3.9138
0
LINE
8
BLACK
6
CONTINUOUS
10
5.30869
20
-3.9138
11
5.29744
21
-3.9138
0
LINE
8
BLACK
6
CONTINUOUS
10
5.29744
20
-3.9138
11
5.29613
21
-3.91345
0
LINE
8
BLACK
6
CONTINUOUS
10
5.29613
20
-3.91345
11
5.2948
21
-3.91318
0
LINE
8
BLACK
6
CONTINUOUS
10
5.2948
20
-3.91318
11
5.28918
21
-3.91037
0
LINE
8
BLACK
6
CONTINUOUS
10
5.28918
20
-3.91037
11
5.28846
21
-3.90974
0
LINE
8
BLACK
6
CONTINUOUS
10
5.28846
20
-3.90974
11
5.28764
21
-3.90926
0
LINE
8
BLACK
6
CONTINUOUS
10
5.28764
20
-3.90926
11
5.28483
21
-3.90645
0
LINE
8
BLACK
6
CONTINUOUS
10
5.28483
20
-3.90645
11
5.28435
21
-3.90562
0
LINE
8
BLACK
6
CONTINUOUS
10
5.28435
20
-3.90562
11
5.28372
21
-3.90491
0
LINE
8
BLACK
6
CONTINUOUS
10
5.28372
20
-3.90491
11
5.28091
21
-3.89929
0
LINE
8
BLACK
6
CONTINUOUS
10
5.28091
20
-3.89929
11
5.28064
21
-3.89796
0
LINE
8
BLACK
6
CONTINUOUS
10
5.28064
20
-3.89796
11
5.28029
21
-3.89665
0
LINE
8
BLACK
6
CONTINUOUS
10
5.28029
20
-3.89665
11
5.28029
21
-3.84884
0
LINE
8
BLACK
6
CONTINUOUS
10
5.28029
20
-3.84884
11
5.28108
21
-3.84589
0
LINE
8
BLACK
6
CONTINUOUS
10
5.28108
20
-3.84589
11
5.28324
21
-3.84373
0
LINE
8
BLACK
6
CONTINUOUS
10
5.28324
20
-3.84373
11
5.28619
21
-3.84294
0
LINE
8
BLACK
6
CONTINUOUS
10
5.28619
20
-3.84294
11
5.28915
21
-3.84373
0
LINE
8
BLACK
6
CONTINUOUS
10
5.28915
20
-3.84373
11
5.29131
21
-3.84589
0
LINE
8
BLACK
6
CONTINUOUS
10
5.29131
20
-3.84589
11
5.2921
21
-3.84884
0
LINE
8
BLACK
6
CONTINUOUS
10
5.2921
20
-3.84884
11
5.2921
21
-3.89525
0
LINE
8
BLACK
6
CONTINUOUS
10
5.2921
20
-3.89525
11
5.29386
21
-3.89877
0
LINE
8
BLACK
6
CONTINUOUS
10
5.29386
20
-3.89877
11
5.29531
21
-3.90023
0
LINE
8
BLACK
6
CONTINUOUS
10
5.29531
20
-3.90023
11
5.29884
21
-3.90199
0
LINE
8
BLACK
6
CONTINUOUS
10
5.29884
20
-3.90199
11
5.3073
21
-3.90199
0
LINE
8
BLACK
6
CONTINUOUS
10
5.3073
20
-3.90199
11
5.31082
21
-3.90023
0
LINE
8
BLACK
6
CONTINUOUS
10
5.31082
20
-3.90023
11
5.31227
21
-3.89877
0
LINE
8
BLACK
6
CONTINUOUS
10
5.31227
20
-3.89877
11
5.31403
21
-3.89525
0
LINE
8
BLACK
6
CONTINUOUS
10
5.31403
20
-3.89525
11
5.31403
21
-3.84884
0
LINE
8
BLACK
6
CONTINUOUS
10
5.31403
20
-3.84884
11
5.31482
21
-3.84589
0
LINE
8
BLACK
6
CONTINUOUS
10
5.31482
20
-3.84589
11
5.31699
21
-3.84373
0
LINE
8
BLACK
6
CONTINUOUS
10
5.31699
20
-3.84373
11
5.31994
21
-3.84294
0
LINE
8
BLACK
6
CONTINUOUS
10
5.31994
20
-3.84294
11
5.32289
21
-3.84373
0
LINE
8
BLACK
6
CONTINUOUS
10
5.4515
20
-3.89696
11
5.45225
21
-3.89716
0
LINE
8
BLACK
6
CONTINUOUS
10
5.45225
20
-3.89716
11
5.4528
21
-3.89771
0
LINE
8
BLACK
6
CONTINUOUS
10
5.4528
20
-3.89771
11
5.45347
21
-3.8981
0
LINE
8
BLACK
6
CONTINUOUS
10
5.45347
20
-3.8981
11
5.45628
21
-3.90091
0
LINE
8
BLACK
6
CONTINUOUS
10
5.45628
20
-3.90091
11
5.45628
21
-3.90091
0
LINE
8
BLACK
6
CONTINUOUS
10
5.45628
20
-3.90091
11
5.45628
21
-3.90091
0
LINE
8
BLACK
6
CONTINUOUS
10
5.45628
20
-3.90091
11
5.45633
21
-3.90099
0
LINE
8
BLACK
6
CONTINUOUS
10
5.45633
20
-3.90099
11
5.45781
21
-3.90356
0
LINE
8
BLACK
6
CONTINUOUS
10
5.45781
20
-3.90356
11
5.45781
21
-3.90661
0
LINE
8
BLACK
6
CONTINUOUS
10
5.45781
20
-3.90661
11
5.45728
21
-3.90754
0
LINE
8
BLACK
6
CONTINUOUS
10
5.45728
20
-3.90754
11
5.45643
21
-3.909
0
LINE
8
BLACK
6
CONTINUOUS
10
5.45643
20
-3.909
11
5.45628
21
-3.90926
0
LINE
8
BLACK
6
CONTINUOUS
10
5.45628
20
-3.90926
11
5.45347
21
-3.91207
0
LINE
8
BLACK
6
CONTINUOUS
10
5.45347
20
-3.91207
11
5.45305
21
-3.91232
0
LINE
8
BLACK
6
CONTINUOUS
10
5.45305
20
-3.91232
11
5.4528
21
-3.91246
0
LINE
8
BLACK
6
CONTINUOUS
10
5.4528
20
-3.91246
11
5.45225
21
-3.91301
0
LINE
8
BLACK
6
CONTINUOUS
10
5.45225
20
-3.91301
11
5.4515
21
-3.91321
0
LINE
8
BLACK
6
CONTINUOUS
10
5.4515
20
-3.91321
11
5.45083
21
-3.9136
0
LINE
8
BLACK
6
CONTINUOUS
10
5.45083
20
-3.9136
11
5.45005
21
-3.9136
0
LINE
8
BLACK
6
CONTINUOUS
10
5.45005
20
-3.9136
11
5.4493
21
-3.9138
0
LINE
8
BLACK
6
CONTINUOUS
10
5.4493
20
-3.9138
11
5.44855
21
-3.9136
0
LINE
8
BLACK
6
CONTINUOUS
10
5.44855
20
-3.9136
11
5.44777
21
-3.9136
0
LINE
8
BLACK
6
CONTINUOUS
10
5.44777
20
-3.9136
11
5.4471
21
-3.91321
0
LINE
8
BLACK
6
CONTINUOUS
10
5.4471
20
-3.91321
11
5.44634
21
-3.91301
0
LINE
8
BLACK
6
CONTINUOUS
10
5.44634
20
-3.91301
11
5.44579
21
-3.91246
0
LINE
8
BLACK
6
CONTINUOUS
10
5.44579
20
-3.91246
11
5.44512
21
-3.91207
0
LINE
8
BLACK
6
CONTINUOUS
10
5.44512
20
-3.91207
11
5.44512
21
-3.91207
0
LINE
8
BLACK
6
CONTINUOUS
10
5.44512
20
-3.91207
11
5.44512
21
-3.91207
0
LINE
8
BLACK
6
CONTINUOUS
10
5.44512
20
-3.91207
11
5.44231
21
-3.90926
0
LINE
8
BLACK
6
CONTINUOUS
10
5.44231
20
-3.90926
11
5.44132
21
-3.90754
0
LINE
8
BLACK
6
CONTINUOUS
10
5.44132
20
-3.90754
11
5.44078
21
-3.90661
0
LINE
8
BLACK
6
CONTINUOUS
10
5.44078
20
-3.90661
11
5.44078
21
-3.90356
0
LINE
8
BLACK
6
CONTINUOUS
10
5.44078
20
-3.90356
11
5.44226
21
-3.90099
0
LINE
8
BLACK
6
CONTINUOUS
10
5.44226
20
-3.90099
11
5.44231
21
-3.90091
0
LINE
8
BLACK
6
CONTINUOUS
10
5.44231
20
-3.90091
11
5.44512
21
-3.8981
0
LINE
8
BLACK
6
CONTINUOUS
10
5.44512
20
-3.8981
11
5.44579
21
-3.89771
0
LINE
8
BLACK
6
CONTINUOUS
10
5.44579
20
-3.89771
11
5.44634
21
-3.89716
0
LINE
8
BLACK
6
CONTINUOUS
10
5.44634
20
-3.89716
11
5.4471
21
-3.89696
0
LINE
8
BLACK
6
CONTINUOUS
10
5.4471
20
-3.89696
11
5.44716
21
-3.89692
0
LINE
8
BLACK
6
CONTINUOUS
10
5.44716
20
-3.89692
11
5.44777
21
-3.89657
0
LINE
8
BLACK
6
CONTINUOUS
10
5.44777
20
-3.89657
11
5.44855
21
-3.89657
0
LINE
8
BLACK
6
CONTINUOUS
10
5.44855
20
-3.89657
11
5.4493
21
-3.89637
0
LINE
8
BLACK
6
CONTINUOUS
10
5.4493
20
-3.89637
11
5.45005
21
-3.89657
0
LINE
8
BLACK
6
CONTINUOUS
10
5.45005
20
-3.89657
11
5.45083
21
-3.89657
0
LINE
8
BLACK
6
CONTINUOUS
10
5.45083
20
-3.89657
11
5.4515
21
-3.89696
0
LINE
8
BLACK
6
CONTINUOUS
10
5.50083
20
-3.84318
11
5.50178
21
-3.84324
0
LINE
8
BLACK
6
CONTINUOUS
10
5.50178
20
-3.84324
11
5.51022
21
-3.84605
0
LINE
8
BLACK
6
CONTINUOUS
10
5.51022
20
-3.84605
11
5.51135
21
-3.8468
0
LINE
8
BLACK
6
CONTINUOUS
10
5.51135
20
-3.8468
11
5.51253
21
-3.84748
0
LINE
8
BLACK
6
CONTINUOUS
10
5.51253
20
-3.84748
11
5.51534
21
-3.85029
0
LINE
8
BLACK
6
CONTINUOUS
10
5.51534
20
-3.85029
11
5.51687
21
-3.85294
0
LINE
8
BLACK
6
CONTINUOUS
10
5.51687
20
-3.85294
11
5.51687
21
-3.85599
0
LINE
8
BLACK
6
CONTINUOUS
10
5.51687
20
-3.85599
11
5.51534
21
-3.85864
0
LINE
8
BLACK
6
CONTINUOUS
10
5.51534
20
-3.85864
11
5.51269
21
-3.86017
0
LINE
8
BLACK
6
CONTINUOUS
10
5.51269
20
-3.86017
11
5.50964
21
-3.86017
0
LINE
8
BLACK
6
CONTINUOUS
10
5.50964
20
-3.86017
11
5.50699
21
-3.85864
0
LINE
8
BLACK
6
CONTINUOUS
10
5.50699
20
-3.85864
11
5.50516
21
-3.85682
0
LINE
8
BLACK
6
CONTINUOUS
10
5.50516
20
-3.85682
11
5.49896
21
-3.85475
0
LINE
8
BLACK
6
CONTINUOUS
10
5.49896
20
-3.85475
11
5.49525
21
-3.85475
0
LINE
8
BLACK
6
CONTINUOUS
10
5.49525
20
-3.85475
11
5.48904
21
-3.85682
0
LINE
8
BLACK
6
CONTINUOUS
10
5.48904
20
-3.85682
11
5.48508
21
-3.86078
0
LINE
8
BLACK
6
CONTINUOUS
10
5.48508
20
-3.86078
11
5.48299
21
-3.86496
0
LINE
8
BLACK
6
CONTINUOUS
10
5.48299
20
-3.86496
11
5.48051
21
-3.87488
0
LINE
8
BLACK
6
CONTINUOUS
10
5.48051
20
-3.87488
11
5.48051
21
-3.88186
0
LINE
8
BLACK
6
CONTINUOUS
10
5.48051
20
-3.88186
11
5.48299
21
-3.89177
0
LINE
8
BLACK
6
CONTINUOUS
10
5.48299
20
-3.89177
11
5.48508
21
-3.89596
0
LINE
8
BLACK
6
CONTINUOUS
10
5.48508
20
-3.89596
11
5.48904
21
-3.89992
0
LINE
8
BLACK
6
CONTINUOUS
10
5.48904
20
-3.89992
11
5.49525
21
-3.90199
0
LINE
8
BLACK
6
CONTINUOUS
10
5.49525
20
-3.90199
11
5.49896
21
-3.90199
0
LINE
8
BLACK
6
CONTINUOUS
10
5.49896
20
-3.90199
11
5.50516
21
-3.89992
0
LINE
8
BLACK
6
CONTINUOUS
10
5.50516
20
-3.89992
11
5.50699
21
-3.8981
0
LINE
8
BLACK
6
CONTINUOUS
10
5.50699
20
-3.8981
11
5.50964
21
-3.89657
0
LINE
8
BLACK
6
CONTINUOUS
10
5.50964
20
-3.89657
11
5.51269
21
-3.89657
0
LINE
8
BLACK
6
CONTINUOUS
10
5.51269
20
-3.89657
11
5.51534
21
-3.8981
0
LINE
8
BLACK
6
CONTINUOUS
10
5.51534
20
-3.8981
11
5.51687
21
-3.90074
0
LINE
8
BLACK
6
CONTINUOUS
10
5.51687
20
-3.90074
11
5.51687
21
-3.9038
0
LINE
8
BLACK
6
CONTINUOUS
10
5.51687
20
-3.9038
11
5.51534
21
-3.90645
0
LINE
8
BLACK
6
CONTINUOUS
10
5.51534
20
-3.90645
11
5.51253
21
-3.90926
0
LINE
8
BLACK
6
CONTINUOUS
10
5.51253
20
-3.90926
11
5.51135
21
-3.90994
0
LINE
8
BLACK
6
CONTINUOUS
10
5.51135
20
-3.90994
11
5.51022
21
-3.91069
0
LINE
8
BLACK
6
CONTINUOUS
10
5.51022
20
-3.91069
11
5.50178
21
-3.9135
0
LINE
8
BLACK
6
CONTINUOUS
10
5.50178
20
-3.9135
11
5.50083
21
-3.91356
0
LINE
8
BLACK
6
CONTINUOUS
10
5.50083
20
-3.91356
11
5.49992
21
-3.9138
0
LINE
8
BLACK
6
CONTINUOUS
10
5.49992
20
-3.9138
11
5.49429
21
-3.9138
0
LINE
8
BLACK
6
CONTINUOUS
10
5.49429
20
-3.9138
11
5.49337
21
-3.91356
0
LINE
8
BLACK
6
CONTINUOUS
10
5.49337
20
-3.91356
11
5.49242
21
-3.9135
0
LINE
8
BLACK
6
CONTINUOUS
10
5.49242
20
-3.9135
11
5.48399
21
-3.91069
0
LINE
8
BLACK
6
CONTINUOUS
10
5.48399
20
-3.91069
11
5.48285
21
-3.90994
0
LINE
8
BLACK
6
CONTINUOUS
10
5.48285
20
-3.90994
11
5.48168
21
-3.90926
0
LINE
8
BLACK
6
CONTINUOUS
10
5.48168
20
-3.90926
11
5.47605
21
-3.90364
0
LINE
8
BLACK
6
CONTINUOUS
10
5.47605
20
-3.90364
11
5.47558
21
-3.90281
0
LINE
8
BLACK
6
CONTINUOUS
10
5.47558
20
-3.90281
11
5.47495
21
-3.9021
0
LINE
8
BLACK
6
CONTINUOUS
10
5.47495
20
-3.9021
11
5.47214
21
-3.89648
0
LINE
8
BLACK
6
CONTINUOUS
10
5.47214
20
-3.89648
11
5.47201
21
-3.89584
0
LINE
8
BLACK
6
CONTINUOUS
10
5.47201
20
-3.89584
11
5.47169
21
-3.89527
0
LINE
8
BLACK
6
CONTINUOUS
10
5.47169
20
-3.89527
11
5.46888
21
-3.88402
0
LINE
8
BLACK
6
CONTINUOUS
10
5.46888
20
-3.88402
11
5.46889
21
-3.88329
0
LINE
8
BLACK
6
CONTINUOUS
10
5.46889
20
-3.88329
11
5.4687
21
-3.88259
0
LINE
8
BLACK
6
CONTINUOUS
10
5.4687
20
-3.88259
11
5.4687
21
-3.87415
0
LINE
8
BLACK
6
CONTINUOUS
10
5.4687
20
-3.87415
11
5.46889
21
-3.87345
0
LINE
8
BLACK
6
CONTINUOUS
10
5.46889
20
-3.87345
11
5.46888
21
-3.87272
0
LINE
8
BLACK
6
CONTINUOUS
10
5.46888
20
-3.87272
11
5.47169
21
-3.86147
0
LINE
8
BLACK
6
CONTINUOUS
10
5.47169
20
-3.86147
11
5.47201
21
-3.8609
0
LINE
8
BLACK
6
CONTINUOUS
10
5.47201
20
-3.8609
11
5.47214
21
-3.86026
0
LINE
8
BLACK
6
CONTINUOUS
10
5.47214
20
-3.86026
11
5.47495
21
-3.85464
0
LINE
8
BLACK
6
CONTINUOUS
10
5.47495
20
-3.85464
11
5.47558
21
-3.85393
0
LINE
8
BLACK
6
CONTINUOUS
10
5.47558
20
-3.85393
11
5.47605
21
-3.8531
0
LINE
8
BLACK
6
CONTINUOUS
10
5.47605
20
-3.8531
11
5.48168
21
-3.84748
0
LINE
8
BLACK
6
CONTINUOUS
10
5.48168
20
-3.84748
11
5.48285
21
-3.8468
0
LINE
8
BLACK
6
CONTINUOUS
10
5.48285
20
-3.8468
11
5.48399
21
-3.84605
0
LINE
8
BLACK
6
CONTINUOUS
10
5.48399
20
-3.84605
11
5.49242
21
-3.84324
0
LINE
8
BLACK
6
CONTINUOUS
10
5.49242
20
-3.84324
11
5.49337
21
-3.84318
0
LINE
8
BLACK
6
CONTINUOUS
10
5.49337
20
-3.84318
11
5.49429
21
-3.84294
0
LINE
8
BLACK
6
CONTINUOUS
10
5.49429
20
-3.84294
11
5.49992
21
-3.84294
0
LINE
8
BLACK
6
CONTINUOUS
10
5.49992
20
-3.84294
11
5.50083
21
-3.84318
0
LINE
8
BLACK
6
CONTINUOUS
10
5.43256
20
-3.84373
11
5.43473
21
-3.84589
0
LINE
8
BLACK
6
CONTINUOUS
10
5.43473
20
-3.84589
11
5.43552
21
-3.84884
0
LINE
8
BLACK
6
CONTINUOUS
10
5.43552
20
-3.84884
11
5.43473
21
-3.85179
0
LINE
8
BLACK
6
CONTINUOUS
10
5.43473
20
-3.85179
11
5.43256
21
-3.85396
0
LINE
8
BLACK
6
CONTINUOUS
10
5.43256
20
-3.85396
11
5.42961
21
-3.85475
0
LINE
8
BLACK
6
CONTINUOUS
10
5.42961
20
-3.85475
11
5.41864
21
-3.85475
0
LINE
8
BLACK
6
CONTINUOUS
10
5.41864
20
-3.85475
11
5.41864
21
-3.9079
0
LINE
8
BLACK
6
CONTINUOUS
10
5.41864
20
-3.9079
11
5.41785
21
-3.91085
0
LINE
8
BLACK
6
CONTINUOUS
10
5.41785
20
-3.91085
11
5.41569
21
-3.91301
0
LINE
8
BLACK
6
CONTINUOUS
10
5.41569
20
-3.91301
11
5.41274
21
-3.9138
0
LINE
8
BLACK
6
CONTINUOUS
10
5.41274
20
-3.9138
11
5.40979
21
-3.91301
0
LINE
8
BLACK
6
CONTINUOUS
10
5.40979
20
-3.91301
11
5.40762
21
-3.91085
0
LINE
8
BLACK
6
CONTINUOUS
10
5.40762
20
-3.91085
11
5.40683
21
-3.9079
0
LINE
8
BLACK
6
CONTINUOUS
10
5.40683
20
-3.9079
11
5.40683
21
-3.85475
0
LINE
8
BLACK
6
CONTINUOUS
10
5.40683
20
-3.85475
11
5.39587
21
-3.85475
0
LINE
8
BLACK
6
CONTINUOUS
10
5.39587
20
-3.85475
11
5.39291
21
-3.85396
0
LINE
8
BLACK
6
CONTINUOUS
10
5.39291
20
-3.85396
11
5.39075
21
-3.85179
0
LINE
8
BLACK
6
CONTINUOUS
10
5.39075
20
-3.85179
11
5.38996
21
-3.84884
0
LINE
8
BLACK
6
CONTINUOUS
10
5.38996
20
-3.84884
11
5.39075
21
-3.84589
0
LINE
8
BLACK
6
CONTINUOUS
10
5.39075
20
-3.84589
11
5.39291
21
-3.84373
0
LINE
8
BLACK
6
CONTINUOUS
10
5.39291
20
-3.84373
11
5.39587
21
-3.84294
0
LINE
8
BLACK
6
CONTINUOUS
10
5.39587
20
-3.84294
11
5.42961
21
-3.84294
0
LINE
8
BLACK
6
CONTINUOUS
10
5.42961
20
-3.84294
11
5.43256
21
-3.84373
0
LINE
8
BLACK
6
CONTINUOUS
10
5.57041
20
-3.84299
11
5.5706
21
-3.84295
0
LINE
8
BLACK
6
CONTINUOUS
10
5.5706
20
-3.84295
11
5.57187
21
-3.84338
0
LINE
8
BLACK
6
CONTINUOUS
10
5.57187
20
-3.84338
11
5.57317
21
-3.84373
0
LINE
8
BLACK
6
CONTINUOUS
10
5.57317
20
-3.84373
11
5.57331
21
-3.84387
0
LINE
8
BLACK
6
CONTINUOUS
10
5.57331
20
-3.84387
11
5.5735
21
-3.84393
0
LINE
8
BLACK
6
CONTINUOUS
10
5.5735
20
-3.84393
11
5.57438
21
-3.84494
0
LINE
8
BLACK
6
CONTINUOUS
10
5.57438
20
-3.84494
11
5.57533
21
-3.84589
0
LINE
8
BLACK
6
CONTINUOUS
10
5.57533
20
-3.84589
11
5.57538
21
-3.84608
0
LINE
8
BLACK
6
CONTINUOUS
10
5.57538
20
-3.84608
11
5.57551
21
-3.84622
0
LINE
8
BLACK
6
CONTINUOUS
10
5.57551
20
-3.84622
11
5.57578
21
-3.84754
0
LINE
8
BLACK
6
CONTINUOUS
10
5.57578
20
-3.84754
11
5.57612
21
-3.84884
0
LINE
8
BLACK
6
CONTINUOUS
10
5.57612
20
-3.84884
11
5.57607
21
-3.84903
0
LINE
8
BLACK
6
CONTINUOUS
10
5.57607
20
-3.84903
11
5.57611
21
-3.84922
0
LINE
8
BLACK
6
CONTINUOUS
10
5.57611
20
-3.84922
11
5.57568
21
-3.8505
0
LINE
8
BLACK
6
CONTINUOUS
10
5.57568
20
-3.8505
11
5.57533
21
-3.85179
0
LINE
8
BLACK
6
CONTINUOUS
10
5.57533
20
-3.85179
11
5.5752
21
-3.85193
0
LINE
8
BLACK
6
CONTINUOUS
10
5.5752
20
-3.85193
11
5.57513
21
-3.85212
0
LINE
8
BLACK
6
CONTINUOUS
10
5.57513
20
-3.85212
11
5.54188
21
-3.90199
0
LINE
8
BLACK
6
CONTINUOUS
10
5.54188
20
-3.90199
11
5.57022
21
-3.90199
0
LINE
8
BLACK
6
CONTINUOUS
10
5.57022
20
-3.90199
11
5.57317
21
-3.90278
0
LINE
8
BLACK
6
CONTINUOUS
10
5.57317
20
-3.90278
11
5.57533
21
-3.90494
0
LINE
8
BLACK
6
CONTINUOUS
10
5.57533
20
-3.90494
11
5.57612
21
-3.9079
0
LINE
8
BLACK
6
CONTINUOUS
10
5.57612
20
-3.9079
11
5.57533
21
-3.91085
0
LINE
8
BLACK
6
CONTINUOUS
10
5.57533
20
-3.91085
11
5.57317
21
-3.91301
0
LINE
8
BLACK
6
CONTINUOUS
10
5.57317
20
-3.91301
11
5.57022
21
-3.9138
0
LINE
8
BLACK
6
CONTINUOUS
10
5.57022
20
-3.9138
11
5.53085
21
-3.9138
0
LINE
8
BLACK
6
CONTINUOUS
10
5.53085
20
-3.9138
11
5.53066
21
-3.91375
0
LINE
8
BLACK
6
CONTINUOUS
10
5.53066
20
-3.91375
11
5.53047
21
-3.91379
0
LINE
8
BLACK
6
CONTINUOUS
10
5.53047
20
-3.91379
11
5.5292
21
-3.91336
0
LINE
8
BLACK
6
CONTINUOUS
10
5.5292
20
-3.91336
11
5.5279
21
-3.91301
0
LINE
8
BLACK
6
CONTINUOUS
10
5.5279
20
-3.91301
11
5.52776
21
-3.91287
0
LINE
8
BLACK
6
CONTINUOUS
10
5.52776
20
-3.91287
11
5.52757
21
-3.91281
0
LINE
8
BLACK
6
CONTINUOUS
10
5.52757
20
-3.91281
11
5.52669
21
-3.9118
0
LINE
8
BLACK
6
CONTINUOUS
10
5.52669
20
-3.9118
11
5.52573
21
-3.91085
0
LINE
8
BLACK
6
CONTINUOUS
10
5.52573
20
-3.91085
11
5.52568
21
-3.91066
0
LINE
8
BLACK
6
CONTINUOUS
10
5.52568
20
-3.91066
11
5.52556
21
-3.91051
0
LINE
8
BLACK
6
CONTINUOUS
10
5.52556
20
-3.91051
11
5.52529
21
-3.9092
0
LINE
8
BLACK
6
CONTINUOUS
10
5.52529
20
-3.9092
11
5.52494
21
-3.9079
0
LINE
8
BLACK
6
CONTINUOUS
10
5.52494
20
-3.9079
11
5.52499
21
-3.90771
0
LINE
8
BLACK
6
CONTINUOUS
10
5.52499
20
-3.90771
11
5.52496
21
-3.90752
0
LINE
8
BLACK
6
CONTINUOUS
10
5.52496
20
-3.90752
11
5.52539
21
-3.90624
0
LINE
8
BLACK
6
CONTINUOUS
10
5.52539
20
-3.90624
11
5.52573
21
-3.90494
0
LINE
8
BLACK
6
CONTINUOUS
10
5.52573
20
-3.90494
11
5.52587
21
-3.90481
0
LINE
8
BLACK
6
CONTINUOUS
10
5.52587
20
-3.90481
11
5.52594
21
-3.90462
0
LINE
8
BLACK
6
CONTINUOUS
10
5.52594
20
-3.90462
11
5.55918
21
-3.85475
0
LINE
8
BLACK
6
CONTINUOUS
10
5.55918
20
-3.85475
11
5.53085
21
-3.85475
0
LINE
8
BLACK
6
CONTINUOUS
10
5.53085
20
-3.85475
11
5.5279
21
-3.85396
0
LINE
8
BLACK
6
CONTINUOUS
10
5.5279
20
-3.85396
11
5.52573
21
-3.85179
0
LINE
8
BLACK
6
CONTINUOUS
10
5.52573
20
-3.85179
11
5.52494
21
-3.84884
0
LINE
8
BLACK
6
CONTINUOUS
10
5.52494
20
-3.84884
11
5.52573
21
-3.84589
0
LINE
8
BLACK
6
CONTINUOUS
10
5.52573
20
-3.84589
11
5.5279
21
-3.84373
0
LINE
8
BLACK
6
CONTINUOUS
10
5.5279
20
-3.84373
11
5.53085
21
-3.84294
0
LINE
8
BLACK
6
CONTINUOUS
10
5.53085
20
-3.84294
11
5.57022
21
-3.84294
0
LINE
8
BLACK
6
CONTINUOUS
10
5.57022
20
-3.84294
11
5.57041
21
-3.84299
0
LINE
8
BLACK
6
CONTINUOUS
10
5.37148
20
-3.84318
11
5.37242
21
-3.84324
0
LINE
8
BLACK
6
CONTINUOUS
10
5.37242
20
-3.84324
11
5.38086
21
-3.84605
0
LINE
8
BLACK
6
CONTINUOUS
10
5.38086
20
-3.84605
11
5.38341
21
-3.84774
0
LINE
8
BLACK
6
CONTINUOUS
10
5.38341
20
-3.84774
11
5.38478
21
-3.85047
0
LINE
8
BLACK
6
CONTINUOUS
10
5.38478
20
-3.85047
11
5.3846
21
-3.85352
0
LINE
8
BLACK
6
CONTINUOUS
10
5.3846
20
-3.85352
11
5.38291
21
-3.85607
0
LINE
8
BLACK
6
CONTINUOUS
10
5.38291
20
-3.85607
11
5.38018
21
-3.85744
0
LINE
8
BLACK
6
CONTINUOUS
10
5.38018
20
-3.85744
11
5.37713
21
-3.85726
0
LINE
8
BLACK
6
CONTINUOUS
10
5.37713
20
-3.85726
11
5.3696
21
-3.85475
0
LINE
8
BLACK
6
CONTINUOUS
10
5.3696
20
-3.85475
11
5.35789
21
-3.85475
0
LINE
8
BLACK
6
CONTINUOUS
10
5.35789
20
-3.85475
11
5.35437
21
-3.85651
0
LINE
8
BLACK
6
CONTINUOUS
10
5.35437
20
-3.85651
11
5.35291
21
-3.85796
0
LINE
8
BLACK
6
CONTINUOUS
10
5.35291
20
-3.85796
11
5.35115
21
-3.86148
0
LINE
8
BLACK
6
CONTINUOUS
10
5.35115
20
-3.86148
11
5.35115
21
-3.86432
0
LINE
8
BLACK
6
CONTINUOUS
10
5.35115
20
-3.86432
11
5.35291
21
-3.86784
0
LINE
8
BLACK
6
CONTINUOUS
10
5.35291
20
-3.86784
11
5.35437
21
-3.8693
0
LINE
8
BLACK
6
CONTINUOUS
10
5.35437
20
-3.8693
11
5.35856
21
-3.87139
0
LINE
8
BLACK
6
CONTINUOUS
10
5.35856
20
-3.87139
11
5.36918
21
-3.87405
0
LINE
8
BLACK
6
CONTINUOUS
10
5.36918
20
-3.87405
11
5.36975
21
-3.87436
0
LINE
8
BLACK
6
CONTINUOUS
10
5.36975
20
-3.87436
11
5.37039
21
-3.87449
0
LINE
8
BLACK
6
CONTINUOUS
10
5.37039
20
-3.87449
11
5.37601
21
-3.87731
0
LINE
8
BLACK
6
CONTINUOUS
10
5.37601
20
-3.87731
11
5.37672
21
-3.87794
0
LINE
8
BLACK
6
CONTINUOUS
10
5.37672
20
-3.87794
11
5.37754
21
-3.87841
0
LINE
8
BLACK
6
CONTINUOUS
10
5.37754
20
-3.87841
11
5.38036
21
-3.88122
0
LINE
8
BLACK
6
CONTINUOUS
10
5.38036
20
-3.88122
11
5.38083
21
-3.88205
0
LINE
8
BLACK
6
CONTINUOUS
10
5.38083
20
-3.88205
11
5.38146
21
-3.88276
0
LINE
8
BLACK
6
CONTINUOUS
10
5.38146
20
-3.88276
11
5.38428
21
-3.88838
0
LINE
8
BLACK
6
CONTINUOUS
10
5.38428
20
-3.88838
11
5.38455
21
-3.88971
0
LINE
8
BLACK
6
CONTINUOUS
10
5.38455
20
-3.88971
11
5.3849
21
-3.89102
0
LINE
8
BLACK
6
CONTINUOUS
10
5.3849
20
-3.89102
11
5.3849
21
-3.89665
0
LINE
8
BLACK
6
CONTINUOUS
10
5.3849
20
-3.89665
11
5.38455
21
-3.89796
0
LINE
8
BLACK
6
CONTINUOUS
10
5.38455
20
-3.89796
11
5.38428
21
-3.89929
0
LINE
8
BLACK
6
CONTINUOUS
10
5.38428
20
-3.89929
11
5.38146
21
-3.90491
0
LINE
8
BLACK
6
CONTINUOUS
10
5.38146
20
-3.90491
11
5.38083
21
-3.90562
0
LINE
8
BLACK
6
CONTINUOUS
10
5.38083
20
-3.90562
11
5.38036
21
-3.90645
0
LINE
8
BLACK
6
CONTINUOUS
10
5.38036
20
-3.90645
11
5.37754
21
-3.90926
0
LINE
8
BLACK
6
CONTINUOUS
10
5.37754
20
-3.90926
11
5.37672
21
-3.90974
0
LINE
8
BLACK
6
CONTINUOUS
10
5.37672
20
-3.90974
11
5.37601
21
-3.91037
0
LINE
8
BLACK
6
CONTINUOUS
10
5.37601
20
-3.91037
11
5.37039
21
-3.91318
0
LINE
8
BLACK
6
CONTINUOUS
10
5.37039
20
-3.91318
11
5.36906
21
-3.91345
0
LINE
8
BLACK
6
CONTINUOUS
10
5.36906
20
-3.91345
11
5.36774
21
-3.9138
0
LINE
8
BLACK
6
CONTINUOUS
10
5.36774
20
-3.9138
11
5.35368
21
-3.9138
0
LINE
8
BLACK
6
CONTINUOUS
10
5.35368
20
-3.9138
11
5.35277
21
-3.91356
0
LINE
8
BLACK
6
CONTINUOUS
10
5.35277
20
-3.91356
11
5.35182
21
-3.9135
0
LINE
8
BLACK
6
CONTINUOUS
10
5.35182
20
-3.9135
11
5.34338
21
-3.91069
0
LINE
8
BLACK
6
CONTINUOUS
10
5.34338
20
-3.91069
11
5.34083
21
-3.909
0
LINE
8
BLACK
6
CONTINUOUS
10
5.34083
20
-3.909
11
5.33946
21
-3.90627
0
LINE
8
BLACK
6
CONTINUOUS
10
5.33946
20
-3.90627
11
5.33964
21
-3.90322
0
LINE
8
BLACK
6
CONTINUOUS
10
5.33964
20
-3.90322
11
5.34133
21
-3.90067
0
LINE
8
BLACK
6
CONTINUOUS
10
5.34133
20
-3.90067
11
5.34406
21
-3.8993
0
LINE
8
BLACK
6
CONTINUOUS
10
5.34406
20
-3.8993
11
5.34711
21
-3.89948
0
LINE
8
BLACK
6
CONTINUOUS
10
5.34711
20
-3.89948
11
5.35464
21
-3.90199
0
LINE
8
BLACK
6
CONTINUOUS
10
5.35464
20
-3.90199
11
5.36635
21
-3.90199
0
LINE
8
BLACK
6
CONTINUOUS
10
5.36635
20
-3.90199
11
5.36987
21
-3.90023
0
LINE
8
BLACK
6
CONTINUOUS
10
5.36987
20
-3.90023
11
5.37133
21
-3.89877
0
LINE
8
BLACK
6
CONTINUOUS
10
5.37133
20
-3.89877
11
5.37309
21
-3.89525
0
LINE
8
BLACK
6
CONTINUOUS
10
5.37309
20
-3.89525
11
5.37309
21
-3.89242
0
LINE
8
BLACK
6
CONTINUOUS
10
5.37309
20
-3.89242
11
5.37133
21
-3.8889
0
LINE
8
BLACK
6
CONTINUOUS
10
5.37133
20
-3.8889
11
5.36987
21
-3.88744
0
LINE
8
BLACK
6
CONTINUOUS
10
5.36987
20
-3.88744
11
5.36568
21
-3.88535
0
LINE
8
BLACK
6
CONTINUOUS
10
5.36568
20
-3.88535
11
5.35506
21
-3.88269
0
LINE
8
BLACK
6
CONTINUOUS
10
5.35506
20
-3.88269
11
5.35449
21
-3.88238
0
LINE
8
BLACK
6
CONTINUOUS
10
5.35449
20
-3.88238
11
5.35386
21
-3.88224
0
LINE
8
BLACK
6
CONTINUOUS
10
5.35386
20
-3.88224
11
5.34823
21
-3.87943
0
LINE
8
BLACK
6
CONTINUOUS
10
5.34823
20
-3.87943
11
5.34752
21
-3.8788
0
LINE
8
BLACK
6
CONTINUOUS
10
5.34752
20
-3.8788
11
5.3467
21
-3.87833
0
LINE
8
BLACK
6
CONTINUOUS
10
5.3467
20
-3.87833
11
5.34388
21
-3.87551
0
LINE
8
BLACK
6
CONTINUOUS
10
5.34388
20
-3.87551
11
5.34341
21
-3.87469
0
LINE
8
BLACK
6
CONTINUOUS
10
5.34341
20
-3.87469
11
5.34278
21
-3.87398
0
LINE
8
BLACK
6
CONTINUOUS
10
5.34278
20
-3.87398
11
5.33997
21
-3.86836
0
LINE
8
BLACK
6
CONTINUOUS
10
5.33997
20
-3.86836
11
5.33969
21
-3.86703
0
LINE
8
BLACK
6
CONTINUOUS
10
5.33969
20
-3.86703
11
5.33934
21
-3.86571
0
LINE
8
BLACK
6
CONTINUOUS
10
5.33934
20
-3.86571
11
5.33934
21
-3.86009
0
LINE
8
BLACK
6
CONTINUOUS
10
5.33934
20
-3.86009
11
5.33969
21
-3.85878
0
LINE
8
BLACK
6
CONTINUOUS
10
5.33969
20
-3.85878
11
5.33997
21
-3.85745
0
LINE
8
BLACK
6
CONTINUOUS
10
5.33997
20
-3.85745
11
5.34278
21
-3.85182
0
LINE
8
BLACK
6
CONTINUOUS
10
5.34278
20
-3.85182
11
5.34341
21
-3.85111
0
LINE
8
BLACK
6
CONTINUOUS
10
5.34341
20
-3.85111
11
5.34388
21
-3.85029
0
LINE
8
BLACK
6
CONTINUOUS
10
5.34388
20
-3.85029
11
5.3467
21
-3.84748
0
LINE
8
BLACK
6
CONTINUOUS
10
5.3467
20
-3.84748
11
5.34752
21
-3.847
0
LINE
8
BLACK
6
CONTINUOUS
10
5.34752
20
-3.847
11
5.34823
21
-3.84637
0
LINE
8
BLACK
6
CONTINUOUS
10
5.34823
20
-3.84637
11
5.35386
21
-3.84356
0
LINE
8
BLACK
6
CONTINUOUS
10
5.35386
20
-3.84356
11
5.35518
21
-3.84329
0
LINE
8
BLACK
6
CONTINUOUS
10
5.35518
20
-3.84329
11
5.3565
21
-3.84294
0
LINE
8
BLACK
6
CONTINUOUS
10
5.3565
20
-3.84294
11
5.37056
21
-3.84294
0
LINE
8
BLACK
6
CONTINUOUS
10
5.37056
20
-3.84294
11
5.37148
21
-3.84318
0
LINE
8
BLACK
6
CONTINUOUS
10
5.25783
20
-3.32948
11
5.27476
21
-3.33033
0
LINE
8
BLACK
6
CONTINUOUS
10
5.27476
20
-3.33033
11
5.28862
21
-3.33182
0
LINE
8
BLACK
6
CONTINUOUS
10
5.28862
20
-3.33182
11
5.29601
21
-3.33333
0
LINE
8
BLACK
6
CONTINUOUS
10
5.29601
20
-3.33333
11
5.31956
21
-3.34213
0
LINE
8
BLACK
6
CONTINUOUS
10
5.31956
20
-3.34213
11
5.34012
21
-3.35418
0
LINE
8
BLACK
6
CONTINUOUS
10
5.34012
20
-3.35418
11
5.35694
21
-3.36893
0
LINE
8
BLACK
6
CONTINUOUS
10
5.35694
20
-3.36893
11
5.36926
21
-3.38585
0
LINE
8
BLACK
6
CONTINUOUS
10
5.36926
20
-3.38585
11
5.36994
21
-3.3871
0
LINE
8
BLACK
6
CONTINUOUS
10
5.36994
20
-3.3871
11
5.37493
21
-3.40175
0
LINE
8
BLACK
6
CONTINUOUS
10
5.37493
20
-3.40175
11
5.37632
21
-3.41864
0
LINE
8
BLACK
6
CONTINUOUS
10
5.37632
20
-3.41864
11
5.37417
21
-3.43585
0
LINE
8
BLACK
6
CONTINUOUS
10
5.37417
20
-3.43585
11
5.36853
21
-3.4514
0
LINE
8
BLACK
6
CONTINUOUS
10
5.36853
20
-3.4514
11
5.35618
21
-3.46963
0
LINE
8
BLACK
6
CONTINUOUS
10
5.35618
20
-3.46963
11
5.33947
21
-3.48619
0
LINE
8
BLACK
6
CONTINUOUS
10
5.33947
20
-3.48619
11
5.31947
21
-3.50027
0
LINE
8
BLACK
6
CONTINUOUS
10
5.31947
20
-3.50027
11
5.29728
21
-3.51105
0
LINE
8
BLACK
6
CONTINUOUS
10
5.29728
20
-3.51105
11
5.282
21
-3.51595
0
LINE
8
BLACK
6
CONTINUOUS
10
5.282
20
-3.51595
11
5.25317
21
-3.52092
0
LINE
8
BLACK
6
CONTINUOUS
10
5.25317
20
-3.52092
11
5.2253
21
-3.52095
0
LINE
8
BLACK
6
CONTINUOUS
10
5.2253
20
-3.52095
11
5.19899
21
-3.51612
0
LINE
8
BLACK
6
CONTINUOUS
10
5.19899
20
-3.51612
11
5.17483
21
-3.50649
0
LINE
8
BLACK
6
CONTINUOUS
10
5.17483
20
-3.50649
11
5.17136
21
-3.5046
0
LINE
8
BLACK
6
CONTINUOUS
10
5.17136
20
-3.5046
11
5.15819
21
-3.49853
0
LINE
8
BLACK
6
CONTINUOUS
10
5.15819
20
-3.49853
11
5.14761
21
-3.49697
0
LINE
8
BLACK
6
CONTINUOUS
10
5.14761
20
-3.49697
11
5.13903
21
-3.49988
0
LINE
8
BLACK
6
CONTINUOUS
10
5.13903
20
-3.49988
11
5.13509
21
-3.50323
0
LINE
8
BLACK
6
CONTINUOUS
10
5.13509
20
-3.50323
11
5.12848
21
-3.5137
0
LINE
8
BLACK
6
CONTINUOUS
10
5.12848
20
-3.5137
11
5.12669
21
-3.52532
0
LINE
8
BLACK
6
CONTINUOUS
10
5.12669
20
-3.52532
11
5.12935
21
-3.53737
0
LINE
8
BLACK
6
CONTINUOUS
10
5.12935
20
-3.53737
11
5.13609
21
-3.54913
0
LINE
8
BLACK
6
CONTINUOUS
10
5.13609
20
-3.54913
11
5.14652
21
-3.55986
0
LINE
8
BLACK
6
CONTINUOUS
10
5.14652
20
-3.55986
11
5.16027
21
-3.56883
0
LINE
8
BLACK
6
CONTINUOUS
10
5.16027
20
-3.56883
11
5.17105
21
-3.57346
0
LINE
8
BLACK
6
CONTINUOUS
10
5.17105
20
-3.57346
11
5.19307
21
-3.57915
0
LINE
8
BLACK
6
CONTINUOUS
10
5.19307
20
-3.57915
11
5.21826
21
-3.58221
0
LINE
8
BLACK
6
CONTINUOUS
10
5.21826
20
-3.58221
11
5.24493
21
-3.58266
0
LINE
8
BLACK
6
CONTINUOUS
10
5.24493
20
-3.58266
11
5.2714
21
-3.58049
0
LINE
8
BLACK
6
CONTINUOUS
10
5.2714
20
-3.58049
11
5.29597
21
-3.57568
0
LINE
8
BLACK
6
CONTINUOUS
10
5.29597
20
-3.57568
11
5.30291
21
-3.57367
0
LINE
8
BLACK
6
CONTINUOUS
10
5.30291
20
-3.57367
11
5.31962
21
-3.56753
0
LINE
8
BLACK
6
CONTINUOUS
10
5.31962
20
-3.56753
11
5.33344
21
-3.56023
0
LINE
8
BLACK
6
CONTINUOUS
10
5.33344
20
-3.56023
11
5.34613
21
-3.55062
0
LINE
8
BLACK
6
CONTINUOUS
10
5.34613
20
-3.55062
11
5.35944
21
-3.53753
0
LINE
8
BLACK
6
CONTINUOUS
10
5.35944
20
-3.53753
11
5.362
21
-3.53476
0
LINE
8
BLACK
6
CONTINUOUS
10
5.362
20
-3.53476
11
5.36984
21
-3.52645
0
LINE
8
BLACK
6
CONTINUOUS
10
5.36984
20
-3.52645
11
5.37629
21
-3.52016
0
LINE
8
BLACK
6
CONTINUOUS
10
5.37629
20
-3.52016
11
5.38049
21
-3.51669
0
LINE
8
BLACK
6
CONTINUOUS
10
5.38049
20
-3.51669
11
5.38159
21
-3.51631
0
LINE
8
BLACK
6
CONTINUOUS
10
5.38159
20
-3.51631
11
5.38119
21
-3.51932
0
LINE
8
BLACK
6
CONTINUOUS
10
5.38119
20
-3.51932
11
5.37873
21
-3.52579
0
LINE
8
BLACK
6
CONTINUOUS
10
5.37873
20
-3.52579
11
5.37482
21
-3.5342
0
LINE
8
BLACK
6
CONTINUOUS
10
5.37482
20
-3.5342
11
5.36154
21
-3.55469
0
LINE
8
BLACK
6
CONTINUOUS
10
5.36154
20
-3.55469
11
5.34386
21
-3.57187
0
LINE
8
BLACK
6
CONTINUOUS
10
5.34386
20
-3.57187
11
5.3218
21
-3.58572
0
LINE
8
BLACK
6
CONTINUOUS
10
5.3218
20
-3.58572
11
5.29541
21
-3.5962
0
LINE
8
BLACK
6
CONTINUOUS
10
5.29541
20
-3.5962
11
5.29048
21
-3.59765
0
LINE
8
BLACK
6
CONTINUOUS
10
5.29048
20
-3.59765
11
5.27658
21
-3.60045
0
LINE
8
BLACK
6
CONTINUOUS
10
5.27658
20
-3.60045
11
5.25893
21
-3.60239
0
LINE
8
BLACK
6
CONTINUOUS
10
5.25893
20
-3.60239
11
5.23913
21
-3.60345
0
LINE
8
BLACK
6
CONTINUOUS
10
5.23913
20
-3.60345
11
5.21872
21
-3.6036
0
LINE
8
BLACK
6
CONTINUOUS
10
5.21872
20
-3.6036
11
5.1993
21
-3.60284
0
LINE
8
BLACK
6
CONTINUOUS
10
5.1993
20
-3.60284
11
5.18242
21
-3.60114
0
LINE
8
BLACK
6
CONTINUOUS
10
5.18242
20
-3.60114
11
5.17132
21
-3.59897
0
LINE
8
BLACK
6
CONTINUOUS
10
5.17132
20
-3.59897
11
5.14805
21
-3.59118
0
LINE
8
BLACK
6
CONTINUOUS
10
5.14805
20
-3.59118
11
5.12908
21
-3.58132
0
LINE
8
BLACK
6
CONTINUOUS
10
5.12908
20
-3.58132
11
5.11341
21
-3.56886
0
LINE
8
BLACK
6
CONTINUOUS
10
5.11341
20
-3.56886
11
5.11289
21
-3.56836
0
LINE
8
BLACK
6
CONTINUOUS
10
5.11289
20
-3.56836
11
5.09922
21
-3.5518
0
LINE
8
BLACK
6
CONTINUOUS
10
5.09922
20
-3.5518
11
5.09101
21
-3.53439
0
LINE
8
BLACK
6
CONTINUOUS
10
5.09101
20
-3.53439
11
5.08826
21
-3.51617
0
LINE
8
BLACK
6
CONTINUOUS
10
5.08826
20
-3.51617
11
5.09097
21
-3.49717
0
LINE
8
BLACK
6
CONTINUOUS
10
5.09097
20
-3.49717
11
5.09916
21
-3.47741
0
LINE
8
BLACK
6
CONTINUOUS
10
5.09916
20
-3.47741
11
5.10167
21
-3.47301
0
LINE
8
BLACK
6
CONTINUOUS
10
5.10167
20
-3.47301
11
5.11142
21
-3.46082
0
LINE
8
BLACK
6
CONTINUOUS
10
5.11142
20
-3.46082
11
5.12561
21
-3.44866
0
LINE
8
BLACK
6
CONTINUOUS
10
5.12561
20
-3.44866
11
5.14318
21
-3.43712
0
LINE
8
BLACK
6
CONTINUOUS
10
5.14318
20
-3.43712
11
5.16309
21
-3.42679
0
LINE
8
BLACK
6
CONTINUOUS
10
5.16309
20
-3.42679
11
5.18426
21
-3.41826
0
LINE
8
BLACK
6
CONTINUOUS
10
5.18426
20
-3.41826
11
5.20566
21
-3.4121
0
LINE
8
BLACK
6
CONTINUOUS
10
5.20566
20
-3.4121
11
5.21386
21
-3.41047
0
LINE
8
BLACK
6
CONTINUOUS
10
5.21386
20
-3.41047
11
5.2388
21
-3.40893
0
LINE
8
BLACK
6
CONTINUOUS
10
5.2388
20
-3.40893
11
5.2637
21
-3.41289
0
LINE
8
BLACK
6
CONTINUOUS
10
5.2637
20
-3.41289
11
5.28864
21
-3.42236
0
LINE
8
BLACK
6
CONTINUOUS
10
5.28864
20
-3.42236
11
5.29048
21
-3.42328
0
LINE
8
BLACK
6
CONTINUOUS
10
5.29048
20
-3.42328
11
5.3066
21
-3.43005
0
LINE
8
BLACK
6
CONTINUOUS
10
5.3066
20
-3.43005
11
5.31961
21
-3.43254
0
LINE
8
BLACK
6
CONTINUOUS
10
5.31961
20
-3.43254
11
5.32937
21
-3.43079
0
LINE
8
BLACK
6
CONTINUOUS
10
5.32937
20
-3.43079
11
5.33576
21
-3.42482
0
LINE
8
BLACK
6
CONTINUOUS
10
5.33576
20
-3.42482
11
5.33866
21
-3.41468
0
LINE
8
BLACK
6
CONTINUOUS
10
5.33866
20
-3.41468
11
5.33883
21
-3.4108
0
LINE
8
BLACK
6
CONTINUOUS
10
5.33883
20
-3.4108
11
5.33619
21
-3.39609
0
LINE
8
BLACK
6
CONTINUOUS
10
5.33619
20
-3.39609
11
5.32874
21
-3.38218
0
LINE
8
BLACK
6
CONTINUOUS
10
5.32874
20
-3.38218
11
5.3172
21
-3.37012
0
LINE
8
BLACK
6
CONTINUOUS
10
5.3172
20
-3.37012
11
5.30557
21
-3.36254
0
LINE
8
BLACK
6
CONTINUOUS
10
5.30557
20
-3.36254
11
5.29153
21
-3.3572
0
LINE
8
BLACK
6
CONTINUOUS
10
5.29153
20
-3.3572
11
5.27349
21
-3.35324
0
LINE
8
BLACK
6
CONTINUOUS
10
5.27349
20
-3.35324
11
5.25281
21
-3.35073
0
LINE
8
BLACK
6
CONTINUOUS
10
5.25281
20
-3.35073
11
5.23087
21
-3.34973
0
LINE
8
BLACK
6
CONTINUOUS
10
5.23087
20
-3.34973
11
5.20903
21
-3.35034
0
LINE
8
BLACK
6
CONTINUOUS
10
5.20903
20
-3.35034
11
5.18866
21
-3.35261
0
LINE
8
BLACK
6
CONTINUOUS
10
5.18866
20
-3.35261
11
5.17584
21
-3.35529
0
LINE
8
BLACK
6
CONTINUOUS
10
5.17584
20
-3.35529
11
5.15759
21
-3.36053
0
LINE
8
BLACK
6
CONTINUOUS
10
5.15759
20
-3.36053
11
5.14335
21
-3.36591
0
LINE
8
BLACK
6
CONTINUOUS
10
5.14335
20
-3.36591
11
5.13164
21
-3.37226
0
LINE
8
BLACK
6
CONTINUOUS
10
5.13164
20
-3.37226
11
5.12099
21
-3.38038
0
LINE
8
BLACK
6
CONTINUOUS
10
5.12099
20
-3.38038
11
5.10992
21
-3.39109
0
LINE
8
BLACK
6
CONTINUOUS
10
5.10992
20
-3.39109
11
5.10885
21
-3.39221
0
LINE
8
BLACK
6
CONTINUOUS
10
5.10885
20
-3.39221
11
5.1009
21
-3.4008
0
LINE
8
BLACK
6
CONTINUOUS
10
5.1009
20
-3.4008
11
5.09464
21
-3.40799
0
LINE
8
BLACK
6
CONTINUOUS
10
5.09464
20
-3.40799
11
5.0909
21
-3.4128
0
LINE
8
BLACK
6
CONTINUOUS
10
5.0909
20
-3.4128
11
5.09021
21
-3.41415
0
LINE
8
BLACK
6
CONTINUOUS
10
5.09021
20
-3.41415
11
5.08809
21
-3.41639
0
LINE
8
BLACK
6
CONTINUOUS
10
5.08809
20
-3.41639
11
5.08745
21
-3.41646
0
LINE
8
BLACK
6
CONTINUOUS
10
5.08745
20
-3.41646
11
5.08477
21
-3.41444
0
LINE
8
BLACK
6
CONTINUOUS
10
5.08477
20
-3.41444
11
5.08554
21
-3.40867
0
LINE
8
BLACK
6
CONTINUOUS
10
5.08554
20
-3.40867
11
5.0896
21
-3.39962
0
LINE
8
BLACK
6
CONTINUOUS
10
5.0896
20
-3.39962
11
5.09679
21
-3.38775
0
LINE
8
BLACK
6
CONTINUOUS
10
5.09679
20
-3.38775
11
5.0973
21
-3.38698
0
LINE
8
BLACK
6
CONTINUOUS
10
5.0973
20
-3.38698
11
5.1035
21
-3.37811
0
LINE
8
BLACK
6
CONTINUOUS
10
5.1035
20
-3.37811
11
5.1088
21
-3.3712
0
LINE
8
BLACK
6
CONTINUOUS
10
5.1088
20
-3.3712
11
5.1123
21
-3.36742
0
LINE
8
BLACK
6
CONTINUOUS
10
5.1123
20
-3.36742
11
5.11284
21
-3.36708
0
LINE
8
BLACK
6
CONTINUOUS
10
5.11284
20
-3.36708
11
5.11687
21
-3.36447
0
LINE
8
BLACK
6
CONTINUOUS
10
5.11687
20
-3.36447
11
5.12102
21
-3.36078
0
LINE
8
BLACK
6
CONTINUOUS
10
5.12102
20
-3.36078
11
5.12856
21
-3.35508
0
LINE
8
BLACK
6
CONTINUOUS
10
5.12856
20
-3.35508
11
5.13989
21
-3.34874
0
LINE
8
BLACK
6
CONTINUOUS
10
5.13989
20
-3.34874
11
5.15346
21
-3.34249
0
LINE
8
BLACK
6
CONTINUOUS
10
5.15346
20
-3.34249
11
5.16771
21
-3.33707
0
LINE
8
BLACK
6
CONTINUOUS
10
5.16771
20
-3.33707
11
5.17584
21
-3.33457
0
LINE
8
BLACK
6
CONTINUOUS
10
5.17584
20
-3.33457
11
5.18724
21
-3.33236
0
LINE
8
BLACK
6
CONTINUOUS
10
5.18724
20
-3.33236
11
5.20253
21
-3.33073
0
LINE
8
BLACK
6
CONTINUOUS
10
5.20253
20
-3.33073
11
5.22032
21
-3.3297
0
LINE
8
BLACK
6
CONTINUOUS
10
5.22032
20
-3.3297
11
5.23922
21
-3.32928
0
LINE
8
BLACK
6
CONTINUOUS
10
5.23922
20
-3.32928
11
5.25783
21
-3.32948
0
LINE
8
BLACK
6
CONTINUOUS
10
5.57977
20
-3.40338
11
5.58902
21
-3.40528
0
LINE
8
BLACK
6
CONTINUOUS
10
5.58902
20
-3.40528
11
5.59286
21
-3.40673
0
LINE
8
BLACK
6
CONTINUOUS
10
5.59286
20
-3.40673
11
5.60185
21
-3.41322
0
LINE
8
BLACK
6
CONTINUOUS
10
5.60185
20
-3.41322
11
5.60873
21
-3.42158
0
LINE
8
BLACK
6
CONTINUOUS
10
5.60873
20
-3.42158
11
5.61215
21
-3.43008
0
LINE
8
BLACK
6
CONTINUOUS
10
5.61215
20
-3.43008
11
5.61231
21
-3.43202
0
LINE
8
BLACK
6
CONTINUOUS
10
5.61231
20
-3.43202
11
5.61157
21
-3.43636
0
LINE
8
BLACK
6
CONTINUOUS
10
5.61157
20
-3.43636
11
5.60832
21
-3.4382
0
LINE
8
BLACK
6
CONTINUOUS
10
5.60832
20
-3.4382
11
5.60205
21
-3.43856
0
LINE
8
BLACK
6
CONTINUOUS
10
5.60205
20
-3.43856
11
5.59334
21
-3.43723
0
LINE
8
BLACK
6
CONTINUOUS
10
5.59334
20
-3.43723
11
5.58696
21
-3.43243
0
LINE
8
BLACK
6
CONTINUOUS
10
5.58696
20
-3.43243
11
5.58585
21
-3.4311
0
LINE
8
BLACK
6
CONTINUOUS
10
5.58585
20
-3.4311
11
5.57864
21
-3.42568
0
LINE
8
BLACK
6
CONTINUOUS
10
5.57864
20
-3.42568
11
5.5695
21
-3.42347
0
LINE
8
BLACK
6
CONTINUOUS
10
5.5695
20
-3.42347
11
5.56061
21
-3.42468
0
LINE
8
BLACK
6
CONTINUOUS
10
5.56061
20
-3.42468
11
5.55554
21
-3.42785
0
LINE
8
BLACK
6
CONTINUOUS
10
5.55554
20
-3.42785
11
5.55273
21
-3.4324
0
LINE
8
BLACK
6
CONTINUOUS
10
5.55273
20
-3.4324
11
5.55394
21
-3.43699
0
LINE
8
BLACK
6
CONTINUOUS
10
5.55394
20
-3.43699
11
5.55957
21
-3.44206
0
LINE
8
BLACK
6
CONTINUOUS
10
5.55957
20
-3.44206
11
5.56998
21
-3.44806
0
LINE
8
BLACK
6
CONTINUOUS
10
5.56998
20
-3.44806
11
5.57489
21
-3.45048
0
LINE
8
BLACK
6
CONTINUOUS
10
5.57489
20
-3.45048
11
5.58813
21
-3.45755
0
LINE
8
BLACK
6
CONTINUOUS
10
5.58813
20
-3.45755
11
5.59683
21
-3.46419
0
LINE
8
BLACK
6
CONTINUOUS
10
5.59683
20
-3.46419
11
5.6018
21
-3.47134
0
LINE
8
BLACK
6
CONTINUOUS
10
5.6018
20
-3.47134
11
5.60384
21
-3.47994
0
LINE
8
BLACK
6
CONTINUOUS
10
5.60384
20
-3.47994
11
5.60402
21
-3.48438
0
LINE
8
BLACK
6
CONTINUOUS
10
5.60402
20
-3.48438
11
5.60144
21
-3.49728
0
LINE
8
BLACK
6
CONTINUOUS
10
5.60144
20
-3.49728
11
5.59397
21
-3.50796
0
LINE
8
BLACK
6
CONTINUOUS
10
5.59397
20
-3.50796
11
5.58458
21
-3.51458
0
LINE
8
BLACK
6
CONTINUOUS
10
5.58458
20
-3.51458
11
5.57564
21
-3.51725
0
LINE
8
BLACK
6
CONTINUOUS
10
5.57564
20
-3.51725
11
5.56368
21
-3.51839
0
LINE
8
BLACK
6
CONTINUOUS
10
5.56368
20
-3.51839
11
5.55096
21
-3.51798
0
LINE
8
BLACK
6
CONTINUOUS
10
5.55096
20
-3.51798
11
5.53977
21
-3.51602
0
LINE
8
BLACK
6
CONTINUOUS
10
5.53977
20
-3.51602
11
5.536
21
-3.5147
0
LINE
8
BLACK
6
CONTINUOUS
10
5.536
20
-3.5147
11
5.52597
21
-3.50788
0
LINE
8
BLACK
6
CONTINUOUS
10
5.52597
20
-3.50788
11
5.51986
21
-3.49844
0
LINE
8
BLACK
6
CONTINUOUS
10
5.51986
20
-3.49844
11
5.51838
21
-3.49043
0
LINE
8
BLACK
6
CONTINUOUS
10
5.51838
20
-3.49043
11
5.51888
21
-3.48551
0
LINE
8
BLACK
6
CONTINUOUS
10
5.51888
20
-3.48551
11
5.52141
21
-3.48332
0
LINE
8
BLACK
6
CONTINUOUS
10
5.52141
20
-3.48332
11
5.52755
21
-3.48277
0
LINE
8
BLACK
6
CONTINUOUS
10
5.52755
20
-3.48277
11
5.5295
21
-3.48276
0
LINE
8
BLACK
6
CONTINUOUS
10
5.5295
20
-3.48276
11
5.53715
21
-3.48337
0
LINE
8
BLACK
6
CONTINUOUS
10
5.53715
20
-3.48337
11
5.54125
21
-3.48582
0
LINE
8
BLACK
6
CONTINUOUS
10
5.54125
20
-3.48582
11
5.54315
21
-3.48941
0
LINE
8
BLACK
6
CONTINUOUS
10
5.54315
20
-3.48941
11
5.54792
21
-3.49502
0
LINE
8
BLACK
6
CONTINUOUS
10
5.54792
20
-3.49502
11
5.55576
21
-3.4981
0
LINE
8
BLACK
6
CONTINUOUS
10
5.55576
20
-3.4981
11
5.56479
21
-3.49859
0
LINE
8
BLACK
6
CONTINUOUS
10
5.56479
20
-3.49859
11
5.57315
21
-3.49639
0
LINE
8
BLACK
6
CONTINUOUS
10
5.57315
20
-3.49639
11
5.57893
21
-3.49143
0
LINE
8
BLACK
6
CONTINUOUS
10
5.57893
20
-3.49143
11
5.57922
21
-3.49093
0
LINE
8
BLACK
6
CONTINUOUS
10
5.57922
20
-3.49093
11
5.58086
21
-3.48578
0
LINE
8
BLACK
6
CONTINUOUS
10
5.58086
20
-3.48578
11
5.57931
21
-3.48124
0
LINE
8
BLACK
6
CONTINUOUS
10
5.57931
20
-3.48124
11
5.57394
21
-3.47662
0
LINE
8
BLACK
6
CONTINUOUS
10
5.57394
20
-3.47662
11
5.56415
21
-3.47121
0
LINE
8
BLACK
6
CONTINUOUS
10
5.56415
20
-3.47121
11
5.55964
21
-3.46905
0
LINE
8
BLACK
6
CONTINUOUS
10
5.55964
20
-3.46905
11
5.54579
21
-3.46169
0
LINE
8
BLACK
6
CONTINUOUS
10
5.54579
20
-3.46169
11
5.53664
21
-3.4545
0
LINE
8
BLACK
6
CONTINUOUS
10
5.53664
20
-3.4545
11
5.53146
21
-3.44662
0
LINE
8
BLACK
6
CONTINUOUS
10
5.53146
20
-3.44662
11
5.5295
21
-3.43724
0
LINE
8
BLACK
6
CONTINUOUS
10
5.5295
20
-3.43724
11
5.52943
21
-3.43466
0
LINE
8
BLACK
6
CONTINUOUS
10
5.52943
20
-3.43466
11
5.53168
21
-3.42168
0
LINE
8
BLACK
6
CONTINUOUS
10
5.53168
20
-3.42168
11
5.53832
21
-3.41198
0
LINE
8
BLACK
6
CONTINUOUS
10
5.53832
20
-3.41198
11
5.54922
21
-3.40565
0
LINE
8
BLACK
6
CONTINUOUS
10
5.54922
20
-3.40565
11
5.56425
21
-3.4028
0
LINE
8
BLACK
6
CONTINUOUS
10
5.56425
20
-3.4028
11
5.56949
21
-3.40265
0
LINE
8
BLACK
6
CONTINUOUS
10
5.56949
20
-3.40265
11
5.57977
21
-3.40338
0
LINE
8
BLACK
6
CONTINUOUS
10
5.44545
20
-3.40612
11
5.44917
21
-3.40808
0
LINE
8
BLACK
6
CONTINUOUS
10
5.44917
20
-3.40808
11
5.44932
21
-3.4087
0
LINE
8
BLACK
6
CONTINUOUS
10
5.44932
20
-3.4087
11
5.44881
21
-3.41249
0
LINE
8
BLACK
6
CONTINUOUS
10
5.44881
20
-3.41249
11
5.44741
21
-3.42061
0
LINE
8
BLACK
6
CONTINUOUS
10
5.44741
20
-3.42061
11
5.44532
21
-3.43199
0
LINE
8
BLACK
6
CONTINUOUS
10
5.44532
20
-3.43199
11
5.44272
21
-3.44555
0
LINE
8
BLACK
6
CONTINUOUS
10
5.44272
20
-3.44555
11
5.44183
21
-3.45014
0
LINE
8
BLACK
6
CONTINUOUS
10
5.44183
20
-3.45014
11
5.4389
21
-3.46528
0
LINE
8
BLACK
6
CONTINUOUS
10
5.4389
20
-3.46528
11
5.43702
21
-3.47595
0
LINE
8
BLACK
6
CONTINUOUS
10
5.43702
20
-3.47595
11
5.43613
21
-3.48309
0
LINE
8
BLACK
6
CONTINUOUS
10
5.43613
20
-3.48309
11
5.43618
21
-3.48765
0
LINE
8
BLACK
6
CONTINUOUS
10
5.43618
20
-3.48765
11
5.43709
21
-3.49056
0
LINE
8
BLACK
6
CONTINUOUS
10
5.43709
20
-3.49056
11
5.43882
21
-3.49277
0
LINE
8
BLACK
6
CONTINUOUS
10
5.43882
20
-3.49277
11
5.4391
21
-3.49305
0
LINE
8
BLACK
6
CONTINUOUS
10
5.4391
20
-3.49305
11
5.44621
21
-3.49679
0
LINE
8
BLACK
6
CONTINUOUS
10
5.44621
20
-3.49679
11
5.45569
21
-3.49778
0
LINE
8
BLACK
6
CONTINUOUS
10
5.45569
20
-3.49778
11
5.46515
21
-3.49604
0
LINE
8
BLACK
6
CONTINUOUS
10
5.46515
20
-3.49604
11
5.47123
21
-3.4926
0
LINE
8
BLACK
6
CONTINUOUS
10
5.47123
20
-3.4926
11
5.47522
21
-3.48758
0
LINE
8
BLACK
6
CONTINUOUS
10
5.47522
20
-3.48758
11
5.47884
21
-3.47972
0
LINE
8
BLACK
6
CONTINUOUS
10
5.47884
20
-3.47972
11
5.48232
21
-3.46837
0
LINE
8
BLACK
6
CONTINUOUS
10
5.48232
20
-3.46837
11
5.48585
21
-3.45282
0
LINE
8
BLACK
6
CONTINUOUS
10
5.48585
20
-3.45282
11
5.48942
21
-3.43372
0
LINE
8
BLACK
6
CONTINUOUS
10
5.48942
20
-3.43372
11
5.49437
21
-3.40541
0
LINE
8
BLACK
6
CONTINUOUS
10
5.49437
20
-3.40541
11
5.50638
21
-3.40541
0
LINE
8
BLACK
6
CONTINUOUS
10
5.50638
20
-3.40541
11
5.51476
21
-3.40611
0
LINE
8
BLACK
6
CONTINUOUS
10
5.51476
20
-3.40611
11
5.51823
21
-3.40832
0
LINE
8
BLACK
6
CONTINUOUS
10
5.51823
20
-3.40832
11
5.51838
21
-3.40917
0
LINE
8
BLACK
6
CONTINUOUS
10
5.51838
20
-3.40917
11
5.51772
21
-3.41541
0
LINE
8
BLACK
6
CONTINUOUS
10
5.51772
20
-3.41541
11
5.51592
21
-3.42561
0
LINE
8
BLACK
6
CONTINUOUS
10
5.51592
20
-3.42561
11
5.5133
21
-3.4384
0
LINE
8
BLACK
6
CONTINUOUS
10
5.5133
20
-3.4384
11
5.51019
21
-3.4524
0
LINE
8
BLACK
6
CONTINUOUS
10
5.51019
20
-3.4524
11
5.50688
21
-3.46625
0
LINE
8
BLACK
6
CONTINUOUS
10
5.50688
20
-3.46625
11
5.5037
21
-3.47857
0
LINE
8
BLACK
6
CONTINUOUS
10
5.5037
20
-3.47857
11
5.50096
21
-3.48798
0
LINE
8
BLACK
6
CONTINUOUS
10
5.50096
20
-3.48798
11
5.49943
21
-3.49221
0
LINE
8
BLACK
6
CONTINUOUS
10
5.49943
20
-3.49221
11
5.49219
21
-3.50419
0
LINE
8
BLACK
6
CONTINUOUS
10
5.49219
20
-3.50419
11
5.48242
21
-3.51215
0
LINE
8
BLACK
6
CONTINUOUS
10
5.48242
20
-3.51215
11
5.4693
21
-3.51659
0
LINE
8
BLACK
6
CONTINUOUS
10
5.4693
20
-3.51659
11
5.45624
21
-3.51792
0
LINE
8
BLACK
6
CONTINUOUS
10
5.45624
20
-3.51792
11
5.44562
21
-3.51792
0
LINE
8
BLACK
6
CONTINUOUS
10
5.44562
20
-3.51792
11
5.43656
21
-3.51727
0
LINE
8
BLACK
6
CONTINUOUS
10
5.43656
20
-3.51727
11
5.43114
21
-3.51613
0
LINE
8
BLACK
6
CONTINUOUS
10
5.43114
20
-3.51613
11
5.42455
21
-3.51164
0
LINE
8
BLACK
6
CONTINUOUS
10
5.42455
20
-3.51164
11
5.41794
21
-3.50464
0
LINE
8
BLACK
6
CONTINUOUS
10
5.41794
20
-3.50464
11
5.41282
21
-3.49701
0
LINE
8
BLACK
6
CONTINUOUS
10
5.41282
20
-3.49701
11
5.41065
21
-3.4906
0
LINE
8
BLACK
6
CONTINUOUS
10
5.41065
20
-3.4906
11
5.41065
21
-3.4904
0
LINE
8
BLACK
6
CONTINUOUS
10
5.41065
20
-3.4904
11
5.41114
21
-3.4857
0
LINE
8
BLACK
6
CONTINUOUS
10
5.41114
20
-3.4857
11
5.4125
21
-3.47673
0
LINE
8
BLACK
6
CONTINUOUS
10
5.4125
20
-3.47673
11
5.41453
21
-3.46461
0
LINE
8
BLACK
6
CONTINUOUS
10
5.41453
20
-3.46461
11
5.41704
21
-3.4505
0
LINE
8
BLACK
6
CONTINUOUS
10
5.41704
20
-3.4505
11
5.41806
21
-3.44503
0
LINE
8
BLACK
6
CONTINUOUS
10
5.41806
20
-3.44503
11
5.42547
21
-3.40541
0
LINE
8
BLACK
6
CONTINUOUS
10
5.42547
20
-3.40541
11
5.4374
21
-3.40541
0
LINE
8
BLACK
6
CONTINUOUS
10
5.4374
20
-3.40541
11
5.44545
21
-3.40612
0
LINE
8
BLACK
6
CONTINUOUS
10
5.71953
20
-3.41431
11
5.71884
21
-3.41929
0
LINE
8
BLACK
6
CONTINUOUS
10
5.71884
20
-3.41929
11
5.71707
21
-3.42207
0
LINE
8
BLACK
6
CONTINUOUS
10
5.71707
20
-3.42207
11
5.71287
21
-3.4234
0
LINE
8
BLACK
6
CONTINUOUS
10
5.71287
20
-3.4234
11
5.70489
21
-3.42402
0
LINE
8
BLACK
6
CONTINUOUS
10
5.70489
20
-3.42402
11
5.70175
21
-3.42418
0
LINE
8
BLACK
6
CONTINUOUS
10
5.70175
20
-3.42418
11
5.68483
21
-3.42499
0
LINE
8
BLACK
6
CONTINUOUS
10
5.68483
20
-3.42499
11
5.6668
21
-3.5159
0
LINE
8
BLACK
6
CONTINUOUS
10
5.6668
20
-3.5159
11
5.65475
21
-3.5159
0
LINE
8
BLACK
6
CONTINUOUS
10
5.65475
20
-3.5159
11
5.64746
21
-3.51571
0
LINE
8
BLACK
6
CONTINUOUS
10
5.64746
20
-3.51571
11
5.64318
21
-3.51522
0
LINE
8
BLACK
6
CONTINUOUS
10
5.64318
20
-3.51522
11
5.64269
21
-3.51495
0
LINE
8
BLACK
6
CONTINUOUS
10
5.64269
20
-3.51495
11
5.64321
21
-3.51206
0
LINE
8
BLACK
6
CONTINUOUS
10
5.64321
20
-3.51206
11
5.64464
21
-3.50471
0
LINE
8
BLACK
6
CONTINUOUS
10
5.64464
20
-3.50471
11
5.6468
21
-3.49387
0
LINE
8
BLACK
6
CONTINUOUS
10
5.6468
20
-3.49387
11
5.64948
21
-3.48051
0
LINE
8
BLACK
6
CONTINUOUS
10
5.64948
20
-3.48051
11
5.65098
21
-3.47309
0
LINE
8
BLACK
6
CONTINUOUS
10
5.65098
20
-3.47309
11
5.65388
21
-3.45853
0
LINE
8
BLACK
6
CONTINUOUS
10
5.65388
20
-3.45853
11
5.65634
21
-3.44575
0
LINE
8
BLACK
6
CONTINUOUS
10
5.65634
20
-3.44575
11
5.65816
21
-3.43579
0
LINE
8
BLACK
6
CONTINUOUS
10
5.65816
20
-3.43579
11
5.65915
21
-3.42969
0
LINE
8
BLACK
6
CONTINUOUS
10
5.65915
20
-3.42969
11
5.65927
21
-3.42846
0
LINE
8
BLACK
6
CONTINUOUS
10
5.65927
20
-3.42846
11
5.65722
21
-3.42603
0
LINE
8
BLACK
6
CONTINUOUS
10
5.65722
20
-3.42603
11
5.65068
21
-3.42489
0
LINE
8
BLACK
6
CONTINUOUS
10
5.65068
20
-3.42489
11
5.64528
21
-3.42474
0
LINE
8
BLACK
6
CONTINUOUS
10
5.64528
20
-3.42474
11
5.63129
21
-3.42474
0
LINE
8
BLACK
6
CONTINUOUS
10
5.63129
20
-3.42474
11
5.63303
21
-3.40679
0
LINE
8
BLACK
6
CONTINUOUS
10
5.63303
20
-3.40679
11
5.67671
21
-3.40603
0
LINE
8
BLACK
6
CONTINUOUS
10
5.67671
20
-3.40603
11
5.7204
21
-3.40527
0
LINE
8
BLACK
6
CONTINUOUS
10
5.7204
20
-3.40527
11
5.71953
21
-3.41431
0
LINE
8
BLACK
6
CONTINUOUS
10
4.81993
20
-3.00329
11
4.82126
21
-3.00356
0
LINE
8
BLACK
6
CONTINUOUS
10
4.82126
20
-3.00356
11
4.82689
21
-3.00637
0
LINE
8
BLACK
6
CONTINUOUS
10
4.82689
20
-3.00637
11
4.8276
21
-3.007
0
LINE
8
BLACK
6
CONTINUOUS
10
4.8276
20
-3.007
11
4.82842
21
-3.00748
0
LINE
8
BLACK
6
CONTINUOUS
10
4.82842
20
-3.00748
11
4.83123
21
-3.01029
0
LINE
8
BLACK
6
CONTINUOUS
10
4.83123
20
-3.01029
11
4.83171
21
-3.01111
0
LINE
8
BLACK
6
CONTINUOUS
10
4.83171
20
-3.01111
11
4.83234
21
-3.01182
0
LINE
8
BLACK
6
CONTINUOUS
10
4.83234
20
-3.01182
11
4.83515
21
-3.01745
0
LINE
8
BLACK
6
CONTINUOUS
10
4.83515
20
-3.01745
11
4.83542
21
-3.01878
0
LINE
8
BLACK
6
CONTINUOUS
10
4.83542
20
-3.01878
11
4.83578
21
-3.02009
0
LINE
8
BLACK
6
CONTINUOUS
10
4.83578
20
-3.02009
11
4.83578
21
-3.02571
0
LINE
8
BLACK
6
CONTINUOUS
10
4.83578
20
-3.02571
11
4.83553
21
-3.02663
0
LINE
8
BLACK
6
CONTINUOUS
10
4.83553
20
-3.02663
11
4.83547
21
-3.02758
0
LINE
8
BLACK
6
CONTINUOUS
10
4.83547
20
-3.02758
11
4.83266
21
-3.03602
0
LINE
8
BLACK
6
CONTINUOUS
10
4.83266
20
-3.03602
11
4.83191
21
-3.03715
0
LINE
8
BLACK
6
CONTINUOUS
10
4.83191
20
-3.03715
11
4.83123
21
-3.03833
0
LINE
8
BLACK
6
CONTINUOUS
10
4.83123
20
-3.03833
11
4.80757
21
-3.06199
0
LINE
8
BLACK
6
CONTINUOUS
10
4.80757
20
-3.06199
11
4.82987
21
-3.06199
0
LINE
8
BLACK
6
CONTINUOUS
10
4.82987
20
-3.06199
11
4.83282
21
-3.06278
0
LINE
8
BLACK
6
CONTINUOUS
10
4.83282
20
-3.06278
11
4.83498
21
-3.06494
0
LINE
8
BLACK
6
CONTINUOUS
10
4.83498
20
-3.06494
11
4.83578
21
-3.0679
0
LINE
8
BLACK
6
CONTINUOUS
10
4.83578
20
-3.0679
11
4.83498
21
-3.07085
0
LINE
8
BLACK
6
CONTINUOUS
10
4.83498
20
-3.07085
11
4.83282
21
-3.07301
0
LINE
8
BLACK
6
CONTINUOUS
10
4.83282
20
-3.07301
11
4.82987
21
-3.0738
0
LINE
8
BLACK
6
CONTINUOUS
10
4.82987
20
-3.0738
11
4.79331
21
-3.0738
0
LINE
8
BLACK
6
CONTINUOUS
10
4.79331
20
-3.0738
11
4.79256
21
-3.0736
0
LINE
8
BLACK
6
CONTINUOUS
10
4.79256
20
-3.0736
11
4.79178
21
-3.0736
0
LINE
8
BLACK
6
CONTINUOUS
10
4.79178
20
-3.0736
11
4.79111
21
-3.07321
0
LINE
8
BLACK
6
CONTINUOUS
10
4.79111
20
-3.07321
11
4.79036
21
-3.07301
0
LINE
8
BLACK
6
CONTINUOUS
10
4.79036
20
-3.07301
11
4.78981
21
-3.07246
0
LINE
8
BLACK
6
CONTINUOUS
10
4.78981
20
-3.07246
11
4.78914
21
-3.07207
0
LINE
8
BLACK
6
CONTINUOUS
10
4.78914
20
-3.07207
11
4.78875
21
-3.0714
0
LINE
8
BLACK
6
CONTINUOUS
10
4.78875
20
-3.0714
11
4.7882
21
-3.07085
0
LINE
8
BLACK
6
CONTINUOUS
10
4.7882
20
-3.07085
11
4.788
21
-3.0701
0
LINE
8
BLACK
6
CONTINUOUS
10
4.788
20
-3.0701
11
4.78761
21
-3.06942
0
LINE
8
BLACK
6
CONTINUOUS
10
4.78761
20
-3.06942
11
4.78761
21
-3.06865
0
LINE
8
BLACK
6
CONTINUOUS
10
4.78761
20
-3.06865
11
4.78741
21
-3.0679
0
LINE
8
BLACK
6
CONTINUOUS
10
4.78741
20
-3.0679
11
4.78761
21
-3.06715
0
LINE
8
BLACK
6
CONTINUOUS
10
4.78761
20
-3.06715
11
4.78761
21
-3.06637
0
LINE
8
BLACK
6
CONTINUOUS
10
4.78761
20
-3.06637
11
4.788
21
-3.06569
0
LINE
8
BLACK
6
CONTINUOUS
10
4.788
20
-3.06569
11
4.7882
21
-3.06494
0
LINE
8
BLACK
6
CONTINUOUS
10
4.7882
20
-3.06494
11
4.78875
21
-3.06439
0
LINE
8
BLACK
6
CONTINUOUS
10
4.78875
20
-3.06439
11
4.78914
21
-3.06372
0
LINE
8
BLACK
6
CONTINUOUS
10
4.78914
20
-3.06372
11
4.8219
21
-3.03096
0
LINE
8
BLACK
6
CONTINUOUS
10
4.8219
20
-3.03096
11
4.82397
21
-3.02476
0
LINE
8
BLACK
6
CONTINUOUS
10
4.82397
20
-3.02476
11
4.82397
21
-3.02148
0
LINE
8
BLACK
6
CONTINUOUS
10
4.82397
20
-3.02148
11
4.82221
21
-3.01796
0
LINE
8
BLACK
6
CONTINUOUS
10
4.82221
20
-3.01796
11
4.82075
21
-3.01651
0
LINE
8
BLACK
6
CONTINUOUS
10
4.82075
20
-3.01651
11
4.81723
21
-3.01475
0
LINE
8
BLACK
6
CONTINUOUS
10
4.81723
20
-3.01475
11
4.80596
21
-3.01475
0
LINE
8
BLACK
6
CONTINUOUS
10
4.80596
20
-3.01475
11
4.80244
21
-3.01651
0
LINE
8
BLACK
6
CONTINUOUS
10
4.80244
20
-3.01651
11
4.8003
21
-3.01864
0
LINE
8
BLACK
6
CONTINUOUS
10
4.8003
20
-3.01864
11
4.79765
21
-3.02017
0
LINE
8
BLACK
6
CONTINUOUS
10
4.79765
20
-3.02017
11
4.7946
21
-3.02017
0
LINE
8
BLACK
6
CONTINUOUS
10
4.7946
20
-3.02017
11
4.79195
21
-3.01864
0
LINE
8
BLACK
6
CONTINUOUS
10
4.79195
20
-3.01864
11
4.79042
21
-3.01599
0
LINE
8
BLACK
6
CONTINUOUS
10
4.79042
20
-3.01599
11
4.79042
21
-3.01294
0
LINE
8
BLACK
6
CONTINUOUS
10
4.79042
20
-3.01294
11
4.79195
21
-3.01029
0
LINE
8
BLACK
6
CONTINUOUS
10
4.79195
20
-3.01029
11
4.79476
21
-3.00748
0
LINE
8
BLACK
6
CONTINUOUS
10
4.79476
20
-3.00748
11
4.79558
21
-3.007
0
LINE
8
BLACK
6
CONTINUOUS
10
4.79558
20
-3.007
11
4.7963
21
-3.00637
0
LINE
8
BLACK
6
CONTINUOUS
10
4.7963
20
-3.00637
11
4.80192
21
-3.00356
0
LINE
8
BLACK
6
CONTINUOUS
10
4.80192
20
-3.00356
11
4.80325
21
-3.00329
0
LINE
8
BLACK
6
CONTINUOUS
10
4.80325
20
-3.00329
11
4.80456
21
-3.00294
0
LINE
8
BLACK
6
CONTINUOUS
10
4.80456
20
-3.00294
11
4.81862
21
-3.00294
0
LINE
8
BLACK
6
CONTINUOUS
10
4.81862
20
-3.00294
11
4.81993
21
-3.00329
0
LINE
8
BLACK
6
CONTINUOUS
10
4.87336
20
-3.00329
11
4.87469
21
-3.00356
0
LINE
8
BLACK
6
CONTINUOUS
10
4.87469
20
-3.00356
11
4.88032
21
-3.00637
0
LINE
8
BLACK
6
CONTINUOUS
10
4.88032
20
-3.00637
11
4.88103
21
-3.007
0
LINE
8
BLACK
6
CONTINUOUS
10
4.88103
20
-3.007
11
4.88185
21
-3.00748
0
LINE
8
BLACK
6
CONTINUOUS
10
4.88185
20
-3.00748
11
4.88467
21
-3.01029
0
LINE
8
BLACK
6
CONTINUOUS
10
4.88467
20
-3.01029
11
4.88514
21
-3.01111
0
LINE
8
BLACK
6
CONTINUOUS
10
4.88514
20
-3.01111
11
4.88577
21
-3.01182
0
LINE
8
BLACK
6
CONTINUOUS
10
4.88577
20
-3.01182
11
4.88858
21
-3.01745
0
LINE
8
BLACK
6
CONTINUOUS
10
4.88858
20
-3.01745
11
4.88871
21
-3.01809
0
LINE
8
BLACK
6
CONTINUOUS
10
4.88871
20
-3.01809
11
4.88903
21
-3.01866
0
LINE
8
BLACK
6
CONTINUOUS
10
4.88903
20
-3.01866
11
4.89184
21
-3.02991
0
LINE
8
BLACK
6
CONTINUOUS
10
4.89184
20
-3.02991
11
4.89183
21
-3.03063
0
LINE
8
BLACK
6
CONTINUOUS
10
4.89183
20
-3.03063
11
4.89202
21
-3.03134
0
LINE
8
BLACK
6
CONTINUOUS
10
4.89202
20
-3.03134
11
4.89202
21
-3.0454
0
LINE
8
BLACK
6
CONTINUOUS
10
4.89202
20
-3.0454
11
4.89183
21
-3.0461
0
LINE
8
BLACK
6
CONTINUOUS
10
4.89183
20
-3.0461
11
4.89184
21
-3.04683
0
LINE
8
BLACK
6
CONTINUOUS
10
4.89184
20
-3.04683
11
4.88903
21
-3.05808
0
LINE
8
BLACK
6
CONTINUOUS
10
4.88903
20
-3.05808
11
4.88871
21
-3.05865
0
LINE
8
BLACK
6
CONTINUOUS
10
4.88871
20
-3.05865
11
4.88858
21
-3.05929
0
LINE
8
BLACK
6
CONTINUOUS
10
4.88858
20
-3.05929
11
4.88577
21
-3.06491
0
LINE
8
BLACK
6
CONTINUOUS
10
4.88577
20
-3.06491
11
4.88514
21
-3.06562
0
LINE
8
BLACK
6
CONTINUOUS
10
4.88514
20
-3.06562
11
4.88467
21
-3.06645
0
LINE
8
BLACK
6
CONTINUOUS
10
4.88467
20
-3.06645
11
4.88185
21
-3.06926
0
LINE
8
BLACK
6
CONTINUOUS
10
4.88185
20
-3.06926
11
4.88103
21
-3.06974
0
LINE
8
BLACK
6
CONTINUOUS
10
4.88103
20
-3.06974
11
4.88032
21
-3.07037
0
LINE
8
BLACK
6
CONTINUOUS
10
4.88032
20
-3.07037
11
4.87469
21
-3.07318
0
LINE
8
BLACK
6
CONTINUOUS
10
4.87469
20
-3.07318
11
4.87336
21
-3.07345
0
LINE
8
BLACK
6
CONTINUOUS
10
4.87336
20
-3.07345
11
4.87205
21
-3.0738
0
LINE
8
BLACK
6
CONTINUOUS
10
4.87205
20
-3.0738
11
4.86643
21
-3.0738
0
LINE
8
BLACK
6
CONTINUOUS
10
4.86643
20
-3.0738
11
4.86512
21
-3.07345
0
LINE
8
BLACK
6
CONTINUOUS
10
4.86512
20
-3.07345
11
4.86379
21
-3.07318
0
LINE
8
BLACK
6
CONTINUOUS
10
4.86379
20
-3.07318
11
4.85816
21
-3.07037
0
LINE
8
BLACK
6
CONTINUOUS
10
4.85816
20
-3.07037
11
4.85745
21
-3.06974
0
LINE
8
BLACK
6
CONTINUOUS
10
4.85745
20
-3.06974
11
4.85663
21
-3.06926
0
LINE
8
BLACK
6
CONTINUOUS
10
4.85663
20
-3.06926
11
4.85382
21
-3.06645
0
LINE
8
BLACK
6
CONTINUOUS
10
4.85382
20
-3.06645
11
4.85334
21
-3.06562
0
LINE
8
BLACK
6
CONTINUOUS
10
4.85334
20
-3.06562
11
4.85271
21
-3.06491
0
LINE
8
BLACK
6
CONTINUOUS
10
4.85271
20
-3.06491
11
4.8499
21
-3.05929
0
LINE
8
BLACK
6
CONTINUOUS
10
4.8499
20
-3.05929
11
4.84977
21
-3.05865
0
LINE
8
BLACK
6
CONTINUOUS
10
4.84977
20
-3.05865
11
4.84945
21
-3.05808
0
LINE
8
BLACK
6
CONTINUOUS
10
4.84945
20
-3.05808
11
4.84664
21
-3.04683
0
LINE
8
BLACK
6
CONTINUOUS
10
4.84664
20
-3.04683
11
4.84665
21
-3.0461
0
LINE
8
BLACK
6
CONTINUOUS
10
4.84665
20
-3.0461
11
4.84646
21
-3.0454
0
LINE
8
BLACK
6
CONTINUOUS
10
4.84646
20
-3.0454
11
4.84646
21
-3.03134
0
LINE
8
BLACK
6
CONTINUOUS
10
4.84646
20
-3.03134
11
4.84665
21
-3.03063
0
LINE
8
BLACK
6
CONTINUOUS
10
4.84665
20
-3.03063
11
4.84664
21
-3.02991
0
LINE
8
BLACK
6
CONTINUOUS
10
4.84664
20
-3.02991
11
4.84945
21
-3.01866
0
LINE
8
BLACK
6
CONTINUOUS
10
4.84945
20
-3.01866
11
4.84977
21
-3.01809
0
LINE
8
BLACK
6
CONTINUOUS
10
4.84977
20
-3.01809
11
4.8499
21
-3.01745
0
LINE
8
BLACK
6
CONTINUOUS
10
4.8499
20
-3.01745
11
4.85271
21
-3.01182
0
LINE
8
BLACK
6
CONTINUOUS
10
4.85271
20
-3.01182
11
4.85334
21
-3.01111
0
LINE
8
BLACK
6
CONTINUOUS
10
4.85334
20
-3.01111
11
4.85382
21
-3.01029
0
LINE
8
BLACK
6
CONTINUOUS
10
4.85382
20
-3.01029
11
4.85663
21
-3.00748
0
LINE
8
BLACK
6
CONTINUOUS
10
4.85663
20
-3.00748
11
4.85745
21
-3.007
0
LINE
8
BLACK
6
CONTINUOUS
10
4.85745
20
-3.007
11
4.85816
21
-3.00637
0
LINE
8
BLACK
6
CONTINUOUS
10
4.85816
20
-3.00637
11
4.86379
21
-3.00356
0
LINE
8
BLACK
6
CONTINUOUS
10
4.86379
20
-3.00356
11
4.86512
21
-3.00329
0
LINE
8
BLACK
6
CONTINUOUS
10
4.86512
20
-3.00329
11
4.86643
21
-3.00294
0
LINE
8
BLACK
6
CONTINUOUS
10
4.86643
20
-3.00294
11
4.87205
21
-3.00294
0
LINE
8
BLACK
6
CONTINUOUS
10
4.87205
20
-3.00294
11
4.87336
21
-3.00329
0
LINE
8
BLACK
6
CONTINUOUS
10
4.86782
20
-3.01475
11
4.8643
21
-3.01651
0
LINE
8
BLACK
6
CONTINUOUS
10
4.8643
20
-3.01651
11
4.86285
21
-3.01796
0
LINE
8
BLACK
6
CONTINUOUS
10
4.86285
20
-3.01796
11
4.86075
21
-3.02215
0
LINE
8
BLACK
6
CONTINUOUS
10
4.86075
20
-3.02215
11
4.85827
21
-3.03207
0
LINE
8
BLACK
6
CONTINUOUS
10
4.85827
20
-3.03207
11
4.85827
21
-3.04467
0
LINE
8
BLACK
6
CONTINUOUS
10
4.85827
20
-3.04467
11
4.86075
21
-3.05459
0
LINE
8
BLACK
6
CONTINUOUS
10
4.86075
20
-3.05459
11
4.86285
21
-3.05877
0
LINE
8
BLACK
6
CONTINUOUS
10
4.86285
20
-3.05877
11
4.8643
21
-3.06023
0
LINE
8
BLACK
6
CONTINUOUS
10
4.8643
20
-3.06023
11
4.86782
21
-3.06199
0
LINE
8
BLACK
6
CONTINUOUS
10
4.86782
20
-3.06199
11
4.87066
21
-3.06199
0
LINE
8
BLACK
6
CONTINUOUS
10
4.87066
20
-3.06199
11
4.87418
21
-3.06023
0
LINE
8
BLACK
6
CONTINUOUS
10
4.87418
20
-3.06023
11
4.87564
21
-3.05877
0
LINE
8
BLACK
6
CONTINUOUS
10
4.87564
20
-3.05877
11
4.87773
21
-3.05459
0
LINE
8
BLACK
6
CONTINUOUS
10
4.87773
20
-3.05459
11
4.88021
21
-3.04467
0
LINE
8
BLACK
6
CONTINUOUS
10
4.88021
20
-3.04467
11
4.88021
21
-3.03207
0
LINE
8
BLACK
6
CONTINUOUS
10
4.88021
20
-3.03207
11
4.87773
21
-3.02215
0
LINE
8
BLACK
6
CONTINUOUS
10
4.87773
20
-3.02215
11
4.87564
21
-3.01796
0
LINE
8
BLACK
6
CONTINUOUS
10
4.87564
20
-3.01796
11
4.87418
21
-3.01651
0
LINE
8
BLACK
6
CONTINUOUS
10
4.87418
20
-3.01651
11
4.87066
21
-3.01475
0
LINE
8
BLACK
6
CONTINUOUS
10
4.87066
20
-3.01475
11
4.86782
21
-3.01475
0
LINE
8
BLACK
6
CONTINUOUS
10
4.93242
20
-3.00329
11
4.93375
21
-3.00356
0
LINE
8
BLACK
6
CONTINUOUS
10
4.93375
20
-3.00356
11
4.93937
21
-3.00637
0
LINE
8
BLACK
6
CONTINUOUS
10
4.93937
20
-3.00637
11
4.94008
21
-3.007
0
LINE
8
BLACK
6
CONTINUOUS
10
4.94008
20
-3.007
11
4.94091
21
-3.00748
0
LINE
8
BLACK
6
CONTINUOUS
10
4.94091
20
-3.00748
11
4.94372
21
-3.01029
0
LINE
8
BLACK
6
CONTINUOUS
10
4.94372
20
-3.01029
11
4.9442
21
-3.01111
0
LINE
8
BLACK
6
CONTINUOUS
10
4.9442
20
-3.01111
11
4.94483
21
-3.01182
0
LINE
8
BLACK
6
CONTINUOUS
10
4.94483
20
-3.01182
11
4.94764
21
-3.01745
0
LINE
8
BLACK
6
CONTINUOUS
10
4.94764
20
-3.01745
11
4.94791
21
-3.01878
0
LINE
8
BLACK
6
CONTINUOUS
10
4.94791
20
-3.01878
11
4.94826
21
-3.02009
0
LINE
8
BLACK
6
CONTINUOUS
10
4.94826
20
-3.02009
11
4.94826
21
-3.02571
0
LINE
8
BLACK
6
CONTINUOUS
10
4.94826
20
-3.02571
11
4.94802
21
-3.02663
0
LINE
8
BLACK
6
CONTINUOUS
10
4.94802
20
-3.02663
11
4.94796
21
-3.02758
0
LINE
8
BLACK
6
CONTINUOUS
10
4.94796
20
-3.02758
11
4.94515
21
-3.03602
0
LINE
8
BLACK
6
CONTINUOUS
10
4.94515
20
-3.03602
11
4.9444
21
-3.03715
0
LINE
8
BLACK
6
CONTINUOUS
10
4.9444
20
-3.03715
11
4.94372
21
-3.03833
0
LINE
8
BLACK
6
CONTINUOUS
10
4.94372
20
-3.03833
11
4.92006
21
-3.06199
0
LINE
8
BLACK
6
CONTINUOUS
10
4.92006
20
-3.06199
11
4.94236
21
-3.06199
0
LINE
8
BLACK
6
CONTINUOUS
10
4.94236
20
-3.06199
11
4.94531
21
-3.06278
0
LINE
8
BLACK
6
CONTINUOUS
10
4.94531
20
-3.06278
11
4.94747
21
-3.06494
0
LINE
8
BLACK
6
CONTINUOUS
10
4.94747
20
-3.06494
11
4.94826
21
-3.0679
0
LINE
8
BLACK
6
CONTINUOUS
10
4.94826
20
-3.0679
11
4.94747
21
-3.07085
0
LINE
8
BLACK
6
CONTINUOUS
10
4.94747
20
-3.07085
11
4.94531
21
-3.07301
0
LINE
8
BLACK
6
CONTINUOUS
10
4.94531
20
-3.07301
11
4.94236
21
-3.0738
0
LINE
8
BLACK
6
CONTINUOUS
10
4.94236
20
-3.0738
11
4.9058
21
-3.0738
0
LINE
8
BLACK
6
CONTINUOUS
10
4.9058
20
-3.0738
11
4.90505
21
-3.0736
0
LINE
8
BLACK
6
CONTINUOUS
10
4.90505
20
-3.0736
11
4.90427
21
-3.0736
0
LINE
8
BLACK
6
CONTINUOUS
10
4.90427
20
-3.0736
11
4.9036
21
-3.07321
0
LINE
8
BLACK
6
CONTINUOUS
10
4.9036
20
-3.07321
11
4.90285
21
-3.07301
0
LINE
8
BLACK
6
CONTINUOUS
10
4.90285
20
-3.07301
11
4.9023
21
-3.07246
0
LINE
8
BLACK
6
CONTINUOUS
10
4.9023
20
-3.07246
11
4.90162
21
-3.07207
0
LINE
8
BLACK
6
CONTINUOUS
10
4.90162
20
-3.07207
11
4.90123
21
-3.0714
0
LINE
8
BLACK
6
CONTINUOUS
10
4.90123
20
-3.0714
11
4.90068
21
-3.07085
0
LINE
8
BLACK
6
CONTINUOUS
10
4.90068
20
-3.07085
11
4.90048
21
-3.0701
0
LINE
8
BLACK
6
CONTINUOUS
10
4.90048
20
-3.0701
11
4.90009
21
-3.06942
0
LINE
8
BLACK
6
CONTINUOUS
10
4.90009
20
-3.06942
11
4.90009
21
-3.06865
0
LINE
8
BLACK
6
CONTINUOUS
10
4.90009
20
-3.06865
11
4.89989
21
-3.0679
0
LINE
8
BLACK
6
CONTINUOUS
10
4.89989
20
-3.0679
11
4.90009
21
-3.06715
0
LINE
8
BLACK
6
CONTINUOUS
10
4.90009
20
-3.06715
11
4.90009
21
-3.06637
0
LINE
8
BLACK
6
CONTINUOUS
10
4.90009
20
-3.06637
11
4.90048
21
-3.06569
0
LINE
8
BLACK
6
CONTINUOUS
10
4.90048
20
-3.06569
11
4.90068
21
-3.06494
0
LINE
8
BLACK
6
CONTINUOUS
10
4.90068
20
-3.06494
11
4.90123
21
-3.06439
0
LINE
8
BLACK
6
CONTINUOUS
10
4.90123
20
-3.06439
11
4.90162
21
-3.06372
0
LINE
8
BLACK
6
CONTINUOUS
10
4.90162
20
-3.06372
11
4.93438
21
-3.03096
0
LINE
8
BLACK
6
CONTINUOUS
10
4.93438
20
-3.03096
11
4.93645
21
-3.02476
0
LINE
8
BLACK
6
CONTINUOUS
10
4.93645
20
-3.02476
11
4.93645
21
-3.02148
0
LINE
8
BLACK
6
CONTINUOUS
10
4.93645
20
-3.02148
11
4.93469
21
-3.01796
0
LINE
8
BLACK
6
CONTINUOUS
10
4.93469
20
-3.01796
11
4.93323
21
-3.01651
0
LINE
8
BLACK
6
CONTINUOUS
10
4.93323
20
-3.01651
11
4.92971
21
-3.01475
0
LINE
8
BLACK
6
CONTINUOUS
10
4.92971
20
-3.01475
11
4.91844
21
-3.01475
0
LINE
8
BLACK
6
CONTINUOUS
10
4.91844
20
-3.01475
11
4.91492
21
-3.01651
0
LINE
8
BLACK
6
CONTINUOUS
10
4.91492
20
-3.01651
11
4.91279
21
-3.01864
0
LINE
8
BLACK
6
CONTINUOUS
10
4.91279
20
-3.01864
11
4.91014
21
-3.02017
0
LINE
8
BLACK
6
CONTINUOUS
10
4.91014
20
-3.02017
11
4.90708
21
-3.02017
0
LINE
8
BLACK
6
CONTINUOUS
10
4.90708
20
-3.02017
11
4.90443
21
-3.01864
0
LINE
8
BLACK
6
CONTINUOUS
10
4.90443
20
-3.01864
11
4.90291
21
-3.01599
0
LINE
8
BLACK
6
CONTINUOUS
10
4.90291
20
-3.01599
11
4.90291
21
-3.01294
0
LINE
8
BLACK
6
CONTINUOUS
10
4.90291
20
-3.01294
11
4.90443
21
-3.01029
0
LINE
8
BLACK
6
CONTINUOUS
10
4.90443
20
-3.01029
11
4.90725
21
-3.00748
0
LINE
8
BLACK
6
CONTINUOUS
10
4.90725
20
-3.00748
11
4.90807
21
-3.007
0
LINE
8
BLACK
6
CONTINUOUS
10
4.90807
20
-3.007
11
4.90878
21
-3.00637
0
LINE
8
BLACK
6
CONTINUOUS
10
4.90878
20
-3.00637
11
4.91441
21
-3.00356
0
LINE
8
BLACK
6
CONTINUOUS
10
4.91441
20
-3.00356
11
4.91574
21
-3.00329
0
LINE
8
BLACK
6
CONTINUOUS
10
4.91574
20
-3.00329
11
4.91705
21
-3.00294
0
LINE
8
BLACK
6
CONTINUOUS
10
4.91705
20
-3.00294
11
4.93111
21
-3.00294
0
LINE
8
BLACK
6
CONTINUOUS
10
4.93111
20
-3.00294
11
4.93242
21
-3.00329
0
LINE
8
BLACK
6
CONTINUOUS
10
4.98866
20
-3.00329
11
4.98999
21
-3.00356
0
LINE
8
BLACK
6
CONTINUOUS
10
4.98999
20
-3.00356
11
4.99562
21
-3.00637
0
LINE
8
BLACK
6
CONTINUOUS
10
4.99562
20
-3.00637
11
4.99633
21
-3.007
0
LINE
8
BLACK
6
CONTINUOUS
10
4.99633
20
-3.007
11
4.99715
21
-3.00748
0
LINE
8
BLACK
6
CONTINUOUS
10
4.99715
20
-3.00748
11
4.99996
21
-3.01029
0
LINE
8
BLACK
6
CONTINUOUS
10
4.99996
20
-3.01029
11
5.00044
21
-3.01111
0
LINE
8
BLACK
6
CONTINUOUS
10
5.00044
20
-3.01111
11
5.00107
21
-3.01182
0
LINE
8
BLACK
6
CONTINUOUS
10
5.00107
20
-3.01182
11
5.00388
21
-3.01745
0
LINE
8
BLACK
6
CONTINUOUS
10
5.00388
20
-3.01745
11
5.00415
21
-3.01878
0
LINE
8
BLACK
6
CONTINUOUS
10
5.00415
20
-3.01878
11
5.00451
21
-3.02009
0
LINE
8
BLACK
6
CONTINUOUS
10
5.00451
20
-3.02009
11
5.00451
21
-3.02571
0
LINE
8
BLACK
6
CONTINUOUS
10
5.00451
20
-3.02571
11
5.00426
21
-3.02663
0
LINE
8
BLACK
6
CONTINUOUS
10
5.00426
20
-3.02663
11
5.0042
21
-3.02758
0
LINE
8
BLACK
6
CONTINUOUS
10
5.0042
20
-3.02758
11
5.00139
21
-3.03602
0
LINE
8
BLACK
6
CONTINUOUS
10
5.00139
20
-3.03602
11
5.00064
21
-3.03715
0
LINE
8
BLACK
6
CONTINUOUS
10
5.00064
20
-3.03715
11
4.99996
21
-3.03833
0
LINE
8
BLACK
6
CONTINUOUS
10
4.99996
20
-3.03833
11
4.9763
21
-3.06199
0
LINE
8
BLACK
6
CONTINUOUS
10
4.9763
20
-3.06199
11
4.9986
21
-3.06199
0
LINE
8
BLACK
6
CONTINUOUS
10
4.9986
20
-3.06199
11
5.00155
21
-3.06278
0
LINE
8
BLACK
6
CONTINUOUS
10
5.00155
20
-3.06278
11
5.00371
21
-3.06494
0
LINE
8
BLACK
6
CONTINUOUS
10
5.00371
20
-3.06494
11
5.00451
21
-3.0679
0
LINE
8
BLACK
6
CONTINUOUS
10
5.00451
20
-3.0679
11
5.00371
21
-3.07085
0
LINE
8
BLACK
6
CONTINUOUS
10
5.00371
20
-3.07085
11
5.00155
21
-3.07301
0
LINE
8
BLACK
6
CONTINUOUS
10
5.00155
20
-3.07301
11
4.9986
21
-3.0738
0
LINE
8
BLACK
6
CONTINUOUS
10
4.9986
20
-3.0738
11
4.96204
21
-3.0738
0
LINE
8
BLACK
6
CONTINUOUS
10
4.96204
20
-3.0738
11
4.96129
21
-3.0736
0
LINE
8
BLACK
6
CONTINUOUS
10
4.96129
20
-3.0736
11
4.96051
21
-3.0736
0
LINE
8
BLACK
6
CONTINUOUS
10
4.96051
20
-3.0736
11
4.95984
21
-3.07321
0
LINE
8
BLACK
6
CONTINUOUS
10
4.95984
20
-3.07321
11
4.95909
21
-3.07301
0
LINE
8
BLACK
6
CONTINUOUS
10
4.95909
20
-3.07301
11
4.95854
21
-3.07246
0
LINE
8
BLACK
6
CONTINUOUS
10
4.95854
20
-3.07246
11
4.95787
21
-3.07207
0
LINE
8
BLACK
6
CONTINUOUS
10
4.95787
20
-3.07207
11
4.95748
21
-3.0714
0
LINE
8
BLACK
6
CONTINUOUS
10
4.95748
20
-3.0714
11
4.95693
21
-3.07085
0
LINE
8
BLACK
6
CONTINUOUS
10
4.95693
20
-3.07085
11
4.95673
21
-3.0701
0
LINE
8
BLACK
6
CONTINUOUS
10
4.95673
20
-3.0701
11
4.95634
21
-3.06942
0
LINE
8
BLACK
6
CONTINUOUS
10
4.95634
20
-3.06942
11
4.95634
21
-3.06865
0
LINE
8
BLACK
6
CONTINUOUS
10
4.95634
20
-3.06865
11
4.95614
21
-3.0679
0
LINE
8
BLACK
6
CONTINUOUS
10
4.95614
20
-3.0679
11
4.95634
21
-3.06715
0
LINE
8
BLACK
6
CONTINUOUS
10
4.95634
20
-3.06715
11
4.95634
21
-3.06637
0
LINE
8
BLACK
6
CONTINUOUS
10
4.95634
20
-3.06637
11
4.95673
21
-3.06569
0
LINE
8
BLACK
6
CONTINUOUS
10
4.95673
20
-3.06569
11
4.95693
21
-3.06494
0
LINE
8
BLACK
6
CONTINUOUS
10
4.95693
20
-3.06494
11
4.95748
21
-3.06439
0
LINE
8
BLACK
6
CONTINUOUS
10
4.95748
20
-3.06439
11
4.95787
21
-3.06372
0
LINE
8
BLACK
6
CONTINUOUS
10
4.95787
20
-3.06372
11
4.99063
21
-3.03096
0
LINE
8
BLACK
6
CONTINUOUS
10
4.99063
20
-3.03096
11
4.99269
21
-3.02476
0
LINE
8
BLACK
6
CONTINUOUS
10
4.99269
20
-3.02476
11
4.99269
21
-3.02148
0
LINE
8
BLACK
6
CONTINUOUS
10
4.99269
20
-3.02148
11
4.99093
21
-3.01796
0
LINE
8
BLACK
6
CONTINUOUS
10
4.99093
20
-3.01796
11
4.98948
21
-3.01651
0
LINE
8
BLACK
6
CONTINUOUS
10
4.98948
20
-3.01651
11
4.98596
21
-3.01475
0
LINE
8
BLACK
6
CONTINUOUS
10
4.98596
20
-3.01475
11
4.97468
21
-3.01475
0
LINE
8
BLACK
6
CONTINUOUS
10
4.97468
20
-3.01475
11
4.97116
21
-3.01651
0
LINE
8
BLACK
6
CONTINUOUS
10
4.97116
20
-3.01651
11
4.96903
21
-3.01864
0
LINE
8
BLACK
6
CONTINUOUS
10
4.96903
20
-3.01864
11
4.96638
21
-3.02017
0
LINE
8
BLACK
6
CONTINUOUS
10
4.96638
20
-3.02017
11
4.96333
21
-3.02017
0
LINE
8
BLACK
6
CONTINUOUS
10
4.96333
20
-3.02017
11
4.96068
21
-3.01864
0
LINE
8
BLACK
6
CONTINUOUS
10
4.96068
20
-3.01864
11
4.95915
21
-3.01599
0
LINE
8
BLACK
6
CONTINUOUS
10
4.95915
20
-3.01599
11
4.95915
21
-3.01294
0
LINE
8
BLACK
6
CONTINUOUS
10
4.95915
20
-3.01294
11
4.96068
21
-3.01029
0
LINE
8
BLACK
6
CONTINUOUS
10
4.96068
20
-3.01029
11
4.96349
21
-3.00748
0
LINE
8
BLACK
6
CONTINUOUS
10
4.96349
20
-3.00748
11
4.96431
21
-3.007
0
LINE
8
BLACK
6
CONTINUOUS
10
4.96431
20
-3.007
11
4.96502
21
-3.00637
0
LINE
8
BLACK
6
CONTINUOUS
10
4.96502
20
-3.00637
11
4.97065
21
-3.00356
0
LINE
8
BLACK
6
CONTINUOUS
10
4.97065
20
-3.00356
11
4.97198
21
-3.00329
0
LINE
8
BLACK
6
CONTINUOUS
10
4.97198
20
-3.00329
11
4.97329
21
-3.00294
0
LINE
8
BLACK
6
CONTINUOUS
10
4.97329
20
-3.00294
11
4.98735
21
-3.00294
0
LINE
8
BLACK
6
CONTINUOUS
10
4.98735
20
-3.00294
11
4.98866
21
-3.00329
0
LINE
8
BLACK
6
CONTINUOUS
10
4.96359
20
-2.90373
11
4.96575
21
-2.90589
0
LINE
8
BLACK
6
CONTINUOUS
10
4.96575
20
-2.90589
11
4.96654
21
-2.90884
0
LINE
8
BLACK
6
CONTINUOUS
10
4.96654
20
-2.90884
11
4.96654
21
-2.9679
0
LINE
8
BLACK
6
CONTINUOUS
10
4.96654
20
-2.9679
11
4.96575
21
-2.97085
0
LINE
8
BLACK
6
CONTINUOUS
10
4.96575
20
-2.97085
11
4.96359
21
-2.97301
0
LINE
8
BLACK
6
CONTINUOUS
10
4.96359
20
-2.97301
11
4.96064
21
-2.9738
0
LINE
8
BLACK
6
CONTINUOUS
10
4.96064
20
-2.9738
11
4.95768
21
-2.97301
0
LINE
8
BLACK
6
CONTINUOUS
10
4.95768
20
-2.97301
11
4.95552
21
-2.97085
0
LINE
8
BLACK
6
CONTINUOUS
10
4.95552
20
-2.97085
11
4.95473
21
-2.9679
0
LINE
8
BLACK
6
CONTINUOUS
10
4.95473
20
-2.9679
11
4.95473
21
-2.94287
0
LINE
8
BLACK
6
CONTINUOUS
10
4.95473
20
-2.94287
11
4.9328
21
-2.94287
0
LINE
8
BLACK
6
CONTINUOUS
10
4.9328
20
-2.94287
11
4.9328
21
-2.9679
0
LINE
8
BLACK
6
CONTINUOUS
10
4.9328
20
-2.9679
11
4.932
21
-2.97085
0
LINE
8
BLACK
6
CONTINUOUS
10
4.932
20
-2.97085
11
4.92984
21
-2.97301
0
LINE
8
BLACK
6
CONTINUOUS
10
4.92984
20
-2.97301
11
4.92689
21
-2.9738
0
LINE
8
BLACK
6
CONTINUOUS
10
4.92689
20
-2.9738
11
4.92394
21
-2.97301
0
LINE
8
BLACK
6
CONTINUOUS
10
4.92394
20
-2.97301
11
4.92178
21
-2.97085
0
LINE
8
BLACK
6
CONTINUOUS
10
4.92178
20
-2.97085
11
4.92098
21
-2.9679
0
LINE
8
BLACK
6
CONTINUOUS
10
4.92098
20
-2.9679
11
4.92098
21
-2.90884
0
LINE
8
BLACK
6
CONTINUOUS
10
4.92098
20
-2.90884
11
4.92178
21
-2.90589
0
LINE
8
BLACK
6
CONTINUOUS
10
4.92178
20
-2.90589
11
4.92394
21
-2.90373
0
LINE
8
BLACK
6
CONTINUOUS
10
4.92394
20
-2.90373
11
4.92689
21
-2.90294
0
LINE
8
BLACK
6
CONTINUOUS
10
4.92689
20
-2.90294
11
4.92984
21
-2.90373
0
LINE
8
BLACK
6
CONTINUOUS
10
4.92984
20
-2.90373
11
4.932
21
-2.90589
0
LINE
8
BLACK
6
CONTINUOUS
10
4.932
20
-2.90589
11
4.9328
21
-2.90884
0
LINE
8
BLACK
6
CONTINUOUS
10
4.9328
20
-2.90884
11
4.9328
21
-2.93106
0
LINE
8
BLACK
6
CONTINUOUS
10
4.9328
20
-2.93106
11
4.95473
21
-2.93106
0
LINE
8
BLACK
6
CONTINUOUS
10
4.95473
20
-2.93106
11
4.95473
21
-2.90884
0
LINE
8
BLACK
6
CONTINUOUS
10
4.95473
20
-2.90884
11
4.95552
21
-2.90589
0
LINE
8
BLACK
6
CONTINUOUS
10
4.95552
20
-2.90589
11
4.95768
21
-2.90373
0
LINE
8
BLACK
6
CONTINUOUS
10
4.95768
20
-2.90373
11
4.96064
21
-2.90294
0
LINE
8
BLACK
6
CONTINUOUS
10
4.96064
20
-2.90294
11
4.96359
21
-2.90373
0
LINE
8
BLACK
6
CONTINUOUS
10
5.01257
20
-2.90329
11
5.0139
21
-2.90356
0
LINE
8
BLACK
6
CONTINUOUS
10
5.0139
20
-2.90356
11
5.01952
21
-2.90637
0
LINE
8
BLACK
6
CONTINUOUS
10
5.01952
20
-2.90637
11
5.02023
21
-2.907
0
LINE
8
BLACK
6
CONTINUOUS
10
5.02023
20
-2.907
11
5.02105
21
-2.90748
0
LINE
8
BLACK
6
CONTINUOUS
10
5.02105
20
-2.90748
11
5.02668
21
-2.9131
0
LINE
8
BLACK
6
CONTINUOUS
10
5.02668
20
-2.9131
11
5.0267
21
-2.91315
0
LINE
8
BLACK
6
CONTINUOUS
10
5.0267
20
-2.91315
11
5.02675
21
-2.91317
0
LINE
8
BLACK
6
CONTINUOUS
10
5.02675
20
-2.91317
11
5.02747
21
-2.91447
0
LINE
8
BLACK
6
CONTINUOUS
10
5.02747
20
-2.91447
11
5.02821
21
-2.91575
0
LINE
8
BLACK
6
CONTINUOUS
10
5.02821
20
-2.91575
11
5.02821
21
-2.9158
0
LINE
8
BLACK
6
CONTINUOUS
10
5.02821
20
-2.9158
11
5.02823
21
-2.91585
0
LINE
8
BLACK
6
CONTINUOUS
10
5.02823
20
-2.91585
11
5.03104
21
-2.92709
0
LINE
8
BLACK
6
CONTINUOUS
10
5.03104
20
-2.92709
11
5.03103
21
-2.92782
0
LINE
8
BLACK
6
CONTINUOUS
10
5.03103
20
-2.92782
11
5.03122
21
-2.92853
0
LINE
8
BLACK
6
CONTINUOUS
10
5.03122
20
-2.92853
11
5.03122
21
-2.94821
0
LINE
8
BLACK
6
CONTINUOUS
10
5.03122
20
-2.94821
11
5.03103
21
-2.94892
0
LINE
8
BLACK
6
CONTINUOUS
10
5.03103
20
-2.94892
11
5.03104
21
-2.94964
0
LINE
8
BLACK
6
CONTINUOUS
10
5.03104
20
-2.94964
11
5.02823
21
-2.96089
0
LINE
8
BLACK
6
CONTINUOUS
10
5.02823
20
-2.96089
11
5.02821
21
-2.96094
0
LINE
8
BLACK
6
CONTINUOUS
10
5.02821
20
-2.96094
11
5.02821
21
-2.96099
0
LINE
8
BLACK
6
CONTINUOUS
10
5.02821
20
-2.96099
11
5.02747
21
-2.96227
0
LINE
8
BLACK
6
CONTINUOUS
10
5.02747
20
-2.96227
11
5.02675
21
-2.96357
0
LINE
8
BLACK
6
CONTINUOUS
10
5.02675
20
-2.96357
11
5.0267
21
-2.96359
0
LINE
8
BLACK
6
CONTINUOUS
10
5.0267
20
-2.96359
11
5.02668
21
-2.96364
0
LINE
8
BLACK
6
CONTINUOUS
10
5.02668
20
-2.96364
11
5.02105
21
-2.96926
0
LINE
8
BLACK
6
CONTINUOUS
10
5.02105
20
-2.96926
11
5.02023
21
-2.96974
0
LINE
8
BLACK
6
CONTINUOUS
10
5.02023
20
-2.96974
11
5.01952
21
-2.97037
0
LINE
8
BLACK
6
CONTINUOUS
10
5.01952
20
-2.97037
11
5.0139
21
-2.97318
0
LINE
8
BLACK
6
CONTINUOUS
10
5.0139
20
-2.97318
11
5.01257
21
-2.97345
0
LINE
8
BLACK
6
CONTINUOUS
10
5.01257
20
-2.97345
11
5.01125
21
-2.9738
0
LINE
8
BLACK
6
CONTINUOUS
10
5.01125
20
-2.9738
11
5.00001
21
-2.9738
0
LINE
8
BLACK
6
CONTINUOUS
10
5.00001
20
-2.9738
11
4.99869
21
-2.97345
0
LINE
8
BLACK
6
CONTINUOUS
10
4.99869
20
-2.97345
11
4.99736
21
-2.97318
0
LINE
8
BLACK
6
CONTINUOUS
10
4.99736
20
-2.97318
11
4.99174
21
-2.97037
0
LINE
8
BLACK
6
CONTINUOUS
10
4.99174
20
-2.97037
11
4.99103
21
-2.96974
0
LINE
8
BLACK
6
CONTINUOUS
10
4.99103
20
-2.96974
11
4.99021
21
-2.96926
0
LINE
8
BLACK
6
CONTINUOUS
10
4.99021
20
-2.96926
11
4.98458
21
-2.96364
0
LINE
8
BLACK
6
CONTINUOUS
10
4.98458
20
-2.96364
11
4.98456
21
-2.96359
0
LINE
8
BLACK
6
CONTINUOUS
10
4.98456
20
-2.96359
11
4.98451
21
-2.96357
0
LINE
8
BLACK
6
CONTINUOUS
10
4.98451
20
-2.96357
11
4.98379
21
-2.96227
0
LINE
8
BLACK
6
CONTINUOUS
10
4.98379
20
-2.96227
11
4.98305
21
-2.96099
0
LINE
8
BLACK
6
CONTINUOUS
10
4.98305
20
-2.96099
11
4.98305
21
-2.96094
0
LINE
8
BLACK
6
CONTINUOUS
10
4.98305
20
-2.96094
11
4.98303
21
-2.96089
0
LINE
8
BLACK
6
CONTINUOUS
10
4.98303
20
-2.96089
11
4.98022
21
-2.94964
0
LINE
8
BLACK
6
CONTINUOUS
10
4.98022
20
-2.94964
11
4.98023
21
-2.94892
0
LINE
8
BLACK
6
CONTINUOUS
10
4.98023
20
-2.94892
11
4.98004
21
-2.94821
0
LINE
8
BLACK
6
CONTINUOUS
10
4.98004
20
-2.94821
11
4.98004
21
-2.92853
0
LINE
8
BLACK
6
CONTINUOUS
10
4.98004
20
-2.92853
11
4.98023
21
-2.92782
0
LINE
8
BLACK
6
CONTINUOUS
10
4.98023
20
-2.92782
11
4.98022
21
-2.92709
0
LINE
8
BLACK
6
CONTINUOUS
10
4.98022
20
-2.92709
11
4.98303
21
-2.91585
0
LINE
8
BLACK
6
CONTINUOUS
10
4.98303
20
-2.91585
11
4.98305
21
-2.9158
0
LINE
8
BLACK
6
CONTINUOUS
10
4.98305
20
-2.9158
11
4.98305
21
-2.91575
0
LINE
8
BLACK
6
CONTINUOUS
10
4.98305
20
-2.91575
11
4.98379
21
-2.91447
0
LINE
8
BLACK
6
CONTINUOUS
10
4.98379
20
-2.91447
11
4.98451
21
-2.91317
0
LINE
8
BLACK
6
CONTINUOUS
10
4.98451
20
-2.91317
11
4.98456
21
-2.91315
0
LINE
8
BLACK
6
CONTINUOUS
10
4.98456
20
-2.91315
11
4.98458
21
-2.9131
0
LINE
8
BLACK
6
CONTINUOUS
10
4.98458
20
-2.9131
11
4.99021
21
-2.90748
0
LINE
8
BLACK
6
CONTINUOUS
10
4.99021
20
-2.90748
11
4.99103
21
-2.907
0
LINE
8
BLACK
6
CONTINUOUS
10
4.99103
20
-2.907
11
4.99174
21
-2.90637
0
LINE
8
BLACK
6
CONTINUOUS
10
4.99174
20
-2.90637
11
4.99736
21
-2.90356
0
LINE
8
BLACK
6
CONTINUOUS
10
4.99736
20
-2.90356
11
4.99869
21
-2.90329
0
LINE
8
BLACK
6
CONTINUOUS
10
4.99869
20
-2.90329
11
5.00001
21
-2.90294
0
LINE
8
BLACK
6
CONTINUOUS
10
5.00001
20
-2.90294
11
5.01125
21
-2.90294
0
LINE
8
BLACK
6
CONTINUOUS
10
5.01125
20
-2.90294
11
5.01257
21
-2.90329
0
LINE
8
BLACK
6
CONTINUOUS
10
5.0014
20
-2.91475
11
4.99788
21
-2.91651
0
LINE
8
BLACK
6
CONTINUOUS
10
4.99788
20
-2.91651
11
4.99409
21
-2.9203
0
LINE
8
BLACK
6
CONTINUOUS
10
4.99409
20
-2.9203
11
4.99185
21
-2.92925
0
LINE
8
BLACK
6
CONTINUOUS
10
4.99185
20
-2.92925
11
4.99185
21
-2.94748
0
LINE
8
BLACK
6
CONTINUOUS
10
4.99185
20
-2.94748
11
4.99409
21
-2.95644
0
LINE
8
BLACK
6
CONTINUOUS
10
4.99409
20
-2.95644
11
4.99788
21
-2.96023
0
LINE
8
BLACK
6
CONTINUOUS
10
4.99788
20
-2.96023
11
5.0014
21
-2.96199
0
LINE
8
BLACK
6
CONTINUOUS
10
5.0014
20
-2.96199
11
5.00986
21
-2.96199
0
LINE
8
BLACK
6
CONTINUOUS
10
5.00986
20
-2.96199
11
5.01338
21
-2.96023
0
LINE
8
BLACK
6
CONTINUOUS
10
5.01338
20
-2.96023
11
5.01717
21
-2.95644
0
LINE
8
BLACK
6
CONTINUOUS
10
5.01717
20
-2.95644
11
5.01941
21
-2.94748
0
LINE
8
BLACK
6
CONTINUOUS
10
5.01941
20
-2.94748
11
5.01941
21
-2.92925
0
LINE
8
BLACK
6
CONTINUOUS
10
5.01941
20
-2.92925
11
5.01717
21
-2.9203
0
LINE
8
BLACK
6
CONTINUOUS
10
5.01717
20
-2.9203
11
5.01338
21
-2.91651
0
LINE
8
BLACK
6
CONTINUOUS
10
5.01338
20
-2.91651
11
5.00986
21
-2.91475
0
LINE
8
BLACK
6
CONTINUOUS
10
5.00986
20
-2.91475
11
5.0014
21
-2.91475
0
LINE
8
BLACK
6
CONTINUOUS
10
4.79205
20
-2.90373
11
4.79421
21
-2.90589
0
LINE
8
BLACK
6
CONTINUOUS
10
4.79421
20
-2.90589
11
4.795
21
-2.90884
0
LINE
8
BLACK
6
CONTINUOUS
10
4.795
20
-2.90884
11
4.795
21
-2.95102
0
LINE
8
BLACK
6
CONTINUOUS
10
4.795
20
-2.95102
11
4.79475
21
-2.95194
0
LINE
8
BLACK
6
CONTINUOUS
10
4.79475
20
-2.95194
11
4.7947
21
-2.95289
0
LINE
8
BLACK
6
CONTINUOUS
10
4.7947
20
-2.95289
11
4.79188
21
-2.96133
0
LINE
8
BLACK
6
CONTINUOUS
10
4.79188
20
-2.96133
11
4.79114
21
-2.96246
0
LINE
8
BLACK
6
CONTINUOUS
10
4.79114
20
-2.96246
11
4.79046
21
-2.96364
0
LINE
8
BLACK
6
CONTINUOUS
10
4.79046
20
-2.96364
11
4.78483
21
-2.96926
0
LINE
8
BLACK
6
CONTINUOUS
10
4.78483
20
-2.96926
11
4.78366
21
-2.96994
0
LINE
8
BLACK
6
CONTINUOUS
10
4.78366
20
-2.96994
11
4.78253
21
-2.97069
0
LINE
8
BLACK
6
CONTINUOUS
10
4.78253
20
-2.97069
11
4.77409
21
-2.9735
0
LINE
8
BLACK
6
CONTINUOUS
10
4.77409
20
-2.9735
11
4.77314
21
-2.97356
0
LINE
8
BLACK
6
CONTINUOUS
10
4.77314
20
-2.97356
11
4.77222
21
-2.9738
0
LINE
8
BLACK
6
CONTINUOUS
10
4.77222
20
-2.9738
11
4.7666
21
-2.9738
0
LINE
8
BLACK
6
CONTINUOUS
10
4.7666
20
-2.9738
11
4.76364
21
-2.97301
0
LINE
8
BLACK
6
CONTINUOUS
10
4.76364
20
-2.97301
11
4.76148
21
-2.97085
0
LINE
8
BLACK
6
CONTINUOUS
10
4.76148
20
-2.97085
11
4.76069
21
-2.9679
0
LINE
8
BLACK
6
CONTINUOUS
10
4.76069
20
-2.9679
11
4.76148
21
-2.96494
0
LINE
8
BLACK
6
CONTINUOUS
10
4.76148
20
-2.96494
11
4.76364
21
-2.96278
0
LINE
8
BLACK
6
CONTINUOUS
10
4.76364
20
-2.96278
11
4.7666
21
-2.96199
0
LINE
8
BLACK
6
CONTINUOUS
10
4.7666
20
-2.96199
11
4.77126
21
-2.96199
0
LINE
8
BLACK
6
CONTINUOUS
10
4.77126
20
-2.96199
11
4.77747
21
-2.95992
0
LINE
8
BLACK
6
CONTINUOUS
10
4.77747
20
-2.95992
11
4.78112
21
-2.95627
0
LINE
8
BLACK
6
CONTINUOUS
10
4.78112
20
-2.95627
11
4.78319
21
-2.95007
0
LINE
8
BLACK
6
CONTINUOUS
10
4.78319
20
-2.95007
11
4.78319
21
-2.90884
0
LINE
8
BLACK
6
CONTINUOUS
10
4.78319
20
-2.90884
11
4.78398
21
-2.90589
0
LINE
8
BLACK
6
CONTINUOUS
10
4.78398
20
-2.90589
11
4.78614
21
-2.90373
0
LINE
8
BLACK
6
CONTINUOUS
10
4.78614
20
-2.90373
11
4.78909
21
-2.90294
0
LINE
8
BLACK
6
CONTINUOUS
10
4.78909
20
-2.90294
11
4.79205
21
-2.90373
0
LINE
8
BLACK
6
CONTINUOUS
10
4.89125
20
-2.90318
11
4.8922
21
-2.90324
0
LINE
8
BLACK
6
CONTINUOUS
10
4.8922
20
-2.90324
11
4.90064
21
-2.90605
0
LINE
8
BLACK
6
CONTINUOUS
10
4.90064
20
-2.90605
11
4.90177
21
-2.9068
0
LINE
8
BLACK
6
CONTINUOUS
10
4.90177
20
-2.9068
11
4.90294
21
-2.90748
0
LINE
8
BLACK
6
CONTINUOUS
10
4.90294
20
-2.90748
11
4.90576
21
-2.91029
0
LINE
8
BLACK
6
CONTINUOUS
10
4.90576
20
-2.91029
11
4.90728
21
-2.91294
0
LINE
8
BLACK
6
CONTINUOUS
10
4.90728
20
-2.91294
11
4.90728
21
-2.91599
0
LINE
8
BLACK
6
CONTINUOUS
10
4.90728
20
-2.91599
11
4.90576
21
-2.91864
0
LINE
8
BLACK
6
CONTINUOUS
10
4.90576
20
-2.91864
11
4.90311
21
-2.92017
0
LINE
8
BLACK
6
CONTINUOUS
10
4.90311
20
-2.92017
11
4.90005
21
-2.92017
0
LINE
8
BLACK
6
CONTINUOUS
10
4.90005
20
-2.92017
11
4.8974
21
-2.91864
0
LINE
8
BLACK
6
CONTINUOUS
10
4.8974
20
-2.91864
11
4.89558
21
-2.91682
0
LINE
8
BLACK
6
CONTINUOUS
10
4.89558
20
-2.91682
11
4.88937
21
-2.91475
0
LINE
8
BLACK
6
CONTINUOUS
10
4.88937
20
-2.91475
11
4.88567
21
-2.91475
0
LINE
8
BLACK
6
CONTINUOUS
10
4.88567
20
-2.91475
11
4.87946
21
-2.91682
0
LINE
8
BLACK
6
CONTINUOUS
10
4.87946
20
-2.91682
11
4.8755
21
-2.92078
0
LINE
8
BLACK
6
CONTINUOUS
10
4.8755
20
-2.92078
11
4.87341
21
-2.92496
0
LINE
8
BLACK
6
CONTINUOUS
10
4.87341
20
-2.92496
11
4.87093
21
-2.93488
0
LINE
8
BLACK
6
CONTINUOUS
10
4.87093
20
-2.93488
11
4.87093
21
-2.94186
0
LINE
8
BLACK
6
CONTINUOUS
10
4.87093
20
-2.94186
11
4.87341
21
-2.95177
0
LINE
8
BLACK
6
CONTINUOUS
10
4.87341
20
-2.95177
11
4.8755
21
-2.95596
0
LINE
8
BLACK
6
CONTINUOUS
10
4.8755
20
-2.95596
11
4.87946
21
-2.95992
0
LINE
8
BLACK
6
CONTINUOUS
10
4.87946
20
-2.95992
11
4.88567
21
-2.96199
0
LINE
8
BLACK
6
CONTINUOUS
10
4.88567
20
-2.96199
11
4.88937
21
-2.96199
0
LINE
8
BLACK
6
CONTINUOUS
10
4.88937
20
-2.96199
11
4.89558
21
-2.95992
0
LINE
8
BLACK
6
CONTINUOUS
10
4.89558
20
-2.95992
11
4.8974
21
-2.9581
0
LINE
8
BLACK
6
CONTINUOUS
10
4.8974
20
-2.9581
11
4.90005
21
-2.95657
0
LINE
8
BLACK
6
CONTINUOUS
10
4.90005
20
-2.95657
11
4.90311
21
-2.95657
0
LINE
8
BLACK
6
CONTINUOUS
10
4.90311
20
-2.95657
11
4.90576
21
-2.9581
0
LINE
8
BLACK
6
CONTINUOUS
10
4.90576
20
-2.9581
11
4.90728
21
-2.96074
0
LINE
8
BLACK
6
CONTINUOUS
10
4.90728
20
-2.96074
11
4.90728
21
-2.9638
0
LINE
8
BLACK
6
CONTINUOUS
10
4.90728
20
-2.9638
11
4.90576
21
-2.96645
0
LINE
8
BLACK
6
CONTINUOUS
10
4.90576
20
-2.96645
11
4.90294
21
-2.96926
0
LINE
8
BLACK
6
CONTINUOUS
10
4.90294
20
-2.96926
11
4.90177
21
-2.96994
0
LINE
8
BLACK
6
CONTINUOUS
10
4.90177
20
-2.96994
11
4.90064
21
-2.97069
0
LINE
8
BLACK
6
CONTINUOUS
10
4.90064
20
-2.97069
11
4.8922
21
-2.9735
0
LINE
8
BLACK
6
CONTINUOUS
10
4.8922
20
-2.9735
11
4.89125
21
-2.97356
0
LINE
8
BLACK
6
CONTINUOUS
10
4.89125
20
-2.97356
11
4.89033
21
-2.9738
0
LINE
8
BLACK
6
CONTINUOUS
10
4.89033
20
-2.9738
11
4.88471
21
-2.9738
0
LINE
8
BLACK
6
CONTINUOUS
10
4.88471
20
-2.9738
11
4.88379
21
-2.97356
0
LINE
8
BLACK
6
CONTINUOUS
10
4.88379
20
-2.97356
11
4.88284
21
-2.9735
0
LINE
8
BLACK
6
CONTINUOUS
10
4.88284
20
-2.9735
11
4.8744
21
-2.97069
0
LINE
8
BLACK
6
CONTINUOUS
10
4.8744
20
-2.97069
11
4.87327
21
-2.96994
0
LINE
8
BLACK
6
CONTINUOUS
10
4.87327
20
-2.96994
11
4.8721
21
-2.96926
0
LINE
8
BLACK
6
CONTINUOUS
10
4.8721
20
-2.96926
11
4.86647
21
-2.96364
0
LINE
8
BLACK
6
CONTINUOUS
10
4.86647
20
-2.96364
11
4.866
21
-2.96281
0
LINE
8
BLACK
6
CONTINUOUS
10
4.866
20
-2.96281
11
4.86536
21
-2.9621
0
LINE
8
BLACK
6
CONTINUOUS
10
4.86536
20
-2.9621
11
4.86255
21
-2.95648
0
LINE
8
BLACK
6
CONTINUOUS
10
4.86255
20
-2.95648
11
4.86242
21
-2.95584
0
LINE
8
BLACK
6
CONTINUOUS
10
4.86242
20
-2.95584
11
4.86211
21
-2.95527
0
LINE
8
BLACK
6
CONTINUOUS
10
4.86211
20
-2.95527
11
4.85929
21
-2.94402
0
LINE
8
BLACK
6
CONTINUOUS
10
4.85929
20
-2.94402
11
4.85931
21
-2.94329
0
LINE
8
BLACK
6
CONTINUOUS
10
4.85931
20
-2.94329
11
4.85912
21
-2.94259
0
LINE
8
BLACK
6
CONTINUOUS
10
4.85912
20
-2.94259
11
4.85912
21
-2.93415
0
LINE
8
BLACK
6
CONTINUOUS
10
4.85912
20
-2.93415
11
4.85931
21
-2.93345
0
LINE
8
BLACK
6
CONTINUOUS
10
4.85931
20
-2.93345
11
4.85929
21
-2.93272
0
LINE
8
BLACK
6
CONTINUOUS
10
4.85929
20
-2.93272
11
4.86211
21
-2.92147
0
LINE
8
BLACK
6
CONTINUOUS
10
4.86211
20
-2.92147
11
4.86242
21
-2.9209
0
LINE
8
BLACK
6
CONTINUOUS
10
4.86242
20
-2.9209
11
4.86255
21
-2.92026
0
LINE
8
BLACK
6
CONTINUOUS
10
4.86255
20
-2.92026
11
4.86536
21
-2.91464
0
LINE
8
BLACK
6
CONTINUOUS
10
4.86536
20
-2.91464
11
4.866
21
-2.91393
0
LINE
8
BLACK
6
CONTINUOUS
10
4.866
20
-2.91393
11
4.86647
21
-2.9131
0
LINE
8
BLACK
6
CONTINUOUS
10
4.86647
20
-2.9131
11
4.8721
21
-2.90748
0
LINE
8
BLACK
6
CONTINUOUS
10
4.8721
20
-2.90748
11
4.87327
21
-2.9068
0
LINE
8
BLACK
6
CONTINUOUS
10
4.87327
20
-2.9068
11
4.8744
21
-2.90605
0
LINE
8
BLACK
6
CONTINUOUS
10
4.8744
20
-2.90605
11
4.88284
21
-2.90324
0
LINE
8
BLACK
6
CONTINUOUS
10
4.88284
20
-2.90324
11
4.88379
21
-2.90318
0
LINE
8
BLACK
6
CONTINUOUS
10
4.88379
20
-2.90318
11
4.88471
21
-2.90294
0
LINE
8
BLACK
6
CONTINUOUS
10
4.88471
20
-2.90294
11
4.89033
21
-2.90294
0
LINE
8
BLACK
6
CONTINUOUS
10
4.89033
20
-2.90294
11
4.89125
21
-2.90318
0
LINE
8
BLACK
6
CONTINUOUS
10
4.82997
20
-2.90322
11
4.83033
21
-2.90324
0
LINE
8
BLACK
6
CONTINUOUS
10
4.83033
20
-2.90324
11
4.83132
21
-2.90389
0
LINE
8
BLACK
6
CONTINUOUS
10
4.83132
20
-2.90389
11
4.83238
21
-2.90442
0
LINE
8
BLACK
6
CONTINUOUS
10
4.83238
20
-2.90442
11
4.83258
21
-2.90472
0
LINE
8
BLACK
6
CONTINUOUS
10
4.83258
20
-2.90472
11
4.83288
21
-2.90492
0
LINE
8
BLACK
6
CONTINUOUS
10
4.83288
20
-2.90492
11
4.83341
21
-2.90598
0
LINE
8
BLACK
6
CONTINUOUS
10
4.83341
20
-2.90598
11
4.83407
21
-2.90697
0
LINE
8
BLACK
6
CONTINUOUS
10
4.83407
20
-2.90697
11
4.85375
21
-2.96603
0
LINE
8
BLACK
6
CONTINUOUS
10
4.85375
20
-2.96603
11
4.85394
21
-2.96908
0
LINE
8
BLACK
6
CONTINUOUS
10
4.85394
20
-2.96908
11
4.85257
21
-2.97181
0
LINE
8
BLACK
6
CONTINUOUS
10
4.85257
20
-2.97181
11
4.85002
21
-2.9735
0
LINE
8
BLACK
6
CONTINUOUS
10
4.85002
20
-2.9735
11
4.84697
21
-2.97368
0
LINE
8
BLACK
6
CONTINUOUS
10
4.84697
20
-2.97368
11
4.84423
21
-2.97232
0
LINE
8
BLACK
6
CONTINUOUS
10
4.84423
20
-2.97232
11
4.84255
21
-2.96976
0
LINE
8
BLACK
6
CONTINUOUS
10
4.84255
20
-2.96976
11
4.83827
21
-2.95693
0
LINE
8
BLACK
6
CONTINUOUS
10
4.83827
20
-2.95693
11
4.81866
21
-2.95693
0
LINE
8
BLACK
6
CONTINUOUS
10
4.81866
20
-2.95693
11
4.81438
21
-2.96976
0
LINE
8
BLACK
6
CONTINUOUS
10
4.81438
20
-2.96976
11
4.8127
21
-2.97232
0
LINE
8
BLACK
6
CONTINUOUS
10
4.8127
20
-2.97232
11
4.80996
21
-2.97368
0
LINE
8
BLACK
6
CONTINUOUS
10
4.80996
20
-2.97368
11
4.80691
21
-2.9735
0
LINE
8
BLACK
6
CONTINUOUS
10
4.80691
20
-2.9735
11
4.80436
21
-2.97181
0
LINE
8
BLACK
6
CONTINUOUS
10
4.80436
20
-2.97181
11
4.80299
21
-2.96908
0
LINE
8
BLACK
6
CONTINUOUS
10
4.80299
20
-2.96908
11
4.80318
21
-2.96603
0
LINE
8
BLACK
6
CONTINUOUS
10
4.80318
20
-2.96603
11
4.82286
21
-2.90697
0
LINE
8
BLACK
6
CONTINUOUS
10
4.82286
20
-2.90697
11
4.82352
21
-2.90598
0
LINE
8
BLACK
6
CONTINUOUS
10
4.82352
20
-2.90598
11
4.82405
21
-2.90492
0
LINE
8
BLACK
6
CONTINUOUS
10
4.82405
20
-2.90492
11
4.82435
21
-2.90472
0
LINE
8
BLACK
6
CONTINUOUS
10
4.82435
20
-2.90472
11
4.82455
21
-2.90442
0
LINE
8
BLACK
6
CONTINUOUS
10
4.82455
20
-2.90442
11
4.82561
21
-2.90389
0
LINE
8
BLACK
6
CONTINUOUS
10
4.82561
20
-2.90389
11
4.8266
21
-2.90324
0
LINE
8
BLACK
6
CONTINUOUS
10
4.8266
20
-2.90324
11
4.82696
21
-2.90322
0
LINE
8
BLACK
6
CONTINUOUS
10
4.82696
20
-2.90322
11
4.82728
21
-2.90306
0
LINE
8
BLACK
6
CONTINUOUS
10
4.82728
20
-2.90306
11
4.82846
21
-2.90313
0
LINE
8
BLACK
6
CONTINUOUS
10
4.82846
20
-2.90313
11
4.82965
21
-2.90306
0
LINE
8
BLACK
6
CONTINUOUS
10
4.82965
20
-2.90306
11
4.82997
21
-2.90322
0
LINE
8
BLACK
6
CONTINUOUS
10
4.8226
20
-2.94512
11
4.83433
21
-2.94512
0
LINE
8
BLACK
6
CONTINUOUS
10
4.83433
20
-2.94512
11
4.82846
21
-2.92752
0
LINE
8
BLACK
6
CONTINUOUS
10
4.82846
20
-2.92752
11
4.8226
21
-2.94512
0
LINE
8
BLACK
6
CONTINUOUS
10
5.41698
20
-2.67407
11
5.41685
21
-2.67409
0
LINE
8
BLACK
6
CONTINUOUS
10
5.41685
20
-2.67409
11
5.41674
21
-2.67402
0
LINE
8
BLACK
6
CONTINUOUS
10
5.41674
20
-2.67402
11
5.41635
21
-2.67396
0
LINE
8
BLACK
6
CONTINUOUS
10
5.41635
20
-2.67396
11
5.41576
21
-2.67346
0
LINE
8
BLACK
6
CONTINUOUS
10
5.41576
20
-2.67346
11
5.4151
21
-2.67308
0
LINE
8
BLACK
6
CONTINUOUS
10
5.4151
20
-2.67308
11
5.41501
21
-2.67283
0
LINE
8
BLACK
6
CONTINUOUS
10
5.41501
20
-2.67283
11
5.41481
21
-2.67266
0
LINE
8
BLACK
6
CONTINUOUS
10
5.41481
20
-2.67266
11
5.41467
21
-2.6719
0
LINE
8
BLACK
6
CONTINUOUS
10
5.41467
20
-2.6719
11
5.41441
21
-2.67118
0
LINE
8
BLACK
6
CONTINUOUS
10
5.41441
20
-2.67118
11
5.41441
21
-2.57118
0
LINE
8
BLACK
6
CONTINUOUS
10
5.41441
20
-2.57118
11
5.41448
21
-2.5708
0
LINE
8
BLACK
6
CONTINUOUS
10
5.41448
20
-2.5708
11
5.41445
21
-2.57067
0
LINE
8
BLACK
6
CONTINUOUS
10
5.41445
20
-2.57067
11
5.41452
21
-2.57055
0
LINE
8
BLACK
6
CONTINUOUS
10
5.41452
20
-2.57055
11
5.41459
21
-2.57017
0
LINE
8
BLACK
6
CONTINUOUS
10
5.41459
20
-2.57017
11
5.41508
21
-2.56958
0
LINE
8
BLACK
6
CONTINUOUS
10
5.41508
20
-2.56958
11
5.41546
21
-2.56892
0
LINE
8
BLACK
6
CONTINUOUS
10
5.41546
20
-2.56892
11
5.41571
21
-2.56883
0
LINE
8
BLACK
6
CONTINUOUS
10
5.41571
20
-2.56883
11
5.41589
21
-2.56862
0
LINE
8
BLACK
6
CONTINUOUS
10
5.41589
20
-2.56862
11
5.41664
21
-2.56849
0
LINE
8
BLACK
6
CONTINUOUS
10
5.41664
20
-2.56849
11
5.41736
21
-2.56823
0
LINE
8
BLACK
6
CONTINUOUS
10
5.41736
20
-2.56823
11
6.01736
21
-2.56823
0
LINE
8
BLACK
6
CONTINUOUS
10
6.01736
20
-2.56823
11
6.01775
21
-2.5683
0
LINE
8
BLACK
6
CONTINUOUS
10
6.01775
20
-2.5683
11
6.01787
21
-2.56827
0
LINE
8
BLACK
6
CONTINUOUS
10
6.01787
20
-2.56827
11
6.01799
21
-2.56834
0
LINE
8
BLACK
6
CONTINUOUS
10
6.01799
20
-2.56834
11
6.01837
21
-2.56841
0
LINE
8
BLACK
6
CONTINUOUS
10
6.01837
20
-2.56841
11
6.01896
21
-2.5689
0
LINE
8
BLACK
6
CONTINUOUS
10
6.01896
20
-2.5689
11
6.01962
21
-2.56928
0
LINE
8
BLACK
6
CONTINUOUS
10
6.01962
20
-2.56928
11
6.01972
21
-2.56953
0
LINE
8
BLACK
6
CONTINUOUS
10
6.01972
20
-2.56953
11
6.01992
21
-2.5697
0
LINE
8
BLACK
6
CONTINUOUS
10
6.01992
20
-2.5697
11
6.02005
21
-2.57046
0
LINE
8
BLACK
6
CONTINUOUS
10
6.02005
20
-2.57046
11
6.02031
21
-2.57118
0
LINE
8
BLACK
6
CONTINUOUS
10
6.02031
20
-2.57118
11
6.02031
21
-2.67118
0
LINE
8
BLACK
6
CONTINUOUS
10
6.02031
20
-2.67118
11
6.02025
21
-2.67156
0
LINE
8
BLACK
6
CONTINUOUS
10
6.02025
20
-2.67156
11
6.02027
21
-2.67169
0
LINE
8
BLACK
6
CONTINUOUS
10
6.02027
20
-2.67169
11
6.0202
21
-2.67181
0
LINE
8
BLACK
6
CONTINUOUS
10
6.0202
20
-2.67181
11
6.02014
21
-2.67219
0
LINE
8
BLACK
6
CONTINUOUS
10
6.02014
20
-2.67219
11
6.01964
21
-2.67278
0
LINE
8
BLACK
6
CONTINUOUS
10
6.01964
20
-2.67278
11
6.01926
21
-2.67344
0
LINE
8
BLACK
6
CONTINUOUS
10
6.01926
20
-2.67344
11
6.01901
21
-2.67353
0
LINE
8
BLACK
6
CONTINUOUS
10
6.01901
20
-2.67353
11
6.01884
21
-2.67374
0
LINE
8
BLACK
6
CONTINUOUS
10
6.01884
20
-2.67374
11
6.01808
21
-2.67387
0
LINE
8
BLACK
6
CONTINUOUS
10
6.01808
20
-2.67387
11
6.01736
21
-2.67413
0
LINE
8
BLACK
6
CONTINUOUS
10
6.01736
20
-2.67413
11
5.41736
21
-2.67413
0
LINE
8
BLACK
6
CONTINUOUS
10
5.41736
20
-2.67413
11
5.41698
21
-2.67407
0
LINE
8
BLACK
6
CONTINUOUS
10
5.92031
20
-2.57413
11
5.92031
21
-2.66823
0
LINE
8
BLACK
6
CONTINUOUS
10
5.92031
20
-2.66823
11
6.01441
21
-2.66823
0
LINE
8
BLACK
6
CONTINUOUS
10
6.01441
20
-2.66823
11
6.01441
21
-2.57413
0
LINE
8
BLACK
6
CONTINUOUS
10
6.01441
20
-2.57413
11
5.92031
21
-2.57413
0
LINE
8
BLACK
6
CONTINUOUS
10
5.82031
20
-2.57413
11
5.82031
21
-2.66823
0
LINE
8
BLACK
6
CONTINUOUS
10
5.82031
20
-2.66823
11
5.91441
21
-2.66823
0
LINE
8
BLACK
6
CONTINUOUS
10
5.91441
20
-2.66823
11
5.91441
21
-2.57413
0
LINE
8
BLACK
6
CONTINUOUS
10
5.91441
20
-2.57413
11
5.82031
21
-2.57413
0
LINE
8
BLACK
6
CONTINUOUS
10
5.72031
20
-2.57413
11
5.72031
21
-2.66823
0
LINE
8
BLACK
6
CONTINUOUS
10
5.72031
20
-2.66823
11
5.81441
21
-2.66823
0
LINE
8
BLACK
6
CONTINUOUS
10
5.81441
20
-2.66823
11
5.81441
21
-2.57413
0
LINE
8
BLACK
6
CONTINUOUS
10
5.81441
20
-2.57413
11
5.72031
21
-2.57413
0
LINE
8
BLACK
6
CONTINUOUS
10
5.62031
20
-2.57413
11
5.62031
21
-2.66823
0
LINE
8
BLACK
6
CONTINUOUS
10
5.62031
20
-2.66823
11
5.71441
21
-2.66823
0
LINE
8
BLACK
6
CONTINUOUS
10
5.71441
20
-2.66823
11
5.71441
21
-2.57413
0
LINE
8
BLACK
6
CONTINUOUS
10
5.71441
20
-2.57413
11
5.62031
21
-2.57413
0
LINE
8
BLACK
6
CONTINUOUS
10
5.52031
20
-2.57413
11
5.52031
21
-2.66823
0
LINE
8
BLACK
6
CONTINUOUS
10
5.52031
20
-2.66823
11
5.61441
21
-2.66823
0
LINE
8
BLACK
6
CONTINUOUS
10
5.61441
20
-2.66823
11
5.61441
21
-2.57413
0
LINE
8
BLACK
6
CONTINUOUS
10
5.61441
20
-2.57413
11
5.52031
21
-2.57413
0
LINE
8
BLACK
6
CONTINUOUS
10
5.42031
20
-2.57413
11
5.42031
21
-2.66823
0
LINE
8
BLACK
6
CONTINUOUS
10
5.42031
20
-2.66823
11
5.51441
21
-2.66823
0
LINE
8
BLACK
6
CONTINUOUS
10
5.51441
20
-2.66823
11
5.51441
21
-2.57413
0
LINE
8
BLACK
6
CONTINUOUS
10
5.51441
20
-2.57413
11
5.42031
21
-2.57413
0
LINE
8
BLACK
6
CONTINUOUS
10
5.99736
20
-2.65118
11
5.93736
21
-2.65118
0
LINE
8
BLACK
6
CONTINUOUS
10
5.93736
20
-2.65118
11
5.93736
21
-2.59118
0
LINE
8
BLACK
6
CONTINUOUS
10
5.93736
20
-2.59118
11
5.99736
21
-2.59118
0
LINE
8
BLACK
6
CONTINUOUS
10
5.99736
20
-2.59118
11
5.99736
21
-2.65118
0
LINE
8
BLACK
6
CONTINUOUS
10
5.89736
20
-2.65118
11
5.83736
21
-2.65118
0
LINE
8
BLACK
6
CONTINUOUS
10
5.83736
20
-2.65118
11
5.83736
21
-2.59118
0
LINE
8
BLACK
6
CONTINUOUS
10
5.83736
20
-2.59118
11
5.89736
21
-2.59118
0
LINE
8
BLACK
6
CONTINUOUS
10
5.89736
20
-2.59118
11
5.89736
21
-2.65118
0
LINE
8
BLACK
6
CONTINUOUS
10
5.79736
20
-2.65118
11
5.73736
21
-2.65118
0
LINE
8
BLACK
6
CONTINUOUS
10
5.73736
20
-2.65118
11
5.73736
21
-2.59118
0
LINE
8
BLACK
6
CONTINUOUS
10
5.73736
20
-2.59118
11
5.79736
21
-2.59118
0
LINE
8
BLACK
6
CONTINUOUS
10
5.79736
20
-2.59118
11
5.79736
21
-2.65118
0
LINE
8
BLACK
6
CONTINUOUS
10
5.69736
20
-2.65118
11
5.63736
21
-2.65118
0
LINE
8
BLACK
6
CONTINUOUS
10
5.63736
20
-2.65118
11
5.63736
21
-2.59118
0
LINE
8
BLACK
6
CONTINUOUS
10
5.63736
20
-2.59118
11
5.69736
21
-2.59118
0
LINE
8
BLACK
6
CONTINUOUS
10
5.69736
20
-2.59118
11
5.69736
21
-2.65118
0
LINE
8
BLACK
6
CONTINUOUS
10
5.59736
20
-2.65118
11
5.53736
21
-2.65118
0
LINE
8
BLACK
6
CONTINUOUS
10
5.53736
20
-2.65118
11
5.53736
21
-2.59118
0
LINE
8
BLACK
6
CONTINUOUS
10
5.53736
20
-2.59118
11
5.59736
21
-2.59118
0
LINE
8
BLACK
6
CONTINUOUS
10
5.59736
20
-2.59118
11
5.59736
21
-2.65118
0
LINE
8
BLACK
6
CONTINUOUS
10
5.49736
20
-2.65118
11
5.43736
21
-2.65118
0
LINE
8
BLACK
6
CONTINUOUS
10
5.43736
20
-2.65118
11
5.43736
21
-2.59118
0
LINE
8
BLACK
6
CONTINUOUS
10
5.43736
20
-2.59118
11
5.49736
21
-2.59118
0
LINE
8
BLACK
6
CONTINUOUS
10
5.49736
20
-2.59118
11
5.49736
21
-2.65118
  0
ENDSEC
  0
EOF
