  0
SECTION
  2
HEADER
  9
$ANGBASE
  50
0.0
  9
$ANGDIR
  70
1
  9
$MEASUREMENT
  70
0
  0
ENDSEC
  0
SECTION
  2
TABLES
  0
TABLE
  2
LTYPE
  70
4
  0
LTYPE
  5
40F
  2
CONTINUOUS
  70
0
  3
Solid line
  72
65
  73
0
  40
0.0
  0
LTYPE
  5
410
  2
DASHDOT
 70
0
  3
Dash Dot ____ _ ____ _
 72
65
 73
4
 40
2.0
 49
1.25
 49
-0.25
 49
0.25
 49
-0.25
  0
LTYPE
  5
411
  2
DASHED
 70
0
  3
Dashed __ __ __ __ __
 72
65
 73
2
 40
0.75
 49
0.5
 49
-0.25
  0
LTYPE
  5
43B
  2
DOTTED
 70
0
  3
Dotted .  .  .  .
 72
65
 73
2
 40
0.2
 49
0.0
 49
-0.2
  0
ENDTAB
  0
TABLE
  2
STYLE
  70
4
  0
STYLE
  2
KICAD
  70
0
  40
0
  41
1
  42
1
  50
0
  71
0
  3
isocp.shx
  0
STYLE
  2
KICADB
  70
0
  40
0
  41
1
  42
1
  50
0
  71
0
  3
isocp.shx
  0
STYLE
  2
KICADI
  70
0
  40
0
  41
1
  42
1
  50
15
  71
0
  3
isocp.shx
  0
STYLE
  2
KICADBI
  70
0
  40
0
  41
1
  42
1
  50
15
  71
0
  3
isocp.shx
  0
ENDTAB
  0
TABLE
  2
LAYER
  70
1
  0
LAYER
  2
BLACK
  70
0
  62
7
  6
CONTINUOUS
  0
ENDTAB
  0
ENDSEC
  0
SECTION
  2
ENTITIES
0
LINE
8
BLACK
6
CONTINUOUS
10
6.12598
20
-4.44118
11
6.02756
21
-4.44118
0
LINE
8
BLACK
6
CONTINUOUS
10
6.02756
20
-4.44118
11
6.02756
21
-4.24433
0
LINE
8
BLACK
6
CONTINUOUS
10
6.02756
20
-4.24433
11
6.12598
21
-4.24433
0
LINE
8
BLACK
6
CONTINUOUS
10
6.12598
20
-4.24433
11
6.12598
21
-4.44118
0
LINE
8
BLACK
6
CONTINUOUS
10
4.92717
20
-4.20496
11
4.82874
21
-4.20496
0
LINE
8
BLACK
6
CONTINUOUS
10
4.82874
20
-4.20496
11
4.82874
21
-4.00811
0
LINE
8
BLACK
6
CONTINUOUS
10
4.82874
20
-4.00811
11
4.92717
21
-4.00811
0
LINE
8
BLACK
6
CONTINUOUS
10
4.92717
20
-4.00811
11
4.92717
21
-4.20496
0
LINE
8
BLACK
6
CONTINUOUS
10
6.12598
20
-3.2522
11
6.02756
21
-3.2522
0
LINE
8
BLACK
6
CONTINUOUS
10
6.02756
20
-3.2522
11
6.02756
21
-3.05535
0
LINE
8
BLACK
6
CONTINUOUS
10
6.02756
20
-3.05535
11
6.12598
21
-3.05535
0
LINE
8
BLACK
6
CONTINUOUS
10
6.12598
20
-3.05535
11
6.12598
21
-3.2522
0
LINE
8
BLACK
6
CONTINUOUS
10
4.92717
20
-3.2522
11
4.82874
21
-3.2522
0
LINE
8
BLACK
6
CONTINUOUS
10
4.82874
20
-3.2522
11
4.82874
21
-3.05535
0
LINE
8
BLACK
6
CONTINUOUS
10
4.82874
20
-3.05535
11
4.92717
21
-3.05535
0
LINE
8
BLACK
6
CONTINUOUS
10
4.92717
20
-3.05535
11
4.92717
21
-3.2522
0
LINE
8
BLACK
6
CONTINUOUS
10
5.28878
20
-3.04748
11
5.24154
21
-3.04748
0
LINE
8
BLACK
6
CONTINUOUS
10
5.24154
20
-3.04748
11
5.24154
21
-2.98449
0
LINE
8
BLACK
6
CONTINUOUS
10
5.24154
20
-2.98449
11
5.28878
21
-2.98449
0
LINE
8
BLACK
6
CONTINUOUS
10
5.28878
20
-2.98449
11
5.28878
21
-3.04748
0
LINE
8
BLACK
6
CONTINUOUS
10
5.19035
20
-3.04748
11
5.14311
21
-3.04748
0
LINE
8
BLACK
6
CONTINUOUS
10
5.14311
20
-3.04748
11
5.14311
21
-2.98449
0
LINE
8
BLACK
6
CONTINUOUS
10
5.14311
20
-2.98449
11
5.19035
21
-2.98449
0
LINE
8
BLACK
6
CONTINUOUS
10
5.19035
20
-2.98449
11
5.19035
21
-3.04748
0
LINE
8
BLACK
6
CONTINUOUS
10
5.94744
20
-3.04748
11
5.9002
21
-3.04748
0
LINE
8
BLACK
6
CONTINUOUS
10
5.9002
20
-3.04748
11
5.9002
21
-2.98449
0
LINE
8
BLACK
6
CONTINUOUS
10
5.9002
20
-2.98449
11
5.94744
21
-2.98449
0
LINE
8
BLACK
6
CONTINUOUS
10
5.94744
20
-2.98449
11
5.94744
21
-3.04748
0
LINE
8
BLACK
6
CONTINUOUS
10
5.87657
20
-3.04748
11
5.82933
21
-3.04748
0
LINE
8
BLACK
6
CONTINUOUS
10
5.82933
20
-3.04748
11
5.82933
21
-2.98449
0
LINE
8
BLACK
6
CONTINUOUS
10
5.82933
20
-2.98449
11
5.87657
21
-2.98449
0
LINE
8
BLACK
6
CONTINUOUS
10
5.87657
20
-2.98449
11
5.87657
21
-3.04748
0
LINE
8
BLACK
6
CONTINUOUS
10
5.78091
20
-3.04748
11
5.73366
21
-3.04748
0
LINE
8
BLACK
6
CONTINUOUS
10
5.73366
20
-3.04748
11
5.73366
21
-2.98449
0
LINE
8
BLACK
6
CONTINUOUS
10
5.73366
20
-2.98449
11
5.78091
21
-2.98449
0
LINE
8
BLACK
6
CONTINUOUS
10
5.78091
20
-2.98449
11
5.78091
21
-3.04748
0
LINE
8
BLACK
6
CONTINUOUS
10
5.68248
20
-3.04748
11
5.63524
21
-3.04748
0
LINE
8
BLACK
6
CONTINUOUS
10
5.63524
20
-3.04748
11
5.63524
21
-2.98449
0
LINE
8
BLACK
6
CONTINUOUS
10
5.63524
20
-2.98449
11
5.68248
21
-2.98449
0
LINE
8
BLACK
6
CONTINUOUS
10
5.68248
20
-2.98449
11
5.68248
21
-3.04748
0
LINE
8
BLACK
6
CONTINUOUS
10
5.58406
20
-3.04748
11
5.53681
21
-3.04748
0
LINE
8
BLACK
6
CONTINUOUS
10
5.53681
20
-3.04748
11
5.53681
21
-2.98449
0
LINE
8
BLACK
6
CONTINUOUS
10
5.53681
20
-2.98449
11
5.58406
21
-2.98449
0
LINE
8
BLACK
6
CONTINUOUS
10
5.58406
20
-2.98449
11
5.58406
21
-3.04748
0
LINE
8
BLACK
6
CONTINUOUS
10
5.48563
20
-3.04748
11
5.43839
21
-3.04748
0
LINE
8
BLACK
6
CONTINUOUS
10
5.43839
20
-3.04748
11
5.43839
21
-2.98449
0
LINE
8
BLACK
6
CONTINUOUS
10
5.43839
20
-2.98449
11
5.48563
21
-2.98449
0
LINE
8
BLACK
6
CONTINUOUS
10
5.48563
20
-2.98449
11
5.48563
21
-3.04748
0
LINE
8
BLACK
6
CONTINUOUS
10
5.3872
20
-3.04748
11
5.33996
21
-3.04748
0
LINE
8
BLACK
6
CONTINUOUS
10
5.33996
20
-3.04748
11
5.33996
21
-2.98449
0
LINE
8
BLACK
6
CONTINUOUS
10
5.33996
20
-2.98449
11
5.3872
21
-2.98449
0
LINE
8
BLACK
6
CONTINUOUS
10
5.3872
20
-2.98449
11
5.3872
21
-3.04748
0
LINE
8
BLACK
6
CONTINUOUS
10
5.88486
20
-2.93868
11
5.82986
21
-2.93868
0
LINE
8
BLACK
6
CONTINUOUS
10
5.82986
20
-2.93868
11
5.82986
21
-2.90368
0
LINE
8
BLACK
6
CONTINUOUS
10
5.82986
20
-2.90368
11
5.88486
21
-2.90368
0
LINE
8
BLACK
6
CONTINUOUS
10
5.88486
20
-2.90368
11
5.88486
21
-2.93868
0
LINE
8
BLACK
6
CONTINUOUS
10
5.68486
20
-2.93868
11
5.62986
21
-2.93868
0
LINE
8
BLACK
6
CONTINUOUS
10
5.62986
20
-2.93868
11
5.62986
21
-2.90368
0
LINE
8
BLACK
6
CONTINUOUS
10
5.62986
20
-2.90368
11
5.68486
21
-2.90368
0
LINE
8
BLACK
6
CONTINUOUS
10
5.68486
20
-2.90368
11
5.68486
21
-2.93868
0
LINE
8
BLACK
6
CONTINUOUS
10
5.38486
20
-2.93868
11
5.32986
21
-2.93868
0
LINE
8
BLACK
6
CONTINUOUS
10
5.32986
20
-2.93868
11
5.32986
21
-2.90368
0
LINE
8
BLACK
6
CONTINUOUS
10
5.32986
20
-2.90368
11
5.38486
21
-2.90368
0
LINE
8
BLACK
6
CONTINUOUS
10
5.38486
20
-2.90368
11
5.38486
21
-2.93868
0
LINE
8
BLACK
6
CONTINUOUS
10
5.28486
20
-2.93868
11
5.22986
21
-2.93868
0
LINE
8
BLACK
6
CONTINUOUS
10
5.22986
20
-2.93868
11
5.22986
21
-2.90368
0
LINE
8
BLACK
6
CONTINUOUS
10
5.22986
20
-2.90368
11
5.28486
21
-2.90368
0
LINE
8
BLACK
6
CONTINUOUS
10
5.28486
20
-2.90368
11
5.28486
21
-2.93868
0
LINE
8
BLACK
6
CONTINUOUS
10
5.49486
20
-2.92868
11
5.45986
21
-2.92868
0
LINE
8
BLACK
6
CONTINUOUS
10
5.45986
20
-2.92868
11
5.45986
21
-2.87368
0
LINE
8
BLACK
6
CONTINUOUS
10
5.45986
20
-2.87368
11
5.49486
21
-2.87368
0
LINE
8
BLACK
6
CONTINUOUS
10
5.49486
20
-2.87368
11
5.49486
21
-2.92868
0
LINE
8
BLACK
6
CONTINUOUS
10
5.56986
20
-2.92868
11
5.53486
21
-2.92868
0
LINE
8
BLACK
6
CONTINUOUS
10
5.53486
20
-2.92868
11
5.53486
21
-2.87368
0
LINE
8
BLACK
6
CONTINUOUS
10
5.53486
20
-2.87368
11
5.56986
21
-2.87368
0
LINE
8
BLACK
6
CONTINUOUS
10
5.56986
20
-2.87368
11
5.56986
21
-2.92868
0
LINE
8
BLACK
6
CONTINUOUS
10
5.88486
20
-2.86368
11
5.82986
21
-2.86368
0
LINE
8
BLACK
6
CONTINUOUS
10
5.82986
20
-2.86368
11
5.82986
21
-2.82868
0
LINE
8
BLACK
6
CONTINUOUS
10
5.82986
20
-2.82868
11
5.88486
21
-2.82868
0
LINE
8
BLACK
6
CONTINUOUS
10
5.88486
20
-2.82868
11
5.88486
21
-2.86368
0
LINE
8
BLACK
6
CONTINUOUS
10
5.68486
20
-2.86368
11
5.62986
21
-2.86368
0
LINE
8
BLACK
6
CONTINUOUS
10
5.62986
20
-2.86368
11
5.62986
21
-2.82868
0
LINE
8
BLACK
6
CONTINUOUS
10
5.62986
20
-2.82868
11
5.68486
21
-2.82868
0
LINE
8
BLACK
6
CONTINUOUS
10
5.68486
20
-2.82868
11
5.68486
21
-2.86368
0
LINE
8
BLACK
6
CONTINUOUS
10
5.38486
20
-2.86368
11
5.32986
21
-2.86368
0
LINE
8
BLACK
6
CONTINUOUS
10
5.32986
20
-2.86368
11
5.32986
21
-2.82868
0
LINE
8
BLACK
6
CONTINUOUS
10
5.32986
20
-2.82868
11
5.38486
21
-2.82868
0
LINE
8
BLACK
6
CONTINUOUS
10
5.38486
20
-2.82868
11
5.38486
21
-2.86368
0
LINE
8
BLACK
6
CONTINUOUS
10
5.28486
20
-2.86368
11
5.22986
21
-2.86368
0
LINE
8
BLACK
6
CONTINUOUS
10
5.22986
20
-2.86368
11
5.22986
21
-2.82868
0
LINE
8
BLACK
6
CONTINUOUS
10
5.22986
20
-2.82868
11
5.28486
21
-2.82868
0
LINE
8
BLACK
6
CONTINUOUS
10
5.28486
20
-2.82868
11
5.28486
21
-2.86368
0
LINE
8
BLACK
6
CONTINUOUS
10
5.56986
20
-2.82868
11
5.53486
21
-2.82868
0
LINE
8
BLACK
6
CONTINUOUS
10
5.53486
20
-2.82868
11
5.53486
21
-2.77368
0
LINE
8
BLACK
6
CONTINUOUS
10
5.53486
20
-2.77368
11
5.56986
21
-2.77368
0
LINE
8
BLACK
6
CONTINUOUS
10
5.56986
20
-2.77368
11
5.56986
21
-2.82868
0
LINE
8
BLACK
6
CONTINUOUS
10
5.49486
20
-2.82868
11
5.45986
21
-2.82868
0
LINE
8
BLACK
6
CONTINUOUS
10
5.45986
20
-2.82868
11
5.45986
21
-2.77368
0
LINE
8
BLACK
6
CONTINUOUS
10
5.45986
20
-2.77368
11
5.49486
21
-2.77368
0
LINE
8
BLACK
6
CONTINUOUS
10
5.49486
20
-2.77368
11
5.49486
21
-2.82868
  0
ENDSEC
  0
EOF
