  0
SECTION
  2
HEADER
  9
$ANGBASE
  50
0.0
  9
$ANGDIR
  70
1
  9
$MEASUREMENT
  70
0
  0
ENDSEC
  0
SECTION
  2
TABLES
  0
TABLE
  2
LTYPE
  70
4
  0
LTYPE
  5
40F
  2
CONTINUOUS
  70
0
  3
Solid line
  72
65
  73
0
  40
0.0
  0
LTYPE
  5
410
  2
DASHDOT
 70
0
  3
Dash Dot ____ _ ____ _
 72
65
 73
4
 40
2.0
 49
1.25
 49
-0.25
 49
0.25
 49
-0.25
  0
LTYPE
  5
411
  2
DASHED
 70
0
  3
Dashed __ __ __ __ __
 72
65
 73
2
 40
0.75
 49
0.5
 49
-0.25
  0
LTYPE
  5
43B
  2
DOTTED
 70
0
  3
Dotted .  .  .  .
 72
65
 73
2
 40
0.2
 49
0.0
 49
-0.2
  0
ENDTAB
  0
TABLE
  2
STYLE
  70
4
  0
STYLE
  2
KICAD
  70
0
  40
0
  41
1
  42
1
  50
0
  71
0
  3
isocp.shx
  0
STYLE
  2
KICADB
  70
0
  40
0
  41
1
  42
1
  50
0
  71
0
  3
isocp.shx
  0
STYLE
  2
KICADI
  70
0
  40
0
  41
1
  42
1
  50
15
  71
0
  3
isocp.shx
  0
STYLE
  2
KICADBI
  70
0
  40
0
  41
1
  42
1
  50
15
  71
0
  3
isocp.shx
  0
ENDTAB
  0
TABLE
  2
LAYER
  70
1
  0
LAYER
  2
BLACK
  70
0
  62
7
  6
CONTINUOUS
  0
ENDTAB
  0
ENDSEC
  0
SECTION
  2
ENTITIES
0
LINE
8
BLACK
6
CONTINUOUS
10
4.69783
20
-2.50913
11
4.69995
21
-2.5073
0
LINE
8
BLACK
6
CONTINUOUS
10
4.69995
20
-2.5073
11
4.70201
21
-2.50685
0
LINE
8
BLACK
6
CONTINUOUS
10
4.70201
20
-2.50685
11
6.14878
21
-2.50685
0
LINE
8
BLACK
6
CONTINUOUS
10
6.14878
20
-2.50685
11
6.15146
21
-2.50764
0
LINE
8
BLACK
6
CONTINUOUS
10
6.15146
20
-2.50764
11
6.15329
21
-2.50975
0
LINE
8
BLACK
6
CONTINUOUS
10
6.15329
20
-2.50975
11
6.15374
21
-2.51181
0
LINE
8
BLACK
6
CONTINUOUS
10
6.15374
20
-2.51181
11
6.15374
21
-4.43102
0
LINE
8
BLACK
6
CONTINUOUS
10
6.15374
20
-4.43102
11
6.15295
21
-4.43371
0
LINE
8
BLACK
6
CONTINUOUS
10
6.15295
20
-4.43371
11
6.15084
21
-4.43554
0
LINE
8
BLACK
6
CONTINUOUS
10
6.15084
20
-4.43554
11
6.14878
21
-4.43598
0
LINE
8
BLACK
6
CONTINUOUS
10
6.14878
20
-4.43598
11
4.70201
21
-4.43598
0
LINE
8
BLACK
6
CONTINUOUS
10
4.70201
20
-4.43598
11
4.69933
21
-4.4352
0
LINE
8
BLACK
6
CONTINUOUS
10
4.69933
20
-4.4352
11
4.6975
21
-4.43308
0
LINE
8
BLACK
6
CONTINUOUS
10
4.6975
20
-4.43308
11
4.69705
21
-4.43102
0
LINE
8
BLACK
6
CONTINUOUS
10
4.69705
20
-4.43102
11
4.69705
21
-2.51181
0
LINE
8
BLACK
6
CONTINUOUS
10
4.69705
20
-2.51181
11
4.69783
21
-2.50913
0
LINE
8
BLACK
6
CONTINUOUS
10
5.57671
20
-2.8131
11
5.5805
21
-2.81804
0
LINE
8
BLACK
6
CONTINUOUS
10
5.5805
20
-2.81804
11
5.58544
21
-2.82183
0
LINE
8
BLACK
6
CONTINUOUS
10
5.58544
20
-2.82183
11
5.59119
21
-2.82421
0
LINE
8
BLACK
6
CONTINUOUS
10
5.59119
20
-2.82421
11
5.59736
21
-2.82503
0
LINE
8
BLACK
6
CONTINUOUS
10
5.59736
20
-2.82503
11
5.59768
21
-2.82498
0
LINE
8
BLACK
6
CONTINUOUS
10
5.59768
20
-2.82498
11
5.60321
21
-2.82426
0
LINE
8
BLACK
6
CONTINUOUS
10
5.60321
20
-2.82426
11
5.60353
21
-2.82421
0
LINE
8
BLACK
6
CONTINUOUS
10
5.60353
20
-2.82421
11
5.60929
21
-2.82183
0
LINE
8
BLACK
6
CONTINUOUS
10
5.60929
20
-2.82183
11
5.60954
21
-2.82163
0
LINE
8
BLACK
6
CONTINUOUS
10
5.60954
20
-2.82163
11
5.60969
21
-2.82155
0
LINE
8
BLACK
6
CONTINUOUS
10
5.60969
20
-2.82155
11
5.61217
21
-2.82089
0
LINE
8
BLACK
6
CONTINUOUS
10
5.61217
20
-2.82089
11
5.73822
21
-2.82089
0
LINE
8
BLACK
6
CONTINUOUS
10
5.73822
20
-2.82089
11
5.73869
21
-2.82094
0
LINE
8
BLACK
6
CONTINUOUS
10
5.73869
20
-2.82094
11
5.73869
21
-2.82092
0
LINE
8
BLACK
6
CONTINUOUS
10
5.73869
20
-2.82092
11
5.73904
21
-2.82095
0
LINE
8
BLACK
6
CONTINUOUS
10
5.73904
20
-2.82095
11
5.73939
21
-2.82102
0
LINE
8
BLACK
6
CONTINUOUS
10
5.73939
20
-2.82102
11
5.74147
21
-2.8209
0
LINE
8
BLACK
6
CONTINUOUS
10
5.74147
20
-2.8209
11
5.74177
21
-2.82089
0
LINE
8
BLACK
6
CONTINUOUS
10
5.74177
20
-2.82089
11
5.7424
21
-2.82089
0
LINE
8
BLACK
6
CONTINUOUS
10
5.7424
20
-2.82089
11
5.7428
21
-2.82083
0
LINE
8
BLACK
6
CONTINUOUS
10
5.7428
20
-2.82083
11
5.74319
21
-2.82079
0
LINE
8
BLACK
6
CONTINUOUS
10
5.74319
20
-2.82079
11
5.7443
21
-2.82072
0
LINE
8
BLACK
6
CONTINUOUS
10
5.7443
20
-2.82072
11
5.74502
21
-2.82067
0
LINE
8
BLACK
6
CONTINUOUS
10
5.74502
20
-2.82067
11
5.74535
21
-2.82055
0
LINE
8
BLACK
6
CONTINUOUS
10
5.74535
20
-2.82055
11
5.7455
21
-2.82052
0
LINE
8
BLACK
6
CONTINUOUS
10
5.7455
20
-2.82052
11
5.74608
21
-2.82038
0
LINE
8
BLACK
6
CONTINUOUS
10
5.74608
20
-2.82038
11
5.74622
21
-2.82034
0
LINE
8
BLACK
6
CONTINUOUS
10
5.74622
20
-2.82034
11
5.74657
21
-2.82029
0
LINE
8
BLACK
6
CONTINUOUS
10
5.74657
20
-2.82029
11
5.74824
21
-2.81953
0
LINE
8
BLACK
6
CONTINUOUS
10
5.74824
20
-2.81953
11
5.74861
21
-2.81938
0
LINE
8
BLACK
6
CONTINUOUS
10
5.74861
20
-2.81938
11
5.75
21
-2.81888
0
LINE
8
BLACK
6
CONTINUOUS
10
5.75
20
-2.81888
11
5.75
21
-2.81888
0
LINE
8
BLACK
6
CONTINUOUS
10
5.75
20
-2.81888
11
5.75033
21
-2.81876
0
LINE
8
BLACK
6
CONTINUOUS
10
5.75033
20
-2.81876
11
5.75062
21
-2.81855
0
LINE
8
BLACK
6
CONTINUOUS
10
5.75062
20
-2.81855
11
5.75075
21
-2.81848
0
LINE
8
BLACK
6
CONTINUOUS
10
5.75075
20
-2.81848
11
5.75126
21
-2.81818
0
LINE
8
BLACK
6
CONTINUOUS
10
5.75126
20
-2.81818
11
5.75139
21
-2.8181
0
LINE
8
BLACK
6
CONTINUOUS
10
5.75139
20
-2.8181
11
5.75171
21
-2.81795
0
LINE
8
BLACK
6
CONTINUOUS
10
5.75171
20
-2.81795
11
5.75198
21
-2.81772
0
LINE
8
BLACK
6
CONTINUOUS
10
5.75198
20
-2.81772
11
5.75198
21
-2.81772
0
LINE
8
BLACK
6
CONTINUOUS
10
5.75198
20
-2.81772
11
5.7531
21
-2.81676
0
LINE
8
BLACK
6
CONTINUOUS
10
5.7531
20
-2.81676
11
5.75341
21
-2.81651
0
LINE
8
BLACK
6
CONTINUOUS
10
5.75341
20
-2.81651
11
5.75368
21
-2.81631
0
LINE
8
BLACK
6
CONTINUOUS
10
5.75368
20
-2.81631
11
5.75383
21
-2.8162
0
LINE
8
BLACK
6
CONTINUOUS
10
5.75383
20
-2.8162
11
5.75426
21
-2.81578
0
LINE
8
BLACK
6
CONTINUOUS
10
5.75426
20
-2.81578
11
5.75452
21
-2.81553
0
LINE
8
BLACK
6
CONTINUOUS
10
5.75452
20
-2.81553
11
5.75572
21
-2.8145
0
LINE
8
BLACK
6
CONTINUOUS
10
5.75572
20
-2.8145
11
5.75599
21
-2.81427
0
LINE
8
BLACK
6
CONTINUOUS
10
5.75599
20
-2.81427
11
5.75618
21
-2.81397
0
LINE
8
BLACK
6
CONTINUOUS
10
5.75618
20
-2.81397
11
5.75641
21
-2.8137
0
LINE
8
BLACK
6
CONTINUOUS
10
5.75641
20
-2.8137
11
5.75641
21
-2.81371
0
LINE
8
BLACK
6
CONTINUOUS
10
5.75641
20
-2.81371
11
5.75676
21
-2.81327
0
LINE
8
BLACK
6
CONTINUOUS
10
5.75676
20
-2.81327
11
5.87934
21
-2.69069
0
LINE
8
BLACK
6
CONTINUOUS
10
5.87934
20
-2.69069
11
5.87971
21
-2.6904
0
LINE
8
BLACK
6
CONTINUOUS
10
5.87971
20
-2.6904
11
5.8797
21
-2.69038
0
LINE
8
BLACK
6
CONTINUOUS
10
5.8797
20
-2.69038
11
5.87997
21
-2.69015
0
LINE
8
BLACK
6
CONTINUOUS
10
5.87997
20
-2.69015
11
5.88026
21
-2.68996
0
LINE
8
BLACK
6
CONTINUOUS
10
5.88026
20
-2.68996
11
5.88164
21
-2.6884
0
LINE
8
BLACK
6
CONTINUOUS
10
5.88164
20
-2.6884
11
5.88185
21
-2.68818
0
LINE
8
BLACK
6
CONTINUOUS
10
5.88185
20
-2.68818
11
5.8823
21
-2.68774
0
LINE
8
BLACK
6
CONTINUOUS
10
5.8823
20
-2.68774
11
5.88254
21
-2.68741
0
LINE
8
BLACK
6
CONTINUOUS
10
5.88254
20
-2.68741
11
5.88279
21
-2.68711
0
LINE
8
BLACK
6
CONTINUOUS
10
5.88279
20
-2.68711
11
5.88377
21
-2.686
0
LINE
8
BLACK
6
CONTINUOUS
10
5.88377
20
-2.686
11
5.88377
21
-2.686
0
LINE
8
BLACK
6
CONTINUOUS
10
5.88377
20
-2.686
11
5.884
21
-2.68573
0
LINE
8
BLACK
6
CONTINUOUS
10
5.884
20
-2.68573
11
5.88415
21
-2.68541
0
LINE
8
BLACK
6
CONTINUOUS
10
5.88415
20
-2.68541
11
5.88423
21
-2.68529
0
LINE
8
BLACK
6
CONTINUOUS
10
5.88423
20
-2.68529
11
5.88454
21
-2.68478
0
LINE
8
BLACK
6
CONTINUOUS
10
5.88454
20
-2.68478
11
5.88461
21
-2.68465
0
LINE
8
BLACK
6
CONTINUOUS
10
5.88461
20
-2.68465
11
5.88482
21
-2.68436
0
LINE
8
BLACK
6
CONTINUOUS
10
5.88482
20
-2.68436
11
5.88547
21
-2.68265
0
LINE
8
BLACK
6
CONTINUOUS
10
5.88547
20
-2.68265
11
5.88562
21
-2.68228
0
LINE
8
BLACK
6
CONTINUOUS
10
5.88562
20
-2.68228
11
5.88625
21
-2.68094
0
LINE
8
BLACK
6
CONTINUOUS
10
5.88625
20
-2.68094
11
5.8864
21
-2.68062
0
LINE
8
BLACK
6
CONTINUOUS
10
5.8864
20
-2.68062
11
5.88645
21
-2.68027
0
LINE
8
BLACK
6
CONTINUOUS
10
5.88645
20
-2.68027
11
5.8865
21
-2.68013
0
LINE
8
BLACK
6
CONTINUOUS
10
5.8865
20
-2.68013
11
5.88665
21
-2.67955
0
LINE
8
BLACK
6
CONTINUOUS
10
5.88665
20
-2.67955
11
5.88668
21
-2.67941
0
LINE
8
BLACK
6
CONTINUOUS
10
5.88668
20
-2.67941
11
5.88681
21
-2.67908
0
LINE
8
BLACK
6
CONTINUOUS
10
5.88681
20
-2.67908
11
5.88694
21
-2.67725
0
LINE
8
BLACK
6
CONTINUOUS
10
5.88694
20
-2.67725
11
5.88699
21
-2.67686
0
LINE
8
BLACK
6
CONTINUOUS
10
5.88699
20
-2.67686
11
5.88707
21
-2.67634
0
LINE
8
BLACK
6
CONTINUOUS
10
5.88707
20
-2.67634
11
5.88707
21
-2.67574
0
LINE
8
BLACK
6
CONTINUOUS
10
5.88707
20
-2.67574
11
5.88708
21
-2.67537
0
LINE
8
BLACK
6
CONTINUOUS
10
5.88708
20
-2.67537
11
5.8872
21
-2.6738
0
LINE
8
BLACK
6
CONTINUOUS
10
5.8872
20
-2.6738
11
5.88722
21
-2.67345
0
LINE
8
BLACK
6
CONTINUOUS
10
5.88722
20
-2.67345
11
5.88715
21
-2.6731
0
LINE
8
BLACK
6
CONTINUOUS
10
5.88715
20
-2.6731
11
5.88713
21
-2.67275
0
LINE
8
BLACK
6
CONTINUOUS
10
5.88713
20
-2.67275
11
5.88713
21
-2.67275
0
LINE
8
BLACK
6
CONTINUOUS
10
5.88713
20
-2.67275
11
5.88707
21
-2.67219
0
LINE
8
BLACK
6
CONTINUOUS
10
5.88707
20
-2.67219
11
5.88707
21
-2.66404
0
LINE
8
BLACK
6
CONTINUOUS
10
5.88707
20
-2.66404
11
5.88785
21
-2.66135
0
LINE
8
BLACK
6
CONTINUOUS
10
5.88785
20
-2.66135
11
5.88997
21
-2.65952
0
LINE
8
BLACK
6
CONTINUOUS
10
5.88997
20
-2.65952
11
5.89203
21
-2.65907
0
LINE
8
BLACK
6
CONTINUOUS
10
5.89203
20
-2.65907
11
5.89814
21
-2.65907
0
LINE
8
BLACK
6
CONTINUOUS
10
5.89814
20
-2.65907
11
5.89838
21
-2.65903
0
LINE
8
BLACK
6
CONTINUOUS
10
5.89838
20
-2.65903
11
5.89996
21
-2.65871
0
LINE
8
BLACK
6
CONTINUOUS
10
5.89996
20
-2.65871
11
5.89996
21
-2.65871
0
LINE
8
BLACK
6
CONTINUOUS
10
5.89996
20
-2.65871
11
5.90044
21
-2.65862
0
LINE
8
BLACK
6
CONTINUOUS
10
5.90044
20
-2.65862
11
5.90305
21
-2.65687
0
LINE
8
BLACK
6
CONTINUOUS
10
5.90305
20
-2.65687
11
5.9048
21
-2.65426
0
LINE
8
BLACK
6
CONTINUOUS
10
5.9048
20
-2.65426
11
5.90526
21
-2.65196
0
LINE
8
BLACK
6
CONTINUOUS
10
5.90526
20
-2.65196
11
5.90526
21
-2.5904
0
LINE
8
BLACK
6
CONTINUOUS
10
5.90526
20
-2.5904
11
5.9048
21
-2.5881
0
LINE
8
BLACK
6
CONTINUOUS
10
5.9048
20
-2.5881
11
5.90305
21
-2.58549
0
LINE
8
BLACK
6
CONTINUOUS
10
5.90305
20
-2.58549
11
5.90044
21
-2.58375
0
LINE
8
BLACK
6
CONTINUOUS
10
5.90044
20
-2.58375
11
5.89996
21
-2.58365
0
LINE
8
BLACK
6
CONTINUOUS
10
5.89996
20
-2.58365
11
5.89996
21
-2.58365
0
LINE
8
BLACK
6
CONTINUOUS
10
5.89996
20
-2.58365
11
5.89838
21
-2.58333
0
LINE
8
BLACK
6
CONTINUOUS
10
5.89838
20
-2.58333
11
5.89814
21
-2.58329
0
LINE
8
BLACK
6
CONTINUOUS
10
5.89814
20
-2.58329
11
5.83658
21
-2.58329
0
LINE
8
BLACK
6
CONTINUOUS
10
5.83658
20
-2.58329
11
5.83635
21
-2.58333
0
LINE
8
BLACK
6
CONTINUOUS
10
5.83635
20
-2.58333
11
5.83476
21
-2.58365
0
LINE
8
BLACK
6
CONTINUOUS
10
5.83476
20
-2.58365
11
5.83476
21
-2.58365
0
LINE
8
BLACK
6
CONTINUOUS
10
5.83476
20
-2.58365
11
5.83428
21
-2.58375
0
LINE
8
BLACK
6
CONTINUOUS
10
5.83428
20
-2.58375
11
5.83167
21
-2.58549
0
LINE
8
BLACK
6
CONTINUOUS
10
5.83167
20
-2.58549
11
5.82993
21
-2.5881
0
LINE
8
BLACK
6
CONTINUOUS
10
5.82993
20
-2.5881
11
5.82947
21
-2.5904
0
LINE
8
BLACK
6
CONTINUOUS
10
5.82947
20
-2.5904
11
5.82947
21
-2.65196
0
LINE
8
BLACK
6
CONTINUOUS
10
5.82947
20
-2.65196
11
5.82993
21
-2.65426
0
LINE
8
BLACK
6
CONTINUOUS
10
5.82993
20
-2.65426
11
5.83167
21
-2.65687
0
LINE
8
BLACK
6
CONTINUOUS
10
5.83167
20
-2.65687
11
5.83428
21
-2.65862
0
LINE
8
BLACK
6
CONTINUOUS
10
5.83428
20
-2.65862
11
5.83476
21
-2.65871
0
LINE
8
BLACK
6
CONTINUOUS
10
5.83476
20
-2.65871
11
5.83476
21
-2.65871
0
LINE
8
BLACK
6
CONTINUOUS
10
5.83476
20
-2.65871
11
5.83635
21
-2.65903
0
LINE
8
BLACK
6
CONTINUOUS
10
5.83635
20
-2.65903
11
5.83658
21
-2.65907
0
LINE
8
BLACK
6
CONTINUOUS
10
5.83658
20
-2.65907
11
5.8427
21
-2.65907
0
LINE
8
BLACK
6
CONTINUOUS
10
5.8427
20
-2.65907
11
5.84538
21
-2.65986
0
LINE
8
BLACK
6
CONTINUOUS
10
5.84538
20
-2.65986
11
5.84721
21
-2.66197
0
LINE
8
BLACK
6
CONTINUOUS
10
5.84721
20
-2.66197
11
5.84766
21
-2.66404
0
LINE
8
BLACK
6
CONTINUOUS
10
5.84766
20
-2.66404
11
5.84766
21
-2.66459
0
LINE
8
BLACK
6
CONTINUOUS
10
5.84766
20
-2.66459
11
5.84687
21
-2.66727
0
LINE
8
BLACK
6
CONTINUOUS
10
5.84687
20
-2.66727
11
5.8462
21
-2.66809
0
LINE
8
BLACK
6
CONTINUOUS
10
5.8462
20
-2.66809
11
5.73428
21
-2.78002
0
LINE
8
BLACK
6
CONTINUOUS
10
5.73428
20
-2.78002
11
5.73182
21
-2.78136
0
LINE
8
BLACK
6
CONTINUOUS
10
5.73182
20
-2.78136
11
5.73077
21
-2.78148
0
LINE
8
BLACK
6
CONTINUOUS
10
5.73077
20
-2.78148
11
5.61217
21
-2.78148
0
LINE
8
BLACK
6
CONTINUOUS
10
5.61217
20
-2.78148
11
5.60969
21
-2.78081
0
LINE
8
BLACK
6
CONTINUOUS
10
5.60969
20
-2.78081
11
5.60954
21
-2.78073
0
LINE
8
BLACK
6
CONTINUOUS
10
5.60954
20
-2.78073
11
5.60929
21
-2.78053
0
LINE
8
BLACK
6
CONTINUOUS
10
5.60929
20
-2.78053
11
5.60353
21
-2.77815
0
LINE
8
BLACK
6
CONTINUOUS
10
5.60353
20
-2.77815
11
5.59736
21
-2.77734
0
LINE
8
BLACK
6
CONTINUOUS
10
5.59736
20
-2.77734
11
5.59119
21
-2.77815
0
LINE
8
BLACK
6
CONTINUOUS
10
5.59119
20
-2.77815
11
5.58544
21
-2.78053
0
LINE
8
BLACK
6
CONTINUOUS
10
5.58544
20
-2.78053
11
5.5805
21
-2.78432
0
LINE
8
BLACK
6
CONTINUOUS
10
5.5805
20
-2.78432
11
5.57671
21
-2.78926
0
LINE
8
BLACK
6
CONTINUOUS
10
5.57671
20
-2.78926
11
5.57433
21
-2.79501
0
LINE
8
BLACK
6
CONTINUOUS
10
5.57433
20
-2.79501
11
5.57352
21
-2.80118
0
LINE
8
BLACK
6
CONTINUOUS
10
5.57352
20
-2.80118
11
5.57433
21
-2.80735
0
LINE
8
BLACK
6
CONTINUOUS
10
5.57433
20
-2.80735
11
5.57671
21
-2.8131
0
LINE
8
BLACK
6
CONTINUOUS
10
5.73167
20
-2.65687
11
5.73428
21
-2.65862
0
LINE
8
BLACK
6
CONTINUOUS
10
5.73428
20
-2.65862
11
5.73476
21
-2.65871
0
LINE
8
BLACK
6
CONTINUOUS
10
5.73476
20
-2.65871
11
5.73476
21
-2.65871
0
LINE
8
BLACK
6
CONTINUOUS
10
5.73476
20
-2.65871
11
5.73635
21
-2.65903
0
LINE
8
BLACK
6
CONTINUOUS
10
5.73635
20
-2.65903
11
5.73658
21
-2.65907
0
LINE
8
BLACK
6
CONTINUOUS
10
5.73658
20
-2.65907
11
5.79814
21
-2.65907
0
LINE
8
BLACK
6
CONTINUOUS
10
5.79814
20
-2.65907
11
5.79838
21
-2.65903
0
LINE
8
BLACK
6
CONTINUOUS
10
5.79838
20
-2.65903
11
5.79996
21
-2.65871
0
LINE
8
BLACK
6
CONTINUOUS
10
5.79996
20
-2.65871
11
5.79996
21
-2.65871
0
LINE
8
BLACK
6
CONTINUOUS
10
5.79996
20
-2.65871
11
5.80044
21
-2.65862
0
LINE
8
BLACK
6
CONTINUOUS
10
5.80044
20
-2.65862
11
5.80305
21
-2.65687
0
LINE
8
BLACK
6
CONTINUOUS
10
5.80305
20
-2.65687
11
5.8048
21
-2.65426
0
LINE
8
BLACK
6
CONTINUOUS
10
5.8048
20
-2.65426
11
5.80526
21
-2.65196
0
LINE
8
BLACK
6
CONTINUOUS
10
5.80526
20
-2.65196
11
5.80526
21
-2.5904
0
LINE
8
BLACK
6
CONTINUOUS
10
5.80526
20
-2.5904
11
5.8048
21
-2.5881
0
LINE
8
BLACK
6
CONTINUOUS
10
5.8048
20
-2.5881
11
5.80305
21
-2.58549
0
LINE
8
BLACK
6
CONTINUOUS
10
5.80305
20
-2.58549
11
5.80044
21
-2.58375
0
LINE
8
BLACK
6
CONTINUOUS
10
5.80044
20
-2.58375
11
5.79996
21
-2.58365
0
LINE
8
BLACK
6
CONTINUOUS
10
5.79996
20
-2.58365
11
5.79996
21
-2.58365
0
LINE
8
BLACK
6
CONTINUOUS
10
5.79996
20
-2.58365
11
5.79838
21
-2.58333
0
LINE
8
BLACK
6
CONTINUOUS
10
5.79838
20
-2.58333
11
5.79814
21
-2.58329
0
LINE
8
BLACK
6
CONTINUOUS
10
5.79814
20
-2.58329
11
5.73658
21
-2.58329
0
LINE
8
BLACK
6
CONTINUOUS
10
5.73658
20
-2.58329
11
5.73635
21
-2.58333
0
LINE
8
BLACK
6
CONTINUOUS
10
5.73635
20
-2.58333
11
5.73476
21
-2.58365
0
LINE
8
BLACK
6
CONTINUOUS
10
5.73476
20
-2.58365
11
5.73476
21
-2.58365
0
LINE
8
BLACK
6
CONTINUOUS
10
5.73476
20
-2.58365
11
5.73428
21
-2.58375
0
LINE
8
BLACK
6
CONTINUOUS
10
5.73428
20
-2.58375
11
5.73167
21
-2.58549
0
LINE
8
BLACK
6
CONTINUOUS
10
5.73167
20
-2.58549
11
5.72993
21
-2.5881
0
LINE
8
BLACK
6
CONTINUOUS
10
5.72993
20
-2.5881
11
5.72947
21
-2.5904
0
LINE
8
BLACK
6
CONTINUOUS
10
5.72947
20
-2.5904
11
5.72947
21
-2.65196
0
LINE
8
BLACK
6
CONTINUOUS
10
5.72947
20
-2.65196
11
5.72993
21
-2.65426
0
LINE
8
BLACK
6
CONTINUOUS
10
5.72993
20
-2.65426
11
5.73167
21
-2.65687
0
LINE
8
BLACK
6
CONTINUOUS
10
5.7048
20
-2.5881
11
5.70305
21
-2.58549
0
LINE
8
BLACK
6
CONTINUOUS
10
5.70305
20
-2.58549
11
5.70044
21
-2.58375
0
LINE
8
BLACK
6
CONTINUOUS
10
5.70044
20
-2.58375
11
5.69996
21
-2.58365
0
LINE
8
BLACK
6
CONTINUOUS
10
5.69996
20
-2.58365
11
5.69996
21
-2.58365
0
LINE
8
BLACK
6
CONTINUOUS
10
5.69996
20
-2.58365
11
5.69838
21
-2.58333
0
LINE
8
BLACK
6
CONTINUOUS
10
5.69838
20
-2.58333
11
5.69814
21
-2.58329
0
LINE
8
BLACK
6
CONTINUOUS
10
5.69814
20
-2.58329
11
5.63658
21
-2.58329
0
LINE
8
BLACK
6
CONTINUOUS
10
5.63658
20
-2.58329
11
5.63635
21
-2.58333
0
LINE
8
BLACK
6
CONTINUOUS
10
5.63635
20
-2.58333
11
5.63476
21
-2.58365
0
LINE
8
BLACK
6
CONTINUOUS
10
5.63476
20
-2.58365
11
5.63476
21
-2.58365
0
LINE
8
BLACK
6
CONTINUOUS
10
5.63476
20
-2.58365
11
5.63428
21
-2.58375
0
LINE
8
BLACK
6
CONTINUOUS
10
5.63428
20
-2.58375
11
5.63167
21
-2.58549
0
LINE
8
BLACK
6
CONTINUOUS
10
5.63167
20
-2.58549
11
5.62993
21
-2.5881
0
LINE
8
BLACK
6
CONTINUOUS
10
5.62993
20
-2.5881
11
5.62947
21
-2.5904
0
LINE
8
BLACK
6
CONTINUOUS
10
5.62947
20
-2.5904
11
5.62947
21
-2.65196
0
LINE
8
BLACK
6
CONTINUOUS
10
5.62947
20
-2.65196
11
5.62993
21
-2.65426
0
LINE
8
BLACK
6
CONTINUOUS
10
5.62993
20
-2.65426
11
5.63167
21
-2.65687
0
LINE
8
BLACK
6
CONTINUOUS
10
5.63167
20
-2.65687
11
5.63428
21
-2.65862
0
LINE
8
BLACK
6
CONTINUOUS
10
5.63428
20
-2.65862
11
5.63476
21
-2.65871
0
LINE
8
BLACK
6
CONTINUOUS
10
5.63476
20
-2.65871
11
5.63476
21
-2.65871
0
LINE
8
BLACK
6
CONTINUOUS
10
5.63476
20
-2.65871
11
5.63635
21
-2.65903
0
LINE
8
BLACK
6
CONTINUOUS
10
5.63635
20
-2.65903
11
5.63658
21
-2.65907
0
LINE
8
BLACK
6
CONTINUOUS
10
5.63658
20
-2.65907
11
5.69814
21
-2.65907
0
LINE
8
BLACK
6
CONTINUOUS
10
5.69814
20
-2.65907
11
5.69838
21
-2.65903
0
LINE
8
BLACK
6
CONTINUOUS
10
5.69838
20
-2.65903
11
5.69996
21
-2.65871
0
LINE
8
BLACK
6
CONTINUOUS
10
5.69996
20
-2.65871
11
5.69996
21
-2.65871
0
LINE
8
BLACK
6
CONTINUOUS
10
5.69996
20
-2.65871
11
5.70044
21
-2.65862
0
LINE
8
BLACK
6
CONTINUOUS
10
5.70044
20
-2.65862
11
5.70305
21
-2.65687
0
LINE
8
BLACK
6
CONTINUOUS
10
5.70305
20
-2.65687
11
5.7048
21
-2.65426
0
LINE
8
BLACK
6
CONTINUOUS
10
5.7048
20
-2.65426
11
5.70526
21
-2.65196
0
LINE
8
BLACK
6
CONTINUOUS
10
5.70526
20
-2.65196
11
5.70526
21
-2.5904
0
LINE
8
BLACK
6
CONTINUOUS
10
5.70526
20
-2.5904
11
5.7048
21
-2.5881
0
LINE
8
BLACK
6
CONTINUOUS
10
5.6048
20
-2.5881
11
5.60305
21
-2.58549
0
LINE
8
BLACK
6
CONTINUOUS
10
5.60305
20
-2.58549
11
5.60044
21
-2.58375
0
LINE
8
BLACK
6
CONTINUOUS
10
5.60044
20
-2.58375
11
5.59996
21
-2.58365
0
LINE
8
BLACK
6
CONTINUOUS
10
5.59996
20
-2.58365
11
5.59996
21
-2.58365
0
LINE
8
BLACK
6
CONTINUOUS
10
5.59996
20
-2.58365
11
5.59838
21
-2.58333
0
LINE
8
BLACK
6
CONTINUOUS
10
5.59838
20
-2.58333
11
5.59814
21
-2.58329
0
LINE
8
BLACK
6
CONTINUOUS
10
5.59814
20
-2.58329
11
5.53658
21
-2.58329
0
LINE
8
BLACK
6
CONTINUOUS
10
5.53658
20
-2.58329
11
5.53635
21
-2.58333
0
LINE
8
BLACK
6
CONTINUOUS
10
5.53635
20
-2.58333
11
5.53476
21
-2.58365
0
LINE
8
BLACK
6
CONTINUOUS
10
5.53476
20
-2.58365
11
5.53476
21
-2.58365
0
LINE
8
BLACK
6
CONTINUOUS
10
5.53476
20
-2.58365
11
5.53428
21
-2.58375
0
LINE
8
BLACK
6
CONTINUOUS
10
5.53428
20
-2.58375
11
5.53167
21
-2.58549
0
LINE
8
BLACK
6
CONTINUOUS
10
5.53167
20
-2.58549
11
5.52993
21
-2.5881
0
LINE
8
BLACK
6
CONTINUOUS
10
5.52993
20
-2.5881
11
5.52947
21
-2.5904
0
LINE
8
BLACK
6
CONTINUOUS
10
5.52947
20
-2.5904
11
5.52947
21
-2.65196
0
LINE
8
BLACK
6
CONTINUOUS
10
5.52947
20
-2.65196
11
5.52993
21
-2.65426
0
LINE
8
BLACK
6
CONTINUOUS
10
5.52993
20
-2.65426
11
5.53167
21
-2.65687
0
LINE
8
BLACK
6
CONTINUOUS
10
5.53167
20
-2.65687
11
5.53428
21
-2.65862
0
LINE
8
BLACK
6
CONTINUOUS
10
5.53428
20
-2.65862
11
5.53476
21
-2.65871
0
LINE
8
BLACK
6
CONTINUOUS
10
5.53476
20
-2.65871
11
5.53476
21
-2.65871
0
LINE
8
BLACK
6
CONTINUOUS
10
5.53476
20
-2.65871
11
5.53635
21
-2.65903
0
LINE
8
BLACK
6
CONTINUOUS
10
5.53635
20
-2.65903
11
5.53658
21
-2.65907
0
LINE
8
BLACK
6
CONTINUOUS
10
5.53658
20
-2.65907
11
5.59814
21
-2.65907
0
LINE
8
BLACK
6
CONTINUOUS
10
5.59814
20
-2.65907
11
5.59838
21
-2.65903
0
LINE
8
BLACK
6
CONTINUOUS
10
5.59838
20
-2.65903
11
5.59996
21
-2.65871
0
LINE
8
BLACK
6
CONTINUOUS
10
5.59996
20
-2.65871
11
5.59996
21
-2.65871
0
LINE
8
BLACK
6
CONTINUOUS
10
5.59996
20
-2.65871
11
5.60044
21
-2.65862
0
LINE
8
BLACK
6
CONTINUOUS
10
5.60044
20
-2.65862
11
5.60305
21
-2.65687
0
LINE
8
BLACK
6
CONTINUOUS
10
5.60305
20
-2.65687
11
5.6048
21
-2.65426
0
LINE
8
BLACK
6
CONTINUOUS
10
5.6048
20
-2.65426
11
5.60526
21
-2.65196
0
LINE
8
BLACK
6
CONTINUOUS
10
5.60526
20
-2.65196
11
5.60526
21
-2.5904
0
LINE
8
BLACK
6
CONTINUOUS
10
5.60526
20
-2.5904
11
5.6048
21
-2.5881
0
LINE
8
BLACK
6
CONTINUOUS
10
5.5048
20
-2.5881
11
5.50305
21
-2.58549
0
LINE
8
BLACK
6
CONTINUOUS
10
5.50305
20
-2.58549
11
5.50044
21
-2.58375
0
LINE
8
BLACK
6
CONTINUOUS
10
5.50044
20
-2.58375
11
5.49996
21
-2.58365
0
LINE
8
BLACK
6
CONTINUOUS
10
5.49996
20
-2.58365
11
5.49996
21
-2.58365
0
LINE
8
BLACK
6
CONTINUOUS
10
5.49996
20
-2.58365
11
5.49838
21
-2.58333
0
LINE
8
BLACK
6
CONTINUOUS
10
5.49838
20
-2.58333
11
5.49814
21
-2.58329
0
LINE
8
BLACK
6
CONTINUOUS
10
5.49814
20
-2.58329
11
5.43658
21
-2.58329
0
LINE
8
BLACK
6
CONTINUOUS
10
5.43658
20
-2.58329
11
5.43635
21
-2.58333
0
LINE
8
BLACK
6
CONTINUOUS
10
5.43635
20
-2.58333
11
5.43476
21
-2.58365
0
LINE
8
BLACK
6
CONTINUOUS
10
5.43476
20
-2.58365
11
5.43476
21
-2.58365
0
LINE
8
BLACK
6
CONTINUOUS
10
5.43476
20
-2.58365
11
5.43428
21
-2.58375
0
LINE
8
BLACK
6
CONTINUOUS
10
5.43428
20
-2.58375
11
5.43167
21
-2.58549
0
LINE
8
BLACK
6
CONTINUOUS
10
5.43167
20
-2.58549
11
5.42993
21
-2.5881
0
LINE
8
BLACK
6
CONTINUOUS
10
5.42993
20
-2.5881
11
5.42947
21
-2.5904
0
LINE
8
BLACK
6
CONTINUOUS
10
5.42947
20
-2.5904
11
5.42947
21
-2.65196
0
LINE
8
BLACK
6
CONTINUOUS
10
5.42947
20
-2.65196
11
5.42993
21
-2.65426
0
LINE
8
BLACK
6
CONTINUOUS
10
5.42993
20
-2.65426
11
5.43167
21
-2.65687
0
LINE
8
BLACK
6
CONTINUOUS
10
5.43167
20
-2.65687
11
5.43428
21
-2.65862
0
LINE
8
BLACK
6
CONTINUOUS
10
5.43428
20
-2.65862
11
5.43476
21
-2.65871
0
LINE
8
BLACK
6
CONTINUOUS
10
5.43476
20
-2.65871
11
5.43476
21
-2.65871
0
LINE
8
BLACK
6
CONTINUOUS
10
5.43476
20
-2.65871
11
5.43635
21
-2.65903
0
LINE
8
BLACK
6
CONTINUOUS
10
5.43635
20
-2.65903
11
5.43658
21
-2.65907
0
LINE
8
BLACK
6
CONTINUOUS
10
5.43658
20
-2.65907
11
5.49814
21
-2.65907
0
LINE
8
BLACK
6
CONTINUOUS
10
5.49814
20
-2.65907
11
5.49838
21
-2.65903
0
LINE
8
BLACK
6
CONTINUOUS
10
5.49838
20
-2.65903
11
5.49996
21
-2.65871
0
LINE
8
BLACK
6
CONTINUOUS
10
5.49996
20
-2.65871
11
5.49996
21
-2.65871
0
LINE
8
BLACK
6
CONTINUOUS
10
5.49996
20
-2.65871
11
5.50044
21
-2.65862
0
LINE
8
BLACK
6
CONTINUOUS
10
5.50044
20
-2.65862
11
5.50305
21
-2.65687
0
LINE
8
BLACK
6
CONTINUOUS
10
5.50305
20
-2.65687
11
5.5048
21
-2.65426
0
LINE
8
BLACK
6
CONTINUOUS
10
5.5048
20
-2.65426
11
5.50526
21
-2.65196
0
LINE
8
BLACK
6
CONTINUOUS
10
5.50526
20
-2.65196
11
5.50526
21
-2.5904
0
LINE
8
BLACK
6
CONTINUOUS
10
5.50526
20
-2.5904
11
5.5048
21
-2.5881
0
LINE
8
BLACK
6
CONTINUOUS
10
5.60662
20
-2.81392
11
5.60223
21
-2.81616
0
LINE
8
BLACK
6
CONTINUOUS
10
5.60223
20
-2.81616
11
5.59736
21
-2.81693
0
LINE
8
BLACK
6
CONTINUOUS
10
5.59736
20
-2.81693
11
5.5925
21
-2.81616
0
LINE
8
BLACK
6
CONTINUOUS
10
5.5925
20
-2.81616
11
5.58811
21
-2.81392
0
LINE
8
BLACK
6
CONTINUOUS
10
5.58811
20
-2.81392
11
5.58462
21
-2.81044
0
LINE
8
BLACK
6
CONTINUOUS
10
5.58462
20
-2.81044
11
5.58238
21
-2.80605
0
LINE
8
BLACK
6
CONTINUOUS
10
5.58238
20
-2.80605
11
5.58161
21
-2.80118
0
LINE
8
BLACK
6
CONTINUOUS
10
5.58161
20
-2.80118
11
5.58238
21
-2.79631
0
LINE
8
BLACK
6
CONTINUOUS
10
5.58238
20
-2.79631
11
5.58462
21
-2.79192
0
LINE
8
BLACK
6
CONTINUOUS
10
5.58462
20
-2.79192
11
5.58811
21
-2.78844
0
LINE
8
BLACK
6
CONTINUOUS
10
5.58811
20
-2.78844
11
5.5925
21
-2.7862
0
LINE
8
BLACK
6
CONTINUOUS
10
5.5925
20
-2.7862
11
5.59736
21
-2.78543
0
LINE
8
BLACK
6
CONTINUOUS
10
5.59736
20
-2.78543
11
5.60223
21
-2.7862
0
LINE
8
BLACK
6
CONTINUOUS
10
5.60223
20
-2.7862
11
5.60662
21
-2.78844
0
LINE
8
BLACK
6
CONTINUOUS
10
5.60662
20
-2.78844
11
5.60755
21
-2.78937
0
LINE
8
BLACK
6
CONTINUOUS
10
5.60755
20
-2.78937
11
5.73609
21
-2.78937
0
LINE
8
BLACK
6
CONTINUOUS
10
5.73609
20
-2.78937
11
5.85555
21
-2.66991
0
LINE
8
BLACK
6
CONTINUOUS
10
5.85555
20
-2.66991
11
5.85555
21
-2.65118
0
LINE
8
BLACK
6
CONTINUOUS
10
5.85555
20
-2.65118
11
5.83736
21
-2.65118
0
LINE
8
BLACK
6
CONTINUOUS
10
5.83736
20
-2.65118
11
5.83736
21
-2.59118
0
LINE
8
BLACK
6
CONTINUOUS
10
5.83736
20
-2.59118
11
5.89736
21
-2.59118
0
LINE
8
BLACK
6
CONTINUOUS
10
5.89736
20
-2.59118
11
5.89736
21
-2.65118
0
LINE
8
BLACK
6
CONTINUOUS
10
5.89736
20
-2.65118
11
5.87917
21
-2.65118
0
LINE
8
BLACK
6
CONTINUOUS
10
5.87917
20
-2.65118
11
5.87917
21
-2.6748
0
LINE
8
BLACK
6
CONTINUOUS
10
5.87917
20
-2.6748
11
5.87913
21
-2.6752
0
LINE
8
BLACK
6
CONTINUOUS
10
5.87913
20
-2.6752
11
5.87916
21
-2.67538
0
LINE
8
BLACK
6
CONTINUOUS
10
5.87916
20
-2.67538
11
5.87909
21
-2.67569
0
LINE
8
BLACK
6
CONTINUOUS
10
5.87909
20
-2.67569
11
5.87895
21
-2.6771
0
LINE
8
BLACK
6
CONTINUOUS
10
5.87895
20
-2.6771
11
5.87846
21
-2.67831
0
LINE
8
BLACK
6
CONTINUOUS
10
5.87846
20
-2.67831
11
5.87816
21
-2.67959
0
LINE
8
BLACK
6
CONTINUOUS
10
5.87816
20
-2.67959
11
5.87767
21
-2.68031
0
LINE
8
BLACK
6
CONTINUOUS
10
5.87767
20
-2.68031
11
5.87735
21
-2.68111
0
LINE
8
BLACK
6
CONTINUOUS
10
5.87735
20
-2.68111
11
5.87645
21
-2.68207
0
LINE
8
BLACK
6
CONTINUOUS
10
5.87645
20
-2.68207
11
5.87571
21
-2.68315
0
LINE
8
BLACK
6
CONTINUOUS
10
5.87571
20
-2.68315
11
5.74934
21
-2.80953
0
LINE
8
BLACK
6
CONTINUOUS
10
5.74934
20
-2.80953
11
5.74903
21
-2.80979
0
LINE
8
BLACK
6
CONTINUOUS
10
5.74903
20
-2.80979
11
5.74892
21
-2.80993
0
LINE
8
BLACK
6
CONTINUOUS
10
5.74892
20
-2.80993
11
5.74865
21
-2.8101
0
LINE
8
BLACK
6
CONTINUOUS
10
5.74865
20
-2.8101
11
5.74755
21
-2.811
0
LINE
8
BLACK
6
CONTINUOUS
10
5.74755
20
-2.811
11
5.74635
21
-2.81151
0
LINE
8
BLACK
6
CONTINUOUS
10
5.74635
20
-2.81151
11
5.74524
21
-2.8122
0
LINE
8
BLACK
6
CONTINUOUS
10
5.74524
20
-2.8122
11
5.74438
21
-2.81236
0
LINE
8
BLACK
6
CONTINUOUS
10
5.74438
20
-2.81236
11
5.74358
21
-2.8127
0
LINE
8
BLACK
6
CONTINUOUS
10
5.74358
20
-2.8127
11
5.74227
21
-2.81275
0
LINE
8
BLACK
6
CONTINUOUS
10
5.74227
20
-2.81275
11
5.74098
21
-2.81299
0
LINE
8
BLACK
6
CONTINUOUS
10
5.74098
20
-2.81299
11
5.60755
21
-2.81299
0
LINE
8
BLACK
6
CONTINUOUS
10
5.60755
20
-2.81299
11
5.60662
21
-2.81392
0
LINE
8
BLACK
6
CONTINUOUS
10
5.79736
20
-2.65118
11
5.73736
21
-2.65118
0
LINE
8
BLACK
6
CONTINUOUS
10
5.73736
20
-2.65118
11
5.73736
21
-2.59118
0
LINE
8
BLACK
6
CONTINUOUS
10
5.73736
20
-2.59118
11
5.79736
21
-2.59118
0
LINE
8
BLACK
6
CONTINUOUS
10
5.79736
20
-2.59118
11
5.79736
21
-2.65118
0
LINE
8
BLACK
6
CONTINUOUS
10
5.69736
20
-2.65118
11
5.63736
21
-2.65118
0
LINE
8
BLACK
6
CONTINUOUS
10
5.63736
20
-2.65118
11
5.63736
21
-2.59118
0
LINE
8
BLACK
6
CONTINUOUS
10
5.63736
20
-2.59118
11
5.69736
21
-2.59118
0
LINE
8
BLACK
6
CONTINUOUS
10
5.69736
20
-2.59118
11
5.69736
21
-2.65118
0
LINE
8
BLACK
6
CONTINUOUS
10
5.59736
20
-2.65118
11
5.53736
21
-2.65118
0
LINE
8
BLACK
6
CONTINUOUS
10
5.53736
20
-2.65118
11
5.53736
21
-2.59118
0
LINE
8
BLACK
6
CONTINUOUS
10
5.53736
20
-2.59118
11
5.59736
21
-2.59118
0
LINE
8
BLACK
6
CONTINUOUS
10
5.59736
20
-2.59118
11
5.59736
21
-2.65118
0
LINE
8
BLACK
6
CONTINUOUS
10
5.49736
20
-2.65118
11
5.43736
21
-2.65118
0
LINE
8
BLACK
6
CONTINUOUS
10
5.43736
20
-2.65118
11
5.43736
21
-2.59118
0
LINE
8
BLACK
6
CONTINUOUS
10
5.43736
20
-2.59118
11
5.49736
21
-2.59118
0
LINE
8
BLACK
6
CONTINUOUS
10
5.49736
20
-2.59118
11
5.49736
21
-2.65118
0
CIRCLE
8
BLACK
10
5.59736
20
-2.80118
40
0.00787402
  0
ENDSEC
  0
EOF
