  0
SECTION
  2
HEADER
  9
$ANGBASE
  50
0.0
  9
$ANGDIR
  70
1
  9
$MEASUREMENT
  70
0
  0
ENDSEC
  0
SECTION
  2
TABLES
  0
TABLE
  2
LTYPE
  70
4
  0
LTYPE
  5
40F
  2
CONTINUOUS
  70
0
  3
Solid line
  72
65
  73
0
  40
0.0
  0
LTYPE
  5
410
  2
DASHDOT
 70
0
  3
Dash Dot ____ _ ____ _
 72
65
 73
4
 40
2.0
 49
1.25
 49
-0.25
 49
0.25
 49
-0.25
  0
LTYPE
  5
411
  2
DASHED
 70
0
  3
Dashed __ __ __ __ __
 72
65
 73
2
 40
0.75
 49
0.5
 49
-0.25
  0
LTYPE
  5
43B
  2
DOTTED
 70
0
  3
Dotted .  .  .  .
 72
65
 73
2
 40
0.2
 49
0.0
 49
-0.2
  0
ENDTAB
  0
TABLE
  2
STYLE
  70
4
  0
STYLE
  2
KICAD
  70
0
  40
0
  41
1
  42
1
  50
0
  71
0
  3
isocp.shx
  0
STYLE
  2
KICADB
  70
0
  40
0
  41
1
  42
1
  50
0
  71
0
  3
isocp.shx
  0
STYLE
  2
KICADI
  70
0
  40
0
  41
1
  42
1
  50
15
  71
0
  3
isocp.shx
  0
STYLE
  2
KICADBI
  70
0
  40
0
  41
1
  42
1
  50
15
  71
0
  3
isocp.shx
  0
ENDTAB
  0
TABLE
  2
LAYER
  70
1
  0
LAYER
  2
BLACK
  70
0
  62
7
  6
CONTINUOUS
  0
ENDTAB
  0
ENDSEC
  0
SECTION
  2
ENTITIES
0
LINE
8
BLACK
6
CONTINUOUS
10
4.69783
20
-2.50913
11
4.69995
21
-2.5073
0
LINE
8
BLACK
6
CONTINUOUS
10
4.69995
20
-2.5073
11
4.70201
21
-2.50685
0
LINE
8
BLACK
6
CONTINUOUS
10
4.70201
20
-2.50685
11
6.14878
21
-2.50685
0
LINE
8
BLACK
6
CONTINUOUS
10
6.14878
20
-2.50685
11
6.15146
21
-2.50764
0
LINE
8
BLACK
6
CONTINUOUS
10
6.15146
20
-2.50764
11
6.15329
21
-2.50975
0
LINE
8
BLACK
6
CONTINUOUS
10
6.15329
20
-2.50975
11
6.15374
21
-2.51181
0
LINE
8
BLACK
6
CONTINUOUS
10
6.15374
20
-2.51181
11
6.15374
21
-4.43102
0
LINE
8
BLACK
6
CONTINUOUS
10
6.15374
20
-4.43102
11
6.15295
21
-4.43371
0
LINE
8
BLACK
6
CONTINUOUS
10
6.15295
20
-4.43371
11
6.15084
21
-4.43554
0
LINE
8
BLACK
6
CONTINUOUS
10
6.15084
20
-4.43554
11
6.14878
21
-4.43598
0
LINE
8
BLACK
6
CONTINUOUS
10
6.14878
20
-4.43598
11
6.12598
21
-4.43598
0
LINE
8
BLACK
6
CONTINUOUS
10
6.12598
20
-4.43598
11
6.12598
21
-4.44118
0
LINE
8
BLACK
6
CONTINUOUS
10
6.12598
20
-4.44118
11
6.02756
21
-4.44118
0
LINE
8
BLACK
6
CONTINUOUS
10
6.02756
20
-4.44118
11
6.02756
21
-4.43598
0
LINE
8
BLACK
6
CONTINUOUS
10
6.02756
20
-4.43598
11
4.70201
21
-4.43598
0
LINE
8
BLACK
6
CONTINUOUS
10
4.70201
20
-4.43598
11
4.69933
21
-4.4352
0
LINE
8
BLACK
6
CONTINUOUS
10
4.69933
20
-4.4352
11
4.6975
21
-4.43308
0
LINE
8
BLACK
6
CONTINUOUS
10
4.6975
20
-4.43308
11
4.69705
21
-4.43102
0
LINE
8
BLACK
6
CONTINUOUS
10
4.69705
20
-4.43102
11
4.69705
21
-2.51181
0
LINE
8
BLACK
6
CONTINUOUS
10
4.69705
20
-2.51181
11
4.69783
21
-2.50913
0
LINE
8
BLACK
6
CONTINUOUS
10
5.82364
20
-3.05317
11
5.82625
21
-3.05492
0
LINE
8
BLACK
6
CONTINUOUS
10
5.82625
20
-3.05492
11
5.82673
21
-3.05501
0
LINE
8
BLACK
6
CONTINUOUS
10
5.82673
20
-3.05501
11
5.82673
21
-3.05501
0
LINE
8
BLACK
6
CONTINUOUS
10
5.82673
20
-3.05501
11
5.82831
21
-3.05533
0
LINE
8
BLACK
6
CONTINUOUS
10
5.82831
20
-3.05533
11
5.82855
21
-3.05537
0
LINE
8
BLACK
6
CONTINUOUS
10
5.82855
20
-3.05537
11
5.87735
21
-3.05537
0
LINE
8
BLACK
6
CONTINUOUS
10
5.87735
20
-3.05537
11
5.87759
21
-3.05533
0
LINE
8
BLACK
6
CONTINUOUS
10
5.87759
20
-3.05533
11
5.87918
21
-3.05501
0
LINE
8
BLACK
6
CONTINUOUS
10
5.87918
20
-3.05501
11
5.87918
21
-3.05501
0
LINE
8
BLACK
6
CONTINUOUS
10
5.87918
20
-3.05501
11
5.87965
21
-3.05492
0
LINE
8
BLACK
6
CONTINUOUS
10
5.87965
20
-3.05492
11
5.88227
21
-3.05317
0
LINE
8
BLACK
6
CONTINUOUS
10
5.88227
20
-3.05317
11
5.88401
21
-3.05056
0
LINE
8
BLACK
6
CONTINUOUS
10
5.88401
20
-3.05056
11
5.88401
21
-3.05055
0
LINE
8
BLACK
6
CONTINUOUS
10
5.88401
20
-3.05055
11
5.88556
21
-3.04864
0
LINE
8
BLACK
6
CONTINUOUS
10
5.88556
20
-3.04864
11
5.88821
21
-3.04775
0
LINE
8
BLACK
6
CONTINUOUS
10
5.88821
20
-3.04775
11
5.89092
21
-3.04844
0
LINE
8
BLACK
6
CONTINUOUS
10
5.89092
20
-3.04844
11
5.89273
21
-3.05039
0
LINE
8
BLACK
6
CONTINUOUS
10
5.89273
20
-3.05039
11
5.89276
21
-3.05056
0
LINE
8
BLACK
6
CONTINUOUS
10
5.89276
20
-3.05056
11
5.89451
21
-3.05317
0
LINE
8
BLACK
6
CONTINUOUS
10
5.89451
20
-3.05317
11
5.89712
21
-3.05492
0
LINE
8
BLACK
6
CONTINUOUS
10
5.89712
20
-3.05492
11
5.8976
21
-3.05501
0
LINE
8
BLACK
6
CONTINUOUS
10
5.8976
20
-3.05501
11
5.8976
21
-3.05501
0
LINE
8
BLACK
6
CONTINUOUS
10
5.8976
20
-3.05501
11
5.89918
21
-3.05533
0
LINE
8
BLACK
6
CONTINUOUS
10
5.89918
20
-3.05533
11
5.89942
21
-3.05537
0
LINE
8
BLACK
6
CONTINUOUS
10
5.89942
20
-3.05537
11
5.94822
21
-3.05537
0
LINE
8
BLACK
6
CONTINUOUS
10
5.94822
20
-3.05537
11
5.94846
21
-3.05533
0
LINE
8
BLACK
6
CONTINUOUS
10
5.94846
20
-3.05533
11
5.95004
21
-3.05501
0
LINE
8
BLACK
6
CONTINUOUS
10
5.95004
20
-3.05501
11
5.95004
21
-3.05501
0
LINE
8
BLACK
6
CONTINUOUS
10
5.95004
20
-3.05501
11
5.95052
21
-3.05492
0
LINE
8
BLACK
6
CONTINUOUS
10
5.95052
20
-3.05492
11
5.95313
21
-3.05317
0
LINE
8
BLACK
6
CONTINUOUS
10
5.95313
20
-3.05317
11
5.95488
21
-3.05056
0
LINE
8
BLACK
6
CONTINUOUS
10
5.95488
20
-3.05056
11
5.95533
21
-3.04826
0
LINE
8
BLACK
6
CONTINUOUS
10
5.95533
20
-3.04826
11
5.95533
21
-2.98371
0
LINE
8
BLACK
6
CONTINUOUS
10
5.95533
20
-2.98371
11
5.95488
21
-2.98141
0
LINE
8
BLACK
6
CONTINUOUS
10
5.95488
20
-2.98141
11
5.95313
21
-2.9788
0
LINE
8
BLACK
6
CONTINUOUS
10
5.95313
20
-2.9788
11
5.95052
21
-2.97705
0
LINE
8
BLACK
6
CONTINUOUS
10
5.95052
20
-2.97705
11
5.95004
21
-2.97696
0
LINE
8
BLACK
6
CONTINUOUS
10
5.95004
20
-2.97696
11
5.95004
21
-2.97696
0
LINE
8
BLACK
6
CONTINUOUS
10
5.95004
20
-2.97696
11
5.94846
21
-2.97664
0
LINE
8
BLACK
6
CONTINUOUS
10
5.94846
20
-2.97664
11
5.94822
21
-2.97659
0
LINE
8
BLACK
6
CONTINUOUS
10
5.94822
20
-2.97659
11
5.89942
21
-2.97659
0
LINE
8
BLACK
6
CONTINUOUS
10
5.89942
20
-2.97659
11
5.89918
21
-2.97664
0
LINE
8
BLACK
6
CONTINUOUS
10
5.89918
20
-2.97664
11
5.8976
21
-2.97696
0
LINE
8
BLACK
6
CONTINUOUS
10
5.8976
20
-2.97696
11
5.8976
21
-2.97696
0
LINE
8
BLACK
6
CONTINUOUS
10
5.8976
20
-2.97696
11
5.89712
21
-2.97705
0
LINE
8
BLACK
6
CONTINUOUS
10
5.89712
20
-2.97705
11
5.89451
21
-2.9788
0
LINE
8
BLACK
6
CONTINUOUS
10
5.89451
20
-2.9788
11
5.89276
21
-2.98141
0
LINE
8
BLACK
6
CONTINUOUS
10
5.89276
20
-2.98141
11
5.89276
21
-2.98142
0
LINE
8
BLACK
6
CONTINUOUS
10
5.89276
20
-2.98142
11
5.89121
21
-2.98333
0
LINE
8
BLACK
6
CONTINUOUS
10
5.89121
20
-2.98333
11
5.88856
21
-2.98421
0
LINE
8
BLACK
6
CONTINUOUS
10
5.88856
20
-2.98421
11
5.88585
21
-2.98352
0
LINE
8
BLACK
6
CONTINUOUS
10
5.88585
20
-2.98352
11
5.88404
21
-2.98158
0
LINE
8
BLACK
6
CONTINUOUS
10
5.88404
20
-2.98158
11
5.88401
21
-2.98141
0
LINE
8
BLACK
6
CONTINUOUS
10
5.88401
20
-2.98141
11
5.88227
21
-2.9788
0
LINE
8
BLACK
6
CONTINUOUS
10
5.88227
20
-2.9788
11
5.87965
21
-2.97705
0
LINE
8
BLACK
6
CONTINUOUS
10
5.87965
20
-2.97705
11
5.87918
21
-2.97696
0
LINE
8
BLACK
6
CONTINUOUS
10
5.87918
20
-2.97696
11
5.87918
21
-2.97696
0
LINE
8
BLACK
6
CONTINUOUS
10
5.87918
20
-2.97696
11
5.87759
21
-2.97664
0
LINE
8
BLACK
6
CONTINUOUS
10
5.87759
20
-2.97664
11
5.87735
21
-2.97659
0
LINE
8
BLACK
6
CONTINUOUS
10
5.87735
20
-2.97659
11
5.87368
21
-2.97659
0
LINE
8
BLACK
6
CONTINUOUS
10
5.87368
20
-2.97659
11
5.871
21
-2.97581
0
LINE
8
BLACK
6
CONTINUOUS
10
5.871
20
-2.97581
11
5.86917
21
-2.97369
0
LINE
8
BLACK
6
CONTINUOUS
10
5.86917
20
-2.97369
11
5.86872
21
-2.97163
0
LINE
8
BLACK
6
CONTINUOUS
10
5.86872
20
-2.97163
11
5.86872
21
-2.95154
0
LINE
8
BLACK
6
CONTINUOUS
10
5.86872
20
-2.95154
11
5.86951
21
-2.94885
0
LINE
8
BLACK
6
CONTINUOUS
10
5.86951
20
-2.94885
11
5.87162
21
-2.94702
0
LINE
8
BLACK
6
CONTINUOUS
10
5.87162
20
-2.94702
11
5.87368
21
-2.94657
0
LINE
8
BLACK
6
CONTINUOUS
10
5.87368
20
-2.94657
11
5.88564
21
-2.94657
0
LINE
8
BLACK
6
CONTINUOUS
10
5.88564
20
-2.94657
11
5.88588
21
-2.94653
0
LINE
8
BLACK
6
CONTINUOUS
10
5.88588
20
-2.94653
11
5.88746
21
-2.94621
0
LINE
8
BLACK
6
CONTINUOUS
10
5.88746
20
-2.94621
11
5.88746
21
-2.94621
0
LINE
8
BLACK
6
CONTINUOUS
10
5.88746
20
-2.94621
11
5.88794
21
-2.94612
0
LINE
8
BLACK
6
CONTINUOUS
10
5.88794
20
-2.94612
11
5.89055
21
-2.94437
0
LINE
8
BLACK
6
CONTINUOUS
10
5.89055
20
-2.94437
11
5.8923
21
-2.94176
0
LINE
8
BLACK
6
CONTINUOUS
10
5.8923
20
-2.94176
11
5.89276
21
-2.93946
0
LINE
8
BLACK
6
CONTINUOUS
10
5.89276
20
-2.93946
11
5.89276
21
-2.9029
0
LINE
8
BLACK
6
CONTINUOUS
10
5.89276
20
-2.9029
11
5.8923
21
-2.9006
0
LINE
8
BLACK
6
CONTINUOUS
10
5.8923
20
-2.9006
11
5.89055
21
-2.89799
0
LINE
8
BLACK
6
CONTINUOUS
10
5.89055
20
-2.89799
11
5.88794
21
-2.89625
0
LINE
8
BLACK
6
CONTINUOUS
10
5.88794
20
-2.89625
11
5.88746
21
-2.89615
0
LINE
8
BLACK
6
CONTINUOUS
10
5.88746
20
-2.89615
11
5.88746
21
-2.89615
0
LINE
8
BLACK
6
CONTINUOUS
10
5.88746
20
-2.89615
11
5.88588
21
-2.89583
0
LINE
8
BLACK
6
CONTINUOUS
10
5.88588
20
-2.89583
11
5.88564
21
-2.89579
0
LINE
8
BLACK
6
CONTINUOUS
10
5.88564
20
-2.89579
11
5.82908
21
-2.89579
0
LINE
8
BLACK
6
CONTINUOUS
10
5.82908
20
-2.89579
11
5.82885
21
-2.89583
0
LINE
8
BLACK
6
CONTINUOUS
10
5.82885
20
-2.89583
11
5.82726
21
-2.89615
0
LINE
8
BLACK
6
CONTINUOUS
10
5.82726
20
-2.89615
11
5.82726
21
-2.89615
0
LINE
8
BLACK
6
CONTINUOUS
10
5.82726
20
-2.89615
11
5.82678
21
-2.89625
0
LINE
8
BLACK
6
CONTINUOUS
10
5.82678
20
-2.89625
11
5.82417
21
-2.89799
0
LINE
8
BLACK
6
CONTINUOUS
10
5.82417
20
-2.89799
11
5.82243
21
-2.9006
0
LINE
8
BLACK
6
CONTINUOUS
10
5.82243
20
-2.9006
11
5.82197
21
-2.9029
0
LINE
8
BLACK
6
CONTINUOUS
10
5.82197
20
-2.9029
11
5.82197
21
-2.93946
0
LINE
8
BLACK
6
CONTINUOUS
10
5.82197
20
-2.93946
11
5.82243
21
-2.94176
0
LINE
8
BLACK
6
CONTINUOUS
10
5.82243
20
-2.94176
11
5.82417
21
-2.94437
0
LINE
8
BLACK
6
CONTINUOUS
10
5.82417
20
-2.94437
11
5.82678
21
-2.94612
0
LINE
8
BLACK
6
CONTINUOUS
10
5.82678
20
-2.94612
11
5.82726
21
-2.94621
0
LINE
8
BLACK
6
CONTINUOUS
10
5.82726
20
-2.94621
11
5.82726
21
-2.94621
0
LINE
8
BLACK
6
CONTINUOUS
10
5.82726
20
-2.94621
11
5.82885
21
-2.94653
0
LINE
8
BLACK
6
CONTINUOUS
10
5.82885
20
-2.94653
11
5.82908
21
-2.94657
0
LINE
8
BLACK
6
CONTINUOUS
10
5.82908
20
-2.94657
11
5.83222
21
-2.94657
0
LINE
8
BLACK
6
CONTINUOUS
10
5.83222
20
-2.94657
11
5.83491
21
-2.94736
0
LINE
8
BLACK
6
CONTINUOUS
10
5.83491
20
-2.94736
11
5.83674
21
-2.94947
0
LINE
8
BLACK
6
CONTINUOUS
10
5.83674
20
-2.94947
11
5.83719
21
-2.95154
0
LINE
8
BLACK
6
CONTINUOUS
10
5.83719
20
-2.95154
11
5.83719
21
-2.97163
0
LINE
8
BLACK
6
CONTINUOUS
10
5.83719
20
-2.97163
11
5.8364
21
-2.97432
0
LINE
8
BLACK
6
CONTINUOUS
10
5.8364
20
-2.97432
11
5.83429
21
-2.97615
0
LINE
8
BLACK
6
CONTINUOUS
10
5.83429
20
-2.97615
11
5.83222
21
-2.97659
0
LINE
8
BLACK
6
CONTINUOUS
10
5.83222
20
-2.97659
11
5.82855
21
-2.97659
0
LINE
8
BLACK
6
CONTINUOUS
10
5.82855
20
-2.97659
11
5.82831
21
-2.97664
0
LINE
8
BLACK
6
CONTINUOUS
10
5.82831
20
-2.97664
11
5.82673
21
-2.97696
0
LINE
8
BLACK
6
CONTINUOUS
10
5.82673
20
-2.97696
11
5.82673
21
-2.97696
0
LINE
8
BLACK
6
CONTINUOUS
10
5.82673
20
-2.97696
11
5.82625
21
-2.97705
0
LINE
8
BLACK
6
CONTINUOUS
10
5.82625
20
-2.97705
11
5.82364
21
-2.9788
0
LINE
8
BLACK
6
CONTINUOUS
10
5.82364
20
-2.9788
11
5.82189
21
-2.98141
0
LINE
8
BLACK
6
CONTINUOUS
10
5.82189
20
-2.98141
11
5.82144
21
-2.98371
0
LINE
8
BLACK
6
CONTINUOUS
10
5.82144
20
-2.98371
11
5.82144
21
-3.04826
0
LINE
8
BLACK
6
CONTINUOUS
10
5.82144
20
-3.04826
11
5.82189
21
-3.05056
0
LINE
8
BLACK
6
CONTINUOUS
10
5.82189
20
-3.05056
11
5.82364
21
-3.05317
0
LINE
8
BLACK
6
CONTINUOUS
10
5.13742
20
-3.05317
11
5.14003
21
-3.05492
0
LINE
8
BLACK
6
CONTINUOUS
10
5.14003
20
-3.05492
11
5.14051
21
-3.05501
0
LINE
8
BLACK
6
CONTINUOUS
10
5.14051
20
-3.05501
11
5.14051
21
-3.05501
0
LINE
8
BLACK
6
CONTINUOUS
10
5.14051
20
-3.05501
11
5.14209
21
-3.05533
0
LINE
8
BLACK
6
CONTINUOUS
10
5.14209
20
-3.05533
11
5.14233
21
-3.05537
0
LINE
8
BLACK
6
CONTINUOUS
10
5.14233
20
-3.05537
11
5.19113
21
-3.05537
0
LINE
8
BLACK
6
CONTINUOUS
10
5.19113
20
-3.05537
11
5.19137
21
-3.05533
0
LINE
8
BLACK
6
CONTINUOUS
10
5.19137
20
-3.05533
11
5.19296
21
-3.05501
0
LINE
8
BLACK
6
CONTINUOUS
10
5.19296
20
-3.05501
11
5.19296
21
-3.05501
0
LINE
8
BLACK
6
CONTINUOUS
10
5.19296
20
-3.05501
11
5.19343
21
-3.05492
0
LINE
8
BLACK
6
CONTINUOUS
10
5.19343
20
-3.05492
11
5.19605
21
-3.05317
0
LINE
8
BLACK
6
CONTINUOUS
10
5.19605
20
-3.05317
11
5.19779
21
-3.05056
0
LINE
8
BLACK
6
CONTINUOUS
10
5.19779
20
-3.05056
11
5.19825
21
-3.04826
0
LINE
8
BLACK
6
CONTINUOUS
10
5.19825
20
-3.04826
11
5.19825
21
-2.98371
0
LINE
8
BLACK
6
CONTINUOUS
10
5.19825
20
-2.98371
11
5.19779
21
-2.98141
0
LINE
8
BLACK
6
CONTINUOUS
10
5.19779
20
-2.98141
11
5.19605
21
-2.9788
0
LINE
8
BLACK
6
CONTINUOUS
10
5.19605
20
-2.9788
11
5.19343
21
-2.97705
0
LINE
8
BLACK
6
CONTINUOUS
10
5.19343
20
-2.97705
11
5.19296
21
-2.97696
0
LINE
8
BLACK
6
CONTINUOUS
10
5.19296
20
-2.97696
11
5.19296
21
-2.97696
0
LINE
8
BLACK
6
CONTINUOUS
10
5.19296
20
-2.97696
11
5.19137
21
-2.97664
0
LINE
8
BLACK
6
CONTINUOUS
10
5.19137
20
-2.97664
11
5.19113
21
-2.97659
0
LINE
8
BLACK
6
CONTINUOUS
10
5.19113
20
-2.97659
11
5.14233
21
-2.97659
0
LINE
8
BLACK
6
CONTINUOUS
10
5.14233
20
-2.97659
11
5.14209
21
-2.97664
0
LINE
8
BLACK
6
CONTINUOUS
10
5.14209
20
-2.97664
11
5.14051
21
-2.97696
0
LINE
8
BLACK
6
CONTINUOUS
10
5.14051
20
-2.97696
11
5.14051
21
-2.97696
0
LINE
8
BLACK
6
CONTINUOUS
10
5.14051
20
-2.97696
11
5.14003
21
-2.97705
0
LINE
8
BLACK
6
CONTINUOUS
10
5.14003
20
-2.97705
11
5.13742
21
-2.9788
0
LINE
8
BLACK
6
CONTINUOUS
10
5.13742
20
-2.9788
11
5.13567
21
-2.98141
0
LINE
8
BLACK
6
CONTINUOUS
10
5.13567
20
-2.98141
11
5.13522
21
-2.98371
0
LINE
8
BLACK
6
CONTINUOUS
10
5.13522
20
-2.98371
11
5.13522
21
-3.04826
0
LINE
8
BLACK
6
CONTINUOUS
10
5.13522
20
-3.04826
11
5.13567
21
-3.05056
0
LINE
8
BLACK
6
CONTINUOUS
10
5.13567
20
-3.05056
11
5.13742
21
-3.05317
0
LINE
8
BLACK
6
CONTINUOUS
10
5.32417
20
-2.94437
11
5.32678
21
-2.94612
0
LINE
8
BLACK
6
CONTINUOUS
10
5.32678
20
-2.94612
11
5.32726
21
-2.94621
0
LINE
8
BLACK
6
CONTINUOUS
10
5.32726
20
-2.94621
11
5.32726
21
-2.94621
0
LINE
8
BLACK
6
CONTINUOUS
10
5.32726
20
-2.94621
11
5.32885
21
-2.94653
0
LINE
8
BLACK
6
CONTINUOUS
10
5.32885
20
-2.94653
11
5.32908
21
-2.94657
0
LINE
8
BLACK
6
CONTINUOUS
10
5.32908
20
-2.94657
11
5.34285
21
-2.94657
0
LINE
8
BLACK
6
CONTINUOUS
10
5.34285
20
-2.94657
11
5.34554
21
-2.94736
0
LINE
8
BLACK
6
CONTINUOUS
10
5.34554
20
-2.94736
11
5.34737
21
-2.94947
0
LINE
8
BLACK
6
CONTINUOUS
10
5.34737
20
-2.94947
11
5.34781
21
-2.95154
0
LINE
8
BLACK
6
CONTINUOUS
10
5.34781
20
-2.95154
11
5.34781
21
-2.97163
0
LINE
8
BLACK
6
CONTINUOUS
10
5.34781
20
-2.97163
11
5.34703
21
-2.97432
0
LINE
8
BLACK
6
CONTINUOUS
10
5.34703
20
-2.97432
11
5.34492
21
-2.97615
0
LINE
8
BLACK
6
CONTINUOUS
10
5.34492
20
-2.97615
11
5.34285
21
-2.97659
0
LINE
8
BLACK
6
CONTINUOUS
10
5.34285
20
-2.97659
11
5.33918
21
-2.97659
0
LINE
8
BLACK
6
CONTINUOUS
10
5.33918
20
-2.97659
11
5.33894
21
-2.97664
0
LINE
8
BLACK
6
CONTINUOUS
10
5.33894
20
-2.97664
11
5.33736
21
-2.97696
0
LINE
8
BLACK
6
CONTINUOUS
10
5.33736
20
-2.97696
11
5.33736
21
-2.97696
0
LINE
8
BLACK
6
CONTINUOUS
10
5.33736
20
-2.97696
11
5.33688
21
-2.97705
0
LINE
8
BLACK
6
CONTINUOUS
10
5.33688
20
-2.97705
11
5.33427
21
-2.9788
0
LINE
8
BLACK
6
CONTINUOUS
10
5.33427
20
-2.9788
11
5.33252
21
-2.98141
0
LINE
8
BLACK
6
CONTINUOUS
10
5.33252
20
-2.98141
11
5.33207
21
-2.98371
0
LINE
8
BLACK
6
CONTINUOUS
10
5.33207
20
-2.98371
11
5.33207
21
-3.04826
0
LINE
8
BLACK
6
CONTINUOUS
10
5.33207
20
-3.04826
11
5.33252
21
-3.05056
0
LINE
8
BLACK
6
CONTINUOUS
10
5.33252
20
-3.05056
11
5.33427
21
-3.05317
0
LINE
8
BLACK
6
CONTINUOUS
10
5.33427
20
-3.05317
11
5.33688
21
-3.05492
0
LINE
8
BLACK
6
CONTINUOUS
10
5.33688
20
-3.05492
11
5.33736
21
-3.05501
0
LINE
8
BLACK
6
CONTINUOUS
10
5.33736
20
-3.05501
11
5.33736
21
-3.05501
0
LINE
8
BLACK
6
CONTINUOUS
10
5.33736
20
-3.05501
11
5.33894
21
-3.05533
0
LINE
8
BLACK
6
CONTINUOUS
10
5.33894
20
-3.05533
11
5.33918
21
-3.05537
0
LINE
8
BLACK
6
CONTINUOUS
10
5.33918
20
-3.05537
11
5.38798
21
-3.05537
0
LINE
8
BLACK
6
CONTINUOUS
10
5.38798
20
-3.05537
11
5.38822
21
-3.05533
0
LINE
8
BLACK
6
CONTINUOUS
10
5.38822
20
-3.05533
11
5.38981
21
-3.05501
0
LINE
8
BLACK
6
CONTINUOUS
10
5.38981
20
-3.05501
11
5.38981
21
-3.05501
0
LINE
8
BLACK
6
CONTINUOUS
10
5.38981
20
-3.05501
11
5.39028
21
-3.05492
0
LINE
8
BLACK
6
CONTINUOUS
10
5.39028
20
-3.05492
11
5.3929
21
-3.05317
0
LINE
8
BLACK
6
CONTINUOUS
10
5.3929
20
-3.05317
11
5.39464
21
-3.05056
0
LINE
8
BLACK
6
CONTINUOUS
10
5.39464
20
-3.05056
11
5.3951
21
-3.04826
0
LINE
8
BLACK
6
CONTINUOUS
10
5.3951
20
-3.04826
11
5.3951
21
-2.98371
0
LINE
8
BLACK
6
CONTINUOUS
10
5.3951
20
-2.98371
11
5.39464
21
-2.98141
0
LINE
8
BLACK
6
CONTINUOUS
10
5.39464
20
-2.98141
11
5.3929
21
-2.9788
0
LINE
8
BLACK
6
CONTINUOUS
10
5.3929
20
-2.9788
11
5.39028
21
-2.97705
0
LINE
8
BLACK
6
CONTINUOUS
10
5.39028
20
-2.97705
11
5.38981
21
-2.97696
0
LINE
8
BLACK
6
CONTINUOUS
10
5.38981
20
-2.97696
11
5.38981
21
-2.97696
0
LINE
8
BLACK
6
CONTINUOUS
10
5.38981
20
-2.97696
11
5.38822
21
-2.97664
0
LINE
8
BLACK
6
CONTINUOUS
10
5.38822
20
-2.97664
11
5.38798
21
-2.97659
0
LINE
8
BLACK
6
CONTINUOUS
10
5.38798
20
-2.97659
11
5.38431
21
-2.97659
0
LINE
8
BLACK
6
CONTINUOUS
10
5.38431
20
-2.97659
11
5.38163
21
-2.97581
0
LINE
8
BLACK
6
CONTINUOUS
10
5.38163
20
-2.97581
11
5.3798
21
-2.97369
0
LINE
8
BLACK
6
CONTINUOUS
10
5.3798
20
-2.97369
11
5.37935
21
-2.97163
0
LINE
8
BLACK
6
CONTINUOUS
10
5.37935
20
-2.97163
11
5.37935
21
-2.95154
0
LINE
8
BLACK
6
CONTINUOUS
10
5.37935
20
-2.95154
11
5.38014
21
-2.94885
0
LINE
8
BLACK
6
CONTINUOUS
10
5.38014
20
-2.94885
11
5.38225
21
-2.94702
0
LINE
8
BLACK
6
CONTINUOUS
10
5.38225
20
-2.94702
11
5.38431
21
-2.94657
0
LINE
8
BLACK
6
CONTINUOUS
10
5.38431
20
-2.94657
11
5.38564
21
-2.94657
0
LINE
8
BLACK
6
CONTINUOUS
10
5.38564
20
-2.94657
11
5.38588
21
-2.94653
0
LINE
8
BLACK
6
CONTINUOUS
10
5.38588
20
-2.94653
11
5.38746
21
-2.94621
0
LINE
8
BLACK
6
CONTINUOUS
10
5.38746
20
-2.94621
11
5.38746
21
-2.94621
0
LINE
8
BLACK
6
CONTINUOUS
10
5.38746
20
-2.94621
11
5.38794
21
-2.94612
0
LINE
8
BLACK
6
CONTINUOUS
10
5.38794
20
-2.94612
11
5.39055
21
-2.94437
0
LINE
8
BLACK
6
CONTINUOUS
10
5.39055
20
-2.94437
11
5.3923
21
-2.94176
0
LINE
8
BLACK
6
CONTINUOUS
10
5.3923
20
-2.94176
11
5.39276
21
-2.93946
0
LINE
8
BLACK
6
CONTINUOUS
10
5.39276
20
-2.93946
11
5.39276
21
-2.9029
0
LINE
8
BLACK
6
CONTINUOUS
10
5.39276
20
-2.9029
11
5.3923
21
-2.9006
0
LINE
8
BLACK
6
CONTINUOUS
10
5.3923
20
-2.9006
11
5.39055
21
-2.89799
0
LINE
8
BLACK
6
CONTINUOUS
10
5.39055
20
-2.89799
11
5.38794
21
-2.89625
0
LINE
8
BLACK
6
CONTINUOUS
10
5.38794
20
-2.89625
11
5.38746
21
-2.89615
0
LINE
8
BLACK
6
CONTINUOUS
10
5.38746
20
-2.89615
11
5.38746
21
-2.89615
0
LINE
8
BLACK
6
CONTINUOUS
10
5.38746
20
-2.89615
11
5.38588
21
-2.89583
0
LINE
8
BLACK
6
CONTINUOUS
10
5.38588
20
-2.89583
11
5.38564
21
-2.89579
0
LINE
8
BLACK
6
CONTINUOUS
10
5.38564
20
-2.89579
11
5.32908
21
-2.89579
0
LINE
8
BLACK
6
CONTINUOUS
10
5.32908
20
-2.89579
11
5.32885
21
-2.89583
0
LINE
8
BLACK
6
CONTINUOUS
10
5.32885
20
-2.89583
11
5.32726
21
-2.89615
0
LINE
8
BLACK
6
CONTINUOUS
10
5.32726
20
-2.89615
11
5.32726
21
-2.89615
0
LINE
8
BLACK
6
CONTINUOUS
10
5.32726
20
-2.89615
11
5.32678
21
-2.89625
0
LINE
8
BLACK
6
CONTINUOUS
10
5.32678
20
-2.89625
11
5.32417
21
-2.89799
0
LINE
8
BLACK
6
CONTINUOUS
10
5.32417
20
-2.89799
11
5.32243
21
-2.9006
0
LINE
8
BLACK
6
CONTINUOUS
10
5.32243
20
-2.9006
11
5.32197
21
-2.9029
0
LINE
8
BLACK
6
CONTINUOUS
10
5.32197
20
-2.9029
11
5.32197
21
-2.93946
0
LINE
8
BLACK
6
CONTINUOUS
10
5.32197
20
-2.93946
11
5.32243
21
-2.94176
0
LINE
8
BLACK
6
CONTINUOUS
10
5.32243
20
-2.94176
11
5.32417
21
-2.94437
0
LINE
8
BLACK
6
CONTINUOUS
10
5.2923
20
-2.9006
11
5.29055
21
-2.89799
0
LINE
8
BLACK
6
CONTINUOUS
10
5.29055
20
-2.89799
11
5.28794
21
-2.89625
0
LINE
8
BLACK
6
CONTINUOUS
10
5.28794
20
-2.89625
11
5.28746
21
-2.89615
0
LINE
8
BLACK
6
CONTINUOUS
10
5.28746
20
-2.89615
11
5.28746
21
-2.89615
0
LINE
8
BLACK
6
CONTINUOUS
10
5.28746
20
-2.89615
11
5.28588
21
-2.89583
0
LINE
8
BLACK
6
CONTINUOUS
10
5.28588
20
-2.89583
11
5.28564
21
-2.89579
0
LINE
8
BLACK
6
CONTINUOUS
10
5.28564
20
-2.89579
11
5.22908
21
-2.89579
0
LINE
8
BLACK
6
CONTINUOUS
10
5.22908
20
-2.89579
11
5.22885
21
-2.89583
0
LINE
8
BLACK
6
CONTINUOUS
10
5.22885
20
-2.89583
11
5.22726
21
-2.89615
0
LINE
8
BLACK
6
CONTINUOUS
10
5.22726
20
-2.89615
11
5.22726
21
-2.89615
0
LINE
8
BLACK
6
CONTINUOUS
10
5.22726
20
-2.89615
11
5.22678
21
-2.89625
0
LINE
8
BLACK
6
CONTINUOUS
10
5.22678
20
-2.89625
11
5.22417
21
-2.89799
0
LINE
8
BLACK
6
CONTINUOUS
10
5.22417
20
-2.89799
11
5.22243
21
-2.9006
0
LINE
8
BLACK
6
CONTINUOUS
10
5.22243
20
-2.9006
11
5.22197
21
-2.9029
0
LINE
8
BLACK
6
CONTINUOUS
10
5.22197
20
-2.9029
11
5.22197
21
-2.93946
0
LINE
8
BLACK
6
CONTINUOUS
10
5.22197
20
-2.93946
11
5.22243
21
-2.94176
0
LINE
8
BLACK
6
CONTINUOUS
10
5.22243
20
-2.94176
11
5.22417
21
-2.94437
0
LINE
8
BLACK
6
CONTINUOUS
10
5.22417
20
-2.94437
11
5.22678
21
-2.94612
0
LINE
8
BLACK
6
CONTINUOUS
10
5.22678
20
-2.94612
11
5.22726
21
-2.94621
0
LINE
8
BLACK
6
CONTINUOUS
10
5.22726
20
-2.94621
11
5.22726
21
-2.94621
0
LINE
8
BLACK
6
CONTINUOUS
10
5.22726
20
-2.94621
11
5.22885
21
-2.94653
0
LINE
8
BLACK
6
CONTINUOUS
10
5.22885
20
-2.94653
11
5.22908
21
-2.94657
0
LINE
8
BLACK
6
CONTINUOUS
10
5.22908
20
-2.94657
11
5.24443
21
-2.94657
0
LINE
8
BLACK
6
CONTINUOUS
10
5.24443
20
-2.94657
11
5.24711
21
-2.94736
0
LINE
8
BLACK
6
CONTINUOUS
10
5.24711
20
-2.94736
11
5.24894
21
-2.94947
0
LINE
8
BLACK
6
CONTINUOUS
10
5.24894
20
-2.94947
11
5.24939
21
-2.95154
0
LINE
8
BLACK
6
CONTINUOUS
10
5.24939
20
-2.95154
11
5.24939
21
-2.97163
0
LINE
8
BLACK
6
CONTINUOUS
10
5.24939
20
-2.97163
11
5.2486
21
-2.97432
0
LINE
8
BLACK
6
CONTINUOUS
10
5.2486
20
-2.97432
11
5.24649
21
-2.97615
0
LINE
8
BLACK
6
CONTINUOUS
10
5.24649
20
-2.97615
11
5.24443
21
-2.97659
0
LINE
8
BLACK
6
CONTINUOUS
10
5.24443
20
-2.97659
11
5.24076
21
-2.97659
0
LINE
8
BLACK
6
CONTINUOUS
10
5.24076
20
-2.97659
11
5.24052
21
-2.97664
0
LINE
8
BLACK
6
CONTINUOUS
10
5.24052
20
-2.97664
11
5.23893
21
-2.97696
0
LINE
8
BLACK
6
CONTINUOUS
10
5.23893
20
-2.97696
11
5.23893
21
-2.97696
0
LINE
8
BLACK
6
CONTINUOUS
10
5.23893
20
-2.97696
11
5.23846
21
-2.97705
0
LINE
8
BLACK
6
CONTINUOUS
10
5.23846
20
-2.97705
11
5.23584
21
-2.9788
0
LINE
8
BLACK
6
CONTINUOUS
10
5.23584
20
-2.9788
11
5.2341
21
-2.98141
0
LINE
8
BLACK
6
CONTINUOUS
10
5.2341
20
-2.98141
11
5.23364
21
-2.98371
0
LINE
8
BLACK
6
CONTINUOUS
10
5.23364
20
-2.98371
11
5.23364
21
-3.04826
0
LINE
8
BLACK
6
CONTINUOUS
10
5.23364
20
-3.04826
11
5.2341
21
-3.05056
0
LINE
8
BLACK
6
CONTINUOUS
10
5.2341
20
-3.05056
11
5.23584
21
-3.05317
0
LINE
8
BLACK
6
CONTINUOUS
10
5.23584
20
-3.05317
11
5.23846
21
-3.05492
0
LINE
8
BLACK
6
CONTINUOUS
10
5.23846
20
-3.05492
11
5.23893
21
-3.05501
0
LINE
8
BLACK
6
CONTINUOUS
10
5.23893
20
-3.05501
11
5.23893
21
-3.05501
0
LINE
8
BLACK
6
CONTINUOUS
10
5.23893
20
-3.05501
11
5.24052
21
-3.05533
0
LINE
8
BLACK
6
CONTINUOUS
10
5.24052
20
-3.05533
11
5.24076
21
-3.05537
0
LINE
8
BLACK
6
CONTINUOUS
10
5.24076
20
-3.05537
11
5.28956
21
-3.05537
0
LINE
8
BLACK
6
CONTINUOUS
10
5.28956
20
-3.05537
11
5.2898
21
-3.05533
0
LINE
8
BLACK
6
CONTINUOUS
10
5.2898
20
-3.05533
11
5.29138
21
-3.05501
0
LINE
8
BLACK
6
CONTINUOUS
10
5.29138
20
-3.05501
11
5.29138
21
-3.05501
0
LINE
8
BLACK
6
CONTINUOUS
10
5.29138
20
-3.05501
11
5.29186
21
-3.05492
0
LINE
8
BLACK
6
CONTINUOUS
10
5.29186
20
-3.05492
11
5.29447
21
-3.05317
0
LINE
8
BLACK
6
CONTINUOUS
10
5.29447
20
-3.05317
11
5.29622
21
-3.05056
0
LINE
8
BLACK
6
CONTINUOUS
10
5.29622
20
-3.05056
11
5.29667
21
-3.04826
0
LINE
8
BLACK
6
CONTINUOUS
10
5.29667
20
-3.04826
11
5.29667
21
-2.98371
0
LINE
8
BLACK
6
CONTINUOUS
10
5.29667
20
-2.98371
11
5.29622
21
-2.98141
0
LINE
8
BLACK
6
CONTINUOUS
10
5.29622
20
-2.98141
11
5.29447
21
-2.9788
0
LINE
8
BLACK
6
CONTINUOUS
10
5.29447
20
-2.9788
11
5.29186
21
-2.97705
0
LINE
8
BLACK
6
CONTINUOUS
10
5.29186
20
-2.97705
11
5.29138
21
-2.97696
0
LINE
8
BLACK
6
CONTINUOUS
10
5.29138
20
-2.97696
11
5.29138
21
-2.97696
0
LINE
8
BLACK
6
CONTINUOUS
10
5.29138
20
-2.97696
11
5.2898
21
-2.97664
0
LINE
8
BLACK
6
CONTINUOUS
10
5.2898
20
-2.97664
11
5.28956
21
-2.97659
0
LINE
8
BLACK
6
CONTINUOUS
10
5.28956
20
-2.97659
11
5.28589
21
-2.97659
0
LINE
8
BLACK
6
CONTINUOUS
10
5.28589
20
-2.97659
11
5.2832
21
-2.97581
0
LINE
8
BLACK
6
CONTINUOUS
10
5.2832
20
-2.97581
11
5.28137
21
-2.97369
0
LINE
8
BLACK
6
CONTINUOUS
10
5.28137
20
-2.97369
11
5.28093
21
-2.97163
0
LINE
8
BLACK
6
CONTINUOUS
10
5.28093
20
-2.97163
11
5.28093
21
-2.95151
0
LINE
8
BLACK
6
CONTINUOUS
10
5.28093
20
-2.95151
11
5.28171
21
-2.94883
0
LINE
8
BLACK
6
CONTINUOUS
10
5.28171
20
-2.94883
11
5.28383
21
-2.947
0
LINE
8
BLACK
6
CONTINUOUS
10
5.28383
20
-2.947
11
5.2854
21
-2.94657
0
LINE
8
BLACK
6
CONTINUOUS
10
5.2854
20
-2.94657
11
5.28564
21
-2.94657
0
LINE
8
BLACK
6
CONTINUOUS
10
5.28564
20
-2.94657
11
5.2866
21
-2.94638
0
LINE
8
BLACK
6
CONTINUOUS
10
5.2866
20
-2.94638
11
5.28746
21
-2.94621
0
LINE
8
BLACK
6
CONTINUOUS
10
5.28746
20
-2.94621
11
5.28746
21
-2.94621
0
LINE
8
BLACK
6
CONTINUOUS
10
5.28746
20
-2.94621
11
5.28794
21
-2.94612
0
LINE
8
BLACK
6
CONTINUOUS
10
5.28794
20
-2.94612
11
5.29055
21
-2.94437
0
LINE
8
BLACK
6
CONTINUOUS
10
5.29055
20
-2.94437
11
5.2923
21
-2.94176
0
LINE
8
BLACK
6
CONTINUOUS
10
5.2923
20
-2.94176
11
5.29276
21
-2.93946
0
LINE
8
BLACK
6
CONTINUOUS
10
5.29276
20
-2.93946
11
5.29276
21
-2.9029
0
LINE
8
BLACK
6
CONTINUOUS
10
5.29276
20
-2.9029
11
5.2923
21
-2.9006
0
LINE
8
BLACK
6
CONTINUOUS
10
5.68992
20
-2.98141
11
5.68817
21
-2.9788
0
LINE
8
BLACK
6
CONTINUOUS
10
5.68817
20
-2.9788
11
5.68556
21
-2.97705
0
LINE
8
BLACK
6
CONTINUOUS
10
5.68556
20
-2.97705
11
5.68508
21
-2.97696
0
LINE
8
BLACK
6
CONTINUOUS
10
5.68508
20
-2.97696
11
5.68508
21
-2.97696
0
LINE
8
BLACK
6
CONTINUOUS
10
5.68508
20
-2.97696
11
5.6835
21
-2.97664
0
LINE
8
BLACK
6
CONTINUOUS
10
5.6835
20
-2.97664
11
5.68326
21
-2.97659
0
LINE
8
BLACK
6
CONTINUOUS
10
5.68326
20
-2.97659
11
5.67959
21
-2.97659
0
LINE
8
BLACK
6
CONTINUOUS
10
5.67959
20
-2.97659
11
5.6769
21
-2.97581
0
LINE
8
BLACK
6
CONTINUOUS
10
5.6769
20
-2.97581
11
5.67507
21
-2.97369
0
LINE
8
BLACK
6
CONTINUOUS
10
5.67507
20
-2.97369
11
5.67463
21
-2.97163
0
LINE
8
BLACK
6
CONTINUOUS
10
5.67463
20
-2.97163
11
5.67463
21
-2.95154
0
LINE
8
BLACK
6
CONTINUOUS
10
5.67463
20
-2.95154
11
5.67541
21
-2.94885
0
LINE
8
BLACK
6
CONTINUOUS
10
5.67541
20
-2.94885
11
5.67753
21
-2.94702
0
LINE
8
BLACK
6
CONTINUOUS
10
5.67753
20
-2.94702
11
5.67959
21
-2.94657
0
LINE
8
BLACK
6
CONTINUOUS
10
5.67959
20
-2.94657
11
5.68564
21
-2.94657
0
LINE
8
BLACK
6
CONTINUOUS
10
5.68564
20
-2.94657
11
5.68588
21
-2.94653
0
LINE
8
BLACK
6
CONTINUOUS
10
5.68588
20
-2.94653
11
5.68746
21
-2.94621
0
LINE
8
BLACK
6
CONTINUOUS
10
5.68746
20
-2.94621
11
5.68746
21
-2.94621
0
LINE
8
BLACK
6
CONTINUOUS
10
5.68746
20
-2.94621
11
5.68794
21
-2.94612
0
LINE
8
BLACK
6
CONTINUOUS
10
5.68794
20
-2.94612
11
5.69055
21
-2.94437
0
LINE
8
BLACK
6
CONTINUOUS
10
5.69055
20
-2.94437
11
5.6923
21
-2.94176
0
LINE
8
BLACK
6
CONTINUOUS
10
5.6923
20
-2.94176
11
5.69276
21
-2.93946
0
LINE
8
BLACK
6
CONTINUOUS
10
5.69276
20
-2.93946
11
5.69276
21
-2.9029
0
LINE
8
BLACK
6
CONTINUOUS
10
5.69276
20
-2.9029
11
5.6923
21
-2.9006
0
LINE
8
BLACK
6
CONTINUOUS
10
5.6923
20
-2.9006
11
5.69055
21
-2.89799
0
LINE
8
BLACK
6
CONTINUOUS
10
5.69055
20
-2.89799
11
5.68794
21
-2.89625
0
LINE
8
BLACK
6
CONTINUOUS
10
5.68794
20
-2.89625
11
5.68746
21
-2.89615
0
LINE
8
BLACK
6
CONTINUOUS
10
5.68746
20
-2.89615
11
5.68746
21
-2.89615
0
LINE
8
BLACK
6
CONTINUOUS
10
5.68746
20
-2.89615
11
5.68588
21
-2.89583
0
LINE
8
BLACK
6
CONTINUOUS
10
5.68588
20
-2.89583
11
5.68564
21
-2.89579
0
LINE
8
BLACK
6
CONTINUOUS
10
5.68564
20
-2.89579
11
5.62908
21
-2.89579
0
LINE
8
BLACK
6
CONTINUOUS
10
5.62908
20
-2.89579
11
5.62885
21
-2.89583
0
LINE
8
BLACK
6
CONTINUOUS
10
5.62885
20
-2.89583
11
5.62726
21
-2.89615
0
LINE
8
BLACK
6
CONTINUOUS
10
5.62726
20
-2.89615
11
5.62726
21
-2.89615
0
LINE
8
BLACK
6
CONTINUOUS
10
5.62726
20
-2.89615
11
5.62678
21
-2.89625
0
LINE
8
BLACK
6
CONTINUOUS
10
5.62678
20
-2.89625
11
5.62417
21
-2.89799
0
LINE
8
BLACK
6
CONTINUOUS
10
5.62417
20
-2.89799
11
5.62243
21
-2.9006
0
LINE
8
BLACK
6
CONTINUOUS
10
5.62243
20
-2.9006
11
5.62197
21
-2.9029
0
LINE
8
BLACK
6
CONTINUOUS
10
5.62197
20
-2.9029
11
5.62197
21
-2.93946
0
LINE
8
BLACK
6
CONTINUOUS
10
5.62197
20
-2.93946
11
5.62243
21
-2.94176
0
LINE
8
BLACK
6
CONTINUOUS
10
5.62243
20
-2.94176
11
5.62417
21
-2.94437
0
LINE
8
BLACK
6
CONTINUOUS
10
5.62417
20
-2.94437
11
5.62678
21
-2.94612
0
LINE
8
BLACK
6
CONTINUOUS
10
5.62678
20
-2.94612
11
5.62726
21
-2.94621
0
LINE
8
BLACK
6
CONTINUOUS
10
5.62726
20
-2.94621
11
5.62726
21
-2.94621
0
LINE
8
BLACK
6
CONTINUOUS
10
5.62726
20
-2.94621
11
5.62885
21
-2.94653
0
LINE
8
BLACK
6
CONTINUOUS
10
5.62885
20
-2.94653
11
5.62908
21
-2.94657
0
LINE
8
BLACK
6
CONTINUOUS
10
5.62908
20
-2.94657
11
5.63813
21
-2.94657
0
LINE
8
BLACK
6
CONTINUOUS
10
5.63813
20
-2.94657
11
5.64081
21
-2.94736
0
LINE
8
BLACK
6
CONTINUOUS
10
5.64081
20
-2.94736
11
5.64264
21
-2.94947
0
LINE
8
BLACK
6
CONTINUOUS
10
5.64264
20
-2.94947
11
5.64309
21
-2.95154
0
LINE
8
BLACK
6
CONTINUOUS
10
5.64309
20
-2.95154
11
5.64309
21
-2.97163
0
LINE
8
BLACK
6
CONTINUOUS
10
5.64309
20
-2.97163
11
5.6423
21
-2.97432
0
LINE
8
BLACK
6
CONTINUOUS
10
5.6423
20
-2.97432
11
5.64019
21
-2.97615
0
LINE
8
BLACK
6
CONTINUOUS
10
5.64019
20
-2.97615
11
5.63813
21
-2.97659
0
LINE
8
BLACK
6
CONTINUOUS
10
5.63813
20
-2.97659
11
5.63446
21
-2.97659
0
LINE
8
BLACK
6
CONTINUOUS
10
5.63446
20
-2.97659
11
5.63422
21
-2.97664
0
LINE
8
BLACK
6
CONTINUOUS
10
5.63422
20
-2.97664
11
5.63264
21
-2.97696
0
LINE
8
BLACK
6
CONTINUOUS
10
5.63264
20
-2.97696
11
5.63264
21
-2.97696
0
LINE
8
BLACK
6
CONTINUOUS
10
5.63264
20
-2.97696
11
5.63216
21
-2.97705
0
LINE
8
BLACK
6
CONTINUOUS
10
5.63216
20
-2.97705
11
5.62955
21
-2.9788
0
LINE
8
BLACK
6
CONTINUOUS
10
5.62955
20
-2.9788
11
5.6278
21
-2.98141
0
LINE
8
BLACK
6
CONTINUOUS
10
5.6278
20
-2.98141
11
5.62734
21
-2.98371
0
LINE
8
BLACK
6
CONTINUOUS
10
5.62734
20
-2.98371
11
5.62734
21
-3.04826
0
LINE
8
BLACK
6
CONTINUOUS
10
5.62734
20
-3.04826
11
5.6278
21
-3.05056
0
LINE
8
BLACK
6
CONTINUOUS
10
5.6278
20
-3.05056
11
5.62955
21
-3.05317
0
LINE
8
BLACK
6
CONTINUOUS
10
5.62955
20
-3.05317
11
5.63216
21
-3.05492
0
LINE
8
BLACK
6
CONTINUOUS
10
5.63216
20
-3.05492
11
5.63264
21
-3.05501
0
LINE
8
BLACK
6
CONTINUOUS
10
5.63264
20
-3.05501
11
5.63264
21
-3.05501
0
LINE
8
BLACK
6
CONTINUOUS
10
5.63264
20
-3.05501
11
5.63422
21
-3.05533
0
LINE
8
BLACK
6
CONTINUOUS
10
5.63422
20
-3.05533
11
5.63446
21
-3.05537
0
LINE
8
BLACK
6
CONTINUOUS
10
5.63446
20
-3.05537
11
5.68326
21
-3.05537
0
LINE
8
BLACK
6
CONTINUOUS
10
5.68326
20
-3.05537
11
5.6835
21
-3.05533
0
LINE
8
BLACK
6
CONTINUOUS
10
5.6835
20
-3.05533
11
5.68508
21
-3.05501
0
LINE
8
BLACK
6
CONTINUOUS
10
5.68508
20
-3.05501
11
5.68508
21
-3.05501
0
LINE
8
BLACK
6
CONTINUOUS
10
5.68508
20
-3.05501
11
5.68556
21
-3.05492
0
LINE
8
BLACK
6
CONTINUOUS
10
5.68556
20
-3.05492
11
5.68817
21
-3.05317
0
LINE
8
BLACK
6
CONTINUOUS
10
5.68817
20
-3.05317
11
5.68992
21
-3.05056
0
LINE
8
BLACK
6
CONTINUOUS
10
5.68992
20
-3.05056
11
5.69037
21
-3.04826
0
LINE
8
BLACK
6
CONTINUOUS
10
5.69037
20
-3.04826
11
5.69037
21
-2.98371
0
LINE
8
BLACK
6
CONTINUOUS
10
5.69037
20
-2.98371
11
5.68992
21
-2.98141
0
LINE
8
BLACK
6
CONTINUOUS
10
5.83167
20
-2.65687
11
5.83428
21
-2.65862
0
LINE
8
BLACK
6
CONTINUOUS
10
5.83428
20
-2.65862
11
5.83476
21
-2.65871
0
LINE
8
BLACK
6
CONTINUOUS
10
5.83476
20
-2.65871
11
5.83476
21
-2.65871
0
LINE
8
BLACK
6
CONTINUOUS
10
5.83476
20
-2.65871
11
5.83635
21
-2.65903
0
LINE
8
BLACK
6
CONTINUOUS
10
5.83635
20
-2.65903
11
5.83658
21
-2.65907
0
LINE
8
BLACK
6
CONTINUOUS
10
5.83658
20
-2.65907
11
5.89814
21
-2.65907
0
LINE
8
BLACK
6
CONTINUOUS
10
5.89814
20
-2.65907
11
5.89838
21
-2.65903
0
LINE
8
BLACK
6
CONTINUOUS
10
5.89838
20
-2.65903
11
5.89996
21
-2.65871
0
LINE
8
BLACK
6
CONTINUOUS
10
5.89996
20
-2.65871
11
5.89996
21
-2.65871
0
LINE
8
BLACK
6
CONTINUOUS
10
5.89996
20
-2.65871
11
5.90044
21
-2.65862
0
LINE
8
BLACK
6
CONTINUOUS
10
5.90044
20
-2.65862
11
5.90305
21
-2.65687
0
LINE
8
BLACK
6
CONTINUOUS
10
5.90305
20
-2.65687
11
5.9048
21
-2.65426
0
LINE
8
BLACK
6
CONTINUOUS
10
5.9048
20
-2.65426
11
5.90526
21
-2.65196
0
LINE
8
BLACK
6
CONTINUOUS
10
5.90526
20
-2.65196
11
5.90526
21
-2.5904
0
LINE
8
BLACK
6
CONTINUOUS
10
5.90526
20
-2.5904
11
5.9048
21
-2.5881
0
LINE
8
BLACK
6
CONTINUOUS
10
5.9048
20
-2.5881
11
5.90305
21
-2.58549
0
LINE
8
BLACK
6
CONTINUOUS
10
5.90305
20
-2.58549
11
5.90044
21
-2.58375
0
LINE
8
BLACK
6
CONTINUOUS
10
5.90044
20
-2.58375
11
5.89996
21
-2.58365
0
LINE
8
BLACK
6
CONTINUOUS
10
5.89996
20
-2.58365
11
5.89996
21
-2.58365
0
LINE
8
BLACK
6
CONTINUOUS
10
5.89996
20
-2.58365
11
5.89838
21
-2.58333
0
LINE
8
BLACK
6
CONTINUOUS
10
5.89838
20
-2.58333
11
5.89814
21
-2.58329
0
LINE
8
BLACK
6
CONTINUOUS
10
5.89814
20
-2.58329
11
5.83658
21
-2.58329
0
LINE
8
BLACK
6
CONTINUOUS
10
5.83658
20
-2.58329
11
5.83635
21
-2.58333
0
LINE
8
BLACK
6
CONTINUOUS
10
5.83635
20
-2.58333
11
5.83476
21
-2.58365
0
LINE
8
BLACK
6
CONTINUOUS
10
5.83476
20
-2.58365
11
5.83476
21
-2.58365
0
LINE
8
BLACK
6
CONTINUOUS
10
5.83476
20
-2.58365
11
5.83428
21
-2.58375
0
LINE
8
BLACK
6
CONTINUOUS
10
5.83428
20
-2.58375
11
5.83167
21
-2.58549
0
LINE
8
BLACK
6
CONTINUOUS
10
5.83167
20
-2.58549
11
5.82993
21
-2.5881
0
LINE
8
BLACK
6
CONTINUOUS
10
5.82993
20
-2.5881
11
5.82947
21
-2.5904
0
LINE
8
BLACK
6
CONTINUOUS
10
5.82947
20
-2.5904
11
5.82947
21
-2.65196
0
LINE
8
BLACK
6
CONTINUOUS
10
5.82947
20
-2.65196
11
5.82993
21
-2.65426
0
LINE
8
BLACK
6
CONTINUOUS
10
5.82993
20
-2.65426
11
5.83167
21
-2.65687
0
LINE
8
BLACK
6
CONTINUOUS
10
5.22232
20
-2.86625
11
5.22243
21
-2.86676
0
LINE
8
BLACK
6
CONTINUOUS
10
5.22243
20
-2.86676
11
5.22417
21
-2.86937
0
LINE
8
BLACK
6
CONTINUOUS
10
5.22417
20
-2.86937
11
5.22678
21
-2.87112
0
LINE
8
BLACK
6
CONTINUOUS
10
5.22678
20
-2.87112
11
5.22726
21
-2.87121
0
LINE
8
BLACK
6
CONTINUOUS
10
5.22726
20
-2.87121
11
5.22726
21
-2.87121
0
LINE
8
BLACK
6
CONTINUOUS
10
5.22726
20
-2.87121
11
5.22885
21
-2.87153
0
LINE
8
BLACK
6
CONTINUOUS
10
5.22885
20
-2.87153
11
5.22908
21
-2.87157
0
LINE
8
BLACK
6
CONTINUOUS
10
5.22908
20
-2.87157
11
5.28564
21
-2.87157
0
LINE
8
BLACK
6
CONTINUOUS
10
5.28564
20
-2.87157
11
5.28588
21
-2.87153
0
LINE
8
BLACK
6
CONTINUOUS
10
5.28588
20
-2.87153
11
5.28746
21
-2.87121
0
LINE
8
BLACK
6
CONTINUOUS
10
5.28746
20
-2.87121
11
5.28746
21
-2.87121
0
LINE
8
BLACK
6
CONTINUOUS
10
5.28746
20
-2.87121
11
5.28794
21
-2.87112
0
LINE
8
BLACK
6
CONTINUOUS
10
5.28794
20
-2.87112
11
5.29055
21
-2.86937
0
LINE
8
BLACK
6
CONTINUOUS
10
5.29055
20
-2.86937
11
5.2923
21
-2.86676
0
LINE
8
BLACK
6
CONTINUOUS
10
5.2923
20
-2.86676
11
5.2924
21
-2.86625
0
LINE
8
BLACK
6
CONTINUOUS
10
5.2924
20
-2.86625
11
5.29271
21
-2.8647
0
LINE
8
BLACK
6
CONTINUOUS
10
5.29271
20
-2.8647
11
5.29276
21
-2.86446
0
LINE
8
BLACK
6
CONTINUOUS
10
5.29276
20
-2.86446
11
5.29276
21
-2.8279
0
LINE
8
BLACK
6
CONTINUOUS
10
5.29276
20
-2.8279
11
5.2923
21
-2.8256
0
LINE
8
BLACK
6
CONTINUOUS
10
5.2923
20
-2.8256
11
5.29055
21
-2.82299
0
LINE
8
BLACK
6
CONTINUOUS
10
5.29055
20
-2.82299
11
5.28794
21
-2.82125
0
LINE
8
BLACK
6
CONTINUOUS
10
5.28794
20
-2.82125
11
5.28746
21
-2.82115
0
LINE
8
BLACK
6
CONTINUOUS
10
5.28746
20
-2.82115
11
5.28746
21
-2.82115
0
LINE
8
BLACK
6
CONTINUOUS
10
5.28746
20
-2.82115
11
5.28588
21
-2.82083
0
LINE
8
BLACK
6
CONTINUOUS
10
5.28588
20
-2.82083
11
5.28564
21
-2.82079
0
LINE
8
BLACK
6
CONTINUOUS
10
5.28564
20
-2.82079
11
5.27809
21
-2.82079
0
LINE
8
BLACK
6
CONTINUOUS
10
5.27809
20
-2.82079
11
5.27541
21
-2.82
0
LINE
8
BLACK
6
CONTINUOUS
10
5.27541
20
-2.82
11
5.27358
21
-2.81789
0
LINE
8
BLACK
6
CONTINUOUS
10
5.27358
20
-2.81789
11
5.27313
21
-2.81583
0
LINE
8
BLACK
6
CONTINUOUS
10
5.27313
20
-2.81583
11
5.27313
21
-2.71801
0
LINE
8
BLACK
6
CONTINUOUS
10
5.27313
20
-2.71801
11
5.27392
21
-2.71533
0
LINE
8
BLACK
6
CONTINUOUS
10
5.27392
20
-2.71533
11
5.27458
21
-2.71451
0
LINE
8
BLACK
6
CONTINUOUS
10
5.27458
20
-2.71451
11
5.33313
21
-2.65596
0
LINE
8
BLACK
6
CONTINUOUS
10
5.33313
20
-2.65596
11
5.33558
21
-2.65462
0
LINE
8
BLACK
6
CONTINUOUS
10
5.33558
20
-2.65462
11
5.33837
21
-2.65482
0
LINE
8
BLACK
6
CONTINUOUS
10
5.33837
20
-2.65482
11
5.34061
21
-2.6565
0
LINE
8
BLACK
6
CONTINUOUS
10
5.34061
20
-2.6565
11
5.34158
21
-2.65912
0
LINE
8
BLACK
6
CONTINUOUS
10
5.34158
20
-2.65912
11
5.34159
21
-2.65947
0
LINE
8
BLACK
6
CONTINUOUS
10
5.34159
20
-2.65947
11
5.34159
21
-2.81583
0
LINE
8
BLACK
6
CONTINUOUS
10
5.34159
20
-2.81583
11
5.34081
21
-2.81851
0
LINE
8
BLACK
6
CONTINUOUS
10
5.34081
20
-2.81851
11
5.33869
21
-2.82034
0
LINE
8
BLACK
6
CONTINUOUS
10
5.33869
20
-2.82034
11
5.33663
21
-2.82079
0
LINE
8
BLACK
6
CONTINUOUS
10
5.33663
20
-2.82079
11
5.32908
21
-2.82079
0
LINE
8
BLACK
6
CONTINUOUS
10
5.32908
20
-2.82079
11
5.32885
21
-2.82083
0
LINE
8
BLACK
6
CONTINUOUS
10
5.32885
20
-2.82083
11
5.32726
21
-2.82115
0
LINE
8
BLACK
6
CONTINUOUS
10
5.32726
20
-2.82115
11
5.32726
21
-2.82115
0
LINE
8
BLACK
6
CONTINUOUS
10
5.32726
20
-2.82115
11
5.32678
21
-2.82125
0
LINE
8
BLACK
6
CONTINUOUS
10
5.32678
20
-2.82125
11
5.32417
21
-2.82299
0
LINE
8
BLACK
6
CONTINUOUS
10
5.32417
20
-2.82299
11
5.32243
21
-2.8256
0
LINE
8
BLACK
6
CONTINUOUS
10
5.32243
20
-2.8256
11
5.32197
21
-2.8279
0
LINE
8
BLACK
6
CONTINUOUS
10
5.32197
20
-2.8279
11
5.32197
21
-2.86446
0
LINE
8
BLACK
6
CONTINUOUS
10
5.32197
20
-2.86446
11
5.32202
21
-2.8647
0
LINE
8
BLACK
6
CONTINUOUS
10
5.32202
20
-2.8647
11
5.32232
21
-2.86625
0
LINE
8
BLACK
6
CONTINUOUS
10
5.32232
20
-2.86625
11
5.32243
21
-2.86676
0
LINE
8
BLACK
6
CONTINUOUS
10
5.32243
20
-2.86676
11
5.32417
21
-2.86937
0
LINE
8
BLACK
6
CONTINUOUS
10
5.32417
20
-2.86937
11
5.32678
21
-2.87112
0
LINE
8
BLACK
6
CONTINUOUS
10
5.32678
20
-2.87112
11
5.32726
21
-2.87121
0
LINE
8
BLACK
6
CONTINUOUS
10
5.32726
20
-2.87121
11
5.32726
21
-2.87121
0
LINE
8
BLACK
6
CONTINUOUS
10
5.32726
20
-2.87121
11
5.32885
21
-2.87153
0
LINE
8
BLACK
6
CONTINUOUS
10
5.32885
20
-2.87153
11
5.32908
21
-2.87157
0
LINE
8
BLACK
6
CONTINUOUS
10
5.32908
20
-2.87157
11
5.38564
21
-2.87157
0
LINE
8
BLACK
6
CONTINUOUS
10
5.38564
20
-2.87157
11
5.38588
21
-2.87153
0
LINE
8
BLACK
6
CONTINUOUS
10
5.38588
20
-2.87153
11
5.38746
21
-2.87121
0
LINE
8
BLACK
6
CONTINUOUS
10
5.38746
20
-2.87121
11
5.38746
21
-2.87121
0
LINE
8
BLACK
6
CONTINUOUS
10
5.38746
20
-2.87121
11
5.38794
21
-2.87112
0
LINE
8
BLACK
6
CONTINUOUS
10
5.38794
20
-2.87112
11
5.39055
21
-2.86937
0
LINE
8
BLACK
6
CONTINUOUS
10
5.39055
20
-2.86937
11
5.3923
21
-2.86676
0
LINE
8
BLACK
6
CONTINUOUS
10
5.3923
20
-2.86676
11
5.3924
21
-2.86625
0
LINE
8
BLACK
6
CONTINUOUS
10
5.3924
20
-2.86625
11
5.39271
21
-2.8647
0
LINE
8
BLACK
6
CONTINUOUS
10
5.39271
20
-2.8647
11
5.39276
21
-2.86446
0
LINE
8
BLACK
6
CONTINUOUS
10
5.39276
20
-2.86446
11
5.39276
21
-2.8279
0
LINE
8
BLACK
6
CONTINUOUS
10
5.39276
20
-2.8279
11
5.3923
21
-2.8256
0
LINE
8
BLACK
6
CONTINUOUS
10
5.3923
20
-2.8256
11
5.39055
21
-2.82299
0
LINE
8
BLACK
6
CONTINUOUS
10
5.39055
20
-2.82299
11
5.38794
21
-2.82125
0
LINE
8
BLACK
6
CONTINUOUS
10
5.38794
20
-2.82125
11
5.38746
21
-2.82115
0
LINE
8
BLACK
6
CONTINUOUS
10
5.38746
20
-2.82115
11
5.38746
21
-2.82115
0
LINE
8
BLACK
6
CONTINUOUS
10
5.38746
20
-2.82115
11
5.38588
21
-2.82083
0
LINE
8
BLACK
6
CONTINUOUS
10
5.38588
20
-2.82083
11
5.38564
21
-2.82079
0
LINE
8
BLACK
6
CONTINUOUS
10
5.38564
20
-2.82079
11
5.37809
21
-2.82079
0
LINE
8
BLACK
6
CONTINUOUS
10
5.37809
20
-2.82079
11
5.37541
21
-2.82
0
LINE
8
BLACK
6
CONTINUOUS
10
5.37541
20
-2.82
11
5.37358
21
-2.81789
0
LINE
8
BLACK
6
CONTINUOUS
10
5.37358
20
-2.81789
11
5.37313
21
-2.81583
0
LINE
8
BLACK
6
CONTINUOUS
10
5.37313
20
-2.81583
11
5.37313
21
-2.65142
0
LINE
8
BLACK
6
CONTINUOUS
10
5.37313
20
-2.65142
11
5.37392
21
-2.64874
0
LINE
8
BLACK
6
CONTINUOUS
10
5.37392
20
-2.64874
11
5.37458
21
-2.64791
0
LINE
8
BLACK
6
CONTINUOUS
10
5.37458
20
-2.64791
11
5.421
21
-2.6015
0
LINE
8
BLACK
6
CONTINUOUS
10
5.421
20
-2.6015
11
5.42345
21
-2.60016
0
LINE
8
BLACK
6
CONTINUOUS
10
5.42345
20
-2.60016
11
5.42624
21
-2.60036
0
LINE
8
BLACK
6
CONTINUOUS
10
5.42624
20
-2.60036
11
5.42848
21
-2.60203
0
LINE
8
BLACK
6
CONTINUOUS
10
5.42848
20
-2.60203
11
5.42946
21
-2.60465
0
LINE
8
BLACK
6
CONTINUOUS
10
5.42946
20
-2.60465
11
5.42947
21
-2.605
0
LINE
8
BLACK
6
CONTINUOUS
10
5.42947
20
-2.605
11
5.42947
21
-2.65196
0
LINE
8
BLACK
6
CONTINUOUS
10
5.42947
20
-2.65196
11
5.42993
21
-2.65426
0
LINE
8
BLACK
6
CONTINUOUS
10
5.42993
20
-2.65426
11
5.43167
21
-2.65687
0
LINE
8
BLACK
6
CONTINUOUS
10
5.43167
20
-2.65687
11
5.43428
21
-2.65862
0
LINE
8
BLACK
6
CONTINUOUS
10
5.43428
20
-2.65862
11
5.43476
21
-2.65871
0
LINE
8
BLACK
6
CONTINUOUS
10
5.43476
20
-2.65871
11
5.43476
21
-2.65871
0
LINE
8
BLACK
6
CONTINUOUS
10
5.43476
20
-2.65871
11
5.43635
21
-2.65903
0
LINE
8
BLACK
6
CONTINUOUS
10
5.43635
20
-2.65903
11
5.43658
21
-2.65907
0
LINE
8
BLACK
6
CONTINUOUS
10
5.43658
20
-2.65907
11
5.47915
21
-2.65907
0
LINE
8
BLACK
6
CONTINUOUS
10
5.47915
20
-2.65907
11
5.48183
21
-2.65986
0
LINE
8
BLACK
6
CONTINUOUS
10
5.48183
20
-2.65986
11
5.48266
21
-2.66053
0
LINE
8
BLACK
6
CONTINUOUS
10
5.48266
20
-2.66053
11
5.59237
21
-2.77024
0
LINE
8
BLACK
6
CONTINUOUS
10
5.59237
20
-2.77024
11
5.59371
21
-2.77269
0
LINE
8
BLACK
6
CONTINUOUS
10
5.59371
20
-2.77269
11
5.59351
21
-2.77548
0
LINE
8
BLACK
6
CONTINUOUS
10
5.59351
20
-2.77548
11
5.59183
21
-2.77772
0
LINE
8
BLACK
6
CONTINUOUS
10
5.59183
20
-2.77772
11
5.59076
21
-2.77833
0
LINE
8
BLACK
6
CONTINUOUS
10
5.59076
20
-2.77833
11
5.58693
21
-2.77991
0
LINE
8
BLACK
6
CONTINUOUS
10
5.58693
20
-2.77991
11
5.58544
21
-2.78053
0
LINE
8
BLACK
6
CONTINUOUS
10
5.58544
20
-2.78053
11
5.58519
21
-2.78072
0
LINE
8
BLACK
6
CONTINUOUS
10
5.58519
20
-2.78072
11
5.58248
21
-2.78138
0
LINE
8
BLACK
6
CONTINUOUS
10
5.58248
20
-2.78138
11
5.57984
21
-2.78046
0
LINE
8
BLACK
6
CONTINUOUS
10
5.57984
20
-2.78046
11
5.57811
21
-2.77827
0
LINE
8
BLACK
6
CONTINUOUS
10
5.57811
20
-2.77827
11
5.57776
21
-2.77642
0
LINE
8
BLACK
6
CONTINUOUS
10
5.57776
20
-2.77642
11
5.57776
21
-2.7729
0
LINE
8
BLACK
6
CONTINUOUS
10
5.57776
20
-2.7729
11
5.5773
21
-2.7706
0
LINE
8
BLACK
6
CONTINUOUS
10
5.5773
20
-2.7706
11
5.57555
21
-2.76799
0
LINE
8
BLACK
6
CONTINUOUS
10
5.57555
20
-2.76799
11
5.57294
21
-2.76625
0
LINE
8
BLACK
6
CONTINUOUS
10
5.57294
20
-2.76625
11
5.57246
21
-2.76615
0
LINE
8
BLACK
6
CONTINUOUS
10
5.57246
20
-2.76615
11
5.57246
21
-2.76615
0
LINE
8
BLACK
6
CONTINUOUS
10
5.57246
20
-2.76615
11
5.57088
21
-2.76583
0
LINE
8
BLACK
6
CONTINUOUS
10
5.57088
20
-2.76583
11
5.57064
21
-2.76579
0
LINE
8
BLACK
6
CONTINUOUS
10
5.57064
20
-2.76579
11
5.53408
21
-2.76579
0
LINE
8
BLACK
6
CONTINUOUS
10
5.53408
20
-2.76579
11
5.53385
21
-2.76583
0
LINE
8
BLACK
6
CONTINUOUS
10
5.53385
20
-2.76583
11
5.53226
21
-2.76615
0
LINE
8
BLACK
6
CONTINUOUS
10
5.53226
20
-2.76615
11
5.53226
21
-2.76615
0
LINE
8
BLACK
6
CONTINUOUS
10
5.53226
20
-2.76615
11
5.53178
21
-2.76625
0
LINE
8
BLACK
6
CONTINUOUS
10
5.53178
20
-2.76625
11
5.52917
21
-2.76799
0
LINE
8
BLACK
6
CONTINUOUS
10
5.52917
20
-2.76799
11
5.52743
21
-2.7706
0
LINE
8
BLACK
6
CONTINUOUS
10
5.52743
20
-2.7706
11
5.52697
21
-2.7729
0
LINE
8
BLACK
6
CONTINUOUS
10
5.52697
20
-2.7729
11
5.52697
21
-2.82946
0
LINE
8
BLACK
6
CONTINUOUS
10
5.52697
20
-2.82946
11
5.52743
21
-2.83176
0
LINE
8
BLACK
6
CONTINUOUS
10
5.52743
20
-2.83176
11
5.52917
21
-2.83437
0
LINE
8
BLACK
6
CONTINUOUS
10
5.52917
20
-2.83437
11
5.53178
21
-2.83612
0
LINE
8
BLACK
6
CONTINUOUS
10
5.53178
20
-2.83612
11
5.5326
21
-2.83628
0
LINE
8
BLACK
6
CONTINUOUS
10
5.5326
20
-2.83628
11
5.53508
21
-2.83758
0
LINE
8
BLACK
6
CONTINUOUS
10
5.53508
20
-2.83758
11
5.53646
21
-2.84
0
LINE
8
BLACK
6
CONTINUOUS
10
5.53646
20
-2.84
11
5.53659
21
-2.84115
0
LINE
8
BLACK
6
CONTINUOUS
10
5.53659
20
-2.84115
11
5.53659
21
-2.86122
0
LINE
8
BLACK
6
CONTINUOUS
10
5.53659
20
-2.86122
11
5.53581
21
-2.8639
0
LINE
8
BLACK
6
CONTINUOUS
10
5.53581
20
-2.8639
11
5.53369
21
-2.86573
0
LINE
8
BLACK
6
CONTINUOUS
10
5.53369
20
-2.86573
11
5.5326
21
-2.86608
0
LINE
8
BLACK
6
CONTINUOUS
10
5.5326
20
-2.86608
11
5.53178
21
-2.86625
0
LINE
8
BLACK
6
CONTINUOUS
10
5.53178
20
-2.86625
11
5.52917
21
-2.86799
0
LINE
8
BLACK
6
CONTINUOUS
10
5.52917
20
-2.86799
11
5.52743
21
-2.8706
0
LINE
8
BLACK
6
CONTINUOUS
10
5.52743
20
-2.8706
11
5.52733
21
-2.87108
0
LINE
8
BLACK
6
CONTINUOUS
10
5.52733
20
-2.87108
11
5.52733
21
-2.87108
0
LINE
8
BLACK
6
CONTINUOUS
10
5.52733
20
-2.87108
11
5.5273
21
-2.87121
0
LINE
8
BLACK
6
CONTINUOUS
10
5.5273
20
-2.87121
11
5.52697
21
-2.8729
0
LINE
8
BLACK
6
CONTINUOUS
10
5.52697
20
-2.8729
11
5.52697
21
-2.92946
0
LINE
8
BLACK
6
CONTINUOUS
10
5.52697
20
-2.92946
11
5.52743
21
-2.93176
0
LINE
8
BLACK
6
CONTINUOUS
10
5.52743
20
-2.93176
11
5.52917
21
-2.93437
0
LINE
8
BLACK
6
CONTINUOUS
10
5.52917
20
-2.93437
11
5.53178
21
-2.93612
0
LINE
8
BLACK
6
CONTINUOUS
10
5.53178
20
-2.93612
11
5.53226
21
-2.93621
0
LINE
8
BLACK
6
CONTINUOUS
10
5.53226
20
-2.93621
11
5.53226
21
-2.93621
0
LINE
8
BLACK
6
CONTINUOUS
10
5.53226
20
-2.93621
11
5.53385
21
-2.93653
0
LINE
8
BLACK
6
CONTINUOUS
10
5.53385
20
-2.93653
11
5.53408
21
-2.93657
0
LINE
8
BLACK
6
CONTINUOUS
10
5.53408
20
-2.93657
11
5.5397
21
-2.93657
0
LINE
8
BLACK
6
CONTINUOUS
10
5.5397
20
-2.93657
11
5.54239
21
-2.93736
0
LINE
8
BLACK
6
CONTINUOUS
10
5.54239
20
-2.93736
11
5.54422
21
-2.93947
0
LINE
8
BLACK
6
CONTINUOUS
10
5.54422
20
-2.93947
11
5.54467
21
-2.94154
0
LINE
8
BLACK
6
CONTINUOUS
10
5.54467
20
-2.94154
11
5.54467
21
-2.97163
0
LINE
8
BLACK
6
CONTINUOUS
10
5.54467
20
-2.97163
11
5.54388
21
-2.97432
0
LINE
8
BLACK
6
CONTINUOUS
10
5.54388
20
-2.97432
11
5.54177
21
-2.97615
0
LINE
8
BLACK
6
CONTINUOUS
10
5.54177
20
-2.97615
11
5.5397
21
-2.97659
0
LINE
8
BLACK
6
CONTINUOUS
10
5.5397
20
-2.97659
11
5.53603
21
-2.97659
0
LINE
8
BLACK
6
CONTINUOUS
10
5.53603
20
-2.97659
11
5.53579
21
-2.97664
0
LINE
8
BLACK
6
CONTINUOUS
10
5.53579
20
-2.97664
11
5.53421
21
-2.97696
0
LINE
8
BLACK
6
CONTINUOUS
10
5.53421
20
-2.97696
11
5.53421
21
-2.97696
0
LINE
8
BLACK
6
CONTINUOUS
10
5.53421
20
-2.97696
11
5.53373
21
-2.97705
0
LINE
8
BLACK
6
CONTINUOUS
10
5.53373
20
-2.97705
11
5.53112
21
-2.9788
0
LINE
8
BLACK
6
CONTINUOUS
10
5.53112
20
-2.9788
11
5.52938
21
-2.98141
0
LINE
8
BLACK
6
CONTINUOUS
10
5.52938
20
-2.98141
11
5.52892
21
-2.98371
0
LINE
8
BLACK
6
CONTINUOUS
10
5.52892
20
-2.98371
11
5.52892
21
-3.04826
0
LINE
8
BLACK
6
CONTINUOUS
10
5.52892
20
-3.04826
11
5.52938
21
-3.05056
0
LINE
8
BLACK
6
CONTINUOUS
10
5.52938
20
-3.05056
11
5.53112
21
-3.05317
0
LINE
8
BLACK
6
CONTINUOUS
10
5.53112
20
-3.05317
11
5.53373
21
-3.05492
0
LINE
8
BLACK
6
CONTINUOUS
10
5.53373
20
-3.05492
11
5.53421
21
-3.05501
0
LINE
8
BLACK
6
CONTINUOUS
10
5.53421
20
-3.05501
11
5.53421
21
-3.05501
0
LINE
8
BLACK
6
CONTINUOUS
10
5.53421
20
-3.05501
11
5.53579
21
-3.05533
0
LINE
8
BLACK
6
CONTINUOUS
10
5.53579
20
-3.05533
11
5.53603
21
-3.05537
0
LINE
8
BLACK
6
CONTINUOUS
10
5.53603
20
-3.05537
11
5.58483
21
-3.05537
0
LINE
8
BLACK
6
CONTINUOUS
10
5.58483
20
-3.05537
11
5.58507
21
-3.05533
0
LINE
8
BLACK
6
CONTINUOUS
10
5.58507
20
-3.05533
11
5.58666
21
-3.05501
0
LINE
8
BLACK
6
CONTINUOUS
10
5.58666
20
-3.05501
11
5.58666
21
-3.05501
0
LINE
8
BLACK
6
CONTINUOUS
10
5.58666
20
-3.05501
11
5.58714
21
-3.05492
0
LINE
8
BLACK
6
CONTINUOUS
10
5.58714
20
-3.05492
11
5.58975
21
-3.05317
0
LINE
8
BLACK
6
CONTINUOUS
10
5.58975
20
-3.05317
11
5.59149
21
-3.05056
0
LINE
8
BLACK
6
CONTINUOUS
10
5.59149
20
-3.05056
11
5.59195
21
-3.04826
0
LINE
8
BLACK
6
CONTINUOUS
10
5.59195
20
-3.04826
11
5.59195
21
-2.98371
0
LINE
8
BLACK
6
CONTINUOUS
10
5.59195
20
-2.98371
11
5.59149
21
-2.98141
0
LINE
8
BLACK
6
CONTINUOUS
10
5.59149
20
-2.98141
11
5.58975
21
-2.9788
0
LINE
8
BLACK
6
CONTINUOUS
10
5.58975
20
-2.9788
11
5.58714
21
-2.97705
0
LINE
8
BLACK
6
CONTINUOUS
10
5.58714
20
-2.97705
11
5.58666
21
-2.97696
0
LINE
8
BLACK
6
CONTINUOUS
10
5.58666
20
-2.97696
11
5.58666
21
-2.97696
0
LINE
8
BLACK
6
CONTINUOUS
10
5.58666
20
-2.97696
11
5.58507
21
-2.97664
0
LINE
8
BLACK
6
CONTINUOUS
10
5.58507
20
-2.97664
11
5.58483
21
-2.97659
0
LINE
8
BLACK
6
CONTINUOUS
10
5.58483
20
-2.97659
11
5.58116
21
-2.97659
0
LINE
8
BLACK
6
CONTINUOUS
10
5.58116
20
-2.97659
11
5.57848
21
-2.97581
0
LINE
8
BLACK
6
CONTINUOUS
10
5.57848
20
-2.97581
11
5.57665
21
-2.97369
0
LINE
8
BLACK
6
CONTINUOUS
10
5.57665
20
-2.97369
11
5.5762
21
-2.97163
0
LINE
8
BLACK
6
CONTINUOUS
10
5.5762
20
-2.97163
11
5.5762
21
-2.93491
0
LINE
8
BLACK
6
CONTINUOUS
10
5.5762
20
-2.93491
11
5.57689
21
-2.93264
0
LINE
8
BLACK
6
CONTINUOUS
10
5.57689
20
-2.93264
11
5.57684
21
-2.93262
0
LINE
8
BLACK
6
CONTINUOUS
10
5.57684
20
-2.93262
11
5.57703
21
-2.93217
0
LINE
8
BLACK
6
CONTINUOUS
10
5.57703
20
-2.93217
11
5.5773
21
-2.93176
0
LINE
8
BLACK
6
CONTINUOUS
10
5.5773
20
-2.93176
11
5.57776
21
-2.92946
0
LINE
8
BLACK
6
CONTINUOUS
10
5.57776
20
-2.92946
11
5.57776
21
-2.8729
0
LINE
8
BLACK
6
CONTINUOUS
10
5.57776
20
-2.8729
11
5.57742
21
-2.87121
0
LINE
8
BLACK
6
CONTINUOUS
10
5.57742
20
-2.87121
11
5.57739
21
-2.87108
0
LINE
8
BLACK
6
CONTINUOUS
10
5.57739
20
-2.87108
11
5.57739
21
-2.87108
0
LINE
8
BLACK
6
CONTINUOUS
10
5.57739
20
-2.87108
11
5.5773
21
-2.8706
0
LINE
8
BLACK
6
CONTINUOUS
10
5.5773
20
-2.8706
11
5.57555
21
-2.86799
0
LINE
8
BLACK
6
CONTINUOUS
10
5.57555
20
-2.86799
11
5.57294
21
-2.86625
0
LINE
8
BLACK
6
CONTINUOUS
10
5.57294
20
-2.86625
11
5.57212
21
-2.86608
0
LINE
8
BLACK
6
CONTINUOUS
10
5.57212
20
-2.86608
11
5.56965
21
-2.86479
0
LINE
8
BLACK
6
CONTINUOUS
10
5.56965
20
-2.86479
11
5.56826
21
-2.86236
0
LINE
8
BLACK
6
CONTINUOUS
10
5.56826
20
-2.86236
11
5.56813
21
-2.86122
0
LINE
8
BLACK
6
CONTINUOUS
10
5.56813
20
-2.86122
11
5.56813
21
-2.84115
0
LINE
8
BLACK
6
CONTINUOUS
10
5.56813
20
-2.84115
11
5.56892
21
-2.83846
0
LINE
8
BLACK
6
CONTINUOUS
10
5.56892
20
-2.83846
11
5.57103
21
-2.83663
0
LINE
8
BLACK
6
CONTINUOUS
10
5.57103
20
-2.83663
11
5.57212
21
-2.83628
0
LINE
8
BLACK
6
CONTINUOUS
10
5.57212
20
-2.83628
11
5.57294
21
-2.83612
0
LINE
8
BLACK
6
CONTINUOUS
10
5.57294
20
-2.83612
11
5.57555
21
-2.83437
0
LINE
8
BLACK
6
CONTINUOUS
10
5.57555
20
-2.83437
11
5.5773
21
-2.83176
0
LINE
8
BLACK
6
CONTINUOUS
10
5.5773
20
-2.83176
11
5.57776
21
-2.82946
0
LINE
8
BLACK
6
CONTINUOUS
10
5.57776
20
-2.82946
11
5.57776
21
-2.82594
0
LINE
8
BLACK
6
CONTINUOUS
10
5.57776
20
-2.82594
11
5.57854
21
-2.82326
0
LINE
8
BLACK
6
CONTINUOUS
10
5.57854
20
-2.82326
11
5.58066
21
-2.82143
0
LINE
8
BLACK
6
CONTINUOUS
10
5.58066
20
-2.82143
11
5.58342
21
-2.82103
0
LINE
8
BLACK
6
CONTINUOUS
10
5.58342
20
-2.82103
11
5.58519
21
-2.82164
0
LINE
8
BLACK
6
CONTINUOUS
10
5.58519
20
-2.82164
11
5.58544
21
-2.82183
0
LINE
8
BLACK
6
CONTINUOUS
10
5.58544
20
-2.82183
11
5.59119
21
-2.82421
0
LINE
8
BLACK
6
CONTINUOUS
10
5.59119
20
-2.82421
11
5.59736
21
-2.82503
0
LINE
8
BLACK
6
CONTINUOUS
10
5.59736
20
-2.82503
11
5.59768
21
-2.82498
0
LINE
8
BLACK
6
CONTINUOUS
10
5.59768
20
-2.82498
11
5.60321
21
-2.82426
0
LINE
8
BLACK
6
CONTINUOUS
10
5.60321
20
-2.82426
11
5.60353
21
-2.82421
0
LINE
8
BLACK
6
CONTINUOUS
10
5.60353
20
-2.82421
11
5.60929
21
-2.82183
0
LINE
8
BLACK
6
CONTINUOUS
10
5.60929
20
-2.82183
11
5.61422
21
-2.81804
0
LINE
8
BLACK
6
CONTINUOUS
10
5.61422
20
-2.81804
11
5.61801
21
-2.8131
0
LINE
8
BLACK
6
CONTINUOUS
10
5.61801
20
-2.8131
11
5.62022
21
-2.80779
0
LINE
8
BLACK
6
CONTINUOUS
10
5.62022
20
-2.80779
11
5.62197
21
-2.80561
0
LINE
8
BLACK
6
CONTINUOUS
10
5.62197
20
-2.80561
11
5.62462
21
-2.80473
0
LINE
8
BLACK
6
CONTINUOUS
10
5.62462
20
-2.80473
11
5.62733
21
-2.80542
0
LINE
8
BLACK
6
CONTINUOUS
10
5.62733
20
-2.80542
11
5.62831
21
-2.80618
0
LINE
8
BLACK
6
CONTINUOUS
10
5.62831
20
-2.80618
11
5.63445
21
-2.81232
0
LINE
8
BLACK
6
CONTINUOUS
10
5.63445
20
-2.81232
11
5.63579
21
-2.81477
0
LINE
8
BLACK
6
CONTINUOUS
10
5.63579
20
-2.81477
11
5.63559
21
-2.81756
0
LINE
8
BLACK
6
CONTINUOUS
10
5.63559
20
-2.81756
11
5.63391
21
-2.8198
0
LINE
8
BLACK
6
CONTINUOUS
10
5.63391
20
-2.8198
11
5.6313
21
-2.82077
0
LINE
8
BLACK
6
CONTINUOUS
10
5.6313
20
-2.82077
11
5.63094
21
-2.82079
0
LINE
8
BLACK
6
CONTINUOUS
10
5.63094
20
-2.82079
11
5.62908
21
-2.82079
0
LINE
8
BLACK
6
CONTINUOUS
10
5.62908
20
-2.82079
11
5.62885
21
-2.82083
0
LINE
8
BLACK
6
CONTINUOUS
10
5.62885
20
-2.82083
11
5.62726
21
-2.82115
0
LINE
8
BLACK
6
CONTINUOUS
10
5.62726
20
-2.82115
11
5.62726
21
-2.82115
0
LINE
8
BLACK
6
CONTINUOUS
10
5.62726
20
-2.82115
11
5.62678
21
-2.82125
0
LINE
8
BLACK
6
CONTINUOUS
10
5.62678
20
-2.82125
11
5.62417
21
-2.82299
0
LINE
8
BLACK
6
CONTINUOUS
10
5.62417
20
-2.82299
11
5.62243
21
-2.8256
0
LINE
8
BLACK
6
CONTINUOUS
10
5.62243
20
-2.8256
11
5.62197
21
-2.8279
0
LINE
8
BLACK
6
CONTINUOUS
10
5.62197
20
-2.8279
11
5.62197
21
-2.86446
0
LINE
8
BLACK
6
CONTINUOUS
10
5.62197
20
-2.86446
11
5.62202
21
-2.8647
0
LINE
8
BLACK
6
CONTINUOUS
10
5.62202
20
-2.8647
11
5.62232
21
-2.86625
0
LINE
8
BLACK
6
CONTINUOUS
10
5.62232
20
-2.86625
11
5.62243
21
-2.86676
0
LINE
8
BLACK
6
CONTINUOUS
10
5.62243
20
-2.86676
11
5.62417
21
-2.86937
0
LINE
8
BLACK
6
CONTINUOUS
10
5.62417
20
-2.86937
11
5.62678
21
-2.87112
0
LINE
8
BLACK
6
CONTINUOUS
10
5.62678
20
-2.87112
11
5.62726
21
-2.87121
0
LINE
8
BLACK
6
CONTINUOUS
10
5.62726
20
-2.87121
11
5.62726
21
-2.87121
0
LINE
8
BLACK
6
CONTINUOUS
10
5.62726
20
-2.87121
11
5.62885
21
-2.87153
0
LINE
8
BLACK
6
CONTINUOUS
10
5.62885
20
-2.87153
11
5.62908
21
-2.87157
0
LINE
8
BLACK
6
CONTINUOUS
10
5.62908
20
-2.87157
11
5.68564
21
-2.87157
0
LINE
8
BLACK
6
CONTINUOUS
10
5.68564
20
-2.87157
11
5.68588
21
-2.87153
0
LINE
8
BLACK
6
CONTINUOUS
10
5.68588
20
-2.87153
11
5.68746
21
-2.87121
0
LINE
8
BLACK
6
CONTINUOUS
10
5.68746
20
-2.87121
11
5.68746
21
-2.87121
0
LINE
8
BLACK
6
CONTINUOUS
10
5.68746
20
-2.87121
11
5.68794
21
-2.87112
0
LINE
8
BLACK
6
CONTINUOUS
10
5.68794
20
-2.87112
11
5.69055
21
-2.86937
0
LINE
8
BLACK
6
CONTINUOUS
10
5.69055
20
-2.86937
11
5.6923
21
-2.86676
0
LINE
8
BLACK
6
CONTINUOUS
10
5.6923
20
-2.86676
11
5.6924
21
-2.86625
0
LINE
8
BLACK
6
CONTINUOUS
10
5.6924
20
-2.86625
11
5.69271
21
-2.8647
0
LINE
8
BLACK
6
CONTINUOUS
10
5.69271
20
-2.8647
11
5.69276
21
-2.86446
0
LINE
8
BLACK
6
CONTINUOUS
10
5.69276
20
-2.86446
11
5.69276
21
-2.8279
0
LINE
8
BLACK
6
CONTINUOUS
10
5.69276
20
-2.8279
11
5.69265
21
-2.82736
0
LINE
8
BLACK
6
CONTINUOUS
10
5.69265
20
-2.82736
11
5.6929
21
-2.82458
0
LINE
8
BLACK
6
CONTINUOUS
10
5.6929
20
-2.82458
11
5.69461
21
-2.82237
0
LINE
8
BLACK
6
CONTINUOUS
10
5.69461
20
-2.82237
11
5.69725
21
-2.82144
0
LINE
8
BLACK
6
CONTINUOUS
10
5.69725
20
-2.82144
11
5.69997
21
-2.82208
0
LINE
8
BLACK
6
CONTINUOUS
10
5.69997
20
-2.82208
11
5.70102
21
-2.82289
0
LINE
8
BLACK
6
CONTINUOUS
10
5.70102
20
-2.82289
11
5.73723
21
-2.8591
0
LINE
8
BLACK
6
CONTINUOUS
10
5.73723
20
-2.8591
11
5.73758
21
-2.85927
0
LINE
8
BLACK
6
CONTINUOUS
10
5.73758
20
-2.85927
11
5.73758
21
-2.85927
0
LINE
8
BLACK
6
CONTINUOUS
10
5.73758
20
-2.85927
11
5.738
21
-2.85949
0
LINE
8
BLACK
6
CONTINUOUS
10
5.738
20
-2.85949
11
5.73867
21
-2.8599
0
LINE
8
BLACK
6
CONTINUOUS
10
5.73867
20
-2.8599
11
5.73937
21
-2.86041
0
LINE
8
BLACK
6
CONTINUOUS
10
5.73937
20
-2.86041
11
5.74019
21
-2.86067
0
LINE
8
BLACK
6
CONTINUOUS
10
5.74019
20
-2.86067
11
5.74091
21
-2.86097
0
LINE
8
BLACK
6
CONTINUOUS
10
5.74091
20
-2.86097
11
5.74133
21
-2.86119
0
LINE
8
BLACK
6
CONTINUOUS
10
5.74133
20
-2.86119
11
5.74133
21
-2.86119
0
LINE
8
BLACK
6
CONTINUOUS
10
5.74133
20
-2.86119
11
5.74168
21
-2.86136
0
LINE
8
BLACK
6
CONTINUOUS
10
5.74168
20
-2.86136
11
5.74207
21
-2.86143
0
LINE
8
BLACK
6
CONTINUOUS
10
5.74207
20
-2.86143
11
5.74207
21
-2.86143
0
LINE
8
BLACK
6
CONTINUOUS
10
5.74207
20
-2.86143
11
5.74254
21
-2.8615
0
LINE
8
BLACK
6
CONTINUOUS
10
5.74254
20
-2.8615
11
5.74329
21
-2.86168
0
LINE
8
BLACK
6
CONTINUOUS
10
5.74329
20
-2.86168
11
5.74375
21
-2.86183
0
LINE
8
BLACK
6
CONTINUOUS
10
5.74375
20
-2.86183
11
5.74375
21
-2.86183
0
LINE
8
BLACK
6
CONTINUOUS
10
5.74375
20
-2.86183
11
5.74412
21
-2.86195
0
LINE
8
BLACK
6
CONTINUOUS
10
5.74412
20
-2.86195
11
5.74537
21
-2.86195
0
LINE
8
BLACK
6
CONTINUOUS
10
5.74537
20
-2.86195
11
5.74537
21
-2.86195
0
LINE
8
BLACK
6
CONTINUOUS
10
5.74537
20
-2.86195
11
5.8174
21
-2.86195
0
LINE
8
BLACK
6
CONTINUOUS
10
5.8174
20
-2.86195
11
5.82008
21
-2.86274
0
LINE
8
BLACK
6
CONTINUOUS
10
5.82008
20
-2.86274
11
5.82191
21
-2.86485
0
LINE
8
BLACK
6
CONTINUOUS
10
5.82191
20
-2.86485
11
5.82226
21
-2.86594
0
LINE
8
BLACK
6
CONTINUOUS
10
5.82226
20
-2.86594
11
5.82243
21
-2.86676
0
LINE
8
BLACK
6
CONTINUOUS
10
5.82243
20
-2.86676
11
5.82417
21
-2.86937
0
LINE
8
BLACK
6
CONTINUOUS
10
5.82417
20
-2.86937
11
5.82678
21
-2.87112
0
LINE
8
BLACK
6
CONTINUOUS
10
5.82678
20
-2.87112
11
5.82726
21
-2.87121
0
LINE
8
BLACK
6
CONTINUOUS
10
5.82726
20
-2.87121
11
5.82726
21
-2.87121
0
LINE
8
BLACK
6
CONTINUOUS
10
5.82726
20
-2.87121
11
5.82885
21
-2.87153
0
LINE
8
BLACK
6
CONTINUOUS
10
5.82885
20
-2.87153
11
5.82908
21
-2.87157
0
LINE
8
BLACK
6
CONTINUOUS
10
5.82908
20
-2.87157
11
5.88564
21
-2.87157
0
LINE
8
BLACK
6
CONTINUOUS
10
5.88564
20
-2.87157
11
5.88588
21
-2.87153
0
LINE
8
BLACK
6
CONTINUOUS
10
5.88588
20
-2.87153
11
5.88746
21
-2.87121
0
LINE
8
BLACK
6
CONTINUOUS
10
5.88746
20
-2.87121
11
5.88746
21
-2.87121
0
LINE
8
BLACK
6
CONTINUOUS
10
5.88746
20
-2.87121
11
5.88794
21
-2.87112
0
LINE
8
BLACK
6
CONTINUOUS
10
5.88794
20
-2.87112
11
5.89055
21
-2.86937
0
LINE
8
BLACK
6
CONTINUOUS
10
5.89055
20
-2.86937
11
5.8923
21
-2.86676
0
LINE
8
BLACK
6
CONTINUOUS
10
5.8923
20
-2.86676
11
5.8924
21
-2.86625
0
LINE
8
BLACK
6
CONTINUOUS
10
5.8924
20
-2.86625
11
5.89271
21
-2.8647
0
LINE
8
BLACK
6
CONTINUOUS
10
5.89271
20
-2.8647
11
5.89276
21
-2.86446
0
LINE
8
BLACK
6
CONTINUOUS
10
5.89276
20
-2.86446
11
5.89276
21
-2.8279
0
LINE
8
BLACK
6
CONTINUOUS
10
5.89276
20
-2.8279
11
5.8923
21
-2.8256
0
LINE
8
BLACK
6
CONTINUOUS
10
5.8923
20
-2.8256
11
5.89055
21
-2.82299
0
LINE
8
BLACK
6
CONTINUOUS
10
5.89055
20
-2.82299
11
5.88794
21
-2.82125
0
LINE
8
BLACK
6
CONTINUOUS
10
5.88794
20
-2.82125
11
5.88746
21
-2.82115
0
LINE
8
BLACK
6
CONTINUOUS
10
5.88746
20
-2.82115
11
5.88746
21
-2.82115
0
LINE
8
BLACK
6
CONTINUOUS
10
5.88746
20
-2.82115
11
5.88588
21
-2.82083
0
LINE
8
BLACK
6
CONTINUOUS
10
5.88588
20
-2.82083
11
5.88564
21
-2.82079
0
LINE
8
BLACK
6
CONTINUOUS
10
5.88564
20
-2.82079
11
5.82908
21
-2.82079
0
LINE
8
BLACK
6
CONTINUOUS
10
5.82908
20
-2.82079
11
5.82885
21
-2.82083
0
LINE
8
BLACK
6
CONTINUOUS
10
5.82885
20
-2.82083
11
5.82726
21
-2.82115
0
LINE
8
BLACK
6
CONTINUOUS
10
5.82726
20
-2.82115
11
5.82726
21
-2.82115
0
LINE
8
BLACK
6
CONTINUOUS
10
5.82726
20
-2.82115
11
5.82678
21
-2.82125
0
LINE
8
BLACK
6
CONTINUOUS
10
5.82678
20
-2.82125
11
5.82417
21
-2.82299
0
LINE
8
BLACK
6
CONTINUOUS
10
5.82417
20
-2.82299
11
5.82243
21
-2.8256
0
LINE
8
BLACK
6
CONTINUOUS
10
5.82243
20
-2.8256
11
5.82226
21
-2.82642
0
LINE
8
BLACK
6
CONTINUOUS
10
5.82226
20
-2.82642
11
5.82097
21
-2.8289
0
LINE
8
BLACK
6
CONTINUOUS
10
5.82097
20
-2.8289
11
5.81854
21
-2.83028
0
LINE
8
BLACK
6
CONTINUOUS
10
5.81854
20
-2.83028
11
5.8174
21
-2.83041
0
LINE
8
BLACK
6
CONTINUOUS
10
5.8174
20
-2.83041
11
5.7552
21
-2.83041
0
LINE
8
BLACK
6
CONTINUOUS
10
5.7552
20
-2.83041
11
5.75252
21
-2.82963
0
LINE
8
BLACK
6
CONTINUOUS
10
5.75252
20
-2.82963
11
5.75169
21
-2.82896
0
LINE
8
BLACK
6
CONTINUOUS
10
5.75169
20
-2.82896
11
5.59028
21
-2.66754
0
LINE
8
BLACK
6
CONTINUOUS
10
5.59028
20
-2.66754
11
5.58894
21
-2.66509
0
LINE
8
BLACK
6
CONTINUOUS
10
5.58894
20
-2.66509
11
5.58913
21
-2.6623
0
LINE
8
BLACK
6
CONTINUOUS
10
5.58913
20
-2.6623
11
5.59081
21
-2.66006
0
LINE
8
BLACK
6
CONTINUOUS
10
5.59081
20
-2.66006
11
5.59343
21
-2.65909
0
LINE
8
BLACK
6
CONTINUOUS
10
5.59343
20
-2.65909
11
5.59378
21
-2.65907
0
LINE
8
BLACK
6
CONTINUOUS
10
5.59378
20
-2.65907
11
5.59814
21
-2.65907
0
LINE
8
BLACK
6
CONTINUOUS
10
5.59814
20
-2.65907
11
5.59838
21
-2.65903
0
LINE
8
BLACK
6
CONTINUOUS
10
5.59838
20
-2.65903
11
5.59996
21
-2.65871
0
LINE
8
BLACK
6
CONTINUOUS
10
5.59996
20
-2.65871
11
5.59996
21
-2.65871
0
LINE
8
BLACK
6
CONTINUOUS
10
5.59996
20
-2.65871
11
5.60044
21
-2.65862
0
LINE
8
BLACK
6
CONTINUOUS
10
5.60044
20
-2.65862
11
5.60305
21
-2.65687
0
LINE
8
BLACK
6
CONTINUOUS
10
5.60305
20
-2.65687
11
5.6048
21
-2.65426
0
LINE
8
BLACK
6
CONTINUOUS
10
5.6048
20
-2.65426
11
5.60526
21
-2.65196
0
LINE
8
BLACK
6
CONTINUOUS
10
5.60526
20
-2.65196
11
5.60526
21
-2.59616
0
LINE
8
BLACK
6
CONTINUOUS
10
5.60526
20
-2.59616
11
5.60604
21
-2.59348
0
LINE
8
BLACK
6
CONTINUOUS
10
5.60604
20
-2.59348
11
5.60816
21
-2.59165
0
LINE
8
BLACK
6
CONTINUOUS
10
5.60816
20
-2.59165
11
5.61022
21
-2.5912
0
LINE
8
BLACK
6
CONTINUOUS
10
5.61022
20
-2.5912
11
5.62303
21
-2.5912
0
LINE
8
BLACK
6
CONTINUOUS
10
5.62303
20
-2.5912
11
5.62571
21
-2.59199
0
LINE
8
BLACK
6
CONTINUOUS
10
5.62571
20
-2.59199
11
5.62654
21
-2.59265
0
LINE
8
BLACK
6
CONTINUOUS
10
5.62654
20
-2.59265
11
5.62802
21
-2.59413
0
LINE
8
BLACK
6
CONTINUOUS
10
5.62802
20
-2.59413
11
5.62936
21
-2.59659
0
LINE
8
BLACK
6
CONTINUOUS
10
5.62936
20
-2.59659
11
5.62947
21
-2.59764
0
LINE
8
BLACK
6
CONTINUOUS
10
5.62947
20
-2.59764
11
5.62947
21
-2.65196
0
LINE
8
BLACK
6
CONTINUOUS
10
5.62947
20
-2.65196
11
5.62993
21
-2.65426
0
LINE
8
BLACK
6
CONTINUOUS
10
5.62993
20
-2.65426
11
5.63167
21
-2.65687
0
LINE
8
BLACK
6
CONTINUOUS
10
5.63167
20
-2.65687
11
5.63428
21
-2.65862
0
LINE
8
BLACK
6
CONTINUOUS
10
5.63428
20
-2.65862
11
5.63476
21
-2.65871
0
LINE
8
BLACK
6
CONTINUOUS
10
5.63476
20
-2.65871
11
5.63476
21
-2.65871
0
LINE
8
BLACK
6
CONTINUOUS
10
5.63476
20
-2.65871
11
5.63635
21
-2.65903
0
LINE
8
BLACK
6
CONTINUOUS
10
5.63635
20
-2.65903
11
5.63658
21
-2.65907
0
LINE
8
BLACK
6
CONTINUOUS
10
5.63658
20
-2.65907
11
5.69814
21
-2.65907
0
LINE
8
BLACK
6
CONTINUOUS
10
5.69814
20
-2.65907
11
5.69838
21
-2.65903
0
LINE
8
BLACK
6
CONTINUOUS
10
5.69838
20
-2.65903
11
5.69996
21
-2.65871
0
LINE
8
BLACK
6
CONTINUOUS
10
5.69996
20
-2.65871
11
5.69996
21
-2.65871
0
LINE
8
BLACK
6
CONTINUOUS
10
5.69996
20
-2.65871
11
5.70044
21
-2.65862
0
LINE
8
BLACK
6
CONTINUOUS
10
5.70044
20
-2.65862
11
5.70305
21
-2.65687
0
LINE
8
BLACK
6
CONTINUOUS
10
5.70305
20
-2.65687
11
5.7048
21
-2.65426
0
LINE
8
BLACK
6
CONTINUOUS
10
5.7048
20
-2.65426
11
5.70526
21
-2.65196
0
LINE
8
BLACK
6
CONTINUOUS
10
5.70526
20
-2.65196
11
5.70526
21
-2.5904
0
LINE
8
BLACK
6
CONTINUOUS
10
5.70526
20
-2.5904
11
5.7048
21
-2.5881
0
LINE
8
BLACK
6
CONTINUOUS
10
5.7048
20
-2.5881
11
5.70305
21
-2.58549
0
LINE
8
BLACK
6
CONTINUOUS
10
5.70305
20
-2.58549
11
5.70044
21
-2.58375
0
LINE
8
BLACK
6
CONTINUOUS
10
5.70044
20
-2.58375
11
5.69996
21
-2.58365
0
LINE
8
BLACK
6
CONTINUOUS
10
5.69996
20
-2.58365
11
5.69996
21
-2.58365
0
LINE
8
BLACK
6
CONTINUOUS
10
5.69996
20
-2.58365
11
5.69838
21
-2.58333
0
LINE
8
BLACK
6
CONTINUOUS
10
5.69838
20
-2.58333
11
5.69814
21
-2.58329
0
LINE
8
BLACK
6
CONTINUOUS
10
5.69814
20
-2.58329
11
5.66382
21
-2.58329
0
LINE
8
BLACK
6
CONTINUOUS
10
5.66382
20
-2.58329
11
5.66114
21
-2.5825
0
LINE
8
BLACK
6
CONTINUOUS
10
5.66114
20
-2.5825
11
5.66031
21
-2.58183
0
LINE
8
BLACK
6
CONTINUOUS
10
5.66031
20
-2.58183
11
5.65453
21
-2.57605
0
LINE
8
BLACK
6
CONTINUOUS
10
5.65453
20
-2.57605
11
5.65319
21
-2.57359
0
LINE
8
BLACK
6
CONTINUOUS
10
5.65319
20
-2.57359
11
5.65339
21
-2.57081
0
LINE
8
BLACK
6
CONTINUOUS
10
5.65339
20
-2.57081
11
5.65506
21
-2.56857
0
LINE
8
BLACK
6
CONTINUOUS
10
5.65506
20
-2.56857
11
5.65768
21
-2.56759
0
LINE
8
BLACK
6
CONTINUOUS
10
5.65768
20
-2.56759
11
5.65803
21
-2.56758
0
LINE
8
BLACK
6
CONTINUOUS
10
5.65803
20
-2.56758
11
5.73515
21
-2.56758
0
LINE
8
BLACK
6
CONTINUOUS
10
5.73515
20
-2.56758
11
5.73784
21
-2.56837
0
LINE
8
BLACK
6
CONTINUOUS
10
5.73784
20
-2.56837
11
5.73866
21
-2.56903
0
LINE
8
BLACK
6
CONTINUOUS
10
5.73866
20
-2.56903
11
5.74445
21
-2.57482
0
LINE
8
BLACK
6
CONTINUOUS
10
5.74445
20
-2.57482
11
5.74579
21
-2.57727
0
LINE
8
BLACK
6
CONTINUOUS
10
5.74579
20
-2.57727
11
5.74559
21
-2.58006
0
LINE
8
BLACK
6
CONTINUOUS
10
5.74559
20
-2.58006
11
5.74391
21
-2.5823
0
LINE
8
BLACK
6
CONTINUOUS
10
5.74391
20
-2.5823
11
5.7413
21
-2.58327
0
LINE
8
BLACK
6
CONTINUOUS
10
5.7413
20
-2.58327
11
5.74094
21
-2.58329
0
LINE
8
BLACK
6
CONTINUOUS
10
5.74094
20
-2.58329
11
5.73658
21
-2.58329
0
LINE
8
BLACK
6
CONTINUOUS
10
5.73658
20
-2.58329
11
5.73635
21
-2.58333
0
LINE
8
BLACK
6
CONTINUOUS
10
5.73635
20
-2.58333
11
5.73476
21
-2.58365
0
LINE
8
BLACK
6
CONTINUOUS
10
5.73476
20
-2.58365
11
5.73476
21
-2.58365
0
LINE
8
BLACK
6
CONTINUOUS
10
5.73476
20
-2.58365
11
5.73428
21
-2.58375
0
LINE
8
BLACK
6
CONTINUOUS
10
5.73428
20
-2.58375
11
5.73167
21
-2.58549
0
LINE
8
BLACK
6
CONTINUOUS
10
5.73167
20
-2.58549
11
5.72993
21
-2.5881
0
LINE
8
BLACK
6
CONTINUOUS
10
5.72993
20
-2.5881
11
5.72947
21
-2.5904
0
LINE
8
BLACK
6
CONTINUOUS
10
5.72947
20
-2.5904
11
5.72947
21
-2.65196
0
LINE
8
BLACK
6
CONTINUOUS
10
5.72947
20
-2.65196
11
5.72993
21
-2.65426
0
LINE
8
BLACK
6
CONTINUOUS
10
5.72993
20
-2.65426
11
5.73167
21
-2.65687
0
LINE
8
BLACK
6
CONTINUOUS
10
5.73167
20
-2.65687
11
5.73428
21
-2.65862
0
LINE
8
BLACK
6
CONTINUOUS
10
5.73428
20
-2.65862
11
5.73476
21
-2.65871
0
LINE
8
BLACK
6
CONTINUOUS
10
5.73476
20
-2.65871
11
5.73476
21
-2.65871
0
LINE
8
BLACK
6
CONTINUOUS
10
5.73476
20
-2.65871
11
5.73635
21
-2.65903
0
LINE
8
BLACK
6
CONTINUOUS
10
5.73635
20
-2.65903
11
5.73658
21
-2.65907
0
LINE
8
BLACK
6
CONTINUOUS
10
5.73658
20
-2.65907
11
5.79814
21
-2.65907
0
LINE
8
BLACK
6
CONTINUOUS
10
5.79814
20
-2.65907
11
5.79838
21
-2.65903
0
LINE
8
BLACK
6
CONTINUOUS
10
5.79838
20
-2.65903
11
5.79996
21
-2.65871
0
LINE
8
BLACK
6
CONTINUOUS
10
5.79996
20
-2.65871
11
5.79996
21
-2.65871
0
LINE
8
BLACK
6
CONTINUOUS
10
5.79996
20
-2.65871
11
5.80044
21
-2.65862
0
LINE
8
BLACK
6
CONTINUOUS
10
5.80044
20
-2.65862
11
5.80305
21
-2.65687
0
LINE
8
BLACK
6
CONTINUOUS
10
5.80305
20
-2.65687
11
5.8048
21
-2.65426
0
LINE
8
BLACK
6
CONTINUOUS
10
5.8048
20
-2.65426
11
5.80526
21
-2.65196
0
LINE
8
BLACK
6
CONTINUOUS
10
5.80526
20
-2.65196
11
5.80526
21
-2.5904
0
LINE
8
BLACK
6
CONTINUOUS
10
5.80526
20
-2.5904
11
5.8048
21
-2.5881
0
LINE
8
BLACK
6
CONTINUOUS
10
5.8048
20
-2.5881
11
5.80305
21
-2.58549
0
LINE
8
BLACK
6
CONTINUOUS
10
5.80305
20
-2.58549
11
5.80044
21
-2.58375
0
LINE
8
BLACK
6
CONTINUOUS
10
5.80044
20
-2.58375
11
5.79996
21
-2.58365
0
LINE
8
BLACK
6
CONTINUOUS
10
5.79996
20
-2.58365
11
5.79996
21
-2.58365
0
LINE
8
BLACK
6
CONTINUOUS
10
5.79996
20
-2.58365
11
5.79838
21
-2.58333
0
LINE
8
BLACK
6
CONTINUOUS
10
5.79838
20
-2.58333
11
5.79814
21
-2.58329
0
LINE
8
BLACK
6
CONTINUOUS
10
5.79814
20
-2.58329
11
5.78809
21
-2.58329
0
LINE
8
BLACK
6
CONTINUOUS
10
5.78809
20
-2.58329
11
5.78541
21
-2.5825
0
LINE
8
BLACK
6
CONTINUOUS
10
5.78541
20
-2.5825
11
5.78358
21
-2.58039
0
LINE
8
BLACK
6
CONTINUOUS
10
5.78358
20
-2.58039
11
5.78313
21
-2.57833
0
LINE
8
BLACK
6
CONTINUOUS
10
5.78313
20
-2.57833
11
5.78313
21
-2.57294
0
LINE
8
BLACK
6
CONTINUOUS
10
5.78313
20
-2.57294
11
5.78301
21
-2.57256
0
LINE
8
BLACK
6
CONTINUOUS
10
5.78301
20
-2.57256
11
5.78301
21
-2.57256
0
LINE
8
BLACK
6
CONTINUOUS
10
5.78301
20
-2.57256
11
5.78286
21
-2.57211
0
LINE
8
BLACK
6
CONTINUOUS
10
5.78286
20
-2.57211
11
5.78268
21
-2.57136
0
LINE
8
BLACK
6
CONTINUOUS
10
5.78268
20
-2.57136
11
5.78261
21
-2.57089
0
LINE
8
BLACK
6
CONTINUOUS
10
5.78261
20
-2.57089
11
5.78261
21
-2.57089
0
LINE
8
BLACK
6
CONTINUOUS
10
5.78261
20
-2.57089
11
5.78255
21
-2.5705
0
LINE
8
BLACK
6
CONTINUOUS
10
5.78255
20
-2.5705
11
5.78237
21
-2.57015
0
LINE
8
BLACK
6
CONTINUOUS
10
5.78237
20
-2.57015
11
5.78237
21
-2.57015
0
LINE
8
BLACK
6
CONTINUOUS
10
5.78237
20
-2.57015
11
5.78215
21
-2.56973
0
LINE
8
BLACK
6
CONTINUOUS
10
5.78215
20
-2.56973
11
5.78185
21
-2.56901
0
LINE
8
BLACK
6
CONTINUOUS
10
5.78185
20
-2.56901
11
5.78171
21
-2.56856
0
LINE
8
BLACK
6
CONTINUOUS
10
5.78171
20
-2.56856
11
5.78159
21
-2.56819
0
LINE
8
BLACK
6
CONTINUOUS
10
5.78159
20
-2.56819
11
5.78108
21
-2.56748
0
LINE
8
BLACK
6
CONTINUOUS
10
5.78108
20
-2.56748
11
5.78067
21
-2.56682
0
LINE
8
BLACK
6
CONTINUOUS
10
5.78067
20
-2.56682
11
5.78045
21
-2.5664
0
LINE
8
BLACK
6
CONTINUOUS
10
5.78045
20
-2.5664
11
5.78045
21
-2.5664
0
LINE
8
BLACK
6
CONTINUOUS
10
5.78045
20
-2.5664
11
5.78028
21
-2.56605
0
LINE
8
BLACK
6
CONTINUOUS
10
5.78028
20
-2.56605
11
5.77939
21
-2.56516
0
LINE
8
BLACK
6
CONTINUOUS
10
5.77939
20
-2.56516
11
5.77939
21
-2.56516
0
LINE
8
BLACK
6
CONTINUOUS
10
5.77939
20
-2.56516
11
5.75401
21
-2.53978
0
LINE
8
BLACK
6
CONTINUOUS
10
5.75401
20
-2.53978
11
5.75401
21
-2.53978
0
LINE
8
BLACK
6
CONTINUOUS
10
5.75401
20
-2.53978
11
5.75312
21
-2.5389
0
LINE
8
BLACK
6
CONTINUOUS
10
5.75312
20
-2.5389
11
5.75235
21
-2.5385
0
LINE
8
BLACK
6
CONTINUOUS
10
5.75235
20
-2.5385
11
5.75169
21
-2.5381
0
LINE
8
BLACK
6
CONTINUOUS
10
5.75169
20
-2.5381
11
5.75099
21
-2.53759
0
LINE
8
BLACK
6
CONTINUOUS
10
5.75099
20
-2.53759
11
5.75016
21
-2.53732
0
LINE
8
BLACK
6
CONTINUOUS
10
5.75016
20
-2.53732
11
5.74944
21
-2.53702
0
LINE
8
BLACK
6
CONTINUOUS
10
5.74944
20
-2.53702
11
5.74902
21
-2.5368
0
LINE
8
BLACK
6
CONTINUOUS
10
5.74902
20
-2.5368
11
5.74902
21
-2.5368
0
LINE
8
BLACK
6
CONTINUOUS
10
5.74902
20
-2.5368
11
5.74867
21
-2.53663
0
LINE
8
BLACK
6
CONTINUOUS
10
5.74867
20
-2.53663
11
5.74829
21
-2.53657
0
LINE
8
BLACK
6
CONTINUOUS
10
5.74829
20
-2.53657
11
5.74829
21
-2.53657
0
LINE
8
BLACK
6
CONTINUOUS
10
5.74829
20
-2.53657
11
5.74782
21
-2.53649
0
LINE
8
BLACK
6
CONTINUOUS
10
5.74782
20
-2.53649
11
5.74706
21
-2.53631
0
LINE
8
BLACK
6
CONTINUOUS
10
5.74706
20
-2.53631
11
5.74661
21
-2.53616
0
LINE
8
BLACK
6
CONTINUOUS
10
5.74661
20
-2.53616
11
5.74661
21
-2.53616
0
LINE
8
BLACK
6
CONTINUOUS
10
5.74661
20
-2.53616
11
5.74624
21
-2.53604
0
LINE
8
BLACK
6
CONTINUOUS
10
5.74624
20
-2.53604
11
5.41374
21
-2.53604
0
LINE
8
BLACK
6
CONTINUOUS
10
5.41374
20
-2.53604
11
5.41374
21
-2.53604
0
LINE
8
BLACK
6
CONTINUOUS
10
5.41374
20
-2.53604
11
5.41248
21
-2.53604
0
LINE
8
BLACK
6
CONTINUOUS
10
5.41248
20
-2.53604
11
5.41211
21
-2.53616
0
LINE
8
BLACK
6
CONTINUOUS
10
5.41211
20
-2.53616
11
5.41211
21
-2.53616
0
LINE
8
BLACK
6
CONTINUOUS
10
5.41211
20
-2.53616
11
5.41166
21
-2.53631
0
LINE
8
BLACK
6
CONTINUOUS
10
5.41166
20
-2.53631
11
5.4109
21
-2.53649
0
LINE
8
BLACK
6
CONTINUOUS
10
5.4109
20
-2.53649
11
5.41043
21
-2.53657
0
LINE
8
BLACK
6
CONTINUOUS
10
5.41043
20
-2.53657
11
5.41043
21
-2.53657
0
LINE
8
BLACK
6
CONTINUOUS
10
5.41043
20
-2.53657
11
5.41005
21
-2.53663
0
LINE
8
BLACK
6
CONTINUOUS
10
5.41005
20
-2.53663
11
5.4097
21
-2.5368
0
LINE
8
BLACK
6
CONTINUOUS
10
5.4097
20
-2.5368
11
5.4097
21
-2.5368
0
LINE
8
BLACK
6
CONTINUOUS
10
5.4097
20
-2.5368
11
5.40927
21
-2.53702
0
LINE
8
BLACK
6
CONTINUOUS
10
5.40927
20
-2.53702
11
5.40856
21
-2.53732
0
LINE
8
BLACK
6
CONTINUOUS
10
5.40856
20
-2.53732
11
5.40773
21
-2.53759
0
LINE
8
BLACK
6
CONTINUOUS
10
5.40773
20
-2.53759
11
5.40714
21
-2.53802
0
LINE
8
BLACK
6
CONTINUOUS
10
5.40714
20
-2.53802
11
5.40703
21
-2.5381
0
LINE
8
BLACK
6
CONTINUOUS
10
5.40703
20
-2.5381
11
5.40637
21
-2.5385
0
LINE
8
BLACK
6
CONTINUOUS
10
5.40637
20
-2.5385
11
5.40594
21
-2.53872
0
LINE
8
BLACK
6
CONTINUOUS
10
5.40594
20
-2.53872
11
5.40594
21
-2.53872
0
LINE
8
BLACK
6
CONTINUOUS
10
5.40594
20
-2.53872
11
5.4056
21
-2.5389
0
LINE
8
BLACK
6
CONTINUOUS
10
5.4056
20
-2.5389
11
5.40471
21
-2.53978
0
LINE
8
BLACK
6
CONTINUOUS
10
5.40471
20
-2.53978
11
5.24534
21
-2.69916
0
LINE
8
BLACK
6
CONTINUOUS
10
5.24534
20
-2.69916
11
5.24534
21
-2.69916
0
LINE
8
BLACK
6
CONTINUOUS
10
5.24534
20
-2.69916
11
5.24445
21
-2.70004
0
LINE
8
BLACK
6
CONTINUOUS
10
5.24445
20
-2.70004
11
5.24427
21
-2.70039
0
LINE
8
BLACK
6
CONTINUOUS
10
5.24427
20
-2.70039
11
5.24405
21
-2.70082
0
LINE
8
BLACK
6
CONTINUOUS
10
5.24405
20
-2.70082
11
5.24365
21
-2.70148
0
LINE
8
BLACK
6
CONTINUOUS
10
5.24365
20
-2.70148
11
5.24314
21
-2.70218
0
LINE
8
BLACK
6
CONTINUOUS
10
5.24314
20
-2.70218
11
5.24287
21
-2.703
0
LINE
8
BLACK
6
CONTINUOUS
10
5.24287
20
-2.703
11
5.24257
21
-2.70372
0
LINE
8
BLACK
6
CONTINUOUS
10
5.24257
20
-2.70372
11
5.24236
21
-2.70415
0
LINE
8
BLACK
6
CONTINUOUS
10
5.24236
20
-2.70415
11
5.24236
21
-2.70415
0
LINE
8
BLACK
6
CONTINUOUS
10
5.24236
20
-2.70415
11
5.24218
21
-2.70449
0
LINE
8
BLACK
6
CONTINUOUS
10
5.24218
20
-2.70449
11
5.24212
21
-2.70488
0
LINE
8
BLACK
6
CONTINUOUS
10
5.24212
20
-2.70488
11
5.24212
21
-2.70488
0
LINE
8
BLACK
6
CONTINUOUS
10
5.24212
20
-2.70488
11
5.24204
21
-2.70535
0
LINE
8
BLACK
6
CONTINUOUS
10
5.24204
20
-2.70535
11
5.24186
21
-2.70611
0
LINE
8
BLACK
6
CONTINUOUS
10
5.24186
20
-2.70611
11
5.24172
21
-2.70656
0
LINE
8
BLACK
6
CONTINUOUS
10
5.24172
20
-2.70656
11
5.24172
21
-2.70656
0
LINE
8
BLACK
6
CONTINUOUS
10
5.24172
20
-2.70656
11
5.24159
21
-2.70693
0
LINE
8
BLACK
6
CONTINUOUS
10
5.24159
20
-2.70693
11
5.24159
21
-2.81583
0
LINE
8
BLACK
6
CONTINUOUS
10
5.24159
20
-2.81583
11
5.24081
21
-2.81851
0
LINE
8
BLACK
6
CONTINUOUS
10
5.24081
20
-2.81851
11
5.23869
21
-2.82034
0
LINE
8
BLACK
6
CONTINUOUS
10
5.23869
20
-2.82034
11
5.23663
21
-2.82079
0
LINE
8
BLACK
6
CONTINUOUS
10
5.23663
20
-2.82079
11
5.22908
21
-2.82079
0
LINE
8
BLACK
6
CONTINUOUS
10
5.22908
20
-2.82079
11
5.22885
21
-2.82083
0
LINE
8
BLACK
6
CONTINUOUS
10
5.22885
20
-2.82083
11
5.22726
21
-2.82115
0
LINE
8
BLACK
6
CONTINUOUS
10
5.22726
20
-2.82115
11
5.22726
21
-2.82115
0
LINE
8
BLACK
6
CONTINUOUS
10
5.22726
20
-2.82115
11
5.22678
21
-2.82125
0
LINE
8
BLACK
6
CONTINUOUS
10
5.22678
20
-2.82125
11
5.22417
21
-2.82299
0
LINE
8
BLACK
6
CONTINUOUS
10
5.22417
20
-2.82299
11
5.22243
21
-2.8256
0
LINE
8
BLACK
6
CONTINUOUS
10
5.22243
20
-2.8256
11
5.22197
21
-2.8279
0
LINE
8
BLACK
6
CONTINUOUS
10
5.22197
20
-2.8279
11
5.22197
21
-2.86446
0
LINE
8
BLACK
6
CONTINUOUS
10
5.22197
20
-2.86446
11
5.22202
21
-2.8647
0
LINE
8
BLACK
6
CONTINUOUS
10
5.22202
20
-2.8647
11
5.22232
21
-2.86625
0
LINE
8
BLACK
6
CONTINUOUS
10
5.94744
20
-3.04748
11
5.9002
21
-3.04748
0
LINE
8
BLACK
6
CONTINUOUS
10
5.9002
20
-3.04748
11
5.9002
21
-2.98449
0
LINE
8
BLACK
6
CONTINUOUS
10
5.9002
20
-2.98449
11
5.94744
21
-2.98449
0
LINE
8
BLACK
6
CONTINUOUS
10
5.94744
20
-2.98449
11
5.94744
21
-3.04748
0
LINE
8
BLACK
6
CONTINUOUS
10
5.88486
20
-2.93868
11
5.86083
21
-2.93868
0
LINE
8
BLACK
6
CONTINUOUS
10
5.86083
20
-2.93868
11
5.86083
21
-2.98449
0
LINE
8
BLACK
6
CONTINUOUS
10
5.86083
20
-2.98449
11
5.87657
21
-2.98449
0
LINE
8
BLACK
6
CONTINUOUS
10
5.87657
20
-2.98449
11
5.87657
21
-3.04748
0
LINE
8
BLACK
6
CONTINUOUS
10
5.87657
20
-3.04748
11
5.82933
21
-3.04748
0
LINE
8
BLACK
6
CONTINUOUS
10
5.82933
20
-3.04748
11
5.82933
21
-2.98449
0
LINE
8
BLACK
6
CONTINUOUS
10
5.82933
20
-2.98449
11
5.84508
21
-2.98449
0
LINE
8
BLACK
6
CONTINUOUS
10
5.84508
20
-2.98449
11
5.84508
21
-2.93868
0
LINE
8
BLACK
6
CONTINUOUS
10
5.84508
20
-2.93868
11
5.82986
21
-2.93868
0
LINE
8
BLACK
6
CONTINUOUS
10
5.82986
20
-2.93868
11
5.82986
21
-2.90368
0
LINE
8
BLACK
6
CONTINUOUS
10
5.82986
20
-2.90368
11
5.88486
21
-2.90368
0
LINE
8
BLACK
6
CONTINUOUS
10
5.88486
20
-2.90368
11
5.88486
21
-2.93868
0
LINE
8
BLACK
6
CONTINUOUS
10
5.68486
20
-2.93868
11
5.66673
21
-2.93868
0
LINE
8
BLACK
6
CONTINUOUS
10
5.66673
20
-2.93868
11
5.66673
21
-2.98449
0
LINE
8
BLACK
6
CONTINUOUS
10
5.66673
20
-2.98449
11
5.68248
21
-2.98449
0
LINE
8
BLACK
6
CONTINUOUS
10
5.68248
20
-2.98449
11
5.68248
21
-3.04748
0
LINE
8
BLACK
6
CONTINUOUS
10
5.68248
20
-3.04748
11
5.63524
21
-3.04748
0
LINE
8
BLACK
6
CONTINUOUS
10
5.63524
20
-3.04748
11
5.63524
21
-2.98449
0
LINE
8
BLACK
6
CONTINUOUS
10
5.63524
20
-2.98449
11
5.65098
21
-2.98449
0
LINE
8
BLACK
6
CONTINUOUS
10
5.65098
20
-2.98449
11
5.65098
21
-2.93868
0
LINE
8
BLACK
6
CONTINUOUS
10
5.65098
20
-2.93868
11
5.62986
21
-2.93868
0
LINE
8
BLACK
6
CONTINUOUS
10
5.62986
20
-2.93868
11
5.62986
21
-2.90368
0
LINE
8
BLACK
6
CONTINUOUS
10
5.62986
20
-2.90368
11
5.68486
21
-2.90368
0
LINE
8
BLACK
6
CONTINUOUS
10
5.68486
20
-2.90368
11
5.68486
21
-2.93868
0
LINE
8
BLACK
6
CONTINUOUS
10
5.56986
20
-2.78937
11
5.58718
21
-2.78937
0
LINE
8
BLACK
6
CONTINUOUS
10
5.58718
20
-2.78937
11
5.58811
21
-2.78844
0
LINE
8
BLACK
6
CONTINUOUS
10
5.58811
20
-2.78844
11
5.5925
21
-2.7862
0
LINE
8
BLACK
6
CONTINUOUS
10
5.5925
20
-2.7862
11
5.59736
21
-2.78543
0
LINE
8
BLACK
6
CONTINUOUS
10
5.59736
20
-2.78543
11
5.60223
21
-2.7862
0
LINE
8
BLACK
6
CONTINUOUS
10
5.60223
20
-2.7862
11
5.60662
21
-2.78844
0
LINE
8
BLACK
6
CONTINUOUS
10
5.60662
20
-2.78844
11
5.6101
21
-2.79192
0
LINE
8
BLACK
6
CONTINUOUS
10
5.6101
20
-2.79192
11
5.61234
21
-2.79631
0
LINE
8
BLACK
6
CONTINUOUS
10
5.61234
20
-2.79631
11
5.61311
21
-2.80118
0
LINE
8
BLACK
6
CONTINUOUS
10
5.61311
20
-2.80118
11
5.61234
21
-2.80605
0
LINE
8
BLACK
6
CONTINUOUS
10
5.61234
20
-2.80605
11
5.6101
21
-2.81044
0
LINE
8
BLACK
6
CONTINUOUS
10
5.6101
20
-2.81044
11
5.60662
21
-2.81392
0
LINE
8
BLACK
6
CONTINUOUS
10
5.60662
20
-2.81392
11
5.60223
21
-2.81616
0
LINE
8
BLACK
6
CONTINUOUS
10
5.60223
20
-2.81616
11
5.59736
21
-2.81693
0
LINE
8
BLACK
6
CONTINUOUS
10
5.59736
20
-2.81693
11
5.5925
21
-2.81616
0
LINE
8
BLACK
6
CONTINUOUS
10
5.5925
20
-2.81616
11
5.58811
21
-2.81392
0
LINE
8
BLACK
6
CONTINUOUS
10
5.58811
20
-2.81392
11
5.58718
21
-2.81299
0
LINE
8
BLACK
6
CONTINUOUS
10
5.58718
20
-2.81299
11
5.56986
21
-2.81299
0
LINE
8
BLACK
6
CONTINUOUS
10
5.56986
20
-2.81299
11
5.56986
21
-2.82868
0
LINE
8
BLACK
6
CONTINUOUS
10
5.56986
20
-2.82868
11
5.56024
21
-2.82868
0
LINE
8
BLACK
6
CONTINUOUS
10
5.56024
20
-2.82868
11
5.56024
21
-2.87368
0
LINE
8
BLACK
6
CONTINUOUS
10
5.56024
20
-2.87368
11
5.56986
21
-2.87368
0
LINE
8
BLACK
6
CONTINUOUS
10
5.56986
20
-2.87368
11
5.56986
21
-2.92868
0
LINE
8
BLACK
6
CONTINUOUS
10
5.56986
20
-2.92868
11
5.56831
21
-2.92868
0
LINE
8
BLACK
6
CONTINUOUS
10
5.56831
20
-2.92868
11
5.56831
21
-2.98449
0
LINE
8
BLACK
6
CONTINUOUS
10
5.56831
20
-2.98449
11
5.58406
21
-2.98449
0
LINE
8
BLACK
6
CONTINUOUS
10
5.58406
20
-2.98449
11
5.58406
21
-3.04748
0
LINE
8
BLACK
6
CONTINUOUS
10
5.58406
20
-3.04748
11
5.53681
21
-3.04748
0
LINE
8
BLACK
6
CONTINUOUS
10
5.53681
20
-3.04748
11
5.53681
21
-2.98449
0
LINE
8
BLACK
6
CONTINUOUS
10
5.53681
20
-2.98449
11
5.55256
21
-2.98449
0
LINE
8
BLACK
6
CONTINUOUS
10
5.55256
20
-2.98449
11
5.55256
21
-2.92868
0
LINE
8
BLACK
6
CONTINUOUS
10
5.55256
20
-2.92868
11
5.53486
21
-2.92868
0
LINE
8
BLACK
6
CONTINUOUS
10
5.53486
20
-2.92868
11
5.53486
21
-2.87368
0
LINE
8
BLACK
6
CONTINUOUS
10
5.53486
20
-2.87368
11
5.54449
21
-2.87368
0
LINE
8
BLACK
6
CONTINUOUS
10
5.54449
20
-2.87368
11
5.54449
21
-2.82868
0
LINE
8
BLACK
6
CONTINUOUS
10
5.54449
20
-2.82868
11
5.53486
21
-2.82868
0
LINE
8
BLACK
6
CONTINUOUS
10
5.53486
20
-2.82868
11
5.53486
21
-2.77368
0
LINE
8
BLACK
6
CONTINUOUS
10
5.53486
20
-2.77368
11
5.56986
21
-2.77368
0
LINE
8
BLACK
6
CONTINUOUS
10
5.56986
20
-2.77368
11
5.56986
21
-2.78937
0
LINE
8
BLACK
6
CONTINUOUS
10
5.28486
20
-2.93868
11
5.27303
21
-2.93868
0
LINE
8
BLACK
6
CONTINUOUS
10
5.27303
20
-2.93868
11
5.27303
21
-2.98449
0
LINE
8
BLACK
6
CONTINUOUS
10
5.27303
20
-2.98449
11
5.28878
21
-2.98449
0
LINE
8
BLACK
6
CONTINUOUS
10
5.28878
20
-2.98449
11
5.28878
21
-3.04748
0
LINE
8
BLACK
6
CONTINUOUS
10
5.28878
20
-3.04748
11
5.24154
21
-3.04748
0
LINE
8
BLACK
6
CONTINUOUS
10
5.24154
20
-3.04748
11
5.24154
21
-2.98449
0
LINE
8
BLACK
6
CONTINUOUS
10
5.24154
20
-2.98449
11
5.25728
21
-2.98449
0
LINE
8
BLACK
6
CONTINUOUS
10
5.25728
20
-2.98449
11
5.25728
21
-2.93868
0
LINE
8
BLACK
6
CONTINUOUS
10
5.25728
20
-2.93868
11
5.22986
21
-2.93868
0
LINE
8
BLACK
6
CONTINUOUS
10
5.22986
20
-2.93868
11
5.22986
21
-2.90368
0
LINE
8
BLACK
6
CONTINUOUS
10
5.22986
20
-2.90368
11
5.28486
21
-2.90368
0
LINE
8
BLACK
6
CONTINUOUS
10
5.28486
20
-2.90368
11
5.28486
21
-2.93868
0
LINE
8
BLACK
6
CONTINUOUS
10
5.38486
20
-2.93868
11
5.37146
21
-2.93868
0
LINE
8
BLACK
6
CONTINUOUS
10
5.37146
20
-2.93868
11
5.37146
21
-2.98449
0
LINE
8
BLACK
6
CONTINUOUS
10
5.37146
20
-2.98449
11
5.3872
21
-2.98449
0
LINE
8
BLACK
6
CONTINUOUS
10
5.3872
20
-2.98449
11
5.3872
21
-3.04748
0
LINE
8
BLACK
6
CONTINUOUS
10
5.3872
20
-3.04748
11
5.33996
21
-3.04748
0
LINE
8
BLACK
6
CONTINUOUS
10
5.33996
20
-3.04748
11
5.33996
21
-2.98449
0
LINE
8
BLACK
6
CONTINUOUS
10
5.33996
20
-2.98449
11
5.35571
21
-2.98449
0
LINE
8
BLACK
6
CONTINUOUS
10
5.35571
20
-2.98449
11
5.35571
21
-2.93868
0
LINE
8
BLACK
6
CONTINUOUS
10
5.35571
20
-2.93868
11
5.32986
21
-2.93868
0
LINE
8
BLACK
6
CONTINUOUS
10
5.32986
20
-2.93868
11
5.32986
21
-2.90368
0
LINE
8
BLACK
6
CONTINUOUS
10
5.32986
20
-2.90368
11
5.38486
21
-2.90368
0
LINE
8
BLACK
6
CONTINUOUS
10
5.38486
20
-2.90368
11
5.38486
21
-2.93868
0
LINE
8
BLACK
6
CONTINUOUS
10
5.49736
20
-2.6418
11
5.66294
21
-2.80738
0
LINE
8
BLACK
6
CONTINUOUS
10
5.66294
20
-2.80738
11
5.66364
21
-2.80849
0
LINE
8
BLACK
6
CONTINUOUS
10
5.66364
20
-2.80849
11
5.66446
21
-2.80952
0
LINE
8
BLACK
6
CONTINUOUS
10
5.66446
20
-2.80952
11
5.66456
21
-2.80996
0
LINE
8
BLACK
6
CONTINUOUS
10
5.66456
20
-2.80996
11
5.6648
21
-2.81034
0
LINE
8
BLACK
6
CONTINUOUS
10
5.6648
20
-2.81034
11
5.66494
21
-2.81165
0
LINE
8
BLACK
6
CONTINUOUS
10
5.66494
20
-2.81165
11
5.66524
21
-2.81293
0
LINE
8
BLACK
6
CONTINUOUS
10
5.66524
20
-2.81293
11
5.66524
21
-2.82868
0
LINE
8
BLACK
6
CONTINUOUS
10
5.66524
20
-2.82868
11
5.68486
21
-2.82868
0
LINE
8
BLACK
6
CONTINUOUS
10
5.68486
20
-2.82868
11
5.68486
21
-2.86368
0
LINE
8
BLACK
6
CONTINUOUS
10
5.68486
20
-2.86368
11
5.62986
21
-2.86368
0
LINE
8
BLACK
6
CONTINUOUS
10
5.62986
20
-2.86368
11
5.62986
21
-2.82868
0
LINE
8
BLACK
6
CONTINUOUS
10
5.62986
20
-2.82868
11
5.64949
21
-2.82868
0
LINE
8
BLACK
6
CONTINUOUS
10
5.64949
20
-2.82868
11
5.64949
21
-2.81619
0
LINE
8
BLACK
6
CONTINUOUS
10
5.64949
20
-2.81619
11
5.48447
21
-2.65118
0
LINE
8
BLACK
6
CONTINUOUS
10
5.48447
20
-2.65118
11
5.43736
21
-2.65118
0
LINE
8
BLACK
6
CONTINUOUS
10
5.43736
20
-2.65118
11
5.43736
21
-2.59118
0
LINE
8
BLACK
6
CONTINUOUS
10
5.43736
20
-2.59118
11
5.49736
21
-2.59118
0
LINE
8
BLACK
6
CONTINUOUS
10
5.49736
20
-2.59118
11
5.49736
21
-2.6418
0
LINE
8
BLACK
6
CONTINUOUS
10
5.63291
20
-2.56785
11
5.63422
21
-2.568
0
LINE
8
BLACK
6
CONTINUOUS
10
5.63422
20
-2.568
11
5.6346
21
-2.56824
0
LINE
8
BLACK
6
CONTINUOUS
10
5.6346
20
-2.56824
11
5.63504
21
-2.56834
0
LINE
8
BLACK
6
CONTINUOUS
10
5.63504
20
-2.56834
11
5.63607
21
-2.56917
0
LINE
8
BLACK
6
CONTINUOUS
10
5.63607
20
-2.56917
11
5.63718
21
-2.56987
0
LINE
8
BLACK
6
CONTINUOUS
10
5.63718
20
-2.56987
11
5.6585
21
-2.59118
0
LINE
8
BLACK
6
CONTINUOUS
10
5.6585
20
-2.59118
11
5.69736
21
-2.59118
0
LINE
8
BLACK
6
CONTINUOUS
10
5.69736
20
-2.59118
11
5.69736
21
-2.65118
0
LINE
8
BLACK
6
CONTINUOUS
10
5.69736
20
-2.65118
11
5.63736
21
-2.65118
0
LINE
8
BLACK
6
CONTINUOUS
10
5.63736
20
-2.65118
11
5.63736
21
-2.59232
0
LINE
8
BLACK
6
CONTINUOUS
10
5.63736
20
-2.59232
11
5.62835
21
-2.58331
0
LINE
8
BLACK
6
CONTINUOUS
10
5.62835
20
-2.58331
11
5.42803
21
-2.58331
0
LINE
8
BLACK
6
CONTINUOUS
10
5.42803
20
-2.58331
11
5.36524
21
-2.6461
0
LINE
8
BLACK
6
CONTINUOUS
10
5.36524
20
-2.6461
11
5.36524
21
-2.82868
0
LINE
8
BLACK
6
CONTINUOUS
10
5.36524
20
-2.82868
11
5.38486
21
-2.82868
0
LINE
8
BLACK
6
CONTINUOUS
10
5.38486
20
-2.82868
11
5.38486
21
-2.86368
0
LINE
8
BLACK
6
CONTINUOUS
10
5.38486
20
-2.86368
11
5.32986
21
-2.86368
0
LINE
8
BLACK
6
CONTINUOUS
10
5.32986
20
-2.86368
11
5.32986
21
-2.82868
0
LINE
8
BLACK
6
CONTINUOUS
10
5.32986
20
-2.82868
11
5.34949
21
-2.82868
0
LINE
8
BLACK
6
CONTINUOUS
10
5.34949
20
-2.82868
11
5.34949
21
-2.64282
0
LINE
8
BLACK
6
CONTINUOUS
10
5.34949
20
-2.64282
11
5.34978
21
-2.64154
0
LINE
8
BLACK
6
CONTINUOUS
10
5.34978
20
-2.64154
11
5.34993
21
-2.64023
0
LINE
8
BLACK
6
CONTINUOUS
10
5.34993
20
-2.64023
11
5.35017
21
-2.63985
0
LINE
8
BLACK
6
CONTINUOUS
10
5.35017
20
-2.63985
11
5.35027
21
-2.63941
0
LINE
8
BLACK
6
CONTINUOUS
10
5.35027
20
-2.63941
11
5.35109
21
-2.63838
0
LINE
8
BLACK
6
CONTINUOUS
10
5.35109
20
-2.63838
11
5.35179
21
-2.63727
0
LINE
8
BLACK
6
CONTINUOUS
10
5.35179
20
-2.63727
11
5.41921
21
-2.56986
0
LINE
8
BLACK
6
CONTINUOUS
10
5.41921
20
-2.56986
11
5.42032
21
-2.56916
0
LINE
8
BLACK
6
CONTINUOUS
10
5.42032
20
-2.56916
11
5.42135
21
-2.56834
0
LINE
8
BLACK
6
CONTINUOUS
10
5.42135
20
-2.56834
11
5.42179
21
-2.56824
0
LINE
8
BLACK
6
CONTINUOUS
10
5.42179
20
-2.56824
11
5.42217
21
-2.568
0
LINE
8
BLACK
6
CONTINUOUS
10
5.42217
20
-2.568
11
5.42348
21
-2.56785
0
LINE
8
BLACK
6
CONTINUOUS
10
5.42348
20
-2.56785
11
5.42476
21
-2.56756
0
LINE
8
BLACK
6
CONTINUOUS
10
5.42476
20
-2.56756
11
5.63163
21
-2.56756
0
LINE
8
BLACK
6
CONTINUOUS
10
5.63163
20
-2.56756
11
5.63291
21
-2.56785
0
LINE
8
BLACK
6
CONTINUOUS
10
5.59736
20
-2.65118
11
5.57524
21
-2.65118
0
LINE
8
BLACK
6
CONTINUOUS
10
5.57524
20
-2.65118
11
5.57524
21
-2.66367
0
LINE
8
BLACK
6
CONTINUOUS
10
5.57524
20
-2.66367
11
5.74988
21
-2.83831
0
LINE
8
BLACK
6
CONTINUOUS
10
5.74988
20
-2.83831
11
5.82986
21
-2.83831
0
LINE
8
BLACK
6
CONTINUOUS
10
5.82986
20
-2.83831
11
5.82986
21
-2.82868
0
LINE
8
BLACK
6
CONTINUOUS
10
5.82986
20
-2.82868
11
5.88486
21
-2.82868
0
LINE
8
BLACK
6
CONTINUOUS
10
5.88486
20
-2.82868
11
5.88486
21
-2.86368
0
LINE
8
BLACK
6
CONTINUOUS
10
5.88486
20
-2.86368
11
5.82986
21
-2.86368
0
LINE
8
BLACK
6
CONTINUOUS
10
5.82986
20
-2.86368
11
5.82986
21
-2.85406
0
LINE
8
BLACK
6
CONTINUOUS
10
5.82986
20
-2.85406
11
5.7466
21
-2.85406
0
LINE
8
BLACK
6
CONTINUOUS
10
5.7466
20
-2.85406
11
5.74532
21
-2.85376
0
LINE
8
BLACK
6
CONTINUOUS
10
5.74532
20
-2.85376
11
5.74401
21
-2.85361
0
LINE
8
BLACK
6
CONTINUOUS
10
5.74401
20
-2.85361
11
5.74363
21
-2.85337
0
LINE
8
BLACK
6
CONTINUOUS
10
5.74363
20
-2.85337
11
5.74319
21
-2.85327
0
LINE
8
BLACK
6
CONTINUOUS
10
5.74319
20
-2.85327
11
5.74216
21
-2.85245
0
LINE
8
BLACK
6
CONTINUOUS
10
5.74216
20
-2.85245
11
5.74105
21
-2.85175
0
LINE
8
BLACK
6
CONTINUOUS
10
5.74105
20
-2.85175
11
5.56178
21
-2.67249
0
LINE
8
BLACK
6
CONTINUOUS
10
5.56178
20
-2.67249
11
5.56109
21
-2.67137
0
LINE
8
BLACK
6
CONTINUOUS
10
5.56109
20
-2.67137
11
5.56027
21
-2.67034
0
LINE
8
BLACK
6
CONTINUOUS
10
5.56027
20
-2.67034
11
5.56017
21
-2.6699
0
LINE
8
BLACK
6
CONTINUOUS
10
5.56017
20
-2.6699
11
5.55993
21
-2.66952
0
LINE
8
BLACK
6
CONTINUOUS
10
5.55993
20
-2.66952
11
5.55978
21
-2.66821
0
LINE
8
BLACK
6
CONTINUOUS
10
5.55978
20
-2.66821
11
5.55949
21
-2.66693
0
LINE
8
BLACK
6
CONTINUOUS
10
5.55949
20
-2.66693
11
5.55949
21
-2.65118
0
LINE
8
BLACK
6
CONTINUOUS
10
5.55949
20
-2.65118
11
5.53736
21
-2.65118
0
LINE
8
BLACK
6
CONTINUOUS
10
5.53736
20
-2.65118
11
5.53736
21
-2.59118
0
LINE
8
BLACK
6
CONTINUOUS
10
5.53736
20
-2.59118
11
5.59736
21
-2.59118
0
LINE
8
BLACK
6
CONTINUOUS
10
5.59736
20
-2.59118
11
5.59736
21
-2.65118
0
LINE
8
BLACK
6
CONTINUOUS
10
5.89736
20
-2.65118
11
5.83736
21
-2.65118
0
LINE
8
BLACK
6
CONTINUOUS
10
5.83736
20
-2.65118
11
5.83736
21
-2.59118
0
LINE
8
BLACK
6
CONTINUOUS
10
5.83736
20
-2.59118
11
5.89736
21
-2.59118
0
LINE
8
BLACK
6
CONTINUOUS
10
5.89736
20
-2.59118
11
5.89736
21
-2.65118
0
LINE
8
BLACK
6
CONTINUOUS
10
5.19035
20
-3.04748
11
5.14311
21
-3.04748
0
LINE
8
BLACK
6
CONTINUOUS
10
5.14311
20
-3.04748
11
5.14311
21
-2.98449
0
LINE
8
BLACK
6
CONTINUOUS
10
5.14311
20
-2.98449
11
5.19035
21
-2.98449
0
LINE
8
BLACK
6
CONTINUOUS
10
5.19035
20
-2.98449
11
5.19035
21
-3.04748
0
LINE
8
BLACK
6
CONTINUOUS
10
5.74504
20
-2.54423
11
5.74634
21
-2.54438
0
LINE
8
BLACK
6
CONTINUOUS
10
5.74634
20
-2.54438
11
5.74673
21
-2.54462
0
LINE
8
BLACK
6
CONTINUOUS
10
5.74673
20
-2.54462
11
5.74717
21
-2.54472
0
LINE
8
BLACK
6
CONTINUOUS
10
5.74717
20
-2.54472
11
5.74819
21
-2.54554
0
LINE
8
BLACK
6
CONTINUOUS
10
5.74819
20
-2.54554
11
5.74931
21
-2.54624
0
LINE
8
BLACK
6
CONTINUOUS
10
5.74931
20
-2.54624
11
5.77294
21
-2.56988
0
LINE
8
BLACK
6
CONTINUOUS
10
5.77294
20
-2.56988
11
5.77364
21
-2.57099
0
LINE
8
BLACK
6
CONTINUOUS
10
5.77364
20
-2.57099
11
5.77446
21
-2.57202
0
LINE
8
BLACK
6
CONTINUOUS
10
5.77446
20
-2.57202
11
5.77456
21
-2.57246
0
LINE
8
BLACK
6
CONTINUOUS
10
5.77456
20
-2.57246
11
5.7748
21
-2.57284
0
LINE
8
BLACK
6
CONTINUOUS
10
5.7748
20
-2.57284
11
5.77494
21
-2.57415
0
LINE
8
BLACK
6
CONTINUOUS
10
5.77494
20
-2.57415
11
5.77524
21
-2.57543
0
LINE
8
BLACK
6
CONTINUOUS
10
5.77524
20
-2.57543
11
5.77524
21
-2.59118
0
LINE
8
BLACK
6
CONTINUOUS
10
5.77524
20
-2.59118
11
5.79736
21
-2.59118
0
LINE
8
BLACK
6
CONTINUOUS
10
5.79736
20
-2.59118
11
5.79736
21
-2.65118
0
LINE
8
BLACK
6
CONTINUOUS
10
5.79736
20
-2.65118
11
5.73736
21
-2.65118
0
LINE
8
BLACK
6
CONTINUOUS
10
5.73736
20
-2.65118
11
5.73736
21
-2.59118
0
LINE
8
BLACK
6
CONTINUOUS
10
5.73736
20
-2.59118
11
5.75949
21
-2.59118
0
LINE
8
BLACK
6
CONTINUOUS
10
5.75949
20
-2.59118
11
5.75949
21
-2.57869
0
LINE
8
BLACK
6
CONTINUOUS
10
5.75949
20
-2.57869
11
5.74048
21
-2.55968
0
LINE
8
BLACK
6
CONTINUOUS
10
5.74048
20
-2.55968
11
5.41824
21
-2.55968
0
LINE
8
BLACK
6
CONTINUOUS
10
5.41824
20
-2.55968
11
5.26524
21
-2.71269
0
LINE
8
BLACK
6
CONTINUOUS
10
5.26524
20
-2.71269
11
5.26524
21
-2.82868
0
LINE
8
BLACK
6
CONTINUOUS
10
5.26524
20
-2.82868
11
5.28486
21
-2.82868
0
LINE
8
BLACK
6
CONTINUOUS
10
5.28486
20
-2.82868
11
5.28486
21
-2.86368
0
LINE
8
BLACK
6
CONTINUOUS
10
5.28486
20
-2.86368
11
5.22986
21
-2.86368
0
LINE
8
BLACK
6
CONTINUOUS
10
5.22986
20
-2.86368
11
5.22986
21
-2.82868
0
LINE
8
BLACK
6
CONTINUOUS
10
5.22986
20
-2.82868
11
5.24949
21
-2.82868
0
LINE
8
BLACK
6
CONTINUOUS
10
5.24949
20
-2.82868
11
5.24949
21
-2.70941
0
LINE
8
BLACK
6
CONTINUOUS
10
5.24949
20
-2.70941
11
5.24978
21
-2.70813
0
LINE
8
BLACK
6
CONTINUOUS
10
5.24978
20
-2.70813
11
5.24993
21
-2.70682
0
LINE
8
BLACK
6
CONTINUOUS
10
5.24993
20
-2.70682
11
5.25017
21
-2.70644
0
LINE
8
BLACK
6
CONTINUOUS
10
5.25017
20
-2.70644
11
5.25027
21
-2.706
0
LINE
8
BLACK
6
CONTINUOUS
10
5.25027
20
-2.706
11
5.25109
21
-2.70497
0
LINE
8
BLACK
6
CONTINUOUS
10
5.25109
20
-2.70497
11
5.25179
21
-2.70386
0
LINE
8
BLACK
6
CONTINUOUS
10
5.25179
20
-2.70386
11
5.40942
21
-2.54623
0
LINE
8
BLACK
6
CONTINUOUS
10
5.40942
20
-2.54623
11
5.41054
21
-2.54554
0
LINE
8
BLACK
6
CONTINUOUS
10
5.41054
20
-2.54554
11
5.41156
21
-2.54472
0
LINE
8
BLACK
6
CONTINUOUS
10
5.41156
20
-2.54472
11
5.41201
21
-2.54461
0
LINE
8
BLACK
6
CONTINUOUS
10
5.41201
20
-2.54461
11
5.41239
21
-2.54437
0
LINE
8
BLACK
6
CONTINUOUS
10
5.41239
20
-2.54437
11
5.4137
21
-2.54423
0
LINE
8
BLACK
6
CONTINUOUS
10
5.4137
20
-2.54423
11
5.41498
21
-2.54394
0
LINE
8
BLACK
6
CONTINUOUS
10
5.41498
20
-2.54394
11
5.74375
21
-2.54394
0
LINE
8
BLACK
6
CONTINUOUS
10
5.74375
20
-2.54394
11
5.74504
21
-2.54423
0
CIRCLE
8
BLACK
10
5.59736
20
-2.80118
40
0.00787402
  0
ENDSEC
  0
EOF
