  0
SECTION
  2
HEADER
  9
$ANGBASE
  50
0.0
  9
$ANGDIR
  70
1
  9
$MEASUREMENT
  70
0
  0
ENDSEC
  0
SECTION
  2
TABLES
  0
TABLE
  2
LTYPE
  70
4
  0
LTYPE
  5
40F
  2
CONTINUOUS
  70
0
  3
Solid line
  72
65
  73
0
  40
0.0
  0
LTYPE
  5
410
  2
DASHDOT
 70
0
  3
Dash Dot ____ _ ____ _
 72
65
 73
4
 40
2.0
 49
1.25
 49
-0.25
 49
0.25
 49
-0.25
  0
LTYPE
  5
411
  2
DASHED
 70
0
  3
Dashed __ __ __ __ __
 72
65
 73
2
 40
0.75
 49
0.5
 49
-0.25
  0
LTYPE
  5
43B
  2
DOTTED
 70
0
  3
Dotted .  .  .  .
 72
65
 73
2
 40
0.2
 49
0.0
 49
-0.2
  0
ENDTAB
  0
TABLE
  2
STYLE
  70
4
  0
STYLE
  2
KICAD
  70
0
  40
0
  41
1
  42
1
  50
0
  71
0
  3
isocp.shx
  0
STYLE
  2
KICADB
  70
0
  40
0
  41
1
  42
1
  50
0
  71
0
  3
isocp.shx
  0
STYLE
  2
KICADI
  70
0
  40
0
  41
1
  42
1
  50
15
  71
0
  3
isocp.shx
  0
STYLE
  2
KICADBI
  70
0
  40
0
  41
1
  42
1
  50
15
  71
0
  3
isocp.shx
  0
ENDTAB
  0
TABLE
  2
LAYER
  70
1
  0
LAYER
  2
BLACK
  70
0
  62
7
  6
CONTINUOUS
  0
ENDTAB
  0
ENDSEC
  0
SECTION
  2
ENTITIES
0
LINE
8
BLACK
6
CONTINUOUS
10
1.19008
20
0.0170866
11
1.04047
21
0.0170866
0
LINE
8
BLACK
6
CONTINUOUS
10
1.04047
20
0.0170866
11
1.04047
21
0.0564567
0
LINE
8
BLACK
6
CONTINUOUS
10
1.04047
20
0.0564567
11
1.19008
21
0.0564567
0
LINE
8
BLACK
6
CONTINUOUS
10
1.19008
20
0.0564567
11
1.19008
21
0.0170866
0
LINE
8
BLACK
6
CONTINUOUS
10
0.481417
20
0.0170866
11
0.331811
21
0.0170866
0
LINE
8
BLACK
6
CONTINUOUS
10
0.331811
20
0.0170866
11
0.331811
21
0.0564567
0
LINE
8
BLACK
6
CONTINUOUS
10
0.331811
20
0.0564567
11
0.481417
21
0.0564567
0
LINE
8
BLACK
6
CONTINUOUS
10
0.481417
20
0.0564567
11
0.481417
21
0.0170866
0
LINE
8
BLACK
6
CONTINUOUS
10
0.245197
20
0.0170866
11
0.144803
21
0.0170866
0
LINE
8
BLACK
6
CONTINUOUS
10
0.144803
20
0.0170866
11
0.144803
21
0.147008
0
LINE
8
BLACK
6
CONTINUOUS
10
0.144803
20
0.147008
11
0.245197
21
0.147008
0
LINE
8
BLACK
6
CONTINUOUS
10
0.245197
20
0.147008
11
0.245197
21
0.0170866
0
LINE
8
BLACK
6
CONTINUOUS
10
0.953858
20
0.0170866
11
0.804252
21
0.0170866
0
LINE
8
BLACK
6
CONTINUOUS
10
0.804252
20
0.0170866
11
0.804252
21
0.0564567
0
LINE
8
BLACK
6
CONTINUOUS
10
0.804252
20
0.0564567
11
0.953858
21
0.0564567
0
LINE
8
BLACK
6
CONTINUOUS
10
0.953858
20
0.0564567
11
0.953858
21
0.0170866
0
LINE
8
BLACK
6
CONTINUOUS
10
1.37709
20
0.0170866
11
1.27669
21
0.0170866
0
LINE
8
BLACK
6
CONTINUOUS
10
1.27669
20
0.0170866
11
1.27669
21
0.147008
0
LINE
8
BLACK
6
CONTINUOUS
10
1.27669
20
0.147008
11
1.37709
21
0.147008
0
LINE
8
BLACK
6
CONTINUOUS
10
1.37709
20
0.147008
11
1.37709
21
0.0170866
0
LINE
8
BLACK
6
CONTINUOUS
10
0.717638
20
0.0170866
11
0.568031
21
0.0170866
0
LINE
8
BLACK
6
CONTINUOUS
10
0.568031
20
0.0170866
11
0.568031
21
0.0564567
0
LINE
8
BLACK
6
CONTINUOUS
10
0.568031
20
0.0564567
11
0.717638
21
0.0564567
0
LINE
8
BLACK
6
CONTINUOUS
10
0.717638
20
0.0564567
11
0.717638
21
0.0170866
0
LINE
8
BLACK
6
CONTINUOUS
10
0.649705
20
0.181205
11
0.614705
21
0.181205
0
LINE
8
BLACK
6
CONTINUOUS
10
0.614705
20
0.181205
11
0.614705
21
0.236205
0
LINE
8
BLACK
6
CONTINUOUS
10
0.614705
20
0.236205
11
0.649705
21
0.236205
0
LINE
8
BLACK
6
CONTINUOUS
10
0.649705
20
0.236205
11
0.649705
21
0.181205
0
LINE
8
BLACK
6
CONTINUOUS
10
0.724705
20
0.181205
11
0.689705
21
0.181205
0
LINE
8
BLACK
6
CONTINUOUS
10
0.689705
20
0.181205
11
0.689705
21
0.236205
0
LINE
8
BLACK
6
CONTINUOUS
10
0.689705
20
0.236205
11
0.724705
21
0.236205
0
LINE
8
BLACK
6
CONTINUOUS
10
0.724705
20
0.236205
11
0.724705
21
0.181205
0
LINE
8
BLACK
6
CONTINUOUS
10
0.902236
20
0.216205
11
0.847236
21
0.216205
0
LINE
8
BLACK
6
CONTINUOUS
10
0.847236
20
0.216205
11
0.847236
21
0.251205
0
LINE
8
BLACK
6
CONTINUOUS
10
0.847236
20
0.251205
11
0.902236
21
0.251205
0
LINE
8
BLACK
6
CONTINUOUS
10
0.902236
20
0.251205
11
0.902236
21
0.216205
0
LINE
8
BLACK
6
CONTINUOUS
10
1.00224
20
0.216205
11
0.947236
21
0.216205
0
LINE
8
BLACK
6
CONTINUOUS
10
0.947236
20
0.216205
11
0.947236
21
0.251205
0
LINE
8
BLACK
6
CONTINUOUS
10
0.947236
20
0.251205
11
1.00224
21
0.251205
0
LINE
8
BLACK
6
CONTINUOUS
10
1.00224
20
0.251205
11
1.00224
21
0.216205
0
LINE
8
BLACK
6
CONTINUOUS
10
0.184173
20
0.233622
11
0.144803
21
0.233622
0
LINE
8
BLACK
6
CONTINUOUS
10
0.144803
20
0.233622
11
0.144803
21
0.383228
0
LINE
8
BLACK
6
CONTINUOUS
10
0.144803
20
0.383228
11
0.184173
21
0.383228
0
LINE
8
BLACK
6
CONTINUOUS
10
0.184173
20
0.383228
11
0.184173
21
0.233622
0
LINE
8
BLACK
6
CONTINUOUS
10
1.37709
20
0.233622
11
1.33772
21
0.233622
0
LINE
8
BLACK
6
CONTINUOUS
10
1.33772
20
0.233622
11
1.33772
21
0.383228
0
LINE
8
BLACK
6
CONTINUOUS
10
1.33772
20
0.383228
11
1.37709
21
0.383228
0
LINE
8
BLACK
6
CONTINUOUS
10
1.37709
20
0.383228
11
1.37709
21
0.233622
0
LINE
8
BLACK
6
CONTINUOUS
10
0.811547
20
0.271894
11
0.787925
21
0.271894
0
LINE
8
BLACK
6
CONTINUOUS
10
0.787925
20
0.271894
11
0.787925
21
0.332917
0
LINE
8
BLACK
6
CONTINUOUS
10
0.787925
20
0.332917
11
0.811547
21
0.332917
0
LINE
8
BLACK
6
CONTINUOUS
10
0.811547
20
0.332917
11
0.811547
21
0.271894
0
LINE
8
BLACK
6
CONTINUOUS
10
0.761547
20
0.271894
11
0.737925
21
0.271894
0
LINE
8
BLACK
6
CONTINUOUS
10
0.737925
20
0.271894
11
0.737925
21
0.332917
0
LINE
8
BLACK
6
CONTINUOUS
10
0.737925
20
0.332917
11
0.761547
21
0.332917
0
LINE
8
BLACK
6
CONTINUOUS
10
0.761547
20
0.332917
11
0.761547
21
0.271894
0
LINE
8
BLACK
6
CONTINUOUS
10
0.661547
20
0.271894
11
0.637925
21
0.271894
0
LINE
8
BLACK
6
CONTINUOUS
10
0.637925
20
0.271894
11
0.637925
21
0.332917
0
LINE
8
BLACK
6
CONTINUOUS
10
0.637925
20
0.332917
11
0.661547
21
0.332917
0
LINE
8
BLACK
6
CONTINUOUS
10
0.661547
20
0.332917
11
0.661547
21
0.271894
0
LINE
8
BLACK
6
CONTINUOUS
10
0.711547
20
0.271894
11
0.687925
21
0.271894
0
LINE
8
BLACK
6
CONTINUOUS
10
0.687925
20
0.271894
11
0.687925
21
0.332917
0
LINE
8
BLACK
6
CONTINUOUS
10
0.687925
20
0.332917
11
0.711547
21
0.332917
0
LINE
8
BLACK
6
CONTINUOUS
10
0.711547
20
0.332917
11
0.711547
21
0.271894
0
LINE
8
BLACK
6
CONTINUOUS
10
0.902236
20
0.291205
11
0.847236
21
0.291205
0
LINE
8
BLACK
6
CONTINUOUS
10
0.847236
20
0.291205
11
0.847236
21
0.326205
0
LINE
8
BLACK
6
CONTINUOUS
10
0.847236
20
0.326205
11
0.902236
21
0.326205
0
LINE
8
BLACK
6
CONTINUOUS
10
0.902236
20
0.326205
11
0.902236
21
0.291205
0
LINE
8
BLACK
6
CONTINUOUS
10
1.00224
20
0.291205
11
0.947236
21
0.291205
0
LINE
8
BLACK
6
CONTINUOUS
10
0.947236
20
0.291205
11
0.947236
21
0.326205
0
LINE
8
BLACK
6
CONTINUOUS
10
0.947236
20
0.326205
11
1.00224
21
0.326205
0
LINE
8
BLACK
6
CONTINUOUS
10
1.00224
20
0.326205
11
1.00224
21
0.291205
0
LINE
8
BLACK
6
CONTINUOUS
10
0.902236
20
0.353705
11
0.847236
21
0.353705
0
LINE
8
BLACK
6
CONTINUOUS
10
0.847236
20
0.353705
11
0.847236
21
0.388705
0
LINE
8
BLACK
6
CONTINUOUS
10
0.847236
20
0.388705
11
0.902236
21
0.388705
0
LINE
8
BLACK
6
CONTINUOUS
10
0.902236
20
0.388705
11
0.902236
21
0.353705
0
LINE
8
BLACK
6
CONTINUOUS
10
1.02474
20
0.371205
11
0.989736
21
0.371205
0
LINE
8
BLACK
6
CONTINUOUS
10
0.989736
20
0.371205
11
0.989736
21
0.426205
0
LINE
8
BLACK
6
CONTINUOUS
10
0.989736
20
0.426205
11
1.02474
21
0.426205
0
LINE
8
BLACK
6
CONTINUOUS
10
1.02474
20
0.426205
11
1.02474
21
0.371205
0
LINE
8
BLACK
6
CONTINUOUS
10
1.09974
20
0.371205
11
1.06474
21
0.371205
0
LINE
8
BLACK
6
CONTINUOUS
10
1.06474
20
0.371205
11
1.06474
21
0.426205
0
LINE
8
BLACK
6
CONTINUOUS
10
1.06474
20
0.426205
11
1.09974
21
0.426205
0
LINE
8
BLACK
6
CONTINUOUS
10
1.09974
20
0.426205
11
1.09974
21
0.371205
0
LINE
8
BLACK
6
CONTINUOUS
10
0.902236
20
0.428705
11
0.847236
21
0.428705
0
LINE
8
BLACK
6
CONTINUOUS
10
0.847236
20
0.428705
11
0.847236
21
0.463705
0
LINE
8
BLACK
6
CONTINUOUS
10
0.847236
20
0.463705
11
0.902236
21
0.463705
0
LINE
8
BLACK
6
CONTINUOUS
10
0.902236
20
0.463705
11
0.902236
21
0.428705
0
LINE
8
BLACK
6
CONTINUOUS
10
1.37709
20
0.469843
11
1.33772
21
0.469843
0
LINE
8
BLACK
6
CONTINUOUS
10
1.33772
20
0.469843
11
1.33772
21
0.619449
0
LINE
8
BLACK
6
CONTINUOUS
10
1.33772
20
0.619449
11
1.37709
21
0.619449
0
LINE
8
BLACK
6
CONTINUOUS
10
1.37709
20
0.619449
11
1.37709
21
0.469843
0
LINE
8
BLACK
6
CONTINUOUS
10
0.184173
20
0.469843
11
0.144803
21
0.469843
0
LINE
8
BLACK
6
CONTINUOUS
10
0.144803
20
0.469843
11
0.144803
21
0.619449
0
LINE
8
BLACK
6
CONTINUOUS
10
0.144803
20
0.619449
11
0.184173
21
0.619449
0
LINE
8
BLACK
6
CONTINUOUS
10
0.184173
20
0.619449
11
0.184173
21
0.469843
0
LINE
8
BLACK
6
CONTINUOUS
10
0.661547
20
0.484492
11
0.637925
21
0.484492
0
LINE
8
BLACK
6
CONTINUOUS
10
0.637925
20
0.484492
11
0.637925
21
0.545516
0
LINE
8
BLACK
6
CONTINUOUS
10
0.637925
20
0.545516
11
0.661547
21
0.545516
0
LINE
8
BLACK
6
CONTINUOUS
10
0.661547
20
0.545516
11
0.661547
21
0.484492
0
LINE
8
BLACK
6
CONTINUOUS
10
0.711547
20
0.484492
11
0.687925
21
0.484492
0
LINE
8
BLACK
6
CONTINUOUS
10
0.687925
20
0.484492
11
0.687925
21
0.545516
0
LINE
8
BLACK
6
CONTINUOUS
10
0.687925
20
0.545516
11
0.711547
21
0.545516
0
LINE
8
BLACK
6
CONTINUOUS
10
0.711547
20
0.545516
11
0.711547
21
0.484492
0
LINE
8
BLACK
6
CONTINUOUS
10
0.761547
20
0.484492
11
0.737925
21
0.484492
0
LINE
8
BLACK
6
CONTINUOUS
10
0.737925
20
0.484492
11
0.737925
21
0.545516
0
LINE
8
BLACK
6
CONTINUOUS
10
0.737925
20
0.545516
11
0.761547
21
0.545516
0
LINE
8
BLACK
6
CONTINUOUS
10
0.761547
20
0.545516
11
0.761547
21
0.484492
0
LINE
8
BLACK
6
CONTINUOUS
10
0.811547
20
0.484492
11
0.787925
21
0.484492
0
LINE
8
BLACK
6
CONTINUOUS
10
0.787925
20
0.484492
11
0.787925
21
0.545516
0
LINE
8
BLACK
6
CONTINUOUS
10
0.787925
20
0.545516
11
0.811547
21
0.545516
0
LINE
8
BLACK
6
CONTINUOUS
10
0.811547
20
0.545516
11
0.811547
21
0.484492
0
LINE
8
BLACK
6
CONTINUOUS
10
1.09789
20
0.552248
11
1.06639
21
0.552248
0
LINE
8
BLACK
6
CONTINUOUS
10
1.06639
20
0.552248
11
1.06639
21
0.587681
0
LINE
8
BLACK
6
CONTINUOUS
10
1.06639
20
0.587681
11
1.09789
21
0.587681
0
LINE
8
BLACK
6
CONTINUOUS
10
1.09789
20
0.587681
11
1.09789
21
0.552248
0
LINE
8
BLACK
6
CONTINUOUS
10
1.02308
20
0.552248
11
0.991587
21
0.552248
0
LINE
8
BLACK
6
CONTINUOUS
10
0.991587
20
0.552248
11
0.991587
21
0.587681
0
LINE
8
BLACK
6
CONTINUOUS
10
0.991587
20
0.587681
11
1.02308
21
0.587681
0
LINE
8
BLACK
6
CONTINUOUS
10
1.02308
20
0.587681
11
1.02308
21
0.552248
0
LINE
8
BLACK
6
CONTINUOUS
10
0.665807
20
0.57502
11
0.610807
21
0.57502
0
LINE
8
BLACK
6
CONTINUOUS
10
0.610807
20
0.57502
11
0.610807
21
0.61002
0
LINE
8
BLACK
6
CONTINUOUS
10
0.610807
20
0.61002
11
0.665807
21
0.61002
0
LINE
8
BLACK
6
CONTINUOUS
10
0.665807
20
0.61002
11
0.665807
21
0.57502
0
LINE
8
BLACK
6
CONTINUOUS
10
0.817236
20
0.581205
11
0.782236
21
0.581205
0
LINE
8
BLACK
6
CONTINUOUS
10
0.782236
20
0.581205
11
0.782236
21
0.636205
0
LINE
8
BLACK
6
CONTINUOUS
10
0.782236
20
0.636205
11
0.817236
21
0.636205
0
LINE
8
BLACK
6
CONTINUOUS
10
0.817236
20
0.636205
11
0.817236
21
0.581205
0
LINE
8
BLACK
6
CONTINUOUS
10
0.892236
20
0.581205
11
0.857236
21
0.581205
0
LINE
8
BLACK
6
CONTINUOUS
10
0.857236
20
0.581205
11
0.857236
21
0.636205
0
LINE
8
BLACK
6
CONTINUOUS
10
0.857236
20
0.636205
11
0.892236
21
0.636205
0
LINE
8
BLACK
6
CONTINUOUS
10
0.892236
20
0.636205
11
0.892236
21
0.581205
0
LINE
8
BLACK
6
CONTINUOUS
10
1.06048
20
0.630988
11
1.02899
21
0.630988
0
LINE
8
BLACK
6
CONTINUOUS
10
1.02899
20
0.630988
11
1.02899
21
0.666421
0
LINE
8
BLACK
6
CONTINUOUS
10
1.02899
20
0.666421
11
1.06048
21
0.666421
0
LINE
8
BLACK
6
CONTINUOUS
10
1.06048
20
0.666421
11
1.06048
21
0.630988
0
LINE
8
BLACK
6
CONTINUOUS
10
0.665807
20
0.65002
11
0.610807
21
0.65002
0
LINE
8
BLACK
6
CONTINUOUS
10
0.610807
20
0.65002
11
0.610807
21
0.68502
0
LINE
8
BLACK
6
CONTINUOUS
10
0.610807
20
0.68502
11
0.665807
21
0.68502
0
LINE
8
BLACK
6
CONTINUOUS
10
0.665807
20
0.68502
11
0.665807
21
0.65002
0
LINE
8
BLACK
6
CONTINUOUS
10
0.86624
20
0.673287
11
0.83124
21
0.673287
0
LINE
8
BLACK
6
CONTINUOUS
10
0.83124
20
0.673287
11
0.83124
21
0.728287
0
LINE
8
BLACK
6
CONTINUOUS
10
0.83124
20
0.728287
11
0.86624
21
0.728287
0
LINE
8
BLACK
6
CONTINUOUS
10
0.86624
20
0.728287
11
0.86624
21
0.673287
0
LINE
8
BLACK
6
CONTINUOUS
10
0.94124
20
0.673287
11
0.90624
21
0.673287
0
LINE
8
BLACK
6
CONTINUOUS
10
0.90624
20
0.673287
11
0.90624
21
0.728287
0
LINE
8
BLACK
6
CONTINUOUS
10
0.90624
20
0.728287
11
0.94124
21
0.728287
0
LINE
8
BLACK
6
CONTINUOUS
10
0.94124
20
0.728287
11
0.94124
21
0.673287
0
LINE
8
BLACK
6
CONTINUOUS
10
0.803445
20
0.68313
11
0.768445
21
0.68313
0
LINE
8
BLACK
6
CONTINUOUS
10
0.768445
20
0.68313
11
0.768445
21
0.73813
0
LINE
8
BLACK
6
CONTINUOUS
10
0.768445
20
0.73813
11
0.803445
21
0.73813
0
LINE
8
BLACK
6
CONTINUOUS
10
0.803445
20
0.73813
11
0.803445
21
0.68313
0
LINE
8
BLACK
6
CONTINUOUS
10
0.728445
20
0.68313
11
0.693445
21
0.68313
0
LINE
8
BLACK
6
CONTINUOUS
10
0.693445
20
0.68313
11
0.693445
21
0.73813
0
LINE
8
BLACK
6
CONTINUOUS
10
0.693445
20
0.73813
11
0.728445
21
0.73813
0
LINE
8
BLACK
6
CONTINUOUS
10
0.728445
20
0.73813
11
0.728445
21
0.68313
0
LINE
8
BLACK
6
CONTINUOUS
10
0.507
20
0.684906
11
0.472
21
0.684906
0
LINE
8
BLACK
6
CONTINUOUS
10
0.472
20
0.684906
11
0.472
21
0.739906
0
LINE
8
BLACK
6
CONTINUOUS
10
0.472
20
0.739906
11
0.507
21
0.739906
0
LINE
8
BLACK
6
CONTINUOUS
10
0.507
20
0.739906
11
0.507
21
0.684906
0
LINE
8
BLACK
6
CONTINUOUS
10
0.432
20
0.684906
11
0.397
21
0.684906
0
LINE
8
BLACK
6
CONTINUOUS
10
0.397
20
0.684906
11
0.397
21
0.739906
0
LINE
8
BLACK
6
CONTINUOUS
10
0.397
20
0.739906
11
0.432
21
0.739906
0
LINE
8
BLACK
6
CONTINUOUS
10
0.432
20
0.739906
11
0.432
21
0.684906
0
LINE
8
BLACK
6
CONTINUOUS
10
1.37709
20
0.706063
11
1.33772
21
0.706063
0
LINE
8
BLACK
6
CONTINUOUS
10
1.33772
20
0.706063
11
1.33772
21
0.855669
0
LINE
8
BLACK
6
CONTINUOUS
10
1.33772
20
0.855669
11
1.37709
21
0.855669
0
LINE
8
BLACK
6
CONTINUOUS
10
1.37709
20
0.855669
11
1.37709
21
0.706063
0
LINE
8
BLACK
6
CONTINUOUS
10
0.184173
20
0.706063
11
0.144803
21
0.706063
0
LINE
8
BLACK
6
CONTINUOUS
10
0.144803
20
0.706063
11
0.144803
21
0.855669
0
LINE
8
BLACK
6
CONTINUOUS
10
0.144803
20
0.855669
11
0.184173
21
0.855669
0
LINE
8
BLACK
6
CONTINUOUS
10
0.184173
20
0.855669
11
0.184173
21
0.706063
0
LINE
8
BLACK
6
CONTINUOUS
10
0.342
20
0.709906
11
0.287
21
0.709906
0
LINE
8
BLACK
6
CONTINUOUS
10
0.287
20
0.709906
11
0.287
21
0.744906
0
LINE
8
BLACK
6
CONTINUOUS
10
0.287
20
0.744906
11
0.342
21
0.744906
0
LINE
8
BLACK
6
CONTINUOUS
10
0.342
20
0.744906
11
0.342
21
0.709906
0
LINE
8
BLACK
6
CONTINUOUS
10
0.652236
20
0.712657
11
0.617236
21
0.712657
0
LINE
8
BLACK
6
CONTINUOUS
10
0.617236
20
0.712657
11
0.617236
21
0.767657
0
LINE
8
BLACK
6
CONTINUOUS
10
0.617236
20
0.767657
11
0.652236
21
0.767657
0
LINE
8
BLACK
6
CONTINUOUS
10
0.652236
20
0.767657
11
0.652236
21
0.712657
0
LINE
8
BLACK
6
CONTINUOUS
10
0.577236
20
0.712657
11
0.542236
21
0.712657
0
LINE
8
BLACK
6
CONTINUOUS
10
0.542236
20
0.712657
11
0.542236
21
0.767657
0
LINE
8
BLACK
6
CONTINUOUS
10
0.542236
20
0.767657
11
0.577236
21
0.767657
0
LINE
8
BLACK
6
CONTINUOUS
10
0.577236
20
0.767657
11
0.577236
21
0.712657
0
LINE
8
BLACK
6
CONTINUOUS
10
0.86624
20
0.751205
11
0.83124
21
0.751205
0
LINE
8
BLACK
6
CONTINUOUS
10
0.83124
20
0.751205
11
0.83124
21
0.806205
0
LINE
8
BLACK
6
CONTINUOUS
10
0.83124
20
0.806205
11
0.86624
21
0.806205
0
LINE
8
BLACK
6
CONTINUOUS
10
0.86624
20
0.806205
11
0.86624
21
0.751205
0
LINE
8
BLACK
6
CONTINUOUS
10
0.94124
20
0.751205
11
0.90624
21
0.751205
0
LINE
8
BLACK
6
CONTINUOUS
10
0.90624
20
0.751205
11
0.90624
21
0.806205
0
LINE
8
BLACK
6
CONTINUOUS
10
0.90624
20
0.806205
11
0.94124
21
0.806205
0
LINE
8
BLACK
6
CONTINUOUS
10
0.94124
20
0.806205
11
0.94124
21
0.751205
0
LINE
8
BLACK
6
CONTINUOUS
10
0.792236
20
0.771205
11
0.757236
21
0.771205
0
LINE
8
BLACK
6
CONTINUOUS
10
0.757236
20
0.771205
11
0.757236
21
0.826205
0
LINE
8
BLACK
6
CONTINUOUS
10
0.757236
20
0.826205
11
0.792236
21
0.826205
0
LINE
8
BLACK
6
CONTINUOUS
10
0.792236
20
0.826205
11
0.792236
21
0.771205
0
LINE
8
BLACK
6
CONTINUOUS
10
0.717236
20
0.771205
11
0.682236
21
0.771205
0
LINE
8
BLACK
6
CONTINUOUS
10
0.682236
20
0.771205
11
0.682236
21
0.826205
0
LINE
8
BLACK
6
CONTINUOUS
10
0.682236
20
0.826205
11
0.717236
21
0.826205
0
LINE
8
BLACK
6
CONTINUOUS
10
0.717236
20
0.826205
11
0.717236
21
0.771205
0
LINE
8
BLACK
6
CONTINUOUS
10
0.4345
20
0.774906
11
0.3995
21
0.774906
0
LINE
8
BLACK
6
CONTINUOUS
10
0.3995
20
0.774906
11
0.3995
21
0.829906
0
LINE
8
BLACK
6
CONTINUOUS
10
0.3995
20
0.829906
11
0.4345
21
0.829906
0
LINE
8
BLACK
6
CONTINUOUS
10
0.4345
20
0.829906
11
0.4345
21
0.774906
0
LINE
8
BLACK
6
CONTINUOUS
10
0.5095
20
0.774906
11
0.4745
21
0.774906
0
LINE
8
BLACK
6
CONTINUOUS
10
0.4745
20
0.774906
11
0.4745
21
0.829906
0
LINE
8
BLACK
6
CONTINUOUS
10
0.4745
20
0.829906
11
0.5095
21
0.829906
0
LINE
8
BLACK
6
CONTINUOUS
10
0.5095
20
0.829906
11
0.5095
21
0.774906
0
LINE
8
BLACK
6
CONTINUOUS
10
0.342
20
0.784906
11
0.287
21
0.784906
0
LINE
8
BLACK
6
CONTINUOUS
10
0.287
20
0.784906
11
0.287
21
0.819906
0
LINE
8
BLACK
6
CONTINUOUS
10
0.287
20
0.819906
11
0.342
21
0.819906
0
LINE
8
BLACK
6
CONTINUOUS
10
0.342
20
0.819906
11
0.342
21
0.784906
0
LINE
8
BLACK
6
CONTINUOUS
10
0.7875
20
0.853406
11
0.7525
21
0.853406
0
LINE
8
BLACK
6
CONTINUOUS
10
0.7525
20
0.853406
11
0.7525
21
0.908406
0
LINE
8
BLACK
6
CONTINUOUS
10
0.7525
20
0.908406
11
0.7875
21
0.908406
0
LINE
8
BLACK
6
CONTINUOUS
10
0.7875
20
0.908406
11
0.7875
21
0.853406
0
LINE
8
BLACK
6
CONTINUOUS
10
0.7125
20
0.853406
11
0.6775
21
0.853406
0
LINE
8
BLACK
6
CONTINUOUS
10
0.6775
20
0.853406
11
0.6775
21
0.908406
0
LINE
8
BLACK
6
CONTINUOUS
10
0.6775
20
0.908406
11
0.7125
21
0.908406
0
LINE
8
BLACK
6
CONTINUOUS
10
0.7125
20
0.908406
11
0.7125
21
0.853406
0
LINE
8
BLACK
6
CONTINUOUS
10
0.4345
20
0.854906
11
0.3995
21
0.854906
0
LINE
8
BLACK
6
CONTINUOUS
10
0.3995
20
0.854906
11
0.3995
21
0.909906
0
LINE
8
BLACK
6
CONTINUOUS
10
0.3995
20
0.909906
11
0.4345
21
0.909906
0
LINE
8
BLACK
6
CONTINUOUS
10
0.4345
20
0.909906
11
0.4345
21
0.854906
0
LINE
8
BLACK
6
CONTINUOUS
10
0.5095
20
0.854906
11
0.4745
21
0.854906
0
LINE
8
BLACK
6
CONTINUOUS
10
0.4745
20
0.854906
11
0.4745
21
0.909906
0
LINE
8
BLACK
6
CONTINUOUS
10
0.4745
20
0.909906
11
0.5095
21
0.909906
0
LINE
8
BLACK
6
CONTINUOUS
10
0.5095
20
0.909906
11
0.5095
21
0.854906
0
LINE
8
BLACK
6
CONTINUOUS
10
0.342
20
0.859906
11
0.287
21
0.859906
0
LINE
8
BLACK
6
CONTINUOUS
10
0.287
20
0.859906
11
0.287
21
0.894906
0
LINE
8
BLACK
6
CONTINUOUS
10
0.287
20
0.894906
11
0.342
21
0.894906
0
LINE
8
BLACK
6
CONTINUOUS
10
0.342
20
0.894906
11
0.342
21
0.859906
0
LINE
8
BLACK
6
CONTINUOUS
10
0.7125
20
0.933406
11
0.6775
21
0.933406
0
LINE
8
BLACK
6
CONTINUOUS
10
0.6775
20
0.933406
11
0.6775
21
0.988406
0
LINE
8
BLACK
6
CONTINUOUS
10
0.6775
20
0.988406
11
0.7125
21
0.988406
0
LINE
8
BLACK
6
CONTINUOUS
10
0.7125
20
0.988406
11
0.7125
21
0.933406
0
LINE
8
BLACK
6
CONTINUOUS
10
0.7875
20
0.933406
11
0.7525
21
0.933406
0
LINE
8
BLACK
6
CONTINUOUS
10
0.7525
20
0.933406
11
0.7525
21
0.988406
0
LINE
8
BLACK
6
CONTINUOUS
10
0.7525
20
0.988406
11
0.7875
21
0.988406
0
LINE
8
BLACK
6
CONTINUOUS
10
0.7875
20
0.988406
11
0.7875
21
0.933406
0
LINE
8
BLACK
6
CONTINUOUS
10
1.22394
20
0.934105
11
1.12554
21
0.934105
0
LINE
8
BLACK
6
CONTINUOUS
10
1.12554
20
0.934105
11
1.12554
21
1.0345
0
LINE
8
BLACK
6
CONTINUOUS
10
1.12554
20
1.0345
11
1.22394
21
1.0345
0
LINE
8
BLACK
6
CONTINUOUS
10
1.22394
20
1.0345
11
1.22394
21
0.934105
0
LINE
8
BLACK
6
CONTINUOUS
10
0.5095
20
0.934906
11
0.4745
21
0.934906
0
LINE
8
BLACK
6
CONTINUOUS
10
0.4745
20
0.934906
11
0.4745
21
0.989906
0
LINE
8
BLACK
6
CONTINUOUS
10
0.4745
20
0.989906
11
0.5095
21
0.989906
0
LINE
8
BLACK
6
CONTINUOUS
10
0.5095
20
0.989906
11
0.5095
21
0.934906
0
LINE
8
BLACK
6
CONTINUOUS
10
0.4345
20
0.934906
11
0.3995
21
0.934906
0
LINE
8
BLACK
6
CONTINUOUS
10
0.3995
20
0.934906
11
0.3995
21
0.989906
0
LINE
8
BLACK
6
CONTINUOUS
10
0.3995
20
0.989906
11
0.4345
21
0.989906
0
LINE
8
BLACK
6
CONTINUOUS
10
0.4345
20
0.989906
11
0.4345
21
0.934906
0
LINE
8
BLACK
6
CONTINUOUS
10
0.342
20
0.934906
11
0.287
21
0.934906
0
LINE
8
BLACK
6
CONTINUOUS
10
0.287
20
0.934906
11
0.287
21
0.969906
0
LINE
8
BLACK
6
CONTINUOUS
10
0.287
20
0.969906
11
0.342
21
0.969906
0
LINE
8
BLACK
6
CONTINUOUS
10
0.342
20
0.969906
11
0.342
21
0.934906
0
LINE
8
BLACK
6
CONTINUOUS
10
0.184173
20
0.942283
11
0.144803
21
0.942283
0
LINE
8
BLACK
6
CONTINUOUS
10
0.144803
20
0.942283
11
0.144803
21
1.09189
0
LINE
8
BLACK
6
CONTINUOUS
10
0.144803
20
1.09189
11
0.184173
21
1.09189
0
LINE
8
BLACK
6
CONTINUOUS
10
0.184173
20
1.09189
11
0.184173
21
0.942283
0
LINE
8
BLACK
6
CONTINUOUS
10
1.37709
20
0.942283
11
1.33772
21
0.942283
0
LINE
8
BLACK
6
CONTINUOUS
10
1.33772
20
0.942283
11
1.33772
21
1.09189
0
LINE
8
BLACK
6
CONTINUOUS
10
1.33772
20
1.09189
11
1.37709
21
1.09189
0
LINE
8
BLACK
6
CONTINUOUS
10
1.37709
20
1.09189
11
1.37709
21
0.942283
0
LINE
8
BLACK
6
CONTINUOUS
10
0.932236
20
0.951205
11
0.897236
21
0.951205
0
LINE
8
BLACK
6
CONTINUOUS
10
0.897236
20
0.951205
11
0.897236
21
1.0062
0
LINE
8
BLACK
6
CONTINUOUS
10
0.897236
20
1.0062
11
0.932236
21
1.0062
0
LINE
8
BLACK
6
CONTINUOUS
10
0.932236
20
1.0062
11
0.932236
21
0.951205
0
LINE
8
BLACK
6
CONTINUOUS
10
0.857236
20
0.951205
11
0.822236
21
0.951205
0
LINE
8
BLACK
6
CONTINUOUS
10
0.822236
20
0.951205
11
0.822236
21
1.0062
0
LINE
8
BLACK
6
CONTINUOUS
10
0.822236
20
1.0062
11
0.857236
21
1.0062
0
LINE
8
BLACK
6
CONTINUOUS
10
0.857236
20
1.0062
11
0.857236
21
0.951205
0
LINE
8
BLACK
6
CONTINUOUS
10
0.342
20
1.00991
11
0.287
21
1.00991
0
LINE
8
BLACK
6
CONTINUOUS
10
0.287
20
1.00991
11
0.287
21
1.04491
0
LINE
8
BLACK
6
CONTINUOUS
10
0.287
20
1.04491
11
0.342
21
1.04491
0
LINE
8
BLACK
6
CONTINUOUS
10
0.342
20
1.04491
11
0.342
21
1.00991
0
LINE
8
BLACK
6
CONTINUOUS
10
0.932236
20
1.0412
11
0.897236
21
1.0412
0
LINE
8
BLACK
6
CONTINUOUS
10
0.897236
20
1.0412
11
0.897236
21
1.0962
0
LINE
8
BLACK
6
CONTINUOUS
10
0.897236
20
1.0962
11
0.932236
21
1.0962
0
LINE
8
BLACK
6
CONTINUOUS
10
0.932236
20
1.0962
11
0.932236
21
1.0412
0
LINE
8
BLACK
6
CONTINUOUS
10
0.857236
20
1.0412
11
0.822236
21
1.0412
0
LINE
8
BLACK
6
CONTINUOUS
10
0.822236
20
1.0412
11
0.822236
21
1.0962
0
LINE
8
BLACK
6
CONTINUOUS
10
0.822236
20
1.0962
11
0.857236
21
1.0962
0
LINE
8
BLACK
6
CONTINUOUS
10
0.857236
20
1.0962
11
0.857236
21
1.0412
0
LINE
8
BLACK
6
CONTINUOUS
10
0.342
20
1.08491
11
0.287
21
1.08491
0
LINE
8
BLACK
6
CONTINUOUS
10
0.287
20
1.08491
11
0.287
21
1.11991
0
LINE
8
BLACK
6
CONTINUOUS
10
0.287
20
1.11991
11
0.342
21
1.11991
0
LINE
8
BLACK
6
CONTINUOUS
10
0.342
20
1.11991
11
0.342
21
1.08491
0
LINE
8
BLACK
6
CONTINUOUS
10
0.6675
20
1.11841
11
0.6125
21
1.11841
0
LINE
8
BLACK
6
CONTINUOUS
10
0.6125
20
1.11841
11
0.6125
21
1.15341
0
LINE
8
BLACK
6
CONTINUOUS
10
0.6125
20
1.15341
11
0.6675
21
1.15341
0
LINE
8
BLACK
6
CONTINUOUS
10
0.6675
20
1.15341
11
0.6675
21
1.11841
0
LINE
8
BLACK
6
CONTINUOUS
10
1.22394
20
1.1329
11
1.12554
21
1.1329
0
LINE
8
BLACK
6
CONTINUOUS
10
1.12554
20
1.1329
11
1.12554
21
1.2333
0
LINE
8
BLACK
6
CONTINUOUS
10
1.12554
20
1.2333
11
1.22394
21
1.2333
0
LINE
8
BLACK
6
CONTINUOUS
10
1.22394
20
1.2333
11
1.22394
21
1.1329
0
LINE
8
BLACK
6
CONTINUOUS
10
0.741547
20
1.15189
11
0.717925
21
1.15189
0
LINE
8
BLACK
6
CONTINUOUS
10
0.717925
20
1.15189
11
0.717925
21
1.21292
0
LINE
8
BLACK
6
CONTINUOUS
10
0.717925
20
1.21292
11
0.741547
21
1.21292
0
LINE
8
BLACK
6
CONTINUOUS
10
0.741547
20
1.21292
11
0.741547
21
1.15189
0
LINE
8
BLACK
6
CONTINUOUS
10
0.791547
20
1.15189
11
0.767925
21
1.15189
0
LINE
8
BLACK
6
CONTINUOUS
10
0.767925
20
1.15189
11
0.767925
21
1.21292
0
LINE
8
BLACK
6
CONTINUOUS
10
0.767925
20
1.21292
11
0.791547
21
1.21292
0
LINE
8
BLACK
6
CONTINUOUS
10
0.791547
20
1.21292
11
0.791547
21
1.15189
0
LINE
8
BLACK
6
CONTINUOUS
10
0.841547
20
1.15189
11
0.817925
21
1.15189
0
LINE
8
BLACK
6
CONTINUOUS
10
0.817925
20
1.15189
11
0.817925
21
1.21292
0
LINE
8
BLACK
6
CONTINUOUS
10
0.817925
20
1.21292
11
0.841547
21
1.21292
0
LINE
8
BLACK
6
CONTINUOUS
10
0.841547
20
1.21292
11
0.841547
21
1.15189
0
LINE
8
BLACK
6
CONTINUOUS
10
0.891547
20
1.15189
11
0.867925
21
1.15189
0
LINE
8
BLACK
6
CONTINUOUS
10
0.867925
20
1.15189
11
0.867925
21
1.21292
0
LINE
8
BLACK
6
CONTINUOUS
10
0.867925
20
1.21292
11
0.891547
21
1.21292
0
LINE
8
BLACK
6
CONTINUOUS
10
0.891547
20
1.21292
11
0.891547
21
1.15189
0
LINE
8
BLACK
6
CONTINUOUS
10
1.37709
20
1.1785
11
1.33772
21
1.1785
0
LINE
8
BLACK
6
CONTINUOUS
10
1.33772
20
1.1785
11
1.33772
21
1.32811
0
LINE
8
BLACK
6
CONTINUOUS
10
1.33772
20
1.32811
11
1.37709
21
1.32811
0
LINE
8
BLACK
6
CONTINUOUS
10
1.37709
20
1.32811
11
1.37709
21
1.1785
0
LINE
8
BLACK
6
CONTINUOUS
10
0.184173
20
1.1785
11
0.144803
21
1.1785
0
LINE
8
BLACK
6
CONTINUOUS
10
0.144803
20
1.1785
11
0.144803
21
1.32811
0
LINE
8
BLACK
6
CONTINUOUS
10
0.144803
20
1.32811
11
0.184173
21
1.32811
0
LINE
8
BLACK
6
CONTINUOUS
10
0.184173
20
1.32811
11
0.184173
21
1.1785
0
LINE
8
BLACK
6
CONTINUOUS
10
1.0125
20
1.18841
11
0.9775
21
1.18841
0
LINE
8
BLACK
6
CONTINUOUS
10
0.9775
20
1.18841
11
0.9775
21
1.24341
0
LINE
8
BLACK
6
CONTINUOUS
10
0.9775
20
1.24341
11
1.0125
21
1.24341
0
LINE
8
BLACK
6
CONTINUOUS
10
1.0125
20
1.24341
11
1.0125
21
1.18841
0
LINE
8
BLACK
6
CONTINUOUS
10
1.0875
20
1.18841
11
1.0525
21
1.18841
0
LINE
8
BLACK
6
CONTINUOUS
10
1.0525
20
1.18841
11
1.0525
21
1.24341
0
LINE
8
BLACK
6
CONTINUOUS
10
1.0525
20
1.24341
11
1.0875
21
1.24341
0
LINE
8
BLACK
6
CONTINUOUS
10
1.0875
20
1.24341
11
1.0875
21
1.18841
0
LINE
8
BLACK
6
CONTINUOUS
10
0.494736
20
1.1912
11
0.459736
21
1.1912
0
LINE
8
BLACK
6
CONTINUOUS
10
0.459736
20
1.1912
11
0.459736
21
1.2462
0
LINE
8
BLACK
6
CONTINUOUS
10
0.459736
20
1.2462
11
0.494736
21
1.2462
0
LINE
8
BLACK
6
CONTINUOUS
10
0.494736
20
1.2462
11
0.494736
21
1.1912
0
LINE
8
BLACK
6
CONTINUOUS
10
0.569736
20
1.1912
11
0.534736
21
1.1912
0
LINE
8
BLACK
6
CONTINUOUS
10
0.534736
20
1.1912
11
0.534736
21
1.2462
0
LINE
8
BLACK
6
CONTINUOUS
10
0.534736
20
1.2462
11
0.569736
21
1.2462
0
LINE
8
BLACK
6
CONTINUOUS
10
0.569736
20
1.2462
11
0.569736
21
1.1912
0
LINE
8
BLACK
6
CONTINUOUS
10
0.6675
20
1.19341
11
0.6125
21
1.19341
0
LINE
8
BLACK
6
CONTINUOUS
10
0.6125
20
1.19341
11
0.6125
21
1.22841
0
LINE
8
BLACK
6
CONTINUOUS
10
0.6125
20
1.22841
11
0.6675
21
1.22841
0
LINE
8
BLACK
6
CONTINUOUS
10
0.6675
20
1.22841
11
0.6675
21
1.19341
0
LINE
8
BLACK
6
CONTINUOUS
10
0.494736
20
1.2812
11
0.459736
21
1.2812
0
LINE
8
BLACK
6
CONTINUOUS
10
0.459736
20
1.2812
11
0.459736
21
1.3362
0
LINE
8
BLACK
6
CONTINUOUS
10
0.459736
20
1.3362
11
0.494736
21
1.3362
0
LINE
8
BLACK
6
CONTINUOUS
10
0.494736
20
1.3362
11
0.494736
21
1.2812
0
LINE
8
BLACK
6
CONTINUOUS
10
0.569736
20
1.2812
11
0.534736
21
1.2812
0
LINE
8
BLACK
6
CONTINUOUS
10
0.534736
20
1.2812
11
0.534736
21
1.3362
0
LINE
8
BLACK
6
CONTINUOUS
10
0.534736
20
1.3362
11
0.569736
21
1.3362
0
LINE
8
BLACK
6
CONTINUOUS
10
0.569736
20
1.3362
11
0.569736
21
1.2812
0
LINE
8
BLACK
6
CONTINUOUS
10
0.891547
20
1.36449
11
0.867925
21
1.36449
0
LINE
8
BLACK
6
CONTINUOUS
10
0.867925
20
1.36449
11
0.867925
21
1.42552
0
LINE
8
BLACK
6
CONTINUOUS
10
0.867925
20
1.42552
11
0.891547
21
1.42552
0
LINE
8
BLACK
6
CONTINUOUS
10
0.891547
20
1.42552
11
0.891547
21
1.36449
0
LINE
8
BLACK
6
CONTINUOUS
10
0.841547
20
1.36449
11
0.817925
21
1.36449
0
LINE
8
BLACK
6
CONTINUOUS
10
0.817925
20
1.36449
11
0.817925
21
1.42552
0
LINE
8
BLACK
6
CONTINUOUS
10
0.817925
20
1.42552
11
0.841547
21
1.42552
0
LINE
8
BLACK
6
CONTINUOUS
10
0.841547
20
1.42552
11
0.841547
21
1.36449
0
LINE
8
BLACK
6
CONTINUOUS
10
0.791547
20
1.36449
11
0.767925
21
1.36449
0
LINE
8
BLACK
6
CONTINUOUS
10
0.767925
20
1.36449
11
0.767925
21
1.42552
0
LINE
8
BLACK
6
CONTINUOUS
10
0.767925
20
1.42552
11
0.791547
21
1.42552
0
LINE
8
BLACK
6
CONTINUOUS
10
0.791547
20
1.42552
11
0.791547
21
1.36449
0
LINE
8
BLACK
6
CONTINUOUS
10
0.741547
20
1.36449
11
0.717925
21
1.36449
0
LINE
8
BLACK
6
CONTINUOUS
10
0.717925
20
1.36449
11
0.717925
21
1.42552
0
LINE
8
BLACK
6
CONTINUOUS
10
0.717925
20
1.42552
11
0.741547
21
1.42552
0
LINE
8
BLACK
6
CONTINUOUS
10
0.741547
20
1.42552
11
0.741547
21
1.36449
0
LINE
8
BLACK
6
CONTINUOUS
10
0.494736
20
1.3712
11
0.459736
21
1.3712
0
LINE
8
BLACK
6
CONTINUOUS
10
0.459736
20
1.3712
11
0.459736
21
1.4262
0
LINE
8
BLACK
6
CONTINUOUS
10
0.459736
20
1.4262
11
0.494736
21
1.4262
0
LINE
8
BLACK
6
CONTINUOUS
10
0.494736
20
1.4262
11
0.494736
21
1.3712
0
LINE
8
BLACK
6
CONTINUOUS
10
0.569736
20
1.3712
11
0.534736
21
1.3712
0
LINE
8
BLACK
6
CONTINUOUS
10
0.534736
20
1.3712
11
0.534736
21
1.4262
0
LINE
8
BLACK
6
CONTINUOUS
10
0.534736
20
1.4262
11
0.569736
21
1.4262
0
LINE
8
BLACK
6
CONTINUOUS
10
0.569736
20
1.4262
11
0.569736
21
1.3712
0
LINE
8
BLACK
6
CONTINUOUS
10
1.05474
20
1.3812
11
1.01974
21
1.3812
0
LINE
8
BLACK
6
CONTINUOUS
10
1.01974
20
1.3812
11
1.01974
21
1.4362
0
LINE
8
BLACK
6
CONTINUOUS
10
1.01974
20
1.4362
11
1.05474
21
1.4362
0
LINE
8
BLACK
6
CONTINUOUS
10
1.05474
20
1.4362
11
1.05474
21
1.3812
0
LINE
8
BLACK
6
CONTINUOUS
10
0.979736
20
1.3812
11
0.944736
21
1.3812
0
LINE
8
BLACK
6
CONTINUOUS
10
0.944736
20
1.3812
11
0.944736
21
1.4362
0
LINE
8
BLACK
6
CONTINUOUS
10
0.944736
20
1.4362
11
0.979736
21
1.4362
0
LINE
8
BLACK
6
CONTINUOUS
10
0.979736
20
1.4362
11
0.979736
21
1.3812
0
LINE
8
BLACK
6
CONTINUOUS
10
1.15224
20
1.4037
11
1.09724
21
1.4037
0
LINE
8
BLACK
6
CONTINUOUS
10
1.09724
20
1.4037
11
1.09724
21
1.4387
0
LINE
8
BLACK
6
CONTINUOUS
10
1.09724
20
1.4387
11
1.15224
21
1.4387
0
LINE
8
BLACK
6
CONTINUOUS
10
1.15224
20
1.4387
11
1.15224
21
1.4037
0
LINE
8
BLACK
6
CONTINUOUS
10
0.184173
20
1.41472
11
0.144803
21
1.41472
0
LINE
8
BLACK
6
CONTINUOUS
10
0.144803
20
1.41472
11
0.144803
21
1.56433
0
LINE
8
BLACK
6
CONTINUOUS
10
0.144803
20
1.56433
11
0.184173
21
1.56433
0
LINE
8
BLACK
6
CONTINUOUS
10
0.184173
20
1.56433
11
0.184173
21
1.41472
0
LINE
8
BLACK
6
CONTINUOUS
10
1.37709
20
1.41472
11
1.33772
21
1.41472
0
LINE
8
BLACK
6
CONTINUOUS
10
1.33772
20
1.41472
11
1.33772
21
1.56433
0
LINE
8
BLACK
6
CONTINUOUS
10
1.33772
20
1.56433
11
1.37709
21
1.56433
0
LINE
8
BLACK
6
CONTINUOUS
10
1.37709
20
1.56433
11
1.37709
21
1.41472
0
LINE
8
BLACK
6
CONTINUOUS
10
0.889736
20
1.4612
11
0.854736
21
1.4612
0
LINE
8
BLACK
6
CONTINUOUS
10
0.854736
20
1.4612
11
0.854736
21
1.5162
0
LINE
8
BLACK
6
CONTINUOUS
10
0.854736
20
1.5162
11
0.889736
21
1.5162
0
LINE
8
BLACK
6
CONTINUOUS
10
0.889736
20
1.5162
11
0.889736
21
1.4612
0
LINE
8
BLACK
6
CONTINUOUS
10
0.814736
20
1.4612
11
0.779736
21
1.4612
0
LINE
8
BLACK
6
CONTINUOUS
10
0.779736
20
1.4612
11
0.779736
21
1.5162
0
LINE
8
BLACK
6
CONTINUOUS
10
0.779736
20
1.5162
11
0.814736
21
1.5162
0
LINE
8
BLACK
6
CONTINUOUS
10
0.814736
20
1.5162
11
0.814736
21
1.4612
0
LINE
8
BLACK
6
CONTINUOUS
10
0.739736
20
1.4612
11
0.704736
21
1.4612
0
LINE
8
BLACK
6
CONTINUOUS
10
0.704736
20
1.4612
11
0.704736
21
1.5162
0
LINE
8
BLACK
6
CONTINUOUS
10
0.704736
20
1.5162
11
0.739736
21
1.5162
0
LINE
8
BLACK
6
CONTINUOUS
10
0.739736
20
1.5162
11
0.739736
21
1.4612
0
LINE
8
BLACK
6
CONTINUOUS
10
0.664736
20
1.4612
11
0.629736
21
1.4612
0
LINE
8
BLACK
6
CONTINUOUS
10
0.629736
20
1.4612
11
0.629736
21
1.5162
0
LINE
8
BLACK
6
CONTINUOUS
10
0.629736
20
1.5162
11
0.664736
21
1.5162
0
LINE
8
BLACK
6
CONTINUOUS
10
0.664736
20
1.5162
11
0.664736
21
1.4612
0
LINE
8
BLACK
6
CONTINUOUS
10
0.472295
20
1.47851
11
0.410878
21
1.47851
0
LINE
8
BLACK
6
CONTINUOUS
10
0.410878
20
1.47851
11
0.410878
21
1.5041
0
LINE
8
BLACK
6
CONTINUOUS
10
0.410878
20
1.5041
11
0.472295
21
1.5041
0
LINE
8
BLACK
6
CONTINUOUS
10
0.472295
20
1.5041
11
0.472295
21
1.47851
0
LINE
8
BLACK
6
CONTINUOUS
10
0.578594
20
1.47851
11
0.517177
21
1.47851
0
LINE
8
BLACK
6
CONTINUOUS
10
0.517177
20
1.47851
11
0.517177
21
1.5041
0
LINE
8
BLACK
6
CONTINUOUS
10
0.517177
20
1.5041
11
0.578594
21
1.5041
0
LINE
8
BLACK
6
CONTINUOUS
10
0.578594
20
1.5041
11
0.578594
21
1.47851
0
LINE
8
BLACK
6
CONTINUOUS
10
1.15224
20
1.4787
11
1.09724
21
1.4787
0
LINE
8
BLACK
6
CONTINUOUS
10
1.09724
20
1.4787
11
1.09724
21
1.5137
0
LINE
8
BLACK
6
CONTINUOUS
10
1.09724
20
1.5137
11
1.15224
21
1.5137
0
LINE
8
BLACK
6
CONTINUOUS
10
1.15224
20
1.5137
11
1.15224
21
1.4787
0
LINE
8
BLACK
6
CONTINUOUS
10
0.578594
20
1.51591
11
0.517177
21
1.51591
0
LINE
8
BLACK
6
CONTINUOUS
10
0.517177
20
1.51591
11
0.517177
21
1.5415
0
LINE
8
BLACK
6
CONTINUOUS
10
0.517177
20
1.5415
11
0.578594
21
1.5415
0
LINE
8
BLACK
6
CONTINUOUS
10
0.578594
20
1.5415
11
0.578594
21
1.51591
0
LINE
8
BLACK
6
CONTINUOUS
10
0.742236
20
1.5437
11
0.687236
21
1.5437
0
LINE
8
BLACK
6
CONTINUOUS
10
0.687236
20
1.5437
11
0.687236
21
1.5787
0
LINE
8
BLACK
6
CONTINUOUS
10
0.687236
20
1.5787
11
0.742236
21
1.5787
0
LINE
8
BLACK
6
CONTINUOUS
10
0.742236
20
1.5787
11
0.742236
21
1.5437
0
LINE
8
BLACK
6
CONTINUOUS
10
1.04993
20
1.54985
11
1.02434
21
1.54985
0
LINE
8
BLACK
6
CONTINUOUS
10
1.02434
20
1.54985
11
1.02434
21
1.61126
0
LINE
8
BLACK
6
CONTINUOUS
10
1.02434
20
1.61126
11
1.04993
21
1.61126
0
LINE
8
BLACK
6
CONTINUOUS
10
1.04993
20
1.61126
11
1.04993
21
1.54985
0
LINE
8
BLACK
6
CONTINUOUS
10
1.01253
20
1.54985
11
0.986941
21
1.54985
0
LINE
8
BLACK
6
CONTINUOUS
10
0.986941
20
1.54985
11
0.986941
21
1.61126
0
LINE
8
BLACK
6
CONTINUOUS
10
0.986941
20
1.61126
11
1.01253
21
1.61126
0
LINE
8
BLACK
6
CONTINUOUS
10
1.01253
20
1.61126
11
1.01253
21
1.54985
0
LINE
8
BLACK
6
CONTINUOUS
10
0.97513
20
1.54985
11
0.949539
21
1.54985
0
LINE
8
BLACK
6
CONTINUOUS
10
0.949539
20
1.54985
11
0.949539
21
1.61126
0
LINE
8
BLACK
6
CONTINUOUS
10
0.949539
20
1.61126
11
0.97513
21
1.61126
0
LINE
8
BLACK
6
CONTINUOUS
10
0.97513
20
1.61126
11
0.97513
21
1.54985
0
LINE
8
BLACK
6
CONTINUOUS
10
0.889736
20
1.5512
11
0.854736
21
1.5512
0
LINE
8
BLACK
6
CONTINUOUS
10
0.854736
20
1.5512
11
0.854736
21
1.6062
0
LINE
8
BLACK
6
CONTINUOUS
10
0.854736
20
1.6062
11
0.889736
21
1.6062
0
LINE
8
BLACK
6
CONTINUOUS
10
0.889736
20
1.6062
11
0.889736
21
1.5512
0
LINE
8
BLACK
6
CONTINUOUS
10
0.814736
20
1.5512
11
0.779736
21
1.5512
0
LINE
8
BLACK
6
CONTINUOUS
10
0.779736
20
1.5512
11
0.779736
21
1.6062
0
LINE
8
BLACK
6
CONTINUOUS
10
0.779736
20
1.6062
11
0.814736
21
1.6062
0
LINE
8
BLACK
6
CONTINUOUS
10
0.814736
20
1.6062
11
0.814736
21
1.5512
0
LINE
8
BLACK
6
CONTINUOUS
10
0.578594
20
1.55331
11
0.517177
21
1.55331
0
LINE
8
BLACK
6
CONTINUOUS
10
0.517177
20
1.55331
11
0.517177
21
1.5789
0
LINE
8
BLACK
6
CONTINUOUS
10
0.517177
20
1.5789
11
0.578594
21
1.5789
0
LINE
8
BLACK
6
CONTINUOUS
10
0.578594
20
1.5789
11
0.578594
21
1.55331
0
LINE
8
BLACK
6
CONTINUOUS
10
0.472295
20
1.55331
11
0.410878
21
1.55331
0
LINE
8
BLACK
6
CONTINUOUS
10
0.410878
20
1.55331
11
0.410878
21
1.5789
0
LINE
8
BLACK
6
CONTINUOUS
10
0.410878
20
1.5789
11
0.472295
21
1.5789
0
LINE
8
BLACK
6
CONTINUOUS
10
0.472295
20
1.5789
11
0.472295
21
1.55331
0
LINE
8
BLACK
6
CONTINUOUS
10
1.12974
20
1.5562
11
1.09474
21
1.5562
0
LINE
8
BLACK
6
CONTINUOUS
10
1.09474
20
1.5562
11
1.09474
21
1.6112
0
LINE
8
BLACK
6
CONTINUOUS
10
1.09474
20
1.6112
11
1.12974
21
1.6112
0
LINE
8
BLACK
6
CONTINUOUS
10
1.12974
20
1.6112
11
1.12974
21
1.5562
0
LINE
8
BLACK
6
CONTINUOUS
10
1.20474
20
1.5562
11
1.16974
21
1.5562
0
LINE
8
BLACK
6
CONTINUOUS
10
1.16974
20
1.5562
11
1.16974
21
1.6112
0
LINE
8
BLACK
6
CONTINUOUS
10
1.16974
20
1.6112
11
1.20474
21
1.6112
0
LINE
8
BLACK
6
CONTINUOUS
10
1.20474
20
1.6112
11
1.20474
21
1.5562
0
LINE
8
BLACK
6
CONTINUOUS
10
0.742236
20
1.6187
11
0.687236
21
1.6187
0
LINE
8
BLACK
6
CONTINUOUS
10
0.687236
20
1.6187
11
0.687236
21
1.6537
0
LINE
8
BLACK
6
CONTINUOUS
10
0.687236
20
1.6537
11
0.742236
21
1.6537
0
LINE
8
BLACK
6
CONTINUOUS
10
0.742236
20
1.6537
11
0.742236
21
1.6187
0
LINE
8
BLACK
6
CONTINUOUS
10
0.509736
20
1.6412
11
0.474736
21
1.6412
0
LINE
8
BLACK
6
CONTINUOUS
10
0.474736
20
1.6412
11
0.474736
21
1.6962
0
LINE
8
BLACK
6
CONTINUOUS
10
0.474736
20
1.6962
11
0.509736
21
1.6962
0
LINE
8
BLACK
6
CONTINUOUS
10
0.509736
20
1.6962
11
0.509736
21
1.6412
0
LINE
8
BLACK
6
CONTINUOUS
10
0.434736
20
1.6412
11
0.399736
21
1.6412
0
LINE
8
BLACK
6
CONTINUOUS
10
0.399736
20
1.6412
11
0.399736
21
1.6962
0
LINE
8
BLACK
6
CONTINUOUS
10
0.399736
20
1.6962
11
0.434736
21
1.6962
0
LINE
8
BLACK
6
CONTINUOUS
10
0.434736
20
1.6962
11
0.434736
21
1.6412
0
LINE
8
BLACK
6
CONTINUOUS
10
0.245197
20
1.65094
11
0.144803
21
1.65094
0
LINE
8
BLACK
6
CONTINUOUS
10
0.144803
20
1.65094
11
0.144803
21
1.78087
0
LINE
8
BLACK
6
CONTINUOUS
10
0.144803
20
1.78087
11
0.245197
21
1.78087
0
LINE
8
BLACK
6
CONTINUOUS
10
0.245197
20
1.78087
11
0.245197
21
1.65094
0
LINE
8
BLACK
6
CONTINUOUS
10
1.37709
20
1.65094
11
1.27669
21
1.65094
0
LINE
8
BLACK
6
CONTINUOUS
10
1.27669
20
1.65094
11
1.27669
21
1.78087
0
LINE
8
BLACK
6
CONTINUOUS
10
1.27669
20
1.78087
11
1.37709
21
1.78087
0
LINE
8
BLACK
6
CONTINUOUS
10
1.37709
20
1.78087
11
1.37709
21
1.65094
0
LINE
8
BLACK
6
CONTINUOUS
10
0.97513
20
1.65615
11
0.949539
21
1.65615
0
LINE
8
BLACK
6
CONTINUOUS
10
0.949539
20
1.65615
11
0.949539
21
1.71756
0
LINE
8
BLACK
6
CONTINUOUS
10
0.949539
20
1.71756
11
0.97513
21
1.71756
0
LINE
8
BLACK
6
CONTINUOUS
10
0.97513
20
1.71756
11
0.97513
21
1.65615
0
LINE
8
BLACK
6
CONTINUOUS
10
1.04993
20
1.65615
11
1.02434
21
1.65615
0
LINE
8
BLACK
6
CONTINUOUS
10
1.02434
20
1.65615
11
1.02434
21
1.71756
0
LINE
8
BLACK
6
CONTINUOUS
10
1.02434
20
1.71756
11
1.04993
21
1.71756
0
LINE
8
BLACK
6
CONTINUOUS
10
1.04993
20
1.71756
11
1.04993
21
1.65615
0
LINE
8
BLACK
6
CONTINUOUS
10
1.12974
20
1.6562
11
1.09474
21
1.6562
0
LINE
8
BLACK
6
CONTINUOUS
10
1.09474
20
1.6562
11
1.09474
21
1.7112
0
LINE
8
BLACK
6
CONTINUOUS
10
1.09474
20
1.7112
11
1.12974
21
1.7112
0
LINE
8
BLACK
6
CONTINUOUS
10
1.12974
20
1.7112
11
1.12974
21
1.6562
0
LINE
8
BLACK
6
CONTINUOUS
10
0.904736
20
1.6562
11
0.869736
21
1.6562
0
LINE
8
BLACK
6
CONTINUOUS
10
0.869736
20
1.6562
11
0.869736
21
1.7112
0
LINE
8
BLACK
6
CONTINUOUS
10
0.869736
20
1.7112
11
0.904736
21
1.7112
0
LINE
8
BLACK
6
CONTINUOUS
10
0.904736
20
1.7112
11
0.904736
21
1.6562
0
LINE
8
BLACK
6
CONTINUOUS
10
0.829736
20
1.6562
11
0.794736
21
1.6562
0
LINE
8
BLACK
6
CONTINUOUS
10
0.794736
20
1.6562
11
0.794736
21
1.7112
0
LINE
8
BLACK
6
CONTINUOUS
10
0.794736
20
1.7112
11
0.829736
21
1.7112
0
LINE
8
BLACK
6
CONTINUOUS
10
0.829736
20
1.7112
11
0.829736
21
1.6562
0
LINE
8
BLACK
6
CONTINUOUS
10
1.20474
20
1.6562
11
1.16974
21
1.6562
0
LINE
8
BLACK
6
CONTINUOUS
10
1.16974
20
1.6562
11
1.16974
21
1.7112
0
LINE
8
BLACK
6
CONTINUOUS
10
1.16974
20
1.7112
11
1.20474
21
1.7112
0
LINE
8
BLACK
6
CONTINUOUS
10
1.20474
20
1.7112
11
1.20474
21
1.6562
0
LINE
8
BLACK
6
CONTINUOUS
10
1.19008
20
1.7415
11
1.04047
21
1.7415
0
LINE
8
BLACK
6
CONTINUOUS
10
1.04047
20
1.7415
11
1.04047
21
1.78087
0
LINE
8
BLACK
6
CONTINUOUS
10
1.04047
20
1.78087
11
1.19008
21
1.78087
0
LINE
8
BLACK
6
CONTINUOUS
10
1.19008
20
1.78087
11
1.19008
21
1.7415
0
LINE
8
BLACK
6
CONTINUOUS
10
0.953858
20
1.7415
11
0.804252
21
1.7415
0
LINE
8
BLACK
6
CONTINUOUS
10
0.804252
20
1.7415
11
0.804252
21
1.78087
0
LINE
8
BLACK
6
CONTINUOUS
10
0.804252
20
1.78087
11
0.953858
21
1.78087
0
LINE
8
BLACK
6
CONTINUOUS
10
0.953858
20
1.78087
11
0.953858
21
1.7415
0
LINE
8
BLACK
6
CONTINUOUS
10
0.717638
20
1.7415
11
0.568031
21
1.7415
0
LINE
8
BLACK
6
CONTINUOUS
10
0.568031
20
1.7415
11
0.568031
21
1.78087
0
LINE
8
BLACK
6
CONTINUOUS
10
0.568031
20
1.78087
11
0.717638
21
1.78087
0
LINE
8
BLACK
6
CONTINUOUS
10
0.717638
20
1.78087
11
0.717638
21
1.7415
0
LINE
8
BLACK
6
CONTINUOUS
10
0.481417
20
1.7415
11
0.331811
21
1.7415
0
LINE
8
BLACK
6
CONTINUOUS
10
0.331811
20
1.7415
11
0.331811
21
1.78087
0
LINE
8
BLACK
6
CONTINUOUS
10
0.331811
20
1.78087
11
0.481417
21
1.78087
0
LINE
8
BLACK
6
CONTINUOUS
10
0.481417
20
1.78087
11
0.481417
21
1.7415
0
LINE
8
BLACK
6
CONTINUOUS
10
0.480472
20
1.82902
11
0.330866
21
1.82902
0
LINE
8
BLACK
6
CONTINUOUS
10
0.330866
20
1.82902
11
0.330866
21
1.86839
0
LINE
8
BLACK
6
CONTINUOUS
10
0.330866
20
1.86839
11
0.480472
21
1.86839
0
LINE
8
BLACK
6
CONTINUOUS
10
0.480472
20
1.86839
11
0.480472
21
1.82902
0
LINE
8
BLACK
6
CONTINUOUS
10
1.18913
20
1.82902
11
1.03953
21
1.82902
0
LINE
8
BLACK
6
CONTINUOUS
10
1.03953
20
1.82902
11
1.03953
21
1.86839
0
LINE
8
BLACK
6
CONTINUOUS
10
1.03953
20
1.86839
11
1.18913
21
1.86839
0
LINE
8
BLACK
6
CONTINUOUS
10
1.18913
20
1.86839
11
1.18913
21
1.82902
0
LINE
8
BLACK
6
CONTINUOUS
10
0.716693
20
1.82902
11
0.567087
21
1.82902
0
LINE
8
BLACK
6
CONTINUOUS
10
0.567087
20
1.82902
11
0.567087
21
1.86839
0
LINE
8
BLACK
6
CONTINUOUS
10
0.567087
20
1.86839
11
0.716693
21
1.86839
0
LINE
8
BLACK
6
CONTINUOUS
10
0.716693
20
1.86839
11
0.716693
21
1.82902
0
LINE
8
BLACK
6
CONTINUOUS
10
1.27575
20
1.82902
11
1.27575
21
1.86839
0
LINE
8
BLACK
6
CONTINUOUS
10
1.27575
20
1.86839
11
1.33677
21
1.86839
0
LINE
8
BLACK
6
CONTINUOUS
10
1.33677
20
1.86839
11
1.33677
21
1.95894
0
LINE
8
BLACK
6
CONTINUOUS
10
1.33677
20
1.95894
11
1.37614
21
1.95894
0
LINE
8
BLACK
6
CONTINUOUS
10
1.37614
20
1.95894
11
1.37614
21
1.82902
0
LINE
8
BLACK
6
CONTINUOUS
10
1.37614
20
1.82902
11
1.27575
21
1.82902
0
LINE
8
BLACK
6
CONTINUOUS
10
0.143858
20
1.95894
11
0.183228
21
1.95894
0
LINE
8
BLACK
6
CONTINUOUS
10
0.183228
20
1.95894
11
0.183228
21
1.86839
0
LINE
8
BLACK
6
CONTINUOUS
10
0.183228
20
1.86839
11
0.244252
21
1.86839
0
LINE
8
BLACK
6
CONTINUOUS
10
0.244252
20
1.86839
11
0.244252
21
1.82902
0
LINE
8
BLACK
6
CONTINUOUS
10
0.244252
20
1.82902
11
0.143858
21
1.82902
0
LINE
8
BLACK
6
CONTINUOUS
10
0.143858
20
1.82902
11
0.143858
21
1.95894
0
LINE
8
BLACK
6
CONTINUOUS
10
0.952913
20
1.82902
11
0.803307
21
1.82902
0
LINE
8
BLACK
6
CONTINUOUS
10
0.803307
20
1.82902
11
0.803307
21
1.86839
0
LINE
8
BLACK
6
CONTINUOUS
10
0.803307
20
1.86839
11
0.952913
21
1.86839
0
LINE
8
BLACK
6
CONTINUOUS
10
0.952913
20
1.86839
11
0.952913
21
1.82902
0
LINE
8
BLACK
6
CONTINUOUS
10
1.26953
20
1.90402
11
1.21047
21
1.90402
0
LINE
8
BLACK
6
CONTINUOUS
10
1.21047
20
1.90402
11
1.21047
21
1.9552
0
LINE
8
BLACK
6
CONTINUOUS
10
1.21047
20
1.9552
11
1.26953
21
1.9552
0
LINE
8
BLACK
6
CONTINUOUS
10
1.26953
20
1.9552
11
1.26953
21
1.90402
0
LINE
8
BLACK
6
CONTINUOUS
10
1.1525
20
1.90841
11
1.0975
21
1.90841
0
LINE
8
BLACK
6
CONTINUOUS
10
1.0975
20
1.90841
11
1.0975
21
1.94341
0
LINE
8
BLACK
6
CONTINUOUS
10
1.0975
20
1.94341
11
1.1525
21
1.94341
0
LINE
8
BLACK
6
CONTINUOUS
10
1.1525
20
1.94341
11
1.1525
21
1.90841
0
LINE
8
BLACK
6
CONTINUOUS
10
0.7275
20
1.95991
11
0.6725
21
1.95991
0
LINE
8
BLACK
6
CONTINUOUS
10
0.6725
20
1.95991
11
0.6725
21
1.99491
0
LINE
8
BLACK
6
CONTINUOUS
10
0.6725
20
1.99491
11
0.7275
21
1.99491
0
LINE
8
BLACK
6
CONTINUOUS
10
0.7275
20
1.99491
11
0.7275
21
1.95991
0
LINE
8
BLACK
6
CONTINUOUS
10
0.9345
20
1.96741
11
0.8745
21
1.96741
0
LINE
8
BLACK
6
CONTINUOUS
10
0.8745
20
1.96741
11
0.8745
21
2.02741
0
LINE
8
BLACK
6
CONTINUOUS
10
0.8745
20
2.02741
11
0.9345
21
2.02741
0
LINE
8
BLACK
6
CONTINUOUS
10
0.9345
20
2.02741
11
0.9345
21
1.96741
0
LINE
8
BLACK
6
CONTINUOUS
10
1.0345
20
1.96741
11
0.9745
21
1.96741
0
LINE
8
BLACK
6
CONTINUOUS
10
0.9745
20
1.96741
11
0.9745
21
2.02741
0
LINE
8
BLACK
6
CONTINUOUS
10
0.9745
20
2.02741
11
1.0345
21
2.02741
0
LINE
8
BLACK
6
CONTINUOUS
10
1.0345
20
2.02741
11
1.0345
21
1.96741
0
LINE
8
BLACK
6
CONTINUOUS
10
0.8345
20
1.96741
11
0.7745
21
1.96741
0
LINE
8
BLACK
6
CONTINUOUS
10
0.7745
20
1.96741
11
0.7745
21
2.02741
0
LINE
8
BLACK
6
CONTINUOUS
10
0.7745
20
2.02741
11
0.8345
21
2.02741
0
LINE
8
BLACK
6
CONTINUOUS
10
0.8345
20
2.02741
11
0.8345
21
1.96741
0
LINE
8
BLACK
6
CONTINUOUS
10
1.29906
20
1.96898
11
1.18094
21
1.96898
0
LINE
8
BLACK
6
CONTINUOUS
10
1.18094
20
1.96898
11
1.18094
21
1.99654
0
LINE
8
BLACK
6
CONTINUOUS
10
1.18094
20
1.99654
11
1.29906
21
1.99654
0
LINE
8
BLACK
6
CONTINUOUS
10
1.29906
20
1.99654
11
1.29906
21
1.96898
0
LINE
8
BLACK
6
CONTINUOUS
10
0.5725
20
1.97841
11
0.5375
21
1.97841
0
LINE
8
BLACK
6
CONTINUOUS
10
0.5375
20
1.97841
11
0.5375
21
2.03341
0
LINE
8
BLACK
6
CONTINUOUS
10
0.5375
20
2.03341
11
0.5725
21
2.03341
0
LINE
8
BLACK
6
CONTINUOUS
10
0.5725
20
2.03341
11
0.5725
21
1.97841
0
LINE
8
BLACK
6
CONTINUOUS
10
0.6475
20
1.97841
11
0.6125
21
1.97841
0
LINE
8
BLACK
6
CONTINUOUS
10
0.6125
20
1.97841
11
0.6125
21
2.03341
0
LINE
8
BLACK
6
CONTINUOUS
10
0.6125
20
2.03341
11
0.6475
21
2.03341
0
LINE
8
BLACK
6
CONTINUOUS
10
0.6475
20
2.03341
11
0.6475
21
1.97841
0
LINE
8
BLACK
6
CONTINUOUS
10
1.1525
20
1.98341
11
1.0975
21
1.98341
0
LINE
8
BLACK
6
CONTINUOUS
10
1.0975
20
1.98341
11
1.0975
21
2.01841
0
LINE
8
BLACK
6
CONTINUOUS
10
1.0975
20
2.01841
11
1.1525
21
2.01841
0
LINE
8
BLACK
6
CONTINUOUS
10
1.1525
20
2.01841
11
1.1525
21
1.98341
0
LINE
8
BLACK
6
CONTINUOUS
10
1.26953
20
2.01031
11
1.21047
21
2.01031
0
LINE
8
BLACK
6
CONTINUOUS
10
1.21047
20
2.01031
11
1.21047
21
2.0615
0
LINE
8
BLACK
6
CONTINUOUS
10
1.21047
20
2.0615
11
1.26953
21
2.0615
0
LINE
8
BLACK
6
CONTINUOUS
10
1.26953
20
2.0615
11
1.26953
21
2.01031
0
LINE
8
BLACK
6
CONTINUOUS
10
0.316811
20
2.02409
11
0.293189
21
2.02409
0
LINE
8
BLACK
6
CONTINUOUS
10
0.293189
20
2.02409
11
0.293189
21
2.08512
0
LINE
8
BLACK
6
CONTINUOUS
10
0.293189
20
2.08512
11
0.316811
21
2.08512
0
LINE
8
BLACK
6
CONTINUOUS
10
0.316811
20
2.08512
11
0.316811
21
2.02409
0
LINE
8
BLACK
6
CONTINUOUS
10
0.266811
20
2.02409
11
0.243189
21
2.02409
0
LINE
8
BLACK
6
CONTINUOUS
10
0.243189
20
2.02409
11
0.243189
21
2.08512
0
LINE
8
BLACK
6
CONTINUOUS
10
0.243189
20
2.08512
11
0.266811
21
2.08512
0
LINE
8
BLACK
6
CONTINUOUS
10
0.266811
20
2.08512
11
0.266811
21
2.02409
0
LINE
8
BLACK
6
CONTINUOUS
10
0.416811
20
2.02409
11
0.393189
21
2.02409
0
LINE
8
BLACK
6
CONTINUOUS
10
0.393189
20
2.02409
11
0.393189
21
2.08512
0
LINE
8
BLACK
6
CONTINUOUS
10
0.393189
20
2.08512
11
0.416811
21
2.08512
0
LINE
8
BLACK
6
CONTINUOUS
10
0.416811
20
2.08512
11
0.416811
21
2.02409
0
LINE
8
BLACK
6
CONTINUOUS
10
0.366811
20
2.02409
11
0.343189
21
2.02409
0
LINE
8
BLACK
6
CONTINUOUS
10
0.343189
20
2.02409
11
0.343189
21
2.08512
0
LINE
8
BLACK
6
CONTINUOUS
10
0.343189
20
2.08512
11
0.366811
21
2.08512
0
LINE
8
BLACK
6
CONTINUOUS
10
0.366811
20
2.08512
11
0.366811
21
2.02409
0
LINE
8
BLACK
6
CONTINUOUS
10
0.7275
20
2.03491
11
0.6725
21
2.03491
0
LINE
8
BLACK
6
CONTINUOUS
10
0.6725
20
2.03491
11
0.6725
21
2.06991
0
LINE
8
BLACK
6
CONTINUOUS
10
0.6725
20
2.06991
11
0.7275
21
2.06991
0
LINE
8
BLACK
6
CONTINUOUS
10
0.7275
20
2.06991
11
0.7275
21
2.03491
0
LINE
8
BLACK
6
CONTINUOUS
10
0.183228
20
2.04555
11
0.143858
21
2.04555
0
LINE
8
BLACK
6
CONTINUOUS
10
0.143858
20
2.04555
11
0.143858
21
2.19516
0
LINE
8
BLACK
6
CONTINUOUS
10
0.143858
20
2.19516
11
0.183228
21
2.19516
0
LINE
8
BLACK
6
CONTINUOUS
10
0.183228
20
2.19516
11
0.183228
21
2.04555
0
LINE
8
BLACK
6
CONTINUOUS
10
1.37614
20
2.04555
11
1.33677
21
2.04555
0
LINE
8
BLACK
6
CONTINUOUS
10
1.33677
20
2.04555
11
1.33677
21
2.19516
0
LINE
8
BLACK
6
CONTINUOUS
10
1.33677
20
2.19516
11
1.37614
21
2.19516
0
LINE
8
BLACK
6
CONTINUOUS
10
1.37614
20
2.19516
11
1.37614
21
2.04555
0
LINE
8
BLACK
6
CONTINUOUS
10
0.5125
20
2.04841
11
0.4575
21
2.04841
0
LINE
8
BLACK
6
CONTINUOUS
10
0.4575
20
2.04841
11
0.4575
21
2.08341
0
LINE
8
BLACK
6
CONTINUOUS
10
0.4575
20
2.08341
11
0.5125
21
2.08341
0
LINE
8
BLACK
6
CONTINUOUS
10
0.5125
20
2.08341
11
0.5125
21
2.04841
0
LINE
8
BLACK
6
CONTINUOUS
10
1.0345
20
2.06741
11
0.9745
21
2.06741
0
LINE
8
BLACK
6
CONTINUOUS
10
0.9745
20
2.06741
11
0.9745
21
2.12741
0
LINE
8
BLACK
6
CONTINUOUS
10
0.9745
20
2.12741
11
1.0345
21
2.12741
0
LINE
8
BLACK
6
CONTINUOUS
10
1.0345
20
2.12741
11
1.0345
21
2.06741
0
LINE
8
BLACK
6
CONTINUOUS
10
0.9345
20
2.06741
11
0.8745
21
2.06741
0
LINE
8
BLACK
6
CONTINUOUS
10
0.8745
20
2.06741
11
0.8745
21
2.12741
0
LINE
8
BLACK
6
CONTINUOUS
10
0.8745
20
2.12741
11
0.9345
21
2.12741
0
LINE
8
BLACK
6
CONTINUOUS
10
0.9345
20
2.12741
11
0.9345
21
2.06741
0
LINE
8
BLACK
6
CONTINUOUS
10
0.8345
20
2.06741
11
0.7745
21
2.06741
0
LINE
8
BLACK
6
CONTINUOUS
10
0.7745
20
2.06741
11
0.7745
21
2.12741
0
LINE
8
BLACK
6
CONTINUOUS
10
0.7745
20
2.12741
11
0.8345
21
2.12741
0
LINE
8
BLACK
6
CONTINUOUS
10
0.8345
20
2.12741
11
0.8345
21
2.06741
0
LINE
8
BLACK
6
CONTINUOUS
10
1.1825
20
2.09341
11
1.1475
21
2.09341
0
LINE
8
BLACK
6
CONTINUOUS
10
1.1475
20
2.09341
11
1.1475
21
2.14841
0
LINE
8
BLACK
6
CONTINUOUS
10
1.1475
20
2.14841
11
1.1825
21
2.14841
0
LINE
8
BLACK
6
CONTINUOUS
10
1.1825
20
2.14841
11
1.1825
21
2.09341
0
LINE
8
BLACK
6
CONTINUOUS
10
1.2575
20
2.09341
11
1.2225
21
2.09341
0
LINE
8
BLACK
6
CONTINUOUS
10
1.2225
20
2.09341
11
1.2225
21
2.14841
0
LINE
8
BLACK
6
CONTINUOUS
10
1.2225
20
2.14841
11
1.2575
21
2.14841
0
LINE
8
BLACK
6
CONTINUOUS
10
1.2575
20
2.14841
11
1.2575
21
2.09341
0
LINE
8
BLACK
6
CONTINUOUS
10
0.686949
20
2.10142
11
0.631949
21
2.10142
0
LINE
8
BLACK
6
CONTINUOUS
10
0.631949
20
2.10142
11
0.631949
21
2.13642
0
LINE
8
BLACK
6
CONTINUOUS
10
0.631949
20
2.13642
11
0.686949
21
2.13642
0
LINE
8
BLACK
6
CONTINUOUS
10
0.686949
20
2.13642
11
0.686949
21
2.10142
0
LINE
8
BLACK
6
CONTINUOUS
10
0.5125
20
2.12341
11
0.4575
21
2.12341
0
LINE
8
BLACK
6
CONTINUOUS
10
0.4575
20
2.12341
11
0.4575
21
2.15841
0
LINE
8
BLACK
6
CONTINUOUS
10
0.4575
20
2.15841
11
0.5125
21
2.15841
0
LINE
8
BLACK
6
CONTINUOUS
10
0.5125
20
2.15841
11
0.5125
21
2.12341
0
LINE
8
BLACK
6
CONTINUOUS
10
0.686949
20
2.17642
11
0.631949
21
2.17642
0
LINE
8
BLACK
6
CONTINUOUS
10
0.631949
20
2.17642
11
0.631949
21
2.21142
0
LINE
8
BLACK
6
CONTINUOUS
10
0.631949
20
2.21142
11
0.686949
21
2.21142
0
LINE
8
BLACK
6
CONTINUOUS
10
0.686949
20
2.21142
11
0.686949
21
2.17642
0
LINE
8
BLACK
6
CONTINUOUS
10
1.1825
20
2.18341
11
1.1475
21
2.18341
0
LINE
8
BLACK
6
CONTINUOUS
10
1.1475
20
2.18341
11
1.1475
21
2.23841
0
LINE
8
BLACK
6
CONTINUOUS
10
1.1475
20
2.23841
11
1.1825
21
2.23841
0
LINE
8
BLACK
6
CONTINUOUS
10
1.1825
20
2.23841
11
1.1825
21
2.18341
0
LINE
8
BLACK
6
CONTINUOUS
10
1.2575
20
2.18341
11
1.2225
21
2.18341
0
LINE
8
BLACK
6
CONTINUOUS
10
1.2225
20
2.18341
11
1.2225
21
2.23841
0
LINE
8
BLACK
6
CONTINUOUS
10
1.2225
20
2.23841
11
1.2575
21
2.23841
0
LINE
8
BLACK
6
CONTINUOUS
10
1.2575
20
2.23841
11
1.2575
21
2.18341
0
LINE
8
BLACK
6
CONTINUOUS
10
0.316811
20
2.23669
11
0.293189
21
2.23669
0
LINE
8
BLACK
6
CONTINUOUS
10
0.293189
20
2.23669
11
0.293189
21
2.29772
0
LINE
8
BLACK
6
CONTINUOUS
10
0.293189
20
2.29772
11
0.316811
21
2.29772
0
LINE
8
BLACK
6
CONTINUOUS
10
0.316811
20
2.29772
11
0.316811
21
2.23669
0
LINE
8
BLACK
6
CONTINUOUS
10
0.366811
20
2.23669
11
0.343189
21
2.23669
0
LINE
8
BLACK
6
CONTINUOUS
10
0.343189
20
2.23669
11
0.343189
21
2.29772
0
LINE
8
BLACK
6
CONTINUOUS
10
0.343189
20
2.29772
11
0.366811
21
2.29772
0
LINE
8
BLACK
6
CONTINUOUS
10
0.366811
20
2.29772
11
0.366811
21
2.23669
0
LINE
8
BLACK
6
CONTINUOUS
10
0.416811
20
2.23669
11
0.393189
21
2.23669
0
LINE
8
BLACK
6
CONTINUOUS
10
0.393189
20
2.23669
11
0.393189
21
2.29772
0
LINE
8
BLACK
6
CONTINUOUS
10
0.393189
20
2.29772
11
0.416811
21
2.29772
0
LINE
8
BLACK
6
CONTINUOUS
10
0.416811
20
2.29772
11
0.416811
21
2.23669
0
LINE
8
BLACK
6
CONTINUOUS
10
0.266811
20
2.23669
11
0.243189
21
2.23669
0
LINE
8
BLACK
6
CONTINUOUS
10
0.243189
20
2.23669
11
0.243189
21
2.29772
0
LINE
8
BLACK
6
CONTINUOUS
10
0.243189
20
2.29772
11
0.266811
21
2.29772
0
LINE
8
BLACK
6
CONTINUOUS
10
0.266811
20
2.29772
11
0.266811
21
2.23669
0
LINE
8
BLACK
6
CONTINUOUS
10
0.833516
20
2.25863
11
0.811862
21
2.25863
0
LINE
8
BLACK
6
CONTINUOUS
10
0.811862
20
2.25863
11
0.811862
21
2.31768
0
LINE
8
BLACK
6
CONTINUOUS
10
0.811862
20
2.31768
11
0.833516
21
2.31768
0
LINE
8
BLACK
6
CONTINUOUS
10
0.833516
20
2.31768
11
0.833516
21
2.25863
0
LINE
8
BLACK
6
CONTINUOUS
10
0.80202
20
2.25863
11
0.780366
21
2.25863
0
LINE
8
BLACK
6
CONTINUOUS
10
0.780366
20
2.25863
11
0.780366
21
2.31768
0
LINE
8
BLACK
6
CONTINUOUS
10
0.780366
20
2.31768
11
0.80202
21
2.31768
0
LINE
8
BLACK
6
CONTINUOUS
10
0.80202
20
2.31768
11
0.80202
21
2.25863
0
LINE
8
BLACK
6
CONTINUOUS
10
0.770524
20
2.25863
11
0.74887
21
2.25863
0
LINE
8
BLACK
6
CONTINUOUS
10
0.74887
20
2.25863
11
0.74887
21
2.31768
0
LINE
8
BLACK
6
CONTINUOUS
10
0.74887
20
2.31768
11
0.770524
21
2.31768
0
LINE
8
BLACK
6
CONTINUOUS
10
0.770524
20
2.31768
11
0.770524
21
2.25863
0
LINE
8
BLACK
6
CONTINUOUS
10
0.739028
20
2.25863
11
0.717374
21
2.25863
0
LINE
8
BLACK
6
CONTINUOUS
10
0.717374
20
2.25863
11
0.717374
21
2.31768
0
LINE
8
BLACK
6
CONTINUOUS
10
0.717374
20
2.31768
11
0.739028
21
2.31768
0
LINE
8
BLACK
6
CONTINUOUS
10
0.739028
20
2.31768
11
0.739028
21
2.25863
0
LINE
8
BLACK
6
CONTINUOUS
10
0.865012
20
2.25863
11
0.843358
21
2.25863
0
LINE
8
BLACK
6
CONTINUOUS
10
0.843358
20
2.25863
11
0.843358
21
2.31768
0
LINE
8
BLACK
6
CONTINUOUS
10
0.843358
20
2.31768
11
0.865012
21
2.31768
0
LINE
8
BLACK
6
CONTINUOUS
10
0.865012
20
2.31768
11
0.865012
21
2.25863
0
LINE
8
BLACK
6
CONTINUOUS
10
0.676035
20
2.25863
11
0.654382
21
2.25863
0
LINE
8
BLACK
6
CONTINUOUS
10
0.654382
20
2.25863
11
0.654382
21
2.31768
0
LINE
8
BLACK
6
CONTINUOUS
10
0.654382
20
2.31768
11
0.676035
21
2.31768
0
LINE
8
BLACK
6
CONTINUOUS
10
0.676035
20
2.31768
11
0.676035
21
2.25863
0
LINE
8
BLACK
6
CONTINUOUS
10
0.896508
20
2.25863
11
0.874854
21
2.25863
0
LINE
8
BLACK
6
CONTINUOUS
10
0.874854
20
2.25863
11
0.874854
21
2.31768
0
LINE
8
BLACK
6
CONTINUOUS
10
0.874854
20
2.31768
11
0.896508
21
2.31768
0
LINE
8
BLACK
6
CONTINUOUS
10
0.896508
20
2.31768
11
0.896508
21
2.25863
0
LINE
8
BLACK
6
CONTINUOUS
10
0.707531
20
2.25863
11
0.685878
21
2.25863
0
LINE
8
BLACK
6
CONTINUOUS
10
0.685878
20
2.25863
11
0.685878
21
2.31768
0
LINE
8
BLACK
6
CONTINUOUS
10
0.685878
20
2.31768
11
0.707531
21
2.31768
0
LINE
8
BLACK
6
CONTINUOUS
10
0.707531
20
2.31768
11
0.707531
21
2.25863
0
LINE
8
BLACK
6
CONTINUOUS
10
0.644539
20
2.25863
11
0.622886
21
2.25863
0
LINE
8
BLACK
6
CONTINUOUS
10
0.622886
20
2.25863
11
0.622886
21
2.31768
0
LINE
8
BLACK
6
CONTINUOUS
10
0.622886
20
2.31768
11
0.644539
21
2.31768
0
LINE
8
BLACK
6
CONTINUOUS
10
0.644539
20
2.31768
11
0.644539
21
2.25863
0
LINE
8
BLACK
6
CONTINUOUS
10
0.613043
20
2.25863
11
0.59139
21
2.25863
0
LINE
8
BLACK
6
CONTINUOUS
10
0.59139
20
2.25863
11
0.59139
21
2.31768
0
LINE
8
BLACK
6
CONTINUOUS
10
0.59139
20
2.31768
11
0.613043
21
2.31768
0
LINE
8
BLACK
6
CONTINUOUS
10
0.613043
20
2.31768
11
0.613043
21
2.25863
0
LINE
8
BLACK
6
CONTINUOUS
10
0.581547
20
2.25863
11
0.559894
21
2.25863
0
LINE
8
BLACK
6
CONTINUOUS
10
0.559894
20
2.25863
11
0.559894
21
2.31768
0
LINE
8
BLACK
6
CONTINUOUS
10
0.559894
20
2.31768
11
0.581547
21
2.31768
0
LINE
8
BLACK
6
CONTINUOUS
10
0.581547
20
2.31768
11
0.581547
21
2.25863
0
LINE
8
BLACK
6
CONTINUOUS
10
1.2602
20
2.27673
11
1.23461
21
2.27673
0
LINE
8
BLACK
6
CONTINUOUS
10
1.23461
20
2.27673
11
1.23461
21
2.31846
0
LINE
8
BLACK
6
CONTINUOUS
10
1.23461
20
2.31846
11
1.2602
21
2.31846
0
LINE
8
BLACK
6
CONTINUOUS
10
1.2602
20
2.31846
11
1.2602
21
2.27673
0
LINE
8
BLACK
6
CONTINUOUS
10
1.18539
20
2.27673
11
1.1598
21
2.27673
0
LINE
8
BLACK
6
CONTINUOUS
10
1.1598
20
2.27673
11
1.1598
21
2.31846
0
LINE
8
BLACK
6
CONTINUOUS
10
1.1598
20
2.31846
11
1.18539
21
2.31846
0
LINE
8
BLACK
6
CONTINUOUS
10
1.18539
20
2.31846
11
1.18539
21
2.27673
0
LINE
8
BLACK
6
CONTINUOUS
10
0.183228
20
2.28177
11
0.143858
21
2.28177
0
LINE
8
BLACK
6
CONTINUOUS
10
0.143858
20
2.28177
11
0.143858
21
2.43138
0
LINE
8
BLACK
6
CONTINUOUS
10
0.143858
20
2.43138
11
0.183228
21
2.43138
0
LINE
8
BLACK
6
CONTINUOUS
10
0.183228
20
2.43138
11
0.183228
21
2.28177
0
LINE
8
BLACK
6
CONTINUOUS
10
1.37614
20
2.28177
11
1.33677
21
2.28177
0
LINE
8
BLACK
6
CONTINUOUS
10
1.33677
20
2.28177
11
1.33677
21
2.43138
0
LINE
8
BLACK
6
CONTINUOUS
10
1.33677
20
2.43138
11
1.37614
21
2.43138
0
LINE
8
BLACK
6
CONTINUOUS
10
1.37614
20
2.43138
11
1.37614
21
2.28177
0
LINE
8
BLACK
6
CONTINUOUS
10
0.4075
20
2.34341
11
0.3725
21
2.34341
0
LINE
8
BLACK
6
CONTINUOUS
10
0.3725
20
2.34341
11
0.3725
21
2.39841
0
LINE
8
BLACK
6
CONTINUOUS
10
0.3725
20
2.39841
11
0.4075
21
2.39841
0
LINE
8
BLACK
6
CONTINUOUS
10
0.4075
20
2.39841
11
0.4075
21
2.34341
0
LINE
8
BLACK
6
CONTINUOUS
10
0.3325
20
2.34341
11
0.2975
21
2.34341
0
LINE
8
BLACK
6
CONTINUOUS
10
0.2975
20
2.34341
11
0.2975
21
2.39841
0
LINE
8
BLACK
6
CONTINUOUS
10
0.2975
20
2.39841
11
0.3325
21
2.39841
0
LINE
8
BLACK
6
CONTINUOUS
10
0.3325
20
2.39841
11
0.3325
21
2.34341
0
LINE
8
BLACK
6
CONTINUOUS
10
0.982138
20
2.34426
11
0.923083
21
2.34426
0
LINE
8
BLACK
6
CONTINUOUS
10
0.923083
20
2.34426
11
0.923083
21
2.36591
0
LINE
8
BLACK
6
CONTINUOUS
10
0.923083
20
2.36591
11
0.982138
21
2.36591
0
LINE
8
BLACK
6
CONTINUOUS
10
0.982138
20
2.36591
11
0.982138
21
2.34426
0
LINE
8
BLACK
6
CONTINUOUS
10
0.533319
20
2.34426
11
0.474264
21
2.34426
0
LINE
8
BLACK
6
CONTINUOUS
10
0.474264
20
2.34426
11
0.474264
21
2.36591
0
LINE
8
BLACK
6
CONTINUOUS
10
0.474264
20
2.36591
11
0.533319
21
2.36591
0
LINE
8
BLACK
6
CONTINUOUS
10
0.533319
20
2.36591
11
0.533319
21
2.34426
0
LINE
8
BLACK
6
CONTINUOUS
10
1.18539
20
2.36335
11
1.1598
21
2.36335
0
LINE
8
BLACK
6
CONTINUOUS
10
1.1598
20
2.36335
11
1.1598
21
2.40508
0
LINE
8
BLACK
6
CONTINUOUS
10
1.1598
20
2.40508
11
1.18539
21
2.40508
0
LINE
8
BLACK
6
CONTINUOUS
10
1.18539
20
2.40508
11
1.18539
21
2.36335
0
LINE
8
BLACK
6
CONTINUOUS
10
1.2228
20
2.36335
11
1.1972
21
2.36335
0
LINE
8
BLACK
6
CONTINUOUS
10
1.1972
20
2.36335
11
1.1972
21
2.40508
0
LINE
8
BLACK
6
CONTINUOUS
10
1.1972
20
2.40508
11
1.2228
21
2.40508
0
LINE
8
BLACK
6
CONTINUOUS
10
1.2228
20
2.40508
11
1.2228
21
2.36335
0
LINE
8
BLACK
6
CONTINUOUS
10
1.2602
20
2.36335
11
1.23461
21
2.36335
0
LINE
8
BLACK
6
CONTINUOUS
10
1.23461
20
2.36335
11
1.23461
21
2.40508
0
LINE
8
BLACK
6
CONTINUOUS
10
1.23461
20
2.40508
11
1.2602
21
2.40508
0
LINE
8
BLACK
6
CONTINUOUS
10
1.2602
20
2.40508
11
1.2602
21
2.36335
0
LINE
8
BLACK
6
CONTINUOUS
10
0.982138
20
2.37575
11
0.923083
21
2.37575
0
LINE
8
BLACK
6
CONTINUOUS
10
0.923083
20
2.37575
11
0.923083
21
2.39741
0
LINE
8
BLACK
6
CONTINUOUS
10
0.923083
20
2.39741
11
0.982138
21
2.39741
0
LINE
8
BLACK
6
CONTINUOUS
10
0.982138
20
2.39741
11
0.982138
21
2.37575
0
LINE
8
BLACK
6
CONTINUOUS
10
0.533319
20
2.37575
11
0.474264
21
2.37575
0
LINE
8
BLACK
6
CONTINUOUS
10
0.474264
20
2.37575
11
0.474264
21
2.39741
0
LINE
8
BLACK
6
CONTINUOUS
10
0.474264
20
2.39741
11
0.533319
21
2.39741
0
LINE
8
BLACK
6
CONTINUOUS
10
0.533319
20
2.39741
11
0.533319
21
2.37575
0
LINE
8
BLACK
6
CONTINUOUS
10
0.982138
20
2.40725
11
0.923083
21
2.40725
0
LINE
8
BLACK
6
CONTINUOUS
10
0.923083
20
2.40725
11
0.923083
21
2.4289
0
LINE
8
BLACK
6
CONTINUOUS
10
0.923083
20
2.4289
11
0.982138
21
2.4289
0
LINE
8
BLACK
6
CONTINUOUS
10
0.982138
20
2.4289
11
0.982138
21
2.40725
0
LINE
8
BLACK
6
CONTINUOUS
10
0.533319
20
2.40725
11
0.474264
21
2.40725
0
LINE
8
BLACK
6
CONTINUOUS
10
0.474264
20
2.40725
11
0.474264
21
2.4289
0
LINE
8
BLACK
6
CONTINUOUS
10
0.474264
20
2.4289
11
0.533319
21
2.4289
0
LINE
8
BLACK
6
CONTINUOUS
10
0.533319
20
2.4289
11
0.533319
21
2.40725
0
LINE
8
BLACK
6
CONTINUOUS
10
0.4175
20
2.42841
11
0.3625
21
2.42841
0
LINE
8
BLACK
6
CONTINUOUS
10
0.3625
20
2.42841
11
0.3625
21
2.46341
0
LINE
8
BLACK
6
CONTINUOUS
10
0.3625
20
2.46341
11
0.4175
21
2.46341
0
LINE
8
BLACK
6
CONTINUOUS
10
0.4175
20
2.46341
11
0.4175
21
2.42841
0
LINE
8
BLACK
6
CONTINUOUS
10
0.982138
20
2.43874
11
0.923083
21
2.43874
0
LINE
8
BLACK
6
CONTINUOUS
10
0.923083
20
2.43874
11
0.923083
21
2.4604
0
LINE
8
BLACK
6
CONTINUOUS
10
0.923083
20
2.4604
11
0.982138
21
2.4604
0
LINE
8
BLACK
6
CONTINUOUS
10
0.982138
20
2.4604
11
0.982138
21
2.43874
0
LINE
8
BLACK
6
CONTINUOUS
10
0.533319
20
2.43874
11
0.474264
21
2.43874
0
LINE
8
BLACK
6
CONTINUOUS
10
0.474264
20
2.43874
11
0.474264
21
2.4604
0
LINE
8
BLACK
6
CONTINUOUS
10
0.474264
20
2.4604
11
0.533319
21
2.4604
0
LINE
8
BLACK
6
CONTINUOUS
10
0.533319
20
2.4604
11
0.533319
21
2.43874
0
LINE
8
BLACK
6
CONTINUOUS
10
1.10621
20
2.49772
11
1.1094
21
2.49558
0
LINE
8
BLACK
6
CONTINUOUS
10
1.1094
20
2.49558
11
1.11153
21
2.49239
0
LINE
8
BLACK
6
CONTINUOUS
10
1.11153
20
2.49239
11
1.11228
21
2.48862
0
LINE
8
BLACK
6
CONTINUOUS
10
1.11228
20
2.48862
11
1.11228
21
2.45319
0
LINE
8
BLACK
6
CONTINUOUS
10
1.11228
20
2.45319
11
1.11153
21
2.44942
0
LINE
8
BLACK
6
CONTINUOUS
10
1.11153
20
2.44942
11
1.1094
21
2.44623
0
LINE
8
BLACK
6
CONTINUOUS
10
1.1094
20
2.44623
11
1.10621
21
2.4441
0
LINE
8
BLACK
6
CONTINUOUS
10
1.10621
20
2.4441
11
1.10244
21
2.44335
0
LINE
8
BLACK
6
CONTINUOUS
10
1.10244
20
2.44335
11
1.07685
21
2.44335
0
LINE
8
BLACK
6
CONTINUOUS
10
1.07685
20
2.44335
11
1.07308
21
2.4441
0
LINE
8
BLACK
6
CONTINUOUS
10
1.07308
20
2.4441
11
1.06989
21
2.44623
0
LINE
8
BLACK
6
CONTINUOUS
10
1.06989
20
2.44623
11
1.06776
21
2.44942
0
LINE
8
BLACK
6
CONTINUOUS
10
1.06776
20
2.44942
11
1.06701
21
2.45319
0
LINE
8
BLACK
6
CONTINUOUS
10
1.06701
20
2.45319
11
1.06701
21
2.48862
0
LINE
8
BLACK
6
CONTINUOUS
10
1.06701
20
2.48862
11
1.06776
21
2.49239
0
LINE
8
BLACK
6
CONTINUOUS
10
1.06776
20
2.49239
11
1.06989
21
2.49558
0
LINE
8
BLACK
6
CONTINUOUS
10
1.06989
20
2.49558
11
1.07308
21
2.49772
0
LINE
8
BLACK
6
CONTINUOUS
10
1.07308
20
2.49772
11
1.07685
21
2.49846
0
LINE
8
BLACK
6
CONTINUOUS
10
1.07685
20
2.49846
11
1.10244
21
2.49846
0
LINE
8
BLACK
6
CONTINUOUS
10
1.10244
20
2.49846
11
1.10621
21
2.49772
0
LINE
8
BLACK
6
CONTINUOUS
10
1.18692
20
2.49772
11
1.19011
21
2.49558
0
LINE
8
BLACK
6
CONTINUOUS
10
1.19011
20
2.49558
11
1.19224
21
2.49239
0
LINE
8
BLACK
6
CONTINUOUS
10
1.19224
20
2.49239
11
1.19299
21
2.48862
0
LINE
8
BLACK
6
CONTINUOUS
10
1.19299
20
2.48862
11
1.19299
21
2.45319
0
LINE
8
BLACK
6
CONTINUOUS
10
1.19299
20
2.45319
11
1.19224
21
2.44942
0
LINE
8
BLACK
6
CONTINUOUS
10
1.19224
20
2.44942
11
1.19011
21
2.44623
0
LINE
8
BLACK
6
CONTINUOUS
10
1.19011
20
2.44623
11
1.18692
21
2.4441
0
LINE
8
BLACK
6
CONTINUOUS
10
1.18692
20
2.4441
11
1.18315
21
2.44335
0
LINE
8
BLACK
6
CONTINUOUS
10
1.18315
20
2.44335
11
1.15756
21
2.44335
0
LINE
8
BLACK
6
CONTINUOUS
10
1.15756
20
2.44335
11
1.15379
21
2.4441
0
LINE
8
BLACK
6
CONTINUOUS
10
1.15379
20
2.4441
11
1.1506
21
2.44623
0
LINE
8
BLACK
6
CONTINUOUS
10
1.1506
20
2.44623
11
1.14847
21
2.44942
0
LINE
8
BLACK
6
CONTINUOUS
10
1.14847
20
2.44942
11
1.14772
21
2.45319
0
LINE
8
BLACK
6
CONTINUOUS
10
1.14772
20
2.45319
11
1.14772
21
2.48862
0
LINE
8
BLACK
6
CONTINUOUS
10
1.14772
20
2.48862
11
1.14847
21
2.49239
0
LINE
8
BLACK
6
CONTINUOUS
10
1.14847
20
2.49239
11
1.1506
21
2.49558
0
LINE
8
BLACK
6
CONTINUOUS
10
1.1506
20
2.49558
11
1.15379
21
2.49772
0
LINE
8
BLACK
6
CONTINUOUS
10
1.15379
20
2.49772
11
1.15756
21
2.49846
0
LINE
8
BLACK
6
CONTINUOUS
10
1.15756
20
2.49846
11
1.18315
21
2.49846
0
LINE
8
BLACK
6
CONTINUOUS
10
1.18315
20
2.49846
11
1.18692
21
2.49772
0
LINE
8
BLACK
6
CONTINUOUS
10
2.91114
20
2.46886
11
2.87614
21
2.46886
0
LINE
8
BLACK
6
CONTINUOUS
10
2.87614
20
2.46886
11
2.87614
21
2.52386
0
LINE
8
BLACK
6
CONTINUOUS
10
2.87614
20
2.52386
11
2.91114
21
2.52386
0
LINE
8
BLACK
6
CONTINUOUS
10
2.91114
20
2.52386
11
2.91114
21
2.46886
0
LINE
8
BLACK
6
CONTINUOUS
10
2.83614
20
2.46886
11
2.80114
21
2.46886
0
LINE
8
BLACK
6
CONTINUOUS
10
2.80114
20
2.46886
11
2.80114
21
2.52386
0
LINE
8
BLACK
6
CONTINUOUS
10
2.80114
20
2.52386
11
2.83614
21
2.52386
0
LINE
8
BLACK
6
CONTINUOUS
10
2.83614
20
2.52386
11
2.83614
21
2.46886
0
LINE
8
BLACK
6
CONTINUOUS
10
2.74618
20
2.46886
11
2.71118
21
2.46886
0
LINE
8
BLACK
6
CONTINUOUS
10
2.71118
20
2.46886
11
2.71118
21
2.52386
0
LINE
8
BLACK
6
CONTINUOUS
10
2.71118
20
2.52386
11
2.74618
21
2.52386
0
LINE
8
BLACK
6
CONTINUOUS
10
2.74618
20
2.52386
11
2.74618
21
2.46886
0
LINE
8
BLACK
6
CONTINUOUS
10
2.67118
20
2.46886
11
2.63618
21
2.46886
0
LINE
8
BLACK
6
CONTINUOUS
10
2.63618
20
2.46886
11
2.63618
21
2.52386
0
LINE
8
BLACK
6
CONTINUOUS
10
2.63618
20
2.52386
11
2.67118
21
2.52386
0
LINE
8
BLACK
6
CONTINUOUS
10
2.67118
20
2.52386
11
2.67118
21
2.46886
0
LINE
8
BLACK
6
CONTINUOUS
10
0.533319
20
2.47024
11
0.474264
21
2.47024
0
LINE
8
BLACK
6
CONTINUOUS
10
0.474264
20
2.47024
11
0.474264
21
2.49189
0
LINE
8
BLACK
6
CONTINUOUS
10
0.474264
20
2.49189
11
0.533319
21
2.49189
0
LINE
8
BLACK
6
CONTINUOUS
10
0.533319
20
2.49189
11
0.533319
21
2.47024
0
LINE
8
BLACK
6
CONTINUOUS
10
0.982138
20
2.47024
11
0.923083
21
2.47024
0
LINE
8
BLACK
6
CONTINUOUS
10
0.923083
20
2.47024
11
0.923083
21
2.49189
0
LINE
8
BLACK
6
CONTINUOUS
10
0.923083
20
2.49189
11
0.982138
21
2.49189
0
LINE
8
BLACK
6
CONTINUOUS
10
0.982138
20
2.49189
11
0.982138
21
2.47024
0
LINE
8
BLACK
6
CONTINUOUS
10
0.533319
20
2.50174
11
0.474264
21
2.50174
0
LINE
8
BLACK
6
CONTINUOUS
10
0.474264
20
2.50174
11
0.474264
21
2.52339
0
LINE
8
BLACK
6
CONTINUOUS
10
0.474264
20
2.52339
11
0.533319
21
2.52339
0
LINE
8
BLACK
6
CONTINUOUS
10
0.533319
20
2.52339
11
0.533319
21
2.50174
0
LINE
8
BLACK
6
CONTINUOUS
10
0.982138
20
2.50174
11
0.923083
21
2.50174
0
LINE
8
BLACK
6
CONTINUOUS
10
0.923083
20
2.50174
11
0.923083
21
2.52339
0
LINE
8
BLACK
6
CONTINUOUS
10
0.923083
20
2.52339
11
0.982138
21
2.52339
0
LINE
8
BLACK
6
CONTINUOUS
10
0.982138
20
2.52339
11
0.982138
21
2.50174
0
LINE
8
BLACK
6
CONTINUOUS
10
0.4175
20
2.50341
11
0.3625
21
2.50341
0
LINE
8
BLACK
6
CONTINUOUS
10
0.3625
20
2.50341
11
0.3625
21
2.53841
0
LINE
8
BLACK
6
CONTINUOUS
10
0.3625
20
2.53841
11
0.4175
21
2.53841
0
LINE
8
BLACK
6
CONTINUOUS
10
0.4175
20
2.53841
11
0.4175
21
2.50341
0
LINE
8
BLACK
6
CONTINUOUS
10
0.183228
20
2.51799
11
0.143858
21
2.51799
0
LINE
8
BLACK
6
CONTINUOUS
10
0.143858
20
2.51799
11
0.143858
21
2.6676
0
LINE
8
BLACK
6
CONTINUOUS
10
0.143858
20
2.6676
11
0.183228
21
2.6676
0
LINE
8
BLACK
6
CONTINUOUS
10
0.183228
20
2.6676
11
0.183228
21
2.51799
0
LINE
8
BLACK
6
CONTINUOUS
10
1.37614
20
2.51799
11
1.33677
21
2.51799
0
LINE
8
BLACK
6
CONTINUOUS
10
1.33677
20
2.51799
11
1.33677
21
2.6676
0
LINE
8
BLACK
6
CONTINUOUS
10
1.33677
20
2.6676
11
1.37614
21
2.6676
0
LINE
8
BLACK
6
CONTINUOUS
10
1.37614
20
2.6676
11
1.37614
21
2.51799
0
LINE
8
BLACK
6
CONTINUOUS
10
0.533319
20
2.53323
11
0.474264
21
2.53323
0
LINE
8
BLACK
6
CONTINUOUS
10
0.474264
20
2.53323
11
0.474264
21
2.55489
0
LINE
8
BLACK
6
CONTINUOUS
10
0.474264
20
2.55489
11
0.533319
21
2.55489
0
LINE
8
BLACK
6
CONTINUOUS
10
0.533319
20
2.55489
11
0.533319
21
2.53323
0
LINE
8
BLACK
6
CONTINUOUS
10
0.982138
20
2.53323
11
0.923083
21
2.53323
0
LINE
8
BLACK
6
CONTINUOUS
10
0.923083
20
2.53323
11
0.923083
21
2.55489
0
LINE
8
BLACK
6
CONTINUOUS
10
0.923083
20
2.55489
11
0.982138
21
2.55489
0
LINE
8
BLACK
6
CONTINUOUS
10
0.982138
20
2.55489
11
0.982138
21
2.53323
0
LINE
8
BLACK
6
CONTINUOUS
10
1.1025
20
2.53341
11
1.0675
21
2.53341
0
LINE
8
BLACK
6
CONTINUOUS
10
1.0675
20
2.53341
11
1.0675
21
2.58841
0
LINE
8
BLACK
6
CONTINUOUS
10
1.0675
20
2.58841
11
1.1025
21
2.58841
0
LINE
8
BLACK
6
CONTINUOUS
10
1.1025
20
2.58841
11
1.1025
21
2.53341
0
LINE
8
BLACK
6
CONTINUOUS
10
1.1775
20
2.53341
11
1.1425
21
2.53341
0
LINE
8
BLACK
6
CONTINUOUS
10
1.1425
20
2.53341
11
1.1425
21
2.58841
0
LINE
8
BLACK
6
CONTINUOUS
10
1.1425
20
2.58841
11
1.1775
21
2.58841
0
LINE
8
BLACK
6
CONTINUOUS
10
1.1775
20
2.58841
11
1.1775
21
2.53341
0
LINE
8
BLACK
6
CONTINUOUS
10
0.982138
20
2.56473
11
0.923083
21
2.56473
0
LINE
8
BLACK
6
CONTINUOUS
10
0.923083
20
2.56473
11
0.923083
21
2.58638
0
LINE
8
BLACK
6
CONTINUOUS
10
0.923083
20
2.58638
11
0.982138
21
2.58638
0
LINE
8
BLACK
6
CONTINUOUS
10
0.982138
20
2.58638
11
0.982138
21
2.56473
0
LINE
8
BLACK
6
CONTINUOUS
10
0.533319
20
2.56473
11
0.474264
21
2.56473
0
LINE
8
BLACK
6
CONTINUOUS
10
0.474264
20
2.56473
11
0.474264
21
2.58638
0
LINE
8
BLACK
6
CONTINUOUS
10
0.474264
20
2.58638
11
0.533319
21
2.58638
0
LINE
8
BLACK
6
CONTINUOUS
10
0.533319
20
2.58638
11
0.533319
21
2.56473
0
LINE
8
BLACK
6
CONTINUOUS
10
0.533319
20
2.59622
11
0.474264
21
2.59622
0
LINE
8
BLACK
6
CONTINUOUS
10
0.474264
20
2.59622
11
0.474264
21
2.61788
0
LINE
8
BLACK
6
CONTINUOUS
10
0.474264
20
2.61788
11
0.533319
21
2.61788
0
LINE
8
BLACK
6
CONTINUOUS
10
0.533319
20
2.61788
11
0.533319
21
2.59622
0
LINE
8
BLACK
6
CONTINUOUS
10
0.982138
20
2.59622
11
0.923083
21
2.59622
0
LINE
8
BLACK
6
CONTINUOUS
10
0.923083
20
2.59622
11
0.923083
21
2.61788
0
LINE
8
BLACK
6
CONTINUOUS
10
0.923083
20
2.61788
11
0.982138
21
2.61788
0
LINE
8
BLACK
6
CONTINUOUS
10
0.982138
20
2.61788
11
0.982138
21
2.59622
0
LINE
8
BLACK
6
CONTINUOUS
10
1.1025
20
2.62341
11
1.0675
21
2.62341
0
LINE
8
BLACK
6
CONTINUOUS
10
1.0675
20
2.62341
11
1.0675
21
2.67841
0
LINE
8
BLACK
6
CONTINUOUS
10
1.0675
20
2.67841
11
1.1025
21
2.67841
0
LINE
8
BLACK
6
CONTINUOUS
10
1.1025
20
2.67841
11
1.1025
21
2.62341
0
LINE
8
BLACK
6
CONTINUOUS
10
1.1775
20
2.62341
11
1.1425
21
2.62341
0
LINE
8
BLACK
6
CONTINUOUS
10
1.1425
20
2.62341
11
1.1425
21
2.67841
0
LINE
8
BLACK
6
CONTINUOUS
10
1.1425
20
2.67841
11
1.1775
21
2.67841
0
LINE
8
BLACK
6
CONTINUOUS
10
1.1775
20
2.67841
11
1.1775
21
2.62341
0
LINE
8
BLACK
6
CONTINUOUS
10
0.982138
20
2.62772
11
0.923083
21
2.62772
0
LINE
8
BLACK
6
CONTINUOUS
10
0.923083
20
2.62772
11
0.923083
21
2.64937
0
LINE
8
BLACK
6
CONTINUOUS
10
0.923083
20
2.64937
11
0.982138
21
2.64937
0
LINE
8
BLACK
6
CONTINUOUS
10
0.982138
20
2.64937
11
0.982138
21
2.62772
0
LINE
8
BLACK
6
CONTINUOUS
10
0.533319
20
2.62772
11
0.474264
21
2.62772
0
LINE
8
BLACK
6
CONTINUOUS
10
0.474264
20
2.62772
11
0.474264
21
2.64937
0
LINE
8
BLACK
6
CONTINUOUS
10
0.474264
20
2.64937
11
0.533319
21
2.64937
0
LINE
8
BLACK
6
CONTINUOUS
10
0.533319
20
2.64937
11
0.533319
21
2.62772
0
LINE
8
BLACK
6
CONTINUOUS
10
0.982138
20
2.65922
11
0.923083
21
2.65922
0
LINE
8
BLACK
6
CONTINUOUS
10
0.923083
20
2.65922
11
0.923083
21
2.68087
0
LINE
8
BLACK
6
CONTINUOUS
10
0.923083
20
2.68087
11
0.982138
21
2.68087
0
LINE
8
BLACK
6
CONTINUOUS
10
0.982138
20
2.68087
11
0.982138
21
2.65922
0
LINE
8
BLACK
6
CONTINUOUS
10
0.533319
20
2.65922
11
0.474264
21
2.65922
0
LINE
8
BLACK
6
CONTINUOUS
10
0.474264
20
2.65922
11
0.474264
21
2.68087
0
LINE
8
BLACK
6
CONTINUOUS
10
0.474264
20
2.68087
11
0.533319
21
2.68087
0
LINE
8
BLACK
6
CONTINUOUS
10
0.533319
20
2.68087
11
0.533319
21
2.65922
0
LINE
8
BLACK
6
CONTINUOUS
10
0.581547
20
2.70744
11
0.559894
21
2.70744
0
LINE
8
BLACK
6
CONTINUOUS
10
0.559894
20
2.70744
11
0.559894
21
2.7665
0
LINE
8
BLACK
6
CONTINUOUS
10
0.559894
20
2.7665
11
0.581547
21
2.7665
0
LINE
8
BLACK
6
CONTINUOUS
10
0.581547
20
2.7665
11
0.581547
21
2.70744
0
LINE
8
BLACK
6
CONTINUOUS
10
0.80202
20
2.70744
11
0.780366
21
2.70744
0
LINE
8
BLACK
6
CONTINUOUS
10
0.780366
20
2.70744
11
0.780366
21
2.7665
0
LINE
8
BLACK
6
CONTINUOUS
10
0.780366
20
2.7665
11
0.80202
21
2.7665
0
LINE
8
BLACK
6
CONTINUOUS
10
0.80202
20
2.7665
11
0.80202
21
2.70744
0
LINE
8
BLACK
6
CONTINUOUS
10
0.770524
20
2.70744
11
0.74887
21
2.70744
0
LINE
8
BLACK
6
CONTINUOUS
10
0.74887
20
2.70744
11
0.74887
21
2.7665
0
LINE
8
BLACK
6
CONTINUOUS
10
0.74887
20
2.7665
11
0.770524
21
2.7665
0
LINE
8
BLACK
6
CONTINUOUS
10
0.770524
20
2.7665
11
0.770524
21
2.70744
0
LINE
8
BLACK
6
CONTINUOUS
10
0.833516
20
2.70744
11
0.811862
21
2.70744
0
LINE
8
BLACK
6
CONTINUOUS
10
0.811862
20
2.70744
11
0.811862
21
2.7665
0
LINE
8
BLACK
6
CONTINUOUS
10
0.811862
20
2.7665
11
0.833516
21
2.7665
0
LINE
8
BLACK
6
CONTINUOUS
10
0.833516
20
2.7665
11
0.833516
21
2.70744
0
LINE
8
BLACK
6
CONTINUOUS
10
0.865012
20
2.70744
11
0.843358
21
2.70744
0
LINE
8
BLACK
6
CONTINUOUS
10
0.843358
20
2.70744
11
0.843358
21
2.7665
0
LINE
8
BLACK
6
CONTINUOUS
10
0.843358
20
2.7665
11
0.865012
21
2.7665
0
LINE
8
BLACK
6
CONTINUOUS
10
0.865012
20
2.7665
11
0.865012
21
2.70744
0
LINE
8
BLACK
6
CONTINUOUS
10
0.739028
20
2.70744
11
0.717374
21
2.70744
0
LINE
8
BLACK
6
CONTINUOUS
10
0.717374
20
2.70744
11
0.717374
21
2.7665
0
LINE
8
BLACK
6
CONTINUOUS
10
0.717374
20
2.7665
11
0.739028
21
2.7665
0
LINE
8
BLACK
6
CONTINUOUS
10
0.739028
20
2.7665
11
0.739028
21
2.70744
0
LINE
8
BLACK
6
CONTINUOUS
10
0.707531
20
2.70744
11
0.685878
21
2.70744
0
LINE
8
BLACK
6
CONTINUOUS
10
0.685878
20
2.70744
11
0.685878
21
2.7665
0
LINE
8
BLACK
6
CONTINUOUS
10
0.685878
20
2.7665
11
0.707531
21
2.7665
0
LINE
8
BLACK
6
CONTINUOUS
10
0.707531
20
2.7665
11
0.707531
21
2.70744
0
LINE
8
BLACK
6
CONTINUOUS
10
0.676035
20
2.70744
11
0.654382
21
2.70744
0
LINE
8
BLACK
6
CONTINUOUS
10
0.654382
20
2.70744
11
0.654382
21
2.7665
0
LINE
8
BLACK
6
CONTINUOUS
10
0.654382
20
2.7665
11
0.676035
21
2.7665
0
LINE
8
BLACK
6
CONTINUOUS
10
0.676035
20
2.7665
11
0.676035
21
2.70744
0
LINE
8
BLACK
6
CONTINUOUS
10
0.644539
20
2.70744
11
0.622886
21
2.70744
0
LINE
8
BLACK
6
CONTINUOUS
10
0.622886
20
2.70744
11
0.622886
21
2.7665
0
LINE
8
BLACK
6
CONTINUOUS
10
0.622886
20
2.7665
11
0.644539
21
2.7665
0
LINE
8
BLACK
6
CONTINUOUS
10
0.644539
20
2.7665
11
0.644539
21
2.70744
0
LINE
8
BLACK
6
CONTINUOUS
10
0.896508
20
2.70744
11
0.874854
21
2.70744
0
LINE
8
BLACK
6
CONTINUOUS
10
0.874854
20
2.70744
11
0.874854
21
2.7665
0
LINE
8
BLACK
6
CONTINUOUS
10
0.874854
20
2.7665
11
0.896508
21
2.7665
0
LINE
8
BLACK
6
CONTINUOUS
10
0.896508
20
2.7665
11
0.896508
21
2.70744
0
LINE
8
BLACK
6
CONTINUOUS
10
0.613043
20
2.70744
11
0.59139
21
2.70744
0
LINE
8
BLACK
6
CONTINUOUS
10
0.59139
20
2.70744
11
0.59139
21
2.7665
0
LINE
8
BLACK
6
CONTINUOUS
10
0.59139
20
2.7665
11
0.613043
21
2.7665
0
LINE
8
BLACK
6
CONTINUOUS
10
0.613043
20
2.7665
11
0.613043
21
2.70744
0
LINE
8
BLACK
6
CONTINUOUS
10
0.183228
20
2.75421
11
0.143858
21
2.75421
0
LINE
8
BLACK
6
CONTINUOUS
10
0.143858
20
2.75421
11
0.143858
21
2.90382
0
LINE
8
BLACK
6
CONTINUOUS
10
0.143858
20
2.90382
11
0.183228
21
2.90382
0
LINE
8
BLACK
6
CONTINUOUS
10
0.183228
20
2.90382
11
0.183228
21
2.75421
0
LINE
8
BLACK
6
CONTINUOUS
10
1.37614
20
2.75421
11
1.33677
21
2.75421
0
LINE
8
BLACK
6
CONTINUOUS
10
1.33677
20
2.75421
11
1.33677
21
2.90382
0
LINE
8
BLACK
6
CONTINUOUS
10
1.33677
20
2.90382
11
1.37614
21
2.90382
0
LINE
8
BLACK
6
CONTINUOUS
10
1.37614
20
2.90382
11
1.37614
21
2.75421
0
LINE
8
BLACK
6
CONTINUOUS
10
0.69
20
2.79841
11
0.655
21
2.79841
0
LINE
8
BLACK
6
CONTINUOUS
10
0.655
20
2.79841
11
0.655
21
2.85341
0
LINE
8
BLACK
6
CONTINUOUS
10
0.655
20
2.85341
11
0.69
21
2.85341
0
LINE
8
BLACK
6
CONTINUOUS
10
0.69
20
2.85341
11
0.69
21
2.79841
0
LINE
8
BLACK
6
CONTINUOUS
10
0.7475
20
2.79841
11
0.7125
21
2.79841
0
LINE
8
BLACK
6
CONTINUOUS
10
0.7125
20
2.79841
11
0.7125
21
2.85341
0
LINE
8
BLACK
6
CONTINUOUS
10
0.7125
20
2.85341
11
0.7475
21
2.85341
0
LINE
8
BLACK
6
CONTINUOUS
10
0.7475
20
2.85341
11
0.7475
21
2.79841
0
LINE
8
BLACK
6
CONTINUOUS
10
0.615
20
2.79841
11
0.58
21
2.79841
0
LINE
8
BLACK
6
CONTINUOUS
10
0.58
20
2.79841
11
0.58
21
2.85341
0
LINE
8
BLACK
6
CONTINUOUS
10
0.58
20
2.85341
11
0.615
21
2.85341
0
LINE
8
BLACK
6
CONTINUOUS
10
0.615
20
2.85341
11
0.615
21
2.79841
0
LINE
8
BLACK
6
CONTINUOUS
10
0.8225
20
2.79841
11
0.7875
21
2.79841
0
LINE
8
BLACK
6
CONTINUOUS
10
0.7875
20
2.79841
11
0.7875
21
2.85341
0
LINE
8
BLACK
6
CONTINUOUS
10
0.7875
20
2.85341
11
0.8225
21
2.85341
0
LINE
8
BLACK
6
CONTINUOUS
10
0.8225
20
2.85341
11
0.8225
21
2.79841
0
LINE
8
BLACK
6
CONTINUOUS
10
0.334921
20
2.84461
11
0.325079
21
2.84461
0
LINE
8
BLACK
6
CONTINUOUS
10
0.325079
20
2.84461
11
0.325079
21
2.88791
0
LINE
8
BLACK
6
CONTINUOUS
10
0.325079
20
2.88791
11
0.334921
21
2.88791
0
LINE
8
BLACK
6
CONTINUOUS
10
0.334921
20
2.88791
11
0.334921
21
2.84461
0
LINE
8
BLACK
6
CONTINUOUS
10
0.295551
20
2.84461
11
0.285709
21
2.84461
0
LINE
8
BLACK
6
CONTINUOUS
10
0.285709
20
2.84461
11
0.285709
21
2.88791
0
LINE
8
BLACK
6
CONTINUOUS
10
0.285709
20
2.88791
11
0.295551
21
2.88791
0
LINE
8
BLACK
6
CONTINUOUS
10
0.295551
20
2.88791
11
0.295551
21
2.84461
0
LINE
8
BLACK
6
CONTINUOUS
10
0.315236
20
2.84461
11
0.305394
21
2.84461
0
LINE
8
BLACK
6
CONTINUOUS
10
0.305394
20
2.84461
11
0.305394
21
2.88791
0
LINE
8
BLACK
6
CONTINUOUS
10
0.305394
20
2.88791
11
0.315236
21
2.88791
0
LINE
8
BLACK
6
CONTINUOUS
10
0.315236
20
2.88791
11
0.315236
21
2.84461
0
LINE
8
BLACK
6
CONTINUOUS
10
0.374291
20
2.84461
11
0.364449
21
2.84461
0
LINE
8
BLACK
6
CONTINUOUS
10
0.364449
20
2.84461
11
0.364449
21
2.88791
0
LINE
8
BLACK
6
CONTINUOUS
10
0.364449
20
2.88791
11
0.374291
21
2.88791
0
LINE
8
BLACK
6
CONTINUOUS
10
0.374291
20
2.88791
11
0.374291
21
2.84461
0
LINE
8
BLACK
6
CONTINUOUS
10
0.354606
20
2.84461
11
0.344764
21
2.84461
0
LINE
8
BLACK
6
CONTINUOUS
10
0.344764
20
2.84461
11
0.344764
21
2.88791
0
LINE
8
BLACK
6
CONTINUOUS
10
0.344764
20
2.88791
11
0.354606
21
2.88791
0
LINE
8
BLACK
6
CONTINUOUS
10
0.354606
20
2.88791
11
0.354606
21
2.84461
0
LINE
8
BLACK
6
CONTINUOUS
10
0.4725
20
2.86341
11
0.4375
21
2.86341
0
LINE
8
BLACK
6
CONTINUOUS
10
0.4375
20
2.86341
11
0.4375
21
2.91841
0
LINE
8
BLACK
6
CONTINUOUS
10
0.4375
20
2.91841
11
0.4725
21
2.91841
0
LINE
8
BLACK
6
CONTINUOUS
10
0.4725
20
2.91841
11
0.4725
21
2.86341
0
LINE
8
BLACK
6
CONTINUOUS
10
0.5475
20
2.86341
11
0.5125
21
2.86341
0
LINE
8
BLACK
6
CONTINUOUS
10
0.5125
20
2.86341
11
0.5125
21
2.91841
0
LINE
8
BLACK
6
CONTINUOUS
10
0.5125
20
2.91841
11
0.5475
21
2.91841
0
LINE
8
BLACK
6
CONTINUOUS
10
0.5475
20
2.91841
11
0.5475
21
2.86341
0
LINE
8
BLACK
6
CONTINUOUS
10
0.695
20
2.88091
11
0.595
21
2.88091
0
LINE
8
BLACK
6
CONTINUOUS
10
0.595
20
2.88091
11
0.595
21
2.93091
0
LINE
8
BLACK
6
CONTINUOUS
10
0.595
20
2.93091
11
0.695
21
2.93091
0
LINE
8
BLACK
6
CONTINUOUS
10
0.695
20
2.93091
11
0.695
21
2.88091
0
LINE
8
BLACK
6
CONTINUOUS
10
0.8425
20
2.88841
11
0.8075
21
2.88841
0
LINE
8
BLACK
6
CONTINUOUS
10
0.8075
20
2.88841
11
0.8075
21
2.94341
0
LINE
8
BLACK
6
CONTINUOUS
10
0.8075
20
2.94341
11
0.8425
21
2.94341
0
LINE
8
BLACK
6
CONTINUOUS
10
0.8425
20
2.94341
11
0.8425
21
2.88841
0
LINE
8
BLACK
6
CONTINUOUS
10
0.7675
20
2.88841
11
0.7325
21
2.88841
0
LINE
8
BLACK
6
CONTINUOUS
10
0.7325
20
2.88841
11
0.7325
21
2.94341
0
LINE
8
BLACK
6
CONTINUOUS
10
0.7325
20
2.94341
11
0.7675
21
2.94341
0
LINE
8
BLACK
6
CONTINUOUS
10
0.7675
20
2.94341
11
0.7675
21
2.88841
0
LINE
8
BLACK
6
CONTINUOUS
10
0.4775
20
2.96841
11
0.4225
21
2.96841
0
LINE
8
BLACK
6
CONTINUOUS
10
0.4225
20
2.96841
11
0.4225
21
3.00341
0
LINE
8
BLACK
6
CONTINUOUS
10
0.4225
20
3.00341
11
0.4775
21
3.00341
0
LINE
8
BLACK
6
CONTINUOUS
10
0.4775
20
3.00341
11
0.4775
21
2.96841
0
LINE
8
BLACK
6
CONTINUOUS
10
1.37614
20
2.99043
11
1.33677
21
2.99043
0
LINE
8
BLACK
6
CONTINUOUS
10
1.33677
20
2.99043
11
1.33677
21
3.14004
0
LINE
8
BLACK
6
CONTINUOUS
10
1.33677
20
3.14004
11
1.37614
21
3.14004
0
LINE
8
BLACK
6
CONTINUOUS
10
1.37614
20
3.14004
11
1.37614
21
2.99043
0
LINE
8
BLACK
6
CONTINUOUS
10
0.183228
20
2.99043
11
0.143858
21
2.99043
0
LINE
8
BLACK
6
CONTINUOUS
10
0.143858
20
2.99043
11
0.143858
21
3.14004
0
LINE
8
BLACK
6
CONTINUOUS
10
0.143858
20
3.14004
11
0.183228
21
3.14004
0
LINE
8
BLACK
6
CONTINUOUS
10
0.183228
20
3.14004
11
0.183228
21
2.99043
0
LINE
8
BLACK
6
CONTINUOUS
10
0.695
20
3.00091
11
0.595
21
3.00091
0
LINE
8
BLACK
6
CONTINUOUS
10
0.595
20
3.00091
11
0.595
21
3.05091
0
LINE
8
BLACK
6
CONTINUOUS
10
0.595
20
3.05091
11
0.695
21
3.05091
0
LINE
8
BLACK
6
CONTINUOUS
10
0.695
20
3.05091
11
0.695
21
3.00091
0
LINE
8
BLACK
6
CONTINUOUS
10
0.295551
20
3.0139
11
0.285709
21
3.0139
0
LINE
8
BLACK
6
CONTINUOUS
10
0.285709
20
3.0139
11
0.285709
21
3.0572
0
LINE
8
BLACK
6
CONTINUOUS
10
0.285709
20
3.0572
11
0.295551
21
3.0572
0
LINE
8
BLACK
6
CONTINUOUS
10
0.295551
20
3.0572
11
0.295551
21
3.0139
0
LINE
8
BLACK
6
CONTINUOUS
10
0.315236
20
3.0139
11
0.305394
21
3.0139
0
LINE
8
BLACK
6
CONTINUOUS
10
0.305394
20
3.0139
11
0.305394
21
3.0572
0
LINE
8
BLACK
6
CONTINUOUS
10
0.305394
20
3.0572
11
0.315236
21
3.0572
0
LINE
8
BLACK
6
CONTINUOUS
10
0.315236
20
3.0572
11
0.315236
21
3.0139
0
LINE
8
BLACK
6
CONTINUOUS
10
0.334921
20
3.0139
11
0.325079
21
3.0139
0
LINE
8
BLACK
6
CONTINUOUS
10
0.325079
20
3.0139
11
0.325079
21
3.0572
0
LINE
8
BLACK
6
CONTINUOUS
10
0.325079
20
3.0572
11
0.334921
21
3.0572
0
LINE
8
BLACK
6
CONTINUOUS
10
0.334921
20
3.0572
11
0.334921
21
3.0139
0
LINE
8
BLACK
6
CONTINUOUS
10
0.354606
20
3.0139
11
0.344764
21
3.0139
0
LINE
8
BLACK
6
CONTINUOUS
10
0.344764
20
3.0139
11
0.344764
21
3.0572
0
LINE
8
BLACK
6
CONTINUOUS
10
0.344764
20
3.0572
11
0.354606
21
3.0572
0
LINE
8
BLACK
6
CONTINUOUS
10
0.354606
20
3.0572
11
0.354606
21
3.0139
0
LINE
8
BLACK
6
CONTINUOUS
10
0.374291
20
3.0139
11
0.364449
21
3.0139
0
LINE
8
BLACK
6
CONTINUOUS
10
0.364449
20
3.0139
11
0.364449
21
3.0572
0
LINE
8
BLACK
6
CONTINUOUS
10
0.364449
20
3.0572
11
0.374291
21
3.0572
0
LINE
8
BLACK
6
CONTINUOUS
10
0.374291
20
3.0572
11
0.374291
21
3.0139
0
LINE
8
BLACK
6
CONTINUOUS
10
0.7975
20
3.01841
11
0.7425
21
3.01841
0
LINE
8
BLACK
6
CONTINUOUS
10
0.7425
20
3.01841
11
0.7425
21
3.05341
0
LINE
8
BLACK
6
CONTINUOUS
10
0.7425
20
3.05341
11
0.7975
21
3.05341
0
LINE
8
BLACK
6
CONTINUOUS
10
0.7975
20
3.05341
11
0.7975
21
3.01841
0
LINE
8
BLACK
6
CONTINUOUS
10
0.8775
20
3.01841
11
0.8225
21
3.01841
0
LINE
8
BLACK
6
CONTINUOUS
10
0.8225
20
3.01841
11
0.8225
21
3.05341
0
LINE
8
BLACK
6
CONTINUOUS
10
0.8225
20
3.05341
11
0.8775
21
3.05341
0
LINE
8
BLACK
6
CONTINUOUS
10
0.8775
20
3.05341
11
0.8775
21
3.01841
0
LINE
8
BLACK
6
CONTINUOUS
10
0.9675
20
3.02341
11
0.9125
21
3.02341
0
LINE
8
BLACK
6
CONTINUOUS
10
0.9125
20
3.02341
11
0.9125
21
3.05841
0
LINE
8
BLACK
6
CONTINUOUS
10
0.9125
20
3.05841
11
0.9675
21
3.05841
0
LINE
8
BLACK
6
CONTINUOUS
10
0.9675
20
3.05841
11
0.9675
21
3.02341
0
LINE
8
BLACK
6
CONTINUOUS
10
0.4775
20
3.04341
11
0.4225
21
3.04341
0
LINE
8
BLACK
6
CONTINUOUS
10
0.4225
20
3.04341
11
0.4225
21
3.07841
0
LINE
8
BLACK
6
CONTINUOUS
10
0.4225
20
3.07841
11
0.4775
21
3.07841
0
LINE
8
BLACK
6
CONTINUOUS
10
0.4775
20
3.07841
11
0.4775
21
3.04341
0
LINE
8
BLACK
6
CONTINUOUS
10
0.8775
20
3.09341
11
0.8225
21
3.09341
0
LINE
8
BLACK
6
CONTINUOUS
10
0.8225
20
3.09341
11
0.8225
21
3.12841
0
LINE
8
BLACK
6
CONTINUOUS
10
0.8225
20
3.12841
11
0.8775
21
3.12841
0
LINE
8
BLACK
6
CONTINUOUS
10
0.8775
20
3.12841
11
0.8775
21
3.09341
0
LINE
8
BLACK
6
CONTINUOUS
10
0.7975
20
3.09341
11
0.7425
21
3.09341
0
LINE
8
BLACK
6
CONTINUOUS
10
0.7425
20
3.09341
11
0.7425
21
3.12841
0
LINE
8
BLACK
6
CONTINUOUS
10
0.7425
20
3.12841
11
0.7975
21
3.12841
0
LINE
8
BLACK
6
CONTINUOUS
10
0.7975
20
3.12841
11
0.7975
21
3.09341
0
LINE
8
BLACK
6
CONTINUOUS
10
0.9675
20
3.09841
11
0.9125
21
3.09841
0
LINE
8
BLACK
6
CONTINUOUS
10
0.9125
20
3.09841
11
0.9125
21
3.13341
0
LINE
8
BLACK
6
CONTINUOUS
10
0.9125
20
3.13341
11
0.9675
21
3.13341
0
LINE
8
BLACK
6
CONTINUOUS
10
0.9675
20
3.13341
11
0.9675
21
3.09841
0
LINE
8
BLACK
6
CONTINUOUS
10
0.378898
20
3.11547
11
0.339528
21
3.11547
0
LINE
8
BLACK
6
CONTINUOUS
10
0.339528
20
3.11547
11
0.339528
21
3.18634
0
LINE
8
BLACK
6
CONTINUOUS
10
0.339528
20
3.18634
11
0.378898
21
3.18634
0
LINE
8
BLACK
6
CONTINUOUS
10
0.378898
20
3.18634
11
0.378898
21
3.11547
0
LINE
8
BLACK
6
CONTINUOUS
10
0.280472
20
3.11547
11
0.241102
21
3.11547
0
LINE
8
BLACK
6
CONTINUOUS
10
0.241102
20
3.11547
11
0.241102
21
3.18634
0
LINE
8
BLACK
6
CONTINUOUS
10
0.241102
20
3.18634
11
0.280472
21
3.18634
0
LINE
8
BLACK
6
CONTINUOUS
10
0.280472
20
3.18634
11
0.280472
21
3.11547
0
LINE
8
BLACK
6
CONTINUOUS
10
0.9325
20
3.19341
11
0.8975
21
3.19341
0
LINE
8
BLACK
6
CONTINUOUS
10
0.8975
20
3.19341
11
0.8975
21
3.24841
0
LINE
8
BLACK
6
CONTINUOUS
10
0.8975
20
3.24841
11
0.9325
21
3.24841
0
LINE
8
BLACK
6
CONTINUOUS
10
0.9325
20
3.24841
11
0.9325
21
3.19341
0
LINE
8
BLACK
6
CONTINUOUS
10
1.0075
20
3.19341
11
0.9725
21
3.19341
0
LINE
8
BLACK
6
CONTINUOUS
10
0.9725
20
3.19341
11
0.9725
21
3.24841
0
LINE
8
BLACK
6
CONTINUOUS
10
0.9725
20
3.24841
11
1.0075
21
3.24841
0
LINE
8
BLACK
6
CONTINUOUS
10
1.0075
20
3.24841
11
1.0075
21
3.19341
0
LINE
8
BLACK
6
CONTINUOUS
10
0.183228
20
3.22665
11
0.143858
21
3.22665
0
LINE
8
BLACK
6
CONTINUOUS
10
0.143858
20
3.22665
11
0.143858
21
3.37626
0
LINE
8
BLACK
6
CONTINUOUS
10
0.143858
20
3.37626
11
0.183228
21
3.37626
0
LINE
8
BLACK
6
CONTINUOUS
10
0.183228
20
3.37626
11
0.183228
21
3.22665
0
LINE
8
BLACK
6
CONTINUOUS
10
1.37614
20
3.22665
11
1.33677
21
3.22665
0
LINE
8
BLACK
6
CONTINUOUS
10
1.33677
20
3.22665
11
1.33677
21
3.37626
0
LINE
8
BLACK
6
CONTINUOUS
10
1.33677
20
3.37626
11
1.37614
21
3.37626
0
LINE
8
BLACK
6
CONTINUOUS
10
1.37614
20
3.37626
11
1.37614
21
3.22665
0
LINE
8
BLACK
6
CONTINUOUS
10
0.675591
20
3.24744
11
0.624409
21
3.24744
0
LINE
8
BLACK
6
CONTINUOUS
10
0.624409
20
3.24744
11
0.624409
21
3.31437
0
LINE
8
BLACK
6
CONTINUOUS
10
0.624409
20
3.31437
11
0.675591
21
3.31437
0
LINE
8
BLACK
6
CONTINUOUS
10
0.675591
20
3.31437
11
0.675591
21
3.24744
0
LINE
8
BLACK
6
CONTINUOUS
10
0.813386
20
3.24744
11
0.762205
21
3.24744
0
LINE
8
BLACK
6
CONTINUOUS
10
0.762205
20
3.24744
11
0.762205
21
3.31437
0
LINE
8
BLACK
6
CONTINUOUS
10
0.762205
20
3.31437
11
0.813386
21
3.31437
0
LINE
8
BLACK
6
CONTINUOUS
10
0.813386
20
3.31437
11
0.813386
21
3.24744
0
LINE
8
BLACK
6
CONTINUOUS
10
0.939528
20
3.28902
11
0.880472
21
3.28902
0
LINE
8
BLACK
6
CONTINUOUS
10
0.880472
20
3.28902
11
0.880472
21
3.3402
0
LINE
8
BLACK
6
CONTINUOUS
10
0.880472
20
3.3402
11
0.939528
21
3.3402
0
LINE
8
BLACK
6
CONTINUOUS
10
0.939528
20
3.3402
11
0.939528
21
3.28902
0
LINE
8
BLACK
6
CONTINUOUS
10
1.0675
20
3.32841
11
1.0125
21
3.32841
0
LINE
8
BLACK
6
CONTINUOUS
10
1.0125
20
3.32841
11
1.0125
21
3.36341
0
LINE
8
BLACK
6
CONTINUOUS
10
1.0125
20
3.36341
11
1.0675
21
3.36341
0
LINE
8
BLACK
6
CONTINUOUS
10
1.0675
20
3.36341
11
1.0675
21
3.32841
0
LINE
8
BLACK
6
CONTINUOUS
10
0.969055
20
3.35398
11
0.850945
21
3.35398
0
LINE
8
BLACK
6
CONTINUOUS
10
0.850945
20
3.35398
11
0.850945
21
3.38154
0
LINE
8
BLACK
6
CONTINUOUS
10
0.850945
20
3.38154
11
0.969055
21
3.38154
0
LINE
8
BLACK
6
CONTINUOUS
10
0.969055
20
3.38154
11
0.969055
21
3.35398
0
LINE
8
BLACK
6
CONTINUOUS
10
0.7775
20
3.39341
11
0.7225
21
3.39341
0
LINE
8
BLACK
6
CONTINUOUS
10
0.7225
20
3.39341
11
0.7225
21
3.42841
0
LINE
8
BLACK
6
CONTINUOUS
10
0.7225
20
3.42841
11
0.7775
21
3.42841
0
LINE
8
BLACK
6
CONTINUOUS
10
0.7775
20
3.42841
11
0.7775
21
3.39341
0
LINE
8
BLACK
6
CONTINUOUS
10
0.939528
20
3.39531
11
0.880472
21
3.39531
0
LINE
8
BLACK
6
CONTINUOUS
10
0.880472
20
3.39531
11
0.880472
21
3.4465
0
LINE
8
BLACK
6
CONTINUOUS
10
0.880472
20
3.4465
11
0.939528
21
3.4465
0
LINE
8
BLACK
6
CONTINUOUS
10
0.939528
20
3.4465
11
0.939528
21
3.39531
0
LINE
8
BLACK
6
CONTINUOUS
10
1.0675
20
3.40341
11
1.0125
21
3.40341
0
LINE
8
BLACK
6
CONTINUOUS
10
1.0125
20
3.40341
11
1.0125
21
3.43841
0
LINE
8
BLACK
6
CONTINUOUS
10
1.0125
20
3.43841
11
1.0675
21
3.43841
0
LINE
8
BLACK
6
CONTINUOUS
10
1.0675
20
3.43841
11
1.0675
21
3.40341
0
LINE
8
BLACK
6
CONTINUOUS
10
1.27575
20
3.5928
11
1.37614
21
3.5928
0
LINE
8
BLACK
6
CONTINUOUS
10
1.37614
20
3.5928
11
1.37614
21
3.46287
0
LINE
8
BLACK
6
CONTINUOUS
10
1.37614
20
3.46287
11
1.33677
21
3.46287
0
LINE
8
BLACK
6
CONTINUOUS
10
1.33677
20
3.46287
11
1.33677
21
3.55343
0
LINE
8
BLACK
6
CONTINUOUS
10
1.33677
20
3.55343
11
1.27575
21
3.55343
0
LINE
8
BLACK
6
CONTINUOUS
10
1.27575
20
3.55343
11
1.27575
21
3.5928
0
LINE
8
BLACK
6
CONTINUOUS
10
0.244252
20
3.5928
11
0.244252
21
3.55343
0
LINE
8
BLACK
6
CONTINUOUS
10
0.244252
20
3.55343
11
0.183228
21
3.55343
0
LINE
8
BLACK
6
CONTINUOUS
10
0.183228
20
3.55343
11
0.183228
21
3.46287
0
LINE
8
BLACK
6
CONTINUOUS
10
0.183228
20
3.46287
11
0.143858
21
3.46287
0
LINE
8
BLACK
6
CONTINUOUS
10
0.143858
20
3.46287
11
0.143858
21
3.5928
0
LINE
8
BLACK
6
CONTINUOUS
10
0.143858
20
3.5928
11
0.244252
21
3.5928
0
LINE
8
BLACK
6
CONTINUOUS
10
0.7775
20
3.46841
11
0.7225
21
3.46841
0
LINE
8
BLACK
6
CONTINUOUS
10
0.7225
20
3.46841
11
0.7225
21
3.50341
0
LINE
8
BLACK
6
CONTINUOUS
10
0.7225
20
3.50341
11
0.7775
21
3.50341
0
LINE
8
BLACK
6
CONTINUOUS
10
0.7775
20
3.50341
11
0.7775
21
3.46841
0
LINE
8
BLACK
6
CONTINUOUS
10
0.952913
20
3.55343
11
0.803307
21
3.55343
0
LINE
8
BLACK
6
CONTINUOUS
10
0.803307
20
3.55343
11
0.803307
21
3.5928
0
LINE
8
BLACK
6
CONTINUOUS
10
0.803307
20
3.5928
11
0.952913
21
3.5928
0
LINE
8
BLACK
6
CONTINUOUS
10
0.952913
20
3.5928
11
0.952913
21
3.55343
0
LINE
8
BLACK
6
CONTINUOUS
10
0.480472
20
3.55343
11
0.330866
21
3.55343
0
LINE
8
BLACK
6
CONTINUOUS
10
0.330866
20
3.55343
11
0.330866
21
3.5928
0
LINE
8
BLACK
6
CONTINUOUS
10
0.330866
20
3.5928
11
0.480472
21
3.5928
0
LINE
8
BLACK
6
CONTINUOUS
10
0.480472
20
3.5928
11
0.480472
21
3.55343
0
LINE
8
BLACK
6
CONTINUOUS
10
1.18913
20
3.55343
11
1.03953
21
3.55343
0
LINE
8
BLACK
6
CONTINUOUS
10
1.03953
20
3.55343
11
1.03953
21
3.5928
0
LINE
8
BLACK
6
CONTINUOUS
10
1.03953
20
3.5928
11
1.18913
21
3.5928
0
LINE
8
BLACK
6
CONTINUOUS
10
1.18913
20
3.5928
11
1.18913
21
3.55343
0
LINE
8
BLACK
6
CONTINUOUS
10
0.716693
20
3.55343
11
0.567087
21
3.55343
0
LINE
8
BLACK
6
CONTINUOUS
10
0.567087
20
3.55343
11
0.567087
21
3.5928
0
LINE
8
BLACK
6
CONTINUOUS
10
0.567087
20
3.5928
11
0.716693
21
3.5928
0
LINE
8
BLACK
6
CONTINUOUS
10
0.716693
20
3.5928
11
0.716693
21
3.55343
  0
ENDSEC
  0
EOF
