  0
SECTION
  2
HEADER
  9
$ANGBASE
  50
0.0
  9
$ANGDIR
  70
1
  9
$MEASUREMENT
  70
0
  0
ENDSEC
  0
SECTION
  2
TABLES
  0
TABLE
  2
LTYPE
  70
4
  0
LTYPE
  5
40F
  2
CONTINUOUS
  70
0
  3
Solid line
  72
65
  73
0
  40
0.0
  0
LTYPE
  5
410
  2
DASHDOT
 70
0
  3
Dash Dot ____ _ ____ _
 72
65
 73
4
 40
2.0
 49
1.25
 49
-0.25
 49
0.25
 49
-0.25
  0
LTYPE
  5
411
  2
DASHED
 70
0
  3
Dashed __ __ __ __ __
 72
65
 73
2
 40
0.75
 49
0.5
 49
-0.25
  0
LTYPE
  5
43B
  2
DOTTED
 70
0
  3
Dotted .  .  .  .
 72
65
 73
2
 40
0.2
 49
0.0
 49
-0.2
  0
ENDTAB
  0
TABLE
  2
STYLE
  70
4
  0
STYLE
  2
KICAD
  70
0
  40
0
  41
1
  42
1
  50
0
  71
0
  3
isocp.shx
  0
STYLE
  2
KICADB
  70
0
  40
0
  41
1
  42
1
  50
0
  71
0
  3
isocp.shx
  0
STYLE
  2
KICADI
  70
0
  40
0
  41
1
  42
1
  50
15
  71
0
  3
isocp.shx
  0
STYLE
  2
KICADBI
  70
0
  40
0
  41
1
  42
1
  50
15
  71
0
  3
isocp.shx
  0
ENDTAB
  0
TABLE
  2
LAYER
  70
1
  0
LAYER
  2
BLACK
  70
0
  62
7
  6
CONTINUOUS
  0
ENDTAB
  0
ENDSEC
  0
SECTION
  2
ENTITIES
0
LINE
8
BLACK
6
CONTINUOUS
10
0.615773
20
0.260371
11
0.615484
21
0.261067
0
LINE
8
BLACK
6
CONTINUOUS
10
0.615484
20
0.261067
11
0.615484
21
0.556343
0
LINE
8
BLACK
6
CONTINUOUS
10
0.615484
20
0.556343
11
0.615773
21
0.557039
0
LINE
8
BLACK
6
CONTINUOUS
10
0.615773
20
0.557039
11
0.616469
21
0.557327
0
LINE
8
BLACK
6
CONTINUOUS
10
0.616469
20
0.557327
11
0.833004
21
0.557327
0
LINE
8
BLACK
6
CONTINUOUS
10
0.833004
20
0.557327
11
0.8337
21
0.557039
0
LINE
8
BLACK
6
CONTINUOUS
10
0.8337
20
0.557039
11
0.833988
21
0.556343
0
LINE
8
BLACK
6
CONTINUOUS
10
0.833988
20
0.556343
11
0.833988
21
0.261067
0
LINE
8
BLACK
6
CONTINUOUS
10
0.833988
20
0.261067
11
0.8337
21
0.260371
0
LINE
8
BLACK
6
CONTINUOUS
10
0.8337
20
0.260371
11
0.833004
21
0.260083
0
LINE
8
BLACK
6
CONTINUOUS
10
0.833004
20
0.260083
11
0.616469
21
0.260083
0
LINE
8
BLACK
6
CONTINUOUS
10
0.616469
20
0.260083
11
0.615773
21
0.260371
0
LINE
8
BLACK
6
CONTINUOUS
10
0.617453
20
0.555358
11
0.617453
21
0.262051
0
LINE
8
BLACK
6
CONTINUOUS
10
0.617453
20
0.262051
11
0.83202
21
0.262051
0
LINE
8
BLACK
6
CONTINUOUS
10
0.83202
20
0.262051
11
0.83202
21
0.555358
0
LINE
8
BLACK
6
CONTINUOUS
10
0.83202
20
0.555358
11
0.617453
21
0.555358
0
LINE
8
BLACK
6
CONTINUOUS
10
0.975143
20
0.54171
11
0.974854
21
0.542406
0
LINE
8
BLACK
6
CONTINUOUS
10
0.974854
20
0.542406
11
0.974854
21
0.676264
0
LINE
8
BLACK
6
CONTINUOUS
10
0.974854
20
0.676264
11
0.975143
21
0.67696
0
LINE
8
BLACK
6
CONTINUOUS
10
0.975143
20
0.67696
11
0.975839
21
0.677248
0
LINE
8
BLACK
6
CONTINUOUS
10
0.975839
20
0.677248
11
1.11363
21
0.677248
0
LINE
8
BLACK
6
CONTINUOUS
10
1.11363
20
0.677248
11
1.11433
21
0.67696
0
LINE
8
BLACK
6
CONTINUOUS
10
1.11433
20
0.67696
11
1.11462
21
0.676264
0
LINE
8
BLACK
6
CONTINUOUS
10
1.11462
20
0.676264
11
1.11462
21
0.542406
0
LINE
8
BLACK
6
CONTINUOUS
10
1.11462
20
0.542406
11
1.11433
21
0.54171
0
LINE
8
BLACK
6
CONTINUOUS
10
1.11433
20
0.54171
11
1.11363
21
0.541421
0
LINE
8
BLACK
6
CONTINUOUS
10
1.11363
20
0.541421
11
0.975839
21
0.541421
0
LINE
8
BLACK
6
CONTINUOUS
10
0.975839
20
0.541421
11
0.975143
21
0.54171
0
LINE
8
BLACK
6
CONTINUOUS
10
0.976823
20
0.67528
11
0.976823
21
0.54339
0
LINE
8
BLACK
6
CONTINUOUS
10
0.976823
20
0.54339
11
1.11265
21
0.54339
0
LINE
8
BLACK
6
CONTINUOUS
10
1.11265
20
0.54339
11
1.11265
21
0.67528
0
LINE
8
BLACK
6
CONTINUOUS
10
1.11265
20
0.67528
11
0.976823
21
0.67528
0
LINE
8
BLACK
6
CONTINUOUS
10
0.695773
20
1.14037
11
0.695484
21
1.14107
0
LINE
8
BLACK
6
CONTINUOUS
10
0.695484
20
1.14107
11
0.695484
21
1.43634
0
LINE
8
BLACK
6
CONTINUOUS
10
0.695484
20
1.43634
11
0.695773
21
1.43704
0
LINE
8
BLACK
6
CONTINUOUS
10
0.695773
20
1.43704
11
0.696469
21
1.43733
0
LINE
8
BLACK
6
CONTINUOUS
10
0.696469
20
1.43733
11
0.913004
21
1.43733
0
LINE
8
BLACK
6
CONTINUOUS
10
0.913004
20
1.43733
11
0.9137
21
1.43704
0
LINE
8
BLACK
6
CONTINUOUS
10
0.9137
20
1.43704
11
0.913988
21
1.43634
0
LINE
8
BLACK
6
CONTINUOUS
10
0.913988
20
1.43634
11
0.913988
21
1.14107
0
LINE
8
BLACK
6
CONTINUOUS
10
0.913988
20
1.14107
11
0.9137
21
1.14037
0
LINE
8
BLACK
6
CONTINUOUS
10
0.9137
20
1.14037
11
0.913004
21
1.14008
0
LINE
8
BLACK
6
CONTINUOUS
10
0.913004
20
1.14008
11
0.696469
21
1.14008
0
LINE
8
BLACK
6
CONTINUOUS
10
0.696469
20
1.14008
11
0.695773
21
1.14037
0
LINE
8
BLACK
6
CONTINUOUS
10
0.697453
20
1.43536
11
0.697453
21
1.14205
0
LINE
8
BLACK
6
CONTINUOUS
10
0.697453
20
1.14205
11
0.91202
21
1.14205
0
LINE
8
BLACK
6
CONTINUOUS
10
0.91202
20
1.14205
11
0.91202
21
1.43536
0
LINE
8
BLACK
6
CONTINUOUS
10
0.91202
20
1.43536
11
0.697453
21
1.43536
0
LINE
8
BLACK
6
CONTINUOUS
10
0.400339
20
1.45714
11
0.400051
21
1.45784
0
LINE
8
BLACK
6
CONTINUOUS
10
0.400051
20
1.45784
11
0.400051
21
1.59957
0
LINE
8
BLACK
6
CONTINUOUS
10
0.400051
20
1.59957
11
0.400339
21
1.60027
0
LINE
8
BLACK
6
CONTINUOUS
10
0.400339
20
1.60027
11
0.401035
21
1.60056
0
LINE
8
BLACK
6
CONTINUOUS
10
0.401035
20
1.60056
11
0.588437
21
1.60056
0
LINE
8
BLACK
6
CONTINUOUS
10
0.588437
20
1.60056
11
0.589133
21
1.60027
0
LINE
8
BLACK
6
CONTINUOUS
10
0.589133
20
1.60027
11
0.589421
21
1.59957
0
LINE
8
BLACK
6
CONTINUOUS
10
0.589421
20
1.59957
11
0.589421
21
1.45784
0
LINE
8
BLACK
6
CONTINUOUS
10
0.589421
20
1.45784
11
0.589133
21
1.45714
0
LINE
8
BLACK
6
CONTINUOUS
10
0.589133
20
1.45714
11
0.588437
21
1.45685
0
LINE
8
BLACK
6
CONTINUOUS
10
0.588437
20
1.45685
11
0.401035
21
1.45685
0
LINE
8
BLACK
6
CONTINUOUS
10
0.401035
20
1.45685
11
0.400339
21
1.45714
0
LINE
8
BLACK
6
CONTINUOUS
10
0.40202
20
1.59859
11
0.40202
21
1.45882
0
LINE
8
BLACK
6
CONTINUOUS
10
0.40202
20
1.45882
11
0.587453
21
1.45882
0
LINE
8
BLACK
6
CONTINUOUS
10
0.587453
20
1.45882
11
0.587453
21
1.59859
0
LINE
8
BLACK
6
CONTINUOUS
10
0.587453
20
1.59859
11
0.40202
21
1.59859
0
LINE
8
BLACK
6
CONTINUOUS
10
0.928174
20
1.53931
11
0.927886
21
1.54
0
LINE
8
BLACK
6
CONTINUOUS
10
0.927886
20
1.54
11
0.927886
21
1.72741
0
LINE
8
BLACK
6
CONTINUOUS
10
0.927886
20
1.72741
11
0.928174
21
1.7281
0
LINE
8
BLACK
6
CONTINUOUS
10
0.928174
20
1.7281
11
0.92887
21
1.72839
0
LINE
8
BLACK
6
CONTINUOUS
10
0.92887
20
1.72839
11
1.0706
21
1.72839
0
LINE
8
BLACK
6
CONTINUOUS
10
1.0706
20
1.72839
11
1.0713
21
1.7281
0
LINE
8
BLACK
6
CONTINUOUS
10
1.0713
20
1.7281
11
1.07159
21
1.72741
0
LINE
8
BLACK
6
CONTINUOUS
10
1.07159
20
1.72741
11
1.07159
21
1.54
0
LINE
8
BLACK
6
CONTINUOUS
10
1.07159
20
1.54
11
1.0713
21
1.53931
0
LINE
8
BLACK
6
CONTINUOUS
10
1.0713
20
1.53931
11
1.0706
21
1.53902
0
LINE
8
BLACK
6
CONTINUOUS
10
1.0706
20
1.53902
11
0.92887
21
1.53902
0
LINE
8
BLACK
6
CONTINUOUS
10
0.92887
20
1.53902
11
0.928174
21
1.53931
0
LINE
8
BLACK
6
CONTINUOUS
10
0.929854
20
1.72642
11
0.929854
21
1.54099
0
LINE
8
BLACK
6
CONTINUOUS
10
0.929854
20
1.54099
11
1.06962
21
1.54099
0
LINE
8
BLACK
6
CONTINUOUS
10
1.06962
20
1.54099
11
1.06962
21
1.72642
0
LINE
8
BLACK
6
CONTINUOUS
10
1.06962
20
1.72642
11
0.929854
21
1.72642
0
LINE
8
BLACK
6
CONTINUOUS
10
0.13332
20
1.81848
11
0.133031
21
1.81917
0
LINE
8
BLACK
6
CONTINUOUS
10
0.133031
20
1.81917
11
0.133031
21
3.60264
0
LINE
8
BLACK
6
CONTINUOUS
10
0.133031
20
3.60264
11
0.13332
21
3.60333
0
LINE
8
BLACK
6
CONTINUOUS
10
0.13332
20
3.60333
11
0.134016
21
3.60362
0
LINE
8
BLACK
6
CONTINUOUS
10
0.134016
20
3.60362
11
1.38598
21
3.60362
0
LINE
8
BLACK
6
CONTINUOUS
10
1.38598
20
3.60362
11
1.38668
21
3.60333
0
LINE
8
BLACK
6
CONTINUOUS
10
1.38668
20
3.60333
11
1.38697
21
3.60264
0
LINE
8
BLACK
6
CONTINUOUS
10
1.38697
20
3.60264
11
1.38697
21
1.81917
0
LINE
8
BLACK
6
CONTINUOUS
10
1.38697
20
1.81917
11
1.38668
21
1.81848
0
LINE
8
BLACK
6
CONTINUOUS
10
1.38668
20
1.81848
11
1.38598
21
1.81819
0
LINE
8
BLACK
6
CONTINUOUS
10
1.38598
20
1.81819
11
0.134016
21
1.81819
0
LINE
8
BLACK
6
CONTINUOUS
10
0.134016
20
1.81819
11
0.13332
21
1.81848
0
LINE
8
BLACK
6
CONTINUOUS
10
0.135
20
3.60165
11
0.135
21
1.82016
0
LINE
8
BLACK
6
CONTINUOUS
10
0.135
20
1.82016
11
1.385
21
1.82016
0
LINE
8
BLACK
6
CONTINUOUS
10
1.385
20
1.82016
11
1.385
21
3.60165
0
LINE
8
BLACK
6
CONTINUOUS
10
1.385
20
3.60165
11
0.135
21
3.60165
0
LINE
8
BLACK
6
CONTINUOUS
10
0.192375
20
1.87753
11
0.192087
21
1.87823
0
LINE
8
BLACK
6
CONTINUOUS
10
0.192087
20
1.87823
11
0.192087
21
3.54358
0
LINE
8
BLACK
6
CONTINUOUS
10
0.192087
20
3.54358
11
0.192375
21
3.54428
0
LINE
8
BLACK
6
CONTINUOUS
10
0.192375
20
3.54428
11
0.193071
21
3.54457
0
LINE
8
BLACK
6
CONTINUOUS
10
0.193071
20
3.54457
11
1.32693
21
3.54457
0
LINE
8
BLACK
6
CONTINUOUS
10
1.32693
20
3.54457
11
1.32763
21
3.54428
0
LINE
8
BLACK
6
CONTINUOUS
10
1.32763
20
3.54428
11
1.32791
21
3.54358
0
LINE
8
BLACK
6
CONTINUOUS
10
1.32791
20
3.54358
11
1.32791
21
1.87823
0
LINE
8
BLACK
6
CONTINUOUS
10
1.32791
20
1.87823
11
1.32763
21
1.87753
0
LINE
8
BLACK
6
CONTINUOUS
10
1.32763
20
1.87753
11
1.32693
21
1.87724
0
LINE
8
BLACK
6
CONTINUOUS
10
1.32693
20
1.87724
11
0.193071
21
1.87724
0
LINE
8
BLACK
6
CONTINUOUS
10
0.193071
20
1.87724
11
0.192375
21
1.87753
0
LINE
8
BLACK
6
CONTINUOUS
10
0.194055
20
3.5426
11
0.194055
21
1.87921
0
LINE
8
BLACK
6
CONTINUOUS
10
0.194055
20
1.87921
11
1.32594
21
1.87921
0
LINE
8
BLACK
6
CONTINUOUS
10
1.32594
20
1.87921
11
1.32594
21
3.5426
0
LINE
8
BLACK
6
CONTINUOUS
10
1.32594
20
3.5426
11
0.194055
21
3.5426
0
LINE
8
BLACK
6
CONTINUOUS
10
0.223005
20
2.01336
11
0.222717
21
2.01406
0
LINE
8
BLACK
6
CONTINUOUS
10
0.222717
20
2.01406
11
0.222717
21
2.30776
0
LINE
8
BLACK
6
CONTINUOUS
10
0.222717
20
2.30776
11
0.223005
21
2.30845
0
LINE
8
BLACK
6
CONTINUOUS
10
0.223005
20
2.30845
11
0.223701
21
2.30874
0
LINE
8
BLACK
6
CONTINUOUS
10
0.223701
20
2.30874
11
0.436299
21
2.30874
0
LINE
8
BLACK
6
CONTINUOUS
10
0.436299
20
2.30874
11
0.436995
21
2.30845
0
LINE
8
BLACK
6
CONTINUOUS
10
0.436995
20
2.30845
11
0.437283
21
2.30776
0
LINE
8
BLACK
6
CONTINUOUS
10
0.437283
20
2.30776
11
0.437283
21
2.01406
0
LINE
8
BLACK
6
CONTINUOUS
10
0.437283
20
2.01406
11
0.436995
21
2.01336
0
LINE
8
BLACK
6
CONTINUOUS
10
0.436995
20
2.01336
11
0.436299
21
2.01307
0
LINE
8
BLACK
6
CONTINUOUS
10
0.436299
20
2.01307
11
0.223701
21
2.01307
0
LINE
8
BLACK
6
CONTINUOUS
10
0.223701
20
2.01307
11
0.223005
21
2.01336
0
LINE
8
BLACK
6
CONTINUOUS
10
0.224685
20
2.30677
11
0.224685
21
2.01504
0
LINE
8
BLACK
6
CONTINUOUS
10
0.224685
20
2.01504
11
0.435315
21
2.01504
0
LINE
8
BLACK
6
CONTINUOUS
10
0.435315
20
2.01504
11
0.435315
21
2.30677
0
LINE
8
BLACK
6
CONTINUOUS
10
0.435315
20
2.30677
11
0.224685
21
2.30677
0
LINE
8
BLACK
6
CONTINUOUS
10
0.463725
20
2.24809
11
0.463437
21
2.24878
0
LINE
8
BLACK
6
CONTINUOUS
10
0.463437
20
2.24878
11
0.463437
21
2.77634
0
LINE
8
BLACK
6
CONTINUOUS
10
0.463437
20
2.77634
11
0.463725
21
2.77704
0
LINE
8
BLACK
6
CONTINUOUS
10
0.463725
20
2.77704
11
0.464421
21
2.77733
0
LINE
8
BLACK
6
CONTINUOUS
10
0.464421
20
2.77733
11
0.99198
21
2.77733
0
LINE
8
BLACK
6
CONTINUOUS
10
0.99198
20
2.77733
11
0.992676
21
2.77704
0
LINE
8
BLACK
6
CONTINUOUS
10
0.992676
20
2.77704
11
0.992965
21
2.77634
0
LINE
8
BLACK
6
CONTINUOUS
10
0.992965
20
2.77634
11
0.992965
21
2.24878
0
LINE
8
BLACK
6
CONTINUOUS
10
0.992965
20
2.24878
11
0.992676
21
2.24809
0
LINE
8
BLACK
6
CONTINUOUS
10
0.992676
20
2.24809
11
0.99198
21
2.2478
0
LINE
8
BLACK
6
CONTINUOUS
10
0.99198
20
2.2478
11
0.464421
21
2.2478
0
LINE
8
BLACK
6
CONTINUOUS
10
0.464421
20
2.2478
11
0.463725
21
2.24809
0
LINE
8
BLACK
6
CONTINUOUS
10
0.465406
20
2.77536
11
0.465406
21
2.24977
0
LINE
8
BLACK
6
CONTINUOUS
10
0.465406
20
2.24977
11
0.990996
21
2.24977
0
LINE
8
BLACK
6
CONTINUOUS
10
0.990996
20
2.24977
11
0.990996
21
2.77536
0
LINE
8
BLACK
6
CONTINUOUS
10
0.990996
20
2.77536
11
0.465406
21
2.77536
0
LINE
8
BLACK
6
CONTINUOUS
10
1.13844
20
2.26541
11
1.13815
21
2.2661
0
LINE
8
BLACK
6
CONTINUOUS
10
1.13815
20
2.2661
11
1.13815
21
2.41571
0
LINE
8
BLACK
6
CONTINUOUS
10
1.13815
20
2.41571
11
1.13844
21
2.4164
0
LINE
8
BLACK
6
CONTINUOUS
10
1.13844
20
2.4164
11
1.13913
21
2.41669
0
LINE
8
BLACK
6
CONTINUOUS
10
1.13913
20
2.41669
11
1.28087
21
2.41669
0
LINE
8
BLACK
6
CONTINUOUS
10
1.28087
20
2.41669
11
1.28156
21
2.4164
0
LINE
8
BLACK
6
CONTINUOUS
10
1.28156
20
2.4164
11
1.28185
21
2.41571
0
LINE
8
BLACK
6
CONTINUOUS
10
1.28185
20
2.41571
11
1.28185
21
2.2661
0
LINE
8
BLACK
6
CONTINUOUS
10
1.28185
20
2.2661
11
1.28156
21
2.26541
0
LINE
8
BLACK
6
CONTINUOUS
10
1.28156
20
2.26541
11
1.28087
21
2.26512
0
LINE
8
BLACK
6
CONTINUOUS
10
1.28087
20
2.26512
11
1.13913
21
2.26512
0
LINE
8
BLACK
6
CONTINUOUS
10
1.13913
20
2.26512
11
1.13844
21
2.26541
0
LINE
8
BLACK
6
CONTINUOUS
10
1.14012
20
2.41472
11
1.14012
21
2.26709
0
LINE
8
BLACK
6
CONTINUOUS
10
1.14012
20
2.26709
11
1.27988
21
2.26709
0
LINE
8
BLACK
6
CONTINUOUS
10
1.27988
20
2.26709
11
1.27988
21
2.41472
0
LINE
8
BLACK
6
CONTINUOUS
10
1.27988
20
2.41472
11
1.14012
21
2.41472
0
LINE
8
BLACK
6
CONTINUOUS
10
1.05647
20
2.43281
11
1.05618
21
2.4335
0
LINE
8
BLACK
6
CONTINUOUS
10
1.05618
20
2.4335
11
1.05618
21
2.50831
0
LINE
8
BLACK
6
CONTINUOUS
10
1.05618
20
2.50831
11
1.05647
21
2.509
0
LINE
8
BLACK
6
CONTINUOUS
10
1.05647
20
2.509
11
1.05717
21
2.50929
0
LINE
8
BLACK
6
CONTINUOUS
10
1.05717
20
2.50929
11
1.20283
21
2.50929
0
LINE
8
BLACK
6
CONTINUOUS
10
1.20283
20
2.50929
11
1.20353
21
2.509
0
LINE
8
BLACK
6
CONTINUOUS
10
1.20353
20
2.509
11
1.20382
21
2.50831
0
LINE
8
BLACK
6
CONTINUOUS
10
1.20382
20
2.50831
11
1.20382
21
2.4335
0
LINE
8
BLACK
6
CONTINUOUS
10
1.20382
20
2.4335
11
1.20353
21
2.43281
0
LINE
8
BLACK
6
CONTINUOUS
10
1.20353
20
2.43281
11
1.20283
21
2.43252
0
LINE
8
BLACK
6
CONTINUOUS
10
1.20283
20
2.43252
11
1.05717
21
2.43252
0
LINE
8
BLACK
6
CONTINUOUS
10
1.05717
20
2.43252
11
1.05647
21
2.43281
0
LINE
8
BLACK
6
CONTINUOUS
10
1.05815
20
2.50732
11
1.05815
21
2.43449
0
LINE
8
BLACK
6
CONTINUOUS
10
1.05815
20
2.43449
11
1.20185
21
2.43449
0
LINE
8
BLACK
6
CONTINUOUS
10
1.20185
20
2.43449
11
1.20185
21
2.50732
0
LINE
8
BLACK
6
CONTINUOUS
10
1.20185
20
2.50732
11
1.05815
21
2.50732
0
LINE
8
BLACK
6
CONTINUOUS
10
0.258438
20
2.83407
11
0.25815
21
2.83476
0
LINE
8
BLACK
6
CONTINUOUS
10
0.25815
20
2.83476
11
0.25815
21
3.06705
0
LINE
8
BLACK
6
CONTINUOUS
10
0.25815
20
3.06705
11
0.258438
21
3.06774
0
LINE
8
BLACK
6
CONTINUOUS
10
0.258438
20
3.06774
11
0.259134
21
3.06803
0
LINE
8
BLACK
6
CONTINUOUS
10
0.259134
20
3.06803
11
0.400866
21
3.06803
0
LINE
8
BLACK
6
CONTINUOUS
10
0.400866
20
3.06803
11
0.401562
21
3.06774
0
LINE
8
BLACK
6
CONTINUOUS
10
0.401562
20
3.06774
11
0.40185
21
3.06705
0
LINE
8
BLACK
6
CONTINUOUS
10
0.40185
20
3.06705
11
0.40185
21
2.83476
0
LINE
8
BLACK
6
CONTINUOUS
10
0.40185
20
2.83476
11
0.401562
21
2.83407
0
LINE
8
BLACK
6
CONTINUOUS
10
0.401562
20
2.83407
11
0.400866
21
2.83378
0
LINE
8
BLACK
6
CONTINUOUS
10
0.400866
20
2.83378
11
0.259134
21
2.83378
0
LINE
8
BLACK
6
CONTINUOUS
10
0.259134
20
2.83378
11
0.258438
21
2.83407
0
LINE
8
BLACK
6
CONTINUOUS
10
0.260118
20
3.06606
11
0.260118
21
2.83575
0
LINE
8
BLACK
6
CONTINUOUS
10
0.260118
20
2.83575
11
0.399882
21
2.83575
0
LINE
8
BLACK
6
CONTINUOUS
10
0.399882
20
2.83575
11
0.399882
21
3.06606
0
LINE
8
BLACK
6
CONTINUOUS
10
0.399882
20
3.06606
11
0.260118
21
3.06606
0
LINE
8
BLACK
6
CONTINUOUS
10
0.613871
20
3.2369
11
0.613583
21
3.2376
0
LINE
8
BLACK
6
CONTINUOUS
10
0.613583
20
3.2376
11
0.613583
21
3.32421
0
LINE
8
BLACK
6
CONTINUOUS
10
0.613583
20
3.32421
11
0.613871
21
3.32491
0
LINE
8
BLACK
6
CONTINUOUS
10
0.613871
20
3.32491
11
0.614567
21
3.3252
0
LINE
8
BLACK
6
CONTINUOUS
10
0.614567
20
3.3252
11
0.823228
21
3.3252
0
LINE
8
BLACK
6
CONTINUOUS
10
0.823228
20
3.3252
11
0.823924
21
3.32491
0
LINE
8
BLACK
6
CONTINUOUS
10
0.823924
20
3.32491
11
0.824213
21
3.32421
0
LINE
8
BLACK
6
CONTINUOUS
10
0.824213
20
3.32421
11
0.824213
21
3.2376
0
LINE
8
BLACK
6
CONTINUOUS
10
0.824213
20
3.2376
11
0.823924
21
3.2369
0
LINE
8
BLACK
6
CONTINUOUS
10
0.823924
20
3.2369
11
0.823228
21
3.23661
0
LINE
8
BLACK
6
CONTINUOUS
10
0.823228
20
3.23661
11
0.614567
21
3.23661
0
LINE
8
BLACK
6
CONTINUOUS
10
0.614567
20
3.23661
11
0.613871
21
3.2369
0
LINE
8
BLACK
6
CONTINUOUS
10
0.615551
20
3.32323
11
0.615551
21
3.23858
0
LINE
8
BLACK
6
CONTINUOUS
10
0.615551
20
3.23858
11
0.822244
21
3.23858
0
LINE
8
BLACK
6
CONTINUOUS
10
0.822244
20
3.23858
11
0.822244
21
3.32323
0
LINE
8
BLACK
6
CONTINUOUS
10
0.822244
20
3.32323
11
0.615551
21
3.32323
  0
ENDSEC
  0
EOF
