  0
SECTION
  2
HEADER
  9
$ANGBASE
  50
0.0
  9
$ANGDIR
  70
1
  9
$MEASUREMENT
  70
0
  0
ENDSEC
  0
SECTION
  2
TABLES
  0
TABLE
  2
LTYPE
  70
4
  0
LTYPE
  5
40F
  2
CONTINUOUS
  70
0
  3
Solid line
  72
65
  73
0
  40
0.0
  0
LTYPE
  5
410
  2
DASHDOT
 70
0
  3
Dash Dot ____ _ ____ _
 72
65
 73
4
 40
2.0
 49
1.25
 49
-0.25
 49
0.25
 49
-0.25
  0
LTYPE
  5
411
  2
DASHED
 70
0
  3
Dashed __ __ __ __ __
 72
65
 73
2
 40
0.75
 49
0.5
 49
-0.25
  0
LTYPE
  5
43B
  2
DOTTED
 70
0
  3
Dotted .  .  .  .
 72
65
 73
2
 40
0.2
 49
0.0
 49
-0.2
  0
ENDTAB
  0
TABLE
  2
STYLE
  70
4
  0
STYLE
  2
KICAD
  70
0
  40
0
  41
1
  42
1
  50
0
  71
0
  3
isocp.shx
  0
STYLE
  2
KICADB
  70
0
  40
0
  41
1
  42
1
  50
0
  71
0
  3
isocp.shx
  0
STYLE
  2
KICADI
  70
0
  40
0
  41
1
  42
1
  50
15
  71
0
  3
isocp.shx
  0
STYLE
  2
KICADBI
  70
0
  40
0
  41
1
  42
1
  50
15
  71
0
  3
isocp.shx
  0
ENDTAB
  0
TABLE
  2
LAYER
  70
1
  0
LAYER
  2
BLACK
  70
0
  62
7
  6
CONTINUOUS
  0
ENDTAB
  0
ENDSEC
  0
SECTION
  2
ENTITIES
0
LINE
8
BLACK
6
CONTINUOUS
10
4.90974
20
-4.20878
11
4.91043
21
-4.21068
0
LINE
8
BLACK
6
CONTINUOUS
10
4.91043
20
-4.21068
11
4.91043
21
-4.24318
0
LINE
8
BLACK
6
CONTINUOUS
10
4.91043
20
-4.24318
11
4.91037
21
-4.24356
0
LINE
8
BLACK
6
CONTINUOUS
10
4.91037
20
-4.24356
11
4.91039
21
-4.24369
0
LINE
8
BLACK
6
CONTINUOUS
10
4.91039
20
-4.24369
11
4.91032
21
-4.24381
0
LINE
8
BLACK
6
CONTINUOUS
10
4.91032
20
-4.24381
11
4.91026
21
-4.24419
0
LINE
8
BLACK
6
CONTINUOUS
10
4.91026
20
-4.24419
11
4.90976
21
-4.24478
0
LINE
8
BLACK
6
CONTINUOUS
10
4.90976
20
-4.24478
11
4.90938
21
-4.24544
0
LINE
8
BLACK
6
CONTINUOUS
10
4.90938
20
-4.24544
11
4.90913
21
-4.24553
0
LINE
8
BLACK
6
CONTINUOUS
10
4.90913
20
-4.24553
11
4.90896
21
-4.24574
0
LINE
8
BLACK
6
CONTINUOUS
10
4.90896
20
-4.24574
11
4.9082
21
-4.24587
0
LINE
8
BLACK
6
CONTINUOUS
10
4.9082
20
-4.24587
11
4.90748
21
-4.24613
0
LINE
8
BLACK
6
CONTINUOUS
10
4.90748
20
-4.24613
11
4.69488
21
-4.24613
0
LINE
8
BLACK
6
CONTINUOUS
10
4.69488
20
-4.24613
11
4.69488
21
-4.43823
0
LINE
8
BLACK
6
CONTINUOUS
10
4.69488
20
-4.43823
11
5.98917
21
-4.43823
0
LINE
8
BLACK
6
CONTINUOUS
10
5.98917
20
-4.43823
11
5.99018
21
-4.43841
0
LINE
8
BLACK
6
CONTINUOUS
10
5.99018
20
-4.43841
11
5.99173
21
-4.4397
0
LINE
8
BLACK
6
CONTINUOUS
10
5.99173
20
-4.4397
11
5.99208
21
-4.44169
0
LINE
8
BLACK
6
CONTINUOUS
10
5.99208
20
-4.44169
11
5.99107
21
-4.44344
0
LINE
8
BLACK
6
CONTINUOUS
10
5.99107
20
-4.44344
11
5.98917
21
-4.44413
0
LINE
8
BLACK
6
CONTINUOUS
10
5.98917
20
-4.44413
11
4.69193
21
-4.44413
0
LINE
8
BLACK
6
CONTINUOUS
10
4.69193
20
-4.44413
11
4.69155
21
-4.44407
0
LINE
8
BLACK
6
CONTINUOUS
10
4.69155
20
-4.44407
11
4.69142
21
-4.44409
0
LINE
8
BLACK
6
CONTINUOUS
10
4.69142
20
-4.44409
11
4.6913
21
-4.44402
0
LINE
8
BLACK
6
CONTINUOUS
10
4.6913
20
-4.44402
11
4.69092
21
-4.44396
0
LINE
8
BLACK
6
CONTINUOUS
10
4.69092
20
-4.44396
11
4.69033
21
-4.44346
0
LINE
8
BLACK
6
CONTINUOUS
10
4.69033
20
-4.44346
11
4.68967
21
-4.44308
0
LINE
8
BLACK
6
CONTINUOUS
10
4.68967
20
-4.44308
11
4.68958
21
-4.44283
0
LINE
8
BLACK
6
CONTINUOUS
10
4.68958
20
-4.44283
11
4.68937
21
-4.44266
0
LINE
8
BLACK
6
CONTINUOUS
10
4.68937
20
-4.44266
11
4.68924
21
-4.4419
0
LINE
8
BLACK
6
CONTINUOUS
10
4.68924
20
-4.4419
11
4.68898
21
-4.44118
0
LINE
8
BLACK
6
CONTINUOUS
10
4.68898
20
-4.44118
11
4.68898
21
-4.24318
0
LINE
8
BLACK
6
CONTINUOUS
10
4.68898
20
-4.24318
11
4.68904
21
-4.2428
0
LINE
8
BLACK
6
CONTINUOUS
10
4.68904
20
-4.2428
11
4.68902
21
-4.24267
0
LINE
8
BLACK
6
CONTINUOUS
10
4.68902
20
-4.24267
11
4.68909
21
-4.24255
0
LINE
8
BLACK
6
CONTINUOUS
10
4.68909
20
-4.24255
11
4.68915
21
-4.24217
0
LINE
8
BLACK
6
CONTINUOUS
10
4.68915
20
-4.24217
11
4.68965
21
-4.24158
0
LINE
8
BLACK
6
CONTINUOUS
10
4.68965
20
-4.24158
11
4.69003
21
-4.24092
0
LINE
8
BLACK
6
CONTINUOUS
10
4.69003
20
-4.24092
11
4.69028
21
-4.24083
0
LINE
8
BLACK
6
CONTINUOUS
10
4.69028
20
-4.24083
11
4.69045
21
-4.24062
0
LINE
8
BLACK
6
CONTINUOUS
10
4.69045
20
-4.24062
11
4.69121
21
-4.24049
0
LINE
8
BLACK
6
CONTINUOUS
10
4.69121
20
-4.24049
11
4.69193
21
-4.24023
0
LINE
8
BLACK
6
CONTINUOUS
10
4.69193
20
-4.24023
11
4.90453
21
-4.24023
0
LINE
8
BLACK
6
CONTINUOUS
10
4.90453
20
-4.24023
11
4.90453
21
-4.21068
0
LINE
8
BLACK
6
CONTINUOUS
10
4.90453
20
-4.21068
11
4.90471
21
-4.20967
0
LINE
8
BLACK
6
CONTINUOUS
10
4.90471
20
-4.20967
11
4.906
21
-4.20812
0
LINE
8
BLACK
6
CONTINUOUS
10
4.906
20
-4.20812
11
4.90799
21
-4.20777
0
LINE
8
BLACK
6
CONTINUOUS
10
4.90799
20
-4.20777
11
4.90974
21
-4.20878
0
LINE
8
BLACK
6
CONTINUOUS
10
6.04951
20
-3.25728
11
6.0502
21
-3.25918
0
LINE
8
BLACK
6
CONTINUOUS
10
6.0502
20
-3.25918
11
6.0502
21
-4.23718
0
LINE
8
BLACK
6
CONTINUOUS
10
6.0502
20
-4.23718
11
6.05002
21
-4.23819
0
LINE
8
BLACK
6
CONTINUOUS
10
6.05002
20
-4.23819
11
6.04872
21
-4.23974
0
LINE
8
BLACK
6
CONTINUOUS
10
6.04872
20
-4.23974
11
6.04673
21
-4.24009
0
LINE
8
BLACK
6
CONTINUOUS
10
6.04673
20
-4.24009
11
6.04498
21
-4.23908
0
LINE
8
BLACK
6
CONTINUOUS
10
6.04498
20
-4.23908
11
6.04429
21
-4.23718
0
LINE
8
BLACK
6
CONTINUOUS
10
6.04429
20
-4.23718
11
6.04429
21
-3.25918
0
LINE
8
BLACK
6
CONTINUOUS
10
6.04429
20
-3.25918
11
6.04447
21
-3.25817
0
LINE
8
BLACK
6
CONTINUOUS
10
6.04447
20
-3.25817
11
6.04577
21
-3.25662
0
LINE
8
BLACK
6
CONTINUOUS
10
6.04577
20
-3.25662
11
6.04776
21
-3.25627
0
LINE
8
BLACK
6
CONTINUOUS
10
6.04776
20
-3.25627
11
6.04951
21
-3.25728
0
LINE
8
BLACK
6
CONTINUOUS
10
4.90974
20
-3.25878
11
4.91043
21
-3.26068
0
LINE
8
BLACK
6
CONTINUOUS
10
4.91043
20
-3.26068
11
4.91043
21
-3.99118
0
LINE
8
BLACK
6
CONTINUOUS
10
4.91043
20
-3.99118
11
4.91026
21
-3.99219
0
LINE
8
BLACK
6
CONTINUOUS
10
4.91026
20
-3.99219
11
4.90896
21
-3.99374
0
LINE
8
BLACK
6
CONTINUOUS
10
4.90896
20
-3.99374
11
4.90697
21
-3.99409
0
LINE
8
BLACK
6
CONTINUOUS
10
4.90697
20
-3.99409
11
4.90522
21
-3.99308
0
LINE
8
BLACK
6
CONTINUOUS
10
4.90522
20
-3.99308
11
4.90453
21
-3.99118
0
LINE
8
BLACK
6
CONTINUOUS
10
4.90453
20
-3.99118
11
4.90453
21
-3.26068
0
LINE
8
BLACK
6
CONTINUOUS
10
4.90453
20
-3.26068
11
4.90471
21
-3.25967
0
LINE
8
BLACK
6
CONTINUOUS
10
4.90471
20
-3.25967
11
4.906
21
-3.25812
0
LINE
8
BLACK
6
CONTINUOUS
10
4.906
20
-3.25812
11
4.90799
21
-3.25777
0
LINE
8
BLACK
6
CONTINUOUS
10
4.90799
20
-3.25777
11
4.90974
21
-3.25878
0
LINE
8
BLACK
6
CONTINUOUS
10
5.47788
20
-3.87741
11
5.47801
21
-3.87753
0
LINE
8
BLACK
6
CONTINUOUS
10
5.47801
20
-3.87753
11
5.47819
21
-3.87755
0
LINE
8
BLACK
6
CONTINUOUS
10
5.47819
20
-3.87755
11
5.48194
21
-3.87942
0
LINE
8
BLACK
6
CONTINUOUS
10
5.48194
20
-3.87942
11
5.48265
21
-3.87995
0
LINE
8
BLACK
6
CONTINUOUS
10
5.48265
20
-3.87995
11
5.4827
21
-3.87998
0
LINE
8
BLACK
6
CONTINUOUS
10
5.4827
20
-3.87998
11
5.48458
21
-3.88185
0
LINE
8
BLACK
6
CONTINUOUS
10
5.48458
20
-3.88185
11
5.48508
21
-3.88257
0
LINE
8
BLACK
6
CONTINUOUS
10
5.48508
20
-3.88257
11
5.48513
21
-3.88262
0
LINE
8
BLACK
6
CONTINUOUS
10
5.48513
20
-3.88262
11
5.48701
21
-3.88637
0
LINE
8
BLACK
6
CONTINUOUS
10
5.48701
20
-3.88637
11
5.4873
21
-3.88735
0
LINE
8
BLACK
6
CONTINUOUS
10
5.4873
20
-3.88735
11
5.48726
21
-3.88752
0
LINE
8
BLACK
6
CONTINUOUS
10
5.48726
20
-3.88752
11
5.48732
21
-3.88769
0
LINE
8
BLACK
6
CONTINUOUS
10
5.48732
20
-3.88769
11
5.48732
21
-3.88956
0
LINE
8
BLACK
6
CONTINUOUS
10
5.48732
20
-3.88956
11
5.48714
21
-3.89057
0
LINE
8
BLACK
6
CONTINUOUS
10
5.48714
20
-3.89057
11
5.48703
21
-3.89071
0
LINE
8
BLACK
6
CONTINUOUS
10
5.48703
20
-3.89071
11
5.48701
21
-3.89088
0
LINE
8
BLACK
6
CONTINUOUS
10
5.48701
20
-3.89088
11
5.48513
21
-3.89463
0
LINE
8
BLACK
6
CONTINUOUS
10
5.48513
20
-3.89463
11
5.48461
21
-3.89534
0
LINE
8
BLACK
6
CONTINUOUS
10
5.48461
20
-3.89534
11
5.48458
21
-3.8954
0
LINE
8
BLACK
6
CONTINUOUS
10
5.48458
20
-3.8954
11
5.48292
21
-3.89706
0
LINE
8
BLACK
6
CONTINUOUS
10
5.48292
20
-3.89706
11
5.48458
21
-3.89872
0
LINE
8
BLACK
6
CONTINUOUS
10
5.48458
20
-3.89872
11
5.48508
21
-3.89945
0
LINE
8
BLACK
6
CONTINUOUS
10
5.48508
20
-3.89945
11
5.48513
21
-3.89949
0
LINE
8
BLACK
6
CONTINUOUS
10
5.48513
20
-3.89949
11
5.48701
21
-3.90324
0
LINE
8
BLACK
6
CONTINUOUS
10
5.48701
20
-3.90324
11
5.4873
21
-3.90422
0
LINE
8
BLACK
6
CONTINUOUS
10
5.4873
20
-3.90422
11
5.48726
21
-3.90439
0
LINE
8
BLACK
6
CONTINUOUS
10
5.48726
20
-3.90439
11
5.48732
21
-3.90456
0
LINE
8
BLACK
6
CONTINUOUS
10
5.48732
20
-3.90456
11
5.48732
21
-3.91206
0
LINE
8
BLACK
6
CONTINUOUS
10
5.48732
20
-3.91206
11
5.48714
21
-3.91307
0
LINE
8
BLACK
6
CONTINUOUS
10
5.48714
20
-3.91307
11
5.48703
21
-3.9132
0
LINE
8
BLACK
6
CONTINUOUS
10
5.48703
20
-3.9132
11
5.48701
21
-3.91338
0
LINE
8
BLACK
6
CONTINUOUS
10
5.48701
20
-3.91338
11
5.48513
21
-3.91713
0
LINE
8
BLACK
6
CONTINUOUS
10
5.48513
20
-3.91713
11
5.48461
21
-3.91784
0
LINE
8
BLACK
6
CONTINUOUS
10
5.48461
20
-3.91784
11
5.48458
21
-3.9179
0
LINE
8
BLACK
6
CONTINUOUS
10
5.48458
20
-3.9179
11
5.4827
21
-3.91977
0
LINE
8
BLACK
6
CONTINUOUS
10
5.4827
20
-3.91977
11
5.48198
21
-3.92028
0
LINE
8
BLACK
6
CONTINUOUS
10
5.48198
20
-3.92028
11
5.48194
21
-3.92032
0
LINE
8
BLACK
6
CONTINUOUS
10
5.48194
20
-3.92032
11
5.47819
21
-3.9222
0
LINE
8
BLACK
6
CONTINUOUS
10
5.47819
20
-3.9222
11
5.4772
21
-3.92249
0
LINE
8
BLACK
6
CONTINUOUS
10
5.4772
20
-3.92249
11
5.47703
21
-3.92245
0
LINE
8
BLACK
6
CONTINUOUS
10
5.47703
20
-3.92245
11
5.47687
21
-3.92251
0
LINE
8
BLACK
6
CONTINUOUS
10
5.47687
20
-3.92251
11
5.46937
21
-3.92251
0
LINE
8
BLACK
6
CONTINUOUS
10
5.46937
20
-3.92251
11
5.46836
21
-3.92233
0
LINE
8
BLACK
6
CONTINUOUS
10
5.46836
20
-3.92233
11
5.46822
21
-3.92222
0
LINE
8
BLACK
6
CONTINUOUS
10
5.46822
20
-3.92222
11
5.46805
21
-3.9222
0
LINE
8
BLACK
6
CONTINUOUS
10
5.46805
20
-3.9222
11
5.4643
21
-3.92032
0
LINE
8
BLACK
6
CONTINUOUS
10
5.4643
20
-3.92032
11
5.46359
21
-3.9198
0
LINE
8
BLACK
6
CONTINUOUS
10
5.46359
20
-3.9198
11
5.46353
21
-3.91977
0
LINE
8
BLACK
6
CONTINUOUS
10
5.46353
20
-3.91977
11
5.46165
21
-3.9179
0
LINE
8
BLACK
6
CONTINUOUS
10
5.46165
20
-3.9179
11
5.46115
21
-3.91717
0
LINE
8
BLACK
6
CONTINUOUS
10
5.46115
20
-3.91717
11
5.4611
21
-3.91713
0
LINE
8
BLACK
6
CONTINUOUS
10
5.4611
20
-3.91713
11
5.45923
21
-3.91338
0
LINE
8
BLACK
6
CONTINUOUS
10
5.45923
20
-3.91338
11
5.45893
21
-3.9124
0
LINE
8
BLACK
6
CONTINUOUS
10
5.45893
20
-3.9124
11
5.45898
21
-3.91223
0
LINE
8
BLACK
6
CONTINUOUS
10
5.45898
20
-3.91223
11
5.45892
21
-3.91206
0
LINE
8
BLACK
6
CONTINUOUS
10
5.45892
20
-3.91206
11
5.45892
21
-3.90456
0
LINE
8
BLACK
6
CONTINUOUS
10
5.45892
20
-3.90456
11
5.45909
21
-3.90355
0
LINE
8
BLACK
6
CONTINUOUS
10
5.45909
20
-3.90355
11
5.45921
21
-3.90341
0
LINE
8
BLACK
6
CONTINUOUS
10
5.45921
20
-3.90341
11
5.45923
21
-3.90324
0
LINE
8
BLACK
6
CONTINUOUS
10
5.45923
20
-3.90324
11
5.4611
21
-3.89949
0
LINE
8
BLACK
6
CONTINUOUS
10
5.4611
20
-3.89949
11
5.46163
21
-3.89878
0
LINE
8
BLACK
6
CONTINUOUS
10
5.46163
20
-3.89878
11
5.46165
21
-3.89872
0
LINE
8
BLACK
6
CONTINUOUS
10
5.46165
20
-3.89872
11
5.46332
21
-3.89706
0
LINE
8
BLACK
6
CONTINUOUS
10
5.46332
20
-3.89706
11
5.46165
21
-3.8954
0
LINE
8
BLACK
6
CONTINUOUS
10
5.46165
20
-3.8954
11
5.46115
21
-3.89468
0
LINE
8
BLACK
6
CONTINUOUS
10
5.46115
20
-3.89468
11
5.4611
21
-3.89463
0
LINE
8
BLACK
6
CONTINUOUS
10
5.4611
20
-3.89463
11
5.45923
21
-3.89088
0
LINE
8
BLACK
6
CONTINUOUS
10
5.45923
20
-3.89088
11
5.45893
21
-3.8899
0
LINE
8
BLACK
6
CONTINUOUS
10
5.45893
20
-3.8899
11
5.45898
21
-3.88973
0
LINE
8
BLACK
6
CONTINUOUS
10
5.45898
20
-3.88973
11
5.45892
21
-3.88956
0
LINE
8
BLACK
6
CONTINUOUS
10
5.45892
20
-3.88956
11
5.45892
21
-3.88769
0
LINE
8
BLACK
6
CONTINUOUS
10
5.45892
20
-3.88769
11
5.45909
21
-3.88668
0
LINE
8
BLACK
6
CONTINUOUS
10
5.45909
20
-3.88668
11
5.45921
21
-3.88654
0
LINE
8
BLACK
6
CONTINUOUS
10
5.45921
20
-3.88654
11
5.45923
21
-3.88637
0
LINE
8
BLACK
6
CONTINUOUS
10
5.45923
20
-3.88637
11
5.4611
21
-3.88262
0
LINE
8
BLACK
6
CONTINUOUS
10
5.4611
20
-3.88262
11
5.46163
21
-3.88191
0
LINE
8
BLACK
6
CONTINUOUS
10
5.46163
20
-3.88191
11
5.46165
21
-3.88185
0
LINE
8
BLACK
6
CONTINUOUS
10
5.46165
20
-3.88185
11
5.46353
21
-3.87998
0
LINE
8
BLACK
6
CONTINUOUS
10
5.46353
20
-3.87998
11
5.46425
21
-3.87947
0
LINE
8
BLACK
6
CONTINUOUS
10
5.46425
20
-3.87947
11
5.4643
21
-3.87942
0
LINE
8
BLACK
6
CONTINUOUS
10
5.4643
20
-3.87942
11
5.46805
21
-3.87755
0
LINE
8
BLACK
6
CONTINUOUS
10
5.46805
20
-3.87755
11
5.46903
21
-3.87725
0
LINE
8
BLACK
6
CONTINUOUS
10
5.46903
20
-3.87725
11
5.4692
21
-3.8773
0
LINE
8
BLACK
6
CONTINUOUS
10
5.4692
20
-3.8773
11
5.46937
21
-3.87724
0
LINE
8
BLACK
6
CONTINUOUS
10
5.46937
20
-3.87724
11
5.47687
21
-3.87724
0
LINE
8
BLACK
6
CONTINUOUS
10
5.47687
20
-3.87724
11
5.47788
21
-3.87741
0
LINE
8
BLACK
6
CONTINUOUS
10
5.47006
20
-3.90001
11
5.46737
21
-3.90136
0
LINE
8
BLACK
6
CONTINUOUS
10
5.46737
20
-3.90136
11
5.46617
21
-3.90256
0
LINE
8
BLACK
6
CONTINUOUS
10
5.46617
20
-3.90256
11
5.46482
21
-3.90526
0
LINE
8
BLACK
6
CONTINUOUS
10
5.46482
20
-3.90526
11
5.46482
21
-3.91136
0
LINE
8
BLACK
6
CONTINUOUS
10
5.46482
20
-3.91136
11
5.46617
21
-3.91406
0
LINE
8
BLACK
6
CONTINUOUS
10
5.46617
20
-3.91406
11
5.46737
21
-3.91526
0
LINE
8
BLACK
6
CONTINUOUS
10
5.46737
20
-3.91526
11
5.47006
21
-3.91661
0
LINE
8
BLACK
6
CONTINUOUS
10
5.47006
20
-3.91661
11
5.47617
21
-3.91661
0
LINE
8
BLACK
6
CONTINUOUS
10
5.47617
20
-3.91661
11
5.47887
21
-3.91526
0
LINE
8
BLACK
6
CONTINUOUS
10
5.47887
20
-3.91526
11
5.48006
21
-3.91406
0
LINE
8
BLACK
6
CONTINUOUS
10
5.48006
20
-3.91406
11
5.48141
21
-3.91136
0
LINE
8
BLACK
6
CONTINUOUS
10
5.48141
20
-3.91136
11
5.48141
21
-3.90526
0
LINE
8
BLACK
6
CONTINUOUS
10
5.48141
20
-3.90526
11
5.48006
21
-3.90256
0
LINE
8
BLACK
6
CONTINUOUS
10
5.48006
20
-3.90256
11
5.47887
21
-3.90136
0
LINE
8
BLACK
6
CONTINUOUS
10
5.47887
20
-3.90136
11
5.47617
21
-3.90001
0
LINE
8
BLACK
6
CONTINUOUS
10
5.47617
20
-3.90001
11
5.47006
21
-3.90001
0
LINE
8
BLACK
6
CONTINUOUS
10
5.47006
20
-3.88314
11
5.46737
21
-3.88449
0
LINE
8
BLACK
6
CONTINUOUS
10
5.46737
20
-3.88449
11
5.46617
21
-3.88569
0
LINE
8
BLACK
6
CONTINUOUS
10
5.46617
20
-3.88569
11
5.46482
21
-3.88838
0
LINE
8
BLACK
6
CONTINUOUS
10
5.46482
20
-3.88838
11
5.46482
21
-3.88887
0
LINE
8
BLACK
6
CONTINUOUS
10
5.46482
20
-3.88887
11
5.46617
21
-3.89156
0
LINE
8
BLACK
6
CONTINUOUS
10
5.46617
20
-3.89156
11
5.46737
21
-3.89276
0
LINE
8
BLACK
6
CONTINUOUS
10
5.46737
20
-3.89276
11
5.47006
21
-3.89411
0
LINE
8
BLACK
6
CONTINUOUS
10
5.47006
20
-3.89411
11
5.47617
21
-3.89411
0
LINE
8
BLACK
6
CONTINUOUS
10
5.47617
20
-3.89411
11
5.47887
21
-3.89276
0
LINE
8
BLACK
6
CONTINUOUS
10
5.47887
20
-3.89276
11
5.48006
21
-3.89156
0
LINE
8
BLACK
6
CONTINUOUS
10
5.48006
20
-3.89156
11
5.48141
21
-3.88887
0
LINE
8
BLACK
6
CONTINUOUS
10
5.48141
20
-3.88887
11
5.48141
21
-3.88838
0
LINE
8
BLACK
6
CONTINUOUS
10
5.48141
20
-3.88838
11
5.48006
21
-3.88569
0
LINE
8
BLACK
6
CONTINUOUS
10
5.48006
20
-3.88569
11
5.47887
21
-3.88449
0
LINE
8
BLACK
6
CONTINUOUS
10
5.47887
20
-3.88449
11
5.47617
21
-3.88314
0
LINE
8
BLACK
6
CONTINUOUS
10
5.47617
20
-3.88314
11
5.47006
21
-3.88314
0
LINE
8
BLACK
6
CONTINUOUS
10
5.541
20
-3.87829
11
5.54169
21
-3.88019
0
LINE
8
BLACK
6
CONTINUOUS
10
5.54169
20
-3.88019
11
5.54169
21
-3.90783
0
LINE
8
BLACK
6
CONTINUOUS
10
5.54169
20
-3.90783
11
5.54319
21
-3.91234
0
LINE
8
BLACK
6
CONTINUOUS
10
5.54319
20
-3.91234
11
5.54595
21
-3.9151
0
LINE
8
BLACK
6
CONTINUOUS
10
5.54595
20
-3.9151
11
5.55046
21
-3.91661
0
LINE
8
BLACK
6
CONTINUOUS
10
5.55046
20
-3.91661
11
5.55373
21
-3.91661
0
LINE
8
BLACK
6
CONTINUOUS
10
5.55373
20
-3.91661
11
5.55474
21
-3.91678
0
LINE
8
BLACK
6
CONTINUOUS
10
5.55474
20
-3.91678
11
5.55629
21
-3.91808
0
LINE
8
BLACK
6
CONTINUOUS
10
5.55629
20
-3.91808
11
5.55664
21
-3.92007
0
LINE
8
BLACK
6
CONTINUOUS
10
5.55664
20
-3.92007
11
5.55563
21
-3.92182
0
LINE
8
BLACK
6
CONTINUOUS
10
5.55563
20
-3.92182
11
5.55373
21
-3.92251
0
LINE
8
BLACK
6
CONTINUOUS
10
5.55373
20
-3.92251
11
5.54998
21
-3.92251
0
LINE
8
BLACK
6
CONTINUOUS
10
5.54998
20
-3.92251
11
5.54911
21
-3.92236
0
LINE
8
BLACK
6
CONTINUOUS
10
5.54911
20
-3.92236
11
5.54905
21
-3.92236
0
LINE
8
BLACK
6
CONTINUOUS
10
5.54905
20
-3.92236
11
5.54342
21
-3.92048
0
LINE
8
BLACK
6
CONTINUOUS
10
5.54342
20
-3.92048
11
5.54252
21
-3.92
0
LINE
8
BLACK
6
CONTINUOUS
10
5.54252
20
-3.92
11
5.54243
21
-3.91985
0
LINE
8
BLACK
6
CONTINUOUS
10
5.54243
20
-3.91985
11
5.54227
21
-3.91977
0
LINE
8
BLACK
6
CONTINUOUS
10
5.54227
20
-3.91977
11
5.53852
21
-3.91602
0
LINE
8
BLACK
6
CONTINUOUS
10
5.53852
20
-3.91602
11
5.53793
21
-3.91518
0
LINE
8
BLACK
6
CONTINUOUS
10
5.53793
20
-3.91518
11
5.53792
21
-3.91501
0
LINE
8
BLACK
6
CONTINUOUS
10
5.53792
20
-3.91501
11
5.53781
21
-3.91487
0
LINE
8
BLACK
6
CONTINUOUS
10
5.53781
20
-3.91487
11
5.53593
21
-3.90924
0
LINE
8
BLACK
6
CONTINUOUS
10
5.53593
20
-3.90924
11
5.5358
21
-3.90837
0
LINE
8
BLACK
6
CONTINUOUS
10
5.5358
20
-3.90837
11
5.53578
21
-3.90831
0
LINE
8
BLACK
6
CONTINUOUS
10
5.53578
20
-3.90831
11
5.53578
21
-3.88019
0
LINE
8
BLACK
6
CONTINUOUS
10
5.53578
20
-3.88019
11
5.53596
21
-3.87918
0
LINE
8
BLACK
6
CONTINUOUS
10
5.53596
20
-3.87918
11
5.53726
21
-3.87763
0
LINE
8
BLACK
6
CONTINUOUS
10
5.53726
20
-3.87763
11
5.53925
21
-3.87728
0
LINE
8
BLACK
6
CONTINUOUS
10
5.53925
20
-3.87728
11
5.541
21
-3.87829
0
LINE
8
BLACK
6
CONTINUOUS
10
5.51725
20
-3.87741
11
5.51738
21
-3.87753
0
LINE
8
BLACK
6
CONTINUOUS
10
5.51738
20
-3.87753
11
5.51756
21
-3.87755
0
LINE
8
BLACK
6
CONTINUOUS
10
5.51756
20
-3.87755
11
5.52131
21
-3.87942
0
LINE
8
BLACK
6
CONTINUOUS
10
5.52131
20
-3.87942
11
5.52202
21
-3.87995
0
LINE
8
BLACK
6
CONTINUOUS
10
5.52202
20
-3.87995
11
5.52207
21
-3.87998
0
LINE
8
BLACK
6
CONTINUOUS
10
5.52207
20
-3.87998
11
5.52395
21
-3.88185
0
LINE
8
BLACK
6
CONTINUOUS
10
5.52395
20
-3.88185
11
5.52454
21
-3.88269
0
LINE
8
BLACK
6
CONTINUOUS
10
5.52454
20
-3.88269
11
5.52471
21
-3.8847
0
LINE
8
BLACK
6
CONTINUOUS
10
5.52471
20
-3.8847
11
5.52355
21
-3.88636
0
LINE
8
BLACK
6
CONTINUOUS
10
5.52355
20
-3.88636
11
5.5216
21
-3.88688
0
LINE
8
BLACK
6
CONTINUOUS
10
5.5216
20
-3.88688
11
5.51977
21
-3.88603
0
LINE
8
BLACK
6
CONTINUOUS
10
5.51977
20
-3.88603
11
5.51824
21
-3.88449
0
LINE
8
BLACK
6
CONTINUOUS
10
5.51824
20
-3.88449
11
5.51554
21
-3.88314
0
LINE
8
BLACK
6
CONTINUOUS
10
5.51554
20
-3.88314
11
5.50756
21
-3.88314
0
LINE
8
BLACK
6
CONTINUOUS
10
5.50756
20
-3.88314
11
5.50486
21
-3.88449
0
LINE
8
BLACK
6
CONTINUOUS
10
5.50486
20
-3.88449
11
5.50366
21
-3.88569
0
LINE
8
BLACK
6
CONTINUOUS
10
5.50366
20
-3.88569
11
5.50232
21
-3.88838
0
LINE
8
BLACK
6
CONTINUOUS
10
5.50232
20
-3.88838
11
5.50232
21
-3.89096
0
LINE
8
BLACK
6
CONTINUOUS
10
5.50232
20
-3.89096
11
5.50382
21
-3.89547
0
LINE
8
BLACK
6
CONTINUOUS
10
5.50382
20
-3.89547
11
5.52582
21
-3.91747
0
LINE
8
BLACK
6
CONTINUOUS
10
5.52582
20
-3.91747
11
5.52619
21
-3.918
0
LINE
8
BLACK
6
CONTINUOUS
10
5.52619
20
-3.918
11
5.52629
21
-3.91808
0
LINE
8
BLACK
6
CONTINUOUS
10
5.52629
20
-3.91808
11
5.52631
21
-3.91816
0
LINE
8
BLACK
6
CONTINUOUS
10
5.52631
20
-3.91816
11
5.52641
21
-3.91831
0
LINE
8
BLACK
6
CONTINUOUS
10
5.52641
20
-3.91831
11
5.52649
21
-3.9192
0
LINE
8
BLACK
6
CONTINUOUS
10
5.52649
20
-3.9192
11
5.52664
21
-3.92007
0
LINE
8
BLACK
6
CONTINUOUS
10
5.52664
20
-3.92007
11
5.52658
21
-3.92019
0
LINE
8
BLACK
6
CONTINUOUS
10
5.52658
20
-3.92019
11
5.52659
21
-3.92032
0
LINE
8
BLACK
6
CONTINUOUS
10
5.52659
20
-3.92032
11
5.52608
21
-3.92105
0
LINE
8
BLACK
6
CONTINUOUS
10
5.52608
20
-3.92105
11
5.52563
21
-3.92182
0
LINE
8
BLACK
6
CONTINUOUS
10
5.52563
20
-3.92182
11
5.52551
21
-3.92187
0
LINE
8
BLACK
6
CONTINUOUS
10
5.52551
20
-3.92187
11
5.52543
21
-3.92198
0
LINE
8
BLACK
6
CONTINUOUS
10
5.52543
20
-3.92198
11
5.52457
21
-3.92221
0
LINE
8
BLACK
6
CONTINUOUS
10
5.52457
20
-3.92221
11
5.52374
21
-3.92251
0
LINE
8
BLACK
6
CONTINUOUS
10
5.52374
20
-3.92251
11
5.49936
21
-3.92251
0
LINE
8
BLACK
6
CONTINUOUS
10
5.49936
20
-3.92251
11
5.49835
21
-3.92233
0
LINE
8
BLACK
6
CONTINUOUS
10
5.49835
20
-3.92233
11
5.49681
21
-3.92103
0
LINE
8
BLACK
6
CONTINUOUS
10
5.49681
20
-3.92103
11
5.49646
21
-3.91905
0
LINE
8
BLACK
6
CONTINUOUS
10
5.49646
20
-3.91905
11
5.49747
21
-3.9173
0
LINE
8
BLACK
6
CONTINUOUS
10
5.49747
20
-3.9173
11
5.49936
21
-3.91661
0
LINE
8
BLACK
6
CONTINUOUS
10
5.49936
20
-3.91661
11
5.51661
21
-3.91661
0
LINE
8
BLACK
6
CONTINUOUS
10
5.51661
20
-3.91661
11
5.49915
21
-3.89915
0
LINE
8
BLACK
6
CONTINUOUS
10
5.49915
20
-3.89915
11
5.49856
21
-3.89831
0
LINE
8
BLACK
6
CONTINUOUS
10
5.49856
20
-3.89831
11
5.49855
21
-3.89813
0
LINE
8
BLACK
6
CONTINUOUS
10
5.49855
20
-3.89813
11
5.49844
21
-3.89799
0
LINE
8
BLACK
6
CONTINUOUS
10
5.49844
20
-3.89799
11
5.49656
21
-3.89237
0
LINE
8
BLACK
6
CONTINUOUS
10
5.49656
20
-3.89237
11
5.49643
21
-3.8915
0
LINE
8
BLACK
6
CONTINUOUS
10
5.49643
20
-3.8915
11
5.49641
21
-3.89144
0
LINE
8
BLACK
6
CONTINUOUS
10
5.49641
20
-3.89144
11
5.49641
21
-3.88769
0
LINE
8
BLACK
6
CONTINUOUS
10
5.49641
20
-3.88769
11
5.49659
21
-3.88668
0
LINE
8
BLACK
6
CONTINUOUS
10
5.49659
20
-3.88668
11
5.4967
21
-3.88654
0
LINE
8
BLACK
6
CONTINUOUS
10
5.4967
20
-3.88654
11
5.49672
21
-3.88637
0
LINE
8
BLACK
6
CONTINUOUS
10
5.49672
20
-3.88637
11
5.4986
21
-3.88262
0
LINE
8
BLACK
6
CONTINUOUS
10
5.4986
20
-3.88262
11
5.49912
21
-3.88191
0
LINE
8
BLACK
6
CONTINUOUS
10
5.49912
20
-3.88191
11
5.49915
21
-3.88185
0
LINE
8
BLACK
6
CONTINUOUS
10
5.49915
20
-3.88185
11
5.50102
21
-3.87998
0
LINE
8
BLACK
6
CONTINUOUS
10
5.50102
20
-3.87998
11
5.50175
21
-3.87947
0
LINE
8
BLACK
6
CONTINUOUS
10
5.50175
20
-3.87947
11
5.50179
21
-3.87942
0
LINE
8
BLACK
6
CONTINUOUS
10
5.50179
20
-3.87942
11
5.50554
21
-3.87755
0
LINE
8
BLACK
6
CONTINUOUS
10
5.50554
20
-3.87755
11
5.50652
21
-3.87725
0
LINE
8
BLACK
6
CONTINUOUS
10
5.50652
20
-3.87725
11
5.5067
21
-3.8773
0
LINE
8
BLACK
6
CONTINUOUS
10
5.5067
20
-3.8773
11
5.50686
21
-3.87724
0
LINE
8
BLACK
6
CONTINUOUS
10
5.50686
20
-3.87724
11
5.51624
21
-3.87724
0
LINE
8
BLACK
6
CONTINUOUS
10
5.51624
20
-3.87724
11
5.51725
21
-3.87741
0
LINE
8
BLACK
6
CONTINUOUS
10
6.01787
20
-3.04391
11
6.01942
21
-3.0452
0
LINE
8
BLACK
6
CONTINUOUS
10
6.01942
20
-3.0452
11
6.01977
21
-3.04719
0
LINE
8
BLACK
6
CONTINUOUS
10
6.01977
20
-3.04719
11
6.01876
21
-3.04894
0
LINE
8
BLACK
6
CONTINUOUS
10
6.01876
20
-3.04894
11
6.01686
21
-3.04963
0
LINE
8
BLACK
6
CONTINUOUS
10
6.01686
20
-3.04963
11
5.96236
21
-3.04963
0
LINE
8
BLACK
6
CONTINUOUS
10
5.96236
20
-3.04963
11
5.96135
21
-3.04946
0
LINE
8
BLACK
6
CONTINUOUS
10
5.96135
20
-3.04946
11
5.95981
21
-3.04816
0
LINE
8
BLACK
6
CONTINUOUS
10
5.95981
20
-3.04816
11
5.95945
21
-3.04617
0
LINE
8
BLACK
6
CONTINUOUS
10
5.95945
20
-3.04617
11
5.96046
21
-3.04442
0
LINE
8
BLACK
6
CONTINUOUS
10
5.96046
20
-3.04442
11
5.96236
21
-3.04373
0
LINE
8
BLACK
6
CONTINUOUS
10
5.96236
20
-3.04373
11
6.01686
21
-3.04373
0
LINE
8
BLACK
6
CONTINUOUS
10
6.01686
20
-3.04373
11
6.01787
21
-3.04391
0
LINE
8
BLACK
6
CONTINUOUS
10
5.52687
20
-3.04391
11
5.52842
21
-3.0452
0
LINE
8
BLACK
6
CONTINUOUS
10
5.52842
20
-3.0452
11
5.52877
21
-3.04719
0
LINE
8
BLACK
6
CONTINUOUS
10
5.52877
20
-3.04719
11
5.52776
21
-3.04894
0
LINE
8
BLACK
6
CONTINUOUS
10
5.52776
20
-3.04894
11
5.52586
21
-3.04963
0
LINE
8
BLACK
6
CONTINUOUS
10
5.52586
20
-3.04963
11
5.49786
21
-3.04963
0
LINE
8
BLACK
6
CONTINUOUS
10
5.49786
20
-3.04963
11
5.49685
21
-3.04946
0
LINE
8
BLACK
6
CONTINUOUS
10
5.49685
20
-3.04946
11
5.49531
21
-3.04816
0
LINE
8
BLACK
6
CONTINUOUS
10
5.49531
20
-3.04816
11
5.49495
21
-3.04617
0
LINE
8
BLACK
6
CONTINUOUS
10
5.49495
20
-3.04617
11
5.49596
21
-3.04442
0
LINE
8
BLACK
6
CONTINUOUS
10
5.49596
20
-3.04442
11
5.49786
21
-3.04373
0
LINE
8
BLACK
6
CONTINUOUS
10
5.49786
20
-3.04373
11
5.52586
21
-3.04373
0
LINE
8
BLACK
6
CONTINUOUS
10
5.52586
20
-3.04373
11
5.52687
21
-3.04391
0
LINE
8
BLACK
6
CONTINUOUS
10
5.72437
20
-3.04341
11
5.72592
21
-3.0447
0
LINE
8
BLACK
6
CONTINUOUS
10
5.72592
20
-3.0447
11
5.72627
21
-3.04669
0
LINE
8
BLACK
6
CONTINUOUS
10
5.72627
20
-3.04669
11
5.72526
21
-3.04844
0
LINE
8
BLACK
6
CONTINUOUS
10
5.72526
20
-3.04844
11
5.72336
21
-3.04913
0
LINE
8
BLACK
6
CONTINUOUS
10
5.72336
20
-3.04913
11
5.69736
21
-3.04913
0
LINE
8
BLACK
6
CONTINUOUS
10
5.69736
20
-3.04913
11
5.69635
21
-3.04896
0
LINE
8
BLACK
6
CONTINUOUS
10
5.69635
20
-3.04896
11
5.69481
21
-3.04766
0
LINE
8
BLACK
6
CONTINUOUS
10
5.69481
20
-3.04766
11
5.69445
21
-3.04567
0
LINE
8
BLACK
6
CONTINUOUS
10
5.69445
20
-3.04567
11
5.69546
21
-3.04392
0
LINE
8
BLACK
6
CONTINUOUS
10
5.69546
20
-3.04392
11
5.69736
21
-3.04323
0
LINE
8
BLACK
6
CONTINUOUS
10
5.69736
20
-3.04323
11
5.72336
21
-3.04323
0
LINE
8
BLACK
6
CONTINUOUS
10
5.72336
20
-3.04323
11
5.72437
21
-3.04341
0
LINE
8
BLACK
6
CONTINUOUS
10
5.82287
20
-3.04341
11
5.82442
21
-3.0447
0
LINE
8
BLACK
6
CONTINUOUS
10
5.82442
20
-3.0447
11
5.82477
21
-3.04669
0
LINE
8
BLACK
6
CONTINUOUS
10
5.82477
20
-3.04669
11
5.82376
21
-3.04844
0
LINE
8
BLACK
6
CONTINUOUS
10
5.82376
20
-3.04844
11
5.82186
21
-3.04913
0
LINE
8
BLACK
6
CONTINUOUS
10
5.82186
20
-3.04913
11
5.79286
21
-3.04913
0
LINE
8
BLACK
6
CONTINUOUS
10
5.79286
20
-3.04913
11
5.79185
21
-3.04896
0
LINE
8
BLACK
6
CONTINUOUS
10
5.79185
20
-3.04896
11
5.79031
21
-3.04766
0
LINE
8
BLACK
6
CONTINUOUS
10
5.79031
20
-3.04766
11
5.78995
21
-3.04567
0
LINE
8
BLACK
6
CONTINUOUS
10
5.78995
20
-3.04567
11
5.79096
21
-3.04392
0
LINE
8
BLACK
6
CONTINUOUS
10
5.79096
20
-3.04392
11
5.79286
21
-3.04323
0
LINE
8
BLACK
6
CONTINUOUS
10
5.79286
20
-3.04323
11
5.82186
21
-3.04323
0
LINE
8
BLACK
6
CONTINUOUS
10
5.82186
20
-3.04323
11
5.82287
21
-3.04341
0
LINE
8
BLACK
6
CONTINUOUS
10
5.22787
20
-3.04341
11
5.22942
21
-3.0447
0
LINE
8
BLACK
6
CONTINUOUS
10
5.22942
20
-3.0447
11
5.22977
21
-3.04669
0
LINE
8
BLACK
6
CONTINUOUS
10
5.22977
20
-3.04669
11
5.22876
21
-3.04844
0
LINE
8
BLACK
6
CONTINUOUS
10
5.22876
20
-3.04844
11
5.22686
21
-3.04913
0
LINE
8
BLACK
6
CONTINUOUS
10
5.22686
20
-3.04913
11
5.20236
21
-3.04913
0
LINE
8
BLACK
6
CONTINUOUS
10
5.20236
20
-3.04913
11
5.20135
21
-3.04896
0
LINE
8
BLACK
6
CONTINUOUS
10
5.20135
20
-3.04896
11
5.19981
21
-3.04766
0
LINE
8
BLACK
6
CONTINUOUS
10
5.19981
20
-3.04766
11
5.19945
21
-3.04567
0
LINE
8
BLACK
6
CONTINUOUS
10
5.19945
20
-3.04567
11
5.20046
21
-3.04392
0
LINE
8
BLACK
6
CONTINUOUS
10
5.20046
20
-3.04392
11
5.20236
21
-3.04323
0
LINE
8
BLACK
6
CONTINUOUS
10
5.20236
20
-3.04323
11
5.22686
21
-3.04323
0
LINE
8
BLACK
6
CONTINUOUS
10
5.22686
20
-3.04323
11
5.22787
21
-3.04341
0
LINE
8
BLACK
6
CONTINUOUS
10
5.59135
20
-3.04896
11
5.58981
21
-3.04766
0
LINE
8
BLACK
6
CONTINUOUS
10
5.58981
20
-3.04766
11
5.58945
21
-3.04567
0
LINE
8
BLACK
6
CONTINUOUS
10
5.58945
20
-3.04567
11
5.59046
21
-3.04392
0
LINE
8
BLACK
6
CONTINUOUS
10
5.59046
20
-3.04392
11
5.59236
21
-3.04323
0
LINE
8
BLACK
6
CONTINUOUS
10
5.59236
20
-3.04323
11
5.62636
21
-3.04323
0
LINE
8
BLACK
6
CONTINUOUS
10
5.62636
20
-3.04323
11
5.62737
21
-3.04341
0
LINE
8
BLACK
6
CONTINUOUS
10
5.62737
20
-3.04341
11
5.62892
21
-3.0447
0
LINE
8
BLACK
6
CONTINUOUS
10
5.62892
20
-3.0447
11
5.62927
21
-3.04669
0
LINE
8
BLACK
6
CONTINUOUS
10
5.62927
20
-3.04669
11
5.62826
21
-3.04844
0
LINE
8
BLACK
6
CONTINUOUS
10
5.62826
20
-3.04844
11
5.62636
21
-3.04913
0
LINE
8
BLACK
6
CONTINUOUS
10
5.62636
20
-3.04913
11
5.59236
21
-3.04913
0
LINE
8
BLACK
6
CONTINUOUS
10
5.59236
20
-3.04913
11
5.59135
21
-3.04896
0
LINE
8
BLACK
6
CONTINUOUS
10
5.32837
20
-3.04341
11
5.32992
21
-3.0447
0
LINE
8
BLACK
6
CONTINUOUS
10
5.32992
20
-3.0447
11
5.33027
21
-3.04669
0
LINE
8
BLACK
6
CONTINUOUS
10
5.33027
20
-3.04669
11
5.32926
21
-3.04844
0
LINE
8
BLACK
6
CONTINUOUS
10
5.32926
20
-3.04844
11
5.32736
21
-3.04913
0
LINE
8
BLACK
6
CONTINUOUS
10
5.32736
20
-3.04913
11
5.30286
21
-3.04913
0
LINE
8
BLACK
6
CONTINUOUS
10
5.30286
20
-3.04913
11
5.30185
21
-3.04896
0
LINE
8
BLACK
6
CONTINUOUS
10
5.30185
20
-3.04896
11
5.30031
21
-3.04766
0
LINE
8
BLACK
6
CONTINUOUS
10
5.30031
20
-3.04766
11
5.29995
21
-3.04567
0
LINE
8
BLACK
6
CONTINUOUS
10
5.29995
20
-3.04567
11
5.30096
21
-3.04392
0
LINE
8
BLACK
6
CONTINUOUS
10
5.30096
20
-3.04392
11
5.30286
21
-3.04323
0
LINE
8
BLACK
6
CONTINUOUS
10
5.30286
20
-3.04323
11
5.32736
21
-3.04323
0
LINE
8
BLACK
6
CONTINUOUS
10
5.32736
20
-3.04323
11
5.32837
21
-3.04341
0
LINE
8
BLACK
6
CONTINUOUS
10
5.42837
20
-3.04341
11
5.42992
21
-3.0447
0
LINE
8
BLACK
6
CONTINUOUS
10
5.42992
20
-3.0447
11
5.43027
21
-3.04669
0
LINE
8
BLACK
6
CONTINUOUS
10
5.43027
20
-3.04669
11
5.42926
21
-3.04844
0
LINE
8
BLACK
6
CONTINUOUS
10
5.42926
20
-3.04844
11
5.42736
21
-3.04913
0
LINE
8
BLACK
6
CONTINUOUS
10
5.42736
20
-3.04913
11
5.40186
21
-3.04913
0
LINE
8
BLACK
6
CONTINUOUS
10
5.40186
20
-3.04913
11
5.40085
21
-3.04896
0
LINE
8
BLACK
6
CONTINUOUS
10
5.40085
20
-3.04896
11
5.39931
21
-3.04766
0
LINE
8
BLACK
6
CONTINUOUS
10
5.39931
20
-3.04766
11
5.39895
21
-3.04567
0
LINE
8
BLACK
6
CONTINUOUS
10
5.39895
20
-3.04567
11
5.39996
21
-3.04392
0
LINE
8
BLACK
6
CONTINUOUS
10
5.39996
20
-3.04392
11
5.40186
21
-3.04323
0
LINE
8
BLACK
6
CONTINUOUS
10
5.40186
20
-3.04323
11
5.42736
21
-3.04323
0
LINE
8
BLACK
6
CONTINUOUS
10
5.42736
20
-3.04323
11
5.42837
21
-3.04341
0
LINE
8
BLACK
6
CONTINUOUS
10
5.12937
20
-3.04241
11
5.13092
21
-3.0437
0
LINE
8
BLACK
6
CONTINUOUS
10
5.13092
20
-3.0437
11
5.13127
21
-3.04569
0
LINE
8
BLACK
6
CONTINUOUS
10
5.13127
20
-3.04569
11
5.13026
21
-3.04744
0
LINE
8
BLACK
6
CONTINUOUS
10
5.13026
20
-3.04744
11
5.12836
21
-3.04813
0
LINE
8
BLACK
6
CONTINUOUS
10
5.12836
20
-3.04813
11
4.91736
21
-3.04813
0
LINE
8
BLACK
6
CONTINUOUS
10
4.91736
20
-3.04813
11
4.91635
21
-3.04796
0
LINE
8
BLACK
6
CONTINUOUS
10
4.91635
20
-3.04796
11
4.91481
21
-3.04666
0
LINE
8
BLACK
6
CONTINUOUS
10
4.91481
20
-3.04666
11
4.91445
21
-3.04467
0
LINE
8
BLACK
6
CONTINUOUS
10
4.91445
20
-3.04467
11
4.91546
21
-3.04292
0
LINE
8
BLACK
6
CONTINUOUS
10
4.91546
20
-3.04292
11
4.91736
21
-3.04223
0
LINE
8
BLACK
6
CONTINUOUS
10
4.91736
20
-3.04223
11
5.12836
21
-3.04223
0
LINE
8
BLACK
6
CONTINUOUS
10
5.12836
20
-3.04223
11
5.12937
21
-3.04241
0
LINE
8
BLACK
6
CONTINUOUS
10
5.28962
20
-2.90178
11
5.29031
21
-2.90368
0
LINE
8
BLACK
6
CONTINUOUS
10
5.29031
20
-2.90368
11
5.29031
21
-2.94368
0
LINE
8
BLACK
6
CONTINUOUS
10
5.29031
20
-2.94368
11
5.29025
21
-2.94406
0
LINE
8
BLACK
6
CONTINUOUS
10
5.29025
20
-2.94406
11
5.29027
21
-2.94419
0
LINE
8
BLACK
6
CONTINUOUS
10
5.29027
20
-2.94419
11
5.2902
21
-2.94431
0
LINE
8
BLACK
6
CONTINUOUS
10
5.2902
20
-2.94431
11
5.29014
21
-2.94469
0
LINE
8
BLACK
6
CONTINUOUS
10
5.29014
20
-2.94469
11
5.28964
21
-2.94528
0
LINE
8
BLACK
6
CONTINUOUS
10
5.28964
20
-2.94528
11
5.28926
21
-2.94594
0
LINE
8
BLACK
6
CONTINUOUS
10
5.28926
20
-2.94594
11
5.28901
21
-2.94603
0
LINE
8
BLACK
6
CONTINUOUS
10
5.28901
20
-2.94603
11
5.28884
21
-2.94624
0
LINE
8
BLACK
6
CONTINUOUS
10
5.28884
20
-2.94624
11
5.28808
21
-2.94637
0
LINE
8
BLACK
6
CONTINUOUS
10
5.28808
20
-2.94637
11
5.28736
21
-2.94663
0
LINE
8
BLACK
6
CONTINUOUS
10
5.28736
20
-2.94663
11
5.22736
21
-2.94663
0
LINE
8
BLACK
6
CONTINUOUS
10
5.22736
20
-2.94663
11
5.22698
21
-2.94657
0
LINE
8
BLACK
6
CONTINUOUS
10
5.22698
20
-2.94657
11
5.22685
21
-2.94659
0
LINE
8
BLACK
6
CONTINUOUS
10
5.22685
20
-2.94659
11
5.22674
21
-2.94652
0
LINE
8
BLACK
6
CONTINUOUS
10
5.22674
20
-2.94652
11
5.22635
21
-2.94646
0
LINE
8
BLACK
6
CONTINUOUS
10
5.22635
20
-2.94646
11
5.22576
21
-2.94596
0
LINE
8
BLACK
6
CONTINUOUS
10
5.22576
20
-2.94596
11
5.2251
21
-2.94558
0
LINE
8
BLACK
6
CONTINUOUS
10
5.2251
20
-2.94558
11
5.22501
21
-2.94533
0
LINE
8
BLACK
6
CONTINUOUS
10
5.22501
20
-2.94533
11
5.22481
21
-2.94516
0
LINE
8
BLACK
6
CONTINUOUS
10
5.22481
20
-2.94516
11
5.22467
21
-2.9444
0
LINE
8
BLACK
6
CONTINUOUS
10
5.22467
20
-2.9444
11
5.22441
21
-2.94368
0
LINE
8
BLACK
6
CONTINUOUS
10
5.22441
20
-2.94368
11
5.22441
21
-2.90368
0
LINE
8
BLACK
6
CONTINUOUS
10
5.22441
20
-2.90368
11
5.22459
21
-2.90267
0
LINE
8
BLACK
6
CONTINUOUS
10
5.22459
20
-2.90267
11
5.22589
21
-2.90112
0
LINE
8
BLACK
6
CONTINUOUS
10
5.22589
20
-2.90112
11
5.22787
21
-2.90077
0
LINE
8
BLACK
6
CONTINUOUS
10
5.22787
20
-2.90077
11
5.22962
21
-2.90178
0
LINE
8
BLACK
6
CONTINUOUS
10
5.22962
20
-2.90178
11
5.23031
21
-2.90368
0
LINE
8
BLACK
6
CONTINUOUS
10
5.23031
20
-2.90368
11
5.23031
21
-2.94073
0
LINE
8
BLACK
6
CONTINUOUS
10
5.23031
20
-2.94073
11
5.28441
21
-2.94073
0
LINE
8
BLACK
6
CONTINUOUS
10
5.28441
20
-2.94073
11
5.28441
21
-2.90368
0
LINE
8
BLACK
6
CONTINUOUS
10
5.28441
20
-2.90368
11
5.28459
21
-2.90267
0
LINE
8
BLACK
6
CONTINUOUS
10
5.28459
20
-2.90267
11
5.28589
21
-2.90112
0
LINE
8
BLACK
6
CONTINUOUS
10
5.28589
20
-2.90112
11
5.28787
21
-2.90077
0
LINE
8
BLACK
6
CONTINUOUS
10
5.28787
20
-2.90077
11
5.28962
21
-2.90178
0
LINE
8
BLACK
6
CONTINUOUS
10
5.88962
20
-2.90178
11
5.89031
21
-2.90368
0
LINE
8
BLACK
6
CONTINUOUS
10
5.89031
20
-2.90368
11
5.89031
21
-2.94368
0
LINE
8
BLACK
6
CONTINUOUS
10
5.89031
20
-2.94368
11
5.89025
21
-2.94406
0
LINE
8
BLACK
6
CONTINUOUS
10
5.89025
20
-2.94406
11
5.89027
21
-2.94419
0
LINE
8
BLACK
6
CONTINUOUS
10
5.89027
20
-2.94419
11
5.8902
21
-2.94431
0
LINE
8
BLACK
6
CONTINUOUS
10
5.8902
20
-2.94431
11
5.89014
21
-2.94469
0
LINE
8
BLACK
6
CONTINUOUS
10
5.89014
20
-2.94469
11
5.88964
21
-2.94528
0
LINE
8
BLACK
6
CONTINUOUS
10
5.88964
20
-2.94528
11
5.88926
21
-2.94594
0
LINE
8
BLACK
6
CONTINUOUS
10
5.88926
20
-2.94594
11
5.88901
21
-2.94603
0
LINE
8
BLACK
6
CONTINUOUS
10
5.88901
20
-2.94603
11
5.88884
21
-2.94624
0
LINE
8
BLACK
6
CONTINUOUS
10
5.88884
20
-2.94624
11
5.88808
21
-2.94637
0
LINE
8
BLACK
6
CONTINUOUS
10
5.88808
20
-2.94637
11
5.88736
21
-2.94663
0
LINE
8
BLACK
6
CONTINUOUS
10
5.88736
20
-2.94663
11
5.82736
21
-2.94663
0
LINE
8
BLACK
6
CONTINUOUS
10
5.82736
20
-2.94663
11
5.82698
21
-2.94657
0
LINE
8
BLACK
6
CONTINUOUS
10
5.82698
20
-2.94657
11
5.82685
21
-2.94659
0
LINE
8
BLACK
6
CONTINUOUS
10
5.82685
20
-2.94659
11
5.82674
21
-2.94652
0
LINE
8
BLACK
6
CONTINUOUS
10
5.82674
20
-2.94652
11
5.82635
21
-2.94646
0
LINE
8
BLACK
6
CONTINUOUS
10
5.82635
20
-2.94646
11
5.82576
21
-2.94596
0
LINE
8
BLACK
6
CONTINUOUS
10
5.82576
20
-2.94596
11
5.8251
21
-2.94558
0
LINE
8
BLACK
6
CONTINUOUS
10
5.8251
20
-2.94558
11
5.82501
21
-2.94533
0
LINE
8
BLACK
6
CONTINUOUS
10
5.82501
20
-2.94533
11
5.82481
21
-2.94516
0
LINE
8
BLACK
6
CONTINUOUS
10
5.82481
20
-2.94516
11
5.82467
21
-2.9444
0
LINE
8
BLACK
6
CONTINUOUS
10
5.82467
20
-2.9444
11
5.82441
21
-2.94368
0
LINE
8
BLACK
6
CONTINUOUS
10
5.82441
20
-2.94368
11
5.82441
21
-2.90368
0
LINE
8
BLACK
6
CONTINUOUS
10
5.82441
20
-2.90368
11
5.82459
21
-2.90267
0
LINE
8
BLACK
6
CONTINUOUS
10
5.82459
20
-2.90267
11
5.82589
21
-2.90112
0
LINE
8
BLACK
6
CONTINUOUS
10
5.82589
20
-2.90112
11
5.82787
21
-2.90077
0
LINE
8
BLACK
6
CONTINUOUS
10
5.82787
20
-2.90077
11
5.82962
21
-2.90178
0
LINE
8
BLACK
6
CONTINUOUS
10
5.82962
20
-2.90178
11
5.83031
21
-2.90368
0
LINE
8
BLACK
6
CONTINUOUS
10
5.83031
20
-2.90368
11
5.83031
21
-2.94073
0
LINE
8
BLACK
6
CONTINUOUS
10
5.83031
20
-2.94073
11
5.88441
21
-2.94073
0
LINE
8
BLACK
6
CONTINUOUS
10
5.88441
20
-2.94073
11
5.88441
21
-2.90368
0
LINE
8
BLACK
6
CONTINUOUS
10
5.88441
20
-2.90368
11
5.88459
21
-2.90267
0
LINE
8
BLACK
6
CONTINUOUS
10
5.88459
20
-2.90267
11
5.88589
21
-2.90112
0
LINE
8
BLACK
6
CONTINUOUS
10
5.88589
20
-2.90112
11
5.88787
21
-2.90077
0
LINE
8
BLACK
6
CONTINUOUS
10
5.88787
20
-2.90077
11
5.88962
21
-2.90178
0
LINE
8
BLACK
6
CONTINUOUS
10
5.68962
20
-2.90178
11
5.69031
21
-2.90368
0
LINE
8
BLACK
6
CONTINUOUS
10
5.69031
20
-2.90368
11
5.69031
21
-2.94368
0
LINE
8
BLACK
6
CONTINUOUS
10
5.69031
20
-2.94368
11
5.69025
21
-2.94406
0
LINE
8
BLACK
6
CONTINUOUS
10
5.69025
20
-2.94406
11
5.69027
21
-2.94419
0
LINE
8
BLACK
6
CONTINUOUS
10
5.69027
20
-2.94419
11
5.6902
21
-2.94431
0
LINE
8
BLACK
6
CONTINUOUS
10
5.6902
20
-2.94431
11
5.69014
21
-2.94469
0
LINE
8
BLACK
6
CONTINUOUS
10
5.69014
20
-2.94469
11
5.68964
21
-2.94528
0
LINE
8
BLACK
6
CONTINUOUS
10
5.68964
20
-2.94528
11
5.68926
21
-2.94594
0
LINE
8
BLACK
6
CONTINUOUS
10
5.68926
20
-2.94594
11
5.68901
21
-2.94603
0
LINE
8
BLACK
6
CONTINUOUS
10
5.68901
20
-2.94603
11
5.68884
21
-2.94624
0
LINE
8
BLACK
6
CONTINUOUS
10
5.68884
20
-2.94624
11
5.68808
21
-2.94637
0
LINE
8
BLACK
6
CONTINUOUS
10
5.68808
20
-2.94637
11
5.68736
21
-2.94663
0
LINE
8
BLACK
6
CONTINUOUS
10
5.68736
20
-2.94663
11
5.62736
21
-2.94663
0
LINE
8
BLACK
6
CONTINUOUS
10
5.62736
20
-2.94663
11
5.62698
21
-2.94657
0
LINE
8
BLACK
6
CONTINUOUS
10
5.62698
20
-2.94657
11
5.62685
21
-2.94659
0
LINE
8
BLACK
6
CONTINUOUS
10
5.62685
20
-2.94659
11
5.62674
21
-2.94652
0
LINE
8
BLACK
6
CONTINUOUS
10
5.62674
20
-2.94652
11
5.62635
21
-2.94646
0
LINE
8
BLACK
6
CONTINUOUS
10
5.62635
20
-2.94646
11
5.62576
21
-2.94596
0
LINE
8
BLACK
6
CONTINUOUS
10
5.62576
20
-2.94596
11
5.6251
21
-2.94558
0
LINE
8
BLACK
6
CONTINUOUS
10
5.6251
20
-2.94558
11
5.62501
21
-2.94533
0
LINE
8
BLACK
6
CONTINUOUS
10
5.62501
20
-2.94533
11
5.62481
21
-2.94516
0
LINE
8
BLACK
6
CONTINUOUS
10
5.62481
20
-2.94516
11
5.62467
21
-2.9444
0
LINE
8
BLACK
6
CONTINUOUS
10
5.62467
20
-2.9444
11
5.62441
21
-2.94368
0
LINE
8
BLACK
6
CONTINUOUS
10
5.62441
20
-2.94368
11
5.62441
21
-2.90368
0
LINE
8
BLACK
6
CONTINUOUS
10
5.62441
20
-2.90368
11
5.62459
21
-2.90267
0
LINE
8
BLACK
6
CONTINUOUS
10
5.62459
20
-2.90267
11
5.62589
21
-2.90112
0
LINE
8
BLACK
6
CONTINUOUS
10
5.62589
20
-2.90112
11
5.62787
21
-2.90077
0
LINE
8
BLACK
6
CONTINUOUS
10
5.62787
20
-2.90077
11
5.62962
21
-2.90178
0
LINE
8
BLACK
6
CONTINUOUS
10
5.62962
20
-2.90178
11
5.63031
21
-2.90368
0
LINE
8
BLACK
6
CONTINUOUS
10
5.63031
20
-2.90368
11
5.63031
21
-2.94073
0
LINE
8
BLACK
6
CONTINUOUS
10
5.63031
20
-2.94073
11
5.68441
21
-2.94073
0
LINE
8
BLACK
6
CONTINUOUS
10
5.68441
20
-2.94073
11
5.68441
21
-2.90368
0
LINE
8
BLACK
6
CONTINUOUS
10
5.68441
20
-2.90368
11
5.68459
21
-2.90267
0
LINE
8
BLACK
6
CONTINUOUS
10
5.68459
20
-2.90267
11
5.68589
21
-2.90112
0
LINE
8
BLACK
6
CONTINUOUS
10
5.68589
20
-2.90112
11
5.68787
21
-2.90077
0
LINE
8
BLACK
6
CONTINUOUS
10
5.68787
20
-2.90077
11
5.68962
21
-2.90178
0
LINE
8
BLACK
6
CONTINUOUS
10
5.38962
20
-2.90178
11
5.39031
21
-2.90368
0
LINE
8
BLACK
6
CONTINUOUS
10
5.39031
20
-2.90368
11
5.39031
21
-2.94368
0
LINE
8
BLACK
6
CONTINUOUS
10
5.39031
20
-2.94368
11
5.39025
21
-2.94406
0
LINE
8
BLACK
6
CONTINUOUS
10
5.39025
20
-2.94406
11
5.39027
21
-2.94419
0
LINE
8
BLACK
6
CONTINUOUS
10
5.39027
20
-2.94419
11
5.3902
21
-2.94431
0
LINE
8
BLACK
6
CONTINUOUS
10
5.3902
20
-2.94431
11
5.39014
21
-2.94469
0
LINE
8
BLACK
6
CONTINUOUS
10
5.39014
20
-2.94469
11
5.38964
21
-2.94528
0
LINE
8
BLACK
6
CONTINUOUS
10
5.38964
20
-2.94528
11
5.38926
21
-2.94594
0
LINE
8
BLACK
6
CONTINUOUS
10
5.38926
20
-2.94594
11
5.38901
21
-2.94603
0
LINE
8
BLACK
6
CONTINUOUS
10
5.38901
20
-2.94603
11
5.38884
21
-2.94624
0
LINE
8
BLACK
6
CONTINUOUS
10
5.38884
20
-2.94624
11
5.38808
21
-2.94637
0
LINE
8
BLACK
6
CONTINUOUS
10
5.38808
20
-2.94637
11
5.38736
21
-2.94663
0
LINE
8
BLACK
6
CONTINUOUS
10
5.38736
20
-2.94663
11
5.32736
21
-2.94663
0
LINE
8
BLACK
6
CONTINUOUS
10
5.32736
20
-2.94663
11
5.32698
21
-2.94657
0
LINE
8
BLACK
6
CONTINUOUS
10
5.32698
20
-2.94657
11
5.32685
21
-2.94659
0
LINE
8
BLACK
6
CONTINUOUS
10
5.32685
20
-2.94659
11
5.32674
21
-2.94652
0
LINE
8
BLACK
6
CONTINUOUS
10
5.32674
20
-2.94652
11
5.32635
21
-2.94646
0
LINE
8
BLACK
6
CONTINUOUS
10
5.32635
20
-2.94646
11
5.32576
21
-2.94596
0
LINE
8
BLACK
6
CONTINUOUS
10
5.32576
20
-2.94596
11
5.3251
21
-2.94558
0
LINE
8
BLACK
6
CONTINUOUS
10
5.3251
20
-2.94558
11
5.32501
21
-2.94533
0
LINE
8
BLACK
6
CONTINUOUS
10
5.32501
20
-2.94533
11
5.32481
21
-2.94516
0
LINE
8
BLACK
6
CONTINUOUS
10
5.32481
20
-2.94516
11
5.32467
21
-2.9444
0
LINE
8
BLACK
6
CONTINUOUS
10
5.32467
20
-2.9444
11
5.32441
21
-2.94368
0
LINE
8
BLACK
6
CONTINUOUS
10
5.32441
20
-2.94368
11
5.32441
21
-2.90368
0
LINE
8
BLACK
6
CONTINUOUS
10
5.32441
20
-2.90368
11
5.32459
21
-2.90267
0
LINE
8
BLACK
6
CONTINUOUS
10
5.32459
20
-2.90267
11
5.32589
21
-2.90112
0
LINE
8
BLACK
6
CONTINUOUS
10
5.32589
20
-2.90112
11
5.32787
21
-2.90077
0
LINE
8
BLACK
6
CONTINUOUS
10
5.32787
20
-2.90077
11
5.32962
21
-2.90178
0
LINE
8
BLACK
6
CONTINUOUS
10
5.32962
20
-2.90178
11
5.33031
21
-2.90368
0
LINE
8
BLACK
6
CONTINUOUS
10
5.33031
20
-2.90368
11
5.33031
21
-2.94073
0
LINE
8
BLACK
6
CONTINUOUS
10
5.33031
20
-2.94073
11
5.38441
21
-2.94073
0
LINE
8
BLACK
6
CONTINUOUS
10
5.38441
20
-2.94073
11
5.38441
21
-2.90368
0
LINE
8
BLACK
6
CONTINUOUS
10
5.38441
20
-2.90368
11
5.38459
21
-2.90267
0
LINE
8
BLACK
6
CONTINUOUS
10
5.38459
20
-2.90267
11
5.38589
21
-2.90112
0
LINE
8
BLACK
6
CONTINUOUS
10
5.38589
20
-2.90112
11
5.38787
21
-2.90077
0
LINE
8
BLACK
6
CONTINUOUS
10
5.38787
20
-2.90077
11
5.38962
21
-2.90178
0
LINE
8
BLACK
6
CONTINUOUS
10
5.57525
20
-2.8683
11
5.57537
21
-2.86827
0
LINE
8
BLACK
6
CONTINUOUS
10
5.57537
20
-2.86827
11
5.57549
21
-2.86834
0
LINE
8
BLACK
6
CONTINUOUS
10
5.57549
20
-2.86834
11
5.57587
21
-2.86841
0
LINE
8
BLACK
6
CONTINUOUS
10
5.57587
20
-2.86841
11
5.57646
21
-2.8689
0
LINE
8
BLACK
6
CONTINUOUS
10
5.57646
20
-2.8689
11
5.57712
21
-2.86928
0
LINE
8
BLACK
6
CONTINUOUS
10
5.57712
20
-2.86928
11
5.57722
21
-2.86953
0
LINE
8
BLACK
6
CONTINUOUS
10
5.57722
20
-2.86953
11
5.57742
21
-2.8697
0
LINE
8
BLACK
6
CONTINUOUS
10
5.57742
20
-2.8697
11
5.57755
21
-2.87046
0
LINE
8
BLACK
6
CONTINUOUS
10
5.57755
20
-2.87046
11
5.57781
21
-2.87118
0
LINE
8
BLACK
6
CONTINUOUS
10
5.57781
20
-2.87118
11
5.57781
21
-2.92356
0
LINE
8
BLACK
6
CONTINUOUS
10
5.57781
20
-2.92356
11
5.5781
21
-2.92343
0
LINE
8
BLACK
6
CONTINUOUS
10
5.5781
20
-2.92343
11
5.58164
21
-2.92343
0
LINE
8
BLACK
6
CONTINUOUS
10
5.58164
20
-2.92343
11
5.58482
21
-2.92497
0
LINE
8
BLACK
6
CONTINUOUS
10
5.58482
20
-2.92497
11
5.58703
21
-2.92773
0
LINE
8
BLACK
6
CONTINUOUS
10
5.58703
20
-2.92773
11
5.58781
21
-2.93118
0
LINE
8
BLACK
6
CONTINUOUS
10
5.58781
20
-2.93118
11
5.58781
21
-2.93121
0
LINE
8
BLACK
6
CONTINUOUS
10
5.58781
20
-2.93121
11
5.58702
21
-2.93465
0
LINE
8
BLACK
6
CONTINUOUS
10
5.58702
20
-2.93465
11
5.5848
21
-2.93741
0
LINE
8
BLACK
6
CONTINUOUS
10
5.5848
20
-2.93741
11
5.58161
21
-2.93894
0
LINE
8
BLACK
6
CONTINUOUS
10
5.58161
20
-2.93894
11
5.57807
21
-2.93893
0
LINE
8
BLACK
6
CONTINUOUS
10
5.57807
20
-2.93893
11
5.57489
21
-2.93739
0
LINE
8
BLACK
6
CONTINUOUS
10
5.57489
20
-2.93739
11
5.57269
21
-2.93462
0
LINE
8
BLACK
6
CONTINUOUS
10
5.57269
20
-2.93462
11
5.57258
21
-2.93413
0
LINE
8
BLACK
6
CONTINUOUS
10
5.57258
20
-2.93413
11
5.53486
21
-2.93413
0
LINE
8
BLACK
6
CONTINUOUS
10
5.53486
20
-2.93413
11
5.53385
21
-2.93396
0
LINE
8
BLACK
6
CONTINUOUS
10
5.53385
20
-2.93396
11
5.53231
21
-2.93266
0
LINE
8
BLACK
6
CONTINUOUS
10
5.53231
20
-2.93266
11
5.53195
21
-2.93067
0
LINE
8
BLACK
6
CONTINUOUS
10
5.53195
20
-2.93067
11
5.53296
21
-2.92892
0
LINE
8
BLACK
6
CONTINUOUS
10
5.53296
20
-2.92892
11
5.53486
21
-2.92823
0
LINE
8
BLACK
6
CONTINUOUS
10
5.53486
20
-2.92823
11
5.57191
21
-2.92823
0
LINE
8
BLACK
6
CONTINUOUS
10
5.57191
20
-2.92823
11
5.57191
21
-2.87413
0
LINE
8
BLACK
6
CONTINUOUS
10
5.57191
20
-2.87413
11
5.53486
21
-2.87413
0
LINE
8
BLACK
6
CONTINUOUS
10
5.53486
20
-2.87413
11
5.53385
21
-2.87396
0
LINE
8
BLACK
6
CONTINUOUS
10
5.53385
20
-2.87396
11
5.53231
21
-2.87266
0
LINE
8
BLACK
6
CONTINUOUS
10
5.53231
20
-2.87266
11
5.53195
21
-2.87067
0
LINE
8
BLACK
6
CONTINUOUS
10
5.53195
20
-2.87067
11
5.53296
21
-2.86892
0
LINE
8
BLACK
6
CONTINUOUS
10
5.53296
20
-2.86892
11
5.53486
21
-2.86823
0
LINE
8
BLACK
6
CONTINUOUS
10
5.53486
20
-2.86823
11
5.57486
21
-2.86823
0
LINE
8
BLACK
6
CONTINUOUS
10
5.57486
20
-2.86823
11
5.57525
21
-2.8683
0
LINE
8
BLACK
6
CONTINUOUS
10
5.5783
20
-2.92961
11
5.57781
21
-2.93077
0
LINE
8
BLACK
6
CONTINUOUS
10
5.57781
20
-2.93077
11
5.57781
21
-2.93118
0
LINE
8
BLACK
6
CONTINUOUS
10
5.57781
20
-2.93118
11
5.57776
21
-2.93147
0
LINE
8
BLACK
6
CONTINUOUS
10
5.57776
20
-2.93147
11
5.5783
21
-2.93275
0
LINE
8
BLACK
6
CONTINUOUS
10
5.5783
20
-2.93275
11
5.57986
21
-2.9334
0
LINE
8
BLACK
6
CONTINUOUS
10
5.57986
20
-2.9334
11
5.58143
21
-2.93275
0
LINE
8
BLACK
6
CONTINUOUS
10
5.58143
20
-2.93275
11
5.58208
21
-2.93118
0
LINE
8
BLACK
6
CONTINUOUS
10
5.58208
20
-2.93118
11
5.58143
21
-2.92961
0
LINE
8
BLACK
6
CONTINUOUS
10
5.58143
20
-2.92961
11
5.57986
21
-2.92897
0
LINE
8
BLACK
6
CONTINUOUS
10
5.57986
20
-2.92897
11
5.5783
21
-2.92961
0
LINE
8
BLACK
6
CONTINUOUS
10
5.49587
20
-2.86841
11
5.49742
21
-2.8697
0
LINE
8
BLACK
6
CONTINUOUS
10
5.49742
20
-2.8697
11
5.49777
21
-2.87169
0
LINE
8
BLACK
6
CONTINUOUS
10
5.49777
20
-2.87169
11
5.49676
21
-2.87344
0
LINE
8
BLACK
6
CONTINUOUS
10
5.49676
20
-2.87344
11
5.49486
21
-2.87413
0
LINE
8
BLACK
6
CONTINUOUS
10
5.49486
20
-2.87413
11
5.45781
21
-2.87413
0
LINE
8
BLACK
6
CONTINUOUS
10
5.45781
20
-2.87413
11
5.45781
21
-2.92823
0
LINE
8
BLACK
6
CONTINUOUS
10
5.45781
20
-2.92823
11
5.49486
21
-2.92823
0
LINE
8
BLACK
6
CONTINUOUS
10
5.49486
20
-2.92823
11
5.49587
21
-2.92841
0
LINE
8
BLACK
6
CONTINUOUS
10
5.49587
20
-2.92841
11
5.49742
21
-2.9297
0
LINE
8
BLACK
6
CONTINUOUS
10
5.49742
20
-2.9297
11
5.49777
21
-2.93169
0
LINE
8
BLACK
6
CONTINUOUS
10
5.49777
20
-2.93169
11
5.49676
21
-2.93344
0
LINE
8
BLACK
6
CONTINUOUS
10
5.49676
20
-2.93344
11
5.49486
21
-2.93413
0
LINE
8
BLACK
6
CONTINUOUS
10
5.49486
20
-2.93413
11
5.45486
21
-2.93413
0
LINE
8
BLACK
6
CONTINUOUS
10
5.45486
20
-2.93413
11
5.45448
21
-2.93407
0
LINE
8
BLACK
6
CONTINUOUS
10
5.45448
20
-2.93407
11
5.45435
21
-2.93409
0
LINE
8
BLACK
6
CONTINUOUS
10
5.45435
20
-2.93409
11
5.45424
21
-2.93402
0
LINE
8
BLACK
6
CONTINUOUS
10
5.45424
20
-2.93402
11
5.45385
21
-2.93396
0
LINE
8
BLACK
6
CONTINUOUS
10
5.45385
20
-2.93396
11
5.45326
21
-2.93346
0
LINE
8
BLACK
6
CONTINUOUS
10
5.45326
20
-2.93346
11
5.4526
21
-2.93308
0
LINE
8
BLACK
6
CONTINUOUS
10
5.4526
20
-2.93308
11
5.45251
21
-2.93283
0
LINE
8
BLACK
6
CONTINUOUS
10
5.45251
20
-2.93283
11
5.45231
21
-2.93266
0
LINE
8
BLACK
6
CONTINUOUS
10
5.45231
20
-2.93266
11
5.45217
21
-2.9319
0
LINE
8
BLACK
6
CONTINUOUS
10
5.45217
20
-2.9319
11
5.45191
21
-2.93118
0
LINE
8
BLACK
6
CONTINUOUS
10
5.45191
20
-2.93118
11
5.45191
21
-2.87118
0
LINE
8
BLACK
6
CONTINUOUS
10
5.45191
20
-2.87118
11
5.45198
21
-2.8708
0
LINE
8
BLACK
6
CONTINUOUS
10
5.45198
20
-2.8708
11
5.45195
21
-2.87067
0
LINE
8
BLACK
6
CONTINUOUS
10
5.45195
20
-2.87067
11
5.45202
21
-2.87055
0
LINE
8
BLACK
6
CONTINUOUS
10
5.45202
20
-2.87055
11
5.45209
21
-2.87017
0
LINE
8
BLACK
6
CONTINUOUS
10
5.45209
20
-2.87017
11
5.45258
21
-2.86958
0
LINE
8
BLACK
6
CONTINUOUS
10
5.45258
20
-2.86958
11
5.45296
21
-2.86892
0
LINE
8
BLACK
6
CONTINUOUS
10
5.45296
20
-2.86892
11
5.45321
21
-2.86883
0
LINE
8
BLACK
6
CONTINUOUS
10
5.45321
20
-2.86883
11
5.45339
21
-2.86862
0
LINE
8
BLACK
6
CONTINUOUS
10
5.45339
20
-2.86862
11
5.45414
21
-2.86849
0
LINE
8
BLACK
6
CONTINUOUS
10
5.45414
20
-2.86849
11
5.45486
21
-2.86823
0
LINE
8
BLACK
6
CONTINUOUS
10
5.45486
20
-2.86823
11
5.49486
21
-2.86823
0
LINE
8
BLACK
6
CONTINUOUS
10
5.49486
20
-2.86823
11
5.49587
21
-2.86841
0
LINE
8
BLACK
6
CONTINUOUS
10
5.57525
20
-2.7683
11
5.57537
21
-2.76827
0
LINE
8
BLACK
6
CONTINUOUS
10
5.57537
20
-2.76827
11
5.57549
21
-2.76834
0
LINE
8
BLACK
6
CONTINUOUS
10
5.57549
20
-2.76834
11
5.57587
21
-2.76841
0
LINE
8
BLACK
6
CONTINUOUS
10
5.57587
20
-2.76841
11
5.57646
21
-2.7689
0
LINE
8
BLACK
6
CONTINUOUS
10
5.57646
20
-2.7689
11
5.57712
21
-2.76928
0
LINE
8
BLACK
6
CONTINUOUS
10
5.57712
20
-2.76928
11
5.57722
21
-2.76953
0
LINE
8
BLACK
6
CONTINUOUS
10
5.57722
20
-2.76953
11
5.57742
21
-2.7697
0
LINE
8
BLACK
6
CONTINUOUS
10
5.57742
20
-2.7697
11
5.57755
21
-2.77046
0
LINE
8
BLACK
6
CONTINUOUS
10
5.57755
20
-2.77046
11
5.57781
21
-2.77118
0
LINE
8
BLACK
6
CONTINUOUS
10
5.57781
20
-2.77118
11
5.57781
21
-2.82356
0
LINE
8
BLACK
6
CONTINUOUS
10
5.57781
20
-2.82356
11
5.5781
21
-2.82343
0
LINE
8
BLACK
6
CONTINUOUS
10
5.5781
20
-2.82343
11
5.58164
21
-2.82343
0
LINE
8
BLACK
6
CONTINUOUS
10
5.58164
20
-2.82343
11
5.58482
21
-2.82497
0
LINE
8
BLACK
6
CONTINUOUS
10
5.58482
20
-2.82497
11
5.58703
21
-2.82773
0
LINE
8
BLACK
6
CONTINUOUS
10
5.58703
20
-2.82773
11
5.58781
21
-2.83118
0
LINE
8
BLACK
6
CONTINUOUS
10
5.58781
20
-2.83118
11
5.58781
21
-2.83121
0
LINE
8
BLACK
6
CONTINUOUS
10
5.58781
20
-2.83121
11
5.58702
21
-2.83465
0
LINE
8
BLACK
6
CONTINUOUS
10
5.58702
20
-2.83465
11
5.5848
21
-2.83741
0
LINE
8
BLACK
6
CONTINUOUS
10
5.5848
20
-2.83741
11
5.58161
21
-2.83894
0
LINE
8
BLACK
6
CONTINUOUS
10
5.58161
20
-2.83894
11
5.57807
21
-2.83893
0
LINE
8
BLACK
6
CONTINUOUS
10
5.57807
20
-2.83893
11
5.57489
21
-2.83739
0
LINE
8
BLACK
6
CONTINUOUS
10
5.57489
20
-2.83739
11
5.57269
21
-2.83462
0
LINE
8
BLACK
6
CONTINUOUS
10
5.57269
20
-2.83462
11
5.57258
21
-2.83413
0
LINE
8
BLACK
6
CONTINUOUS
10
5.57258
20
-2.83413
11
5.53486
21
-2.83413
0
LINE
8
BLACK
6
CONTINUOUS
10
5.53486
20
-2.83413
11
5.53385
21
-2.83396
0
LINE
8
BLACK
6
CONTINUOUS
10
5.53385
20
-2.83396
11
5.53231
21
-2.83266
0
LINE
8
BLACK
6
CONTINUOUS
10
5.53231
20
-2.83266
11
5.53195
21
-2.83067
0
LINE
8
BLACK
6
CONTINUOUS
10
5.53195
20
-2.83067
11
5.53296
21
-2.82892
0
LINE
8
BLACK
6
CONTINUOUS
10
5.53296
20
-2.82892
11
5.53486
21
-2.82823
0
LINE
8
BLACK
6
CONTINUOUS
10
5.53486
20
-2.82823
11
5.57191
21
-2.82823
0
LINE
8
BLACK
6
CONTINUOUS
10
5.57191
20
-2.82823
11
5.57191
21
-2.77413
0
LINE
8
BLACK
6
CONTINUOUS
10
5.57191
20
-2.77413
11
5.53486
21
-2.77413
0
LINE
8
BLACK
6
CONTINUOUS
10
5.53486
20
-2.77413
11
5.53385
21
-2.77396
0
LINE
8
BLACK
6
CONTINUOUS
10
5.53385
20
-2.77396
11
5.53231
21
-2.77266
0
LINE
8
BLACK
6
CONTINUOUS
10
5.53231
20
-2.77266
11
5.53195
21
-2.77067
0
LINE
8
BLACK
6
CONTINUOUS
10
5.53195
20
-2.77067
11
5.53296
21
-2.76892
0
LINE
8
BLACK
6
CONTINUOUS
10
5.53296
20
-2.76892
11
5.53486
21
-2.76823
0
LINE
8
BLACK
6
CONTINUOUS
10
5.53486
20
-2.76823
11
5.57486
21
-2.76823
0
LINE
8
BLACK
6
CONTINUOUS
10
5.57486
20
-2.76823
11
5.57525
21
-2.7683
0
LINE
8
BLACK
6
CONTINUOUS
10
5.5783
20
-2.82961
11
5.57781
21
-2.83077
0
LINE
8
BLACK
6
CONTINUOUS
10
5.57781
20
-2.83077
11
5.57781
21
-2.83118
0
LINE
8
BLACK
6
CONTINUOUS
10
5.57781
20
-2.83118
11
5.57776
21
-2.83147
0
LINE
8
BLACK
6
CONTINUOUS
10
5.57776
20
-2.83147
11
5.5783
21
-2.83275
0
LINE
8
BLACK
6
CONTINUOUS
10
5.5783
20
-2.83275
11
5.57986
21
-2.8334
0
LINE
8
BLACK
6
CONTINUOUS
10
5.57986
20
-2.8334
11
5.58143
21
-2.83275
0
LINE
8
BLACK
6
CONTINUOUS
10
5.58143
20
-2.83275
11
5.58208
21
-2.83118
0
LINE
8
BLACK
6
CONTINUOUS
10
5.58208
20
-2.83118
11
5.58143
21
-2.82961
0
LINE
8
BLACK
6
CONTINUOUS
10
5.58143
20
-2.82961
11
5.57986
21
-2.82897
0
LINE
8
BLACK
6
CONTINUOUS
10
5.57986
20
-2.82897
11
5.5783
21
-2.82961
0
LINE
8
BLACK
6
CONTINUOUS
10
5.49587
20
-2.76841
11
5.49742
21
-2.7697
0
LINE
8
BLACK
6
CONTINUOUS
10
5.49742
20
-2.7697
11
5.49777
21
-2.77169
0
LINE
8
BLACK
6
CONTINUOUS
10
5.49777
20
-2.77169
11
5.49676
21
-2.77344
0
LINE
8
BLACK
6
CONTINUOUS
10
5.49676
20
-2.77344
11
5.49486
21
-2.77413
0
LINE
8
BLACK
6
CONTINUOUS
10
5.49486
20
-2.77413
11
5.45781
21
-2.77413
0
LINE
8
BLACK
6
CONTINUOUS
10
5.45781
20
-2.77413
11
5.45781
21
-2.82823
0
LINE
8
BLACK
6
CONTINUOUS
10
5.45781
20
-2.82823
11
5.49486
21
-2.82823
0
LINE
8
BLACK
6
CONTINUOUS
10
5.49486
20
-2.82823
11
5.49587
21
-2.82841
0
LINE
8
BLACK
6
CONTINUOUS
10
5.49587
20
-2.82841
11
5.49742
21
-2.8297
0
LINE
8
BLACK
6
CONTINUOUS
10
5.49742
20
-2.8297
11
5.49777
21
-2.83169
0
LINE
8
BLACK
6
CONTINUOUS
10
5.49777
20
-2.83169
11
5.49676
21
-2.83344
0
LINE
8
BLACK
6
CONTINUOUS
10
5.49676
20
-2.83344
11
5.49486
21
-2.83413
0
LINE
8
BLACK
6
CONTINUOUS
10
5.49486
20
-2.83413
11
5.45486
21
-2.83413
0
LINE
8
BLACK
6
CONTINUOUS
10
5.45486
20
-2.83413
11
5.45448
21
-2.83407
0
LINE
8
BLACK
6
CONTINUOUS
10
5.45448
20
-2.83407
11
5.45435
21
-2.83409
0
LINE
8
BLACK
6
CONTINUOUS
10
5.45435
20
-2.83409
11
5.45424
21
-2.83402
0
LINE
8
BLACK
6
CONTINUOUS
10
5.45424
20
-2.83402
11
5.45385
21
-2.83396
0
LINE
8
BLACK
6
CONTINUOUS
10
5.45385
20
-2.83396
11
5.45326
21
-2.83346
0
LINE
8
BLACK
6
CONTINUOUS
10
5.45326
20
-2.83346
11
5.4526
21
-2.83308
0
LINE
8
BLACK
6
CONTINUOUS
10
5.4526
20
-2.83308
11
5.45251
21
-2.83283
0
LINE
8
BLACK
6
CONTINUOUS
10
5.45251
20
-2.83283
11
5.45231
21
-2.83266
0
LINE
8
BLACK
6
CONTINUOUS
10
5.45231
20
-2.83266
11
5.45217
21
-2.8319
0
LINE
8
BLACK
6
CONTINUOUS
10
5.45217
20
-2.8319
11
5.45191
21
-2.83118
0
LINE
8
BLACK
6
CONTINUOUS
10
5.45191
20
-2.83118
11
5.45191
21
-2.77118
0
LINE
8
BLACK
6
CONTINUOUS
10
5.45191
20
-2.77118
11
5.45198
21
-2.7708
0
LINE
8
BLACK
6
CONTINUOUS
10
5.45198
20
-2.7708
11
5.45195
21
-2.77067
0
LINE
8
BLACK
6
CONTINUOUS
10
5.45195
20
-2.77067
11
5.45202
21
-2.77055
0
LINE
8
BLACK
6
CONTINUOUS
10
5.45202
20
-2.77055
11
5.45209
21
-2.77017
0
LINE
8
BLACK
6
CONTINUOUS
10
5.45209
20
-2.77017
11
5.45258
21
-2.76958
0
LINE
8
BLACK
6
CONTINUOUS
10
5.45258
20
-2.76958
11
5.45296
21
-2.76892
0
LINE
8
BLACK
6
CONTINUOUS
10
5.45296
20
-2.76892
11
5.45321
21
-2.76883
0
LINE
8
BLACK
6
CONTINUOUS
10
5.45321
20
-2.76883
11
5.45339
21
-2.76862
0
LINE
8
BLACK
6
CONTINUOUS
10
5.45339
20
-2.76862
11
5.45414
21
-2.76849
0
LINE
8
BLACK
6
CONTINUOUS
10
5.45414
20
-2.76849
11
5.45486
21
-2.76823
0
LINE
8
BLACK
6
CONTINUOUS
10
5.45486
20
-2.76823
11
5.49486
21
-2.76823
0
LINE
8
BLACK
6
CONTINUOUS
10
5.49486
20
-2.76823
11
5.49587
21
-2.76841
0
LINE
8
BLACK
6
CONTINUOUS
10
5.2802
20
-2.81522
11
5.28241
21
-2.81246
0
LINE
8
BLACK
6
CONTINUOUS
10
5.28241
20
-2.81246
11
5.2856
21
-2.81093
0
LINE
8
BLACK
6
CONTINUOUS
10
5.2856
20
-2.81093
11
5.28914
21
-2.81093
0
LINE
8
BLACK
6
CONTINUOUS
10
5.28914
20
-2.81093
11
5.29232
21
-2.81247
0
LINE
8
BLACK
6
CONTINUOUS
10
5.29232
20
-2.81247
11
5.29453
21
-2.81523
0
LINE
8
BLACK
6
CONTINUOUS
10
5.29453
20
-2.81523
11
5.29531
21
-2.81868
0
LINE
8
BLACK
6
CONTINUOUS
10
5.29531
20
-2.81868
11
5.29531
21
-2.81871
0
LINE
8
BLACK
6
CONTINUOUS
10
5.29531
20
-2.81871
11
5.29452
21
-2.82215
0
LINE
8
BLACK
6
CONTINUOUS
10
5.29452
20
-2.82215
11
5.2923
21
-2.82491
0
LINE
8
BLACK
6
CONTINUOUS
10
5.2923
20
-2.82491
11
5.29031
21
-2.82586
0
LINE
8
BLACK
6
CONTINUOUS
10
5.29031
20
-2.82586
11
5.29031
21
-2.86368
0
LINE
8
BLACK
6
CONTINUOUS
10
5.29031
20
-2.86368
11
5.29014
21
-2.86469
0
LINE
8
BLACK
6
CONTINUOUS
10
5.29014
20
-2.86469
11
5.28884
21
-2.86624
0
LINE
8
BLACK
6
CONTINUOUS
10
5.28884
20
-2.86624
11
5.28685
21
-2.86659
0
LINE
8
BLACK
6
CONTINUOUS
10
5.28685
20
-2.86659
11
5.2851
21
-2.86558
0
LINE
8
BLACK
6
CONTINUOUS
10
5.2851
20
-2.86558
11
5.28441
21
-2.86368
0
LINE
8
BLACK
6
CONTINUOUS
10
5.28441
20
-2.86368
11
5.28441
21
-2.82663
0
LINE
8
BLACK
6
CONTINUOUS
10
5.28441
20
-2.82663
11
5.23031
21
-2.82663
0
LINE
8
BLACK
6
CONTINUOUS
10
5.23031
20
-2.82663
11
5.23031
21
-2.86368
0
LINE
8
BLACK
6
CONTINUOUS
10
5.23031
20
-2.86368
11
5.23014
21
-2.86469
0
LINE
8
BLACK
6
CONTINUOUS
10
5.23014
20
-2.86469
11
5.22884
21
-2.86624
0
LINE
8
BLACK
6
CONTINUOUS
10
5.22884
20
-2.86624
11
5.22685
21
-2.86659
0
LINE
8
BLACK
6
CONTINUOUS
10
5.22685
20
-2.86659
11
5.2251
21
-2.86558
0
LINE
8
BLACK
6
CONTINUOUS
10
5.2251
20
-2.86558
11
5.22441
21
-2.86368
0
LINE
8
BLACK
6
CONTINUOUS
10
5.22441
20
-2.86368
11
5.22441
21
-2.82368
0
LINE
8
BLACK
6
CONTINUOUS
10
5.22441
20
-2.82368
11
5.22448
21
-2.8233
0
LINE
8
BLACK
6
CONTINUOUS
10
5.22448
20
-2.8233
11
5.22445
21
-2.82317
0
LINE
8
BLACK
6
CONTINUOUS
10
5.22445
20
-2.82317
11
5.22452
21
-2.82305
0
LINE
8
BLACK
6
CONTINUOUS
10
5.22452
20
-2.82305
11
5.22459
21
-2.82267
0
LINE
8
BLACK
6
CONTINUOUS
10
5.22459
20
-2.82267
11
5.22508
21
-2.82208
0
LINE
8
BLACK
6
CONTINUOUS
10
5.22508
20
-2.82208
11
5.22546
21
-2.82142
0
LINE
8
BLACK
6
CONTINUOUS
10
5.22546
20
-2.82142
11
5.22571
21
-2.82133
0
LINE
8
BLACK
6
CONTINUOUS
10
5.22571
20
-2.82133
11
5.22589
21
-2.82112
0
LINE
8
BLACK
6
CONTINUOUS
10
5.22589
20
-2.82112
11
5.22664
21
-2.82099
0
LINE
8
BLACK
6
CONTINUOUS
10
5.22664
20
-2.82099
11
5.22736
21
-2.82073
0
LINE
8
BLACK
6
CONTINUOUS
10
5.22736
20
-2.82073
11
5.27988
21
-2.82073
0
LINE
8
BLACK
6
CONTINUOUS
10
5.27988
20
-2.82073
11
5.27941
21
-2.81868
0
LINE
8
BLACK
6
CONTINUOUS
10
5.27941
20
-2.81868
11
5.27941
21
-2.81867
0
LINE
8
BLACK
6
CONTINUOUS
10
5.27941
20
-2.81867
11
5.2802
21
-2.81522
0
LINE
8
BLACK
6
CONTINUOUS
10
5.28695
20
-2.82073
11
5.28736
21
-2.82073
0
LINE
8
BLACK
6
CONTINUOUS
10
5.28736
20
-2.82073
11
5.28765
21
-2.82078
0
LINE
8
BLACK
6
CONTINUOUS
10
5.28765
20
-2.82078
11
5.28893
21
-2.82025
0
LINE
8
BLACK
6
CONTINUOUS
10
5.28893
20
-2.82025
11
5.28958
21
-2.81868
0
LINE
8
BLACK
6
CONTINUOUS
10
5.28958
20
-2.81868
11
5.28893
21
-2.81711
0
LINE
8
BLACK
6
CONTINUOUS
10
5.28893
20
-2.81711
11
5.28736
21
-2.81647
0
LINE
8
BLACK
6
CONTINUOUS
10
5.28736
20
-2.81647
11
5.2858
21
-2.81711
0
LINE
8
BLACK
6
CONTINUOUS
10
5.2858
20
-2.81711
11
5.28515
21
-2.81868
0
LINE
8
BLACK
6
CONTINUOUS
10
5.28515
20
-2.81868
11
5.2858
21
-2.82025
0
LINE
8
BLACK
6
CONTINUOUS
10
5.2858
20
-2.82025
11
5.28695
21
-2.82073
0
LINE
8
BLACK
6
CONTINUOUS
10
5.8802
20
-2.81522
11
5.88241
21
-2.81246
0
LINE
8
BLACK
6
CONTINUOUS
10
5.88241
20
-2.81246
11
5.8856
21
-2.81093
0
LINE
8
BLACK
6
CONTINUOUS
10
5.8856
20
-2.81093
11
5.88914
21
-2.81093
0
LINE
8
BLACK
6
CONTINUOUS
10
5.88914
20
-2.81093
11
5.89232
21
-2.81247
0
LINE
8
BLACK
6
CONTINUOUS
10
5.89232
20
-2.81247
11
5.89453
21
-2.81523
0
LINE
8
BLACK
6
CONTINUOUS
10
5.89453
20
-2.81523
11
5.89531
21
-2.81868
0
LINE
8
BLACK
6
CONTINUOUS
10
5.89531
20
-2.81868
11
5.89531
21
-2.81871
0
LINE
8
BLACK
6
CONTINUOUS
10
5.89531
20
-2.81871
11
5.89452
21
-2.82215
0
LINE
8
BLACK
6
CONTINUOUS
10
5.89452
20
-2.82215
11
5.8923
21
-2.82491
0
LINE
8
BLACK
6
CONTINUOUS
10
5.8923
20
-2.82491
11
5.89031
21
-2.82586
0
LINE
8
BLACK
6
CONTINUOUS
10
5.89031
20
-2.82586
11
5.89031
21
-2.86368
0
LINE
8
BLACK
6
CONTINUOUS
10
5.89031
20
-2.86368
11
5.89014
21
-2.86469
0
LINE
8
BLACK
6
CONTINUOUS
10
5.89014
20
-2.86469
11
5.88884
21
-2.86624
0
LINE
8
BLACK
6
CONTINUOUS
10
5.88884
20
-2.86624
11
5.88685
21
-2.86659
0
LINE
8
BLACK
6
CONTINUOUS
10
5.88685
20
-2.86659
11
5.8851
21
-2.86558
0
LINE
8
BLACK
6
CONTINUOUS
10
5.8851
20
-2.86558
11
5.88441
21
-2.86368
0
LINE
8
BLACK
6
CONTINUOUS
10
5.88441
20
-2.86368
11
5.88441
21
-2.82663
0
LINE
8
BLACK
6
CONTINUOUS
10
5.88441
20
-2.82663
11
5.83031
21
-2.82663
0
LINE
8
BLACK
6
CONTINUOUS
10
5.83031
20
-2.82663
11
5.83031
21
-2.86368
0
LINE
8
BLACK
6
CONTINUOUS
10
5.83031
20
-2.86368
11
5.83014
21
-2.86469
0
LINE
8
BLACK
6
CONTINUOUS
10
5.83014
20
-2.86469
11
5.82884
21
-2.86624
0
LINE
8
BLACK
6
CONTINUOUS
10
5.82884
20
-2.86624
11
5.82685
21
-2.86659
0
LINE
8
BLACK
6
CONTINUOUS
10
5.82685
20
-2.86659
11
5.8251
21
-2.86558
0
LINE
8
BLACK
6
CONTINUOUS
10
5.8251
20
-2.86558
11
5.82441
21
-2.86368
0
LINE
8
BLACK
6
CONTINUOUS
10
5.82441
20
-2.86368
11
5.82441
21
-2.82368
0
LINE
8
BLACK
6
CONTINUOUS
10
5.82441
20
-2.82368
11
5.82448
21
-2.8233
0
LINE
8
BLACK
6
CONTINUOUS
10
5.82448
20
-2.8233
11
5.82445
21
-2.82317
0
LINE
8
BLACK
6
CONTINUOUS
10
5.82445
20
-2.82317
11
5.82452
21
-2.82305
0
LINE
8
BLACK
6
CONTINUOUS
10
5.82452
20
-2.82305
11
5.82459
21
-2.82267
0
LINE
8
BLACK
6
CONTINUOUS
10
5.82459
20
-2.82267
11
5.82508
21
-2.82208
0
LINE
8
BLACK
6
CONTINUOUS
10
5.82508
20
-2.82208
11
5.82546
21
-2.82142
0
LINE
8
BLACK
6
CONTINUOUS
10
5.82546
20
-2.82142
11
5.82571
21
-2.82133
0
LINE
8
BLACK
6
CONTINUOUS
10
5.82571
20
-2.82133
11
5.82589
21
-2.82112
0
LINE
8
BLACK
6
CONTINUOUS
10
5.82589
20
-2.82112
11
5.82664
21
-2.82099
0
LINE
8
BLACK
6
CONTINUOUS
10
5.82664
20
-2.82099
11
5.82736
21
-2.82073
0
LINE
8
BLACK
6
CONTINUOUS
10
5.82736
20
-2.82073
11
5.87988
21
-2.82073
0
LINE
8
BLACK
6
CONTINUOUS
10
5.87988
20
-2.82073
11
5.87941
21
-2.81868
0
LINE
8
BLACK
6
CONTINUOUS
10
5.87941
20
-2.81868
11
5.87941
21
-2.81867
0
LINE
8
BLACK
6
CONTINUOUS
10
5.87941
20
-2.81867
11
5.8802
21
-2.81522
0
LINE
8
BLACK
6
CONTINUOUS
10
5.88695
20
-2.82073
11
5.88736
21
-2.82073
0
LINE
8
BLACK
6
CONTINUOUS
10
5.88736
20
-2.82073
11
5.88765
21
-2.82078
0
LINE
8
BLACK
6
CONTINUOUS
10
5.88765
20
-2.82078
11
5.88893
21
-2.82025
0
LINE
8
BLACK
6
CONTINUOUS
10
5.88893
20
-2.82025
11
5.88958
21
-2.81868
0
LINE
8
BLACK
6
CONTINUOUS
10
5.88958
20
-2.81868
11
5.88893
21
-2.81711
0
LINE
8
BLACK
6
CONTINUOUS
10
5.88893
20
-2.81711
11
5.88736
21
-2.81647
0
LINE
8
BLACK
6
CONTINUOUS
10
5.88736
20
-2.81647
11
5.8858
21
-2.81711
0
LINE
8
BLACK
6
CONTINUOUS
10
5.8858
20
-2.81711
11
5.88515
21
-2.81868
0
LINE
8
BLACK
6
CONTINUOUS
10
5.88515
20
-2.81868
11
5.8858
21
-2.82025
0
LINE
8
BLACK
6
CONTINUOUS
10
5.8858
20
-2.82025
11
5.88695
21
-2.82073
0
LINE
8
BLACK
6
CONTINUOUS
10
5.3802
20
-2.81522
11
5.38241
21
-2.81246
0
LINE
8
BLACK
6
CONTINUOUS
10
5.38241
20
-2.81246
11
5.3856
21
-2.81093
0
LINE
8
BLACK
6
CONTINUOUS
10
5.3856
20
-2.81093
11
5.38914
21
-2.81093
0
LINE
8
BLACK
6
CONTINUOUS
10
5.38914
20
-2.81093
11
5.39232
21
-2.81247
0
LINE
8
BLACK
6
CONTINUOUS
10
5.39232
20
-2.81247
11
5.39453
21
-2.81523
0
LINE
8
BLACK
6
CONTINUOUS
10
5.39453
20
-2.81523
11
5.39531
21
-2.81868
0
LINE
8
BLACK
6
CONTINUOUS
10
5.39531
20
-2.81868
11
5.39531
21
-2.81871
0
LINE
8
BLACK
6
CONTINUOUS
10
5.39531
20
-2.81871
11
5.39452
21
-2.82215
0
LINE
8
BLACK
6
CONTINUOUS
10
5.39452
20
-2.82215
11
5.3923
21
-2.82491
0
LINE
8
BLACK
6
CONTINUOUS
10
5.3923
20
-2.82491
11
5.39031
21
-2.82586
0
LINE
8
BLACK
6
CONTINUOUS
10
5.39031
20
-2.82586
11
5.39031
21
-2.86368
0
LINE
8
BLACK
6
CONTINUOUS
10
5.39031
20
-2.86368
11
5.39014
21
-2.86469
0
LINE
8
BLACK
6
CONTINUOUS
10
5.39014
20
-2.86469
11
5.38884
21
-2.86624
0
LINE
8
BLACK
6
CONTINUOUS
10
5.38884
20
-2.86624
11
5.38685
21
-2.86659
0
LINE
8
BLACK
6
CONTINUOUS
10
5.38685
20
-2.86659
11
5.3851
21
-2.86558
0
LINE
8
BLACK
6
CONTINUOUS
10
5.3851
20
-2.86558
11
5.38441
21
-2.86368
0
LINE
8
BLACK
6
CONTINUOUS
10
5.38441
20
-2.86368
11
5.38441
21
-2.82663
0
LINE
8
BLACK
6
CONTINUOUS
10
5.38441
20
-2.82663
11
5.33031
21
-2.82663
0
LINE
8
BLACK
6
CONTINUOUS
10
5.33031
20
-2.82663
11
5.33031
21
-2.86368
0
LINE
8
BLACK
6
CONTINUOUS
10
5.33031
20
-2.86368
11
5.33014
21
-2.86469
0
LINE
8
BLACK
6
CONTINUOUS
10
5.33014
20
-2.86469
11
5.32884
21
-2.86624
0
LINE
8
BLACK
6
CONTINUOUS
10
5.32884
20
-2.86624
11
5.32685
21
-2.86659
0
LINE
8
BLACK
6
CONTINUOUS
10
5.32685
20
-2.86659
11
5.3251
21
-2.86558
0
LINE
8
BLACK
6
CONTINUOUS
10
5.3251
20
-2.86558
11
5.32441
21
-2.86368
0
LINE
8
BLACK
6
CONTINUOUS
10
5.32441
20
-2.86368
11
5.32441
21
-2.82368
0
LINE
8
BLACK
6
CONTINUOUS
10
5.32441
20
-2.82368
11
5.32448
21
-2.8233
0
LINE
8
BLACK
6
CONTINUOUS
10
5.32448
20
-2.8233
11
5.32445
21
-2.82317
0
LINE
8
BLACK
6
CONTINUOUS
10
5.32445
20
-2.82317
11
5.32452
21
-2.82305
0
LINE
8
BLACK
6
CONTINUOUS
10
5.32452
20
-2.82305
11
5.32459
21
-2.82267
0
LINE
8
BLACK
6
CONTINUOUS
10
5.32459
20
-2.82267
11
5.32508
21
-2.82208
0
LINE
8
BLACK
6
CONTINUOUS
10
5.32508
20
-2.82208
11
5.32546
21
-2.82142
0
LINE
8
BLACK
6
CONTINUOUS
10
5.32546
20
-2.82142
11
5.32571
21
-2.82133
0
LINE
8
BLACK
6
CONTINUOUS
10
5.32571
20
-2.82133
11
5.32589
21
-2.82112
0
LINE
8
BLACK
6
CONTINUOUS
10
5.32589
20
-2.82112
11
5.32664
21
-2.82099
0
LINE
8
BLACK
6
CONTINUOUS
10
5.32664
20
-2.82099
11
5.32736
21
-2.82073
0
LINE
8
BLACK
6
CONTINUOUS
10
5.32736
20
-2.82073
11
5.37988
21
-2.82073
0
LINE
8
BLACK
6
CONTINUOUS
10
5.37988
20
-2.82073
11
5.37941
21
-2.81868
0
LINE
8
BLACK
6
CONTINUOUS
10
5.37941
20
-2.81868
11
5.37941
21
-2.81867
0
LINE
8
BLACK
6
CONTINUOUS
10
5.37941
20
-2.81867
11
5.3802
21
-2.81522
0
LINE
8
BLACK
6
CONTINUOUS
10
5.38695
20
-2.82073
11
5.38736
21
-2.82073
0
LINE
8
BLACK
6
CONTINUOUS
10
5.38736
20
-2.82073
11
5.38765
21
-2.82078
0
LINE
8
BLACK
6
CONTINUOUS
10
5.38765
20
-2.82078
11
5.38893
21
-2.82025
0
LINE
8
BLACK
6
CONTINUOUS
10
5.38893
20
-2.82025
11
5.38958
21
-2.81868
0
LINE
8
BLACK
6
CONTINUOUS
10
5.38958
20
-2.81868
11
5.38893
21
-2.81711
0
LINE
8
BLACK
6
CONTINUOUS
10
5.38893
20
-2.81711
11
5.38736
21
-2.81647
0
LINE
8
BLACK
6
CONTINUOUS
10
5.38736
20
-2.81647
11
5.3858
21
-2.81711
0
LINE
8
BLACK
6
CONTINUOUS
10
5.3858
20
-2.81711
11
5.38515
21
-2.81868
0
LINE
8
BLACK
6
CONTINUOUS
10
5.38515
20
-2.81868
11
5.3858
21
-2.82025
0
LINE
8
BLACK
6
CONTINUOUS
10
5.3858
20
-2.82025
11
5.38695
21
-2.82073
0
LINE
8
BLACK
6
CONTINUOUS
10
5.6802
20
-2.81522
11
5.68241
21
-2.81246
0
LINE
8
BLACK
6
CONTINUOUS
10
5.68241
20
-2.81246
11
5.6856
21
-2.81093
0
LINE
8
BLACK
6
CONTINUOUS
10
5.6856
20
-2.81093
11
5.68914
21
-2.81093
0
LINE
8
BLACK
6
CONTINUOUS
10
5.68914
20
-2.81093
11
5.69232
21
-2.81247
0
LINE
8
BLACK
6
CONTINUOUS
10
5.69232
20
-2.81247
11
5.69453
21
-2.81523
0
LINE
8
BLACK
6
CONTINUOUS
10
5.69453
20
-2.81523
11
5.69531
21
-2.81868
0
LINE
8
BLACK
6
CONTINUOUS
10
5.69531
20
-2.81868
11
5.69531
21
-2.81871
0
LINE
8
BLACK
6
CONTINUOUS
10
5.69531
20
-2.81871
11
5.69452
21
-2.82215
0
LINE
8
BLACK
6
CONTINUOUS
10
5.69452
20
-2.82215
11
5.6923
21
-2.82491
0
LINE
8
BLACK
6
CONTINUOUS
10
5.6923
20
-2.82491
11
5.69031
21
-2.82586
0
LINE
8
BLACK
6
CONTINUOUS
10
5.69031
20
-2.82586
11
5.69031
21
-2.86368
0
LINE
8
BLACK
6
CONTINUOUS
10
5.69031
20
-2.86368
11
5.69014
21
-2.86469
0
LINE
8
BLACK
6
CONTINUOUS
10
5.69014
20
-2.86469
11
5.68884
21
-2.86624
0
LINE
8
BLACK
6
CONTINUOUS
10
5.68884
20
-2.86624
11
5.68685
21
-2.86659
0
LINE
8
BLACK
6
CONTINUOUS
10
5.68685
20
-2.86659
11
5.6851
21
-2.86558
0
LINE
8
BLACK
6
CONTINUOUS
10
5.6851
20
-2.86558
11
5.68441
21
-2.86368
0
LINE
8
BLACK
6
CONTINUOUS
10
5.68441
20
-2.86368
11
5.68441
21
-2.82663
0
LINE
8
BLACK
6
CONTINUOUS
10
5.68441
20
-2.82663
11
5.63031
21
-2.82663
0
LINE
8
BLACK
6
CONTINUOUS
10
5.63031
20
-2.82663
11
5.63031
21
-2.86368
0
LINE
8
BLACK
6
CONTINUOUS
10
5.63031
20
-2.86368
11
5.63014
21
-2.86469
0
LINE
8
BLACK
6
CONTINUOUS
10
5.63014
20
-2.86469
11
5.62884
21
-2.86624
0
LINE
8
BLACK
6
CONTINUOUS
10
5.62884
20
-2.86624
11
5.62685
21
-2.86659
0
LINE
8
BLACK
6
CONTINUOUS
10
5.62685
20
-2.86659
11
5.6251
21
-2.86558
0
LINE
8
BLACK
6
CONTINUOUS
10
5.6251
20
-2.86558
11
5.62441
21
-2.86368
0
LINE
8
BLACK
6
CONTINUOUS
10
5.62441
20
-2.86368
11
5.62441
21
-2.82368
0
LINE
8
BLACK
6
CONTINUOUS
10
5.62441
20
-2.82368
11
5.62448
21
-2.8233
0
LINE
8
BLACK
6
CONTINUOUS
10
5.62448
20
-2.8233
11
5.62445
21
-2.82317
0
LINE
8
BLACK
6
CONTINUOUS
10
5.62445
20
-2.82317
11
5.62452
21
-2.82305
0
LINE
8
BLACK
6
CONTINUOUS
10
5.62452
20
-2.82305
11
5.62459
21
-2.82267
0
LINE
8
BLACK
6
CONTINUOUS
10
5.62459
20
-2.82267
11
5.62508
21
-2.82208
0
LINE
8
BLACK
6
CONTINUOUS
10
5.62508
20
-2.82208
11
5.62546
21
-2.82142
0
LINE
8
BLACK
6
CONTINUOUS
10
5.62546
20
-2.82142
11
5.62571
21
-2.82133
0
LINE
8
BLACK
6
CONTINUOUS
10
5.62571
20
-2.82133
11
5.62589
21
-2.82112
0
LINE
8
BLACK
6
CONTINUOUS
10
5.62589
20
-2.82112
11
5.62664
21
-2.82099
0
LINE
8
BLACK
6
CONTINUOUS
10
5.62664
20
-2.82099
11
5.62736
21
-2.82073
0
LINE
8
BLACK
6
CONTINUOUS
10
5.62736
20
-2.82073
11
5.67988
21
-2.82073
0
LINE
8
BLACK
6
CONTINUOUS
10
5.67988
20
-2.82073
11
5.67941
21
-2.81868
0
LINE
8
BLACK
6
CONTINUOUS
10
5.67941
20
-2.81868
11
5.67941
21
-2.81867
0
LINE
8
BLACK
6
CONTINUOUS
10
5.67941
20
-2.81867
11
5.6802
21
-2.81522
0
LINE
8
BLACK
6
CONTINUOUS
10
5.68696
20
-2.82073
11
5.68736
21
-2.82073
0
LINE
8
BLACK
6
CONTINUOUS
10
5.68736
20
-2.82073
11
5.68765
21
-2.82078
0
LINE
8
BLACK
6
CONTINUOUS
10
5.68765
20
-2.82078
11
5.68893
21
-2.82025
0
LINE
8
BLACK
6
CONTINUOUS
10
5.68893
20
-2.82025
11
5.68958
21
-2.81868
0
LINE
8
BLACK
6
CONTINUOUS
10
5.68958
20
-2.81868
11
5.68893
21
-2.81711
0
LINE
8
BLACK
6
CONTINUOUS
10
5.68893
20
-2.81711
11
5.68736
21
-2.81647
0
LINE
8
BLACK
6
CONTINUOUS
10
5.68736
20
-2.81647
11
5.6858
21
-2.81711
0
LINE
8
BLACK
6
CONTINUOUS
10
5.6858
20
-2.81711
11
5.68515
21
-2.81868
0
LINE
8
BLACK
6
CONTINUOUS
10
5.68515
20
-2.81868
11
5.6858
21
-2.82025
0
LINE
8
BLACK
6
CONTINUOUS
10
5.6858
20
-2.82025
11
5.68696
21
-2.82073
  0
ENDSEC
  0
EOF
