  0
SECTION
  2
HEADER
  9
$ANGBASE
  50
0.0
  9
$ANGDIR
  70
1
  9
$MEASUREMENT
  70
0
  0
ENDSEC
  0
SECTION
  2
TABLES
  0
TABLE
  2
LTYPE
  70
4
  0
LTYPE
  5
40F
  2
CONTINUOUS
  70
0
  3
Solid line
  72
65
  73
0
  40
0.0
  0
LTYPE
  5
410
  2
DASHDOT
 70
0
  3
Dash Dot ____ _ ____ _
 72
65
 73
4
 40
2.0
 49
1.25
 49
-0.25
 49
0.25
 49
-0.25
  0
LTYPE
  5
411
  2
DASHED
 70
0
  3
Dashed __ __ __ __ __
 72
65
 73
2
 40
0.75
 49
0.5
 49
-0.25
  0
LTYPE
  5
43B
  2
DOTTED
 70
0
  3
Dotted .  .  .  .
 72
65
 73
2
 40
0.2
 49
0.0
 49
-0.2
  0
ENDTAB
  0
TABLE
  2
STYLE
  70
4
  0
STYLE
  2
KICAD
  70
0
  40
0
  41
1
  42
1
  50
0
  71
0
  3
isocp.shx
  0
STYLE
  2
KICADB
  70
0
  40
0
  41
1
  42
1
  50
0
  71
0
  3
isocp.shx
  0
STYLE
  2
KICADI
  70
0
  40
0
  41
1
  42
1
  50
15
  71
0
  3
isocp.shx
  0
STYLE
  2
KICADBI
  70
0
  40
0
  41
1
  42
1
  50
15
  71
0
  3
isocp.shx
  0
ENDTAB
  0
TABLE
  2
LAYER
  70
1
  0
LAYER
  2
BLACK
  70
0
  62
7
  6
CONTINUOUS
  0
ENDTAB
  0
ENDSEC
  0
SECTION
  2
ENTITIES
0
LINE
8
BLACK
6
CONTINUOUS
10
1.49645
20
4.3345
11
1.49658
21
4.33452
0
LINE
8
BLACK
6
CONTINUOUS
10
1.49658
20
4.33452
11
1.49669
21
4.33446
0
LINE
8
BLACK
6
CONTINUOUS
10
1.49669
20
4.33446
11
1.49707
21
4.33439
0
LINE
8
BLACK
6
CONTINUOUS
10
1.49707
20
4.33439
11
1.49766
21
4.3339
0
LINE
8
BLACK
6
CONTINUOUS
10
1.49766
20
4.3339
11
1.49832
21
4.33351
0
LINE
8
BLACK
6
CONTINUOUS
10
1.49832
20
4.33351
11
1.49842
21
4.33326
0
LINE
8
BLACK
6
CONTINUOUS
10
1.49842
20
4.33326
11
1.49862
21
4.33309
0
LINE
8
BLACK
6
CONTINUOUS
10
1.49862
20
4.33309
11
1.49875
21
4.33233
0
LINE
8
BLACK
6
CONTINUOUS
10
1.49875
20
4.33233
11
1.49902
21
4.33161
0
LINE
8
BLACK
6
CONTINUOUS
10
1.49902
20
4.33161
11
1.49902
21
0.000905512
0
LINE
8
BLACK
6
CONTINUOUS
10
1.49902
20
0.000905512
11
1.49895
21
0.000521969
0
LINE
8
BLACK
6
CONTINUOUS
10
1.49895
20
0.000521969
11
1.49897
21
0.000392756
0
LINE
8
BLACK
6
CONTINUOUS
10
1.49897
20
0.000392756
11
1.49891
21
0.000279134
0
LINE
8
BLACK
6
CONTINUOUS
10
1.49891
20
0.000279134
11
1.49884
21
-0.000104409
0
LINE
8
BLACK
6
CONTINUOUS
10
1.49884
20
-0.000104409
11
1.49834
21
-0.000692087
0
LINE
8
BLACK
6
CONTINUOUS
10
1.49834
20
-0.000692087
11
1.49796
21
-0.00135642
0
LINE
8
BLACK
6
CONTINUOUS
10
1.49796
20
-0.00135642
11
1.49771
21
-0.00144752
0
LINE
8
BLACK
6
CONTINUOUS
10
1.49771
20
-0.00144752
11
1.49754
21
-0.00165165
0
LINE
8
BLACK
6
CONTINUOUS
10
1.49754
20
-0.00165165
11
1.49678
21
-0.00178488
0
LINE
8
BLACK
6
CONTINUOUS
10
1.49678
20
-0.00178488
11
1.49606
21
-0.00204724
0
LINE
8
BLACK
6
CONTINUOUS
10
1.49606
20
-0.00204724
11
0
21
-0.00204724
0
LINE
8
BLACK
6
CONTINUOUS
10
0
20
-0.00204724
11
-0.000383543
21
-0.00197961
0
LINE
8
BLACK
6
CONTINUOUS
10
-0.000383543
20
-0.00197961
11
-0.000512756
21
-0.0020024
0
LINE
8
BLACK
6
CONTINUOUS
10
-0.000512756
20
-0.0020024
11
-0.000626378
21
-0.00193681
0
LINE
8
BLACK
6
CONTINUOUS
10
-0.000626378
20
-0.00193681
11
-0.00100992
21
-0.00186917
0
LINE
8
BLACK
6
CONTINUOUS
10
-0.00100992
20
-0.00186917
11
-0.0015976
21
-0.00137602
0
LINE
8
BLACK
6
CONTINUOUS
10
-0.0015976
20
-0.00137602
11
-0.00226193
21
-0.00099248
0
LINE
8
BLACK
6
CONTINUOUS
10
-0.00226193
20
-0.00099248
11
-0.00235303
21
-0.000742126
0
LINE
8
BLACK
6
CONTINUOUS
10
-0.00235303
20
-0.000742126
11
-0.00255717
21
-0.000570866
0
LINE
8
BLACK
6
CONTINUOUS
10
-0.00255717
20
-0.000570866
11
-0.00269039
21
0.000184685
0
LINE
8
BLACK
6
CONTINUOUS
10
-0.00269039
20
0.000184685
11
-0.00295276
21
0.000905512
0
LINE
8
BLACK
6
CONTINUOUS
10
-0.00295276
20
0.000905512
11
-0.00295276
21
4.33161
0
LINE
8
BLACK
6
CONTINUOUS
10
-0.00295276
20
4.33161
11
-0.00288512
21
4.332
0
LINE
8
BLACK
6
CONTINUOUS
10
-0.00288512
20
4.332
11
-0.00290791
21
4.33213
0
LINE
8
BLACK
6
CONTINUOUS
10
-0.00290791
20
4.33213
11
-0.00284232
21
4.33224
0
LINE
8
BLACK
6
CONTINUOUS
10
-0.00284232
20
4.33224
11
-0.00277469
21
4.33262
0
LINE
8
BLACK
6
CONTINUOUS
10
-0.00277469
20
4.33262
11
-0.00228154
21
4.33321
0
LINE
8
BLACK
6
CONTINUOUS
10
-0.00228154
20
4.33321
11
-0.00189799
21
4.33388
0
LINE
8
BLACK
6
CONTINUOUS
10
-0.00189799
20
4.33388
11
-0.00164764
21
4.33397
0
LINE
8
BLACK
6
CONTINUOUS
10
-0.00164764
20
4.33397
11
-0.00147638
21
4.33417
0
LINE
8
BLACK
6
CONTINUOUS
10
-0.00147638
20
4.33417
11
-0.000720827
21
4.3343
0
LINE
8
BLACK
6
CONTINUOUS
10
-0.000720827
20
4.3343
11
0
21
4.33457
0
LINE
8
BLACK
6
CONTINUOUS
10
0
20
4.33457
11
1.49606
21
4.33457
0
LINE
8
BLACK
6
CONTINUOUS
10
1.49606
20
4.33457
11
1.49645
21
4.3345
0
LINE
8
BLACK
6
CONTINUOUS
10
0.00295276
20
4.32866
11
0.00295276
21
0.00385827
0
LINE
8
BLACK
6
CONTINUOUS
10
0.00295276
20
0.00385827
11
1.49311
21
0.00385827
0
LINE
8
BLACK
6
CONTINUOUS
10
1.49311
20
0.00385827
11
1.49311
21
4.32866
0
LINE
8
BLACK
6
CONTINUOUS
10
1.49311
20
4.32866
11
0.00295276
21
4.32866
  0
ENDSEC
  0
EOF
