  0
SECTION
  2
HEADER
  9
$ANGBASE
  50
0.0
  9
$ANGDIR
  70
1
  9
$MEASUREMENT
  70
0
  0
ENDSEC
  0
SECTION
  2
TABLES
  0
TABLE
  2
LTYPE
  70
4
  0
LTYPE
  5
40F
  2
CONTINUOUS
  70
0
  3
Solid line
  72
65
  73
0
  40
0.0
  0
LTYPE
  5
410
  2
DASHDOT
 70
0
  3
Dash Dot ____ _ ____ _
 72
65
 73
4
 40
2.0
 49
1.25
 49
-0.25
 49
0.25
 49
-0.25
  0
LTYPE
  5
411
  2
DASHED
 70
0
  3
Dashed __ __ __ __ __
 72
65
 73
2
 40
0.75
 49
0.5
 49
-0.25
  0
LTYPE
  5
43B
  2
DOTTED
 70
0
  3
Dotted .  .  .  .
 72
65
 73
2
 40
0.2
 49
0.0
 49
-0.2
  0
ENDTAB
  0
TABLE
  2
STYLE
  70
4
  0
STYLE
  2
KICAD
  70
0
  40
0
  41
1
  42
1
  50
0
  71
0
  3
isocp.shx
  0
STYLE
  2
KICADB
  70
0
  40
0
  41
1
  42
1
  50
0
  71
0
  3
isocp.shx
  0
STYLE
  2
KICADI
  70
0
  40
0
  41
1
  42
1
  50
15
  71
0
  3
isocp.shx
  0
STYLE
  2
KICADBI
  70
0
  40
0
  41
1
  42
1
  50
15
  71
0
  3
isocp.shx
  0
ENDTAB
  0
TABLE
  2
LAYER
  70
1
  0
LAYER
  2
BLACK
  70
0
  62
7
  6
CONTINUOUS
  0
ENDTAB
  0
ENDSEC
  0
SECTION
  2
ENTITIES
0
LINE
8
BLACK
6
CONTINUOUS
10
0.13532
20
2.12078
11
0.135031
21
2.12147
0
LINE
8
BLACK
6
CONTINUOUS
10
0.135031
20
2.12147
11
0.135031
21
2.59234
0
LINE
8
BLACK
6
CONTINUOUS
10
0.135031
20
2.59234
11
0.13532
21
2.59303
0
LINE
8
BLACK
6
CONTINUOUS
10
0.13532
20
2.59303
11
0.136016
21
2.59332
0
LINE
8
BLACK
6
CONTINUOUS
10
0.136016
20
2.59332
11
0.387984
21
2.59332
0
LINE
8
BLACK
6
CONTINUOUS
10
0.387984
20
2.59332
11
0.38868
21
2.59303
0
LINE
8
BLACK
6
CONTINUOUS
10
0.38868
20
2.59303
11
0.388969
21
2.59234
0
LINE
8
BLACK
6
CONTINUOUS
10
0.388969
20
2.59234
11
0.388969
21
2.12147
0
LINE
8
BLACK
6
CONTINUOUS
10
0.388969
20
2.12147
11
0.38868
21
2.12078
0
LINE
8
BLACK
6
CONTINUOUS
10
0.38868
20
2.12078
11
0.387984
21
2.12049
0
LINE
8
BLACK
6
CONTINUOUS
10
0.387984
20
2.12049
11
0.136016
21
2.12049
0
LINE
8
BLACK
6
CONTINUOUS
10
0.136016
20
2.12049
11
0.13532
21
2.12078
0
LINE
8
BLACK
6
CONTINUOUS
10
0.137
20
2.59135
11
0.137
21
2.12246
0
LINE
8
BLACK
6
CONTINUOUS
10
0.137
20
2.12246
11
0.387
21
2.12246
0
LINE
8
BLACK
6
CONTINUOUS
10
0.387
20
2.12246
11
0.387
21
2.59135
0
LINE
8
BLACK
6
CONTINUOUS
10
0.387
20
2.59135
11
0.137
21
2.59135
0
LINE
8
BLACK
6
CONTINUOUS
10
0.41143
20
2.19466
11
0.411142
21
2.19535
0
LINE
8
BLACK
6
CONTINUOUS
10
0.411142
20
2.19535
11
0.411142
21
2.87646
0
LINE
8
BLACK
6
CONTINUOUS
10
0.411142
20
2.87646
11
0.41143
21
2.87715
0
LINE
8
BLACK
6
CONTINUOUS
10
0.41143
20
2.87715
11
0.412126
21
2.87744
0
LINE
8
BLACK
6
CONTINUOUS
10
0.412126
20
2.87744
11
0.927874
21
2.87744
0
LINE
8
BLACK
6
CONTINUOUS
10
0.927874
20
2.87744
11
0.92857
21
2.87715
0
LINE
8
BLACK
6
CONTINUOUS
10
0.92857
20
2.87715
11
0.928858
21
2.87646
0
LINE
8
BLACK
6
CONTINUOUS
10
0.928858
20
2.87646
11
0.928858
21
2.19535
0
LINE
8
BLACK
6
CONTINUOUS
10
0.928858
20
2.19535
11
0.92857
21
2.19466
0
LINE
8
BLACK
6
CONTINUOUS
10
0.92857
20
2.19466
11
0.927874
21
2.19437
0
LINE
8
BLACK
6
CONTINUOUS
10
0.927874
20
2.19437
11
0.412126
21
2.19437
0
LINE
8
BLACK
6
CONTINUOUS
10
0.412126
20
2.19437
11
0.41143
21
2.19466
0
LINE
8
BLACK
6
CONTINUOUS
10
0.41311
20
2.87547
11
0.41311
21
2.19634
0
LINE
8
BLACK
6
CONTINUOUS
10
0.41311
20
2.19634
11
0.92689
21
2.19634
0
LINE
8
BLACK
6
CONTINUOUS
10
0.92689
20
2.19634
11
0.92689
21
2.87547
0
LINE
8
BLACK
6
CONTINUOUS
10
0.92689
20
2.87547
11
0.41311
21
2.87547
0
LINE
8
BLACK
6
CONTINUOUS
10
1.82604
20
2.27147
11
1.82575
21
2.27217
0
LINE
8
BLACK
6
CONTINUOUS
10
1.82575
20
2.27217
11
1.82575
21
2.32965
0
LINE
8
BLACK
6
CONTINUOUS
10
1.82575
20
2.32965
11
1.82604
21
2.33034
0
LINE
8
BLACK
6
CONTINUOUS
10
1.82604
20
2.33034
11
1.82673
21
2.33063
0
LINE
8
BLACK
6
CONTINUOUS
10
1.82673
20
2.33063
11
1.94327
21
2.33063
0
LINE
8
BLACK
6
CONTINUOUS
10
1.94327
20
2.33063
11
1.94396
21
2.33034
0
LINE
8
BLACK
6
CONTINUOUS
10
1.94396
20
2.33034
11
1.94425
21
2.32965
0
LINE
8
BLACK
6
CONTINUOUS
10
1.94425
20
2.32965
11
1.94425
21
2.27217
0
LINE
8
BLACK
6
CONTINUOUS
10
1.94425
20
2.27217
11
1.94396
21
2.27147
0
LINE
8
BLACK
6
CONTINUOUS
10
1.94396
20
2.27147
11
1.94327
21
2.27118
0
LINE
8
BLACK
6
CONTINUOUS
10
1.94327
20
2.27118
11
1.82673
21
2.27118
0
LINE
8
BLACK
6
CONTINUOUS
10
1.82673
20
2.27118
11
1.82604
21
2.27147
0
LINE
8
BLACK
6
CONTINUOUS
10
1.82772
20
2.32866
11
1.82772
21
2.27315
0
LINE
8
BLACK
6
CONTINUOUS
10
1.82772
20
2.27315
11
1.94228
21
2.27315
0
LINE
8
BLACK
6
CONTINUOUS
10
1.94228
20
2.27315
11
1.94228
21
2.32866
0
LINE
8
BLACK
6
CONTINUOUS
10
1.94228
20
2.32866
11
1.82772
21
2.32866
0
LINE
8
BLACK
6
CONTINUOUS
10
1.83104
20
2.35647
11
1.83075
21
2.35717
0
LINE
8
BLACK
6
CONTINUOUS
10
1.83075
20
2.35717
11
1.83075
21
2.41465
0
LINE
8
BLACK
6
CONTINUOUS
10
1.83075
20
2.41465
11
1.83104
21
2.41534
0
LINE
8
BLACK
6
CONTINUOUS
10
1.83104
20
2.41534
11
1.83173
21
2.41563
0
LINE
8
BLACK
6
CONTINUOUS
10
1.83173
20
2.41563
11
1.94827
21
2.41563
0
LINE
8
BLACK
6
CONTINUOUS
10
1.94827
20
2.41563
11
1.94896
21
2.41534
0
LINE
8
BLACK
6
CONTINUOUS
10
1.94896
20
2.41534
11
1.94925
21
2.41465
0
LINE
8
BLACK
6
CONTINUOUS
10
1.94925
20
2.41465
11
1.94925
21
2.35717
0
LINE
8
BLACK
6
CONTINUOUS
10
1.94925
20
2.35717
11
1.94896
21
2.35647
0
LINE
8
BLACK
6
CONTINUOUS
10
1.94896
20
2.35647
11
1.94827
21
2.35618
0
LINE
8
BLACK
6
CONTINUOUS
10
1.94827
20
2.35618
11
1.83173
21
2.35618
0
LINE
8
BLACK
6
CONTINUOUS
10
1.83173
20
2.35618
11
1.83104
21
2.35647
0
LINE
8
BLACK
6
CONTINUOUS
10
1.83272
20
2.41366
11
1.83272
21
2.35815
0
LINE
8
BLACK
6
CONTINUOUS
10
1.83272
20
2.35815
11
1.94728
21
2.35815
0
LINE
8
BLACK
6
CONTINUOUS
10
1.94728
20
2.35815
11
1.94728
21
2.41366
0
LINE
8
BLACK
6
CONTINUOUS
10
1.94728
20
2.41366
11
1.83272
21
2.41366
0
LINE
8
BLACK
6
CONTINUOUS
10
0.0693198
20
2.62596
11
0.0690315
21
2.62665
0
LINE
8
BLACK
6
CONTINUOUS
10
0.0690315
20
2.62665
11
0.0690315
21
3.19516
0
LINE
8
BLACK
6
CONTINUOUS
10
0.0690315
20
3.19516
11
0.0693198
21
3.19585
0
LINE
8
BLACK
6
CONTINUOUS
10
0.0693198
20
3.19585
11
0.0700157
21
3.19614
0
LINE
8
BLACK
6
CONTINUOUS
10
0.0700157
20
3.19614
11
0.321984
21
3.19614
0
LINE
8
BLACK
6
CONTINUOUS
10
0.321984
20
3.19614
11
0.32268
21
3.19585
0
LINE
8
BLACK
6
CONTINUOUS
10
0.32268
20
3.19585
11
0.322969
21
3.19516
0
LINE
8
BLACK
6
CONTINUOUS
10
0.322969
20
3.19516
11
0.322969
21
2.62665
0
LINE
8
BLACK
6
CONTINUOUS
10
0.322969
20
2.62665
11
0.32268
21
2.62596
0
LINE
8
BLACK
6
CONTINUOUS
10
0.32268
20
2.62596
11
0.321984
21
2.62567
0
LINE
8
BLACK
6
CONTINUOUS
10
0.321984
20
2.62567
11
0.0700157
21
2.62567
0
LINE
8
BLACK
6
CONTINUOUS
10
0.0700157
20
2.62567
11
0.0693198
21
2.62596
0
LINE
8
BLACK
6
CONTINUOUS
10
0.071
20
3.19417
11
0.071
21
2.62764
0
LINE
8
BLACK
6
CONTINUOUS
10
0.071
20
2.62764
11
0.321
21
2.62764
0
LINE
8
BLACK
6
CONTINUOUS
10
0.321
20
2.62764
11
0.321
21
3.19417
0
LINE
8
BLACK
6
CONTINUOUS
10
0.321
20
3.19417
11
0.071
21
3.19417
0
LINE
8
BLACK
6
CONTINUOUS
10
3.07104
20
3.32647
11
3.07075
21
3.32717
0
LINE
8
BLACK
6
CONTINUOUS
10
3.07075
20
3.32717
11
3.07075
21
3.38465
0
LINE
8
BLACK
6
CONTINUOUS
10
3.07075
20
3.38465
11
3.07104
21
3.38534
0
LINE
8
BLACK
6
CONTINUOUS
10
3.07104
20
3.38534
11
3.07173
21
3.38563
0
LINE
8
BLACK
6
CONTINUOUS
10
3.07173
20
3.38563
11
3.18827
21
3.38563
0
LINE
8
BLACK
6
CONTINUOUS
10
3.18827
20
3.38563
11
3.18896
21
3.38534
0
LINE
8
BLACK
6
CONTINUOUS
10
3.18896
20
3.38534
11
3.18925
21
3.38465
0
LINE
8
BLACK
6
CONTINUOUS
10
3.18925
20
3.38465
11
3.18925
21
3.32717
0
LINE
8
BLACK
6
CONTINUOUS
10
3.18925
20
3.32717
11
3.18896
21
3.32647
0
LINE
8
BLACK
6
CONTINUOUS
10
3.18896
20
3.32647
11
3.18827
21
3.32618
0
LINE
8
BLACK
6
CONTINUOUS
10
3.18827
20
3.32618
11
3.07173
21
3.32618
0
LINE
8
BLACK
6
CONTINUOUS
10
3.07173
20
3.32618
11
3.07104
21
3.32647
0
LINE
8
BLACK
6
CONTINUOUS
10
3.07272
20
3.38366
11
3.07272
21
3.32815
0
LINE
8
BLACK
6
CONTINUOUS
10
3.07272
20
3.32815
11
3.18728
21
3.32815
0
LINE
8
BLACK
6
CONTINUOUS
10
3.18728
20
3.32815
11
3.18728
21
3.38366
0
LINE
8
BLACK
6
CONTINUOUS
10
3.18728
20
3.38366
11
3.07272
21
3.38366
0
LINE
8
BLACK
6
CONTINUOUS
10
3.30489
20
3.55871
11
3.30461
21
3.55941
0
LINE
8
BLACK
6
CONTINUOUS
10
3.30461
20
3.55941
11
3.30461
21
3.61689
0
LINE
8
BLACK
6
CONTINUOUS
10
3.30461
20
3.61689
11
3.30489
21
3.61759
0
LINE
8
BLACK
6
CONTINUOUS
10
3.30489
20
3.61759
11
3.30559
21
3.61787
0
LINE
8
BLACK
6
CONTINUOUS
10
3.30559
20
3.61787
11
3.42213
21
3.61787
0
LINE
8
BLACK
6
CONTINUOUS
10
3.42213
20
3.61787
11
3.42282
21
3.61759
0
LINE
8
BLACK
6
CONTINUOUS
10
3.42282
20
3.61759
11
3.42311
21
3.61689
0
LINE
8
BLACK
6
CONTINUOUS
10
3.42311
20
3.61689
11
3.42311
21
3.55941
0
LINE
8
BLACK
6
CONTINUOUS
10
3.42311
20
3.55941
11
3.42282
21
3.55871
0
LINE
8
BLACK
6
CONTINUOUS
10
3.42282
20
3.55871
11
3.42213
21
3.55843
0
LINE
8
BLACK
6
CONTINUOUS
10
3.42213
20
3.55843
11
3.30559
21
3.55843
0
LINE
8
BLACK
6
CONTINUOUS
10
3.30559
20
3.55843
11
3.30489
21
3.55871
0
LINE
8
BLACK
6
CONTINUOUS
10
3.30657
20
3.61591
11
3.30657
21
3.56039
0
LINE
8
BLACK
6
CONTINUOUS
10
3.30657
20
3.56039
11
3.42114
21
3.56039
0
LINE
8
BLACK
6
CONTINUOUS
10
3.42114
20
3.56039
11
3.42114
21
3.61591
0
LINE
8
BLACK
6
CONTINUOUS
10
3.42114
20
3.61591
11
3.30657
21
3.61591
  0
ENDSEC
  0
EOF
