  0
SECTION
  2
HEADER
  9
$ANGBASE
  50
0.0
  9
$ANGDIR
  70
1
  9
$MEASUREMENT
  70
0
  0
ENDSEC
  0
SECTION
  2
TABLES
  0
TABLE
  2
LTYPE
  70
4
  0
LTYPE
  5
40F
  2
CONTINUOUS
  70
0
  3
Solid line
  72
65
  73
0
  40
0.0
  0
LTYPE
  5
410
  2
DASHDOT
 70
0
  3
Dash Dot ____ _ ____ _
 72
65
 73
4
 40
2.0
 49
1.25
 49
-0.25
 49
0.25
 49
-0.25
  0
LTYPE
  5
411
  2
DASHED
 70
0
  3
Dashed __ __ __ __ __
 72
65
 73
2
 40
0.75
 49
0.5
 49
-0.25
  0
LTYPE
  5
43B
  2
DOTTED
 70
0
  3
Dotted .  .  .  .
 72
65
 73
2
 40
0.2
 49
0.0
 49
-0.2
  0
ENDTAB
  0
TABLE
  2
STYLE
  70
4
  0
STYLE
  2
KICAD
  70
0
  40
0
  41
1
  42
1
  50
0
  71
0
  3
isocp.shx
  0
STYLE
  2
KICADB
  70
0
  40
0
  41
1
  42
1
  50
0
  71
0
  3
isocp.shx
  0
STYLE
  2
KICADI
  70
0
  40
0
  41
1
  42
1
  50
15
  71
0
  3
isocp.shx
  0
STYLE
  2
KICADBI
  70
0
  40
0
  41
1
  42
1
  50
15
  71
0
  3
isocp.shx
  0
ENDTAB
  0
TABLE
  2
LAYER
  70
1
  0
LAYER
  2
BLACK
  70
0
  62
7
  6
CONTINUOUS
  0
ENDTAB
  0
ENDSEC
  0
SECTION
  2
ENTITIES
0
LINE
8
BLACK
6
CONTINUOUS
10
0.0019685
20
-0.00909449
11
0.00139193
21
-0.0104864
0
LINE
8
BLACK
6
CONTINUOUS
10
0.00139193
20
-0.0104864
11
0
21
-0.011063
0
LINE
8
BLACK
6
CONTINUOUS
10
0
20
-0.011063
11
-0.00139193
21
-0.0104864
0
LINE
8
BLACK
6
CONTINUOUS
10
-0.00139193
20
-0.0104864
11
-0.0019685
21
-0.00909449
0
LINE
8
BLACK
6
CONTINUOUS
10
-0.0019685
20
-0.00909449
11
-0.0019685
21
0.990906
0
LINE
8
BLACK
6
CONTINUOUS
10
-0.0019685
20
0.990906
11
-0.00139193
21
0.992297
0
LINE
8
BLACK
6
CONTINUOUS
10
-0.00139193
20
0.992297
11
0
21
0.992874
0
LINE
8
BLACK
6
CONTINUOUS
10
0
20
0.992874
11
1.5
21
0.992874
0
LINE
8
BLACK
6
CONTINUOUS
10
1.5
20
0.992874
11
1.50139
21
0.992297
0
LINE
8
BLACK
6
CONTINUOUS
10
1.50139
20
0.992297
11
1.50197
21
0.990906
0
LINE
8
BLACK
6
CONTINUOUS
10
1.50197
20
0.990906
11
1.50197
21
0.000905512
0
LINE
8
BLACK
6
CONTINUOUS
10
1.50197
20
0.000905512
11
1.50139
21
-0.000486417
0
LINE
8
BLACK
6
CONTINUOUS
10
1.50139
20
-0.000486417
11
1.5
21
-0.00106299
0
LINE
8
BLACK
6
CONTINUOUS
10
1.5
20
-0.00106299
11
0.0019685
21
-0.00106299
0
LINE
8
BLACK
6
CONTINUOUS
10
0.0019685
20
-0.00106299
11
0.0019685
21
-0.00909449
0
LINE
8
BLACK
6
CONTINUOUS
10
0.755372
20
1.119
11
0.764583
21
1.11736
0
LINE
8
BLACK
6
CONTINUOUS
10
0.764583
20
1.11736
11
0.773401
21
1.11424
0
LINE
8
BLACK
6
CONTINUOUS
10
0.773401
20
1.11424
11
0.781591
21
1.10971
0
LINE
8
BLACK
6
CONTINUOUS
10
0.781591
20
1.10971
11
0.788933
21
1.10392
0
LINE
8
BLACK
6
CONTINUOUS
10
0.788933
20
1.10392
11
0.795229
21
1.097
0
LINE
8
BLACK
6
CONTINUOUS
10
0.795229
20
1.097
11
0.800311
21
1.08914
0
LINE
8
BLACK
6
CONTINUOUS
10
0.800311
20
1.08914
11
0.804041
21
1.08056
0
LINE
8
BLACK
6
CONTINUOUS
10
0.804041
20
1.08056
11
0.80632
21
1.07149
0
LINE
8
BLACK
6
CONTINUOUS
10
0.80632
20
1.07149
11
0.807087
21
1.06217
0
LINE
8
BLACK
6
CONTINUOUS
10
0.807087
20
1.06217
11
0.807018
21
1.05938
0
LINE
8
BLACK
6
CONTINUOUS
10
0.807018
20
1.05938
11
0.805797
21
1.0501
0
LINE
8
BLACK
6
CONTINUOUS
10
0.805797
20
1.0501
11
0.803078
21
1.04115
0
LINE
8
BLACK
6
CONTINUOUS
10
0.803078
20
1.04115
11
0.798933
21
1.03276
0
LINE
8
BLACK
6
CONTINUOUS
10
0.798933
20
1.03276
11
0.793474
21
1.02517
0
LINE
8
BLACK
6
CONTINUOUS
10
0.793474
20
1.02517
11
0.786847
21
1.01856
0
LINE
8
BLACK
6
CONTINUOUS
10
0.786847
20
1.01856
11
0.779231
21
1.01313
0
LINE
8
BLACK
6
CONTINUOUS
10
0.779231
20
1.01313
11
0.77083
21
1.00901
0
LINE
8
BLACK
6
CONTINUOUS
10
0.77083
20
1.00901
11
0.761869
21
1.00633
0
LINE
8
BLACK
6
CONTINUOUS
10
0.761869
20
1.00633
11
0.75259
21
1.00514
0
LINE
8
BLACK
6
CONTINUOUS
10
0.75259
20
1.00514
11
0.743241
21
1.00548
0
LINE
8
BLACK
6
CONTINUOUS
10
0.743241
20
1.00548
11
0.734073
21
1.00735
0
LINE
8
BLACK
6
CONTINUOUS
10
0.734073
20
1.00735
11
0.725334
21
1.01068
0
LINE
8
BLACK
6
CONTINUOUS
10
0.725334
20
1.01068
11
0.717256
21
1.0154
0
LINE
8
BLACK
6
CONTINUOUS
10
0.717256
20
1.0154
11
0.710059
21
1.02138
0
LINE
8
BLACK
6
CONTINUOUS
10
0.710059
20
1.02138
11
0.703933
21
1.02845
0
LINE
8
BLACK
6
CONTINUOUS
10
0.703933
20
1.02845
11
0.699045
21
1.03643
0
LINE
8
BLACK
6
CONTINUOUS
10
0.699045
20
1.03643
11
0.695526
21
1.04509
0
LINE
8
BLACK
6
CONTINUOUS
10
0.695526
20
1.04509
11
0.693469
21
1.05422
0
LINE
8
BLACK
6
CONTINUOUS
10
0.693469
20
1.05422
11
0.69293
21
1.06356
0
LINE
8
BLACK
6
CONTINUOUS
10
0.69293
20
1.06356
11
0.693925
21
1.07286
0
LINE
8
BLACK
6
CONTINUOUS
10
0.693925
20
1.07286
11
0.696425
21
1.08188
0
LINE
8
BLACK
6
CONTINUOUS
10
0.696425
20
1.08188
11
0.700363
21
1.09036
0
LINE
8
BLACK
6
CONTINUOUS
10
0.700363
20
1.09036
11
0.705635
21
1.09809
0
LINE
8
BLACK
6
CONTINUOUS
10
0.705635
20
1.09809
11
0.712099
21
1.10485
0
LINE
8
BLACK
6
CONTINUOUS
10
0.712099
20
1.10485
11
0.71958
21
1.11047
0
LINE
8
BLACK
6
CONTINUOUS
10
0.71958
20
1.11047
11
0.727878
21
1.11479
0
LINE
8
BLACK
6
CONTINUOUS
10
0.727878
20
1.11479
11
0.73677
21
1.1177
0
LINE
8
BLACK
6
CONTINUOUS
10
0.73677
20
1.1177
11
0.746018
21
1.11911
0
LINE
8
BLACK
6
CONTINUOUS
10
0.746018
20
1.11911
11
0.755372
21
1.119
0
LINE
8
BLACK
6
CONTINUOUS
10
0.255477
20
2.18828
11
0.260448
21
2.18654
0
LINE
8
BLACK
6
CONTINUOUS
10
0.260448
20
2.18654
11
0.264685
21
2.18341
0
LINE
8
BLACK
6
CONTINUOUS
10
0.264685
20
2.18341
11
0.267815
21
2.17917
0
LINE
8
BLACK
6
CONTINUOUS
10
0.267815
20
2.17917
11
0.26956
21
2.1742
0
LINE
8
BLACK
6
CONTINUOUS
10
0.26956
20
2.1742
11
0.269874
21
2.17088
0
LINE
8
BLACK
6
CONTINUOUS
10
0.269874
20
2.17088
11
0.269874
21
2.1512
0
LINE
8
BLACK
6
CONTINUOUS
10
0.269874
20
2.1512
11
0.26956
21
2.14788
0
LINE
8
BLACK
6
CONTINUOUS
10
0.26956
20
2.14788
11
0.267815
21
2.14291
0
LINE
8
BLACK
6
CONTINUOUS
10
0.267815
20
2.14291
11
0.264685
21
2.13867
0
LINE
8
BLACK
6
CONTINUOUS
10
0.264685
20
2.13867
11
0.260448
21
2.13554
0
LINE
8
BLACK
6
CONTINUOUS
10
0.260448
20
2.13554
11
0.255477
21
2.13379
0
LINE
8
BLACK
6
CONTINUOUS
10
0.255477
20
2.13379
11
0.252157
21
2.13348
0
LINE
8
BLACK
6
CONTINUOUS
10
0.252157
20
2.13348
11
0.165543
21
2.13348
0
LINE
8
BLACK
6
CONTINUOUS
10
0.165543
20
2.13348
11
0.162224
21
2.13379
0
LINE
8
BLACK
6
CONTINUOUS
10
0.162224
20
2.13379
11
0.157253
21
2.13554
0
LINE
8
BLACK
6
CONTINUOUS
10
0.157253
20
2.13554
11
0.153016
21
2.13867
0
LINE
8
BLACK
6
CONTINUOUS
10
0.153016
20
2.13867
11
0.149886
21
2.14291
0
LINE
8
BLACK
6
CONTINUOUS
10
0.149886
20
2.14291
11
0.148141
21
2.14788
0
LINE
8
BLACK
6
CONTINUOUS
10
0.148141
20
2.14788
11
0.147827
21
2.1512
0
LINE
8
BLACK
6
CONTINUOUS
10
0.147827
20
2.1512
11
0.147827
21
2.17088
0
LINE
8
BLACK
6
CONTINUOUS
10
0.147827
20
2.17088
11
0.148141
21
2.1742
0
LINE
8
BLACK
6
CONTINUOUS
10
0.148141
20
2.1742
11
0.149886
21
2.17917
0
LINE
8
BLACK
6
CONTINUOUS
10
0.149886
20
2.17917
11
0.153016
21
2.18341
0
LINE
8
BLACK
6
CONTINUOUS
10
0.153016
20
2.18341
11
0.157253
21
2.18654
0
LINE
8
BLACK
6
CONTINUOUS
10
0.157253
20
2.18654
11
0.162224
21
2.18828
0
LINE
8
BLACK
6
CONTINUOUS
10
0.162224
20
2.18828
11
0.165543
21
2.1886
0
LINE
8
BLACK
6
CONTINUOUS
10
0.165543
20
2.1886
11
0.252157
21
2.1886
0
LINE
8
BLACK
6
CONTINUOUS
10
0.252157
20
2.1886
11
0.255477
21
2.18828
0
LINE
8
BLACK
6
CONTINUOUS
10
0.581064
20
2.27136
11
0.588037
21
2.2692
0
LINE
8
BLACK
6
CONTINUOUS
10
0.588037
20
2.2692
11
0.594458
21
2.26573
0
LINE
8
BLACK
6
CONTINUOUS
10
0.594458
20
2.26573
11
0.600082
21
2.26108
0
LINE
8
BLACK
6
CONTINUOUS
10
0.600082
20
2.26108
11
0.604696
21
2.25542
0
LINE
8
BLACK
6
CONTINUOUS
10
0.604696
20
2.25542
11
0.608123
21
2.24898
0
LINE
8
BLACK
6
CONTINUOUS
10
0.608123
20
2.24898
11
0.610233
21
2.24199
0
LINE
8
BLACK
6
CONTINUOUS
10
0.610233
20
2.24199
11
0.610945
21
2.23472
0
LINE
8
BLACK
6
CONTINUOUS
10
0.610945
20
2.23472
11
0.61093
21
2.23368
0
LINE
8
BLACK
6
CONTINUOUS
10
0.61093
20
2.23368
11
0.610015
21
2.22644
0
LINE
8
BLACK
6
CONTINUOUS
10
0.610015
20
2.22644
11
0.607711
21
2.21951
0
LINE
8
BLACK
6
CONTINUOUS
10
0.607711
20
2.21951
11
0.604106
21
2.21316
0
LINE
8
BLACK
6
CONTINUOUS
10
0.604106
20
2.21316
11
0.599336
21
2.20764
0
LINE
8
BLACK
6
CONTINUOUS
10
0.599336
20
2.20764
11
0.593584
21
2.20315
0
LINE
8
BLACK
6
CONTINUOUS
10
0.593584
20
2.20315
11
0.587069
21
2.19985
0
LINE
8
BLACK
6
CONTINUOUS
10
0.587069
20
2.19985
11
0.580038
21
2.19789
0
LINE
8
BLACK
6
CONTINUOUS
10
0.580038
20
2.19789
11
0.57276
21
2.19733
0
LINE
8
BLACK
6
CONTINUOUS
10
0.57276
20
2.19733
11
0.565512
21
2.1982
0
LINE
8
BLACK
6
CONTINUOUS
10
0.565512
20
2.1982
11
0.55857
21
2.20045
0
LINE
8
BLACK
6
CONTINUOUS
10
0.55857
20
2.20045
11
0.552198
21
2.20401
0
LINE
8
BLACK
6
CONTINUOUS
10
0.552198
20
2.20401
11
0.546639
21
2.20874
0
LINE
8
BLACK
6
CONTINUOUS
10
0.546639
20
2.20874
11
0.542105
21
2.21446
0
LINE
8
BLACK
6
CONTINUOUS
10
0.542105
20
2.21446
11
0.538768
21
2.22096
0
LINE
8
BLACK
6
CONTINUOUS
10
0.538768
20
2.22096
11
0.536756
21
2.22797
0
LINE
8
BLACK
6
CONTINUOUS
10
0.536756
20
2.22797
11
0.536145
21
2.23525
0
LINE
8
BLACK
6
CONTINUOUS
10
0.536145
20
2.23525
11
0.536959
21
2.2425
0
LINE
8
BLACK
6
CONTINUOUS
10
0.536959
20
2.2425
11
0.539166
21
2.24946
0
LINE
8
BLACK
6
CONTINUOUS
10
0.539166
20
2.24946
11
0.542683
21
2.25586
0
LINE
8
BLACK
6
CONTINUOUS
10
0.542683
20
2.25586
11
0.547375
21
2.26145
0
LINE
8
BLACK
6
CONTINUOUS
10
0.547375
20
2.26145
11
0.553064
21
2.26602
0
LINE
8
BLACK
6
CONTINUOUS
10
0.553064
20
2.26602
11
0.559532
21
2.2694
0
LINE
8
BLACK
6
CONTINUOUS
10
0.559532
20
2.2694
11
0.566535
21
2.27146
0
LINE
8
BLACK
6
CONTINUOUS
10
0.566535
20
2.27146
11
0.573804
21
2.27213
0
LINE
8
BLACK
6
CONTINUOUS
10
0.573804
20
2.27213
11
0.581064
21
2.27136
0
LINE
8
BLACK
6
CONTINUOUS
10
0.773977
20
2.27136
11
0.78095
21
2.2692
0
LINE
8
BLACK
6
CONTINUOUS
10
0.78095
20
2.2692
11
0.787371
21
2.26573
0
LINE
8
BLACK
6
CONTINUOUS
10
0.787371
20
2.26573
11
0.792996
21
2.26108
0
LINE
8
BLACK
6
CONTINUOUS
10
0.792996
20
2.26108
11
0.797609
21
2.25542
0
LINE
8
BLACK
6
CONTINUOUS
10
0.797609
20
2.25542
11
0.801036
21
2.24898
0
LINE
8
BLACK
6
CONTINUOUS
10
0.801036
20
2.24898
11
0.803146
21
2.24199
0
LINE
8
BLACK
6
CONTINUOUS
10
0.803146
20
2.24199
11
0.803858
21
2.23472
0
LINE
8
BLACK
6
CONTINUOUS
10
0.803858
20
2.23472
11
0.803844
21
2.23368
0
LINE
8
BLACK
6
CONTINUOUS
10
0.803844
20
2.23368
11
0.802929
21
2.22644
0
LINE
8
BLACK
6
CONTINUOUS
10
0.802929
20
2.22644
11
0.800625
21
2.21951
0
LINE
8
BLACK
6
CONTINUOUS
10
0.800625
20
2.21951
11
0.797019
21
2.21316
0
LINE
8
BLACK
6
CONTINUOUS
10
0.797019
20
2.21316
11
0.79225
21
2.20764
0
LINE
8
BLACK
6
CONTINUOUS
10
0.79225
20
2.20764
11
0.786497
21
2.20315
0
LINE
8
BLACK
6
CONTINUOUS
10
0.786497
20
2.20315
11
0.779982
21
2.19985
0
LINE
8
BLACK
6
CONTINUOUS
10
0.779982
20
2.19985
11
0.772951
21
2.19789
0
LINE
8
BLACK
6
CONTINUOUS
10
0.772951
20
2.19789
11
0.765673
21
2.19733
0
LINE
8
BLACK
6
CONTINUOUS
10
0.765673
20
2.19733
11
0.758425
21
2.1982
0
LINE
8
BLACK
6
CONTINUOUS
10
0.758425
20
2.1982
11
0.751483
21
2.20045
0
LINE
8
BLACK
6
CONTINUOUS
10
0.751483
20
2.20045
11
0.745111
21
2.20401
0
LINE
8
BLACK
6
CONTINUOUS
10
0.745111
20
2.20401
11
0.739552
21
2.20874
0
LINE
8
BLACK
6
CONTINUOUS
10
0.739552
20
2.20874
11
0.735018
21
2.21446
0
LINE
8
BLACK
6
CONTINUOUS
10
0.735018
20
2.21446
11
0.731682
21
2.22096
0
LINE
8
BLACK
6
CONTINUOUS
10
0.731682
20
2.22096
11
0.72967
21
2.22797
0
LINE
8
BLACK
6
CONTINUOUS
10
0.72967
20
2.22797
11
0.729059
21
2.23525
0
LINE
8
BLACK
6
CONTINUOUS
10
0.729059
20
2.23525
11
0.729872
21
2.2425
0
LINE
8
BLACK
6
CONTINUOUS
10
0.729872
20
2.2425
11
0.73208
21
2.24946
0
LINE
8
BLACK
6
CONTINUOUS
10
0.73208
20
2.24946
11
0.735596
21
2.25586
0
LINE
8
BLACK
6
CONTINUOUS
10
0.735596
20
2.25586
11
0.740288
21
2.26145
0
LINE
8
BLACK
6
CONTINUOUS
10
0.740288
20
2.26145
11
0.745977
21
2.26602
0
LINE
8
BLACK
6
CONTINUOUS
10
0.745977
20
2.26602
11
0.752446
21
2.2694
0
LINE
8
BLACK
6
CONTINUOUS
10
0.752446
20
2.2694
11
0.759448
21
2.27146
0
LINE
8
BLACK
6
CONTINUOUS
10
0.759448
20
2.27146
11
0.766718
21
2.27213
0
LINE
8
BLACK
6
CONTINUOUS
10
0.766718
20
2.27213
11
0.773977
21
2.27136
0
LINE
8
BLACK
6
CONTINUOUS
10
0.36633
20
2.25298
11
0.370396
21
2.251
0
LINE
8
BLACK
6
CONTINUOUS
10
0.370396
20
2.251
11
0.373598
21
2.2478
0
LINE
8
BLACK
6
CONTINUOUS
10
0.373598
20
2.2478
11
0.375592
21
2.24374
0
LINE
8
BLACK
6
CONTINUOUS
10
0.375592
20
2.24374
11
0.376173
21
2.23978
0
LINE
8
BLACK
6
CONTINUOUS
10
0.376173
20
2.23978
11
0.376173
21
2.22797
0
LINE
8
BLACK
6
CONTINUOUS
10
0.376173
20
2.22797
11
0.375599
21
2.22403
0
LINE
8
BLACK
6
CONTINUOUS
10
0.375599
20
2.22403
11
0.373612
21
2.21997
0
LINE
8
BLACK
6
CONTINUOUS
10
0.373612
20
2.21997
11
0.370415
21
2.21676
0
LINE
8
BLACK
6
CONTINUOUS
10
0.370415
20
2.21676
11
0.366353
21
2.21477
0
LINE
8
BLACK
6
CONTINUOUS
10
0.366353
20
2.21477
11
0.362394
21
2.21419
0
LINE
8
BLACK
6
CONTINUOUS
10
0.362394
20
2.21419
11
0.307276
21
2.21419
0
LINE
8
BLACK
6
CONTINUOUS
10
0.307276
20
2.21419
11
0.303339
21
2.21476
0
LINE
8
BLACK
6
CONTINUOUS
10
0.303339
20
2.21476
11
0.299274
21
2.21675
0
LINE
8
BLACK
6
CONTINUOUS
10
0.299274
20
2.21675
11
0.296071
21
2.21995
0
LINE
8
BLACK
6
CONTINUOUS
10
0.296071
20
2.21995
11
0.294077
21
2.22401
0
LINE
8
BLACK
6
CONTINUOUS
10
0.294077
20
2.22401
11
0.293496
21
2.22797
0
LINE
8
BLACK
6
CONTINUOUS
10
0.293496
20
2.22797
11
0.293496
21
2.23978
0
LINE
8
BLACK
6
CONTINUOUS
10
0.293496
20
2.23978
11
0.29407
21
2.24372
0
LINE
8
BLACK
6
CONTINUOUS
10
0.29407
20
2.24372
11
0.296057
21
2.24778
0
LINE
8
BLACK
6
CONTINUOUS
10
0.296057
20
2.24778
11
0.299254
21
2.25098
0
LINE
8
BLACK
6
CONTINUOUS
10
0.299254
20
2.25098
11
0.303316
21
2.25298
0
LINE
8
BLACK
6
CONTINUOUS
10
0.303316
20
2.25298
11
0.307276
21
2.25356
0
LINE
8
BLACK
6
CONTINUOUS
10
0.307276
20
2.25356
11
0.362394
21
2.25356
0
LINE
8
BLACK
6
CONTINUOUS
10
0.362394
20
2.25356
11
0.36633
21
2.25298
0
LINE
8
BLACK
6
CONTINUOUS
10
0.36633
20
2.3022
11
0.370396
21
2.30021
0
LINE
8
BLACK
6
CONTINUOUS
10
0.370396
20
2.30021
11
0.373598
21
2.29701
0
LINE
8
BLACK
6
CONTINUOUS
10
0.373598
20
2.29701
11
0.375592
21
2.29295
0
LINE
8
BLACK
6
CONTINUOUS
10
0.375592
20
2.29295
11
0.376173
21
2.28899
0
LINE
8
BLACK
6
CONTINUOUS
10
0.376173
20
2.28899
11
0.376173
21
2.27718
0
LINE
8
BLACK
6
CONTINUOUS
10
0.376173
20
2.27718
11
0.375599
21
2.27324
0
LINE
8
BLACK
6
CONTINUOUS
10
0.375599
20
2.27324
11
0.373612
21
2.26918
0
LINE
8
BLACK
6
CONTINUOUS
10
0.373612
20
2.26918
11
0.370415
21
2.26598
0
LINE
8
BLACK
6
CONTINUOUS
10
0.370415
20
2.26598
11
0.366353
21
2.26398
0
LINE
8
BLACK
6
CONTINUOUS
10
0.366353
20
2.26398
11
0.362394
21
2.2634
0
LINE
8
BLACK
6
CONTINUOUS
10
0.362394
20
2.2634
11
0.307276
21
2.2634
0
LINE
8
BLACK
6
CONTINUOUS
10
0.307276
20
2.2634
11
0.303339
21
2.26398
0
LINE
8
BLACK
6
CONTINUOUS
10
0.303339
20
2.26398
11
0.299274
21
2.26596
0
LINE
8
BLACK
6
CONTINUOUS
10
0.299274
20
2.26596
11
0.296071
21
2.26916
0
LINE
8
BLACK
6
CONTINUOUS
10
0.296071
20
2.26916
11
0.294077
21
2.27322
0
LINE
8
BLACK
6
CONTINUOUS
10
0.294077
20
2.27322
11
0.293496
21
2.27718
0
LINE
8
BLACK
6
CONTINUOUS
10
0.293496
20
2.27718
11
0.293496
21
2.28899
0
LINE
8
BLACK
6
CONTINUOUS
10
0.293496
20
2.28899
11
0.29407
21
2.29293
0
LINE
8
BLACK
6
CONTINUOUS
10
0.29407
20
2.29293
11
0.296057
21
2.29699
0
LINE
8
BLACK
6
CONTINUOUS
10
0.296057
20
2.29699
11
0.299254
21
2.3002
0
LINE
8
BLACK
6
CONTINUOUS
10
0.299254
20
2.3002
11
0.303316
21
2.30219
0
LINE
8
BLACK
6
CONTINUOUS
10
0.303316
20
2.30219
11
0.307276
21
2.30277
0
LINE
8
BLACK
6
CONTINUOUS
10
0.307276
20
2.30277
11
0.362394
21
2.30277
0
LINE
8
BLACK
6
CONTINUOUS
10
0.362394
20
2.30277
11
0.36633
21
2.3022
0
LINE
8
BLACK
6
CONTINUOUS
10
1.8677
20
2.32667
11
1.8723
21
2.32433
0
LINE
8
BLACK
6
CONTINUOUS
10
1.8723
20
2.32433
11
1.87595
21
2.32068
0
LINE
8
BLACK
6
CONTINUOUS
10
1.87595
20
2.32068
11
1.87829
21
2.31609
0
LINE
8
BLACK
6
CONTINUOUS
10
1.87829
20
2.31609
11
1.87909
21
2.31099
0
LINE
8
BLACK
6
CONTINUOUS
10
1.87909
20
2.31099
11
1.87909
21
2.29082
0
LINE
8
BLACK
6
CONTINUOUS
10
1.87909
20
2.29082
11
1.87829
21
2.28572
0
LINE
8
BLACK
6
CONTINUOUS
10
1.87829
20
2.28572
11
1.87595
21
2.28113
0
LINE
8
BLACK
6
CONTINUOUS
10
1.87595
20
2.28113
11
1.8723
21
2.27748
0
LINE
8
BLACK
6
CONTINUOUS
10
1.8723
20
2.27748
11
1.8677
21
2.27514
0
LINE
8
BLACK
6
CONTINUOUS
10
1.8677
20
2.27514
11
1.86261
21
2.27433
0
LINE
8
BLACK
6
CONTINUOUS
10
1.86261
20
2.27433
11
1.84538
21
2.27433
0
LINE
8
BLACK
6
CONTINUOUS
10
1.84538
20
2.27433
11
1.84029
21
2.27514
0
LINE
8
BLACK
6
CONTINUOUS
10
1.84029
20
2.27514
11
1.83569
21
2.27748
0
LINE
8
BLACK
6
CONTINUOUS
10
1.83569
20
2.27748
11
1.83205
21
2.28113
0
LINE
8
BLACK
6
CONTINUOUS
10
1.83205
20
2.28113
11
1.8297
21
2.28572
0
LINE
8
BLACK
6
CONTINUOUS
10
1.8297
20
2.28572
11
1.8289
21
2.29082
0
LINE
8
BLACK
6
CONTINUOUS
10
1.8289
20
2.29082
11
1.8289
21
2.31099
0
LINE
8
BLACK
6
CONTINUOUS
10
1.8289
20
2.31099
11
1.8297
21
2.31609
0
LINE
8
BLACK
6
CONTINUOUS
10
1.8297
20
2.31609
11
1.83205
21
2.32068
0
LINE
8
BLACK
6
CONTINUOUS
10
1.83205
20
2.32068
11
1.83569
21
2.32433
0
LINE
8
BLACK
6
CONTINUOUS
10
1.83569
20
2.32433
11
1.84029
21
2.32667
0
LINE
8
BLACK
6
CONTINUOUS
10
1.84029
20
2.32667
11
1.84538
21
2.32748
0
LINE
8
BLACK
6
CONTINUOUS
10
1.84538
20
2.32748
11
1.86261
21
2.32748
0
LINE
8
BLACK
6
CONTINUOUS
10
1.86261
20
2.32748
11
1.8677
21
2.32667
0
LINE
8
BLACK
6
CONTINUOUS
10
1.92971
20
2.32667
11
1.93431
21
2.32433
0
LINE
8
BLACK
6
CONTINUOUS
10
1.93431
20
2.32433
11
1.93795
21
2.32068
0
LINE
8
BLACK
6
CONTINUOUS
10
1.93795
20
2.32068
11
1.9403
21
2.31609
0
LINE
8
BLACK
6
CONTINUOUS
10
1.9403
20
2.31609
11
1.9411
21
2.31099
0
LINE
8
BLACK
6
CONTINUOUS
10
1.9411
20
2.31099
11
1.9411
21
2.29082
0
LINE
8
BLACK
6
CONTINUOUS
10
1.9411
20
2.29082
11
1.9403
21
2.28572
0
LINE
8
BLACK
6
CONTINUOUS
10
1.9403
20
2.28572
11
1.93795
21
2.28113
0
LINE
8
BLACK
6
CONTINUOUS
10
1.93795
20
2.28113
11
1.93431
21
2.27748
0
LINE
8
BLACK
6
CONTINUOUS
10
1.93431
20
2.27748
11
1.92971
21
2.27514
0
LINE
8
BLACK
6
CONTINUOUS
10
1.92971
20
2.27514
11
1.92462
21
2.27433
0
LINE
8
BLACK
6
CONTINUOUS
10
1.92462
20
2.27433
11
1.90739
21
2.27433
0
LINE
8
BLACK
6
CONTINUOUS
10
1.90739
20
2.27433
11
1.9023
21
2.27514
0
LINE
8
BLACK
6
CONTINUOUS
10
1.9023
20
2.27514
11
1.8977
21
2.27748
0
LINE
8
BLACK
6
CONTINUOUS
10
1.8977
20
2.27748
11
1.89405
21
2.28113
0
LINE
8
BLACK
6
CONTINUOUS
10
1.89405
20
2.28113
11
1.89171
21
2.28572
0
LINE
8
BLACK
6
CONTINUOUS
10
1.89171
20
2.28572
11
1.89091
21
2.29082
0
LINE
8
BLACK
6
CONTINUOUS
10
1.89091
20
2.29082
11
1.89091
21
2.31099
0
LINE
8
BLACK
6
CONTINUOUS
10
1.89091
20
2.31099
11
1.89171
21
2.31609
0
LINE
8
BLACK
6
CONTINUOUS
10
1.89171
20
2.31609
11
1.89405
21
2.32068
0
LINE
8
BLACK
6
CONTINUOUS
10
1.89405
20
2.32068
11
1.8977
21
2.32433
0
LINE
8
BLACK
6
CONTINUOUS
10
1.8977
20
2.32433
11
1.9023
21
2.32667
0
LINE
8
BLACK
6
CONTINUOUS
10
1.9023
20
2.32667
11
1.90739
21
2.32748
0
LINE
8
BLACK
6
CONTINUOUS
10
1.90739
20
2.32748
11
1.92462
21
2.32748
0
LINE
8
BLACK
6
CONTINUOUS
10
1.92462
20
2.32748
11
1.92971
21
2.32667
0
LINE
8
BLACK
6
CONTINUOUS
10
0.36633
20
2.35141
11
0.370396
21
2.34942
0
LINE
8
BLACK
6
CONTINUOUS
10
0.370396
20
2.34942
11
0.373598
21
2.34623
0
LINE
8
BLACK
6
CONTINUOUS
10
0.373598
20
2.34623
11
0.375592
21
2.34216
0
LINE
8
BLACK
6
CONTINUOUS
10
0.375592
20
2.34216
11
0.376173
21
2.3382
0
LINE
8
BLACK
6
CONTINUOUS
10
0.376173
20
2.3382
11
0.376173
21
2.32639
0
LINE
8
BLACK
6
CONTINUOUS
10
0.376173
20
2.32639
11
0.375599
21
2.32246
0
LINE
8
BLACK
6
CONTINUOUS
10
0.375599
20
2.32246
11
0.373612
21
2.31839
0
LINE
8
BLACK
6
CONTINUOUS
10
0.373612
20
2.31839
11
0.370415
21
2.31519
0
LINE
8
BLACK
6
CONTINUOUS
10
0.370415
20
2.31519
11
0.366353
21
2.3132
0
LINE
8
BLACK
6
CONTINUOUS
10
0.366353
20
2.3132
11
0.362394
21
2.31261
0
LINE
8
BLACK
6
CONTINUOUS
10
0.362394
20
2.31261
11
0.307276
21
2.31261
0
LINE
8
BLACK
6
CONTINUOUS
10
0.307276
20
2.31261
11
0.303339
21
2.31319
0
LINE
8
BLACK
6
CONTINUOUS
10
0.303339
20
2.31319
11
0.299274
21
2.31518
0
LINE
8
BLACK
6
CONTINUOUS
10
0.299274
20
2.31518
11
0.296071
21
2.31837
0
LINE
8
BLACK
6
CONTINUOUS
10
0.296071
20
2.31837
11
0.294077
21
2.32243
0
LINE
8
BLACK
6
CONTINUOUS
10
0.294077
20
2.32243
11
0.293496
21
2.32639
0
LINE
8
BLACK
6
CONTINUOUS
10
0.293496
20
2.32639
11
0.293496
21
2.3382
0
LINE
8
BLACK
6
CONTINUOUS
10
0.293496
20
2.3382
11
0.29407
21
2.34214
0
LINE
8
BLACK
6
CONTINUOUS
10
0.29407
20
2.34214
11
0.296057
21
2.34621
0
LINE
8
BLACK
6
CONTINUOUS
10
0.296057
20
2.34621
11
0.299254
21
2.34941
0
LINE
8
BLACK
6
CONTINUOUS
10
0.299254
20
2.34941
11
0.303316
21
2.3514
0
LINE
8
BLACK
6
CONTINUOUS
10
0.303316
20
2.3514
11
0.307276
21
2.35198
0
LINE
8
BLACK
6
CONTINUOUS
10
0.307276
20
2.35198
11
0.362394
21
2.35198
0
LINE
8
BLACK
6
CONTINUOUS
10
0.362394
20
2.35198
11
0.36633
21
2.35141
0
LINE
8
BLACK
6
CONTINUOUS
10
1.8727
20
2.41167
11
1.8773
21
2.40933
0
LINE
8
BLACK
6
CONTINUOUS
10
1.8773
20
2.40933
11
1.88095
21
2.40568
0
LINE
8
BLACK
6
CONTINUOUS
10
1.88095
20
2.40568
11
1.88329
21
2.40109
0
LINE
8
BLACK
6
CONTINUOUS
10
1.88329
20
2.40109
11
1.88409
21
2.39599
0
LINE
8
BLACK
6
CONTINUOUS
10
1.88409
20
2.39599
11
1.88409
21
2.37582
0
LINE
8
BLACK
6
CONTINUOUS
10
1.88409
20
2.37582
11
1.88329
21
2.37072
0
LINE
8
BLACK
6
CONTINUOUS
10
1.88329
20
2.37072
11
1.88095
21
2.36613
0
LINE
8
BLACK
6
CONTINUOUS
10
1.88095
20
2.36613
11
1.8773
21
2.36248
0
LINE
8
BLACK
6
CONTINUOUS
10
1.8773
20
2.36248
11
1.8727
21
2.36014
0
LINE
8
BLACK
6
CONTINUOUS
10
1.8727
20
2.36014
11
1.86761
21
2.35933
0
LINE
8
BLACK
6
CONTINUOUS
10
1.86761
20
2.35933
11
1.85038
21
2.35933
0
LINE
8
BLACK
6
CONTINUOUS
10
1.85038
20
2.35933
11
1.84529
21
2.36014
0
LINE
8
BLACK
6
CONTINUOUS
10
1.84529
20
2.36014
11
1.84069
21
2.36248
0
LINE
8
BLACK
6
CONTINUOUS
10
1.84069
20
2.36248
11
1.83705
21
2.36613
0
LINE
8
BLACK
6
CONTINUOUS
10
1.83705
20
2.36613
11
1.8347
21
2.37072
0
LINE
8
BLACK
6
CONTINUOUS
10
1.8347
20
2.37072
11
1.8339
21
2.37582
0
LINE
8
BLACK
6
CONTINUOUS
10
1.8339
20
2.37582
11
1.8339
21
2.39599
0
LINE
8
BLACK
6
CONTINUOUS
10
1.8339
20
2.39599
11
1.8347
21
2.40109
0
LINE
8
BLACK
6
CONTINUOUS
10
1.8347
20
2.40109
11
1.83705
21
2.40568
0
LINE
8
BLACK
6
CONTINUOUS
10
1.83705
20
2.40568
11
1.84069
21
2.40933
0
LINE
8
BLACK
6
CONTINUOUS
10
1.84069
20
2.40933
11
1.84529
21
2.41167
0
LINE
8
BLACK
6
CONTINUOUS
10
1.84529
20
2.41167
11
1.85038
21
2.41248
0
LINE
8
BLACK
6
CONTINUOUS
10
1.85038
20
2.41248
11
1.86761
21
2.41248
0
LINE
8
BLACK
6
CONTINUOUS
10
1.86761
20
2.41248
11
1.8727
21
2.41167
0
LINE
8
BLACK
6
CONTINUOUS
10
1.93471
20
2.41167
11
1.93931
21
2.40933
0
LINE
8
BLACK
6
CONTINUOUS
10
1.93931
20
2.40933
11
1.94295
21
2.40568
0
LINE
8
BLACK
6
CONTINUOUS
10
1.94295
20
2.40568
11
1.9453
21
2.40109
0
LINE
8
BLACK
6
CONTINUOUS
10
1.9453
20
2.40109
11
1.9461
21
2.39599
0
LINE
8
BLACK
6
CONTINUOUS
10
1.9461
20
2.39599
11
1.9461
21
2.37582
0
LINE
8
BLACK
6
CONTINUOUS
10
1.9461
20
2.37582
11
1.9453
21
2.37072
0
LINE
8
BLACK
6
CONTINUOUS
10
1.9453
20
2.37072
11
1.94295
21
2.36613
0
LINE
8
BLACK
6
CONTINUOUS
10
1.94295
20
2.36613
11
1.93931
21
2.36248
0
LINE
8
BLACK
6
CONTINUOUS
10
1.93931
20
2.36248
11
1.93471
21
2.36014
0
LINE
8
BLACK
6
CONTINUOUS
10
1.93471
20
2.36014
11
1.92962
21
2.35933
0
LINE
8
BLACK
6
CONTINUOUS
10
1.92962
20
2.35933
11
1.91239
21
2.35933
0
LINE
8
BLACK
6
CONTINUOUS
10
1.91239
20
2.35933
11
1.9073
21
2.36014
0
LINE
8
BLACK
6
CONTINUOUS
10
1.9073
20
2.36014
11
1.9027
21
2.36248
0
LINE
8
BLACK
6
CONTINUOUS
10
1.9027
20
2.36248
11
1.89905
21
2.36613
0
LINE
8
BLACK
6
CONTINUOUS
10
1.89905
20
2.36613
11
1.89671
21
2.37072
0
LINE
8
BLACK
6
CONTINUOUS
10
1.89671
20
2.37072
11
1.89591
21
2.37582
0
LINE
8
BLACK
6
CONTINUOUS
10
1.89591
20
2.37582
11
1.89591
21
2.39599
0
LINE
8
BLACK
6
CONTINUOUS
10
1.89591
20
2.39599
11
1.89671
21
2.40109
0
LINE
8
BLACK
6
CONTINUOUS
10
1.89671
20
2.40109
11
1.89905
21
2.40568
0
LINE
8
BLACK
6
CONTINUOUS
10
1.89905
20
2.40568
11
1.9027
21
2.40933
0
LINE
8
BLACK
6
CONTINUOUS
10
1.9027
20
2.40933
11
1.9073
21
2.41167
0
LINE
8
BLACK
6
CONTINUOUS
10
1.9073
20
2.41167
11
1.91239
21
2.41248
0
LINE
8
BLACK
6
CONTINUOUS
10
1.91239
20
2.41248
11
1.92962
21
2.41248
0
LINE
8
BLACK
6
CONTINUOUS
10
1.92962
20
2.41248
11
1.93471
21
2.41167
0
LINE
8
BLACK
6
CONTINUOUS
10
0.36633
20
2.40062
11
0.370396
21
2.39864
0
LINE
8
BLACK
6
CONTINUOUS
10
0.370396
20
2.39864
11
0.373598
21
2.39544
0
LINE
8
BLACK
6
CONTINUOUS
10
0.373598
20
2.39544
11
0.375592
21
2.39138
0
LINE
8
BLACK
6
CONTINUOUS
10
0.375592
20
2.39138
11
0.376173
21
2.38742
0
LINE
8
BLACK
6
CONTINUOUS
10
0.376173
20
2.38742
11
0.376173
21
2.37561
0
LINE
8
BLACK
6
CONTINUOUS
10
0.376173
20
2.37561
11
0.375599
21
2.37167
0
LINE
8
BLACK
6
CONTINUOUS
10
0.375599
20
2.37167
11
0.373612
21
2.3676
0
LINE
8
BLACK
6
CONTINUOUS
10
0.373612
20
2.3676
11
0.370415
21
2.3644
0
LINE
8
BLACK
6
CONTINUOUS
10
0.370415
20
2.3644
11
0.366353
21
2.36241
0
LINE
8
BLACK
6
CONTINUOUS
10
0.366353
20
2.36241
11
0.362394
21
2.36183
0
LINE
8
BLACK
6
CONTINUOUS
10
0.362394
20
2.36183
11
0.307276
21
2.36183
0
LINE
8
BLACK
6
CONTINUOUS
10
0.307276
20
2.36183
11
0.303339
21
2.3624
0
LINE
8
BLACK
6
CONTINUOUS
10
0.303339
20
2.3624
11
0.299274
21
2.36439
0
LINE
8
BLACK
6
CONTINUOUS
10
0.299274
20
2.36439
11
0.296071
21
2.36758
0
LINE
8
BLACK
6
CONTINUOUS
10
0.296071
20
2.36758
11
0.294077
21
2.37165
0
LINE
8
BLACK
6
CONTINUOUS
10
0.294077
20
2.37165
11
0.293496
21
2.37561
0
LINE
8
BLACK
6
CONTINUOUS
10
0.293496
20
2.37561
11
0.293496
21
2.38742
0
LINE
8
BLACK
6
CONTINUOUS
10
0.293496
20
2.38742
11
0.29407
21
2.39135
0
LINE
8
BLACK
6
CONTINUOUS
10
0.29407
20
2.39135
11
0.296057
21
2.39542
0
LINE
8
BLACK
6
CONTINUOUS
10
0.296057
20
2.39542
11
0.299254
21
2.39862
0
LINE
8
BLACK
6
CONTINUOUS
10
0.299254
20
2.39862
11
0.303316
21
2.40062
0
LINE
8
BLACK
6
CONTINUOUS
10
0.303316
20
2.40062
11
0.307276
21
2.4012
0
LINE
8
BLACK
6
CONTINUOUS
10
0.307276
20
2.4012
11
0.362394
21
2.4012
0
LINE
8
BLACK
6
CONTINUOUS
10
0.362394
20
2.4012
11
0.36633
21
2.40062
0
LINE
8
BLACK
6
CONTINUOUS
10
0.36633
20
2.44984
11
0.370396
21
2.44785
0
LINE
8
BLACK
6
CONTINUOUS
10
0.370396
20
2.44785
11
0.373598
21
2.44465
0
LINE
8
BLACK
6
CONTINUOUS
10
0.373598
20
2.44465
11
0.375592
21
2.44059
0
LINE
8
BLACK
6
CONTINUOUS
10
0.375592
20
2.44059
11
0.376173
21
2.43663
0
LINE
8
BLACK
6
CONTINUOUS
10
0.376173
20
2.43663
11
0.376173
21
2.42482
0
LINE
8
BLACK
6
CONTINUOUS
10
0.376173
20
2.42482
11
0.375599
21
2.42088
0
LINE
8
BLACK
6
CONTINUOUS
10
0.375599
20
2.42088
11
0.373612
21
2.41682
0
LINE
8
BLACK
6
CONTINUOUS
10
0.373612
20
2.41682
11
0.370415
21
2.41361
0
LINE
8
BLACK
6
CONTINUOUS
10
0.370415
20
2.41361
11
0.366353
21
2.41162
0
LINE
8
BLACK
6
CONTINUOUS
10
0.366353
20
2.41162
11
0.362394
21
2.41104
0
LINE
8
BLACK
6
CONTINUOUS
10
0.362394
20
2.41104
11
0.307276
21
2.41104
0
LINE
8
BLACK
6
CONTINUOUS
10
0.307276
20
2.41104
11
0.303339
21
2.41161
0
LINE
8
BLACK
6
CONTINUOUS
10
0.303339
20
2.41161
11
0.299274
21
2.4136
0
LINE
8
BLACK
6
CONTINUOUS
10
0.299274
20
2.4136
11
0.296071
21
2.4168
0
LINE
8
BLACK
6
CONTINUOUS
10
0.296071
20
2.4168
11
0.294077
21
2.42086
0
LINE
8
BLACK
6
CONTINUOUS
10
0.294077
20
2.42086
11
0.293496
21
2.42482
0
LINE
8
BLACK
6
CONTINUOUS
10
0.293496
20
2.42482
11
0.293496
21
2.43663
0
LINE
8
BLACK
6
CONTINUOUS
10
0.293496
20
2.43663
11
0.29407
21
2.44057
0
LINE
8
BLACK
6
CONTINUOUS
10
0.29407
20
2.44057
11
0.296057
21
2.44463
0
LINE
8
BLACK
6
CONTINUOUS
10
0.296057
20
2.44463
11
0.299254
21
2.44783
0
LINE
8
BLACK
6
CONTINUOUS
10
0.299254
20
2.44783
11
0.303316
21
2.44983
0
LINE
8
BLACK
6
CONTINUOUS
10
0.303316
20
2.44983
11
0.307276
21
2.45041
0
LINE
8
BLACK
6
CONTINUOUS
10
0.307276
20
2.45041
11
0.362394
21
2.45041
0
LINE
8
BLACK
6
CONTINUOUS
10
0.362394
20
2.45041
11
0.36633
21
2.44984
0
LINE
8
BLACK
6
CONTINUOUS
10
0.36633
20
2.49905
11
0.370396
21
2.49706
0
LINE
8
BLACK
6
CONTINUOUS
10
0.370396
20
2.49706
11
0.373598
21
2.49386
0
LINE
8
BLACK
6
CONTINUOUS
10
0.373598
20
2.49386
11
0.375592
21
2.4898
0
LINE
8
BLACK
6
CONTINUOUS
10
0.375592
20
2.4898
11
0.376173
21
2.48584
0
LINE
8
BLACK
6
CONTINUOUS
10
0.376173
20
2.48584
11
0.376173
21
2.47403
0
LINE
8
BLACK
6
CONTINUOUS
10
0.376173
20
2.47403
11
0.375599
21
2.47009
0
LINE
8
BLACK
6
CONTINUOUS
10
0.375599
20
2.47009
11
0.373612
21
2.46603
0
LINE
8
BLACK
6
CONTINUOUS
10
0.373612
20
2.46603
11
0.370415
21
2.46283
0
LINE
8
BLACK
6
CONTINUOUS
10
0.370415
20
2.46283
11
0.366353
21
2.46083
0
LINE
8
BLACK
6
CONTINUOUS
10
0.366353
20
2.46083
11
0.362394
21
2.46025
0
LINE
8
BLACK
6
CONTINUOUS
10
0.362394
20
2.46025
11
0.307276
21
2.46025
0
LINE
8
BLACK
6
CONTINUOUS
10
0.307276
20
2.46025
11
0.303339
21
2.46083
0
LINE
8
BLACK
6
CONTINUOUS
10
0.303339
20
2.46083
11
0.299274
21
2.46281
0
LINE
8
BLACK
6
CONTINUOUS
10
0.299274
20
2.46281
11
0.296071
21
2.46601
0
LINE
8
BLACK
6
CONTINUOUS
10
0.296071
20
2.46601
11
0.294077
21
2.47007
0
LINE
8
BLACK
6
CONTINUOUS
10
0.294077
20
2.47007
11
0.293496
21
2.47403
0
LINE
8
BLACK
6
CONTINUOUS
10
0.293496
20
2.47403
11
0.293496
21
2.48584
0
LINE
8
BLACK
6
CONTINUOUS
10
0.293496
20
2.48584
11
0.29407
21
2.48978
0
LINE
8
BLACK
6
CONTINUOUS
10
0.29407
20
2.48978
11
0.296057
21
2.49384
0
LINE
8
BLACK
6
CONTINUOUS
10
0.296057
20
2.49384
11
0.299254
21
2.49705
0
LINE
8
BLACK
6
CONTINUOUS
10
0.299254
20
2.49705
11
0.303316
21
2.49904
0
LINE
8
BLACK
6
CONTINUOUS
10
0.303316
20
2.49904
11
0.307276
21
2.49962
0
LINE
8
BLACK
6
CONTINUOUS
10
0.307276
20
2.49962
11
0.362394
21
2.49962
0
LINE
8
BLACK
6
CONTINUOUS
10
0.362394
20
2.49962
11
0.36633
21
2.49905
0
LINE
8
BLACK
6
CONTINUOUS
10
0.255477
20
2.58002
11
0.260448
21
2.57827
0
LINE
8
BLACK
6
CONTINUOUS
10
0.260448
20
2.57827
11
0.264685
21
2.57514
0
LINE
8
BLACK
6
CONTINUOUS
10
0.264685
20
2.57514
11
0.267815
21
2.5709
0
LINE
8
BLACK
6
CONTINUOUS
10
0.267815
20
2.5709
11
0.26956
21
2.56593
0
LINE
8
BLACK
6
CONTINUOUS
10
0.26956
20
2.56593
11
0.269874
21
2.56261
0
LINE
8
BLACK
6
CONTINUOUS
10
0.269874
20
2.56261
11
0.269874
21
2.54293
0
LINE
8
BLACK
6
CONTINUOUS
10
0.269874
20
2.54293
11
0.26956
21
2.53961
0
LINE
8
BLACK
6
CONTINUOUS
10
0.26956
20
2.53961
11
0.267815
21
2.53464
0
LINE
8
BLACK
6
CONTINUOUS
10
0.267815
20
2.53464
11
0.264685
21
2.5304
0
LINE
8
BLACK
6
CONTINUOUS
10
0.264685
20
2.5304
11
0.260448
21
2.52727
0
LINE
8
BLACK
6
CONTINUOUS
10
0.260448
20
2.52727
11
0.255477
21
2.52553
0
LINE
8
BLACK
6
CONTINUOUS
10
0.255477
20
2.52553
11
0.252157
21
2.52521
0
LINE
8
BLACK
6
CONTINUOUS
10
0.252157
20
2.52521
11
0.165543
21
2.52521
0
LINE
8
BLACK
6
CONTINUOUS
10
0.165543
20
2.52521
11
0.162224
21
2.52553
0
LINE
8
BLACK
6
CONTINUOUS
10
0.162224
20
2.52553
11
0.157253
21
2.52727
0
LINE
8
BLACK
6
CONTINUOUS
10
0.157253
20
2.52727
11
0.153016
21
2.5304
0
LINE
8
BLACK
6
CONTINUOUS
10
0.153016
20
2.5304
11
0.149886
21
2.53464
0
LINE
8
BLACK
6
CONTINUOUS
10
0.149886
20
2.53464
11
0.148141
21
2.53961
0
LINE
8
BLACK
6
CONTINUOUS
10
0.148141
20
2.53961
11
0.147827
21
2.54293
0
LINE
8
BLACK
6
CONTINUOUS
10
0.147827
20
2.54293
11
0.147827
21
2.56261
0
LINE
8
BLACK
6
CONTINUOUS
10
0.147827
20
2.56261
11
0.148141
21
2.56593
0
LINE
8
BLACK
6
CONTINUOUS
10
0.148141
20
2.56593
11
0.149886
21
2.5709
0
LINE
8
BLACK
6
CONTINUOUS
10
0.149886
20
2.5709
11
0.153016
21
2.57514
0
LINE
8
BLACK
6
CONTINUOUS
10
0.153016
20
2.57514
11
0.157253
21
2.57827
0
LINE
8
BLACK
6
CONTINUOUS
10
0.157253
20
2.57827
11
0.162224
21
2.58002
0
LINE
8
BLACK
6
CONTINUOUS
10
0.162224
20
2.58002
11
0.165543
21
2.58033
0
LINE
8
BLACK
6
CONTINUOUS
10
0.165543
20
2.58033
11
0.252157
21
2.58033
0
LINE
8
BLACK
6
CONTINUOUS
10
0.252157
20
2.58033
11
0.255477
21
2.58002
0
LINE
8
BLACK
6
CONTINUOUS
10
0.189477
20
2.69307
11
0.194448
21
2.69133
0
LINE
8
BLACK
6
CONTINUOUS
10
0.194448
20
2.69133
11
0.198685
21
2.6882
0
LINE
8
BLACK
6
CONTINUOUS
10
0.198685
20
2.6882
11
0.201815
21
2.68396
0
LINE
8
BLACK
6
CONTINUOUS
10
0.201815
20
2.68396
11
0.20356
21
2.67899
0
LINE
8
BLACK
6
CONTINUOUS
10
0.20356
20
2.67899
11
0.203874
21
2.67567
0
LINE
8
BLACK
6
CONTINUOUS
10
0.203874
20
2.67567
11
0.203874
21
2.65598
0
LINE
8
BLACK
6
CONTINUOUS
10
0.203874
20
2.65598
11
0.20356
21
2.65266
0
LINE
8
BLACK
6
CONTINUOUS
10
0.20356
20
2.65266
11
0.201815
21
2.64769
0
LINE
8
BLACK
6
CONTINUOUS
10
0.201815
20
2.64769
11
0.198685
21
2.64346
0
LINE
8
BLACK
6
CONTINUOUS
10
0.198685
20
2.64346
11
0.194448
21
2.64033
0
LINE
8
BLACK
6
CONTINUOUS
10
0.194448
20
2.64033
11
0.189477
21
2.63858
0
LINE
8
BLACK
6
CONTINUOUS
10
0.189477
20
2.63858
11
0.186157
21
2.63827
0
LINE
8
BLACK
6
CONTINUOUS
10
0.186157
20
2.63827
11
0.0995433
21
2.63827
0
LINE
8
BLACK
6
CONTINUOUS
10
0.0995433
20
2.63827
11
0.0962235
21
2.63858
0
LINE
8
BLACK
6
CONTINUOUS
10
0.0962235
20
2.63858
11
0.0912532
21
2.64033
0
LINE
8
BLACK
6
CONTINUOUS
10
0.0912532
20
2.64033
11
0.0870158
21
2.64346
0
LINE
8
BLACK
6
CONTINUOUS
10
0.0870158
20
2.64346
11
0.083886
21
2.64769
0
LINE
8
BLACK
6
CONTINUOUS
10
0.083886
20
2.64769
11
0.0821406
21
2.65266
0
LINE
8
BLACK
6
CONTINUOUS
10
0.0821406
20
2.65266
11
0.0818268
21
2.65598
0
LINE
8
BLACK
6
CONTINUOUS
10
0.0818268
20
2.65598
11
0.0818268
21
2.67567
0
LINE
8
BLACK
6
CONTINUOUS
10
0.0818268
20
2.67567
11
0.0821406
21
2.67899
0
LINE
8
BLACK
6
CONTINUOUS
10
0.0821406
20
2.67899
11
0.083886
21
2.68396
0
LINE
8
BLACK
6
CONTINUOUS
10
0.083886
20
2.68396
11
0.0870158
21
2.6882
0
LINE
8
BLACK
6
CONTINUOUS
10
0.0870158
20
2.6882
11
0.0912532
21
2.69133
0
LINE
8
BLACK
6
CONTINUOUS
10
0.0912532
20
2.69133
11
0.0962235
21
2.69307
0
LINE
8
BLACK
6
CONTINUOUS
10
0.0962235
20
2.69307
11
0.0995433
21
2.69339
0
LINE
8
BLACK
6
CONTINUOUS
10
0.0995433
20
2.69339
11
0.186157
21
2.69339
0
LINE
8
BLACK
6
CONTINUOUS
10
0.186157
20
2.69339
11
0.189477
21
2.69307
0
LINE
8
BLACK
6
CONTINUOUS
10
0.30033
20
2.75777
11
0.304396
21
2.75579
0
LINE
8
BLACK
6
CONTINUOUS
10
0.304396
20
2.75579
11
0.307598
21
2.75259
0
LINE
8
BLACK
6
CONTINUOUS
10
0.307598
20
2.75259
11
0.309592
21
2.74853
0
LINE
8
BLACK
6
CONTINUOUS
10
0.309592
20
2.74853
11
0.310173
21
2.74457
0
LINE
8
BLACK
6
CONTINUOUS
10
0.310173
20
2.74457
11
0.310173
21
2.73276
0
LINE
8
BLACK
6
CONTINUOUS
10
0.310173
20
2.73276
11
0.309599
21
2.72882
0
LINE
8
BLACK
6
CONTINUOUS
10
0.309599
20
2.72882
11
0.307612
21
2.72475
0
LINE
8
BLACK
6
CONTINUOUS
10
0.307612
20
2.72475
11
0.304415
21
2.72155
0
LINE
8
BLACK
6
CONTINUOUS
10
0.304415
20
2.72155
11
0.300353
21
2.71956
0
LINE
8
BLACK
6
CONTINUOUS
10
0.300353
20
2.71956
11
0.296394
21
2.71898
0
LINE
8
BLACK
6
CONTINUOUS
10
0.296394
20
2.71898
11
0.241276
21
2.71898
0
LINE
8
BLACK
6
CONTINUOUS
10
0.241276
20
2.71898
11
0.237339
21
2.71955
0
LINE
8
BLACK
6
CONTINUOUS
10
0.237339
20
2.71955
11
0.233274
21
2.72154
0
LINE
8
BLACK
6
CONTINUOUS
10
0.233274
20
2.72154
11
0.230071
21
2.72473
0
LINE
8
BLACK
6
CONTINUOUS
10
0.230071
20
2.72473
11
0.228077
21
2.7288
0
LINE
8
BLACK
6
CONTINUOUS
10
0.228077
20
2.7288
11
0.227496
21
2.73276
0
LINE
8
BLACK
6
CONTINUOUS
10
0.227496
20
2.73276
11
0.227496
21
2.74457
0
LINE
8
BLACK
6
CONTINUOUS
10
0.227496
20
2.74457
11
0.22807
21
2.7485
0
LINE
8
BLACK
6
CONTINUOUS
10
0.22807
20
2.7485
11
0.230057
21
2.75257
0
LINE
8
BLACK
6
CONTINUOUS
10
0.230057
20
2.75257
11
0.233254
21
2.75577
0
LINE
8
BLACK
6
CONTINUOUS
10
0.233254
20
2.75577
11
0.237316
21
2.75777
0
LINE
8
BLACK
6
CONTINUOUS
10
0.237316
20
2.75777
11
0.241276
21
2.75835
0
LINE
8
BLACK
6
CONTINUOUS
10
0.241276
20
2.75835
11
0.296394
21
2.75835
0
LINE
8
BLACK
6
CONTINUOUS
10
0.296394
20
2.75835
11
0.30033
21
2.75777
0
LINE
8
BLACK
6
CONTINUOUS
10
0.30033
20
2.80698
11
0.304396
21
2.805
0
LINE
8
BLACK
6
CONTINUOUS
10
0.304396
20
2.805
11
0.307598
21
2.8018
0
LINE
8
BLACK
6
CONTINUOUS
10
0.307598
20
2.8018
11
0.309592
21
2.79774
0
LINE
8
BLACK
6
CONTINUOUS
10
0.309592
20
2.79774
11
0.310173
21
2.79378
0
LINE
8
BLACK
6
CONTINUOUS
10
0.310173
20
2.79378
11
0.310173
21
2.78197
0
LINE
8
BLACK
6
CONTINUOUS
10
0.310173
20
2.78197
11
0.309599
21
2.77803
0
LINE
8
BLACK
6
CONTINUOUS
10
0.309599
20
2.77803
11
0.307612
21
2.77397
0
LINE
8
BLACK
6
CONTINUOUS
10
0.307612
20
2.77397
11
0.304415
21
2.77076
0
LINE
8
BLACK
6
CONTINUOUS
10
0.304415
20
2.77076
11
0.300353
21
2.76877
0
LINE
8
BLACK
6
CONTINUOUS
10
0.300353
20
2.76877
11
0.296394
21
2.76819
0
LINE
8
BLACK
6
CONTINUOUS
10
0.296394
20
2.76819
11
0.241276
21
2.76819
0
LINE
8
BLACK
6
CONTINUOUS
10
0.241276
20
2.76819
11
0.237339
21
2.76876
0
LINE
8
BLACK
6
CONTINUOUS
10
0.237339
20
2.76876
11
0.233274
21
2.77075
0
LINE
8
BLACK
6
CONTINUOUS
10
0.233274
20
2.77075
11
0.230071
21
2.77395
0
LINE
8
BLACK
6
CONTINUOUS
10
0.230071
20
2.77395
11
0.228077
21
2.77801
0
LINE
8
BLACK
6
CONTINUOUS
10
0.228077
20
2.77801
11
0.227496
21
2.78197
0
LINE
8
BLACK
6
CONTINUOUS
10
0.227496
20
2.78197
11
0.227496
21
2.79378
0
LINE
8
BLACK
6
CONTINUOUS
10
0.227496
20
2.79378
11
0.22807
21
2.79772
0
LINE
8
BLACK
6
CONTINUOUS
10
0.22807
20
2.79772
11
0.230057
21
2.80178
0
LINE
8
BLACK
6
CONTINUOUS
10
0.230057
20
2.80178
11
0.233254
21
2.80498
0
LINE
8
BLACK
6
CONTINUOUS
10
0.233254
20
2.80498
11
0.237316
21
2.80698
0
LINE
8
BLACK
6
CONTINUOUS
10
0.237316
20
2.80698
11
0.241276
21
2.80756
0
LINE
8
BLACK
6
CONTINUOUS
10
0.241276
20
2.80756
11
0.296394
21
2.80756
0
LINE
8
BLACK
6
CONTINUOUS
10
0.296394
20
2.80756
11
0.30033
21
2.80698
0
LINE
8
BLACK
6
CONTINUOUS
10
0.30033
20
2.8562
11
0.304396
21
2.85421
0
LINE
8
BLACK
6
CONTINUOUS
10
0.304396
20
2.85421
11
0.307598
21
2.85101
0
LINE
8
BLACK
6
CONTINUOUS
10
0.307598
20
2.85101
11
0.309592
21
2.84695
0
LINE
8
BLACK
6
CONTINUOUS
10
0.309592
20
2.84695
11
0.310173
21
2.84299
0
LINE
8
BLACK
6
CONTINUOUS
10
0.310173
20
2.84299
11
0.310173
21
2.83118
0
LINE
8
BLACK
6
CONTINUOUS
10
0.310173
20
2.83118
11
0.309599
21
2.82724
0
LINE
8
BLACK
6
CONTINUOUS
10
0.309599
20
2.82724
11
0.307612
21
2.82318
0
LINE
8
BLACK
6
CONTINUOUS
10
0.307612
20
2.82318
11
0.304415
21
2.81998
0
LINE
8
BLACK
6
CONTINUOUS
10
0.304415
20
2.81998
11
0.300353
21
2.81798
0
LINE
8
BLACK
6
CONTINUOUS
10
0.300353
20
2.81798
11
0.296394
21
2.8174
0
LINE
8
BLACK
6
CONTINUOUS
10
0.296394
20
2.8174
11
0.241276
21
2.8174
0
LINE
8
BLACK
6
CONTINUOUS
10
0.241276
20
2.8174
11
0.237339
21
2.81798
0
LINE
8
BLACK
6
CONTINUOUS
10
0.237339
20
2.81798
11
0.233274
21
2.81996
0
LINE
8
BLACK
6
CONTINUOUS
10
0.233274
20
2.81996
11
0.230071
21
2.82316
0
LINE
8
BLACK
6
CONTINUOUS
10
0.230071
20
2.82316
11
0.228077
21
2.82722
0
LINE
8
BLACK
6
CONTINUOUS
10
0.228077
20
2.82722
11
0.227496
21
2.83118
0
LINE
8
BLACK
6
CONTINUOUS
10
0.227496
20
2.83118
11
0.227496
21
2.84299
0
LINE
8
BLACK
6
CONTINUOUS
10
0.227496
20
2.84299
11
0.22807
21
2.84693
0
LINE
8
BLACK
6
CONTINUOUS
10
0.22807
20
2.84693
11
0.230057
21
2.85099
0
LINE
8
BLACK
6
CONTINUOUS
10
0.230057
20
2.85099
11
0.233254
21
2.8542
0
LINE
8
BLACK
6
CONTINUOUS
10
0.233254
20
2.8542
11
0.237316
21
2.85619
0
LINE
8
BLACK
6
CONTINUOUS
10
0.237316
20
2.85619
11
0.241276
21
2.85677
0
LINE
8
BLACK
6
CONTINUOUS
10
0.241276
20
2.85677
11
0.296394
21
2.85677
0
LINE
8
BLACK
6
CONTINUOUS
10
0.296394
20
2.85677
11
0.30033
21
2.8562
0
LINE
8
BLACK
6
CONTINUOUS
10
0.30033
20
2.90541
11
0.304396
21
2.90342
0
LINE
8
BLACK
6
CONTINUOUS
10
0.304396
20
2.90342
11
0.307598
21
2.90023
0
LINE
8
BLACK
6
CONTINUOUS
10
0.307598
20
2.90023
11
0.309592
21
2.89616
0
LINE
8
BLACK
6
CONTINUOUS
10
0.309592
20
2.89616
11
0.310173
21
2.8922
0
LINE
8
BLACK
6
CONTINUOUS
10
0.310173
20
2.8922
11
0.310173
21
2.88039
0
LINE
8
BLACK
6
CONTINUOUS
10
0.310173
20
2.88039
11
0.309599
21
2.87646
0
LINE
8
BLACK
6
CONTINUOUS
10
0.309599
20
2.87646
11
0.307612
21
2.87239
0
LINE
8
BLACK
6
CONTINUOUS
10
0.307612
20
2.87239
11
0.304415
21
2.86919
0
LINE
8
BLACK
6
CONTINUOUS
10
0.304415
20
2.86919
11
0.300353
21
2.8672
0
LINE
8
BLACK
6
CONTINUOUS
10
0.300353
20
2.8672
11
0.296394
21
2.86661
0
LINE
8
BLACK
6
CONTINUOUS
10
0.296394
20
2.86661
11
0.241276
21
2.86661
0
LINE
8
BLACK
6
CONTINUOUS
10
0.241276
20
2.86661
11
0.237339
21
2.86719
0
LINE
8
BLACK
6
CONTINUOUS
10
0.237339
20
2.86719
11
0.233274
21
2.86918
0
LINE
8
BLACK
6
CONTINUOUS
10
0.233274
20
2.86918
11
0.230071
21
2.87237
0
LINE
8
BLACK
6
CONTINUOUS
10
0.230071
20
2.87237
11
0.228077
21
2.87643
0
LINE
8
BLACK
6
CONTINUOUS
10
0.228077
20
2.87643
11
0.227496
21
2.88039
0
LINE
8
BLACK
6
CONTINUOUS
10
0.227496
20
2.88039
11
0.227496
21
2.8922
0
LINE
8
BLACK
6
CONTINUOUS
10
0.227496
20
2.8922
11
0.22807
21
2.89614
0
LINE
8
BLACK
6
CONTINUOUS
10
0.22807
20
2.89614
11
0.230057
21
2.90021
0
LINE
8
BLACK
6
CONTINUOUS
10
0.230057
20
2.90021
11
0.233254
21
2.90341
0
LINE
8
BLACK
6
CONTINUOUS
10
0.233254
20
2.90341
11
0.237316
21
2.9054
0
LINE
8
BLACK
6
CONTINUOUS
10
0.237316
20
2.9054
11
0.241276
21
2.90598
0
LINE
8
BLACK
6
CONTINUOUS
10
0.241276
20
2.90598
11
0.296394
21
2.90598
0
LINE
8
BLACK
6
CONTINUOUS
10
0.296394
20
2.90598
11
0.30033
21
2.90541
0
LINE
8
BLACK
6
CONTINUOUS
10
0.30033
20
2.95462
11
0.304396
21
2.95264
0
LINE
8
BLACK
6
CONTINUOUS
10
0.304396
20
2.95264
11
0.307598
21
2.94944
0
LINE
8
BLACK
6
CONTINUOUS
10
0.307598
20
2.94944
11
0.309592
21
2.94538
0
LINE
8
BLACK
6
CONTINUOUS
10
0.309592
20
2.94538
11
0.310173
21
2.94142
0
LINE
8
BLACK
6
CONTINUOUS
10
0.310173
20
2.94142
11
0.310173
21
2.92961
0
LINE
8
BLACK
6
CONTINUOUS
10
0.310173
20
2.92961
11
0.309599
21
2.92567
0
LINE
8
BLACK
6
CONTINUOUS
10
0.309599
20
2.92567
11
0.307612
21
2.9216
0
LINE
8
BLACK
6
CONTINUOUS
10
0.307612
20
2.9216
11
0.304415
21
2.9184
0
LINE
8
BLACK
6
CONTINUOUS
10
0.304415
20
2.9184
11
0.300353
21
2.91641
0
LINE
8
BLACK
6
CONTINUOUS
10
0.300353
20
2.91641
11
0.296394
21
2.91583
0
LINE
8
BLACK
6
CONTINUOUS
10
0.296394
20
2.91583
11
0.241276
21
2.91583
0
LINE
8
BLACK
6
CONTINUOUS
10
0.241276
20
2.91583
11
0.237339
21
2.9164
0
LINE
8
BLACK
6
CONTINUOUS
10
0.237339
20
2.9164
11
0.233274
21
2.91839
0
LINE
8
BLACK
6
CONTINUOUS
10
0.233274
20
2.91839
11
0.230071
21
2.92158
0
LINE
8
BLACK
6
CONTINUOUS
10
0.230071
20
2.92158
11
0.228077
21
2.92565
0
LINE
8
BLACK
6
CONTINUOUS
10
0.228077
20
2.92565
11
0.227496
21
2.92961
0
LINE
8
BLACK
6
CONTINUOUS
10
0.227496
20
2.92961
11
0.227496
21
2.94142
0
LINE
8
BLACK
6
CONTINUOUS
10
0.227496
20
2.94142
11
0.22807
21
2.94535
0
LINE
8
BLACK
6
CONTINUOUS
10
0.22807
20
2.94535
11
0.230057
21
2.94942
0
LINE
8
BLACK
6
CONTINUOUS
10
0.230057
20
2.94942
11
0.233254
21
2.95262
0
LINE
8
BLACK
6
CONTINUOUS
10
0.233254
20
2.95262
11
0.237316
21
2.95462
0
LINE
8
BLACK
6
CONTINUOUS
10
0.237316
20
2.95462
11
0.241276
21
2.9552
0
LINE
8
BLACK
6
CONTINUOUS
10
0.241276
20
2.9552
11
0.296394
21
2.9552
0
LINE
8
BLACK
6
CONTINUOUS
10
0.296394
20
2.9552
11
0.30033
21
2.95462
0
LINE
8
BLACK
6
CONTINUOUS
10
0.30033
20
3.00384
11
0.304396
21
3.00185
0
LINE
8
BLACK
6
CONTINUOUS
10
0.304396
20
3.00185
11
0.307598
21
2.99865
0
LINE
8
BLACK
6
CONTINUOUS
10
0.307598
20
2.99865
11
0.309592
21
2.99459
0
LINE
8
BLACK
6
CONTINUOUS
10
0.309592
20
2.99459
11
0.310173
21
2.99063
0
LINE
8
BLACK
6
CONTINUOUS
10
0.310173
20
2.99063
11
0.310173
21
2.97882
0
LINE
8
BLACK
6
CONTINUOUS
10
0.310173
20
2.97882
11
0.309599
21
2.97488
0
LINE
8
BLACK
6
CONTINUOUS
10
0.309599
20
2.97488
11
0.307612
21
2.97082
0
LINE
8
BLACK
6
CONTINUOUS
10
0.307612
20
2.97082
11
0.304415
21
2.96761
0
LINE
8
BLACK
6
CONTINUOUS
10
0.304415
20
2.96761
11
0.300353
21
2.96562
0
LINE
8
BLACK
6
CONTINUOUS
10
0.300353
20
2.96562
11
0.296394
21
2.96504
0
LINE
8
BLACK
6
CONTINUOUS
10
0.296394
20
2.96504
11
0.241276
21
2.96504
0
LINE
8
BLACK
6
CONTINUOUS
10
0.241276
20
2.96504
11
0.237339
21
2.96561
0
LINE
8
BLACK
6
CONTINUOUS
10
0.237339
20
2.96561
11
0.233274
21
2.9676
0
LINE
8
BLACK
6
CONTINUOUS
10
0.233274
20
2.9676
11
0.230071
21
2.9708
0
LINE
8
BLACK
6
CONTINUOUS
10
0.230071
20
2.9708
11
0.228077
21
2.97486
0
LINE
8
BLACK
6
CONTINUOUS
10
0.228077
20
2.97486
11
0.227496
21
2.97882
0
LINE
8
BLACK
6
CONTINUOUS
10
0.227496
20
2.97882
11
0.227496
21
2.99063
0
LINE
8
BLACK
6
CONTINUOUS
10
0.227496
20
2.99063
11
0.22807
21
2.99457
0
LINE
8
BLACK
6
CONTINUOUS
10
0.22807
20
2.99457
11
0.230057
21
2.99863
0
LINE
8
BLACK
6
CONTINUOUS
10
0.230057
20
2.99863
11
0.233254
21
3.00183
0
LINE
8
BLACK
6
CONTINUOUS
10
0.233254
20
3.00183
11
0.237316
21
3.00383
0
LINE
8
BLACK
6
CONTINUOUS
10
0.237316
20
3.00383
11
0.241276
21
3.00441
0
LINE
8
BLACK
6
CONTINUOUS
10
0.241276
20
3.00441
11
0.296394
21
3.00441
0
LINE
8
BLACK
6
CONTINUOUS
10
0.296394
20
3.00441
11
0.30033
21
3.00384
0
LINE
8
BLACK
6
CONTINUOUS
10
0.30033
20
3.05305
11
0.304396
21
3.05106
0
LINE
8
BLACK
6
CONTINUOUS
10
0.304396
20
3.05106
11
0.307598
21
3.04786
0
LINE
8
BLACK
6
CONTINUOUS
10
0.307598
20
3.04786
11
0.309592
21
3.0438
0
LINE
8
BLACK
6
CONTINUOUS
10
0.309592
20
3.0438
11
0.310173
21
3.03984
0
LINE
8
BLACK
6
CONTINUOUS
10
0.310173
20
3.03984
11
0.310173
21
3.02803
0
LINE
8
BLACK
6
CONTINUOUS
10
0.310173
20
3.02803
11
0.309599
21
3.02409
0
LINE
8
BLACK
6
CONTINUOUS
10
0.309599
20
3.02409
11
0.307612
21
3.02003
0
LINE
8
BLACK
6
CONTINUOUS
10
0.307612
20
3.02003
11
0.304415
21
3.01683
0
LINE
8
BLACK
6
CONTINUOUS
10
0.304415
20
3.01683
11
0.300353
21
3.01483
0
LINE
8
BLACK
6
CONTINUOUS
10
0.300353
20
3.01483
11
0.296394
21
3.01425
0
LINE
8
BLACK
6
CONTINUOUS
10
0.296394
20
3.01425
11
0.241276
21
3.01425
0
LINE
8
BLACK
6
CONTINUOUS
10
0.241276
20
3.01425
11
0.237339
21
3.01483
0
LINE
8
BLACK
6
CONTINUOUS
10
0.237339
20
3.01483
11
0.233274
21
3.01681
0
LINE
8
BLACK
6
CONTINUOUS
10
0.233274
20
3.01681
11
0.230071
21
3.02001
0
LINE
8
BLACK
6
CONTINUOUS
10
0.230071
20
3.02001
11
0.228077
21
3.02407
0
LINE
8
BLACK
6
CONTINUOUS
10
0.228077
20
3.02407
11
0.227496
21
3.02803
0
LINE
8
BLACK
6
CONTINUOUS
10
0.227496
20
3.02803
11
0.227496
21
3.03984
0
LINE
8
BLACK
6
CONTINUOUS
10
0.227496
20
3.03984
11
0.22807
21
3.04378
0
LINE
8
BLACK
6
CONTINUOUS
10
0.22807
20
3.04378
11
0.230057
21
3.04784
0
LINE
8
BLACK
6
CONTINUOUS
10
0.230057
20
3.04784
11
0.233254
21
3.05105
0
LINE
8
BLACK
6
CONTINUOUS
10
0.233254
20
3.05105
11
0.237316
21
3.05304
0
LINE
8
BLACK
6
CONTINUOUS
10
0.237316
20
3.05304
11
0.241276
21
3.05362
0
LINE
8
BLACK
6
CONTINUOUS
10
0.241276
20
3.05362
11
0.296394
21
3.05362
0
LINE
8
BLACK
6
CONTINUOUS
10
0.296394
20
3.05362
11
0.30033
21
3.05305
0
LINE
8
BLACK
6
CONTINUOUS
10
0.30033
20
3.10226
11
0.304396
21
3.10027
0
LINE
8
BLACK
6
CONTINUOUS
10
0.304396
20
3.10027
11
0.307598
21
3.09708
0
LINE
8
BLACK
6
CONTINUOUS
10
0.307598
20
3.09708
11
0.309592
21
3.09301
0
LINE
8
BLACK
6
CONTINUOUS
10
0.309592
20
3.09301
11
0.310173
21
3.08906
0
LINE
8
BLACK
6
CONTINUOUS
10
0.310173
20
3.08906
11
0.310173
21
3.07724
0
LINE
8
BLACK
6
CONTINUOUS
10
0.310173
20
3.07724
11
0.309599
21
3.07331
0
LINE
8
BLACK
6
CONTINUOUS
10
0.309599
20
3.07331
11
0.307612
21
3.06924
0
LINE
8
BLACK
6
CONTINUOUS
10
0.307612
20
3.06924
11
0.304415
21
3.06604
0
LINE
8
BLACK
6
CONTINUOUS
10
0.304415
20
3.06604
11
0.300353
21
3.06405
0
LINE
8
BLACK
6
CONTINUOUS
10
0.300353
20
3.06405
11
0.296394
21
3.06346
0
LINE
8
BLACK
6
CONTINUOUS
10
0.296394
20
3.06346
11
0.241276
21
3.06346
0
LINE
8
BLACK
6
CONTINUOUS
10
0.241276
20
3.06346
11
0.237339
21
3.06404
0
LINE
8
BLACK
6
CONTINUOUS
10
0.237339
20
3.06404
11
0.233274
21
3.06603
0
LINE
8
BLACK
6
CONTINUOUS
10
0.233274
20
3.06603
11
0.230071
21
3.06922
0
LINE
8
BLACK
6
CONTINUOUS
10
0.230071
20
3.06922
11
0.228077
21
3.07328
0
LINE
8
BLACK
6
CONTINUOUS
10
0.228077
20
3.07328
11
0.227496
21
3.07724
0
LINE
8
BLACK
6
CONTINUOUS
10
0.227496
20
3.07724
11
0.227496
21
3.08906
0
LINE
8
BLACK
6
CONTINUOUS
10
0.227496
20
3.08906
11
0.22807
21
3.09299
0
LINE
8
BLACK
6
CONTINUOUS
10
0.22807
20
3.09299
11
0.230057
21
3.09706
0
LINE
8
BLACK
6
CONTINUOUS
10
0.230057
20
3.09706
11
0.233254
21
3.10026
0
LINE
8
BLACK
6
CONTINUOUS
10
0.233254
20
3.10026
11
0.237316
21
3.10225
0
LINE
8
BLACK
6
CONTINUOUS
10
0.237316
20
3.10225
11
0.241276
21
3.10283
0
LINE
8
BLACK
6
CONTINUOUS
10
0.241276
20
3.10283
11
0.296394
21
3.10283
0
LINE
8
BLACK
6
CONTINUOUS
10
0.296394
20
3.10283
11
0.30033
21
3.10226
0
LINE
8
BLACK
6
CONTINUOUS
10
0.189477
20
3.18323
11
0.194448
21
3.18148
0
LINE
8
BLACK
6
CONTINUOUS
10
0.194448
20
3.18148
11
0.198685
21
3.17835
0
LINE
8
BLACK
6
CONTINUOUS
10
0.198685
20
3.17835
11
0.201815
21
3.17412
0
LINE
8
BLACK
6
CONTINUOUS
10
0.201815
20
3.17412
11
0.20356
21
3.16915
0
LINE
8
BLACK
6
CONTINUOUS
10
0.20356
20
3.16915
11
0.203874
21
3.16583
0
LINE
8
BLACK
6
CONTINUOUS
10
0.203874
20
3.16583
11
0.203874
21
3.14614
0
LINE
8
BLACK
6
CONTINUOUS
10
0.203874
20
3.14614
11
0.20356
21
3.14282
0
LINE
8
BLACK
6
CONTINUOUS
10
0.20356
20
3.14282
11
0.201815
21
3.13785
0
LINE
8
BLACK
6
CONTINUOUS
10
0.201815
20
3.13785
11
0.198685
21
3.13361
0
LINE
8
BLACK
6
CONTINUOUS
10
0.198685
20
3.13361
11
0.194448
21
3.13048
0
LINE
8
BLACK
6
CONTINUOUS
10
0.194448
20
3.13048
11
0.189477
21
3.12874
0
LINE
8
BLACK
6
CONTINUOUS
10
0.189477
20
3.12874
11
0.186157
21
3.12843
0
LINE
8
BLACK
6
CONTINUOUS
10
0.186157
20
3.12843
11
0.0995433
21
3.12843
0
LINE
8
BLACK
6
CONTINUOUS
10
0.0995433
20
3.12843
11
0.0962235
21
3.12874
0
LINE
8
BLACK
6
CONTINUOUS
10
0.0962235
20
3.12874
11
0.0912532
21
3.13048
0
LINE
8
BLACK
6
CONTINUOUS
10
0.0912532
20
3.13048
11
0.0870158
21
3.13361
0
LINE
8
BLACK
6
CONTINUOUS
10
0.0870158
20
3.13361
11
0.083886
21
3.13785
0
LINE
8
BLACK
6
CONTINUOUS
10
0.083886
20
3.13785
11
0.0821406
21
3.14282
0
LINE
8
BLACK
6
CONTINUOUS
10
0.0821406
20
3.14282
11
0.0818268
21
3.14614
0
LINE
8
BLACK
6
CONTINUOUS
10
0.0818268
20
3.14614
11
0.0818268
21
3.16583
0
LINE
8
BLACK
6
CONTINUOUS
10
0.0818268
20
3.16583
11
0.0821406
21
3.16915
0
LINE
8
BLACK
6
CONTINUOUS
10
0.0821406
20
3.16915
11
0.083886
21
3.17412
0
LINE
8
BLACK
6
CONTINUOUS
10
0.083886
20
3.17412
11
0.0870158
21
3.17835
0
LINE
8
BLACK
6
CONTINUOUS
10
0.0870158
20
3.17835
11
0.0912532
21
3.18148
0
LINE
8
BLACK
6
CONTINUOUS
10
0.0912532
20
3.18148
11
0.0962235
21
3.18323
0
LINE
8
BLACK
6
CONTINUOUS
10
0.0962235
20
3.18323
11
0.0995433
21
3.18354
0
LINE
8
BLACK
6
CONTINUOUS
10
0.0995433
20
3.18354
11
0.186157
21
3.18354
0
LINE
8
BLACK
6
CONTINUOUS
10
0.186157
20
3.18354
11
0.189477
21
3.18323
0
LINE
8
BLACK
6
CONTINUOUS
10
3.17471
20
3.38167
11
3.17931
21
3.37933
0
LINE
8
BLACK
6
CONTINUOUS
10
3.17931
20
3.37933
11
3.18295
21
3.37568
0
LINE
8
BLACK
6
CONTINUOUS
10
3.18295
20
3.37568
11
3.1853
21
3.37109
0
LINE
8
BLACK
6
CONTINUOUS
10
3.1853
20
3.37109
11
3.1861
21
3.36599
0
LINE
8
BLACK
6
CONTINUOUS
10
3.1861
20
3.36599
11
3.1861
21
3.34582
0
LINE
8
BLACK
6
CONTINUOUS
10
3.1861
20
3.34582
11
3.1853
21
3.34072
0
LINE
8
BLACK
6
CONTINUOUS
10
3.1853
20
3.34072
11
3.18295
21
3.33613
0
LINE
8
BLACK
6
CONTINUOUS
10
3.18295
20
3.33613
11
3.17931
21
3.33248
0
LINE
8
BLACK
6
CONTINUOUS
10
3.17931
20
3.33248
11
3.17471
21
3.33014
0
LINE
8
BLACK
6
CONTINUOUS
10
3.17471
20
3.33014
11
3.16962
21
3.32933
0
LINE
8
BLACK
6
CONTINUOUS
10
3.16962
20
3.32933
11
3.15239
21
3.32933
0
LINE
8
BLACK
6
CONTINUOUS
10
3.15239
20
3.32933
11
3.1473
21
3.33014
0
LINE
8
BLACK
6
CONTINUOUS
10
3.1473
20
3.33014
11
3.1427
21
3.33248
0
LINE
8
BLACK
6
CONTINUOUS
10
3.1427
20
3.33248
11
3.13905
21
3.33613
0
LINE
8
BLACK
6
CONTINUOUS
10
3.13905
20
3.33613
11
3.13671
21
3.34072
0
LINE
8
BLACK
6
CONTINUOUS
10
3.13671
20
3.34072
11
3.13591
21
3.34582
0
LINE
8
BLACK
6
CONTINUOUS
10
3.13591
20
3.34582
11
3.13591
21
3.36599
0
LINE
8
BLACK
6
CONTINUOUS
10
3.13591
20
3.36599
11
3.13671
21
3.37109
0
LINE
8
BLACK
6
CONTINUOUS
10
3.13671
20
3.37109
11
3.13905
21
3.37568
0
LINE
8
BLACK
6
CONTINUOUS
10
3.13905
20
3.37568
11
3.1427
21
3.37933
0
LINE
8
BLACK
6
CONTINUOUS
10
3.1427
20
3.37933
11
3.1473
21
3.38167
0
LINE
8
BLACK
6
CONTINUOUS
10
3.1473
20
3.38167
11
3.15239
21
3.38248
0
LINE
8
BLACK
6
CONTINUOUS
10
3.15239
20
3.38248
11
3.16962
21
3.38248
0
LINE
8
BLACK
6
CONTINUOUS
10
3.16962
20
3.38248
11
3.17471
21
3.38167
0
LINE
8
BLACK
6
CONTINUOUS
10
3.1127
20
3.38167
11
3.1173
21
3.37933
0
LINE
8
BLACK
6
CONTINUOUS
10
3.1173
20
3.37933
11
3.12095
21
3.37568
0
LINE
8
BLACK
6
CONTINUOUS
10
3.12095
20
3.37568
11
3.12329
21
3.37109
0
LINE
8
BLACK
6
CONTINUOUS
10
3.12329
20
3.37109
11
3.12409
21
3.36599
0
LINE
8
BLACK
6
CONTINUOUS
10
3.12409
20
3.36599
11
3.12409
21
3.34582
0
LINE
8
BLACK
6
CONTINUOUS
10
3.12409
20
3.34582
11
3.12329
21
3.34072
0
LINE
8
BLACK
6
CONTINUOUS
10
3.12329
20
3.34072
11
3.12095
21
3.33613
0
LINE
8
BLACK
6
CONTINUOUS
10
3.12095
20
3.33613
11
3.1173
21
3.33248
0
LINE
8
BLACK
6
CONTINUOUS
10
3.1173
20
3.33248
11
3.1127
21
3.33014
0
LINE
8
BLACK
6
CONTINUOUS
10
3.1127
20
3.33014
11
3.10761
21
3.32933
0
LINE
8
BLACK
6
CONTINUOUS
10
3.10761
20
3.32933
11
3.09038
21
3.32933
0
LINE
8
BLACK
6
CONTINUOUS
10
3.09038
20
3.32933
11
3.08529
21
3.33014
0
LINE
8
BLACK
6
CONTINUOUS
10
3.08529
20
3.33014
11
3.08069
21
3.33248
0
LINE
8
BLACK
6
CONTINUOUS
10
3.08069
20
3.33248
11
3.07705
21
3.33613
0
LINE
8
BLACK
6
CONTINUOUS
10
3.07705
20
3.33613
11
3.0747
21
3.34072
0
LINE
8
BLACK
6
CONTINUOUS
10
3.0747
20
3.34072
11
3.0739
21
3.34582
0
LINE
8
BLACK
6
CONTINUOUS
10
3.0739
20
3.34582
11
3.0739
21
3.36599
0
LINE
8
BLACK
6
CONTINUOUS
10
3.0739
20
3.36599
11
3.0747
21
3.37109
0
LINE
8
BLACK
6
CONTINUOUS
10
3.0747
20
3.37109
11
3.07705
21
3.37568
0
LINE
8
BLACK
6
CONTINUOUS
10
3.07705
20
3.37568
11
3.08069
21
3.37933
0
LINE
8
BLACK
6
CONTINUOUS
10
3.08069
20
3.37933
11
3.08529
21
3.38167
0
LINE
8
BLACK
6
CONTINUOUS
10
3.08529
20
3.38167
11
3.09038
21
3.38248
0
LINE
8
BLACK
6
CONTINUOUS
10
3.09038
20
3.38248
11
3.10761
21
3.38248
0
LINE
8
BLACK
6
CONTINUOUS
10
3.10761
20
3.38248
11
3.1127
21
3.38167
0
LINE
8
BLACK
6
CONTINUOUS
10
3.40857
20
3.61392
11
3.41316
21
3.61158
0
LINE
8
BLACK
6
CONTINUOUS
10
3.41316
20
3.61158
11
3.41681
21
3.60793
0
LINE
8
BLACK
6
CONTINUOUS
10
3.41681
20
3.60793
11
3.41915
21
3.60333
0
LINE
8
BLACK
6
CONTINUOUS
10
3.41915
20
3.60333
11
3.41996
21
3.59824
0
LINE
8
BLACK
6
CONTINUOUS
10
3.41996
20
3.59824
11
3.41996
21
3.57806
0
LINE
8
BLACK
6
CONTINUOUS
10
3.41996
20
3.57806
11
3.41915
21
3.57297
0
LINE
8
BLACK
6
CONTINUOUS
10
3.41915
20
3.57297
11
3.41681
21
3.56837
0
LINE
8
BLACK
6
CONTINUOUS
10
3.41681
20
3.56837
11
3.41316
21
3.56472
0
LINE
8
BLACK
6
CONTINUOUS
10
3.41316
20
3.56472
11
3.40857
21
3.56238
0
LINE
8
BLACK
6
CONTINUOUS
10
3.40857
20
3.56238
11
3.40347
21
3.56157
0
LINE
8
BLACK
6
CONTINUOUS
10
3.40347
20
3.56157
11
3.38625
21
3.56157
0
LINE
8
BLACK
6
CONTINUOUS
10
3.38625
20
3.56157
11
3.38116
21
3.56238
0
LINE
8
BLACK
6
CONTINUOUS
10
3.38116
20
3.56238
11
3.37656
21
3.56472
0
LINE
8
BLACK
6
CONTINUOUS
10
3.37656
20
3.56472
11
3.37291
21
3.56837
0
LINE
8
BLACK
6
CONTINUOUS
10
3.37291
20
3.56837
11
3.37057
21
3.57297
0
LINE
8
BLACK
6
CONTINUOUS
10
3.37057
20
3.57297
11
3.36976
21
3.57806
0
LINE
8
BLACK
6
CONTINUOUS
10
3.36976
20
3.57806
11
3.36976
21
3.59824
0
LINE
8
BLACK
6
CONTINUOUS
10
3.36976
20
3.59824
11
3.37057
21
3.60333
0
LINE
8
BLACK
6
CONTINUOUS
10
3.37057
20
3.60333
11
3.37291
21
3.60793
0
LINE
8
BLACK
6
CONTINUOUS
10
3.37291
20
3.60793
11
3.37656
21
3.61158
0
LINE
8
BLACK
6
CONTINUOUS
10
3.37656
20
3.61158
11
3.38116
21
3.61392
0
LINE
8
BLACK
6
CONTINUOUS
10
3.38116
20
3.61392
11
3.38625
21
3.61472
0
LINE
8
BLACK
6
CONTINUOUS
10
3.38625
20
3.61472
11
3.40347
21
3.61472
0
LINE
8
BLACK
6
CONTINUOUS
10
3.40347
20
3.61472
11
3.40857
21
3.61392
0
LINE
8
BLACK
6
CONTINUOUS
10
3.34656
20
3.61392
11
3.35116
21
3.61158
0
LINE
8
BLACK
6
CONTINUOUS
10
3.35116
20
3.61158
11
3.3548
21
3.60793
0
LINE
8
BLACK
6
CONTINUOUS
10
3.3548
20
3.60793
11
3.35715
21
3.60333
0
LINE
8
BLACK
6
CONTINUOUS
10
3.35715
20
3.60333
11
3.35795
21
3.59824
0
LINE
8
BLACK
6
CONTINUOUS
10
3.35795
20
3.59824
11
3.35795
21
3.57806
0
LINE
8
BLACK
6
CONTINUOUS
10
3.35795
20
3.57806
11
3.35715
21
3.57297
0
LINE
8
BLACK
6
CONTINUOUS
10
3.35715
20
3.57297
11
3.3548
21
3.56837
0
LINE
8
BLACK
6
CONTINUOUS
10
3.3548
20
3.56837
11
3.35116
21
3.56472
0
LINE
8
BLACK
6
CONTINUOUS
10
3.35116
20
3.56472
11
3.34656
21
3.56238
0
LINE
8
BLACK
6
CONTINUOUS
10
3.34656
20
3.56238
11
3.34147
21
3.56157
0
LINE
8
BLACK
6
CONTINUOUS
10
3.34147
20
3.56157
11
3.32424
21
3.56157
0
LINE
8
BLACK
6
CONTINUOUS
10
3.32424
20
3.56157
11
3.31915
21
3.56238
0
LINE
8
BLACK
6
CONTINUOUS
10
3.31915
20
3.56238
11
3.31455
21
3.56472
0
LINE
8
BLACK
6
CONTINUOUS
10
3.31455
20
3.56472
11
3.3109
21
3.56837
0
LINE
8
BLACK
6
CONTINUOUS
10
3.3109
20
3.56837
11
3.30856
21
3.57297
0
LINE
8
BLACK
6
CONTINUOUS
10
3.30856
20
3.57297
11
3.30776
21
3.57806
0
LINE
8
BLACK
6
CONTINUOUS
10
3.30776
20
3.57806
11
3.30776
21
3.59824
0
LINE
8
BLACK
6
CONTINUOUS
10
3.30776
20
3.59824
11
3.30856
21
3.60333
0
LINE
8
BLACK
6
CONTINUOUS
10
3.30856
20
3.60333
11
3.3109
21
3.60793
0
LINE
8
BLACK
6
CONTINUOUS
10
3.3109
20
3.60793
11
3.31455
21
3.61158
0
LINE
8
BLACK
6
CONTINUOUS
10
3.31455
20
3.61158
11
3.31915
21
3.61392
0
LINE
8
BLACK
6
CONTINUOUS
10
3.31915
20
3.61392
11
3.32424
21
3.61472
0
LINE
8
BLACK
6
CONTINUOUS
10
3.32424
20
3.61472
11
3.34147
21
3.61472
0
LINE
8
BLACK
6
CONTINUOUS
10
3.34147
20
3.61472
11
3.34656
21
3.61392
0
LINE
8
BLACK
6
CONTINUOUS
10
0.755372
20
3.77648
11
0.764583
21
3.77484
0
LINE
8
BLACK
6
CONTINUOUS
10
0.764583
20
3.77484
11
0.773401
21
3.77172
0
LINE
8
BLACK
6
CONTINUOUS
10
0.773401
20
3.77172
11
0.781591
21
3.76719
0
LINE
8
BLACK
6
CONTINUOUS
10
0.781591
20
3.76719
11
0.788933
21
3.7614
0
LINE
8
BLACK
6
CONTINUOUS
10
0.788933
20
3.7614
11
0.795229
21
3.75448
0
LINE
8
BLACK
6
CONTINUOUS
10
0.795229
20
3.75448
11
0.800311
21
3.74662
0
LINE
8
BLACK
6
CONTINUOUS
10
0.800311
20
3.74662
11
0.804041
21
3.73804
0
LINE
8
BLACK
6
CONTINUOUS
10
0.804041
20
3.73804
11
0.80632
21
3.72897
0
LINE
8
BLACK
6
CONTINUOUS
10
0.80632
20
3.72897
11
0.807087
21
3.71965
0
LINE
8
BLACK
6
CONTINUOUS
10
0.807087
20
3.71965
11
0.807018
21
3.71686
0
LINE
8
BLACK
6
CONTINUOUS
10
0.807018
20
3.71686
11
0.805797
21
3.70758
0
LINE
8
BLACK
6
CONTINUOUS
10
0.805797
20
3.70758
11
0.803078
21
3.69863
0
LINE
8
BLACK
6
CONTINUOUS
10
0.803078
20
3.69863
11
0.798933
21
3.69024
0
LINE
8
BLACK
6
CONTINUOUS
10
0.798933
20
3.69024
11
0.793474
21
3.68265
0
LINE
8
BLACK
6
CONTINUOUS
10
0.793474
20
3.68265
11
0.786847
21
3.67604
0
LINE
8
BLACK
6
CONTINUOUS
10
0.786847
20
3.67604
11
0.779231
21
3.67061
0
LINE
8
BLACK
6
CONTINUOUS
10
0.779231
20
3.67061
11
0.77083
21
3.66649
0
LINE
8
BLACK
6
CONTINUOUS
10
0.77083
20
3.66649
11
0.761869
21
3.66381
0
LINE
8
BLACK
6
CONTINUOUS
10
0.761869
20
3.66381
11
0.75259
21
3.66262
0
LINE
8
BLACK
6
CONTINUOUS
10
0.75259
20
3.66262
11
0.743241
21
3.66296
0
LINE
8
BLACK
6
CONTINUOUS
10
0.743241
20
3.66296
11
0.734073
21
3.66483
0
LINE
8
BLACK
6
CONTINUOUS
10
0.734073
20
3.66483
11
0.725334
21
3.66816
0
LINE
8
BLACK
6
CONTINUOUS
10
0.725334
20
3.66816
11
0.717256
21
3.67288
0
LINE
8
BLACK
6
CONTINUOUS
10
0.717256
20
3.67288
11
0.710059
21
3.67886
0
LINE
8
BLACK
6
CONTINUOUS
10
0.710059
20
3.67886
11
0.703933
21
3.68593
0
LINE
8
BLACK
6
CONTINUOUS
10
0.703933
20
3.68593
11
0.699045
21
3.69391
0
LINE
8
BLACK
6
CONTINUOUS
10
0.699045
20
3.69391
11
0.695526
21
3.70257
0
LINE
8
BLACK
6
CONTINUOUS
10
0.695526
20
3.70257
11
0.693469
21
3.7117
0
LINE
8
BLACK
6
CONTINUOUS
10
0.693469
20
3.7117
11
0.69293
21
3.72104
0
LINE
8
BLACK
6
CONTINUOUS
10
0.69293
20
3.72104
11
0.693925
21
3.73034
0
LINE
8
BLACK
6
CONTINUOUS
10
0.693925
20
3.73034
11
0.696425
21
3.73936
0
LINE
8
BLACK
6
CONTINUOUS
10
0.696425
20
3.73936
11
0.700363
21
3.74784
0
LINE
8
BLACK
6
CONTINUOUS
10
0.700363
20
3.74784
11
0.705635
21
3.75557
0
LINE
8
BLACK
6
CONTINUOUS
10
0.705635
20
3.75557
11
0.712099
21
3.76233
0
LINE
8
BLACK
6
CONTINUOUS
10
0.712099
20
3.76233
11
0.71958
21
3.76795
0
LINE
8
BLACK
6
CONTINUOUS
10
0.71958
20
3.76795
11
0.727878
21
3.77227
0
LINE
8
BLACK
6
CONTINUOUS
10
0.727878
20
3.77227
11
0.73677
21
3.77518
0
LINE
8
BLACK
6
CONTINUOUS
10
0.73677
20
3.77518
11
0.746018
21
3.77659
0
LINE
8
BLACK
6
CONTINUOUS
10
0.746018
20
3.77659
11
0.755372
21
3.77648
0
LINE
8
BLACK
6
CONTINUOUS
10
0.723013
20
3.93818
11
0.725568
21
3.93647
0
LINE
8
BLACK
6
CONTINUOUS
10
0.725568
20
3.93647
11
0.727275
21
3.93392
0
LINE
8
BLACK
6
CONTINUOUS
10
0.727275
20
3.93392
11
0.727874
21
3.93091
0
LINE
8
BLACK
6
CONTINUOUS
10
0.727874
20
3.93091
11
0.727874
21
3.87091
0
LINE
8
BLACK
6
CONTINUOUS
10
0.727874
20
3.87091
11
0.727275
21
3.86789
0
LINE
8
BLACK
6
CONTINUOUS
10
0.727275
20
3.86789
11
0.725568
21
3.86534
0
LINE
8
BLACK
6
CONTINUOUS
10
0.725568
20
3.86534
11
0.723013
21
3.86363
0
LINE
8
BLACK
6
CONTINUOUS
10
0.723013
20
3.86363
11
0.72
21
3.86303
0
LINE
8
BLACK
6
CONTINUOUS
10
0.72
20
3.86303
11
0.66
21
3.86303
0
LINE
8
BLACK
6
CONTINUOUS
10
0.66
20
3.86303
11
0.656987
21
3.86363
0
LINE
8
BLACK
6
CONTINUOUS
10
0.656987
20
3.86363
11
0.654432
21
3.86534
0
LINE
8
BLACK
6
CONTINUOUS
10
0.654432
20
3.86534
11
0.652725
21
3.86789
0
LINE
8
BLACK
6
CONTINUOUS
10
0.652725
20
3.86789
11
0.652126
21
3.87091
0
LINE
8
BLACK
6
CONTINUOUS
10
0.652126
20
3.87091
11
0.652126
21
3.93091
0
LINE
8
BLACK
6
CONTINUOUS
10
0.652126
20
3.93091
11
0.652725
21
3.93392
0
LINE
8
BLACK
6
CONTINUOUS
10
0.652725
20
3.93392
11
0.654432
21
3.93647
0
LINE
8
BLACK
6
CONTINUOUS
10
0.654432
20
3.93647
11
0.656987
21
3.93818
0
LINE
8
BLACK
6
CONTINUOUS
10
0.656987
20
3.93818
11
0.66
21
3.93878
0
LINE
8
BLACK
6
CONTINUOUS
10
0.66
20
3.93878
11
0.72
21
3.93878
0
LINE
8
BLACK
6
CONTINUOUS
10
0.72
20
3.93878
11
0.723013
21
3.93818
0
LINE
8
BLACK
6
CONTINUOUS
10
0.323013
20
3.93818
11
0.325568
21
3.93647
0
LINE
8
BLACK
6
CONTINUOUS
10
0.325568
20
3.93647
11
0.327275
21
3.93392
0
LINE
8
BLACK
6
CONTINUOUS
10
0.327275
20
3.93392
11
0.327874
21
3.93091
0
LINE
8
BLACK
6
CONTINUOUS
10
0.327874
20
3.93091
11
0.327874
21
3.87091
0
LINE
8
BLACK
6
CONTINUOUS
10
0.327874
20
3.87091
11
0.327275
21
3.86789
0
LINE
8
BLACK
6
CONTINUOUS
10
0.327275
20
3.86789
11
0.325568
21
3.86534
0
LINE
8
BLACK
6
CONTINUOUS
10
0.325568
20
3.86534
11
0.323013
21
3.86363
0
LINE
8
BLACK
6
CONTINUOUS
10
0.323013
20
3.86363
11
0.32
21
3.86303
0
LINE
8
BLACK
6
CONTINUOUS
10
0.32
20
3.86303
11
0.26
21
3.86303
0
LINE
8
BLACK
6
CONTINUOUS
10
0.26
20
3.86303
11
0.256987
21
3.86363
0
LINE
8
BLACK
6
CONTINUOUS
10
0.256987
20
3.86363
11
0.254432
21
3.86534
0
LINE
8
BLACK
6
CONTINUOUS
10
0.254432
20
3.86534
11
0.252725
21
3.86789
0
LINE
8
BLACK
6
CONTINUOUS
10
0.252725
20
3.86789
11
0.252126
21
3.87091
0
LINE
8
BLACK
6
CONTINUOUS
10
0.252126
20
3.87091
11
0.252126
21
3.93091
0
LINE
8
BLACK
6
CONTINUOUS
10
0.252126
20
3.93091
11
0.252725
21
3.93392
0
LINE
8
BLACK
6
CONTINUOUS
10
0.252725
20
3.93392
11
0.254432
21
3.93647
0
LINE
8
BLACK
6
CONTINUOUS
10
0.254432
20
3.93647
11
0.256987
21
3.93818
0
LINE
8
BLACK
6
CONTINUOUS
10
0.256987
20
3.93818
11
0.26
21
3.93878
0
LINE
8
BLACK
6
CONTINUOUS
10
0.26
20
3.93878
11
0.32
21
3.93878
0
LINE
8
BLACK
6
CONTINUOUS
10
0.32
20
3.93878
11
0.323013
21
3.93818
0
LINE
8
BLACK
6
CONTINUOUS
10
0.623013
20
3.93818
11
0.625568
21
3.93647
0
LINE
8
BLACK
6
CONTINUOUS
10
0.625568
20
3.93647
11
0.627275
21
3.93392
0
LINE
8
BLACK
6
CONTINUOUS
10
0.627275
20
3.93392
11
0.627874
21
3.93091
0
LINE
8
BLACK
6
CONTINUOUS
10
0.627874
20
3.93091
11
0.627874
21
3.87091
0
LINE
8
BLACK
6
CONTINUOUS
10
0.627874
20
3.87091
11
0.627275
21
3.86789
0
LINE
8
BLACK
6
CONTINUOUS
10
0.627275
20
3.86789
11
0.625568
21
3.86534
0
LINE
8
BLACK
6
CONTINUOUS
10
0.625568
20
3.86534
11
0.623013
21
3.86363
0
LINE
8
BLACK
6
CONTINUOUS
10
0.623013
20
3.86363
11
0.62
21
3.86303
0
LINE
8
BLACK
6
CONTINUOUS
10
0.62
20
3.86303
11
0.56
21
3.86303
0
LINE
8
BLACK
6
CONTINUOUS
10
0.56
20
3.86303
11
0.556987
21
3.86363
0
LINE
8
BLACK
6
CONTINUOUS
10
0.556987
20
3.86363
11
0.554432
21
3.86534
0
LINE
8
BLACK
6
CONTINUOUS
10
0.554432
20
3.86534
11
0.552725
21
3.86789
0
LINE
8
BLACK
6
CONTINUOUS
10
0.552725
20
3.86789
11
0.552126
21
3.87091
0
LINE
8
BLACK
6
CONTINUOUS
10
0.552126
20
3.87091
11
0.552126
21
3.93091
0
LINE
8
BLACK
6
CONTINUOUS
10
0.552126
20
3.93091
11
0.552725
21
3.93392
0
LINE
8
BLACK
6
CONTINUOUS
10
0.552725
20
3.93392
11
0.554432
21
3.93647
0
LINE
8
BLACK
6
CONTINUOUS
10
0.554432
20
3.93647
11
0.556987
21
3.93818
0
LINE
8
BLACK
6
CONTINUOUS
10
0.556987
20
3.93818
11
0.56
21
3.93878
0
LINE
8
BLACK
6
CONTINUOUS
10
0.56
20
3.93878
11
0.62
21
3.93878
0
LINE
8
BLACK
6
CONTINUOUS
10
0.62
20
3.93878
11
0.623013
21
3.93818
0
LINE
8
BLACK
6
CONTINUOUS
10
0.423013
20
3.93818
11
0.425568
21
3.93647
0
LINE
8
BLACK
6
CONTINUOUS
10
0.425568
20
3.93647
11
0.427275
21
3.93392
0
LINE
8
BLACK
6
CONTINUOUS
10
0.427275
20
3.93392
11
0.427874
21
3.93091
0
LINE
8
BLACK
6
CONTINUOUS
10
0.427874
20
3.93091
11
0.427874
21
3.87091
0
LINE
8
BLACK
6
CONTINUOUS
10
0.427874
20
3.87091
11
0.427275
21
3.86789
0
LINE
8
BLACK
6
CONTINUOUS
10
0.427275
20
3.86789
11
0.425568
21
3.86534
0
LINE
8
BLACK
6
CONTINUOUS
10
0.425568
20
3.86534
11
0.423013
21
3.86363
0
LINE
8
BLACK
6
CONTINUOUS
10
0.423013
20
3.86363
11
0.42
21
3.86303
0
LINE
8
BLACK
6
CONTINUOUS
10
0.42
20
3.86303
11
0.36
21
3.86303
0
LINE
8
BLACK
6
CONTINUOUS
10
0.36
20
3.86303
11
0.356987
21
3.86363
0
LINE
8
BLACK
6
CONTINUOUS
10
0.356987
20
3.86363
11
0.354432
21
3.86534
0
LINE
8
BLACK
6
CONTINUOUS
10
0.354432
20
3.86534
11
0.352725
21
3.86789
0
LINE
8
BLACK
6
CONTINUOUS
10
0.352725
20
3.86789
11
0.352126
21
3.87091
0
LINE
8
BLACK
6
CONTINUOUS
10
0.352126
20
3.87091
11
0.352126
21
3.93091
0
LINE
8
BLACK
6
CONTINUOUS
10
0.352126
20
3.93091
11
0.352725
21
3.93392
0
LINE
8
BLACK
6
CONTINUOUS
10
0.352725
20
3.93392
11
0.354432
21
3.93647
0
LINE
8
BLACK
6
CONTINUOUS
10
0.354432
20
3.93647
11
0.356987
21
3.93818
0
LINE
8
BLACK
6
CONTINUOUS
10
0.356987
20
3.93818
11
0.36
21
3.93878
0
LINE
8
BLACK
6
CONTINUOUS
10
0.36
20
3.93878
11
0.42
21
3.93878
0
LINE
8
BLACK
6
CONTINUOUS
10
0.42
20
3.93878
11
0.423013
21
3.93818
0
LINE
8
BLACK
6
CONTINUOUS
10
0.523013
20
3.93818
11
0.525568
21
3.93647
0
LINE
8
BLACK
6
CONTINUOUS
10
0.525568
20
3.93647
11
0.527275
21
3.93392
0
LINE
8
BLACK
6
CONTINUOUS
10
0.527275
20
3.93392
11
0.527874
21
3.93091
0
LINE
8
BLACK
6
CONTINUOUS
10
0.527874
20
3.93091
11
0.527874
21
3.87091
0
LINE
8
BLACK
6
CONTINUOUS
10
0.527874
20
3.87091
11
0.527275
21
3.86789
0
LINE
8
BLACK
6
CONTINUOUS
10
0.527275
20
3.86789
11
0.525568
21
3.86534
0
LINE
8
BLACK
6
CONTINUOUS
10
0.525568
20
3.86534
11
0.523013
21
3.86363
0
LINE
8
BLACK
6
CONTINUOUS
10
0.523013
20
3.86363
11
0.52
21
3.86303
0
LINE
8
BLACK
6
CONTINUOUS
10
0.52
20
3.86303
11
0.46
21
3.86303
0
LINE
8
BLACK
6
CONTINUOUS
10
0.46
20
3.86303
11
0.456987
21
3.86363
0
LINE
8
BLACK
6
CONTINUOUS
10
0.456987
20
3.86363
11
0.454432
21
3.86534
0
LINE
8
BLACK
6
CONTINUOUS
10
0.454432
20
3.86534
11
0.452725
21
3.86789
0
LINE
8
BLACK
6
CONTINUOUS
10
0.452725
20
3.86789
11
0.452126
21
3.87091
0
LINE
8
BLACK
6
CONTINUOUS
10
0.452126
20
3.87091
11
0.452126
21
3.93091
0
LINE
8
BLACK
6
CONTINUOUS
10
0.452126
20
3.93091
11
0.452725
21
3.93392
0
LINE
8
BLACK
6
CONTINUOUS
10
0.452725
20
3.93392
11
0.454432
21
3.93647
0
LINE
8
BLACK
6
CONTINUOUS
10
0.454432
20
3.93647
11
0.456987
21
3.93818
0
LINE
8
BLACK
6
CONTINUOUS
10
0.456987
20
3.93818
11
0.46
21
3.93878
0
LINE
8
BLACK
6
CONTINUOUS
10
0.46
20
3.93878
11
0.52
21
3.93878
0
LINE
8
BLACK
6
CONTINUOUS
10
0.52
20
3.93878
11
0.523013
21
3.93818
0
LINE
8
BLACK
6
CONTINUOUS
10
0.323013
20
4.03818
11
0.325568
21
4.03647
0
LINE
8
BLACK
6
CONTINUOUS
10
0.325568
20
4.03647
11
0.327275
21
4.03392
0
LINE
8
BLACK
6
CONTINUOUS
10
0.327275
20
4.03392
11
0.327874
21
4.03091
0
LINE
8
BLACK
6
CONTINUOUS
10
0.327874
20
4.03091
11
0.327874
21
3.97091
0
LINE
8
BLACK
6
CONTINUOUS
10
0.327874
20
3.97091
11
0.327275
21
3.96789
0
LINE
8
BLACK
6
CONTINUOUS
10
0.327275
20
3.96789
11
0.325568
21
3.96534
0
LINE
8
BLACK
6
CONTINUOUS
10
0.325568
20
3.96534
11
0.323013
21
3.96363
0
LINE
8
BLACK
6
CONTINUOUS
10
0.323013
20
3.96363
11
0.32
21
3.96303
0
LINE
8
BLACK
6
CONTINUOUS
10
0.32
20
3.96303
11
0.26
21
3.96303
0
LINE
8
BLACK
6
CONTINUOUS
10
0.26
20
3.96303
11
0.256987
21
3.96363
0
LINE
8
BLACK
6
CONTINUOUS
10
0.256987
20
3.96363
11
0.254432
21
3.96534
0
LINE
8
BLACK
6
CONTINUOUS
10
0.254432
20
3.96534
11
0.252725
21
3.96789
0
LINE
8
BLACK
6
CONTINUOUS
10
0.252725
20
3.96789
11
0.252126
21
3.97091
0
LINE
8
BLACK
6
CONTINUOUS
10
0.252126
20
3.97091
11
0.252126
21
4.03091
0
LINE
8
BLACK
6
CONTINUOUS
10
0.252126
20
4.03091
11
0.252725
21
4.03392
0
LINE
8
BLACK
6
CONTINUOUS
10
0.252725
20
4.03392
11
0.254432
21
4.03647
0
LINE
8
BLACK
6
CONTINUOUS
10
0.254432
20
4.03647
11
0.256987
21
4.03818
0
LINE
8
BLACK
6
CONTINUOUS
10
0.256987
20
4.03818
11
0.26
21
4.03878
0
LINE
8
BLACK
6
CONTINUOUS
10
0.26
20
4.03878
11
0.32
21
4.03878
0
LINE
8
BLACK
6
CONTINUOUS
10
0.32
20
4.03878
11
0.323013
21
4.03818
0
LINE
8
BLACK
6
CONTINUOUS
10
0.423013
20
4.03818
11
0.425568
21
4.03647
0
LINE
8
BLACK
6
CONTINUOUS
10
0.425568
20
4.03647
11
0.427275
21
4.03392
0
LINE
8
BLACK
6
CONTINUOUS
10
0.427275
20
4.03392
11
0.427874
21
4.03091
0
LINE
8
BLACK
6
CONTINUOUS
10
0.427874
20
4.03091
11
0.427874
21
3.97091
0
LINE
8
BLACK
6
CONTINUOUS
10
0.427874
20
3.97091
11
0.427275
21
3.96789
0
LINE
8
BLACK
6
CONTINUOUS
10
0.427275
20
3.96789
11
0.425568
21
3.96534
0
LINE
8
BLACK
6
CONTINUOUS
10
0.425568
20
3.96534
11
0.423013
21
3.96363
0
LINE
8
BLACK
6
CONTINUOUS
10
0.423013
20
3.96363
11
0.42
21
3.96303
0
LINE
8
BLACK
6
CONTINUOUS
10
0.42
20
3.96303
11
0.36
21
3.96303
0
LINE
8
BLACK
6
CONTINUOUS
10
0.36
20
3.96303
11
0.356987
21
3.96363
0
LINE
8
BLACK
6
CONTINUOUS
10
0.356987
20
3.96363
11
0.354432
21
3.96534
0
LINE
8
BLACK
6
CONTINUOUS
10
0.354432
20
3.96534
11
0.352725
21
3.96789
0
LINE
8
BLACK
6
CONTINUOUS
10
0.352725
20
3.96789
11
0.352126
21
3.97091
0
LINE
8
BLACK
6
CONTINUOUS
10
0.352126
20
3.97091
11
0.352126
21
4.03091
0
LINE
8
BLACK
6
CONTINUOUS
10
0.352126
20
4.03091
11
0.352725
21
4.03392
0
LINE
8
BLACK
6
CONTINUOUS
10
0.352725
20
4.03392
11
0.354432
21
4.03647
0
LINE
8
BLACK
6
CONTINUOUS
10
0.354432
20
4.03647
11
0.356987
21
4.03818
0
LINE
8
BLACK
6
CONTINUOUS
10
0.356987
20
4.03818
11
0.36
21
4.03878
0
LINE
8
BLACK
6
CONTINUOUS
10
0.36
20
4.03878
11
0.42
21
4.03878
0
LINE
8
BLACK
6
CONTINUOUS
10
0.42
20
4.03878
11
0.423013
21
4.03818
0
LINE
8
BLACK
6
CONTINUOUS
10
0.523013
20
4.03818
11
0.525568
21
4.03647
0
LINE
8
BLACK
6
CONTINUOUS
10
0.525568
20
4.03647
11
0.527275
21
4.03392
0
LINE
8
BLACK
6
CONTINUOUS
10
0.527275
20
4.03392
11
0.527874
21
4.03091
0
LINE
8
BLACK
6
CONTINUOUS
10
0.527874
20
4.03091
11
0.527874
21
3.97091
0
LINE
8
BLACK
6
CONTINUOUS
10
0.527874
20
3.97091
11
0.527275
21
3.96789
0
LINE
8
BLACK
6
CONTINUOUS
10
0.527275
20
3.96789
11
0.525568
21
3.96534
0
LINE
8
BLACK
6
CONTINUOUS
10
0.525568
20
3.96534
11
0.523013
21
3.96363
0
LINE
8
BLACK
6
CONTINUOUS
10
0.523013
20
3.96363
11
0.52
21
3.96303
0
LINE
8
BLACK
6
CONTINUOUS
10
0.52
20
3.96303
11
0.46
21
3.96303
0
LINE
8
BLACK
6
CONTINUOUS
10
0.46
20
3.96303
11
0.456987
21
3.96363
0
LINE
8
BLACK
6
CONTINUOUS
10
0.456987
20
3.96363
11
0.454432
21
3.96534
0
LINE
8
BLACK
6
CONTINUOUS
10
0.454432
20
3.96534
11
0.452725
21
3.96789
0
LINE
8
BLACK
6
CONTINUOUS
10
0.452725
20
3.96789
11
0.452126
21
3.97091
0
LINE
8
BLACK
6
CONTINUOUS
10
0.452126
20
3.97091
11
0.452126
21
4.03091
0
LINE
8
BLACK
6
CONTINUOUS
10
0.452126
20
4.03091
11
0.452725
21
4.03392
0
LINE
8
BLACK
6
CONTINUOUS
10
0.452725
20
4.03392
11
0.454432
21
4.03647
0
LINE
8
BLACK
6
CONTINUOUS
10
0.454432
20
4.03647
11
0.456987
21
4.03818
0
LINE
8
BLACK
6
CONTINUOUS
10
0.456987
20
4.03818
11
0.46
21
4.03878
0
LINE
8
BLACK
6
CONTINUOUS
10
0.46
20
4.03878
11
0.52
21
4.03878
0
LINE
8
BLACK
6
CONTINUOUS
10
0.52
20
4.03878
11
0.523013
21
4.03818
0
LINE
8
BLACK
6
CONTINUOUS
10
0.623013
20
4.03818
11
0.625568
21
4.03647
0
LINE
8
BLACK
6
CONTINUOUS
10
0.625568
20
4.03647
11
0.627275
21
4.03392
0
LINE
8
BLACK
6
CONTINUOUS
10
0.627275
20
4.03392
11
0.627874
21
4.03091
0
LINE
8
BLACK
6
CONTINUOUS
10
0.627874
20
4.03091
11
0.627874
21
3.97091
0
LINE
8
BLACK
6
CONTINUOUS
10
0.627874
20
3.97091
11
0.627275
21
3.96789
0
LINE
8
BLACK
6
CONTINUOUS
10
0.627275
20
3.96789
11
0.625568
21
3.96534
0
LINE
8
BLACK
6
CONTINUOUS
10
0.625568
20
3.96534
11
0.623013
21
3.96363
0
LINE
8
BLACK
6
CONTINUOUS
10
0.623013
20
3.96363
11
0.62
21
3.96303
0
LINE
8
BLACK
6
CONTINUOUS
10
0.62
20
3.96303
11
0.56
21
3.96303
0
LINE
8
BLACK
6
CONTINUOUS
10
0.56
20
3.96303
11
0.556987
21
3.96363
0
LINE
8
BLACK
6
CONTINUOUS
10
0.556987
20
3.96363
11
0.554432
21
3.96534
0
LINE
8
BLACK
6
CONTINUOUS
10
0.554432
20
3.96534
11
0.552725
21
3.96789
0
LINE
8
BLACK
6
CONTINUOUS
10
0.552725
20
3.96789
11
0.552126
21
3.97091
0
LINE
8
BLACK
6
CONTINUOUS
10
0.552126
20
3.97091
11
0.552126
21
4.03091
0
LINE
8
BLACK
6
CONTINUOUS
10
0.552126
20
4.03091
11
0.552725
21
4.03392
0
LINE
8
BLACK
6
CONTINUOUS
10
0.552725
20
4.03392
11
0.554432
21
4.03647
0
LINE
8
BLACK
6
CONTINUOUS
10
0.554432
20
4.03647
11
0.556987
21
4.03818
0
LINE
8
BLACK
6
CONTINUOUS
10
0.556987
20
4.03818
11
0.56
21
4.03878
0
LINE
8
BLACK
6
CONTINUOUS
10
0.56
20
4.03878
11
0.62
21
4.03878
0
LINE
8
BLACK
6
CONTINUOUS
10
0.62
20
4.03878
11
0.623013
21
4.03818
0
LINE
8
BLACK
6
CONTINUOUS
10
0.723013
20
4.03818
11
0.725568
21
4.03647
0
LINE
8
BLACK
6
CONTINUOUS
10
0.725568
20
4.03647
11
0.727275
21
4.03392
0
LINE
8
BLACK
6
CONTINUOUS
10
0.727275
20
4.03392
11
0.727874
21
4.03091
0
LINE
8
BLACK
6
CONTINUOUS
10
0.727874
20
4.03091
11
0.727874
21
3.97091
0
LINE
8
BLACK
6
CONTINUOUS
10
0.727874
20
3.97091
11
0.727275
21
3.96789
0
LINE
8
BLACK
6
CONTINUOUS
10
0.727275
20
3.96789
11
0.725568
21
3.96534
0
LINE
8
BLACK
6
CONTINUOUS
10
0.725568
20
3.96534
11
0.723013
21
3.96363
0
LINE
8
BLACK
6
CONTINUOUS
10
0.723013
20
3.96363
11
0.72
21
3.96303
0
LINE
8
BLACK
6
CONTINUOUS
10
0.72
20
3.96303
11
0.66
21
3.96303
0
LINE
8
BLACK
6
CONTINUOUS
10
0.66
20
3.96303
11
0.656987
21
3.96363
0
LINE
8
BLACK
6
CONTINUOUS
10
0.656987
20
3.96363
11
0.654432
21
3.96534
0
LINE
8
BLACK
6
CONTINUOUS
10
0.654432
20
3.96534
11
0.652725
21
3.96789
0
LINE
8
BLACK
6
CONTINUOUS
10
0.652725
20
3.96789
11
0.652126
21
3.97091
0
LINE
8
BLACK
6
CONTINUOUS
10
0.652126
20
3.97091
11
0.652126
21
4.03091
0
LINE
8
BLACK
6
CONTINUOUS
10
0.652126
20
4.03091
11
0.652725
21
4.03392
0
LINE
8
BLACK
6
CONTINUOUS
10
0.652725
20
4.03392
11
0.654432
21
4.03647
0
LINE
8
BLACK
6
CONTINUOUS
10
0.654432
20
4.03647
11
0.656987
21
4.03818
0
LINE
8
BLACK
6
CONTINUOUS
10
0.656987
20
4.03818
11
0.66
21
4.03878
0
LINE
8
BLACK
6
CONTINUOUS
10
0.66
20
4.03878
11
0.72
21
4.03878
0
LINE
8
BLACK
6
CONTINUOUS
10
0.72
20
4.03878
11
0.723013
21
4.03818
0
LINE
8
BLACK
6
CONTINUOUS
10
1.32301
20
4.22818
11
1.32557
21
4.22647
0
LINE
8
BLACK
6
CONTINUOUS
10
1.32557
20
4.22647
11
1.32727
21
4.22392
0
LINE
8
BLACK
6
CONTINUOUS
10
1.32727
20
4.22392
11
1.32787
21
4.22091
0
LINE
8
BLACK
6
CONTINUOUS
10
1.32787
20
4.22091
11
1.32787
21
4.16091
0
LINE
8
BLACK
6
CONTINUOUS
10
1.32787
20
4.16091
11
1.32727
21
4.15789
0
LINE
8
BLACK
6
CONTINUOUS
10
1.32727
20
4.15789
11
1.32557
21
4.15534
0
LINE
8
BLACK
6
CONTINUOUS
10
1.32557
20
4.15534
11
1.32301
21
4.15363
0
LINE
8
BLACK
6
CONTINUOUS
10
1.32301
20
4.15363
11
1.32
21
4.15303
0
LINE
8
BLACK
6
CONTINUOUS
10
1.32
20
4.15303
11
1.26
21
4.15303
0
LINE
8
BLACK
6
CONTINUOUS
10
1.26
20
4.15303
11
1.25699
21
4.15363
0
LINE
8
BLACK
6
CONTINUOUS
10
1.25699
20
4.15363
11
1.25443
21
4.15534
0
LINE
8
BLACK
6
CONTINUOUS
10
1.25443
20
4.15534
11
1.25273
21
4.15789
0
LINE
8
BLACK
6
CONTINUOUS
10
1.25273
20
4.15789
11
1.25213
21
4.16091
0
LINE
8
BLACK
6
CONTINUOUS
10
1.25213
20
4.16091
11
1.25213
21
4.22091
0
LINE
8
BLACK
6
CONTINUOUS
10
1.25213
20
4.22091
11
1.25273
21
4.22392
0
LINE
8
BLACK
6
CONTINUOUS
10
1.25273
20
4.22392
11
1.25443
21
4.22647
0
LINE
8
BLACK
6
CONTINUOUS
10
1.25443
20
4.22647
11
1.25699
21
4.22818
0
LINE
8
BLACK
6
CONTINUOUS
10
1.25699
20
4.22818
11
1.26
21
4.22878
0
LINE
8
BLACK
6
CONTINUOUS
10
1.26
20
4.22878
11
1.32
21
4.22878
0
LINE
8
BLACK
6
CONTINUOUS
10
1.32
20
4.22878
11
1.32301
21
4.22818
0
LINE
8
BLACK
6
CONTINUOUS
10
1.12301
20
4.22818
11
1.12557
21
4.22647
0
LINE
8
BLACK
6
CONTINUOUS
10
1.12557
20
4.22647
11
1.12727
21
4.22392
0
LINE
8
BLACK
6
CONTINUOUS
10
1.12727
20
4.22392
11
1.12787
21
4.22091
0
LINE
8
BLACK
6
CONTINUOUS
10
1.12787
20
4.22091
11
1.12787
21
4.16091
0
LINE
8
BLACK
6
CONTINUOUS
10
1.12787
20
4.16091
11
1.12727
21
4.15789
0
LINE
8
BLACK
6
CONTINUOUS
10
1.12727
20
4.15789
11
1.12557
21
4.15534
0
LINE
8
BLACK
6
CONTINUOUS
10
1.12557
20
4.15534
11
1.12301
21
4.15363
0
LINE
8
BLACK
6
CONTINUOUS
10
1.12301
20
4.15363
11
1.12
21
4.15303
0
LINE
8
BLACK
6
CONTINUOUS
10
1.12
20
4.15303
11
1.06
21
4.15303
0
LINE
8
BLACK
6
CONTINUOUS
10
1.06
20
4.15303
11
1.05699
21
4.15363
0
LINE
8
BLACK
6
CONTINUOUS
10
1.05699
20
4.15363
11
1.05443
21
4.15534
0
LINE
8
BLACK
6
CONTINUOUS
10
1.05443
20
4.15534
11
1.05273
21
4.15789
0
LINE
8
BLACK
6
CONTINUOUS
10
1.05273
20
4.15789
11
1.05213
21
4.16091
0
LINE
8
BLACK
6
CONTINUOUS
10
1.05213
20
4.16091
11
1.05213
21
4.22091
0
LINE
8
BLACK
6
CONTINUOUS
10
1.05213
20
4.22091
11
1.05273
21
4.22392
0
LINE
8
BLACK
6
CONTINUOUS
10
1.05273
20
4.22392
11
1.05443
21
4.22647
0
LINE
8
BLACK
6
CONTINUOUS
10
1.05443
20
4.22647
11
1.05699
21
4.22818
0
LINE
8
BLACK
6
CONTINUOUS
10
1.05699
20
4.22818
11
1.06
21
4.22878
0
LINE
8
BLACK
6
CONTINUOUS
10
1.06
20
4.22878
11
1.12
21
4.22878
0
LINE
8
BLACK
6
CONTINUOUS
10
1.12
20
4.22878
11
1.12301
21
4.22818
0
LINE
8
BLACK
6
CONTINUOUS
10
0.923013
20
4.22818
11
0.925568
21
4.22647
0
LINE
8
BLACK
6
CONTINUOUS
10
0.925568
20
4.22647
11
0.927275
21
4.22392
0
LINE
8
BLACK
6
CONTINUOUS
10
0.927275
20
4.22392
11
0.927874
21
4.22091
0
LINE
8
BLACK
6
CONTINUOUS
10
0.927874
20
4.22091
11
0.927874
21
4.16091
0
LINE
8
BLACK
6
CONTINUOUS
10
0.927874
20
4.16091
11
0.927275
21
4.15789
0
LINE
8
BLACK
6
CONTINUOUS
10
0.927275
20
4.15789
11
0.925568
21
4.15534
0
LINE
8
BLACK
6
CONTINUOUS
10
0.925568
20
4.15534
11
0.923013
21
4.15363
0
LINE
8
BLACK
6
CONTINUOUS
10
0.923013
20
4.15363
11
0.92
21
4.15303
0
LINE
8
BLACK
6
CONTINUOUS
10
0.92
20
4.15303
11
0.86
21
4.15303
0
LINE
8
BLACK
6
CONTINUOUS
10
0.86
20
4.15303
11
0.856987
21
4.15363
0
LINE
8
BLACK
6
CONTINUOUS
10
0.856987
20
4.15363
11
0.854432
21
4.15534
0
LINE
8
BLACK
6
CONTINUOUS
10
0.854432
20
4.15534
11
0.852725
21
4.15789
0
LINE
8
BLACK
6
CONTINUOUS
10
0.852725
20
4.15789
11
0.852126
21
4.16091
0
LINE
8
BLACK
6
CONTINUOUS
10
0.852126
20
4.16091
11
0.852126
21
4.22091
0
LINE
8
BLACK
6
CONTINUOUS
10
0.852126
20
4.22091
11
0.852725
21
4.22392
0
LINE
8
BLACK
6
CONTINUOUS
10
0.852725
20
4.22392
11
0.854432
21
4.22647
0
LINE
8
BLACK
6
CONTINUOUS
10
0.854432
20
4.22647
11
0.856987
21
4.22818
0
LINE
8
BLACK
6
CONTINUOUS
10
0.856987
20
4.22818
11
0.86
21
4.22878
0
LINE
8
BLACK
6
CONTINUOUS
10
0.86
20
4.22878
11
0.92
21
4.22878
0
LINE
8
BLACK
6
CONTINUOUS
10
0.92
20
4.22878
11
0.923013
21
4.22818
0
LINE
8
BLACK
6
CONTINUOUS
10
0.823013
20
4.22818
11
0.825568
21
4.22647
0
LINE
8
BLACK
6
CONTINUOUS
10
0.825568
20
4.22647
11
0.827275
21
4.22392
0
LINE
8
BLACK
6
CONTINUOUS
10
0.827275
20
4.22392
11
0.827874
21
4.22091
0
LINE
8
BLACK
6
CONTINUOUS
10
0.827874
20
4.22091
11
0.827874
21
4.16091
0
LINE
8
BLACK
6
CONTINUOUS
10
0.827874
20
4.16091
11
0.827275
21
4.15789
0
LINE
8
BLACK
6
CONTINUOUS
10
0.827275
20
4.15789
11
0.825568
21
4.15534
0
LINE
8
BLACK
6
CONTINUOUS
10
0.825568
20
4.15534
11
0.823013
21
4.15363
0
LINE
8
BLACK
6
CONTINUOUS
10
0.823013
20
4.15363
11
0.82
21
4.15303
0
LINE
8
BLACK
6
CONTINUOUS
10
0.82
20
4.15303
11
0.76
21
4.15303
0
LINE
8
BLACK
6
CONTINUOUS
10
0.76
20
4.15303
11
0.756987
21
4.15363
0
LINE
8
BLACK
6
CONTINUOUS
10
0.756987
20
4.15363
11
0.754432
21
4.15534
0
LINE
8
BLACK
6
CONTINUOUS
10
0.754432
20
4.15534
11
0.752725
21
4.15789
0
LINE
8
BLACK
6
CONTINUOUS
10
0.752725
20
4.15789
11
0.752126
21
4.16091
0
LINE
8
BLACK
6
CONTINUOUS
10
0.752126
20
4.16091
11
0.752126
21
4.22091
0
LINE
8
BLACK
6
CONTINUOUS
10
0.752126
20
4.22091
11
0.752725
21
4.22392
0
LINE
8
BLACK
6
CONTINUOUS
10
0.752725
20
4.22392
11
0.754432
21
4.22647
0
LINE
8
BLACK
6
CONTINUOUS
10
0.754432
20
4.22647
11
0.756987
21
4.22818
0
LINE
8
BLACK
6
CONTINUOUS
10
0.756987
20
4.22818
11
0.76
21
4.22878
0
LINE
8
BLACK
6
CONTINUOUS
10
0.76
20
4.22878
11
0.82
21
4.22878
0
LINE
8
BLACK
6
CONTINUOUS
10
0.82
20
4.22878
11
0.823013
21
4.22818
0
LINE
8
BLACK
6
CONTINUOUS
10
1.22301
20
4.22818
11
1.22557
21
4.22647
0
LINE
8
BLACK
6
CONTINUOUS
10
1.22557
20
4.22647
11
1.22727
21
4.22392
0
LINE
8
BLACK
6
CONTINUOUS
10
1.22727
20
4.22392
11
1.22787
21
4.22091
0
LINE
8
BLACK
6
CONTINUOUS
10
1.22787
20
4.22091
11
1.22787
21
4.16091
0
LINE
8
BLACK
6
CONTINUOUS
10
1.22787
20
4.16091
11
1.22727
21
4.15789
0
LINE
8
BLACK
6
CONTINUOUS
10
1.22727
20
4.15789
11
1.22557
21
4.15534
0
LINE
8
BLACK
6
CONTINUOUS
10
1.22557
20
4.15534
11
1.22301
21
4.15363
0
LINE
8
BLACK
6
CONTINUOUS
10
1.22301
20
4.15363
11
1.22
21
4.15303
0
LINE
8
BLACK
6
CONTINUOUS
10
1.22
20
4.15303
11
1.16
21
4.15303
0
LINE
8
BLACK
6
CONTINUOUS
10
1.16
20
4.15303
11
1.15699
21
4.15363
0
LINE
8
BLACK
6
CONTINUOUS
10
1.15699
20
4.15363
11
1.15443
21
4.15534
0
LINE
8
BLACK
6
CONTINUOUS
10
1.15443
20
4.15534
11
1.15273
21
4.15789
0
LINE
8
BLACK
6
CONTINUOUS
10
1.15273
20
4.15789
11
1.15213
21
4.16091
0
LINE
8
BLACK
6
CONTINUOUS
10
1.15213
20
4.16091
11
1.15213
21
4.22091
0
LINE
8
BLACK
6
CONTINUOUS
10
1.15213
20
4.22091
11
1.15273
21
4.22392
0
LINE
8
BLACK
6
CONTINUOUS
10
1.15273
20
4.22392
11
1.15443
21
4.22647
0
LINE
8
BLACK
6
CONTINUOUS
10
1.15443
20
4.22647
11
1.15699
21
4.22818
0
LINE
8
BLACK
6
CONTINUOUS
10
1.15699
20
4.22818
11
1.16
21
4.22878
0
LINE
8
BLACK
6
CONTINUOUS
10
1.16
20
4.22878
11
1.22
21
4.22878
0
LINE
8
BLACK
6
CONTINUOUS
10
1.22
20
4.22878
11
1.22301
21
4.22818
0
LINE
8
BLACK
6
CONTINUOUS
10
1.02301
20
4.22818
11
1.02557
21
4.22647
0
LINE
8
BLACK
6
CONTINUOUS
10
1.02557
20
4.22647
11
1.02727
21
4.22392
0
LINE
8
BLACK
6
CONTINUOUS
10
1.02727
20
4.22392
11
1.02787
21
4.22091
0
LINE
8
BLACK
6
CONTINUOUS
10
1.02787
20
4.22091
11
1.02787
21
4.16091
0
LINE
8
BLACK
6
CONTINUOUS
10
1.02787
20
4.16091
11
1.02727
21
4.15789
0
LINE
8
BLACK
6
CONTINUOUS
10
1.02727
20
4.15789
11
1.02557
21
4.15534
0
LINE
8
BLACK
6
CONTINUOUS
10
1.02557
20
4.15534
11
1.02301
21
4.15363
0
LINE
8
BLACK
6
CONTINUOUS
10
1.02301
20
4.15363
11
1.02
21
4.15303
0
LINE
8
BLACK
6
CONTINUOUS
10
1.02
20
4.15303
11
0.96
21
4.15303
0
LINE
8
BLACK
6
CONTINUOUS
10
0.96
20
4.15303
11
0.956987
21
4.15363
0
LINE
8
BLACK
6
CONTINUOUS
10
0.956987
20
4.15363
11
0.954432
21
4.15534
0
LINE
8
BLACK
6
CONTINUOUS
10
0.954432
20
4.15534
11
0.952725
21
4.15789
0
LINE
8
BLACK
6
CONTINUOUS
10
0.952725
20
4.15789
11
0.952126
21
4.16091
0
LINE
8
BLACK
6
CONTINUOUS
10
0.952126
20
4.16091
11
0.952126
21
4.22091
0
LINE
8
BLACK
6
CONTINUOUS
10
0.952126
20
4.22091
11
0.952725
21
4.22392
0
LINE
8
BLACK
6
CONTINUOUS
10
0.952725
20
4.22392
11
0.954432
21
4.22647
0
LINE
8
BLACK
6
CONTINUOUS
10
0.954432
20
4.22647
11
0.956987
21
4.22818
0
LINE
8
BLACK
6
CONTINUOUS
10
0.956987
20
4.22818
11
0.96
21
4.22878
0
LINE
8
BLACK
6
CONTINUOUS
10
0.96
20
4.22878
11
1.02
21
4.22878
0
LINE
8
BLACK
6
CONTINUOUS
10
1.02
20
4.22878
11
1.02301
21
4.22818
  0
ENDSEC
  0
EOF
