  0
SECTION
  2
HEADER
  9
$ANGBASE
  50
0.0
  9
$ANGDIR
  70
1
  9
$MEASUREMENT
  70
0
  0
ENDSEC
  0
SECTION
  2
TABLES
  0
TABLE
  2
LTYPE
  70
4
  0
LTYPE
  5
40F
  2
CONTINUOUS
  70
0
  3
Solid line
  72
65
  73
0
  40
0.0
  0
LTYPE
  5
410
  2
DASHDOT
 70
0
  3
Dash Dot ____ _ ____ _
 72
65
 73
4
 40
2.0
 49
1.25
 49
-0.25
 49
0.25
 49
-0.25
  0
LTYPE
  5
411
  2
DASHED
 70
0
  3
Dashed __ __ __ __ __
 72
65
 73
2
 40
0.75
 49
0.5
 49
-0.25
  0
LTYPE
  5
43B
  2
DOTTED
 70
0
  3
Dotted .  .  .  .
 72
65
 73
2
 40
0.2
 49
0.0
 49
-0.2
  0
ENDTAB
  0
TABLE
  2
STYLE
  70
4
  0
STYLE
  2
KICAD
  70
0
  40
0
  41
1
  42
1
  50
0
  71
0
  3
isocp.shx
  0
STYLE
  2
KICADB
  70
0
  40
0
  41
1
  42
1
  50
0
  71
0
  3
isocp.shx
  0
STYLE
  2
KICADI
  70
0
  40
0
  41
1
  42
1
  50
15
  71
0
  3
isocp.shx
  0
STYLE
  2
KICADBI
  70
0
  40
0
  41
1
  42
1
  50
15
  71
0
  3
isocp.shx
  0
ENDTAB
  0
TABLE
  2
LAYER
  70
1
  0
LAYER
  2
BLACK
  70
0
  62
7
  6
CONTINUOUS
  0
ENDTAB
  0
ENDSEC
  0
SECTION
  2
ENTITIES
0
LINE
8
BLACK
6
CONTINUOUS
10
6.129
20
-4.23706
11
6.13155
21
-4.23876
0
LINE
8
BLACK
6
CONTINUOUS
10
6.13155
20
-4.23876
11
6.13326
21
-4.24132
0
LINE
8
BLACK
6
CONTINUOUS
10
6.13326
20
-4.24132
11
6.13386
21
-4.24433
0
LINE
8
BLACK
6
CONTINUOUS
10
6.13386
20
-4.24433
11
6.13386
21
-4.44118
0
LINE
8
BLACK
6
CONTINUOUS
10
6.13386
20
-4.44118
11
6.13326
21
-4.44419
0
LINE
8
BLACK
6
CONTINUOUS
10
6.13326
20
-4.44419
11
6.13155
21
-4.44675
0
LINE
8
BLACK
6
CONTINUOUS
10
6.13155
20
-4.44675
11
6.129
21
-4.44846
0
LINE
8
BLACK
6
CONTINUOUS
10
6.129
20
-4.44846
11
6.12598
21
-4.44906
0
LINE
8
BLACK
6
CONTINUOUS
10
6.12598
20
-4.44906
11
6.02756
21
-4.44906
0
LINE
8
BLACK
6
CONTINUOUS
10
6.02756
20
-4.44906
11
6.02455
21
-4.44846
0
LINE
8
BLACK
6
CONTINUOUS
10
6.02455
20
-4.44846
11
6.02199
21
-4.44675
0
LINE
8
BLACK
6
CONTINUOUS
10
6.02199
20
-4.44675
11
6.02028
21
-4.44419
0
LINE
8
BLACK
6
CONTINUOUS
10
6.02028
20
-4.44419
11
6.01969
21
-4.44118
0
LINE
8
BLACK
6
CONTINUOUS
10
6.01969
20
-4.44118
11
6.01969
21
-4.24433
0
LINE
8
BLACK
6
CONTINUOUS
10
6.01969
20
-4.24433
11
6.02028
21
-4.24132
0
LINE
8
BLACK
6
CONTINUOUS
10
6.02028
20
-4.24132
11
6.02199
21
-4.23876
0
LINE
8
BLACK
6
CONTINUOUS
10
6.02199
20
-4.23876
11
6.02455
21
-4.23706
0
LINE
8
BLACK
6
CONTINUOUS
10
6.02455
20
-4.23706
11
6.02756
21
-4.23646
0
LINE
8
BLACK
6
CONTINUOUS
10
6.02756
20
-4.23646
11
6.12598
21
-4.23646
0
LINE
8
BLACK
6
CONTINUOUS
10
6.12598
20
-4.23646
11
6.129
21
-4.23706
0
LINE
8
BLACK
6
CONTINUOUS
10
4.93018
20
-4.00084
11
4.93273
21
-4.00254
0
LINE
8
BLACK
6
CONTINUOUS
10
4.93273
20
-4.00254
11
4.93444
21
-4.0051
0
LINE
8
BLACK
6
CONTINUOUS
10
4.93444
20
-4.0051
11
4.93504
21
-4.00811
0
LINE
8
BLACK
6
CONTINUOUS
10
4.93504
20
-4.00811
11
4.93504
21
-4.20496
0
LINE
8
BLACK
6
CONTINUOUS
10
4.93504
20
-4.20496
11
4.93444
21
-4.20797
0
LINE
8
BLACK
6
CONTINUOUS
10
4.93444
20
-4.20797
11
4.93273
21
-4.21053
0
LINE
8
BLACK
6
CONTINUOUS
10
4.93273
20
-4.21053
11
4.93018
21
-4.21224
0
LINE
8
BLACK
6
CONTINUOUS
10
4.93018
20
-4.21224
11
4.92717
21
-4.21283
0
LINE
8
BLACK
6
CONTINUOUS
10
4.92717
20
-4.21283
11
4.82874
21
-4.21283
0
LINE
8
BLACK
6
CONTINUOUS
10
4.82874
20
-4.21283
11
4.82573
21
-4.21224
0
LINE
8
BLACK
6
CONTINUOUS
10
4.82573
20
-4.21224
11
4.82317
21
-4.21053
0
LINE
8
BLACK
6
CONTINUOUS
10
4.82317
20
-4.21053
11
4.82147
21
-4.20797
0
LINE
8
BLACK
6
CONTINUOUS
10
4.82147
20
-4.20797
11
4.82087
21
-4.20496
0
LINE
8
BLACK
6
CONTINUOUS
10
4.82087
20
-4.20496
11
4.82087
21
-4.00811
0
LINE
8
BLACK
6
CONTINUOUS
10
4.82087
20
-4.00811
11
4.82147
21
-4.0051
0
LINE
8
BLACK
6
CONTINUOUS
10
4.82147
20
-4.0051
11
4.82317
21
-4.00254
0
LINE
8
BLACK
6
CONTINUOUS
10
4.82317
20
-4.00254
11
4.82573
21
-4.00084
0
LINE
8
BLACK
6
CONTINUOUS
10
4.82573
20
-4.00084
11
4.82874
21
-4.00024
0
LINE
8
BLACK
6
CONTINUOUS
10
4.82874
20
-4.00024
11
4.92717
21
-4.00024
0
LINE
8
BLACK
6
CONTINUOUS
10
4.92717
20
-4.00024
11
4.93018
21
-4.00084
0
LINE
8
BLACK
6
CONTINUOUS
10
6.129
20
-3.04808
11
6.13155
21
-3.04979
0
LINE
8
BLACK
6
CONTINUOUS
10
6.13155
20
-3.04979
11
6.13326
21
-3.05234
0
LINE
8
BLACK
6
CONTINUOUS
10
6.13326
20
-3.05234
11
6.13386
21
-3.05535
0
LINE
8
BLACK
6
CONTINUOUS
10
6.13386
20
-3.05535
11
6.13386
21
-3.2522
0
LINE
8
BLACK
6
CONTINUOUS
10
6.13386
20
-3.2522
11
6.13326
21
-3.25522
0
LINE
8
BLACK
6
CONTINUOUS
10
6.13326
20
-3.25522
11
6.13155
21
-3.25777
0
LINE
8
BLACK
6
CONTINUOUS
10
6.13155
20
-3.25777
11
6.129
21
-3.25948
0
LINE
8
BLACK
6
CONTINUOUS
10
6.129
20
-3.25948
11
6.12598
21
-3.26008
0
LINE
8
BLACK
6
CONTINUOUS
10
6.12598
20
-3.26008
11
6.02756
21
-3.26008
0
LINE
8
BLACK
6
CONTINUOUS
10
6.02756
20
-3.26008
11
6.02455
21
-3.25948
0
LINE
8
BLACK
6
CONTINUOUS
10
6.02455
20
-3.25948
11
6.02199
21
-3.25777
0
LINE
8
BLACK
6
CONTINUOUS
10
6.02199
20
-3.25777
11
6.02028
21
-3.25522
0
LINE
8
BLACK
6
CONTINUOUS
10
6.02028
20
-3.25522
11
6.01969
21
-3.2522
0
LINE
8
BLACK
6
CONTINUOUS
10
6.01969
20
-3.2522
11
6.01969
21
-3.05535
0
LINE
8
BLACK
6
CONTINUOUS
10
6.01969
20
-3.05535
11
6.02028
21
-3.05234
0
LINE
8
BLACK
6
CONTINUOUS
10
6.02028
20
-3.05234
11
6.02199
21
-3.04979
0
LINE
8
BLACK
6
CONTINUOUS
10
6.02199
20
-3.04979
11
6.02455
21
-3.04808
0
LINE
8
BLACK
6
CONTINUOUS
10
6.02455
20
-3.04808
11
6.02756
21
-3.04748
0
LINE
8
BLACK
6
CONTINUOUS
10
6.02756
20
-3.04748
11
6.12598
21
-3.04748
0
LINE
8
BLACK
6
CONTINUOUS
10
6.12598
20
-3.04748
11
6.129
21
-3.04808
0
LINE
8
BLACK
6
CONTINUOUS
10
4.93018
20
-3.04808
11
4.93273
21
-3.04979
0
LINE
8
BLACK
6
CONTINUOUS
10
4.93273
20
-3.04979
11
4.93444
21
-3.05234
0
LINE
8
BLACK
6
CONTINUOUS
10
4.93444
20
-3.05234
11
4.93504
21
-3.05535
0
LINE
8
BLACK
6
CONTINUOUS
10
4.93504
20
-3.05535
11
4.93504
21
-3.2522
0
LINE
8
BLACK
6
CONTINUOUS
10
4.93504
20
-3.2522
11
4.93444
21
-3.25522
0
LINE
8
BLACK
6
CONTINUOUS
10
4.93444
20
-3.25522
11
4.93273
21
-3.25777
0
LINE
8
BLACK
6
CONTINUOUS
10
4.93273
20
-3.25777
11
4.93018
21
-3.25948
0
LINE
8
BLACK
6
CONTINUOUS
10
4.93018
20
-3.25948
11
4.92717
21
-3.26008
0
LINE
8
BLACK
6
CONTINUOUS
10
4.92717
20
-3.26008
11
4.82874
21
-3.26008
0
LINE
8
BLACK
6
CONTINUOUS
10
4.82874
20
-3.26008
11
4.82573
21
-3.25948
0
LINE
8
BLACK
6
CONTINUOUS
10
4.82573
20
-3.25948
11
4.82317
21
-3.25777
0
LINE
8
BLACK
6
CONTINUOUS
10
4.82317
20
-3.25777
11
4.82147
21
-3.25522
0
LINE
8
BLACK
6
CONTINUOUS
10
4.82147
20
-3.25522
11
4.82087
21
-3.2522
0
LINE
8
BLACK
6
CONTINUOUS
10
4.82087
20
-3.2522
11
4.82087
21
-3.05535
0
LINE
8
BLACK
6
CONTINUOUS
10
4.82087
20
-3.05535
11
4.82147
21
-3.05234
0
LINE
8
BLACK
6
CONTINUOUS
10
4.82147
20
-3.05234
11
4.82317
21
-3.04979
0
LINE
8
BLACK
6
CONTINUOUS
10
4.82317
20
-3.04979
11
4.82573
21
-3.04808
0
LINE
8
BLACK
6
CONTINUOUS
10
4.82573
20
-3.04808
11
4.82874
21
-3.04748
0
LINE
8
BLACK
6
CONTINUOUS
10
4.82874
20
-3.04748
11
4.92717
21
-3.04748
0
LINE
8
BLACK
6
CONTINUOUS
10
4.92717
20
-3.04748
11
4.93018
21
-3.04808
0
LINE
8
BLACK
6
CONTINUOUS
10
5.19337
20
-2.97721
11
5.19592
21
-2.97892
0
LINE
8
BLACK
6
CONTINUOUS
10
5.19592
20
-2.97892
11
5.19763
21
-2.98147
0
LINE
8
BLACK
6
CONTINUOUS
10
5.19763
20
-2.98147
11
5.19823
21
-2.98449
0
LINE
8
BLACK
6
CONTINUOUS
10
5.19823
20
-2.98449
11
5.19823
21
-3.04748
0
LINE
8
BLACK
6
CONTINUOUS
10
5.19823
20
-3.04748
11
5.19763
21
-3.05049
0
LINE
8
BLACK
6
CONTINUOUS
10
5.19763
20
-3.05049
11
5.19592
21
-3.05305
0
LINE
8
BLACK
6
CONTINUOUS
10
5.19592
20
-3.05305
11
5.19337
21
-3.05475
0
LINE
8
BLACK
6
CONTINUOUS
10
5.19337
20
-3.05475
11
5.19035
21
-3.05535
0
LINE
8
BLACK
6
CONTINUOUS
10
5.19035
20
-3.05535
11
5.14311
21
-3.05535
0
LINE
8
BLACK
6
CONTINUOUS
10
5.14311
20
-3.05535
11
5.1401
21
-3.05475
0
LINE
8
BLACK
6
CONTINUOUS
10
5.1401
20
-3.05475
11
5.13754
21
-3.05305
0
LINE
8
BLACK
6
CONTINUOUS
10
5.13754
20
-3.05305
11
5.13584
21
-3.05049
0
LINE
8
BLACK
6
CONTINUOUS
10
5.13584
20
-3.05049
11
5.13524
21
-3.04748
0
LINE
8
BLACK
6
CONTINUOUS
10
5.13524
20
-3.04748
11
5.13524
21
-2.98449
0
LINE
8
BLACK
6
CONTINUOUS
10
5.13524
20
-2.98449
11
5.13584
21
-2.98147
0
LINE
8
BLACK
6
CONTINUOUS
10
5.13584
20
-2.98147
11
5.13754
21
-2.97892
0
LINE
8
BLACK
6
CONTINUOUS
10
5.13754
20
-2.97892
11
5.1401
21
-2.97721
0
LINE
8
BLACK
6
CONTINUOUS
10
5.1401
20
-2.97721
11
5.14311
21
-2.97661
0
LINE
8
BLACK
6
CONTINUOUS
10
5.14311
20
-2.97661
11
5.19035
21
-2.97661
0
LINE
8
BLACK
6
CONTINUOUS
10
5.19035
20
-2.97661
11
5.19337
21
-2.97721
0
LINE
8
BLACK
6
CONTINUOUS
10
5.95045
20
-2.97721
11
5.95301
21
-2.97892
0
LINE
8
BLACK
6
CONTINUOUS
10
5.95301
20
-2.97892
11
5.95472
21
-2.98147
0
LINE
8
BLACK
6
CONTINUOUS
10
5.95472
20
-2.98147
11
5.95531
21
-2.98449
0
LINE
8
BLACK
6
CONTINUOUS
10
5.95531
20
-2.98449
11
5.95531
21
-3.04748
0
LINE
8
BLACK
6
CONTINUOUS
10
5.95531
20
-3.04748
11
5.95472
21
-3.05049
0
LINE
8
BLACK
6
CONTINUOUS
10
5.95472
20
-3.05049
11
5.95301
21
-3.05305
0
LINE
8
BLACK
6
CONTINUOUS
10
5.95301
20
-3.05305
11
5.95045
21
-3.05475
0
LINE
8
BLACK
6
CONTINUOUS
10
5.95045
20
-3.05475
11
5.94744
21
-3.05535
0
LINE
8
BLACK
6
CONTINUOUS
10
5.94744
20
-3.05535
11
5.9002
21
-3.05535
0
LINE
8
BLACK
6
CONTINUOUS
10
5.9002
20
-3.05535
11
5.89718
21
-3.05475
0
LINE
8
BLACK
6
CONTINUOUS
10
5.89718
20
-3.05475
11
5.89463
21
-3.05305
0
LINE
8
BLACK
6
CONTINUOUS
10
5.89463
20
-3.05305
11
5.89292
21
-3.05049
0
LINE
8
BLACK
6
CONTINUOUS
10
5.89292
20
-3.05049
11
5.89232
21
-3.04748
0
LINE
8
BLACK
6
CONTINUOUS
10
5.89232
20
-3.04748
11
5.89232
21
-2.98449
0
LINE
8
BLACK
6
CONTINUOUS
10
5.89232
20
-2.98449
11
5.89292
21
-2.98147
0
LINE
8
BLACK
6
CONTINUOUS
10
5.89292
20
-2.98147
11
5.89463
21
-2.97892
0
LINE
8
BLACK
6
CONTINUOUS
10
5.89463
20
-2.97892
11
5.89718
21
-2.97721
0
LINE
8
BLACK
6
CONTINUOUS
10
5.89718
20
-2.97721
11
5.9002
21
-2.97661
0
LINE
8
BLACK
6
CONTINUOUS
10
5.9002
20
-2.97661
11
5.94744
21
-2.97661
0
LINE
8
BLACK
6
CONTINUOUS
10
5.94744
20
-2.97661
11
5.95045
21
-2.97721
0
LINE
8
BLACK
6
CONTINUOUS
10
5.87959
20
-2.97721
11
5.88214
21
-2.97892
0
LINE
8
BLACK
6
CONTINUOUS
10
5.88214
20
-2.97892
11
5.88385
21
-2.98147
0
LINE
8
BLACK
6
CONTINUOUS
10
5.88385
20
-2.98147
11
5.88445
21
-2.98449
0
LINE
8
BLACK
6
CONTINUOUS
10
5.88445
20
-2.98449
11
5.88445
21
-3.04748
0
LINE
8
BLACK
6
CONTINUOUS
10
5.88445
20
-3.04748
11
5.88385
21
-3.05049
0
LINE
8
BLACK
6
CONTINUOUS
10
5.88385
20
-3.05049
11
5.88214
21
-3.05305
0
LINE
8
BLACK
6
CONTINUOUS
10
5.88214
20
-3.05305
11
5.87959
21
-3.05475
0
LINE
8
BLACK
6
CONTINUOUS
10
5.87959
20
-3.05475
11
5.87657
21
-3.05535
0
LINE
8
BLACK
6
CONTINUOUS
10
5.87657
20
-3.05535
11
5.82933
21
-3.05535
0
LINE
8
BLACK
6
CONTINUOUS
10
5.82933
20
-3.05535
11
5.82632
21
-3.05475
0
LINE
8
BLACK
6
CONTINUOUS
10
5.82632
20
-3.05475
11
5.82376
21
-3.05305
0
LINE
8
BLACK
6
CONTINUOUS
10
5.82376
20
-3.05305
11
5.82206
21
-3.05049
0
LINE
8
BLACK
6
CONTINUOUS
10
5.82206
20
-3.05049
11
5.82146
21
-3.04748
0
LINE
8
BLACK
6
CONTINUOUS
10
5.82146
20
-3.04748
11
5.82146
21
-2.98449
0
LINE
8
BLACK
6
CONTINUOUS
10
5.82146
20
-2.98449
11
5.82206
21
-2.98147
0
LINE
8
BLACK
6
CONTINUOUS
10
5.82206
20
-2.98147
11
5.82376
21
-2.97892
0
LINE
8
BLACK
6
CONTINUOUS
10
5.82376
20
-2.97892
11
5.82632
21
-2.97721
0
LINE
8
BLACK
6
CONTINUOUS
10
5.82632
20
-2.97721
11
5.82933
21
-2.97661
0
LINE
8
BLACK
6
CONTINUOUS
10
5.82933
20
-2.97661
11
5.87657
21
-2.97661
0
LINE
8
BLACK
6
CONTINUOUS
10
5.87657
20
-2.97661
11
5.87959
21
-2.97721
0
LINE
8
BLACK
6
CONTINUOUS
10
5.78392
20
-2.97721
11
5.78647
21
-2.97892
0
LINE
8
BLACK
6
CONTINUOUS
10
5.78647
20
-2.97892
11
5.78818
21
-2.98147
0
LINE
8
BLACK
6
CONTINUOUS
10
5.78818
20
-2.98147
11
5.78878
21
-2.98449
0
LINE
8
BLACK
6
CONTINUOUS
10
5.78878
20
-2.98449
11
5.78878
21
-3.04748
0
LINE
8
BLACK
6
CONTINUOUS
10
5.78878
20
-3.04748
11
5.78818
21
-3.05049
0
LINE
8
BLACK
6
CONTINUOUS
10
5.78818
20
-3.05049
11
5.78647
21
-3.05305
0
LINE
8
BLACK
6
CONTINUOUS
10
5.78647
20
-3.05305
11
5.78392
21
-3.05475
0
LINE
8
BLACK
6
CONTINUOUS
10
5.78392
20
-3.05475
11
5.78091
21
-3.05535
0
LINE
8
BLACK
6
CONTINUOUS
10
5.78091
20
-3.05535
11
5.73366
21
-3.05535
0
LINE
8
BLACK
6
CONTINUOUS
10
5.73366
20
-3.05535
11
5.73065
21
-3.05475
0
LINE
8
BLACK
6
CONTINUOUS
10
5.73065
20
-3.05475
11
5.72809
21
-3.05305
0
LINE
8
BLACK
6
CONTINUOUS
10
5.72809
20
-3.05305
11
5.72639
21
-3.05049
0
LINE
8
BLACK
6
CONTINUOUS
10
5.72639
20
-3.05049
11
5.72579
21
-3.04748
0
LINE
8
BLACK
6
CONTINUOUS
10
5.72579
20
-3.04748
11
5.72579
21
-2.98449
0
LINE
8
BLACK
6
CONTINUOUS
10
5.72579
20
-2.98449
11
5.72639
21
-2.98147
0
LINE
8
BLACK
6
CONTINUOUS
10
5.72639
20
-2.98147
11
5.72809
21
-2.97892
0
LINE
8
BLACK
6
CONTINUOUS
10
5.72809
20
-2.97892
11
5.73065
21
-2.97721
0
LINE
8
BLACK
6
CONTINUOUS
10
5.73065
20
-2.97721
11
5.73366
21
-2.97661
0
LINE
8
BLACK
6
CONTINUOUS
10
5.73366
20
-2.97661
11
5.78091
21
-2.97661
0
LINE
8
BLACK
6
CONTINUOUS
10
5.78091
20
-2.97661
11
5.78392
21
-2.97721
0
LINE
8
BLACK
6
CONTINUOUS
10
5.68549
20
-2.97721
11
5.68805
21
-2.97892
0
LINE
8
BLACK
6
CONTINUOUS
10
5.68805
20
-2.97892
11
5.68975
21
-2.98147
0
LINE
8
BLACK
6
CONTINUOUS
10
5.68975
20
-2.98147
11
5.69035
21
-2.98449
0
LINE
8
BLACK
6
CONTINUOUS
10
5.69035
20
-2.98449
11
5.69035
21
-3.04748
0
LINE
8
BLACK
6
CONTINUOUS
10
5.69035
20
-3.04748
11
5.68975
21
-3.05049
0
LINE
8
BLACK
6
CONTINUOUS
10
5.68975
20
-3.05049
11
5.68805
21
-3.05305
0
LINE
8
BLACK
6
CONTINUOUS
10
5.68805
20
-3.05305
11
5.68549
21
-3.05475
0
LINE
8
BLACK
6
CONTINUOUS
10
5.68549
20
-3.05475
11
5.68248
21
-3.05535
0
LINE
8
BLACK
6
CONTINUOUS
10
5.68248
20
-3.05535
11
5.63524
21
-3.05535
0
LINE
8
BLACK
6
CONTINUOUS
10
5.63524
20
-3.05535
11
5.63222
21
-3.05475
0
LINE
8
BLACK
6
CONTINUOUS
10
5.63222
20
-3.05475
11
5.62967
21
-3.05305
0
LINE
8
BLACK
6
CONTINUOUS
10
5.62967
20
-3.05305
11
5.62796
21
-3.05049
0
LINE
8
BLACK
6
CONTINUOUS
10
5.62796
20
-3.05049
11
5.62736
21
-3.04748
0
LINE
8
BLACK
6
CONTINUOUS
10
5.62736
20
-3.04748
11
5.62736
21
-2.98449
0
LINE
8
BLACK
6
CONTINUOUS
10
5.62736
20
-2.98449
11
5.62796
21
-2.98147
0
LINE
8
BLACK
6
CONTINUOUS
10
5.62796
20
-2.98147
11
5.62967
21
-2.97892
0
LINE
8
BLACK
6
CONTINUOUS
10
5.62967
20
-2.97892
11
5.63222
21
-2.97721
0
LINE
8
BLACK
6
CONTINUOUS
10
5.63222
20
-2.97721
11
5.63524
21
-2.97661
0
LINE
8
BLACK
6
CONTINUOUS
10
5.63524
20
-2.97661
11
5.68248
21
-2.97661
0
LINE
8
BLACK
6
CONTINUOUS
10
5.68248
20
-2.97661
11
5.68549
21
-2.97721
0
LINE
8
BLACK
6
CONTINUOUS
10
5.58707
20
-2.97721
11
5.58962
21
-2.97892
0
LINE
8
BLACK
6
CONTINUOUS
10
5.58962
20
-2.97892
11
5.59133
21
-2.98147
0
LINE
8
BLACK
6
CONTINUOUS
10
5.59133
20
-2.98147
11
5.59193
21
-2.98449
0
LINE
8
BLACK
6
CONTINUOUS
10
5.59193
20
-2.98449
11
5.59193
21
-3.04748
0
LINE
8
BLACK
6
CONTINUOUS
10
5.59193
20
-3.04748
11
5.59133
21
-3.05049
0
LINE
8
BLACK
6
CONTINUOUS
10
5.59133
20
-3.05049
11
5.58962
21
-3.05305
0
LINE
8
BLACK
6
CONTINUOUS
10
5.58962
20
-3.05305
11
5.58707
21
-3.05475
0
LINE
8
BLACK
6
CONTINUOUS
10
5.58707
20
-3.05475
11
5.58406
21
-3.05535
0
LINE
8
BLACK
6
CONTINUOUS
10
5.58406
20
-3.05535
11
5.53681
21
-3.05535
0
LINE
8
BLACK
6
CONTINUOUS
10
5.53681
20
-3.05535
11
5.5338
21
-3.05475
0
LINE
8
BLACK
6
CONTINUOUS
10
5.5338
20
-3.05475
11
5.53124
21
-3.05305
0
LINE
8
BLACK
6
CONTINUOUS
10
5.53124
20
-3.05305
11
5.52954
21
-3.05049
0
LINE
8
BLACK
6
CONTINUOUS
10
5.52954
20
-3.05049
11
5.52894
21
-3.04748
0
LINE
8
BLACK
6
CONTINUOUS
10
5.52894
20
-3.04748
11
5.52894
21
-2.98449
0
LINE
8
BLACK
6
CONTINUOUS
10
5.52894
20
-2.98449
11
5.52954
21
-2.98147
0
LINE
8
BLACK
6
CONTINUOUS
10
5.52954
20
-2.98147
11
5.53124
21
-2.97892
0
LINE
8
BLACK
6
CONTINUOUS
10
5.53124
20
-2.97892
11
5.5338
21
-2.97721
0
LINE
8
BLACK
6
CONTINUOUS
10
5.5338
20
-2.97721
11
5.53681
21
-2.97661
0
LINE
8
BLACK
6
CONTINUOUS
10
5.53681
20
-2.97661
11
5.58406
21
-2.97661
0
LINE
8
BLACK
6
CONTINUOUS
10
5.58406
20
-2.97661
11
5.58707
21
-2.97721
0
LINE
8
BLACK
6
CONTINUOUS
10
5.48864
20
-2.97721
11
5.4912
21
-2.97892
0
LINE
8
BLACK
6
CONTINUOUS
10
5.4912
20
-2.97892
11
5.4929
21
-2.98147
0
LINE
8
BLACK
6
CONTINUOUS
10
5.4929
20
-2.98147
11
5.4935
21
-2.98449
0
LINE
8
BLACK
6
CONTINUOUS
10
5.4935
20
-2.98449
11
5.4935
21
-3.04748
0
LINE
8
BLACK
6
CONTINUOUS
10
5.4935
20
-3.04748
11
5.4929
21
-3.05049
0
LINE
8
BLACK
6
CONTINUOUS
10
5.4929
20
-3.05049
11
5.4912
21
-3.05305
0
LINE
8
BLACK
6
CONTINUOUS
10
5.4912
20
-3.05305
11
5.48864
21
-3.05475
0
LINE
8
BLACK
6
CONTINUOUS
10
5.48864
20
-3.05475
11
5.48563
21
-3.05535
0
LINE
8
BLACK
6
CONTINUOUS
10
5.48563
20
-3.05535
11
5.43839
21
-3.05535
0
LINE
8
BLACK
6
CONTINUOUS
10
5.43839
20
-3.05535
11
5.43537
21
-3.05475
0
LINE
8
BLACK
6
CONTINUOUS
10
5.43537
20
-3.05475
11
5.43282
21
-3.05305
0
LINE
8
BLACK
6
CONTINUOUS
10
5.43282
20
-3.05305
11
5.43111
21
-3.05049
0
LINE
8
BLACK
6
CONTINUOUS
10
5.43111
20
-3.05049
11
5.43051
21
-3.04748
0
LINE
8
BLACK
6
CONTINUOUS
10
5.43051
20
-3.04748
11
5.43051
21
-2.98449
0
LINE
8
BLACK
6
CONTINUOUS
10
5.43051
20
-2.98449
11
5.43111
21
-2.98147
0
LINE
8
BLACK
6
CONTINUOUS
10
5.43111
20
-2.98147
11
5.43282
21
-2.97892
0
LINE
8
BLACK
6
CONTINUOUS
10
5.43282
20
-2.97892
11
5.43537
21
-2.97721
0
LINE
8
BLACK
6
CONTINUOUS
10
5.43537
20
-2.97721
11
5.43839
21
-2.97661
0
LINE
8
BLACK
6
CONTINUOUS
10
5.43839
20
-2.97661
11
5.48563
21
-2.97661
0
LINE
8
BLACK
6
CONTINUOUS
10
5.48563
20
-2.97661
11
5.48864
21
-2.97721
0
LINE
8
BLACK
6
CONTINUOUS
10
5.39022
20
-2.97721
11
5.39277
21
-2.97892
0
LINE
8
BLACK
6
CONTINUOUS
10
5.39277
20
-2.97892
11
5.39448
21
-2.98147
0
LINE
8
BLACK
6
CONTINUOUS
10
5.39448
20
-2.98147
11
5.39508
21
-2.98449
0
LINE
8
BLACK
6
CONTINUOUS
10
5.39508
20
-2.98449
11
5.39508
21
-3.04748
0
LINE
8
BLACK
6
CONTINUOUS
10
5.39508
20
-3.04748
11
5.39448
21
-3.05049
0
LINE
8
BLACK
6
CONTINUOUS
10
5.39448
20
-3.05049
11
5.39277
21
-3.05305
0
LINE
8
BLACK
6
CONTINUOUS
10
5.39277
20
-3.05305
11
5.39022
21
-3.05475
0
LINE
8
BLACK
6
CONTINUOUS
10
5.39022
20
-3.05475
11
5.3872
21
-3.05535
0
LINE
8
BLACK
6
CONTINUOUS
10
5.3872
20
-3.05535
11
5.33996
21
-3.05535
0
LINE
8
BLACK
6
CONTINUOUS
10
5.33996
20
-3.05535
11
5.33695
21
-3.05475
0
LINE
8
BLACK
6
CONTINUOUS
10
5.33695
20
-3.05475
11
5.33439
21
-3.05305
0
LINE
8
BLACK
6
CONTINUOUS
10
5.33439
20
-3.05305
11
5.33269
21
-3.05049
0
LINE
8
BLACK
6
CONTINUOUS
10
5.33269
20
-3.05049
11
5.33209
21
-3.04748
0
LINE
8
BLACK
6
CONTINUOUS
10
5.33209
20
-3.04748
11
5.33209
21
-2.98449
0
LINE
8
BLACK
6
CONTINUOUS
10
5.33209
20
-2.98449
11
5.33269
21
-2.98147
0
LINE
8
BLACK
6
CONTINUOUS
10
5.33269
20
-2.98147
11
5.33439
21
-2.97892
0
LINE
8
BLACK
6
CONTINUOUS
10
5.33439
20
-2.97892
11
5.33695
21
-2.97721
0
LINE
8
BLACK
6
CONTINUOUS
10
5.33695
20
-2.97721
11
5.33996
21
-2.97661
0
LINE
8
BLACK
6
CONTINUOUS
10
5.33996
20
-2.97661
11
5.3872
21
-2.97661
0
LINE
8
BLACK
6
CONTINUOUS
10
5.3872
20
-2.97661
11
5.39022
21
-2.97721
0
LINE
8
BLACK
6
CONTINUOUS
10
5.29179
20
-2.97721
11
5.29435
21
-2.97892
0
LINE
8
BLACK
6
CONTINUOUS
10
5.29435
20
-2.97892
11
5.29605
21
-2.98147
0
LINE
8
BLACK
6
CONTINUOUS
10
5.29605
20
-2.98147
11
5.29665
21
-2.98449
0
LINE
8
BLACK
6
CONTINUOUS
10
5.29665
20
-2.98449
11
5.29665
21
-3.04748
0
LINE
8
BLACK
6
CONTINUOUS
10
5.29665
20
-3.04748
11
5.29605
21
-3.05049
0
LINE
8
BLACK
6
CONTINUOUS
10
5.29605
20
-3.05049
11
5.29435
21
-3.05305
0
LINE
8
BLACK
6
CONTINUOUS
10
5.29435
20
-3.05305
11
5.29179
21
-3.05475
0
LINE
8
BLACK
6
CONTINUOUS
10
5.29179
20
-3.05475
11
5.28878
21
-3.05535
0
LINE
8
BLACK
6
CONTINUOUS
10
5.28878
20
-3.05535
11
5.24154
21
-3.05535
0
LINE
8
BLACK
6
CONTINUOUS
10
5.24154
20
-3.05535
11
5.23852
21
-3.05475
0
LINE
8
BLACK
6
CONTINUOUS
10
5.23852
20
-3.05475
11
5.23597
21
-3.05305
0
LINE
8
BLACK
6
CONTINUOUS
10
5.23597
20
-3.05305
11
5.23426
21
-3.05049
0
LINE
8
BLACK
6
CONTINUOUS
10
5.23426
20
-3.05049
11
5.23366
21
-3.04748
0
LINE
8
BLACK
6
CONTINUOUS
10
5.23366
20
-3.04748
11
5.23366
21
-2.98449
0
LINE
8
BLACK
6
CONTINUOUS
10
5.23366
20
-2.98449
11
5.23426
21
-2.98147
0
LINE
8
BLACK
6
CONTINUOUS
10
5.23426
20
-2.98147
11
5.23597
21
-2.97892
0
LINE
8
BLACK
6
CONTINUOUS
10
5.23597
20
-2.97892
11
5.23852
21
-2.97721
0
LINE
8
BLACK
6
CONTINUOUS
10
5.23852
20
-2.97721
11
5.24154
21
-2.97661
0
LINE
8
BLACK
6
CONTINUOUS
10
5.24154
20
-2.97661
11
5.28878
21
-2.97661
0
LINE
8
BLACK
6
CONTINUOUS
10
5.28878
20
-2.97661
11
5.29179
21
-2.97721
0
LINE
8
BLACK
6
CONTINUOUS
10
5.68788
20
-2.89641
11
5.69043
21
-2.89811
0
LINE
8
BLACK
6
CONTINUOUS
10
5.69043
20
-2.89811
11
5.69214
21
-2.90067
0
LINE
8
BLACK
6
CONTINUOUS
10
5.69214
20
-2.90067
11
5.69274
21
-2.90368
0
LINE
8
BLACK
6
CONTINUOUS
10
5.69274
20
-2.90368
11
5.69274
21
-2.93868
0
LINE
8
BLACK
6
CONTINUOUS
10
5.69274
20
-2.93868
11
5.69214
21
-2.94169
0
LINE
8
BLACK
6
CONTINUOUS
10
5.69214
20
-2.94169
11
5.69043
21
-2.94425
0
LINE
8
BLACK
6
CONTINUOUS
10
5.69043
20
-2.94425
11
5.68788
21
-2.94596
0
LINE
8
BLACK
6
CONTINUOUS
10
5.68788
20
-2.94596
11
5.68486
21
-2.94656
0
LINE
8
BLACK
6
CONTINUOUS
10
5.68486
20
-2.94656
11
5.62986
21
-2.94656
0
LINE
8
BLACK
6
CONTINUOUS
10
5.62986
20
-2.94656
11
5.62685
21
-2.94596
0
LINE
8
BLACK
6
CONTINUOUS
10
5.62685
20
-2.94596
11
5.62429
21
-2.94425
0
LINE
8
BLACK
6
CONTINUOUS
10
5.62429
20
-2.94425
11
5.62259
21
-2.94169
0
LINE
8
BLACK
6
CONTINUOUS
10
5.62259
20
-2.94169
11
5.62199
21
-2.93868
0
LINE
8
BLACK
6
CONTINUOUS
10
5.62199
20
-2.93868
11
5.62199
21
-2.90368
0
LINE
8
BLACK
6
CONTINUOUS
10
5.62199
20
-2.90368
11
5.62259
21
-2.90067
0
LINE
8
BLACK
6
CONTINUOUS
10
5.62259
20
-2.90067
11
5.62429
21
-2.89811
0
LINE
8
BLACK
6
CONTINUOUS
10
5.62429
20
-2.89811
11
5.62685
21
-2.89641
0
LINE
8
BLACK
6
CONTINUOUS
10
5.62685
20
-2.89641
11
5.62986
21
-2.89581
0
LINE
8
BLACK
6
CONTINUOUS
10
5.62986
20
-2.89581
11
5.68486
21
-2.89581
0
LINE
8
BLACK
6
CONTINUOUS
10
5.68486
20
-2.89581
11
5.68788
21
-2.89641
0
LINE
8
BLACK
6
CONTINUOUS
10
5.88788
20
-2.89641
11
5.89043
21
-2.89811
0
LINE
8
BLACK
6
CONTINUOUS
10
5.89043
20
-2.89811
11
5.89214
21
-2.90067
0
LINE
8
BLACK
6
CONTINUOUS
10
5.89214
20
-2.90067
11
5.89274
21
-2.90368
0
LINE
8
BLACK
6
CONTINUOUS
10
5.89274
20
-2.90368
11
5.89274
21
-2.93868
0
LINE
8
BLACK
6
CONTINUOUS
10
5.89274
20
-2.93868
11
5.89214
21
-2.94169
0
LINE
8
BLACK
6
CONTINUOUS
10
5.89214
20
-2.94169
11
5.89043
21
-2.94425
0
LINE
8
BLACK
6
CONTINUOUS
10
5.89043
20
-2.94425
11
5.88788
21
-2.94596
0
LINE
8
BLACK
6
CONTINUOUS
10
5.88788
20
-2.94596
11
5.88486
21
-2.94656
0
LINE
8
BLACK
6
CONTINUOUS
10
5.88486
20
-2.94656
11
5.82986
21
-2.94656
0
LINE
8
BLACK
6
CONTINUOUS
10
5.82986
20
-2.94656
11
5.82685
21
-2.94596
0
LINE
8
BLACK
6
CONTINUOUS
10
5.82685
20
-2.94596
11
5.82429
21
-2.94425
0
LINE
8
BLACK
6
CONTINUOUS
10
5.82429
20
-2.94425
11
5.82259
21
-2.94169
0
LINE
8
BLACK
6
CONTINUOUS
10
5.82259
20
-2.94169
11
5.82199
21
-2.93868
0
LINE
8
BLACK
6
CONTINUOUS
10
5.82199
20
-2.93868
11
5.82199
21
-2.90368
0
LINE
8
BLACK
6
CONTINUOUS
10
5.82199
20
-2.90368
11
5.82259
21
-2.90067
0
LINE
8
BLACK
6
CONTINUOUS
10
5.82259
20
-2.90067
11
5.82429
21
-2.89811
0
LINE
8
BLACK
6
CONTINUOUS
10
5.82429
20
-2.89811
11
5.82685
21
-2.89641
0
LINE
8
BLACK
6
CONTINUOUS
10
5.82685
20
-2.89641
11
5.82986
21
-2.89581
0
LINE
8
BLACK
6
CONTINUOUS
10
5.82986
20
-2.89581
11
5.88486
21
-2.89581
0
LINE
8
BLACK
6
CONTINUOUS
10
5.88486
20
-2.89581
11
5.88788
21
-2.89641
0
LINE
8
BLACK
6
CONTINUOUS
10
5.38788
20
-2.89641
11
5.39043
21
-2.89811
0
LINE
8
BLACK
6
CONTINUOUS
10
5.39043
20
-2.89811
11
5.39214
21
-2.90067
0
LINE
8
BLACK
6
CONTINUOUS
10
5.39214
20
-2.90067
11
5.39274
21
-2.90368
0
LINE
8
BLACK
6
CONTINUOUS
10
5.39274
20
-2.90368
11
5.39274
21
-2.93868
0
LINE
8
BLACK
6
CONTINUOUS
10
5.39274
20
-2.93868
11
5.39214
21
-2.94169
0
LINE
8
BLACK
6
CONTINUOUS
10
5.39214
20
-2.94169
11
5.39043
21
-2.94425
0
LINE
8
BLACK
6
CONTINUOUS
10
5.39043
20
-2.94425
11
5.38788
21
-2.94596
0
LINE
8
BLACK
6
CONTINUOUS
10
5.38788
20
-2.94596
11
5.38486
21
-2.94656
0
LINE
8
BLACK
6
CONTINUOUS
10
5.38486
20
-2.94656
11
5.32986
21
-2.94656
0
LINE
8
BLACK
6
CONTINUOUS
10
5.32986
20
-2.94656
11
5.32685
21
-2.94596
0
LINE
8
BLACK
6
CONTINUOUS
10
5.32685
20
-2.94596
11
5.32429
21
-2.94425
0
LINE
8
BLACK
6
CONTINUOUS
10
5.32429
20
-2.94425
11
5.32259
21
-2.94169
0
LINE
8
BLACK
6
CONTINUOUS
10
5.32259
20
-2.94169
11
5.32199
21
-2.93868
0
LINE
8
BLACK
6
CONTINUOUS
10
5.32199
20
-2.93868
11
5.32199
21
-2.90368
0
LINE
8
BLACK
6
CONTINUOUS
10
5.32199
20
-2.90368
11
5.32259
21
-2.90067
0
LINE
8
BLACK
6
CONTINUOUS
10
5.32259
20
-2.90067
11
5.32429
21
-2.89811
0
LINE
8
BLACK
6
CONTINUOUS
10
5.32429
20
-2.89811
11
5.32685
21
-2.89641
0
LINE
8
BLACK
6
CONTINUOUS
10
5.32685
20
-2.89641
11
5.32986
21
-2.89581
0
LINE
8
BLACK
6
CONTINUOUS
10
5.32986
20
-2.89581
11
5.38486
21
-2.89581
0
LINE
8
BLACK
6
CONTINUOUS
10
5.38486
20
-2.89581
11
5.38788
21
-2.89641
0
LINE
8
BLACK
6
CONTINUOUS
10
5.28788
20
-2.89641
11
5.29043
21
-2.89811
0
LINE
8
BLACK
6
CONTINUOUS
10
5.29043
20
-2.89811
11
5.29214
21
-2.90067
0
LINE
8
BLACK
6
CONTINUOUS
10
5.29214
20
-2.90067
11
5.29274
21
-2.90368
0
LINE
8
BLACK
6
CONTINUOUS
10
5.29274
20
-2.90368
11
5.29274
21
-2.93868
0
LINE
8
BLACK
6
CONTINUOUS
10
5.29274
20
-2.93868
11
5.29214
21
-2.94169
0
LINE
8
BLACK
6
CONTINUOUS
10
5.29214
20
-2.94169
11
5.29043
21
-2.94425
0
LINE
8
BLACK
6
CONTINUOUS
10
5.29043
20
-2.94425
11
5.28788
21
-2.94596
0
LINE
8
BLACK
6
CONTINUOUS
10
5.28788
20
-2.94596
11
5.28486
21
-2.94656
0
LINE
8
BLACK
6
CONTINUOUS
10
5.28486
20
-2.94656
11
5.22986
21
-2.94656
0
LINE
8
BLACK
6
CONTINUOUS
10
5.22986
20
-2.94656
11
5.22685
21
-2.94596
0
LINE
8
BLACK
6
CONTINUOUS
10
5.22685
20
-2.94596
11
5.22429
21
-2.94425
0
LINE
8
BLACK
6
CONTINUOUS
10
5.22429
20
-2.94425
11
5.22259
21
-2.94169
0
LINE
8
BLACK
6
CONTINUOUS
10
5.22259
20
-2.94169
11
5.22199
21
-2.93868
0
LINE
8
BLACK
6
CONTINUOUS
10
5.22199
20
-2.93868
11
5.22199
21
-2.90368
0
LINE
8
BLACK
6
CONTINUOUS
10
5.22199
20
-2.90368
11
5.22259
21
-2.90067
0
LINE
8
BLACK
6
CONTINUOUS
10
5.22259
20
-2.90067
11
5.22429
21
-2.89811
0
LINE
8
BLACK
6
CONTINUOUS
10
5.22429
20
-2.89811
11
5.22685
21
-2.89641
0
LINE
8
BLACK
6
CONTINUOUS
10
5.22685
20
-2.89641
11
5.22986
21
-2.89581
0
LINE
8
BLACK
6
CONTINUOUS
10
5.22986
20
-2.89581
11
5.28486
21
-2.89581
0
LINE
8
BLACK
6
CONTINUOUS
10
5.28486
20
-2.89581
11
5.28788
21
-2.89641
0
LINE
8
BLACK
6
CONTINUOUS
10
5.49788
20
-2.86641
11
5.50043
21
-2.86811
0
LINE
8
BLACK
6
CONTINUOUS
10
5.50043
20
-2.86811
11
5.50214
21
-2.87067
0
LINE
8
BLACK
6
CONTINUOUS
10
5.50214
20
-2.87067
11
5.50274
21
-2.87368
0
LINE
8
BLACK
6
CONTINUOUS
10
5.50274
20
-2.87368
11
5.50274
21
-2.92868
0
LINE
8
BLACK
6
CONTINUOUS
10
5.50274
20
-2.92868
11
5.50214
21
-2.93169
0
LINE
8
BLACK
6
CONTINUOUS
10
5.50214
20
-2.93169
11
5.50043
21
-2.93425
0
LINE
8
BLACK
6
CONTINUOUS
10
5.50043
20
-2.93425
11
5.49788
21
-2.93596
0
LINE
8
BLACK
6
CONTINUOUS
10
5.49788
20
-2.93596
11
5.49486
21
-2.93656
0
LINE
8
BLACK
6
CONTINUOUS
10
5.49486
20
-2.93656
11
5.45986
21
-2.93656
0
LINE
8
BLACK
6
CONTINUOUS
10
5.45986
20
-2.93656
11
5.45685
21
-2.93596
0
LINE
8
BLACK
6
CONTINUOUS
10
5.45685
20
-2.93596
11
5.45429
21
-2.93425
0
LINE
8
BLACK
6
CONTINUOUS
10
5.45429
20
-2.93425
11
5.45259
21
-2.93169
0
LINE
8
BLACK
6
CONTINUOUS
10
5.45259
20
-2.93169
11
5.45199
21
-2.92868
0
LINE
8
BLACK
6
CONTINUOUS
10
5.45199
20
-2.92868
11
5.45199
21
-2.87368
0
LINE
8
BLACK
6
CONTINUOUS
10
5.45199
20
-2.87368
11
5.45259
21
-2.87067
0
LINE
8
BLACK
6
CONTINUOUS
10
5.45259
20
-2.87067
11
5.45429
21
-2.86811
0
LINE
8
BLACK
6
CONTINUOUS
10
5.45429
20
-2.86811
11
5.45685
21
-2.86641
0
LINE
8
BLACK
6
CONTINUOUS
10
5.45685
20
-2.86641
11
5.45986
21
-2.86581
0
LINE
8
BLACK
6
CONTINUOUS
10
5.45986
20
-2.86581
11
5.49486
21
-2.86581
0
LINE
8
BLACK
6
CONTINUOUS
10
5.49486
20
-2.86581
11
5.49788
21
-2.86641
0
LINE
8
BLACK
6
CONTINUOUS
10
5.57288
20
-2.86641
11
5.57543
21
-2.86811
0
LINE
8
BLACK
6
CONTINUOUS
10
5.57543
20
-2.86811
11
5.57714
21
-2.87067
0
LINE
8
BLACK
6
CONTINUOUS
10
5.57714
20
-2.87067
11
5.57774
21
-2.87368
0
LINE
8
BLACK
6
CONTINUOUS
10
5.57774
20
-2.87368
11
5.57774
21
-2.92868
0
LINE
8
BLACK
6
CONTINUOUS
10
5.57774
20
-2.92868
11
5.57714
21
-2.93169
0
LINE
8
BLACK
6
CONTINUOUS
10
5.57714
20
-2.93169
11
5.57543
21
-2.93425
0
LINE
8
BLACK
6
CONTINUOUS
10
5.57543
20
-2.93425
11
5.57288
21
-2.93596
0
LINE
8
BLACK
6
CONTINUOUS
10
5.57288
20
-2.93596
11
5.56986
21
-2.93656
0
LINE
8
BLACK
6
CONTINUOUS
10
5.56986
20
-2.93656
11
5.53486
21
-2.93656
0
LINE
8
BLACK
6
CONTINUOUS
10
5.53486
20
-2.93656
11
5.53185
21
-2.93596
0
LINE
8
BLACK
6
CONTINUOUS
10
5.53185
20
-2.93596
11
5.52929
21
-2.93425
0
LINE
8
BLACK
6
CONTINUOUS
10
5.52929
20
-2.93425
11
5.52759
21
-2.93169
0
LINE
8
BLACK
6
CONTINUOUS
10
5.52759
20
-2.93169
11
5.52699
21
-2.92868
0
LINE
8
BLACK
6
CONTINUOUS
10
5.52699
20
-2.92868
11
5.52699
21
-2.87368
0
LINE
8
BLACK
6
CONTINUOUS
10
5.52699
20
-2.87368
11
5.52759
21
-2.87067
0
LINE
8
BLACK
6
CONTINUOUS
10
5.52759
20
-2.87067
11
5.52929
21
-2.86811
0
LINE
8
BLACK
6
CONTINUOUS
10
5.52929
20
-2.86811
11
5.53185
21
-2.86641
0
LINE
8
BLACK
6
CONTINUOUS
10
5.53185
20
-2.86641
11
5.53486
21
-2.86581
0
LINE
8
BLACK
6
CONTINUOUS
10
5.53486
20
-2.86581
11
5.56986
21
-2.86581
0
LINE
8
BLACK
6
CONTINUOUS
10
5.56986
20
-2.86581
11
5.57288
21
-2.86641
0
LINE
8
BLACK
6
CONTINUOUS
10
5.88788
20
-2.82141
11
5.89043
21
-2.82311
0
LINE
8
BLACK
6
CONTINUOUS
10
5.89043
20
-2.82311
11
5.89214
21
-2.82567
0
LINE
8
BLACK
6
CONTINUOUS
10
5.89214
20
-2.82567
11
5.89274
21
-2.82868
0
LINE
8
BLACK
6
CONTINUOUS
10
5.89274
20
-2.82868
11
5.89274
21
-2.86368
0
LINE
8
BLACK
6
CONTINUOUS
10
5.89274
20
-2.86368
11
5.89214
21
-2.86669
0
LINE
8
BLACK
6
CONTINUOUS
10
5.89214
20
-2.86669
11
5.89043
21
-2.86925
0
LINE
8
BLACK
6
CONTINUOUS
10
5.89043
20
-2.86925
11
5.88788
21
-2.87096
0
LINE
8
BLACK
6
CONTINUOUS
10
5.88788
20
-2.87096
11
5.88486
21
-2.87156
0
LINE
8
BLACK
6
CONTINUOUS
10
5.88486
20
-2.87156
11
5.82986
21
-2.87156
0
LINE
8
BLACK
6
CONTINUOUS
10
5.82986
20
-2.87156
11
5.82685
21
-2.87096
0
LINE
8
BLACK
6
CONTINUOUS
10
5.82685
20
-2.87096
11
5.82429
21
-2.86925
0
LINE
8
BLACK
6
CONTINUOUS
10
5.82429
20
-2.86925
11
5.82259
21
-2.86669
0
LINE
8
BLACK
6
CONTINUOUS
10
5.82259
20
-2.86669
11
5.82199
21
-2.86368
0
LINE
8
BLACK
6
CONTINUOUS
10
5.82199
20
-2.86368
11
5.82199
21
-2.82868
0
LINE
8
BLACK
6
CONTINUOUS
10
5.82199
20
-2.82868
11
5.82259
21
-2.82567
0
LINE
8
BLACK
6
CONTINUOUS
10
5.82259
20
-2.82567
11
5.82429
21
-2.82311
0
LINE
8
BLACK
6
CONTINUOUS
10
5.82429
20
-2.82311
11
5.82685
21
-2.82141
0
LINE
8
BLACK
6
CONTINUOUS
10
5.82685
20
-2.82141
11
5.82986
21
-2.82081
0
LINE
8
BLACK
6
CONTINUOUS
10
5.82986
20
-2.82081
11
5.88486
21
-2.82081
0
LINE
8
BLACK
6
CONTINUOUS
10
5.88486
20
-2.82081
11
5.88788
21
-2.82141
0
LINE
8
BLACK
6
CONTINUOUS
10
5.68788
20
-2.82141
11
5.69043
21
-2.82311
0
LINE
8
BLACK
6
CONTINUOUS
10
5.69043
20
-2.82311
11
5.69214
21
-2.82567
0
LINE
8
BLACK
6
CONTINUOUS
10
5.69214
20
-2.82567
11
5.69274
21
-2.82868
0
LINE
8
BLACK
6
CONTINUOUS
10
5.69274
20
-2.82868
11
5.69274
21
-2.86368
0
LINE
8
BLACK
6
CONTINUOUS
10
5.69274
20
-2.86368
11
5.69214
21
-2.86669
0
LINE
8
BLACK
6
CONTINUOUS
10
5.69214
20
-2.86669
11
5.69043
21
-2.86925
0
LINE
8
BLACK
6
CONTINUOUS
10
5.69043
20
-2.86925
11
5.68788
21
-2.87096
0
LINE
8
BLACK
6
CONTINUOUS
10
5.68788
20
-2.87096
11
5.68486
21
-2.87156
0
LINE
8
BLACK
6
CONTINUOUS
10
5.68486
20
-2.87156
11
5.62986
21
-2.87156
0
LINE
8
BLACK
6
CONTINUOUS
10
5.62986
20
-2.87156
11
5.62685
21
-2.87096
0
LINE
8
BLACK
6
CONTINUOUS
10
5.62685
20
-2.87096
11
5.62429
21
-2.86925
0
LINE
8
BLACK
6
CONTINUOUS
10
5.62429
20
-2.86925
11
5.62259
21
-2.86669
0
LINE
8
BLACK
6
CONTINUOUS
10
5.62259
20
-2.86669
11
5.62199
21
-2.86368
0
LINE
8
BLACK
6
CONTINUOUS
10
5.62199
20
-2.86368
11
5.62199
21
-2.82868
0
LINE
8
BLACK
6
CONTINUOUS
10
5.62199
20
-2.82868
11
5.62259
21
-2.82567
0
LINE
8
BLACK
6
CONTINUOUS
10
5.62259
20
-2.82567
11
5.62429
21
-2.82311
0
LINE
8
BLACK
6
CONTINUOUS
10
5.62429
20
-2.82311
11
5.62685
21
-2.82141
0
LINE
8
BLACK
6
CONTINUOUS
10
5.62685
20
-2.82141
11
5.62986
21
-2.82081
0
LINE
8
BLACK
6
CONTINUOUS
10
5.62986
20
-2.82081
11
5.68486
21
-2.82081
0
LINE
8
BLACK
6
CONTINUOUS
10
5.68486
20
-2.82081
11
5.68788
21
-2.82141
0
LINE
8
BLACK
6
CONTINUOUS
10
5.38788
20
-2.82141
11
5.39043
21
-2.82311
0
LINE
8
BLACK
6
CONTINUOUS
10
5.39043
20
-2.82311
11
5.39214
21
-2.82567
0
LINE
8
BLACK
6
CONTINUOUS
10
5.39214
20
-2.82567
11
5.39274
21
-2.82868
0
LINE
8
BLACK
6
CONTINUOUS
10
5.39274
20
-2.82868
11
5.39274
21
-2.86368
0
LINE
8
BLACK
6
CONTINUOUS
10
5.39274
20
-2.86368
11
5.39214
21
-2.86669
0
LINE
8
BLACK
6
CONTINUOUS
10
5.39214
20
-2.86669
11
5.39043
21
-2.86925
0
LINE
8
BLACK
6
CONTINUOUS
10
5.39043
20
-2.86925
11
5.38788
21
-2.87096
0
LINE
8
BLACK
6
CONTINUOUS
10
5.38788
20
-2.87096
11
5.38486
21
-2.87156
0
LINE
8
BLACK
6
CONTINUOUS
10
5.38486
20
-2.87156
11
5.32986
21
-2.87156
0
LINE
8
BLACK
6
CONTINUOUS
10
5.32986
20
-2.87156
11
5.32685
21
-2.87096
0
LINE
8
BLACK
6
CONTINUOUS
10
5.32685
20
-2.87096
11
5.32429
21
-2.86925
0
LINE
8
BLACK
6
CONTINUOUS
10
5.32429
20
-2.86925
11
5.32259
21
-2.86669
0
LINE
8
BLACK
6
CONTINUOUS
10
5.32259
20
-2.86669
11
5.32199
21
-2.86368
0
LINE
8
BLACK
6
CONTINUOUS
10
5.32199
20
-2.86368
11
5.32199
21
-2.82868
0
LINE
8
BLACK
6
CONTINUOUS
10
5.32199
20
-2.82868
11
5.32259
21
-2.82567
0
LINE
8
BLACK
6
CONTINUOUS
10
5.32259
20
-2.82567
11
5.32429
21
-2.82311
0
LINE
8
BLACK
6
CONTINUOUS
10
5.32429
20
-2.82311
11
5.32685
21
-2.82141
0
LINE
8
BLACK
6
CONTINUOUS
10
5.32685
20
-2.82141
11
5.32986
21
-2.82081
0
LINE
8
BLACK
6
CONTINUOUS
10
5.32986
20
-2.82081
11
5.38486
21
-2.82081
0
LINE
8
BLACK
6
CONTINUOUS
10
5.38486
20
-2.82081
11
5.38788
21
-2.82141
0
LINE
8
BLACK
6
CONTINUOUS
10
5.28788
20
-2.82141
11
5.29043
21
-2.82311
0
LINE
8
BLACK
6
CONTINUOUS
10
5.29043
20
-2.82311
11
5.29214
21
-2.82567
0
LINE
8
BLACK
6
CONTINUOUS
10
5.29214
20
-2.82567
11
5.29274
21
-2.82868
0
LINE
8
BLACK
6
CONTINUOUS
10
5.29274
20
-2.82868
11
5.29274
21
-2.86368
0
LINE
8
BLACK
6
CONTINUOUS
10
5.29274
20
-2.86368
11
5.29214
21
-2.86669
0
LINE
8
BLACK
6
CONTINUOUS
10
5.29214
20
-2.86669
11
5.29043
21
-2.86925
0
LINE
8
BLACK
6
CONTINUOUS
10
5.29043
20
-2.86925
11
5.28788
21
-2.87096
0
LINE
8
BLACK
6
CONTINUOUS
10
5.28788
20
-2.87096
11
5.28486
21
-2.87156
0
LINE
8
BLACK
6
CONTINUOUS
10
5.28486
20
-2.87156
11
5.22986
21
-2.87156
0
LINE
8
BLACK
6
CONTINUOUS
10
5.22986
20
-2.87156
11
5.22685
21
-2.87096
0
LINE
8
BLACK
6
CONTINUOUS
10
5.22685
20
-2.87096
11
5.22429
21
-2.86925
0
LINE
8
BLACK
6
CONTINUOUS
10
5.22429
20
-2.86925
11
5.22259
21
-2.86669
0
LINE
8
BLACK
6
CONTINUOUS
10
5.22259
20
-2.86669
11
5.22199
21
-2.86368
0
LINE
8
BLACK
6
CONTINUOUS
10
5.22199
20
-2.86368
11
5.22199
21
-2.82868
0
LINE
8
BLACK
6
CONTINUOUS
10
5.22199
20
-2.82868
11
5.22259
21
-2.82567
0
LINE
8
BLACK
6
CONTINUOUS
10
5.22259
20
-2.82567
11
5.22429
21
-2.82311
0
LINE
8
BLACK
6
CONTINUOUS
10
5.22429
20
-2.82311
11
5.22685
21
-2.82141
0
LINE
8
BLACK
6
CONTINUOUS
10
5.22685
20
-2.82141
11
5.22986
21
-2.82081
0
LINE
8
BLACK
6
CONTINUOUS
10
5.22986
20
-2.82081
11
5.28486
21
-2.82081
0
LINE
8
BLACK
6
CONTINUOUS
10
5.28486
20
-2.82081
11
5.28788
21
-2.82141
0
LINE
8
BLACK
6
CONTINUOUS
10
5.49788
20
-2.76641
11
5.50043
21
-2.76811
0
LINE
8
BLACK
6
CONTINUOUS
10
5.50043
20
-2.76811
11
5.50214
21
-2.77067
0
LINE
8
BLACK
6
CONTINUOUS
10
5.50214
20
-2.77067
11
5.50274
21
-2.77368
0
LINE
8
BLACK
6
CONTINUOUS
10
5.50274
20
-2.77368
11
5.50274
21
-2.82868
0
LINE
8
BLACK
6
CONTINUOUS
10
5.50274
20
-2.82868
11
5.50214
21
-2.83169
0
LINE
8
BLACK
6
CONTINUOUS
10
5.50214
20
-2.83169
11
5.50043
21
-2.83425
0
LINE
8
BLACK
6
CONTINUOUS
10
5.50043
20
-2.83425
11
5.49788
21
-2.83596
0
LINE
8
BLACK
6
CONTINUOUS
10
5.49788
20
-2.83596
11
5.49486
21
-2.83656
0
LINE
8
BLACK
6
CONTINUOUS
10
5.49486
20
-2.83656
11
5.45986
21
-2.83656
0
LINE
8
BLACK
6
CONTINUOUS
10
5.45986
20
-2.83656
11
5.45685
21
-2.83596
0
LINE
8
BLACK
6
CONTINUOUS
10
5.45685
20
-2.83596
11
5.45429
21
-2.83425
0
LINE
8
BLACK
6
CONTINUOUS
10
5.45429
20
-2.83425
11
5.45259
21
-2.83169
0
LINE
8
BLACK
6
CONTINUOUS
10
5.45259
20
-2.83169
11
5.45199
21
-2.82868
0
LINE
8
BLACK
6
CONTINUOUS
10
5.45199
20
-2.82868
11
5.45199
21
-2.77368
0
LINE
8
BLACK
6
CONTINUOUS
10
5.45199
20
-2.77368
11
5.45259
21
-2.77067
0
LINE
8
BLACK
6
CONTINUOUS
10
5.45259
20
-2.77067
11
5.45429
21
-2.76811
0
LINE
8
BLACK
6
CONTINUOUS
10
5.45429
20
-2.76811
11
5.45685
21
-2.76641
0
LINE
8
BLACK
6
CONTINUOUS
10
5.45685
20
-2.76641
11
5.45986
21
-2.76581
0
LINE
8
BLACK
6
CONTINUOUS
10
5.45986
20
-2.76581
11
5.49486
21
-2.76581
0
LINE
8
BLACK
6
CONTINUOUS
10
5.49486
20
-2.76581
11
5.49788
21
-2.76641
0
LINE
8
BLACK
6
CONTINUOUS
10
5.57288
20
-2.76641
11
5.57543
21
-2.76811
0
LINE
8
BLACK
6
CONTINUOUS
10
5.57543
20
-2.76811
11
5.57714
21
-2.77067
0
LINE
8
BLACK
6
CONTINUOUS
10
5.57714
20
-2.77067
11
5.57774
21
-2.77368
0
LINE
8
BLACK
6
CONTINUOUS
10
5.57774
20
-2.77368
11
5.57774
21
-2.82868
0
LINE
8
BLACK
6
CONTINUOUS
10
5.57774
20
-2.82868
11
5.57714
21
-2.83169
0
LINE
8
BLACK
6
CONTINUOUS
10
5.57714
20
-2.83169
11
5.57543
21
-2.83425
0
LINE
8
BLACK
6
CONTINUOUS
10
5.57543
20
-2.83425
11
5.57288
21
-2.83596
0
LINE
8
BLACK
6
CONTINUOUS
10
5.57288
20
-2.83596
11
5.56986
21
-2.83656
0
LINE
8
BLACK
6
CONTINUOUS
10
5.56986
20
-2.83656
11
5.53486
21
-2.83656
0
LINE
8
BLACK
6
CONTINUOUS
10
5.53486
20
-2.83656
11
5.53185
21
-2.83596
0
LINE
8
BLACK
6
CONTINUOUS
10
5.53185
20
-2.83596
11
5.52929
21
-2.83425
0
LINE
8
BLACK
6
CONTINUOUS
10
5.52929
20
-2.83425
11
5.52759
21
-2.83169
0
LINE
8
BLACK
6
CONTINUOUS
10
5.52759
20
-2.83169
11
5.52699
21
-2.82868
0
LINE
8
BLACK
6
CONTINUOUS
10
5.52699
20
-2.82868
11
5.52699
21
-2.77368
0
LINE
8
BLACK
6
CONTINUOUS
10
5.52699
20
-2.77368
11
5.52759
21
-2.77067
0
LINE
8
BLACK
6
CONTINUOUS
10
5.52759
20
-2.77067
11
5.52929
21
-2.76811
0
LINE
8
BLACK
6
CONTINUOUS
10
5.52929
20
-2.76811
11
5.53185
21
-2.76641
0
LINE
8
BLACK
6
CONTINUOUS
10
5.53185
20
-2.76641
11
5.53486
21
-2.76581
0
LINE
8
BLACK
6
CONTINUOUS
10
5.53486
20
-2.76581
11
5.56986
21
-2.76581
0
LINE
8
BLACK
6
CONTINUOUS
10
5.56986
20
-2.76581
11
5.57288
21
-2.76641
0
LINE
8
BLACK
6
CONTINUOUS
10
5.80038
20
-2.58391
11
5.80293
21
-2.58561
0
LINE
8
BLACK
6
CONTINUOUS
10
5.80293
20
-2.58561
11
5.80464
21
-2.58817
0
LINE
8
BLACK
6
CONTINUOUS
10
5.80464
20
-2.58817
11
5.80524
21
-2.59118
0
LINE
8
BLACK
6
CONTINUOUS
10
5.80524
20
-2.59118
11
5.80524
21
-2.65118
0
LINE
8
BLACK
6
CONTINUOUS
10
5.80524
20
-2.65118
11
5.80464
21
-2.65419
0
LINE
8
BLACK
6
CONTINUOUS
10
5.80464
20
-2.65419
11
5.80293
21
-2.65675
0
LINE
8
BLACK
6
CONTINUOUS
10
5.80293
20
-2.65675
11
5.80038
21
-2.65846
0
LINE
8
BLACK
6
CONTINUOUS
10
5.80038
20
-2.65846
11
5.79736
21
-2.65906
0
LINE
8
BLACK
6
CONTINUOUS
10
5.79736
20
-2.65906
11
5.73736
21
-2.65906
0
LINE
8
BLACK
6
CONTINUOUS
10
5.73736
20
-2.65906
11
5.73435
21
-2.65846
0
LINE
8
BLACK
6
CONTINUOUS
10
5.73435
20
-2.65846
11
5.73179
21
-2.65675
0
LINE
8
BLACK
6
CONTINUOUS
10
5.73179
20
-2.65675
11
5.73009
21
-2.65419
0
LINE
8
BLACK
6
CONTINUOUS
10
5.73009
20
-2.65419
11
5.72949
21
-2.65118
0
LINE
8
BLACK
6
CONTINUOUS
10
5.72949
20
-2.65118
11
5.72949
21
-2.59118
0
LINE
8
BLACK
6
CONTINUOUS
10
5.72949
20
-2.59118
11
5.73009
21
-2.58817
0
LINE
8
BLACK
6
CONTINUOUS
10
5.73009
20
-2.58817
11
5.73179
21
-2.58561
0
LINE
8
BLACK
6
CONTINUOUS
10
5.73179
20
-2.58561
11
5.73435
21
-2.58391
0
LINE
8
BLACK
6
CONTINUOUS
10
5.73435
20
-2.58391
11
5.73736
21
-2.58331
0
LINE
8
BLACK
6
CONTINUOUS
10
5.73736
20
-2.58331
11
5.79736
21
-2.58331
0
LINE
8
BLACK
6
CONTINUOUS
10
5.79736
20
-2.58331
11
5.80038
21
-2.58391
0
LINE
8
BLACK
6
CONTINUOUS
10
6.00038
20
-2.58391
11
6.00293
21
-2.58561
0
LINE
8
BLACK
6
CONTINUOUS
10
6.00293
20
-2.58561
11
6.00464
21
-2.58817
0
LINE
8
BLACK
6
CONTINUOUS
10
6.00464
20
-2.58817
11
6.00524
21
-2.59118
0
LINE
8
BLACK
6
CONTINUOUS
10
6.00524
20
-2.59118
11
6.00524
21
-2.65118
0
LINE
8
BLACK
6
CONTINUOUS
10
6.00524
20
-2.65118
11
6.00464
21
-2.65419
0
LINE
8
BLACK
6
CONTINUOUS
10
6.00464
20
-2.65419
11
6.00293
21
-2.65675
0
LINE
8
BLACK
6
CONTINUOUS
10
6.00293
20
-2.65675
11
6.00038
21
-2.65846
0
LINE
8
BLACK
6
CONTINUOUS
10
6.00038
20
-2.65846
11
5.99736
21
-2.65906
0
LINE
8
BLACK
6
CONTINUOUS
10
5.99736
20
-2.65906
11
5.93736
21
-2.65906
0
LINE
8
BLACK
6
CONTINUOUS
10
5.93736
20
-2.65906
11
5.93435
21
-2.65846
0
LINE
8
BLACK
6
CONTINUOUS
10
5.93435
20
-2.65846
11
5.93179
21
-2.65675
0
LINE
8
BLACK
6
CONTINUOUS
10
5.93179
20
-2.65675
11
5.93009
21
-2.65419
0
LINE
8
BLACK
6
CONTINUOUS
10
5.93009
20
-2.65419
11
5.92949
21
-2.65118
0
LINE
8
BLACK
6
CONTINUOUS
10
5.92949
20
-2.65118
11
5.92949
21
-2.59118
0
LINE
8
BLACK
6
CONTINUOUS
10
5.92949
20
-2.59118
11
5.93009
21
-2.58817
0
LINE
8
BLACK
6
CONTINUOUS
10
5.93009
20
-2.58817
11
5.93179
21
-2.58561
0
LINE
8
BLACK
6
CONTINUOUS
10
5.93179
20
-2.58561
11
5.93435
21
-2.58391
0
LINE
8
BLACK
6
CONTINUOUS
10
5.93435
20
-2.58391
11
5.93736
21
-2.58331
0
LINE
8
BLACK
6
CONTINUOUS
10
5.93736
20
-2.58331
11
5.99736
21
-2.58331
0
LINE
8
BLACK
6
CONTINUOUS
10
5.99736
20
-2.58331
11
6.00038
21
-2.58391
0
LINE
8
BLACK
6
CONTINUOUS
10
5.60038
20
-2.58391
11
5.60293
21
-2.58561
0
LINE
8
BLACK
6
CONTINUOUS
10
5.60293
20
-2.58561
11
5.60464
21
-2.58817
0
LINE
8
BLACK
6
CONTINUOUS
10
5.60464
20
-2.58817
11
5.60524
21
-2.59118
0
LINE
8
BLACK
6
CONTINUOUS
10
5.60524
20
-2.59118
11
5.60524
21
-2.65118
0
LINE
8
BLACK
6
CONTINUOUS
10
5.60524
20
-2.65118
11
5.60464
21
-2.65419
0
LINE
8
BLACK
6
CONTINUOUS
10
5.60464
20
-2.65419
11
5.60293
21
-2.65675
0
LINE
8
BLACK
6
CONTINUOUS
10
5.60293
20
-2.65675
11
5.60038
21
-2.65846
0
LINE
8
BLACK
6
CONTINUOUS
10
5.60038
20
-2.65846
11
5.59736
21
-2.65906
0
LINE
8
BLACK
6
CONTINUOUS
10
5.59736
20
-2.65906
11
5.53736
21
-2.65906
0
LINE
8
BLACK
6
CONTINUOUS
10
5.53736
20
-2.65906
11
5.53435
21
-2.65846
0
LINE
8
BLACK
6
CONTINUOUS
10
5.53435
20
-2.65846
11
5.53179
21
-2.65675
0
LINE
8
BLACK
6
CONTINUOUS
10
5.53179
20
-2.65675
11
5.53009
21
-2.65419
0
LINE
8
BLACK
6
CONTINUOUS
10
5.53009
20
-2.65419
11
5.52949
21
-2.65118
0
LINE
8
BLACK
6
CONTINUOUS
10
5.52949
20
-2.65118
11
5.52949
21
-2.59118
0
LINE
8
BLACK
6
CONTINUOUS
10
5.52949
20
-2.59118
11
5.53009
21
-2.58817
0
LINE
8
BLACK
6
CONTINUOUS
10
5.53009
20
-2.58817
11
5.53179
21
-2.58561
0
LINE
8
BLACK
6
CONTINUOUS
10
5.53179
20
-2.58561
11
5.53435
21
-2.58391
0
LINE
8
BLACK
6
CONTINUOUS
10
5.53435
20
-2.58391
11
5.53736
21
-2.58331
0
LINE
8
BLACK
6
CONTINUOUS
10
5.53736
20
-2.58331
11
5.59736
21
-2.58331
0
LINE
8
BLACK
6
CONTINUOUS
10
5.59736
20
-2.58331
11
5.60038
21
-2.58391
0
LINE
8
BLACK
6
CONTINUOUS
10
5.50038
20
-2.58391
11
5.50293
21
-2.58561
0
LINE
8
BLACK
6
CONTINUOUS
10
5.50293
20
-2.58561
11
5.50464
21
-2.58817
0
LINE
8
BLACK
6
CONTINUOUS
10
5.50464
20
-2.58817
11
5.50524
21
-2.59118
0
LINE
8
BLACK
6
CONTINUOUS
10
5.50524
20
-2.59118
11
5.50524
21
-2.65118
0
LINE
8
BLACK
6
CONTINUOUS
10
5.50524
20
-2.65118
11
5.50464
21
-2.65419
0
LINE
8
BLACK
6
CONTINUOUS
10
5.50464
20
-2.65419
11
5.50293
21
-2.65675
0
LINE
8
BLACK
6
CONTINUOUS
10
5.50293
20
-2.65675
11
5.50038
21
-2.65846
0
LINE
8
BLACK
6
CONTINUOUS
10
5.50038
20
-2.65846
11
5.49736
21
-2.65906
0
LINE
8
BLACK
6
CONTINUOUS
10
5.49736
20
-2.65906
11
5.43736
21
-2.65906
0
LINE
8
BLACK
6
CONTINUOUS
10
5.43736
20
-2.65906
11
5.43435
21
-2.65846
0
LINE
8
BLACK
6
CONTINUOUS
10
5.43435
20
-2.65846
11
5.43179
21
-2.65675
0
LINE
8
BLACK
6
CONTINUOUS
10
5.43179
20
-2.65675
11
5.43009
21
-2.65419
0
LINE
8
BLACK
6
CONTINUOUS
10
5.43009
20
-2.65419
11
5.42949
21
-2.65118
0
LINE
8
BLACK
6
CONTINUOUS
10
5.42949
20
-2.65118
11
5.42949
21
-2.59118
0
LINE
8
BLACK
6
CONTINUOUS
10
5.42949
20
-2.59118
11
5.43009
21
-2.58817
0
LINE
8
BLACK
6
CONTINUOUS
10
5.43009
20
-2.58817
11
5.43179
21
-2.58561
0
LINE
8
BLACK
6
CONTINUOUS
10
5.43179
20
-2.58561
11
5.43435
21
-2.58391
0
LINE
8
BLACK
6
CONTINUOUS
10
5.43435
20
-2.58391
11
5.43736
21
-2.58331
0
LINE
8
BLACK
6
CONTINUOUS
10
5.43736
20
-2.58331
11
5.49736
21
-2.58331
0
LINE
8
BLACK
6
CONTINUOUS
10
5.49736
20
-2.58331
11
5.50038
21
-2.58391
0
LINE
8
BLACK
6
CONTINUOUS
10
5.90038
20
-2.58391
11
5.90293
21
-2.58561
0
LINE
8
BLACK
6
CONTINUOUS
10
5.90293
20
-2.58561
11
5.90464
21
-2.58817
0
LINE
8
BLACK
6
CONTINUOUS
10
5.90464
20
-2.58817
11
5.90524
21
-2.59118
0
LINE
8
BLACK
6
CONTINUOUS
10
5.90524
20
-2.59118
11
5.90524
21
-2.65118
0
LINE
8
BLACK
6
CONTINUOUS
10
5.90524
20
-2.65118
11
5.90464
21
-2.65419
0
LINE
8
BLACK
6
CONTINUOUS
10
5.90464
20
-2.65419
11
5.90293
21
-2.65675
0
LINE
8
BLACK
6
CONTINUOUS
10
5.90293
20
-2.65675
11
5.90038
21
-2.65846
0
LINE
8
BLACK
6
CONTINUOUS
10
5.90038
20
-2.65846
11
5.89736
21
-2.65906
0
LINE
8
BLACK
6
CONTINUOUS
10
5.89736
20
-2.65906
11
5.83736
21
-2.65906
0
LINE
8
BLACK
6
CONTINUOUS
10
5.83736
20
-2.65906
11
5.83435
21
-2.65846
0
LINE
8
BLACK
6
CONTINUOUS
10
5.83435
20
-2.65846
11
5.83179
21
-2.65675
0
LINE
8
BLACK
6
CONTINUOUS
10
5.83179
20
-2.65675
11
5.83009
21
-2.65419
0
LINE
8
BLACK
6
CONTINUOUS
10
5.83009
20
-2.65419
11
5.82949
21
-2.65118
0
LINE
8
BLACK
6
CONTINUOUS
10
5.82949
20
-2.65118
11
5.82949
21
-2.59118
0
LINE
8
BLACK
6
CONTINUOUS
10
5.82949
20
-2.59118
11
5.83009
21
-2.58817
0
LINE
8
BLACK
6
CONTINUOUS
10
5.83009
20
-2.58817
11
5.83179
21
-2.58561
0
LINE
8
BLACK
6
CONTINUOUS
10
5.83179
20
-2.58561
11
5.83435
21
-2.58391
0
LINE
8
BLACK
6
CONTINUOUS
10
5.83435
20
-2.58391
11
5.83736
21
-2.58331
0
LINE
8
BLACK
6
CONTINUOUS
10
5.83736
20
-2.58331
11
5.89736
21
-2.58331
0
LINE
8
BLACK
6
CONTINUOUS
10
5.89736
20
-2.58331
11
5.90038
21
-2.58391
0
LINE
8
BLACK
6
CONTINUOUS
10
5.70038
20
-2.58391
11
5.70293
21
-2.58561
0
LINE
8
BLACK
6
CONTINUOUS
10
5.70293
20
-2.58561
11
5.70464
21
-2.58817
0
LINE
8
BLACK
6
CONTINUOUS
10
5.70464
20
-2.58817
11
5.70524
21
-2.59118
0
LINE
8
BLACK
6
CONTINUOUS
10
5.70524
20
-2.59118
11
5.70524
21
-2.65118
0
LINE
8
BLACK
6
CONTINUOUS
10
5.70524
20
-2.65118
11
5.70464
21
-2.65419
0
LINE
8
BLACK
6
CONTINUOUS
10
5.70464
20
-2.65419
11
5.70293
21
-2.65675
0
LINE
8
BLACK
6
CONTINUOUS
10
5.70293
20
-2.65675
11
5.70038
21
-2.65846
0
LINE
8
BLACK
6
CONTINUOUS
10
5.70038
20
-2.65846
11
5.69736
21
-2.65906
0
LINE
8
BLACK
6
CONTINUOUS
10
5.69736
20
-2.65906
11
5.63736
21
-2.65906
0
LINE
8
BLACK
6
CONTINUOUS
10
5.63736
20
-2.65906
11
5.63435
21
-2.65846
0
LINE
8
BLACK
6
CONTINUOUS
10
5.63435
20
-2.65846
11
5.63179
21
-2.65675
0
LINE
8
BLACK
6
CONTINUOUS
10
5.63179
20
-2.65675
11
5.63009
21
-2.65419
0
LINE
8
BLACK
6
CONTINUOUS
10
5.63009
20
-2.65419
11
5.62949
21
-2.65118
0
LINE
8
BLACK
6
CONTINUOUS
10
5.62949
20
-2.65118
11
5.62949
21
-2.59118
0
LINE
8
BLACK
6
CONTINUOUS
10
5.62949
20
-2.59118
11
5.63009
21
-2.58817
0
LINE
8
BLACK
6
CONTINUOUS
10
5.63009
20
-2.58817
11
5.63179
21
-2.58561
0
LINE
8
BLACK
6
CONTINUOUS
10
5.63179
20
-2.58561
11
5.63435
21
-2.58391
0
LINE
8
BLACK
6
CONTINUOUS
10
5.63435
20
-2.58391
11
5.63736
21
-2.58331
0
LINE
8
BLACK
6
CONTINUOUS
10
5.63736
20
-2.58331
11
5.69736
21
-2.58331
0
LINE
8
BLACK
6
CONTINUOUS
10
5.69736
20
-2.58331
11
5.70038
21
-2.58391
  0
ENDSEC
  0
EOF
