  0
SECTION
  2
HEADER
  9
$ANGBASE
  50
0.0
  9
$ANGDIR
  70
1
  9
$MEASUREMENT
  70
0
  0
ENDSEC
  0
SECTION
  2
TABLES
  0
TABLE
  2
LTYPE
  70
4
  0
LTYPE
  5
40F
  2
CONTINUOUS
  70
0
  3
Solid line
  72
65
  73
0
  40
0.0
  0
LTYPE
  5
410
  2
DASHDOT
 70
0
  3
Dash Dot ____ _ ____ _
 72
65
 73
4
 40
2.0
 49
1.25
 49
-0.25
 49
0.25
 49
-0.25
  0
LTYPE
  5
411
  2
DASHED
 70
0
  3
Dashed __ __ __ __ __
 72
65
 73
2
 40
0.75
 49
0.5
 49
-0.25
  0
LTYPE
  5
43B
  2
DOTTED
 70
0
  3
Dotted .  .  .  .
 72
65
 73
2
 40
0.2
 49
0.0
 49
-0.2
  0
ENDTAB
  0
TABLE
  2
STYLE
  70
4
  0
STYLE
  2
KICAD
  70
0
  40
0
  41
1
  42
1
  50
0
  71
0
  3
isocp.shx
  0
STYLE
  2
KICADB
  70
0
  40
0
  41
1
  42
1
  50
0
  71
0
  3
isocp.shx
  0
STYLE
  2
KICADI
  70
0
  40
0
  41
1
  42
1
  50
15
  71
0
  3
isocp.shx
  0
STYLE
  2
KICADBI
  70
0
  40
0
  41
1
  42
1
  50
15
  71
0
  3
isocp.shx
  0
ENDTAB
  0
TABLE
  2
LAYER
  70
1
  0
LAYER
  2
BLACK
  70
0
  62
7
  6
CONTINUOUS
  0
ENDTAB
  0
ENDSEC
  0
SECTION
  2
ENTITIES
0
LINE
8
BLACK
6
CONTINUOUS
10
5.80038
20
-2.58391
11
5.80293
21
-2.58561
0
LINE
8
BLACK
6
CONTINUOUS
10
5.80293
20
-2.58561
11
5.80464
21
-2.58817
0
LINE
8
BLACK
6
CONTINUOUS
10
5.80464
20
-2.58817
11
5.80524
21
-2.59118
0
LINE
8
BLACK
6
CONTINUOUS
10
5.80524
20
-2.59118
11
5.80524
21
-2.65118
0
LINE
8
BLACK
6
CONTINUOUS
10
5.80524
20
-2.65118
11
5.80464
21
-2.65419
0
LINE
8
BLACK
6
CONTINUOUS
10
5.80464
20
-2.65419
11
5.80293
21
-2.65675
0
LINE
8
BLACK
6
CONTINUOUS
10
5.80293
20
-2.65675
11
5.80038
21
-2.65846
0
LINE
8
BLACK
6
CONTINUOUS
10
5.80038
20
-2.65846
11
5.79736
21
-2.65906
0
LINE
8
BLACK
6
CONTINUOUS
10
5.79736
20
-2.65906
11
5.73736
21
-2.65906
0
LINE
8
BLACK
6
CONTINUOUS
10
5.73736
20
-2.65906
11
5.73435
21
-2.65846
0
LINE
8
BLACK
6
CONTINUOUS
10
5.73435
20
-2.65846
11
5.73179
21
-2.65675
0
LINE
8
BLACK
6
CONTINUOUS
10
5.73179
20
-2.65675
11
5.73009
21
-2.65419
0
LINE
8
BLACK
6
CONTINUOUS
10
5.73009
20
-2.65419
11
5.72949
21
-2.65118
0
LINE
8
BLACK
6
CONTINUOUS
10
5.72949
20
-2.65118
11
5.72949
21
-2.59118
0
LINE
8
BLACK
6
CONTINUOUS
10
5.72949
20
-2.59118
11
5.73009
21
-2.58817
0
LINE
8
BLACK
6
CONTINUOUS
10
5.73009
20
-2.58817
11
5.73179
21
-2.58561
0
LINE
8
BLACK
6
CONTINUOUS
10
5.73179
20
-2.58561
11
5.73435
21
-2.58391
0
LINE
8
BLACK
6
CONTINUOUS
10
5.73435
20
-2.58391
11
5.73736
21
-2.58331
0
LINE
8
BLACK
6
CONTINUOUS
10
5.73736
20
-2.58331
11
5.79736
21
-2.58331
0
LINE
8
BLACK
6
CONTINUOUS
10
5.79736
20
-2.58331
11
5.80038
21
-2.58391
0
LINE
8
BLACK
6
CONTINUOUS
10
5.70038
20
-2.58391
11
5.70293
21
-2.58561
0
LINE
8
BLACK
6
CONTINUOUS
10
5.70293
20
-2.58561
11
5.70464
21
-2.58817
0
LINE
8
BLACK
6
CONTINUOUS
10
5.70464
20
-2.58817
11
5.70524
21
-2.59118
0
LINE
8
BLACK
6
CONTINUOUS
10
5.70524
20
-2.59118
11
5.70524
21
-2.65118
0
LINE
8
BLACK
6
CONTINUOUS
10
5.70524
20
-2.65118
11
5.70464
21
-2.65419
0
LINE
8
BLACK
6
CONTINUOUS
10
5.70464
20
-2.65419
11
5.70293
21
-2.65675
0
LINE
8
BLACK
6
CONTINUOUS
10
5.70293
20
-2.65675
11
5.70038
21
-2.65846
0
LINE
8
BLACK
6
CONTINUOUS
10
5.70038
20
-2.65846
11
5.69736
21
-2.65906
0
LINE
8
BLACK
6
CONTINUOUS
10
5.69736
20
-2.65906
11
5.63736
21
-2.65906
0
LINE
8
BLACK
6
CONTINUOUS
10
5.63736
20
-2.65906
11
5.63435
21
-2.65846
0
LINE
8
BLACK
6
CONTINUOUS
10
5.63435
20
-2.65846
11
5.63179
21
-2.65675
0
LINE
8
BLACK
6
CONTINUOUS
10
5.63179
20
-2.65675
11
5.63009
21
-2.65419
0
LINE
8
BLACK
6
CONTINUOUS
10
5.63009
20
-2.65419
11
5.62949
21
-2.65118
0
LINE
8
BLACK
6
CONTINUOUS
10
5.62949
20
-2.65118
11
5.62949
21
-2.59118
0
LINE
8
BLACK
6
CONTINUOUS
10
5.62949
20
-2.59118
11
5.63009
21
-2.58817
0
LINE
8
BLACK
6
CONTINUOUS
10
5.63009
20
-2.58817
11
5.63179
21
-2.58561
0
LINE
8
BLACK
6
CONTINUOUS
10
5.63179
20
-2.58561
11
5.63435
21
-2.58391
0
LINE
8
BLACK
6
CONTINUOUS
10
5.63435
20
-2.58391
11
5.63736
21
-2.58331
0
LINE
8
BLACK
6
CONTINUOUS
10
5.63736
20
-2.58331
11
5.69736
21
-2.58331
0
LINE
8
BLACK
6
CONTINUOUS
10
5.69736
20
-2.58331
11
5.70038
21
-2.58391
0
LINE
8
BLACK
6
CONTINUOUS
10
5.90038
20
-2.58391
11
5.90293
21
-2.58561
0
LINE
8
BLACK
6
CONTINUOUS
10
5.90293
20
-2.58561
11
5.90464
21
-2.58817
0
LINE
8
BLACK
6
CONTINUOUS
10
5.90464
20
-2.58817
11
5.90524
21
-2.59118
0
LINE
8
BLACK
6
CONTINUOUS
10
5.90524
20
-2.59118
11
5.90524
21
-2.65118
0
LINE
8
BLACK
6
CONTINUOUS
10
5.90524
20
-2.65118
11
5.90464
21
-2.65419
0
LINE
8
BLACK
6
CONTINUOUS
10
5.90464
20
-2.65419
11
5.90293
21
-2.65675
0
LINE
8
BLACK
6
CONTINUOUS
10
5.90293
20
-2.65675
11
5.90038
21
-2.65846
0
LINE
8
BLACK
6
CONTINUOUS
10
5.90038
20
-2.65846
11
5.89736
21
-2.65906
0
LINE
8
BLACK
6
CONTINUOUS
10
5.89736
20
-2.65906
11
5.83736
21
-2.65906
0
LINE
8
BLACK
6
CONTINUOUS
10
5.83736
20
-2.65906
11
5.83435
21
-2.65846
0
LINE
8
BLACK
6
CONTINUOUS
10
5.83435
20
-2.65846
11
5.83179
21
-2.65675
0
LINE
8
BLACK
6
CONTINUOUS
10
5.83179
20
-2.65675
11
5.83009
21
-2.65419
0
LINE
8
BLACK
6
CONTINUOUS
10
5.83009
20
-2.65419
11
5.82949
21
-2.65118
0
LINE
8
BLACK
6
CONTINUOUS
10
5.82949
20
-2.65118
11
5.82949
21
-2.59118
0
LINE
8
BLACK
6
CONTINUOUS
10
5.82949
20
-2.59118
11
5.83009
21
-2.58817
0
LINE
8
BLACK
6
CONTINUOUS
10
5.83009
20
-2.58817
11
5.83179
21
-2.58561
0
LINE
8
BLACK
6
CONTINUOUS
10
5.83179
20
-2.58561
11
5.83435
21
-2.58391
0
LINE
8
BLACK
6
CONTINUOUS
10
5.83435
20
-2.58391
11
5.83736
21
-2.58331
0
LINE
8
BLACK
6
CONTINUOUS
10
5.83736
20
-2.58331
11
5.89736
21
-2.58331
0
LINE
8
BLACK
6
CONTINUOUS
10
5.89736
20
-2.58331
11
5.90038
21
-2.58391
0
LINE
8
BLACK
6
CONTINUOUS
10
5.50038
20
-2.58391
11
5.50293
21
-2.58561
0
LINE
8
BLACK
6
CONTINUOUS
10
5.50293
20
-2.58561
11
5.50464
21
-2.58817
0
LINE
8
BLACK
6
CONTINUOUS
10
5.50464
20
-2.58817
11
5.50524
21
-2.59118
0
LINE
8
BLACK
6
CONTINUOUS
10
5.50524
20
-2.59118
11
5.50524
21
-2.65118
0
LINE
8
BLACK
6
CONTINUOUS
10
5.50524
20
-2.65118
11
5.50464
21
-2.65419
0
LINE
8
BLACK
6
CONTINUOUS
10
5.50464
20
-2.65419
11
5.50293
21
-2.65675
0
LINE
8
BLACK
6
CONTINUOUS
10
5.50293
20
-2.65675
11
5.50038
21
-2.65846
0
LINE
8
BLACK
6
CONTINUOUS
10
5.50038
20
-2.65846
11
5.49736
21
-2.65906
0
LINE
8
BLACK
6
CONTINUOUS
10
5.49736
20
-2.65906
11
5.43736
21
-2.65906
0
LINE
8
BLACK
6
CONTINUOUS
10
5.43736
20
-2.65906
11
5.43435
21
-2.65846
0
LINE
8
BLACK
6
CONTINUOUS
10
5.43435
20
-2.65846
11
5.43179
21
-2.65675
0
LINE
8
BLACK
6
CONTINUOUS
10
5.43179
20
-2.65675
11
5.43009
21
-2.65419
0
LINE
8
BLACK
6
CONTINUOUS
10
5.43009
20
-2.65419
11
5.42949
21
-2.65118
0
LINE
8
BLACK
6
CONTINUOUS
10
5.42949
20
-2.65118
11
5.42949
21
-2.59118
0
LINE
8
BLACK
6
CONTINUOUS
10
5.42949
20
-2.59118
11
5.43009
21
-2.58817
0
LINE
8
BLACK
6
CONTINUOUS
10
5.43009
20
-2.58817
11
5.43179
21
-2.58561
0
LINE
8
BLACK
6
CONTINUOUS
10
5.43179
20
-2.58561
11
5.43435
21
-2.58391
0
LINE
8
BLACK
6
CONTINUOUS
10
5.43435
20
-2.58391
11
5.43736
21
-2.58331
0
LINE
8
BLACK
6
CONTINUOUS
10
5.43736
20
-2.58331
11
5.49736
21
-2.58331
0
LINE
8
BLACK
6
CONTINUOUS
10
5.49736
20
-2.58331
11
5.50038
21
-2.58391
0
LINE
8
BLACK
6
CONTINUOUS
10
5.60038
20
-2.58391
11
5.60293
21
-2.58561
0
LINE
8
BLACK
6
CONTINUOUS
10
5.60293
20
-2.58561
11
5.60464
21
-2.58817
0
LINE
8
BLACK
6
CONTINUOUS
10
5.60464
20
-2.58817
11
5.60524
21
-2.59118
0
LINE
8
BLACK
6
CONTINUOUS
10
5.60524
20
-2.59118
11
5.60524
21
-2.65118
0
LINE
8
BLACK
6
CONTINUOUS
10
5.60524
20
-2.65118
11
5.60464
21
-2.65419
0
LINE
8
BLACK
6
CONTINUOUS
10
5.60464
20
-2.65419
11
5.60293
21
-2.65675
0
LINE
8
BLACK
6
CONTINUOUS
10
5.60293
20
-2.65675
11
5.60038
21
-2.65846
0
LINE
8
BLACK
6
CONTINUOUS
10
5.60038
20
-2.65846
11
5.59736
21
-2.65906
0
LINE
8
BLACK
6
CONTINUOUS
10
5.59736
20
-2.65906
11
5.53736
21
-2.65906
0
LINE
8
BLACK
6
CONTINUOUS
10
5.53736
20
-2.65906
11
5.53435
21
-2.65846
0
LINE
8
BLACK
6
CONTINUOUS
10
5.53435
20
-2.65846
11
5.53179
21
-2.65675
0
LINE
8
BLACK
6
CONTINUOUS
10
5.53179
20
-2.65675
11
5.53009
21
-2.65419
0
LINE
8
BLACK
6
CONTINUOUS
10
5.53009
20
-2.65419
11
5.52949
21
-2.65118
0
LINE
8
BLACK
6
CONTINUOUS
10
5.52949
20
-2.65118
11
5.52949
21
-2.59118
0
LINE
8
BLACK
6
CONTINUOUS
10
5.52949
20
-2.59118
11
5.53009
21
-2.58817
0
LINE
8
BLACK
6
CONTINUOUS
10
5.53009
20
-2.58817
11
5.53179
21
-2.58561
0
LINE
8
BLACK
6
CONTINUOUS
10
5.53179
20
-2.58561
11
5.53435
21
-2.58391
0
LINE
8
BLACK
6
CONTINUOUS
10
5.53435
20
-2.58391
11
5.53736
21
-2.58331
0
LINE
8
BLACK
6
CONTINUOUS
10
5.53736
20
-2.58331
11
5.59736
21
-2.58331
0
LINE
8
BLACK
6
CONTINUOUS
10
5.59736
20
-2.58331
11
5.60038
21
-2.58391
0
LINE
8
BLACK
6
CONTINUOUS
10
6.00038
20
-2.58391
11
6.00293
21
-2.58561
0
LINE
8
BLACK
6
CONTINUOUS
10
6.00293
20
-2.58561
11
6.00464
21
-2.58817
0
LINE
8
BLACK
6
CONTINUOUS
10
6.00464
20
-2.58817
11
6.00524
21
-2.59118
0
LINE
8
BLACK
6
CONTINUOUS
10
6.00524
20
-2.59118
11
6.00524
21
-2.65118
0
LINE
8
BLACK
6
CONTINUOUS
10
6.00524
20
-2.65118
11
6.00464
21
-2.65419
0
LINE
8
BLACK
6
CONTINUOUS
10
6.00464
20
-2.65419
11
6.00293
21
-2.65675
0
LINE
8
BLACK
6
CONTINUOUS
10
6.00293
20
-2.65675
11
6.00038
21
-2.65846
0
LINE
8
BLACK
6
CONTINUOUS
10
6.00038
20
-2.65846
11
5.99736
21
-2.65906
0
LINE
8
BLACK
6
CONTINUOUS
10
5.99736
20
-2.65906
11
5.93736
21
-2.65906
0
LINE
8
BLACK
6
CONTINUOUS
10
5.93736
20
-2.65906
11
5.93435
21
-2.65846
0
LINE
8
BLACK
6
CONTINUOUS
10
5.93435
20
-2.65846
11
5.93179
21
-2.65675
0
LINE
8
BLACK
6
CONTINUOUS
10
5.93179
20
-2.65675
11
5.93009
21
-2.65419
0
LINE
8
BLACK
6
CONTINUOUS
10
5.93009
20
-2.65419
11
5.92949
21
-2.65118
0
LINE
8
BLACK
6
CONTINUOUS
10
5.92949
20
-2.65118
11
5.92949
21
-2.59118
0
LINE
8
BLACK
6
CONTINUOUS
10
5.92949
20
-2.59118
11
5.93009
21
-2.58817
0
LINE
8
BLACK
6
CONTINUOUS
10
5.93009
20
-2.58817
11
5.93179
21
-2.58561
0
LINE
8
BLACK
6
CONTINUOUS
10
5.93179
20
-2.58561
11
5.93435
21
-2.58391
0
LINE
8
BLACK
6
CONTINUOUS
10
5.93435
20
-2.58391
11
5.93736
21
-2.58331
0
LINE
8
BLACK
6
CONTINUOUS
10
5.93736
20
-2.58331
11
5.99736
21
-2.58331
0
LINE
8
BLACK
6
CONTINUOUS
10
5.99736
20
-2.58331
11
6.00038
21
-2.58391
  0
ENDSEC
  0
EOF
