  0
SECTION
  2
HEADER
  9
$ANGBASE
  50
0.0
  9
$ANGDIR
  70
1
  9
$MEASUREMENT
  70
0
  0
ENDSEC
  0
SECTION
  2
TABLES
  0
TABLE
  2
LTYPE
  70
4
  0
LTYPE
  5
40F
  2
CONTINUOUS
  70
0
  3
Solid line
  72
65
  73
0
  40
0.0
  0
LTYPE
  5
410
  2
DASHDOT
 70
0
  3
Dash Dot ____ _ ____ _
 72
65
 73
4
 40
2.0
 49
1.25
 49
-0.25
 49
0.25
 49
-0.25
  0
LTYPE
  5
411
  2
DASHED
 70
0
  3
Dashed __ __ __ __ __
 72
65
 73
2
 40
0.75
 49
0.5
 49
-0.25
  0
LTYPE
  5
43B
  2
DOTTED
 70
0
  3
Dotted .  .  .  .
 72
65
 73
2
 40
0.2
 49
0.0
 49
-0.2
  0
ENDTAB
  0
TABLE
  2
STYLE
  70
4
  0
STYLE
  2
KICAD
  70
0
  40
0
  41
1
  42
1
  50
0
  71
0
  3
isocp.shx
  0
STYLE
  2
KICADB
  70
0
  40
0
  41
1
  42
1
  50
0
  71
0
  3
isocp.shx
  0
STYLE
  2
KICADI
  70
0
  40
0
  41
1
  42
1
  50
15
  71
0
  3
isocp.shx
  0
STYLE
  2
KICADBI
  70
0
  40
0
  41
1
  42
1
  50
15
  71
0
  3
isocp.shx
  0
ENDTAB
  0
TABLE
  2
LAYER
  70
1
  0
LAYER
  2
BLACK
  70
0
  62
7
  6
CONTINUOUS
  0
ENDTAB
  0
ENDSEC
  0
SECTION
  2
ENTITIES
0
LINE
8
BLACK
6
CONTINUOUS
10
6.17381
20
-2.48428
11
6.17394
21
-2.48426
0
LINE
8
BLACK
6
CONTINUOUS
10
6.17394
20
-2.48426
11
6.17405
21
-2.48432
0
LINE
8
BLACK
6
CONTINUOUS
10
6.17405
20
-2.48432
11
6.17444
21
-2.48439
0
LINE
8
BLACK
6
CONTINUOUS
10
6.17444
20
-2.48439
11
6.17502
21
-2.48488
0
LINE
8
BLACK
6
CONTINUOUS
10
6.17502
20
-2.48488
11
6.17569
21
-2.48527
0
LINE
8
BLACK
6
CONTINUOUS
10
6.17569
20
-2.48527
11
6.17578
21
-2.48552
0
LINE
8
BLACK
6
CONTINUOUS
10
6.17578
20
-2.48552
11
6.17598
21
-2.48569
0
LINE
8
BLACK
6
CONTINUOUS
10
6.17598
20
-2.48569
11
6.17612
21
-2.48644
0
LINE
8
BLACK
6
CONTINUOUS
10
6.17612
20
-2.48644
11
6.17638
21
-2.48717
0
LINE
8
BLACK
6
CONTINUOUS
10
6.17638
20
-2.48717
11
6.17638
21
-4.45567
0
LINE
8
BLACK
6
CONTINUOUS
10
6.17638
20
-4.45567
11
6.17631
21
-4.45605
0
LINE
8
BLACK
6
CONTINUOUS
10
6.17631
20
-4.45605
11
6.17633
21
-4.45618
0
LINE
8
BLACK
6
CONTINUOUS
10
6.17633
20
-4.45618
11
6.17627
21
-4.4563
0
LINE
8
BLACK
6
CONTINUOUS
10
6.17627
20
-4.4563
11
6.1762
21
-4.45668
0
LINE
8
BLACK
6
CONTINUOUS
10
6.1762
20
-4.45668
11
6.17571
21
-4.45727
0
LINE
8
BLACK
6
CONTINUOUS
10
6.17571
20
-4.45727
11
6.17532
21
-4.45793
0
LINE
8
BLACK
6
CONTINUOUS
10
6.17532
20
-4.45793
11
6.17507
21
-4.45802
0
LINE
8
BLACK
6
CONTINUOUS
10
6.17507
20
-4.45802
11
6.1749
21
-4.45823
0
LINE
8
BLACK
6
CONTINUOUS
10
6.1749
20
-4.45823
11
6.17415
21
-4.45836
0
LINE
8
BLACK
6
CONTINUOUS
10
6.17415
20
-4.45836
11
6.17343
21
-4.45862
0
LINE
8
BLACK
6
CONTINUOUS
10
6.17343
20
-4.45862
11
4.67736
21
-4.45862
0
LINE
8
BLACK
6
CONTINUOUS
10
4.67736
20
-4.45862
11
4.67698
21
-4.45855
0
LINE
8
BLACK
6
CONTINUOUS
10
4.67698
20
-4.45855
11
4.67685
21
-4.45858
0
LINE
8
BLACK
6
CONTINUOUS
10
4.67685
20
-4.45858
11
4.67674
21
-4.45851
0
LINE
8
BLACK
6
CONTINUOUS
10
4.67674
20
-4.45851
11
4.67635
21
-4.45844
0
LINE
8
BLACK
6
CONTINUOUS
10
4.67635
20
-4.45844
11
4.67576
21
-4.45795
0
LINE
8
BLACK
6
CONTINUOUS
10
4.67576
20
-4.45795
11
4.6751
21
-4.45757
0
LINE
8
BLACK
6
CONTINUOUS
10
4.6751
20
-4.45757
11
4.67501
21
-4.45732
0
LINE
8
BLACK
6
CONTINUOUS
10
4.67501
20
-4.45732
11
4.67481
21
-4.45715
0
LINE
8
BLACK
6
CONTINUOUS
10
4.67481
20
-4.45715
11
4.67467
21
-4.45639
0
LINE
8
BLACK
6
CONTINUOUS
10
4.67467
20
-4.45639
11
4.67441
21
-4.45567
0
LINE
8
BLACK
6
CONTINUOUS
10
4.67441
20
-4.45567
11
4.67441
21
-2.48717
0
LINE
8
BLACK
6
CONTINUOUS
10
4.67441
20
-2.48717
11
4.67448
21
-2.48678
0
LINE
8
BLACK
6
CONTINUOUS
10
4.67448
20
-2.48678
11
4.67445
21
-2.48665
0
LINE
8
BLACK
6
CONTINUOUS
10
4.67445
20
-2.48665
11
4.67452
21
-2.48654
0
LINE
8
BLACK
6
CONTINUOUS
10
4.67452
20
-2.48654
11
4.67459
21
-2.48616
0
LINE
8
BLACK
6
CONTINUOUS
10
4.67459
20
-2.48616
11
4.67508
21
-2.48557
0
LINE
8
BLACK
6
CONTINUOUS
10
4.67508
20
-2.48557
11
4.67546
21
-2.4849
0
LINE
8
BLACK
6
CONTINUOUS
10
4.67546
20
-2.4849
11
4.67571
21
-2.48481
0
LINE
8
BLACK
6
CONTINUOUS
10
4.67571
20
-2.48481
11
4.67589
21
-2.48461
0
LINE
8
BLACK
6
CONTINUOUS
10
4.67589
20
-2.48461
11
4.67664
21
-2.48447
0
LINE
8
BLACK
6
CONTINUOUS
10
4.67664
20
-2.48447
11
4.67736
21
-2.48421
0
LINE
8
BLACK
6
CONTINUOUS
10
4.67736
20
-2.48421
11
6.17343
21
-2.48421
0
LINE
8
BLACK
6
CONTINUOUS
10
6.17343
20
-2.48421
11
6.17381
21
-2.48428
0
LINE
8
BLACK
6
CONTINUOUS
10
4.68031
20
-2.49012
11
4.68031
21
-4.45272
0
LINE
8
BLACK
6
CONTINUOUS
10
4.68031
20
-4.45272
11
6.17047
21
-4.45272
0
LINE
8
BLACK
6
CONTINUOUS
10
6.17047
20
-4.45272
11
6.17047
21
-2.49012
0
LINE
8
BLACK
6
CONTINUOUS
10
6.17047
20
-2.49012
11
4.68031
21
-2.49012
  0
ENDSEC
  0
EOF
