G04 #@! TF.GenerationSoftware,KiCad,Pcbnew,(5.99.0-12665-gbf8a020501)*
G04 #@! TF.CreationDate,2021-12-24T11:16:50+01:00*
G04 #@! TF.ProjectId,SPACEDOS02B_PCB02A,53504143-4544-44f5-9330-32425f504342,REV*
G04 #@! TF.SameCoordinates,Original*
G04 #@! TF.FileFunction,Copper,L1,Top*
G04 #@! TF.FilePolarity,Positive*
%FSLAX46Y46*%
G04 Gerber Fmt 4.6, Leading zero omitted, Abs format (unit mm)*
G04 Created by KiCad (PCBNEW (5.99.0-12665-gbf8a020501)) date 2021-12-24 11:16:50*
%MOMM*%
%LPD*%
G01*
G04 APERTURE LIST*
G04 #@! TA.AperFunction,ComponentPad*
%ADD10R,1.524000X1.524000*%
G04 #@! TD*
G04 #@! TA.AperFunction,ViaPad*
%ADD11C,0.800000*%
G04 #@! TD*
G04 #@! TA.AperFunction,Conductor*
%ADD12C,0.600000*%
G04 #@! TD*
G04 APERTURE END LIST*
D10*
X27686000Y196596000D03*
X25146000Y196596000D03*
X30226000Y196596000D03*
X20066000Y196596000D03*
X22606000Y196596000D03*
X32766000Y196596000D03*
D11*
X23368000Y192024000D03*
D12*
X23933685Y192024000D02*
X23368000Y192024000D01*
X30226000Y196596000D02*
X30226000Y195234000D01*
X27016000Y192024000D02*
X23933685Y192024000D01*
X30226000Y195234000D02*
X27016000Y192024000D01*
G04 #@! TA.AperFunction,Conductor*
G36*
X37442121Y199479998D02*
G01*
X37488614Y199426342D01*
X37500000Y199374000D01*
X37500000Y150626000D01*
X37479998Y150557879D01*
X37426342Y150511386D01*
X37374000Y150500000D01*
X626000Y150500000D01*
X557879Y150520002D01*
X511386Y150573658D01*
X500000Y150626000D01*
X500000Y192024000D01*
X22762318Y192024000D01*
X22782956Y191867238D01*
X22843464Y191721159D01*
X22939718Y191595718D01*
X23065159Y191499464D01*
X23211238Y191438956D01*
X23368000Y191418318D01*
X23376188Y191419396D01*
X23516574Y191437878D01*
X23524762Y191438956D01*
X23670841Y191499464D01*
X23677396Y191504494D01*
X23681077Y191506619D01*
X23744078Y191523500D01*
X26945819Y191523500D01*
X26957704Y191522172D01*
X26957745Y191522682D01*
X26966691Y191521962D01*
X26975447Y191519981D01*
X27028263Y191523258D01*
X27036067Y191523500D01*
X27051940Y191523500D01*
X27062052Y191524948D01*
X27072106Y191525978D01*
X27100097Y191527715D01*
X27118538Y191528859D01*
X27126982Y191531907D01*
X27130694Y191532676D01*
X27145399Y191536343D01*
X27149027Y191537404D01*
X27157918Y191538677D01*
X27200282Y191557939D01*
X27209637Y191561746D01*
X27244943Y191574491D01*
X27244947Y191574493D01*
X27253387Y191577540D01*
X27260635Y191582835D01*
X27263975Y191584611D01*
X27277089Y191592274D01*
X27280261Y191594303D01*
X27288428Y191598016D01*
X27295223Y191603871D01*
X27295226Y191603873D01*
X27323675Y191628387D01*
X27331596Y191634676D01*
X27338402Y191639648D01*
X27342336Y191642522D01*
X27353079Y191653265D01*
X27359926Y191659623D01*
X27390237Y191685741D01*
X27397037Y191691600D01*
X27401920Y191699134D01*
X27407819Y191705896D01*
X27407824Y191705892D01*
X27416800Y191716986D01*
X30530280Y194830466D01*
X30539624Y194837932D01*
X30539292Y194838322D01*
X30546128Y194844140D01*
X30553720Y194848930D01*
X30588756Y194888601D01*
X30594102Y194894288D01*
X30605321Y194905507D01*
X30611450Y194913684D01*
X30617832Y194921523D01*
X30642684Y194949663D01*
X30642685Y194949664D01*
X30648623Y194956388D01*
X30652434Y194964506D01*
X30654506Y194967659D01*
X30662329Y194980680D01*
X30664141Y194983989D01*
X30669527Y194991176D01*
X30685857Y195034737D01*
X30689784Y195044057D01*
X30705737Y195078036D01*
X30709553Y195086163D01*
X30710934Y195095035D01*
X30712042Y195098658D01*
X30715888Y195113317D01*
X30716701Y195117014D01*
X30719852Y195125420D01*
X30723302Y195171843D01*
X30724453Y195181861D01*
X30726500Y195195009D01*
X30726500Y195210204D01*
X30726846Y195219541D01*
X30729811Y195259444D01*
X30730476Y195268392D01*
X30728603Y195277168D01*
X30727992Y195286125D01*
X30727998Y195286125D01*
X30726500Y195300318D01*
X30726500Y195507500D01*
X30746502Y195575621D01*
X30800158Y195622114D01*
X30852500Y195633500D01*
X31007748Y195633500D01*
X31013816Y195634707D01*
X31054061Y195642712D01*
X31054062Y195642712D01*
X31066231Y195645133D01*
X31132552Y195689448D01*
X31176867Y195755769D01*
X31188500Y195814252D01*
X31188500Y197377748D01*
X31176867Y197436231D01*
X31132552Y197502552D01*
X31066231Y197546867D01*
X31054062Y197549288D01*
X31054061Y197549288D01*
X31013816Y197557293D01*
X31007748Y197558500D01*
X29444252Y197558500D01*
X29438184Y197557293D01*
X29397939Y197549288D01*
X29397938Y197549288D01*
X29385769Y197546867D01*
X29319448Y197502552D01*
X29275133Y197436231D01*
X29263500Y197377748D01*
X29263500Y195814252D01*
X29275133Y195755769D01*
X29319448Y195689448D01*
X29385769Y195645133D01*
X29397938Y195642712D01*
X29397939Y195642712D01*
X29438184Y195634707D01*
X29444252Y195633500D01*
X29599500Y195633500D01*
X29667621Y195613498D01*
X29714114Y195559842D01*
X29725500Y195507500D01*
X29725500Y195493504D01*
X29705498Y195425383D01*
X29688595Y195404409D01*
X26845591Y192561405D01*
X26783279Y192527379D01*
X26756496Y192524500D01*
X23744078Y192524500D01*
X23681077Y192541381D01*
X23677396Y192543506D01*
X23670841Y192548536D01*
X23524762Y192609044D01*
X23368000Y192629682D01*
X23211238Y192609044D01*
X23065159Y192548536D01*
X22939718Y192452282D01*
X22843464Y192326841D01*
X22782956Y192180762D01*
X22762318Y192024000D01*
X500000Y192024000D01*
X500000Y195814252D01*
X19103500Y195814252D01*
X19115133Y195755769D01*
X19159448Y195689448D01*
X19225769Y195645133D01*
X19237938Y195642712D01*
X19237939Y195642712D01*
X19278184Y195634707D01*
X19284252Y195633500D01*
X20847748Y195633500D01*
X20853816Y195634707D01*
X20894061Y195642712D01*
X20894062Y195642712D01*
X20906231Y195645133D01*
X20972552Y195689448D01*
X21016867Y195755769D01*
X21028500Y195814252D01*
X21643500Y195814252D01*
X21655133Y195755769D01*
X21699448Y195689448D01*
X21765769Y195645133D01*
X21777938Y195642712D01*
X21777939Y195642712D01*
X21818184Y195634707D01*
X21824252Y195633500D01*
X23387748Y195633500D01*
X23393816Y195634707D01*
X23434061Y195642712D01*
X23434062Y195642712D01*
X23446231Y195645133D01*
X23512552Y195689448D01*
X23556867Y195755769D01*
X23568500Y195814252D01*
X24183500Y195814252D01*
X24195133Y195755769D01*
X24239448Y195689448D01*
X24305769Y195645133D01*
X24317938Y195642712D01*
X24317939Y195642712D01*
X24358184Y195634707D01*
X24364252Y195633500D01*
X25927748Y195633500D01*
X25933816Y195634707D01*
X25974061Y195642712D01*
X25974062Y195642712D01*
X25986231Y195645133D01*
X26052552Y195689448D01*
X26096867Y195755769D01*
X26108500Y195814252D01*
X26723500Y195814252D01*
X26735133Y195755769D01*
X26779448Y195689448D01*
X26845769Y195645133D01*
X26857938Y195642712D01*
X26857939Y195642712D01*
X26898184Y195634707D01*
X26904252Y195633500D01*
X28467748Y195633500D01*
X28473816Y195634707D01*
X28514061Y195642712D01*
X28514062Y195642712D01*
X28526231Y195645133D01*
X28592552Y195689448D01*
X28636867Y195755769D01*
X28648500Y195814252D01*
X28648500Y197377748D01*
X28636867Y197436231D01*
X28592552Y197502552D01*
X28526231Y197546867D01*
X28514062Y197549288D01*
X28514061Y197549288D01*
X28473816Y197557293D01*
X28467748Y197558500D01*
X26904252Y197558500D01*
X26898184Y197557293D01*
X26857939Y197549288D01*
X26857938Y197549288D01*
X26845769Y197546867D01*
X26779448Y197502552D01*
X26735133Y197436231D01*
X26723500Y197377748D01*
X26723500Y195814252D01*
X26108500Y195814252D01*
X26108500Y197377748D01*
X26096867Y197436231D01*
X26052552Y197502552D01*
X25986231Y197546867D01*
X25974062Y197549288D01*
X25974061Y197549288D01*
X25933816Y197557293D01*
X25927748Y197558500D01*
X24364252Y197558500D01*
X24358184Y197557293D01*
X24317939Y197549288D01*
X24317938Y197549288D01*
X24305769Y197546867D01*
X24239448Y197502552D01*
X24195133Y197436231D01*
X24183500Y197377748D01*
X24183500Y195814252D01*
X23568500Y195814252D01*
X23568500Y197377748D01*
X23556867Y197436231D01*
X23512552Y197502552D01*
X23446231Y197546867D01*
X23434062Y197549288D01*
X23434061Y197549288D01*
X23393816Y197557293D01*
X23387748Y197558500D01*
X21824252Y197558500D01*
X21818184Y197557293D01*
X21777939Y197549288D01*
X21777938Y197549288D01*
X21765769Y197546867D01*
X21699448Y197502552D01*
X21655133Y197436231D01*
X21643500Y197377748D01*
X21643500Y195814252D01*
X21028500Y195814252D01*
X21028500Y197377748D01*
X21016867Y197436231D01*
X20972552Y197502552D01*
X20906231Y197546867D01*
X20894062Y197549288D01*
X20894061Y197549288D01*
X20853816Y197557293D01*
X20847748Y197558500D01*
X19284252Y197558500D01*
X19278184Y197557293D01*
X19237939Y197549288D01*
X19237938Y197549288D01*
X19225769Y197546867D01*
X19159448Y197502552D01*
X19115133Y197436231D01*
X19103500Y197377748D01*
X19103500Y195814252D01*
X500000Y195814252D01*
X500000Y199374000D01*
X520002Y199442121D01*
X573658Y199488614D01*
X626000Y199500000D01*
X37374000Y199500000D01*
X37442121Y199479998D01*
G37*
G04 #@! TD.AperFunction*
M02*
