G04 #@! TF.GenerationSoftware,KiCad,Pcbnew,(6.0.0-rc1-dev-205-gc0615c5ef)*
G04 #@! TF.CreationDate,2019-05-07T06:14:22+02:00*
G04 #@! TF.ProjectId,SPACEDOS02A_PCB01A,5350414345444F533032415F50434230,REV*
G04 #@! TF.SameCoordinates,Original*
G04 #@! TF.FileFunction,Soldermask,Top*
G04 #@! TF.FilePolarity,Negative*
%FSLAX46Y46*%
G04 Gerber Fmt 4.6, Leading zero omitted, Abs format (unit mm)*
G04 Created by KiCad (PCBNEW (6.0.0-rc1-dev-205-gc0615c5ef)) date 05/07/19 06:14:22*
%MOMM*%
%LPD*%
G01*
G04 APERTURE LIST*
%ADD10C,0.100000*%
%ADD11C,2.900000*%
%ADD12R,1.924000X1.924000*%
%ADD13C,1.924000*%
%ADD14C,2.000000*%
%ADD15C,1.500000*%
G04 APERTURE END LIST*
D10*
G36*
X0Y-254000D02*
X0Y25146000D01*
X38100000Y25146000D01*
X38100000Y0D01*
X0Y0D01*
X0Y-254000D01*
G37*
X0Y-254000D02*
X0Y25146000D01*
X38100000Y25146000D01*
X38100000Y0D01*
X0Y0D01*
X0Y-254000D01*
D11*
G04 #@! TO.C,BT1*
X19050000Y26956000D03*
X19050000Y94456000D03*
G04 #@! TD*
D12*
G04 #@! TO.C,J2*
X17526000Y99060000D03*
X17526000Y101600000D03*
G04 #@! TD*
G04 #@! TO.C,J7*
X9906000Y99060000D03*
G04 #@! TD*
G04 #@! TO.C,J4*
X12446000Y101600000D03*
G04 #@! TD*
G04 #@! TO.C,J6*
X9906000Y101600000D03*
G04 #@! TD*
G04 #@! TO.C,J5*
X12446000Y99060000D03*
G04 #@! TD*
G04 #@! TO.C,J19*
X7366000Y101600000D03*
X7366000Y99060000D03*
G04 #@! TD*
D13*
G04 #@! TO.C,D1*
X8596000Y9692000D03*
X8596000Y14692000D03*
G04 #@! TD*
D14*
G04 #@! TO.C,J1*
X9042000Y132873000D03*
D15*
X30042000Y132873000D03*
G04 #@! TD*
D12*
G04 #@! TO.C,J8*
X27686000Y106426000D03*
G04 #@! TD*
G04 #@! TO.C,J9*
X25146000Y106426000D03*
G04 #@! TD*
G04 #@! TO.C,J10*
X30226000Y106426000D03*
G04 #@! TD*
G04 #@! TO.C,J11*
X20066000Y106426000D03*
G04 #@! TD*
G04 #@! TO.C,J12*
X22606000Y106426000D03*
G04 #@! TD*
G04 #@! TO.C,J13*
X32766000Y106426000D03*
G04 #@! TD*
G04 #@! TO.C,J3*
X14986000Y99060000D03*
X14986000Y101600000D03*
G04 #@! TD*
G04 #@! TO.C,J14*
X27686000Y146558000D03*
G04 #@! TD*
G04 #@! TO.C,J15*
X25146000Y146558000D03*
G04 #@! TD*
G04 #@! TO.C,J16*
X30226000Y146558000D03*
G04 #@! TD*
G04 #@! TO.C,J17*
X20066000Y146558000D03*
G04 #@! TD*
G04 #@! TO.C,J18*
X22606000Y146558000D03*
G04 #@! TD*
G04 #@! TO.C,J20*
X32766000Y146558000D03*
G04 #@! TD*
G04 #@! TO.C,J21*
X27686000Y196596000D03*
G04 #@! TD*
G04 #@! TO.C,J23*
X25146000Y196596000D03*
G04 #@! TD*
G04 #@! TO.C,J24*
X30226000Y196596000D03*
G04 #@! TD*
G04 #@! TO.C,J25*
X20066000Y196596000D03*
G04 #@! TD*
G04 #@! TO.C,J26*
X22606000Y196596000D03*
G04 #@! TD*
G04 #@! TO.C,J27*
X32766000Y196596000D03*
G04 #@! TD*
M02*
