G04 #@! TF.GenerationSoftware,KiCad,Pcbnew,(5.1.0-rc1-3-g6bb8fde48)*
G04 #@! TF.CreationDate,2019-05-06T08:53:10+02:00
G04 #@! TF.ProjectId,SPACEDOS02A_PCB01A,53504143-4544-44f5-9330-32415f504342,REV*
G04 #@! TF.SameCoordinates,Original*
G04 #@! TF.FileFunction,Soldermask,Top*
G04 #@! TF.FilePolarity,Negative*
%FSLAX46Y46*%
G04 Gerber Fmt 4.6, Leading zero omitted, Abs format (unit mm)*
G04 Created by KiCad (PCBNEW (5.1.0-rc1-3-g6bb8fde48)) date 2019-05-06 08:53:10*
%MOMM*%
%LPD*%
G04 APERTURE LIST*
%ADD10C,0.100000*%
%ADD11C,2.900000*%
%ADD12R,1.924000X1.924000*%
%ADD13C,1.924000*%
%ADD14C,2.000000*%
%ADD15C,1.500000*%
G04 APERTURE END LIST*
D10*
G36*
X38100000Y0D02*
G01*
X0Y0D01*
X0Y25146000D01*
X38100000Y25146000D01*
X38100000Y0D01*
G37*
X38100000Y0D02*
X0Y0D01*
X0Y25146000D01*
X38100000Y25146000D01*
X38100000Y0D01*
D11*
X19050000Y26956000D03*
X19050000Y94456000D03*
D12*
X17526000Y99060000D03*
X17526000Y101600000D03*
X9906000Y99060000D03*
X12446000Y101600000D03*
X9906000Y101600000D03*
X12446000Y99060000D03*
X7366000Y101600000D03*
X7366000Y99060000D03*
D13*
X8596000Y9692000D03*
X8596000Y14692000D03*
D14*
X9042000Y132873000D03*
D15*
X30042000Y132873000D03*
D12*
X27686000Y106426000D03*
X25146000Y106426000D03*
X30226000Y106426000D03*
X20066000Y106426000D03*
X22606000Y106426000D03*
X32766000Y106426000D03*
X14986000Y99060000D03*
X14986000Y101600000D03*
X27686000Y146558000D03*
X25146000Y146558000D03*
X30226000Y146558000D03*
X20066000Y146558000D03*
X22606000Y146558000D03*
X32766000Y146558000D03*
X27686000Y196596000D03*
X25146000Y196596000D03*
X30226000Y196596000D03*
X20066000Y196596000D03*
X22606000Y196596000D03*
X32766000Y196596000D03*
M02*
