G04 #@! TF.GenerationSoftware,KiCad,Pcbnew,(5.1.0-rc1-3-g6bb8fde48)*
G04 #@! TF.CreationDate,2019-05-06T08:53:10+02:00
G04 #@! TF.ProjectId,SPACEDOS02A_PCB01A,53504143-4544-44f5-9330-32415f504342,REV*
G04 #@! TF.SameCoordinates,Original*
G04 #@! TF.FileFunction,Copper,L1,Top*
G04 #@! TF.FilePolarity,Positive*
%FSLAX46Y46*%
G04 Gerber Fmt 4.6, Leading zero omitted, Abs format (unit mm)*
G04 Created by KiCad (PCBNEW (5.1.0-rc1-3-g6bb8fde48)) date 2019-05-06 08:53:10*
%MOMM*%
%LPD*%
G04 APERTURE LIST*
%ADD10C,2.500000*%
%ADD11R,1.524000X1.524000*%
%ADD12C,1.524000*%
%ADD13C,0.800000*%
%ADD14C,0.250000*%
%ADD15C,0.400000*%
%ADD16C,0.800000*%
%ADD17C,0.600000*%
%ADD18C,0.254000*%
G04 APERTURE END LIST*
D10*
X19050000Y26956000D03*
X19050000Y94456000D03*
D11*
X17526000Y99060000D03*
X17526000Y101600000D03*
X9906000Y99060000D03*
X12446000Y101600000D03*
X9906000Y101600000D03*
X12446000Y99060000D03*
X7366000Y101600000D03*
X7366000Y99060000D03*
D12*
X8596000Y9692000D03*
X8596000Y14692000D03*
D11*
X27686000Y106426000D03*
X25146000Y106426000D03*
X30226000Y106426000D03*
X20066000Y106426000D03*
X22606000Y106426000D03*
X32766000Y106426000D03*
X14986000Y99060000D03*
X14986000Y101600000D03*
X27686000Y146558000D03*
X25146000Y146558000D03*
X30226000Y146558000D03*
X20066000Y146558000D03*
X22606000Y146558000D03*
X32766000Y146558000D03*
X27686000Y196596000D03*
X25146000Y196596000D03*
X30226000Y196596000D03*
X20066000Y196596000D03*
X22606000Y196596000D03*
X32766000Y196596000D03*
D13*
X9906000Y83820000D03*
X32258000Y68834000D03*
X31242000Y70358000D03*
X30213300Y37503100D03*
X22218300Y12898100D03*
X23736300Y14770100D03*
X24123300Y12263100D03*
X24123300Y10706100D03*
X20313300Y10358100D03*
X18408300Y10358100D03*
X17138300Y10358100D03*
X15887735Y10357557D03*
X10160000Y2794000D03*
X14598300Y12263100D03*
X17386486Y33466286D03*
X15868300Y38933100D03*
X18408300Y33256100D03*
X16668300Y34488100D03*
X24123300Y37663100D03*
X24123300Y38933100D03*
X16503300Y39568100D03*
X20186300Y38806100D03*
X20440300Y5024100D03*
X19170300Y5024100D03*
X23996300Y9342100D03*
X21456300Y33472100D03*
X32372300Y33058100D03*
X32639000Y31369000D03*
X33896300Y34328100D03*
X33896300Y35852100D03*
X33896300Y37376100D03*
X33896300Y39154100D03*
X33896300Y40678100D03*
X32639000Y29845000D03*
X32385000Y28321000D03*
X32118300Y26708100D03*
X30848300Y27978100D03*
X29578300Y27978100D03*
X28308300Y27343100D03*
X27673300Y26073100D03*
X27673300Y24803100D03*
X27673300Y23533100D03*
X27673300Y22263100D03*
X28308300Y20993100D03*
X29578300Y19723100D03*
X30213300Y18453100D03*
X30213300Y17183100D03*
X30213300Y15278100D03*
X28943300Y14008100D03*
X28943300Y12738100D03*
X27038300Y17818100D03*
X25768300Y17818100D03*
X24713000Y17818100D03*
X24713000Y19088100D03*
X25768300Y19088100D03*
X24713000Y20277000D03*
X24498300Y21628100D03*
X24498300Y22898100D03*
X24498300Y24168100D03*
X24498300Y25438100D03*
X24498300Y26708100D03*
X23228300Y21628100D03*
X21196300Y21628100D03*
X21196300Y22898100D03*
X23228300Y22898100D03*
X23863300Y31153100D03*
X24244300Y30010100D03*
X24498300Y32423100D03*
X23863300Y34328100D03*
X28816300Y34074100D03*
X27673300Y34328100D03*
X26403300Y33693100D03*
X28816300Y32550100D03*
X28943300Y10833100D03*
X28943300Y8928100D03*
X28308300Y7658100D03*
X28308300Y5753100D03*
X27673300Y4483100D03*
X26403300Y3213100D03*
X25133300Y2578100D03*
X21958300Y2578100D03*
X20053300Y2578100D03*
X14338300Y2578100D03*
X13068300Y2578100D03*
X14224000Y6350000D03*
X13462000Y7874000D03*
X12192000Y7874000D03*
X10922000Y7874000D03*
X9652000Y7874000D03*
X13081000Y10795000D03*
X10213000Y11777000D03*
X11963000Y11777000D03*
X14338300Y10833100D03*
X13213000Y11777000D03*
X11938000Y26162000D03*
X15608300Y20993100D03*
X15608300Y22263100D03*
X16116300Y23406100D03*
X14084300Y24803100D03*
X17018000Y26416000D03*
X17018000Y27432000D03*
X16002000Y26416000D03*
X16002000Y27432000D03*
X13970000Y27432000D03*
X13208000Y26073100D03*
X10528300Y26073100D03*
X9893300Y27343100D03*
X9893300Y28613100D03*
X10528300Y29883100D03*
X10528300Y31153100D03*
X10528300Y32423100D03*
X10528300Y33693100D03*
X10528300Y34963100D03*
X9893300Y36233100D03*
X8623300Y36233100D03*
X7988300Y37503100D03*
X8623300Y40043100D03*
X12052300Y40932100D03*
X13576300Y40932100D03*
X14592300Y40932100D03*
X15608300Y41694100D03*
X15608300Y42964100D03*
X16624300Y43726100D03*
X20307300Y54775100D03*
X7366000Y5080000D03*
X6350000Y6096000D03*
X5842000Y7620000D03*
X5842000Y10160000D03*
X6604000Y11938000D03*
X7480300Y13246100D03*
X8522339Y38787523D03*
X10839993Y40874407D03*
X22720300Y60490100D03*
X30734000Y68834000D03*
X10668000Y81026000D03*
X6604000Y84582000D03*
X18288000Y66548000D03*
X20066000Y67056000D03*
X19304000Y66294000D03*
X14732000Y7874000D03*
X14224000Y5080000D03*
X8382000Y7874000D03*
X9906000Y6604000D03*
X10922000Y5334000D03*
X12700000Y5080000D03*
X15494000Y2540000D03*
X16764000Y2540000D03*
X18034000Y2540000D03*
X8636000Y3810000D03*
X10414000Y13970000D03*
X11684000Y13970000D03*
X12954000Y13970000D03*
X6604000Y14732000D03*
X6858000Y16002000D03*
X7874000Y17018000D03*
X11430000Y16510000D03*
X10922000Y15240000D03*
X6096000Y18288000D03*
X6096000Y19812000D03*
X6096000Y21082000D03*
X6096000Y22352000D03*
X6096000Y23622000D03*
X6096000Y25654000D03*
X6096000Y27178000D03*
X11176000Y27686000D03*
X12700000Y27432000D03*
X23876000Y2578100D03*
X29464000Y72644000D03*
X30226000Y74930000D03*
X30734000Y76200000D03*
X31496000Y77724000D03*
X31242000Y78994000D03*
X9652000Y89408000D03*
X10922000Y88138000D03*
X12192000Y86868000D03*
X12446000Y89662000D03*
X9398000Y95504000D03*
X10160000Y96266000D03*
X11684000Y94996000D03*
X11684000Y92964000D03*
X6858000Y87122000D03*
X8128000Y85852000D03*
X6604000Y82296000D03*
X8382000Y82296000D03*
X7366000Y71120000D03*
X7366000Y69088000D03*
X10414000Y71120000D03*
X10414000Y68580000D03*
X14732000Y65024000D03*
X16256000Y65024000D03*
X21590000Y67564000D03*
X18796000Y75692000D03*
X20066000Y75692000D03*
X21336000Y75692000D03*
X17780000Y78740000D03*
X21336000Y85344000D03*
X21082000Y87630000D03*
X28448000Y88392000D03*
X30226000Y88392000D03*
X30480000Y86614000D03*
X30480000Y84328000D03*
X25908000Y57150000D03*
X28448000Y60960000D03*
X31750000Y62992000D03*
X31750000Y65532000D03*
X31750000Y67310000D03*
X6350000Y49276000D03*
X7620000Y50292000D03*
X9652000Y50292000D03*
X11684000Y50292000D03*
X32766000Y104648000D03*
X32766000Y103378000D03*
X32766000Y102108000D03*
X19558000Y102108000D03*
X19558000Y100584000D03*
X19558000Y98552000D03*
X5080000Y101854000D03*
X5080000Y100076000D03*
X5080000Y98044000D03*
X17780000Y92202000D03*
X17780000Y89916000D03*
X18288000Y60198000D03*
X16256000Y62484000D03*
X11430000Y57658000D03*
X29210000Y52324000D03*
X28194000Y54610000D03*
X28194000Y56388000D03*
X30226000Y38608000D03*
X26670000Y37592000D03*
X16002000Y49530000D03*
X14224000Y55880000D03*
X17780000Y80772000D03*
X17780000Y85852000D03*
X19431000Y36449000D03*
X12007568Y38831203D03*
X14224000Y52832000D03*
X12353395Y79666929D03*
X8382000Y67310000D03*
X8382000Y62992000D03*
X25400000Y55372000D03*
X21844000Y64516000D03*
X24371300Y51981100D03*
X22720300Y55918100D03*
X15494000Y61214000D03*
X13970002Y80772000D03*
X14732000Y60452000D03*
X12972133Y80452541D03*
X26028300Y28900100D03*
X13582300Y28900100D03*
X31115000Y36449000D03*
X27033000Y59073004D03*
X11430000Y74930000D03*
X11430000Y63796100D03*
X19812000Y31496000D03*
X18542002Y64262000D03*
X14338300Y43218100D03*
X18796000Y62738000D03*
X23228300Y42743100D03*
X22212300Y62014100D03*
X25908000Y62992000D03*
X25654000Y59796100D03*
X15748000Y67818000D03*
X14478000Y67056000D03*
X19812000Y142240000D03*
X23368000Y192024000D03*
D14*
X17138300Y10358100D02*
X18408300Y10358100D01*
D15*
X16668300Y34184472D02*
X17386486Y33466286D01*
X16668300Y34488100D02*
X16668300Y34184472D01*
X17176300Y34488100D02*
X18408300Y33256100D01*
X16668300Y34488100D02*
X17176300Y34488100D01*
X24123300Y38933100D02*
X24123300Y37663100D01*
X16503300Y39568100D02*
X19424300Y39568100D01*
X19424300Y39568100D02*
X20186300Y38806100D01*
D14*
X20440300Y5024100D02*
X19170300Y5024100D01*
X21456300Y33472100D02*
X22726300Y33472100D01*
X22726300Y33472100D02*
X22980300Y33726100D01*
X5638000Y123295000D02*
X31938000Y123295000D01*
X4638000Y123295000D02*
X5638000Y123295000D01*
D15*
X12407567Y38431204D02*
X12007568Y38831203D01*
X14389771Y36449000D02*
X12407567Y38431204D01*
X19431000Y36449000D02*
X14389771Y36449000D01*
X12353395Y54702605D02*
X12353395Y79101244D01*
X12353395Y79101244D02*
X12353395Y79666929D01*
X14224000Y52832000D02*
X12353395Y54702605D01*
X8382000Y67310000D02*
X8382000Y62992000D01*
X24120311Y56651689D02*
X25400000Y55372000D01*
X24120311Y105400311D02*
X24120311Y56651689D01*
X25146000Y106426000D02*
X24120311Y105400311D01*
X21844000Y64516000D02*
X22920291Y65592291D01*
X22920291Y65592291D02*
X22920291Y102422291D01*
X22907709Y102422291D02*
X22920291Y102422291D01*
X20066000Y105264000D02*
X22907709Y102422291D01*
X20066000Y106426000D02*
X20066000Y105264000D01*
X23120299Y55518101D02*
X22720300Y55918100D01*
X24371300Y54267100D02*
X23120299Y55518101D01*
X24371300Y51981100D02*
X24371300Y54267100D01*
X23520301Y105511699D02*
X22606000Y106426000D01*
X22720300Y55918100D02*
X23520301Y56718101D01*
X23520301Y56718101D02*
X23520301Y105511699D01*
X15494000Y61214000D02*
X13554010Y63153990D01*
X13970002Y80206315D02*
X13970002Y80772000D01*
X13972142Y80204175D02*
X13970002Y80206315D01*
X13972142Y79253132D02*
X13972142Y80204175D01*
X13554010Y78835000D02*
X13972142Y79253132D01*
X13554010Y63153990D02*
X13554010Y78835000D01*
X12972133Y80331863D02*
X12972133Y80452541D01*
X13372132Y80052542D02*
X12972133Y80452541D01*
X13372132Y79501664D02*
X13372132Y80052542D01*
X12954000Y79083532D02*
X13372132Y79501664D01*
X12954001Y62229999D02*
X12954000Y79083532D01*
X14732000Y60452000D02*
X12954001Y62229999D01*
D16*
X13582300Y28900100D02*
X26028300Y28900100D01*
X31514999Y54591005D02*
X27033000Y59073004D01*
X31514999Y36848999D02*
X31514999Y54591005D01*
X31115000Y36449000D02*
X31514999Y36848999D01*
D17*
X11430000Y74930000D02*
X11430000Y63796100D01*
D15*
X21107301Y61696701D02*
X18942001Y63862001D01*
X18942001Y63862001D02*
X18542002Y64262000D01*
X21107301Y34307103D02*
X21107301Y61696701D01*
X19812000Y33011802D02*
X21107301Y34307103D01*
X19812000Y31496000D02*
X19812000Y33011802D01*
X14338300Y43218100D02*
X15151002Y44030802D01*
X15151002Y44030802D02*
X15151002Y54190998D01*
X15151002Y59093002D02*
X18796000Y62738000D01*
X15151002Y55714998D02*
X15151002Y59093002D01*
X15151002Y55714998D02*
X15151002Y54190998D01*
X15151002Y57832174D02*
X15151002Y55714998D01*
X21796310Y44175090D02*
X23228300Y42743100D01*
X22212300Y62014100D02*
X21796310Y61598110D01*
X21796310Y61598110D02*
X21796310Y44175090D01*
X26416000Y102616000D02*
X30226000Y106426000D01*
X25320331Y101520331D02*
X26416000Y102616000D01*
X25320331Y63579669D02*
X25320331Y101520331D01*
X25908000Y62992000D02*
X25320331Y63579669D01*
X26416000Y105156000D02*
X27686000Y106426000D01*
X24720321Y103460321D02*
X26416000Y105156000D01*
X24720321Y60729779D02*
X24720321Y103460321D01*
X25654000Y59796100D02*
X24720321Y60729779D01*
X13608001Y100437999D02*
X12446000Y101600000D01*
X13823999Y100222001D02*
X13608001Y100437999D01*
X13823999Y97762001D02*
X13823999Y100222001D01*
X16147999Y95438001D02*
X13823999Y97762001D01*
X16147999Y68217999D02*
X16147999Y78631999D01*
X15748000Y67818000D02*
X16147999Y68217999D01*
X16147999Y78631999D02*
X16147999Y95438001D01*
X12446000Y97898000D02*
X12446000Y99060000D01*
X14877999Y95466001D02*
X12446000Y97898000D01*
X14877999Y67455999D02*
X14877999Y81933999D01*
X14478000Y67056000D02*
X14877999Y67455999D01*
X14877999Y81933999D02*
X14877999Y83203999D01*
X14877999Y83203999D02*
X14877999Y85235999D01*
X14877999Y85235999D02*
X14877999Y95466001D01*
D17*
X30226000Y145196000D02*
X30226000Y146558000D01*
X27270000Y142240000D02*
X30226000Y145196000D01*
X19812000Y142240000D02*
X27270000Y142240000D01*
X23933685Y192024000D02*
X23368000Y192024000D01*
X27016000Y192024000D02*
X23933685Y192024000D01*
X30226000Y195234000D02*
X27016000Y192024000D01*
X30226000Y196596000D02*
X30226000Y195234000D01*
D18*
G36*
X37798001Y202000D02*
G01*
X202000Y202000D01*
X202000Y9799257D01*
X7507000Y9799257D01*
X7507000Y9584743D01*
X7548850Y9374350D01*
X7630941Y9176165D01*
X7750119Y8997803D01*
X7901803Y8846119D01*
X8080165Y8726941D01*
X8278350Y8644850D01*
X8488743Y8603000D01*
X8703257Y8603000D01*
X8913650Y8644850D01*
X9111835Y8726941D01*
X9290197Y8846119D01*
X9441881Y8997803D01*
X9561059Y9176165D01*
X9643150Y9374350D01*
X9685000Y9584743D01*
X9685000Y9799257D01*
X9643150Y10009650D01*
X9561059Y10207835D01*
X9441881Y10386197D01*
X9290197Y10537881D01*
X9111835Y10657059D01*
X8913650Y10739150D01*
X8703257Y10781000D01*
X8488743Y10781000D01*
X8278350Y10739150D01*
X8080165Y10657059D01*
X7901803Y10537881D01*
X7750119Y10386197D01*
X7630941Y10207835D01*
X7548850Y10009650D01*
X7507000Y9799257D01*
X202000Y9799257D01*
X202000Y14799257D01*
X7507000Y14799257D01*
X7507000Y14584743D01*
X7548850Y14374350D01*
X7630941Y14176165D01*
X7750119Y13997803D01*
X7901803Y13846119D01*
X8080165Y13726941D01*
X8278350Y13644850D01*
X8488743Y13603000D01*
X8703257Y13603000D01*
X8913650Y13644850D01*
X9111835Y13726941D01*
X9290197Y13846119D01*
X9441881Y13997803D01*
X9561059Y14176165D01*
X9643150Y14374350D01*
X9685000Y14584743D01*
X9685000Y14799257D01*
X9643150Y15009650D01*
X9561059Y15207835D01*
X9441881Y15386197D01*
X9290197Y15537881D01*
X9111835Y15657059D01*
X8913650Y15739150D01*
X8703257Y15781000D01*
X8488743Y15781000D01*
X8278350Y15739150D01*
X8080165Y15657059D01*
X7901803Y15537881D01*
X7750119Y15386197D01*
X7630941Y15207835D01*
X7548850Y15009650D01*
X7507000Y14799257D01*
X202000Y14799257D01*
X202000Y28900100D01*
X12851783Y28900100D01*
X12855300Y28864392D01*
X12855300Y28828497D01*
X12862303Y28793290D01*
X12865820Y28757583D01*
X12876235Y28723249D01*
X12883238Y28688042D01*
X12896974Y28654880D01*
X12907390Y28620543D01*
X12924305Y28588897D01*
X12938041Y28555736D01*
X12957983Y28525890D01*
X12974897Y28494247D01*
X12997658Y28466512D01*
X13017602Y28436664D01*
X13042983Y28411283D01*
X13065746Y28383546D01*
X13093483Y28360783D01*
X13118864Y28335402D01*
X13148712Y28315458D01*
X13176447Y28292697D01*
X13208090Y28275783D01*
X13237936Y28255841D01*
X13271097Y28242105D01*
X13302743Y28225190D01*
X13337080Y28214774D01*
X13370242Y28201038D01*
X13405449Y28194035D01*
X13439783Y28183620D01*
X13475490Y28180103D01*
X13510697Y28173100D01*
X26099903Y28173100D01*
X26135110Y28180103D01*
X26170817Y28183620D01*
X26205151Y28194035D01*
X26240358Y28201038D01*
X26273520Y28214774D01*
X26307857Y28225190D01*
X26339503Y28242105D01*
X26372664Y28255841D01*
X26402510Y28275783D01*
X26434153Y28292697D01*
X26461888Y28315458D01*
X26491736Y28335402D01*
X26517117Y28360783D01*
X26544854Y28383546D01*
X26567617Y28411283D01*
X26592998Y28436664D01*
X26612942Y28466512D01*
X26635703Y28494247D01*
X26652617Y28525890D01*
X26672559Y28555736D01*
X26686295Y28588897D01*
X26703210Y28620543D01*
X26713626Y28654880D01*
X26727362Y28688042D01*
X26734365Y28723249D01*
X26744780Y28757583D01*
X26748297Y28793290D01*
X26755300Y28828497D01*
X26755300Y28864392D01*
X26758817Y28900100D01*
X26755300Y28935808D01*
X26755300Y28971703D01*
X26748297Y29006910D01*
X26744780Y29042617D01*
X26734365Y29076951D01*
X26727362Y29112158D01*
X26713626Y29145320D01*
X26703210Y29179657D01*
X26686295Y29211303D01*
X26672559Y29244464D01*
X26652617Y29274310D01*
X26635703Y29305953D01*
X26612942Y29333688D01*
X26592998Y29363536D01*
X26567617Y29388917D01*
X26544854Y29416654D01*
X26517117Y29439417D01*
X26491736Y29464798D01*
X26461888Y29484742D01*
X26434153Y29507503D01*
X26402510Y29524417D01*
X26372664Y29544359D01*
X26339503Y29558095D01*
X26307857Y29575010D01*
X26273520Y29585426D01*
X26240358Y29599162D01*
X26205151Y29606165D01*
X26170817Y29616580D01*
X26135110Y29620097D01*
X26099903Y29627100D01*
X13510697Y29627100D01*
X13475490Y29620097D01*
X13439783Y29616580D01*
X13405449Y29606165D01*
X13370242Y29599162D01*
X13337080Y29585426D01*
X13302743Y29575010D01*
X13271097Y29558095D01*
X13237936Y29544359D01*
X13208090Y29524417D01*
X13176447Y29507503D01*
X13148712Y29484742D01*
X13118864Y29464798D01*
X13093483Y29439417D01*
X13065746Y29416654D01*
X13042983Y29388917D01*
X13017602Y29363536D01*
X12997658Y29333688D01*
X12974897Y29305953D01*
X12957983Y29274310D01*
X12938041Y29244464D01*
X12924305Y29211303D01*
X12907390Y29179657D01*
X12896974Y29145320D01*
X12883238Y29112158D01*
X12876235Y29076951D01*
X12865820Y29042617D01*
X12862303Y29006910D01*
X12855300Y28971703D01*
X12855300Y28935808D01*
X12851783Y28900100D01*
X202000Y28900100D01*
X202000Y38902806D01*
X11280568Y38902806D01*
X11280568Y38759600D01*
X11308506Y38619145D01*
X11363309Y38486839D01*
X11442870Y38367767D01*
X11544132Y38266505D01*
X11663204Y38186944D01*
X11795510Y38132141D01*
X11935965Y38104203D01*
X11989278Y38104203D01*
X12053222Y38040259D01*
X12053227Y38040255D01*
X13998825Y36094656D01*
X14015323Y36074552D01*
X14095569Y36008696D01*
X14187121Y35959761D01*
X14277162Y35932447D01*
X14286461Y35929626D01*
X14389771Y35919451D01*
X14415652Y35922000D01*
X18929866Y35922000D01*
X18967564Y35884302D01*
X19086636Y35804741D01*
X19218942Y35749938D01*
X19359397Y35722000D01*
X19502603Y35722000D01*
X19643058Y35749938D01*
X19775364Y35804741D01*
X19894436Y35884302D01*
X19995698Y35985564D01*
X20075259Y36104636D01*
X20130062Y36236942D01*
X20158000Y36377397D01*
X20158000Y36520603D01*
X20130062Y36661058D01*
X20075259Y36793364D01*
X19995698Y36912436D01*
X19894436Y37013698D01*
X19775364Y37093259D01*
X19643058Y37148062D01*
X19502603Y37176000D01*
X19359397Y37176000D01*
X19218942Y37148062D01*
X19086636Y37093259D01*
X18967564Y37013698D01*
X18929866Y36976000D01*
X14608062Y36976000D01*
X12798516Y38785544D01*
X12798512Y38785549D01*
X12734568Y38849493D01*
X12734568Y38902806D01*
X12706630Y39043261D01*
X12651827Y39175567D01*
X12572266Y39294639D01*
X12471004Y39395901D01*
X12351932Y39475462D01*
X12219626Y39530265D01*
X12079171Y39558203D01*
X11935965Y39558203D01*
X11795510Y39530265D01*
X11663204Y39475462D01*
X11544132Y39395901D01*
X11442870Y39294639D01*
X11363309Y39175567D01*
X11308506Y39043261D01*
X11280568Y38902806D01*
X202000Y38902806D01*
X202000Y67381603D01*
X7655000Y67381603D01*
X7655000Y67238397D01*
X7682938Y67097942D01*
X7737741Y66965636D01*
X7817302Y66846564D01*
X7855000Y66808866D01*
X7855001Y63493135D01*
X7817302Y63455436D01*
X7737741Y63336364D01*
X7682938Y63204058D01*
X7655000Y63063603D01*
X7655000Y62920397D01*
X7682938Y62779942D01*
X7737741Y62647636D01*
X7817302Y62528564D01*
X7918564Y62427302D01*
X8037636Y62347741D01*
X8169942Y62292938D01*
X8310397Y62265000D01*
X8453603Y62265000D01*
X8594058Y62292938D01*
X8726364Y62347741D01*
X8845436Y62427302D01*
X8946698Y62528564D01*
X9026259Y62647636D01*
X9081062Y62779942D01*
X9109000Y62920397D01*
X9109000Y63063603D01*
X9081062Y63204058D01*
X9026259Y63336364D01*
X8946698Y63455436D01*
X8909000Y63493134D01*
X8909000Y66808866D01*
X8946698Y66846564D01*
X9026259Y66965636D01*
X9081062Y67097942D01*
X9109000Y67238397D01*
X9109000Y67381603D01*
X9081062Y67522058D01*
X9026259Y67654364D01*
X8946698Y67773436D01*
X8845436Y67874698D01*
X8726364Y67954259D01*
X8594058Y68009062D01*
X8453603Y68037000D01*
X8310397Y68037000D01*
X8169942Y68009062D01*
X8037636Y67954259D01*
X7918564Y67874698D01*
X7817302Y67773436D01*
X7737741Y67654364D01*
X7682938Y67522058D01*
X7655000Y67381603D01*
X202000Y67381603D01*
X202000Y75001603D01*
X10703000Y75001603D01*
X10703000Y74858397D01*
X10730938Y74717942D01*
X10785741Y74585636D01*
X10803000Y74559806D01*
X10803001Y64166295D01*
X10785741Y64140464D01*
X10730938Y64008158D01*
X10703000Y63867703D01*
X10703000Y63724497D01*
X10730938Y63584042D01*
X10785741Y63451736D01*
X10865302Y63332664D01*
X10966564Y63231402D01*
X11085636Y63151841D01*
X11217942Y63097038D01*
X11358397Y63069100D01*
X11501603Y63069100D01*
X11642058Y63097038D01*
X11774364Y63151841D01*
X11826395Y63186607D01*
X11826395Y54728486D01*
X11823846Y54702605D01*
X11826395Y54676725D01*
X11834021Y54599296D01*
X11864156Y54499956D01*
X11913091Y54408403D01*
X11978947Y54328157D01*
X11999061Y54311650D01*
X13497000Y52813710D01*
X13497000Y52760397D01*
X13524938Y52619942D01*
X13579741Y52487636D01*
X13659302Y52368564D01*
X13760564Y52267302D01*
X13879636Y52187741D01*
X14011942Y52132938D01*
X14152397Y52105000D01*
X14295603Y52105000D01*
X14436058Y52132938D01*
X14568364Y52187741D01*
X14624003Y52224917D01*
X14624002Y44249092D01*
X14320011Y43945100D01*
X14266697Y43945100D01*
X14126242Y43917162D01*
X13993936Y43862359D01*
X13874864Y43782798D01*
X13773602Y43681536D01*
X13694041Y43562464D01*
X13639238Y43430158D01*
X13611300Y43289703D01*
X13611300Y43146497D01*
X13639238Y43006042D01*
X13694041Y42873736D01*
X13773602Y42754664D01*
X13874864Y42653402D01*
X13993936Y42573841D01*
X14126242Y42519038D01*
X14266697Y42491100D01*
X14409903Y42491100D01*
X14550358Y42519038D01*
X14682664Y42573841D01*
X14801736Y42653402D01*
X14902998Y42754664D01*
X14982559Y42873736D01*
X15037362Y43006042D01*
X15065300Y43146497D01*
X15065300Y43199811D01*
X15505341Y43639851D01*
X15525450Y43656354D01*
X15591306Y43736600D01*
X15640241Y43828152D01*
X15670376Y43927492D01*
X15678002Y44004921D01*
X15678002Y44004922D01*
X15680551Y44030801D01*
X15678002Y44056682D01*
X15678002Y58874713D01*
X18814291Y62011000D01*
X18867603Y62011000D01*
X19008058Y62038938D01*
X19140364Y62093741D01*
X19259436Y62173302D01*
X19360698Y62274564D01*
X19440259Y62393636D01*
X19495062Y62525942D01*
X19501318Y62557394D01*
X20580302Y61478409D01*
X20580301Y34525393D01*
X19457662Y33402753D01*
X19437553Y33386250D01*
X19380061Y33316196D01*
X19371696Y33306003D01*
X19322761Y33214451D01*
X19292626Y33115111D01*
X19282451Y33011802D01*
X19285001Y32985912D01*
X19285000Y31997134D01*
X19247302Y31959436D01*
X19167741Y31840364D01*
X19112938Y31708058D01*
X19085000Y31567603D01*
X19085000Y31424397D01*
X19112938Y31283942D01*
X19167741Y31151636D01*
X19247302Y31032564D01*
X19348564Y30931302D01*
X19467636Y30851741D01*
X19599942Y30796938D01*
X19740397Y30769000D01*
X19883603Y30769000D01*
X20024058Y30796938D01*
X20156364Y30851741D01*
X20275436Y30931302D01*
X20376698Y31032564D01*
X20456259Y31151636D01*
X20511062Y31283942D01*
X20539000Y31424397D01*
X20539000Y31567603D01*
X20511062Y31708058D01*
X20456259Y31840364D01*
X20376698Y31959436D01*
X20339000Y31997134D01*
X20339000Y32793513D01*
X21461640Y33916152D01*
X21481749Y33932655D01*
X21547605Y34012901D01*
X21596540Y34104453D01*
X21626675Y34203793D01*
X21634301Y34281222D01*
X21634301Y34281223D01*
X21636850Y34307102D01*
X21634301Y34332983D01*
X21634301Y43591810D01*
X22501300Y42724810D01*
X22501300Y42671497D01*
X22529238Y42531042D01*
X22584041Y42398736D01*
X22663602Y42279664D01*
X22764864Y42178402D01*
X22883936Y42098841D01*
X23016242Y42044038D01*
X23156697Y42016100D01*
X23299903Y42016100D01*
X23440358Y42044038D01*
X23572664Y42098841D01*
X23691736Y42178402D01*
X23792998Y42279664D01*
X23872559Y42398736D01*
X23927362Y42531042D01*
X23955300Y42671497D01*
X23955300Y42814703D01*
X23927362Y42955158D01*
X23872559Y43087464D01*
X23792998Y43206536D01*
X23691736Y43307798D01*
X23572664Y43387359D01*
X23440358Y43442162D01*
X23299903Y43470100D01*
X23246590Y43470100D01*
X22323310Y44393379D01*
X22323310Y55309004D01*
X22375936Y55273841D01*
X22508242Y55219038D01*
X22648697Y55191100D01*
X22702010Y55191100D01*
X22765954Y55127156D01*
X22765959Y55127152D01*
X23844301Y54048808D01*
X23844300Y52482234D01*
X23806602Y52444536D01*
X23727041Y52325464D01*
X23672238Y52193158D01*
X23644300Y52052703D01*
X23644300Y51909497D01*
X23672238Y51769042D01*
X23727041Y51636736D01*
X23806602Y51517664D01*
X23907864Y51416402D01*
X24026936Y51336841D01*
X24159242Y51282038D01*
X24299697Y51254100D01*
X24442903Y51254100D01*
X24583358Y51282038D01*
X24715664Y51336841D01*
X24834736Y51416402D01*
X24935998Y51517664D01*
X25015559Y51636736D01*
X25070362Y51769042D01*
X25098300Y51909497D01*
X25098300Y52052703D01*
X25070362Y52193158D01*
X25015559Y52325464D01*
X24935998Y52444536D01*
X24898300Y52482234D01*
X24898300Y54241219D01*
X24900849Y54267100D01*
X24894836Y54328157D01*
X24890674Y54370410D01*
X24860539Y54469750D01*
X24811604Y54561302D01*
X24745748Y54641548D01*
X24725644Y54658047D01*
X23511248Y55872441D01*
X23511244Y55872446D01*
X23465590Y55918100D01*
X23787100Y56239611D01*
X24673000Y55353710D01*
X24673000Y55300397D01*
X24700938Y55159942D01*
X24755741Y55027636D01*
X24835302Y54908564D01*
X24936564Y54807302D01*
X25055636Y54727741D01*
X25187942Y54672938D01*
X25328397Y54645000D01*
X25471603Y54645000D01*
X25612058Y54672938D01*
X25744364Y54727741D01*
X25863436Y54807302D01*
X25964698Y54908564D01*
X26044259Y55027636D01*
X26099062Y55159942D01*
X26127000Y55300397D01*
X26127000Y55443603D01*
X26099062Y55584058D01*
X26044259Y55716364D01*
X25964698Y55835436D01*
X25863436Y55936698D01*
X25744364Y56016259D01*
X25612058Y56071062D01*
X25471603Y56099000D01*
X25418290Y56099000D01*
X24647311Y56869978D01*
X24647311Y60057499D01*
X24927000Y59777810D01*
X24927000Y59724497D01*
X24954938Y59584042D01*
X25009741Y59451736D01*
X25089302Y59332664D01*
X25190564Y59231402D01*
X25309636Y59151841D01*
X25441942Y59097038D01*
X25582397Y59069100D01*
X25725603Y59069100D01*
X25745229Y59073004D01*
X26302483Y59073004D01*
X26306000Y59037296D01*
X26306000Y59001401D01*
X26313003Y58966194D01*
X26316520Y58930487D01*
X26326935Y58896154D01*
X26333938Y58860946D01*
X26347675Y58827782D01*
X26358090Y58793448D01*
X26375003Y58761806D01*
X26388741Y58728640D01*
X26408688Y58698787D01*
X26425598Y58667151D01*
X26448353Y58639425D01*
X26468302Y58609568D01*
X26569564Y58508306D01*
X26569570Y58508302D01*
X30788000Y54289870D01*
X30787999Y37150131D01*
X30651570Y37013702D01*
X30651564Y37013698D01*
X30550302Y36912436D01*
X30530353Y36882579D01*
X30507598Y36854853D01*
X30490688Y36823217D01*
X30470741Y36793364D01*
X30457003Y36760198D01*
X30440090Y36728556D01*
X30429675Y36694222D01*
X30415938Y36661058D01*
X30408935Y36625850D01*
X30398520Y36591517D01*
X30395003Y36555810D01*
X30388000Y36520603D01*
X30388000Y36484708D01*
X30384483Y36449000D01*
X30388000Y36413292D01*
X30388000Y36377397D01*
X30395003Y36342190D01*
X30398520Y36306483D01*
X30408935Y36272150D01*
X30415938Y36236942D01*
X30429675Y36203778D01*
X30440090Y36169444D01*
X30457003Y36137802D01*
X30470741Y36104636D01*
X30490688Y36074783D01*
X30507598Y36043147D01*
X30530353Y36015420D01*
X30550302Y35985564D01*
X30575692Y35960174D01*
X30598447Y35932447D01*
X30626174Y35909692D01*
X30651564Y35884302D01*
X30681420Y35864353D01*
X30709147Y35841598D01*
X30740783Y35824688D01*
X30770636Y35804741D01*
X30803802Y35791003D01*
X30835444Y35774090D01*
X30869778Y35763675D01*
X30902942Y35749938D01*
X30938150Y35742935D01*
X30972483Y35732520D01*
X31008190Y35729003D01*
X31043397Y35722000D01*
X31079292Y35722000D01*
X31115000Y35718483D01*
X31150708Y35722000D01*
X31186603Y35722000D01*
X31221810Y35729003D01*
X31257517Y35732520D01*
X31291850Y35742935D01*
X31327058Y35749938D01*
X31360222Y35763675D01*
X31394556Y35774090D01*
X31426198Y35791003D01*
X31459364Y35804741D01*
X31489217Y35824688D01*
X31520853Y35841598D01*
X31548579Y35864353D01*
X31578436Y35884302D01*
X31679698Y35985564D01*
X31679702Y35985570D01*
X32003810Y36309678D01*
X32031552Y36332445D01*
X32122402Y36443146D01*
X32189909Y36569442D01*
X32231479Y36706482D01*
X32241999Y36813291D01*
X32241999Y36813292D01*
X32245516Y36848998D01*
X32241999Y36884706D01*
X32241999Y54555297D01*
X32245516Y54591005D01*
X32231479Y54733523D01*
X32189909Y54870562D01*
X32183388Y54882761D01*
X32122402Y54996858D01*
X32031553Y55107559D01*
X32003816Y55130322D01*
X27597702Y59536434D01*
X27597698Y59536440D01*
X27496436Y59637702D01*
X27466579Y59657651D01*
X27438853Y59680406D01*
X27407217Y59697316D01*
X27377364Y59717263D01*
X27344198Y59731001D01*
X27312556Y59747914D01*
X27278222Y59758329D01*
X27245058Y59772066D01*
X27209850Y59779069D01*
X27175517Y59789484D01*
X27139810Y59793001D01*
X27104603Y59800004D01*
X27068708Y59800004D01*
X27033000Y59803521D01*
X26997292Y59800004D01*
X26961397Y59800004D01*
X26926190Y59793001D01*
X26890483Y59789484D01*
X26856150Y59779069D01*
X26820942Y59772066D01*
X26787778Y59758329D01*
X26753444Y59747914D01*
X26721802Y59731001D01*
X26688636Y59717263D01*
X26658783Y59697316D01*
X26627147Y59680406D01*
X26599420Y59657651D01*
X26569564Y59637702D01*
X26544174Y59612312D01*
X26516447Y59589557D01*
X26493692Y59561830D01*
X26468302Y59536440D01*
X26448353Y59506584D01*
X26425598Y59478857D01*
X26408688Y59447221D01*
X26388741Y59417368D01*
X26375003Y59384202D01*
X26358090Y59352560D01*
X26347675Y59318226D01*
X26333938Y59285062D01*
X26326935Y59249854D01*
X26316520Y59215521D01*
X26313003Y59179814D01*
X26306000Y59144607D01*
X26306000Y59108712D01*
X26302483Y59073004D01*
X25745229Y59073004D01*
X25866058Y59097038D01*
X25998364Y59151841D01*
X26117436Y59231402D01*
X26218698Y59332664D01*
X26298259Y59451736D01*
X26353062Y59584042D01*
X26381000Y59724497D01*
X26381000Y59867703D01*
X26353062Y60008158D01*
X26298259Y60140464D01*
X26218698Y60259536D01*
X26117436Y60360798D01*
X25998364Y60440359D01*
X25866058Y60495162D01*
X25725603Y60523100D01*
X25672290Y60523100D01*
X25247321Y60948068D01*
X25247321Y62687277D01*
X25263741Y62647636D01*
X25343302Y62528564D01*
X25444564Y62427302D01*
X25563636Y62347741D01*
X25695942Y62292938D01*
X25836397Y62265000D01*
X25979603Y62265000D01*
X26120058Y62292938D01*
X26252364Y62347741D01*
X26371436Y62427302D01*
X26472698Y62528564D01*
X26552259Y62647636D01*
X26607062Y62779942D01*
X26635000Y62920397D01*
X26635000Y63063603D01*
X26607062Y63204058D01*
X26552259Y63336364D01*
X26472698Y63455436D01*
X26371436Y63556698D01*
X26252364Y63636259D01*
X26120058Y63691062D01*
X25979603Y63719000D01*
X25926289Y63719000D01*
X25847331Y63797958D01*
X25847331Y101302042D01*
X26806945Y102261655D01*
X26806949Y102261660D01*
X29880709Y105335418D01*
X30988000Y105335418D01*
X31052103Y105341732D01*
X31113743Y105360430D01*
X31170550Y105390794D01*
X31220343Y105431657D01*
X31261206Y105481450D01*
X31291570Y105538257D01*
X31310268Y105599897D01*
X31316582Y105664000D01*
X31316582Y107188000D01*
X31310268Y107252103D01*
X31291570Y107313743D01*
X31261206Y107370550D01*
X31220343Y107420343D01*
X31170550Y107461206D01*
X31113743Y107491570D01*
X31052103Y107510268D01*
X30988000Y107516582D01*
X29464000Y107516582D01*
X29399897Y107510268D01*
X29338257Y107491570D01*
X29281450Y107461206D01*
X29231657Y107420343D01*
X29190794Y107370550D01*
X29160430Y107313743D01*
X29141732Y107252103D01*
X29135418Y107188000D01*
X29135418Y106080709D01*
X28776582Y105721872D01*
X28776582Y107188000D01*
X28770268Y107252103D01*
X28751570Y107313743D01*
X28721206Y107370550D01*
X28680343Y107420343D01*
X28630550Y107461206D01*
X28573743Y107491570D01*
X28512103Y107510268D01*
X28448000Y107516582D01*
X26924000Y107516582D01*
X26859897Y107510268D01*
X26798257Y107491570D01*
X26741450Y107461206D01*
X26691657Y107420343D01*
X26650794Y107370550D01*
X26620430Y107313743D01*
X26601732Y107252103D01*
X26595418Y107188000D01*
X26595418Y106080707D01*
X26236582Y105721871D01*
X26236582Y107188000D01*
X26230268Y107252103D01*
X26211570Y107313743D01*
X26181206Y107370550D01*
X26140343Y107420343D01*
X26090550Y107461206D01*
X26033743Y107491570D01*
X25972103Y107510268D01*
X25908000Y107516582D01*
X24384000Y107516582D01*
X24319897Y107510268D01*
X24258257Y107491570D01*
X24201450Y107461206D01*
X24151657Y107420343D01*
X24110794Y107370550D01*
X24080430Y107313743D01*
X24061732Y107252103D01*
X24055418Y107188000D01*
X24055418Y106080707D01*
X23876134Y105901424D01*
X23874640Y105902650D01*
X23696582Y106080708D01*
X23696582Y107188000D01*
X23690268Y107252103D01*
X23671570Y107313743D01*
X23641206Y107370550D01*
X23600343Y107420343D01*
X23550550Y107461206D01*
X23493743Y107491570D01*
X23432103Y107510268D01*
X23368000Y107516582D01*
X21844000Y107516582D01*
X21779897Y107510268D01*
X21718257Y107491570D01*
X21661450Y107461206D01*
X21611657Y107420343D01*
X21570794Y107370550D01*
X21540430Y107313743D01*
X21521732Y107252103D01*
X21515418Y107188000D01*
X21515418Y105664000D01*
X21521732Y105599897D01*
X21540430Y105538257D01*
X21570794Y105481450D01*
X21611657Y105431657D01*
X21661450Y105390794D01*
X21718257Y105360430D01*
X21779897Y105341732D01*
X21844000Y105335418D01*
X22951292Y105335418D01*
X22993302Y105293408D01*
X22993302Y103081988D01*
X20739871Y105335418D01*
X20828000Y105335418D01*
X20892103Y105341732D01*
X20953743Y105360430D01*
X21010550Y105390794D01*
X21060343Y105431657D01*
X21101206Y105481450D01*
X21131570Y105538257D01*
X21150268Y105599897D01*
X21156582Y105664000D01*
X21156582Y107188000D01*
X21150268Y107252103D01*
X21131570Y107313743D01*
X21101206Y107370550D01*
X21060343Y107420343D01*
X21010550Y107461206D01*
X20953743Y107491570D01*
X20892103Y107510268D01*
X20828000Y107516582D01*
X19304000Y107516582D01*
X19239897Y107510268D01*
X19178257Y107491570D01*
X19121450Y107461206D01*
X19071657Y107420343D01*
X19030794Y107370550D01*
X19000430Y107313743D01*
X18981732Y107252103D01*
X18975418Y107188000D01*
X18975418Y105664000D01*
X18981732Y105599897D01*
X19000430Y105538257D01*
X19030794Y105481450D01*
X19071657Y105431657D01*
X19121450Y105390794D01*
X19178257Y105360430D01*
X19239897Y105341732D01*
X19304000Y105335418D01*
X19539001Y105335418D01*
X19539001Y105289890D01*
X19536451Y105264000D01*
X19546626Y105160691D01*
X19576761Y105061351D01*
X19625696Y104969799D01*
X19625697Y104969798D01*
X19691553Y104889552D01*
X19711662Y104873049D01*
X22393292Y102191418D01*
X22393291Y65810581D01*
X21825711Y65243000D01*
X21772397Y65243000D01*
X21631942Y65215062D01*
X21499636Y65160259D01*
X21380564Y65080698D01*
X21279302Y64979436D01*
X21199741Y64860364D01*
X21144938Y64728058D01*
X21117000Y64587603D01*
X21117000Y64444397D01*
X21144938Y64303942D01*
X21199741Y64171636D01*
X21279302Y64052564D01*
X21380564Y63951302D01*
X21499636Y63871741D01*
X21631942Y63816938D01*
X21772397Y63789000D01*
X21915603Y63789000D01*
X22056058Y63816938D01*
X22188364Y63871741D01*
X22307436Y63951302D01*
X22408698Y64052564D01*
X22488259Y64171636D01*
X22543062Y64303942D01*
X22571000Y64444397D01*
X22571000Y64497711D01*
X22993301Y64920011D01*
X22993301Y56936391D01*
X22702011Y56645100D01*
X22648697Y56645100D01*
X22508242Y56617162D01*
X22375936Y56562359D01*
X22323310Y56527196D01*
X22323310Y61294938D01*
X22424358Y61315038D01*
X22556664Y61369841D01*
X22675736Y61449402D01*
X22776998Y61550664D01*
X22856559Y61669736D01*
X22911362Y61802042D01*
X22939300Y61942497D01*
X22939300Y62085703D01*
X22911362Y62226158D01*
X22856559Y62358464D01*
X22776998Y62477536D01*
X22675736Y62578798D01*
X22556664Y62658359D01*
X22424358Y62713162D01*
X22283903Y62741100D01*
X22140697Y62741100D01*
X22000242Y62713162D01*
X21867936Y62658359D01*
X21748864Y62578798D01*
X21647602Y62477536D01*
X21568041Y62358464D01*
X21513238Y62226158D01*
X21485300Y62085703D01*
X21485300Y62066822D01*
X21481749Y62071149D01*
X21461645Y62087647D01*
X19332950Y64216341D01*
X19332946Y64216346D01*
X19269002Y64280290D01*
X19269002Y64333603D01*
X19241064Y64474058D01*
X19186261Y64606364D01*
X19106700Y64725436D01*
X19005438Y64826698D01*
X18886366Y64906259D01*
X18754060Y64961062D01*
X18613605Y64989000D01*
X18470399Y64989000D01*
X18329944Y64961062D01*
X18197638Y64906259D01*
X18078566Y64826698D01*
X17977304Y64725436D01*
X17897743Y64606364D01*
X17842940Y64474058D01*
X17815002Y64333603D01*
X17815002Y64190397D01*
X17842940Y64049942D01*
X17897743Y63917636D01*
X17977304Y63798564D01*
X18078566Y63697302D01*
X18197638Y63617741D01*
X18329944Y63562938D01*
X18470399Y63535000D01*
X18523712Y63535000D01*
X18587656Y63471056D01*
X18587661Y63471052D01*
X18615395Y63443318D01*
X18583942Y63437062D01*
X18451636Y63382259D01*
X18332564Y63302698D01*
X18231302Y63201436D01*
X18151741Y63082364D01*
X18096938Y62950058D01*
X18069000Y62809603D01*
X18069000Y62756291D01*
X14796664Y59483953D01*
X14776555Y59467450D01*
X14738970Y59421652D01*
X14710698Y59387203D01*
X14661763Y59295651D01*
X14631628Y59196311D01*
X14621453Y59093002D01*
X14624003Y59067111D01*
X14624003Y57858060D01*
X14624002Y57858054D01*
X14624002Y55740878D01*
X14624003Y54216879D01*
X14624003Y53439082D01*
X14568364Y53476259D01*
X14436058Y53531062D01*
X14295603Y53559000D01*
X14242290Y53559000D01*
X12880395Y54920894D01*
X12880395Y61558316D01*
X14005000Y60433710D01*
X14005000Y60380397D01*
X14032938Y60239942D01*
X14087741Y60107636D01*
X14167302Y59988564D01*
X14268564Y59887302D01*
X14387636Y59807741D01*
X14519942Y59752938D01*
X14660397Y59725000D01*
X14803603Y59725000D01*
X14944058Y59752938D01*
X15076364Y59807741D01*
X15195436Y59887302D01*
X15296698Y59988564D01*
X15376259Y60107636D01*
X15431062Y60239942D01*
X15459000Y60380397D01*
X15459000Y60487000D01*
X15565603Y60487000D01*
X15706058Y60514938D01*
X15838364Y60569741D01*
X15957436Y60649302D01*
X16058698Y60750564D01*
X16138259Y60869636D01*
X16193062Y61001942D01*
X16221000Y61142397D01*
X16221000Y61285603D01*
X16193062Y61426058D01*
X16138259Y61558364D01*
X16058698Y61677436D01*
X15957436Y61778698D01*
X15838364Y61858259D01*
X15706058Y61913062D01*
X15565603Y61941000D01*
X15512290Y61941000D01*
X14081010Y63372279D01*
X14081010Y66446904D01*
X14133636Y66411741D01*
X14265942Y66356938D01*
X14406397Y66329000D01*
X14549603Y66329000D01*
X14690058Y66356938D01*
X14822364Y66411741D01*
X14941436Y66491302D01*
X15042698Y66592564D01*
X15122259Y66711636D01*
X15177062Y66843942D01*
X15205000Y66984397D01*
X15205000Y67037710D01*
X15232338Y67065048D01*
X15252447Y67081551D01*
X15318303Y67161797D01*
X15345463Y67212611D01*
X15403636Y67173741D01*
X15535942Y67118938D01*
X15676397Y67091000D01*
X15819603Y67091000D01*
X15960058Y67118938D01*
X16092364Y67173741D01*
X16211436Y67253302D01*
X16312698Y67354564D01*
X16392259Y67473636D01*
X16447062Y67605942D01*
X16475000Y67746397D01*
X16475000Y67799710D01*
X16502338Y67827048D01*
X16522447Y67843551D01*
X16588303Y67923797D01*
X16637238Y68015349D01*
X16667373Y68114689D01*
X16674999Y68192118D01*
X16674999Y68192119D01*
X16677548Y68217998D01*
X16674999Y68243879D01*
X16674999Y94611321D01*
X17473000Y94611321D01*
X17473000Y94300679D01*
X17533604Y93996006D01*
X17652481Y93709011D01*
X17825064Y93450721D01*
X18044721Y93231064D01*
X18303011Y93058481D01*
X18590006Y92939604D01*
X18894679Y92879000D01*
X19205321Y92879000D01*
X19509994Y92939604D01*
X19796989Y93058481D01*
X20055279Y93231064D01*
X20274936Y93450721D01*
X20447519Y93709011D01*
X20566396Y93996006D01*
X20627000Y94300679D01*
X20627000Y94611321D01*
X20566396Y94915994D01*
X20447519Y95202989D01*
X20274936Y95461279D01*
X20055279Y95680936D01*
X19796989Y95853519D01*
X19509994Y95972396D01*
X19205321Y96033000D01*
X18894679Y96033000D01*
X18590006Y95972396D01*
X18303011Y95853519D01*
X18044721Y95680936D01*
X17825064Y95461279D01*
X17652481Y95202989D01*
X17533604Y94915994D01*
X17473000Y94611321D01*
X16674999Y94611321D01*
X16674999Y95412124D01*
X16677548Y95438002D01*
X16672241Y95491882D01*
X16667373Y95541311D01*
X16637238Y95640651D01*
X16588303Y95732203D01*
X16522447Y95812449D01*
X16502338Y95828952D01*
X14361871Y97969418D01*
X15748000Y97969418D01*
X15812103Y97975732D01*
X15873743Y97994430D01*
X15930550Y98024794D01*
X15980343Y98065657D01*
X16021206Y98115450D01*
X16051570Y98172257D01*
X16070268Y98233897D01*
X16076582Y98298000D01*
X16076582Y99822000D01*
X16070268Y99886103D01*
X16051570Y99947743D01*
X16021206Y100004550D01*
X15980343Y100054343D01*
X15930550Y100095206D01*
X15873743Y100125570D01*
X15812103Y100144268D01*
X15748000Y100150582D01*
X14350999Y100150582D01*
X14350999Y100196124D01*
X14353548Y100222002D01*
X14350999Y100247882D01*
X14343373Y100325311D01*
X14313238Y100424651D01*
X14267930Y100509418D01*
X15748000Y100509418D01*
X15812103Y100515732D01*
X15873743Y100534430D01*
X15930550Y100564794D01*
X15980343Y100605657D01*
X16021206Y100655450D01*
X16051570Y100712257D01*
X16070268Y100773897D01*
X16076582Y100838000D01*
X16076582Y102362000D01*
X16070268Y102426103D01*
X16051570Y102487743D01*
X16021206Y102544550D01*
X15980343Y102594343D01*
X15930550Y102635206D01*
X15873743Y102665570D01*
X15812103Y102684268D01*
X15748000Y102690582D01*
X14224000Y102690582D01*
X14159897Y102684268D01*
X14098257Y102665570D01*
X14041450Y102635206D01*
X13991657Y102594343D01*
X13950794Y102544550D01*
X13920430Y102487743D01*
X13901732Y102426103D01*
X13895418Y102362000D01*
X13895418Y100895873D01*
X13536582Y101254708D01*
X13536582Y102362000D01*
X13530268Y102426103D01*
X13511570Y102487743D01*
X13481206Y102544550D01*
X13440343Y102594343D01*
X13390550Y102635206D01*
X13333743Y102665570D01*
X13272103Y102684268D01*
X13208000Y102690582D01*
X11684000Y102690582D01*
X11619897Y102684268D01*
X11558257Y102665570D01*
X11501450Y102635206D01*
X11451657Y102594343D01*
X11410794Y102544550D01*
X11380430Y102487743D01*
X11361732Y102426103D01*
X11355418Y102362000D01*
X11355418Y100838000D01*
X11361732Y100773897D01*
X11380430Y100712257D01*
X11410794Y100655450D01*
X11451657Y100605657D01*
X11501450Y100564794D01*
X11558257Y100534430D01*
X11619897Y100515732D01*
X11684000Y100509418D01*
X12791292Y100509418D01*
X13150127Y100150582D01*
X11684000Y100150582D01*
X11619897Y100144268D01*
X11558257Y100125570D01*
X11501450Y100095206D01*
X11451657Y100054343D01*
X11410794Y100004550D01*
X11380430Y99947743D01*
X11361732Y99886103D01*
X11355418Y99822000D01*
X11355418Y98298000D01*
X11361732Y98233897D01*
X11380430Y98172257D01*
X11410794Y98115450D01*
X11451657Y98065657D01*
X11501450Y98024794D01*
X11558257Y97994430D01*
X11619897Y97975732D01*
X11684000Y97969418D01*
X11919000Y97969418D01*
X11919000Y97923881D01*
X11916451Y97898000D01*
X11919000Y97872120D01*
X11926626Y97794691D01*
X11956761Y97695351D01*
X12005696Y97603798D01*
X12071552Y97523552D01*
X12091666Y97507045D01*
X14351000Y95247710D01*
X14350999Y85210119D01*
X14351000Y85210109D01*
X14350999Y83178119D01*
X14351000Y83178109D01*
X14350999Y81908119D01*
X14351000Y81908109D01*
X14351000Y81391781D01*
X14314366Y81416259D01*
X14182060Y81471062D01*
X14041605Y81499000D01*
X13898399Y81499000D01*
X13757944Y81471062D01*
X13625638Y81416259D01*
X13506566Y81336698D01*
X13405304Y81235436D01*
X13325743Y81116364D01*
X13317392Y81096202D01*
X13316497Y81096800D01*
X13184191Y81151603D01*
X13043736Y81179541D01*
X12900530Y81179541D01*
X12760075Y81151603D01*
X12627769Y81096800D01*
X12508697Y81017239D01*
X12407435Y80915977D01*
X12327874Y80796905D01*
X12273071Y80664599D01*
X12245133Y80524144D01*
X12245133Y80386637D01*
X12141337Y80365991D01*
X12009031Y80311188D01*
X11889959Y80231627D01*
X11788697Y80130365D01*
X11709136Y80011293D01*
X11654333Y79878987D01*
X11626395Y79738532D01*
X11626395Y79595326D01*
X11654333Y79454871D01*
X11709136Y79322565D01*
X11788697Y79203493D01*
X11826395Y79165795D01*
X11826395Y79075364D01*
X11826396Y79075354D01*
X11826396Y75539493D01*
X11774364Y75574259D01*
X11642058Y75629062D01*
X11501603Y75657000D01*
X11358397Y75657000D01*
X11217942Y75629062D01*
X11085636Y75574259D01*
X10966564Y75494698D01*
X10865302Y75393436D01*
X10785741Y75274364D01*
X10730938Y75142058D01*
X10703000Y75001603D01*
X202000Y75001603D01*
X202000Y99822000D01*
X6275418Y99822000D01*
X6275418Y98298000D01*
X6281732Y98233897D01*
X6300430Y98172257D01*
X6330794Y98115450D01*
X6371657Y98065657D01*
X6421450Y98024794D01*
X6478257Y97994430D01*
X6539897Y97975732D01*
X6604000Y97969418D01*
X8128000Y97969418D01*
X8192103Y97975732D01*
X8253743Y97994430D01*
X8310550Y98024794D01*
X8360343Y98065657D01*
X8401206Y98115450D01*
X8431570Y98172257D01*
X8450268Y98233897D01*
X8456582Y98298000D01*
X8456582Y99822000D01*
X8815418Y99822000D01*
X8815418Y98298000D01*
X8821732Y98233897D01*
X8840430Y98172257D01*
X8870794Y98115450D01*
X8911657Y98065657D01*
X8961450Y98024794D01*
X9018257Y97994430D01*
X9079897Y97975732D01*
X9144000Y97969418D01*
X10668000Y97969418D01*
X10732103Y97975732D01*
X10793743Y97994430D01*
X10850550Y98024794D01*
X10900343Y98065657D01*
X10941206Y98115450D01*
X10971570Y98172257D01*
X10990268Y98233897D01*
X10996582Y98298000D01*
X10996582Y99822000D01*
X10990268Y99886103D01*
X10971570Y99947743D01*
X10941206Y100004550D01*
X10900343Y100054343D01*
X10850550Y100095206D01*
X10793743Y100125570D01*
X10732103Y100144268D01*
X10668000Y100150582D01*
X9144000Y100150582D01*
X9079897Y100144268D01*
X9018257Y100125570D01*
X8961450Y100095206D01*
X8911657Y100054343D01*
X8870794Y100004550D01*
X8840430Y99947743D01*
X8821732Y99886103D01*
X8815418Y99822000D01*
X8456582Y99822000D01*
X8450268Y99886103D01*
X8431570Y99947743D01*
X8401206Y100004550D01*
X8360343Y100054343D01*
X8310550Y100095206D01*
X8253743Y100125570D01*
X8192103Y100144268D01*
X8128000Y100150582D01*
X6604000Y100150582D01*
X6539897Y100144268D01*
X6478257Y100125570D01*
X6421450Y100095206D01*
X6371657Y100054343D01*
X6330794Y100004550D01*
X6300430Y99947743D01*
X6281732Y99886103D01*
X6275418Y99822000D01*
X202000Y99822000D01*
X202000Y102362000D01*
X6275418Y102362000D01*
X6275418Y100838000D01*
X6281732Y100773897D01*
X6300430Y100712257D01*
X6330794Y100655450D01*
X6371657Y100605657D01*
X6421450Y100564794D01*
X6478257Y100534430D01*
X6539897Y100515732D01*
X6604000Y100509418D01*
X8128000Y100509418D01*
X8192103Y100515732D01*
X8253743Y100534430D01*
X8310550Y100564794D01*
X8360343Y100605657D01*
X8401206Y100655450D01*
X8431570Y100712257D01*
X8450268Y100773897D01*
X8456582Y100838000D01*
X8456582Y102362000D01*
X8815418Y102362000D01*
X8815418Y100838000D01*
X8821732Y100773897D01*
X8840430Y100712257D01*
X8870794Y100655450D01*
X8911657Y100605657D01*
X8961450Y100564794D01*
X9018257Y100534430D01*
X9079897Y100515732D01*
X9144000Y100509418D01*
X10668000Y100509418D01*
X10732103Y100515732D01*
X10793743Y100534430D01*
X10850550Y100564794D01*
X10900343Y100605657D01*
X10941206Y100655450D01*
X10971570Y100712257D01*
X10990268Y100773897D01*
X10996582Y100838000D01*
X10996582Y102362000D01*
X10990268Y102426103D01*
X10971570Y102487743D01*
X10941206Y102544550D01*
X10900343Y102594343D01*
X10850550Y102635206D01*
X10793743Y102665570D01*
X10732103Y102684268D01*
X10668000Y102690582D01*
X9144000Y102690582D01*
X9079897Y102684268D01*
X9018257Y102665570D01*
X8961450Y102635206D01*
X8911657Y102594343D01*
X8870794Y102544550D01*
X8840430Y102487743D01*
X8821732Y102426103D01*
X8815418Y102362000D01*
X8456582Y102362000D01*
X8450268Y102426103D01*
X8431570Y102487743D01*
X8401206Y102544550D01*
X8360343Y102594343D01*
X8310550Y102635206D01*
X8253743Y102665570D01*
X8192103Y102684268D01*
X8128000Y102690582D01*
X6604000Y102690582D01*
X6539897Y102684268D01*
X6478257Y102665570D01*
X6421450Y102635206D01*
X6371657Y102594343D01*
X6330794Y102544550D01*
X6300430Y102487743D01*
X6281732Y102426103D01*
X6275418Y102362000D01*
X202000Y102362000D01*
X202000Y109798000D01*
X37798000Y109798000D01*
X37798001Y202000D01*
X37798001Y202000D01*
G37*
X37798001Y202000D02*
X202000Y202000D01*
X202000Y9799257D01*
X7507000Y9799257D01*
X7507000Y9584743D01*
X7548850Y9374350D01*
X7630941Y9176165D01*
X7750119Y8997803D01*
X7901803Y8846119D01*
X8080165Y8726941D01*
X8278350Y8644850D01*
X8488743Y8603000D01*
X8703257Y8603000D01*
X8913650Y8644850D01*
X9111835Y8726941D01*
X9290197Y8846119D01*
X9441881Y8997803D01*
X9561059Y9176165D01*
X9643150Y9374350D01*
X9685000Y9584743D01*
X9685000Y9799257D01*
X9643150Y10009650D01*
X9561059Y10207835D01*
X9441881Y10386197D01*
X9290197Y10537881D01*
X9111835Y10657059D01*
X8913650Y10739150D01*
X8703257Y10781000D01*
X8488743Y10781000D01*
X8278350Y10739150D01*
X8080165Y10657059D01*
X7901803Y10537881D01*
X7750119Y10386197D01*
X7630941Y10207835D01*
X7548850Y10009650D01*
X7507000Y9799257D01*
X202000Y9799257D01*
X202000Y14799257D01*
X7507000Y14799257D01*
X7507000Y14584743D01*
X7548850Y14374350D01*
X7630941Y14176165D01*
X7750119Y13997803D01*
X7901803Y13846119D01*
X8080165Y13726941D01*
X8278350Y13644850D01*
X8488743Y13603000D01*
X8703257Y13603000D01*
X8913650Y13644850D01*
X9111835Y13726941D01*
X9290197Y13846119D01*
X9441881Y13997803D01*
X9561059Y14176165D01*
X9643150Y14374350D01*
X9685000Y14584743D01*
X9685000Y14799257D01*
X9643150Y15009650D01*
X9561059Y15207835D01*
X9441881Y15386197D01*
X9290197Y15537881D01*
X9111835Y15657059D01*
X8913650Y15739150D01*
X8703257Y15781000D01*
X8488743Y15781000D01*
X8278350Y15739150D01*
X8080165Y15657059D01*
X7901803Y15537881D01*
X7750119Y15386197D01*
X7630941Y15207835D01*
X7548850Y15009650D01*
X7507000Y14799257D01*
X202000Y14799257D01*
X202000Y28900100D01*
X12851783Y28900100D01*
X12855300Y28864392D01*
X12855300Y28828497D01*
X12862303Y28793290D01*
X12865820Y28757583D01*
X12876235Y28723249D01*
X12883238Y28688042D01*
X12896974Y28654880D01*
X12907390Y28620543D01*
X12924305Y28588897D01*
X12938041Y28555736D01*
X12957983Y28525890D01*
X12974897Y28494247D01*
X12997658Y28466512D01*
X13017602Y28436664D01*
X13042983Y28411283D01*
X13065746Y28383546D01*
X13093483Y28360783D01*
X13118864Y28335402D01*
X13148712Y28315458D01*
X13176447Y28292697D01*
X13208090Y28275783D01*
X13237936Y28255841D01*
X13271097Y28242105D01*
X13302743Y28225190D01*
X13337080Y28214774D01*
X13370242Y28201038D01*
X13405449Y28194035D01*
X13439783Y28183620D01*
X13475490Y28180103D01*
X13510697Y28173100D01*
X26099903Y28173100D01*
X26135110Y28180103D01*
X26170817Y28183620D01*
X26205151Y28194035D01*
X26240358Y28201038D01*
X26273520Y28214774D01*
X26307857Y28225190D01*
X26339503Y28242105D01*
X26372664Y28255841D01*
X26402510Y28275783D01*
X26434153Y28292697D01*
X26461888Y28315458D01*
X26491736Y28335402D01*
X26517117Y28360783D01*
X26544854Y28383546D01*
X26567617Y28411283D01*
X26592998Y28436664D01*
X26612942Y28466512D01*
X26635703Y28494247D01*
X26652617Y28525890D01*
X26672559Y28555736D01*
X26686295Y28588897D01*
X26703210Y28620543D01*
X26713626Y28654880D01*
X26727362Y28688042D01*
X26734365Y28723249D01*
X26744780Y28757583D01*
X26748297Y28793290D01*
X26755300Y28828497D01*
X26755300Y28864392D01*
X26758817Y28900100D01*
X26755300Y28935808D01*
X26755300Y28971703D01*
X26748297Y29006910D01*
X26744780Y29042617D01*
X26734365Y29076951D01*
X26727362Y29112158D01*
X26713626Y29145320D01*
X26703210Y29179657D01*
X26686295Y29211303D01*
X26672559Y29244464D01*
X26652617Y29274310D01*
X26635703Y29305953D01*
X26612942Y29333688D01*
X26592998Y29363536D01*
X26567617Y29388917D01*
X26544854Y29416654D01*
X26517117Y29439417D01*
X26491736Y29464798D01*
X26461888Y29484742D01*
X26434153Y29507503D01*
X26402510Y29524417D01*
X26372664Y29544359D01*
X26339503Y29558095D01*
X26307857Y29575010D01*
X26273520Y29585426D01*
X26240358Y29599162D01*
X26205151Y29606165D01*
X26170817Y29616580D01*
X26135110Y29620097D01*
X26099903Y29627100D01*
X13510697Y29627100D01*
X13475490Y29620097D01*
X13439783Y29616580D01*
X13405449Y29606165D01*
X13370242Y29599162D01*
X13337080Y29585426D01*
X13302743Y29575010D01*
X13271097Y29558095D01*
X13237936Y29544359D01*
X13208090Y29524417D01*
X13176447Y29507503D01*
X13148712Y29484742D01*
X13118864Y29464798D01*
X13093483Y29439417D01*
X13065746Y29416654D01*
X13042983Y29388917D01*
X13017602Y29363536D01*
X12997658Y29333688D01*
X12974897Y29305953D01*
X12957983Y29274310D01*
X12938041Y29244464D01*
X12924305Y29211303D01*
X12907390Y29179657D01*
X12896974Y29145320D01*
X12883238Y29112158D01*
X12876235Y29076951D01*
X12865820Y29042617D01*
X12862303Y29006910D01*
X12855300Y28971703D01*
X12855300Y28935808D01*
X12851783Y28900100D01*
X202000Y28900100D01*
X202000Y38902806D01*
X11280568Y38902806D01*
X11280568Y38759600D01*
X11308506Y38619145D01*
X11363309Y38486839D01*
X11442870Y38367767D01*
X11544132Y38266505D01*
X11663204Y38186944D01*
X11795510Y38132141D01*
X11935965Y38104203D01*
X11989278Y38104203D01*
X12053222Y38040259D01*
X12053227Y38040255D01*
X13998825Y36094656D01*
X14015323Y36074552D01*
X14095569Y36008696D01*
X14187121Y35959761D01*
X14277162Y35932447D01*
X14286461Y35929626D01*
X14389771Y35919451D01*
X14415652Y35922000D01*
X18929866Y35922000D01*
X18967564Y35884302D01*
X19086636Y35804741D01*
X19218942Y35749938D01*
X19359397Y35722000D01*
X19502603Y35722000D01*
X19643058Y35749938D01*
X19775364Y35804741D01*
X19894436Y35884302D01*
X19995698Y35985564D01*
X20075259Y36104636D01*
X20130062Y36236942D01*
X20158000Y36377397D01*
X20158000Y36520603D01*
X20130062Y36661058D01*
X20075259Y36793364D01*
X19995698Y36912436D01*
X19894436Y37013698D01*
X19775364Y37093259D01*
X19643058Y37148062D01*
X19502603Y37176000D01*
X19359397Y37176000D01*
X19218942Y37148062D01*
X19086636Y37093259D01*
X18967564Y37013698D01*
X18929866Y36976000D01*
X14608062Y36976000D01*
X12798516Y38785544D01*
X12798512Y38785549D01*
X12734568Y38849493D01*
X12734568Y38902806D01*
X12706630Y39043261D01*
X12651827Y39175567D01*
X12572266Y39294639D01*
X12471004Y39395901D01*
X12351932Y39475462D01*
X12219626Y39530265D01*
X12079171Y39558203D01*
X11935965Y39558203D01*
X11795510Y39530265D01*
X11663204Y39475462D01*
X11544132Y39395901D01*
X11442870Y39294639D01*
X11363309Y39175567D01*
X11308506Y39043261D01*
X11280568Y38902806D01*
X202000Y38902806D01*
X202000Y67381603D01*
X7655000Y67381603D01*
X7655000Y67238397D01*
X7682938Y67097942D01*
X7737741Y66965636D01*
X7817302Y66846564D01*
X7855000Y66808866D01*
X7855001Y63493135D01*
X7817302Y63455436D01*
X7737741Y63336364D01*
X7682938Y63204058D01*
X7655000Y63063603D01*
X7655000Y62920397D01*
X7682938Y62779942D01*
X7737741Y62647636D01*
X7817302Y62528564D01*
X7918564Y62427302D01*
X8037636Y62347741D01*
X8169942Y62292938D01*
X8310397Y62265000D01*
X8453603Y62265000D01*
X8594058Y62292938D01*
X8726364Y62347741D01*
X8845436Y62427302D01*
X8946698Y62528564D01*
X9026259Y62647636D01*
X9081062Y62779942D01*
X9109000Y62920397D01*
X9109000Y63063603D01*
X9081062Y63204058D01*
X9026259Y63336364D01*
X8946698Y63455436D01*
X8909000Y63493134D01*
X8909000Y66808866D01*
X8946698Y66846564D01*
X9026259Y66965636D01*
X9081062Y67097942D01*
X9109000Y67238397D01*
X9109000Y67381603D01*
X9081062Y67522058D01*
X9026259Y67654364D01*
X8946698Y67773436D01*
X8845436Y67874698D01*
X8726364Y67954259D01*
X8594058Y68009062D01*
X8453603Y68037000D01*
X8310397Y68037000D01*
X8169942Y68009062D01*
X8037636Y67954259D01*
X7918564Y67874698D01*
X7817302Y67773436D01*
X7737741Y67654364D01*
X7682938Y67522058D01*
X7655000Y67381603D01*
X202000Y67381603D01*
X202000Y75001603D01*
X10703000Y75001603D01*
X10703000Y74858397D01*
X10730938Y74717942D01*
X10785741Y74585636D01*
X10803000Y74559806D01*
X10803001Y64166295D01*
X10785741Y64140464D01*
X10730938Y64008158D01*
X10703000Y63867703D01*
X10703000Y63724497D01*
X10730938Y63584042D01*
X10785741Y63451736D01*
X10865302Y63332664D01*
X10966564Y63231402D01*
X11085636Y63151841D01*
X11217942Y63097038D01*
X11358397Y63069100D01*
X11501603Y63069100D01*
X11642058Y63097038D01*
X11774364Y63151841D01*
X11826395Y63186607D01*
X11826395Y54728486D01*
X11823846Y54702605D01*
X11826395Y54676725D01*
X11834021Y54599296D01*
X11864156Y54499956D01*
X11913091Y54408403D01*
X11978947Y54328157D01*
X11999061Y54311650D01*
X13497000Y52813710D01*
X13497000Y52760397D01*
X13524938Y52619942D01*
X13579741Y52487636D01*
X13659302Y52368564D01*
X13760564Y52267302D01*
X13879636Y52187741D01*
X14011942Y52132938D01*
X14152397Y52105000D01*
X14295603Y52105000D01*
X14436058Y52132938D01*
X14568364Y52187741D01*
X14624003Y52224917D01*
X14624002Y44249092D01*
X14320011Y43945100D01*
X14266697Y43945100D01*
X14126242Y43917162D01*
X13993936Y43862359D01*
X13874864Y43782798D01*
X13773602Y43681536D01*
X13694041Y43562464D01*
X13639238Y43430158D01*
X13611300Y43289703D01*
X13611300Y43146497D01*
X13639238Y43006042D01*
X13694041Y42873736D01*
X13773602Y42754664D01*
X13874864Y42653402D01*
X13993936Y42573841D01*
X14126242Y42519038D01*
X14266697Y42491100D01*
X14409903Y42491100D01*
X14550358Y42519038D01*
X14682664Y42573841D01*
X14801736Y42653402D01*
X14902998Y42754664D01*
X14982559Y42873736D01*
X15037362Y43006042D01*
X15065300Y43146497D01*
X15065300Y43199811D01*
X15505341Y43639851D01*
X15525450Y43656354D01*
X15591306Y43736600D01*
X15640241Y43828152D01*
X15670376Y43927492D01*
X15678002Y44004921D01*
X15678002Y44004922D01*
X15680551Y44030801D01*
X15678002Y44056682D01*
X15678002Y58874713D01*
X18814291Y62011000D01*
X18867603Y62011000D01*
X19008058Y62038938D01*
X19140364Y62093741D01*
X19259436Y62173302D01*
X19360698Y62274564D01*
X19440259Y62393636D01*
X19495062Y62525942D01*
X19501318Y62557394D01*
X20580302Y61478409D01*
X20580301Y34525393D01*
X19457662Y33402753D01*
X19437553Y33386250D01*
X19380061Y33316196D01*
X19371696Y33306003D01*
X19322761Y33214451D01*
X19292626Y33115111D01*
X19282451Y33011802D01*
X19285001Y32985912D01*
X19285000Y31997134D01*
X19247302Y31959436D01*
X19167741Y31840364D01*
X19112938Y31708058D01*
X19085000Y31567603D01*
X19085000Y31424397D01*
X19112938Y31283942D01*
X19167741Y31151636D01*
X19247302Y31032564D01*
X19348564Y30931302D01*
X19467636Y30851741D01*
X19599942Y30796938D01*
X19740397Y30769000D01*
X19883603Y30769000D01*
X20024058Y30796938D01*
X20156364Y30851741D01*
X20275436Y30931302D01*
X20376698Y31032564D01*
X20456259Y31151636D01*
X20511062Y31283942D01*
X20539000Y31424397D01*
X20539000Y31567603D01*
X20511062Y31708058D01*
X20456259Y31840364D01*
X20376698Y31959436D01*
X20339000Y31997134D01*
X20339000Y32793513D01*
X21461640Y33916152D01*
X21481749Y33932655D01*
X21547605Y34012901D01*
X21596540Y34104453D01*
X21626675Y34203793D01*
X21634301Y34281222D01*
X21634301Y34281223D01*
X21636850Y34307102D01*
X21634301Y34332983D01*
X21634301Y43591810D01*
X22501300Y42724810D01*
X22501300Y42671497D01*
X22529238Y42531042D01*
X22584041Y42398736D01*
X22663602Y42279664D01*
X22764864Y42178402D01*
X22883936Y42098841D01*
X23016242Y42044038D01*
X23156697Y42016100D01*
X23299903Y42016100D01*
X23440358Y42044038D01*
X23572664Y42098841D01*
X23691736Y42178402D01*
X23792998Y42279664D01*
X23872559Y42398736D01*
X23927362Y42531042D01*
X23955300Y42671497D01*
X23955300Y42814703D01*
X23927362Y42955158D01*
X23872559Y43087464D01*
X23792998Y43206536D01*
X23691736Y43307798D01*
X23572664Y43387359D01*
X23440358Y43442162D01*
X23299903Y43470100D01*
X23246590Y43470100D01*
X22323310Y44393379D01*
X22323310Y55309004D01*
X22375936Y55273841D01*
X22508242Y55219038D01*
X22648697Y55191100D01*
X22702010Y55191100D01*
X22765954Y55127156D01*
X22765959Y55127152D01*
X23844301Y54048808D01*
X23844300Y52482234D01*
X23806602Y52444536D01*
X23727041Y52325464D01*
X23672238Y52193158D01*
X23644300Y52052703D01*
X23644300Y51909497D01*
X23672238Y51769042D01*
X23727041Y51636736D01*
X23806602Y51517664D01*
X23907864Y51416402D01*
X24026936Y51336841D01*
X24159242Y51282038D01*
X24299697Y51254100D01*
X24442903Y51254100D01*
X24583358Y51282038D01*
X24715664Y51336841D01*
X24834736Y51416402D01*
X24935998Y51517664D01*
X25015559Y51636736D01*
X25070362Y51769042D01*
X25098300Y51909497D01*
X25098300Y52052703D01*
X25070362Y52193158D01*
X25015559Y52325464D01*
X24935998Y52444536D01*
X24898300Y52482234D01*
X24898300Y54241219D01*
X24900849Y54267100D01*
X24894836Y54328157D01*
X24890674Y54370410D01*
X24860539Y54469750D01*
X24811604Y54561302D01*
X24745748Y54641548D01*
X24725644Y54658047D01*
X23511248Y55872441D01*
X23511244Y55872446D01*
X23465590Y55918100D01*
X23787100Y56239611D01*
X24673000Y55353710D01*
X24673000Y55300397D01*
X24700938Y55159942D01*
X24755741Y55027636D01*
X24835302Y54908564D01*
X24936564Y54807302D01*
X25055636Y54727741D01*
X25187942Y54672938D01*
X25328397Y54645000D01*
X25471603Y54645000D01*
X25612058Y54672938D01*
X25744364Y54727741D01*
X25863436Y54807302D01*
X25964698Y54908564D01*
X26044259Y55027636D01*
X26099062Y55159942D01*
X26127000Y55300397D01*
X26127000Y55443603D01*
X26099062Y55584058D01*
X26044259Y55716364D01*
X25964698Y55835436D01*
X25863436Y55936698D01*
X25744364Y56016259D01*
X25612058Y56071062D01*
X25471603Y56099000D01*
X25418290Y56099000D01*
X24647311Y56869978D01*
X24647311Y60057499D01*
X24927000Y59777810D01*
X24927000Y59724497D01*
X24954938Y59584042D01*
X25009741Y59451736D01*
X25089302Y59332664D01*
X25190564Y59231402D01*
X25309636Y59151841D01*
X25441942Y59097038D01*
X25582397Y59069100D01*
X25725603Y59069100D01*
X25745229Y59073004D01*
X26302483Y59073004D01*
X26306000Y59037296D01*
X26306000Y59001401D01*
X26313003Y58966194D01*
X26316520Y58930487D01*
X26326935Y58896154D01*
X26333938Y58860946D01*
X26347675Y58827782D01*
X26358090Y58793448D01*
X26375003Y58761806D01*
X26388741Y58728640D01*
X26408688Y58698787D01*
X26425598Y58667151D01*
X26448353Y58639425D01*
X26468302Y58609568D01*
X26569564Y58508306D01*
X26569570Y58508302D01*
X30788000Y54289870D01*
X30787999Y37150131D01*
X30651570Y37013702D01*
X30651564Y37013698D01*
X30550302Y36912436D01*
X30530353Y36882579D01*
X30507598Y36854853D01*
X30490688Y36823217D01*
X30470741Y36793364D01*
X30457003Y36760198D01*
X30440090Y36728556D01*
X30429675Y36694222D01*
X30415938Y36661058D01*
X30408935Y36625850D01*
X30398520Y36591517D01*
X30395003Y36555810D01*
X30388000Y36520603D01*
X30388000Y36484708D01*
X30384483Y36449000D01*
X30388000Y36413292D01*
X30388000Y36377397D01*
X30395003Y36342190D01*
X30398520Y36306483D01*
X30408935Y36272150D01*
X30415938Y36236942D01*
X30429675Y36203778D01*
X30440090Y36169444D01*
X30457003Y36137802D01*
X30470741Y36104636D01*
X30490688Y36074783D01*
X30507598Y36043147D01*
X30530353Y36015420D01*
X30550302Y35985564D01*
X30575692Y35960174D01*
X30598447Y35932447D01*
X30626174Y35909692D01*
X30651564Y35884302D01*
X30681420Y35864353D01*
X30709147Y35841598D01*
X30740783Y35824688D01*
X30770636Y35804741D01*
X30803802Y35791003D01*
X30835444Y35774090D01*
X30869778Y35763675D01*
X30902942Y35749938D01*
X30938150Y35742935D01*
X30972483Y35732520D01*
X31008190Y35729003D01*
X31043397Y35722000D01*
X31079292Y35722000D01*
X31115000Y35718483D01*
X31150708Y35722000D01*
X31186603Y35722000D01*
X31221810Y35729003D01*
X31257517Y35732520D01*
X31291850Y35742935D01*
X31327058Y35749938D01*
X31360222Y35763675D01*
X31394556Y35774090D01*
X31426198Y35791003D01*
X31459364Y35804741D01*
X31489217Y35824688D01*
X31520853Y35841598D01*
X31548579Y35864353D01*
X31578436Y35884302D01*
X31679698Y35985564D01*
X31679702Y35985570D01*
X32003810Y36309678D01*
X32031552Y36332445D01*
X32122402Y36443146D01*
X32189909Y36569442D01*
X32231479Y36706482D01*
X32241999Y36813291D01*
X32241999Y36813292D01*
X32245516Y36848998D01*
X32241999Y36884706D01*
X32241999Y54555297D01*
X32245516Y54591005D01*
X32231479Y54733523D01*
X32189909Y54870562D01*
X32183388Y54882761D01*
X32122402Y54996858D01*
X32031553Y55107559D01*
X32003816Y55130322D01*
X27597702Y59536434D01*
X27597698Y59536440D01*
X27496436Y59637702D01*
X27466579Y59657651D01*
X27438853Y59680406D01*
X27407217Y59697316D01*
X27377364Y59717263D01*
X27344198Y59731001D01*
X27312556Y59747914D01*
X27278222Y59758329D01*
X27245058Y59772066D01*
X27209850Y59779069D01*
X27175517Y59789484D01*
X27139810Y59793001D01*
X27104603Y59800004D01*
X27068708Y59800004D01*
X27033000Y59803521D01*
X26997292Y59800004D01*
X26961397Y59800004D01*
X26926190Y59793001D01*
X26890483Y59789484D01*
X26856150Y59779069D01*
X26820942Y59772066D01*
X26787778Y59758329D01*
X26753444Y59747914D01*
X26721802Y59731001D01*
X26688636Y59717263D01*
X26658783Y59697316D01*
X26627147Y59680406D01*
X26599420Y59657651D01*
X26569564Y59637702D01*
X26544174Y59612312D01*
X26516447Y59589557D01*
X26493692Y59561830D01*
X26468302Y59536440D01*
X26448353Y59506584D01*
X26425598Y59478857D01*
X26408688Y59447221D01*
X26388741Y59417368D01*
X26375003Y59384202D01*
X26358090Y59352560D01*
X26347675Y59318226D01*
X26333938Y59285062D01*
X26326935Y59249854D01*
X26316520Y59215521D01*
X26313003Y59179814D01*
X26306000Y59144607D01*
X26306000Y59108712D01*
X26302483Y59073004D01*
X25745229Y59073004D01*
X25866058Y59097038D01*
X25998364Y59151841D01*
X26117436Y59231402D01*
X26218698Y59332664D01*
X26298259Y59451736D01*
X26353062Y59584042D01*
X26381000Y59724497D01*
X26381000Y59867703D01*
X26353062Y60008158D01*
X26298259Y60140464D01*
X26218698Y60259536D01*
X26117436Y60360798D01*
X25998364Y60440359D01*
X25866058Y60495162D01*
X25725603Y60523100D01*
X25672290Y60523100D01*
X25247321Y60948068D01*
X25247321Y62687277D01*
X25263741Y62647636D01*
X25343302Y62528564D01*
X25444564Y62427302D01*
X25563636Y62347741D01*
X25695942Y62292938D01*
X25836397Y62265000D01*
X25979603Y62265000D01*
X26120058Y62292938D01*
X26252364Y62347741D01*
X26371436Y62427302D01*
X26472698Y62528564D01*
X26552259Y62647636D01*
X26607062Y62779942D01*
X26635000Y62920397D01*
X26635000Y63063603D01*
X26607062Y63204058D01*
X26552259Y63336364D01*
X26472698Y63455436D01*
X26371436Y63556698D01*
X26252364Y63636259D01*
X26120058Y63691062D01*
X25979603Y63719000D01*
X25926289Y63719000D01*
X25847331Y63797958D01*
X25847331Y101302042D01*
X26806945Y102261655D01*
X26806949Y102261660D01*
X29880709Y105335418D01*
X30988000Y105335418D01*
X31052103Y105341732D01*
X31113743Y105360430D01*
X31170550Y105390794D01*
X31220343Y105431657D01*
X31261206Y105481450D01*
X31291570Y105538257D01*
X31310268Y105599897D01*
X31316582Y105664000D01*
X31316582Y107188000D01*
X31310268Y107252103D01*
X31291570Y107313743D01*
X31261206Y107370550D01*
X31220343Y107420343D01*
X31170550Y107461206D01*
X31113743Y107491570D01*
X31052103Y107510268D01*
X30988000Y107516582D01*
X29464000Y107516582D01*
X29399897Y107510268D01*
X29338257Y107491570D01*
X29281450Y107461206D01*
X29231657Y107420343D01*
X29190794Y107370550D01*
X29160430Y107313743D01*
X29141732Y107252103D01*
X29135418Y107188000D01*
X29135418Y106080709D01*
X28776582Y105721872D01*
X28776582Y107188000D01*
X28770268Y107252103D01*
X28751570Y107313743D01*
X28721206Y107370550D01*
X28680343Y107420343D01*
X28630550Y107461206D01*
X28573743Y107491570D01*
X28512103Y107510268D01*
X28448000Y107516582D01*
X26924000Y107516582D01*
X26859897Y107510268D01*
X26798257Y107491570D01*
X26741450Y107461206D01*
X26691657Y107420343D01*
X26650794Y107370550D01*
X26620430Y107313743D01*
X26601732Y107252103D01*
X26595418Y107188000D01*
X26595418Y106080707D01*
X26236582Y105721871D01*
X26236582Y107188000D01*
X26230268Y107252103D01*
X26211570Y107313743D01*
X26181206Y107370550D01*
X26140343Y107420343D01*
X26090550Y107461206D01*
X26033743Y107491570D01*
X25972103Y107510268D01*
X25908000Y107516582D01*
X24384000Y107516582D01*
X24319897Y107510268D01*
X24258257Y107491570D01*
X24201450Y107461206D01*
X24151657Y107420343D01*
X24110794Y107370550D01*
X24080430Y107313743D01*
X24061732Y107252103D01*
X24055418Y107188000D01*
X24055418Y106080707D01*
X23876134Y105901424D01*
X23874640Y105902650D01*
X23696582Y106080708D01*
X23696582Y107188000D01*
X23690268Y107252103D01*
X23671570Y107313743D01*
X23641206Y107370550D01*
X23600343Y107420343D01*
X23550550Y107461206D01*
X23493743Y107491570D01*
X23432103Y107510268D01*
X23368000Y107516582D01*
X21844000Y107516582D01*
X21779897Y107510268D01*
X21718257Y107491570D01*
X21661450Y107461206D01*
X21611657Y107420343D01*
X21570794Y107370550D01*
X21540430Y107313743D01*
X21521732Y107252103D01*
X21515418Y107188000D01*
X21515418Y105664000D01*
X21521732Y105599897D01*
X21540430Y105538257D01*
X21570794Y105481450D01*
X21611657Y105431657D01*
X21661450Y105390794D01*
X21718257Y105360430D01*
X21779897Y105341732D01*
X21844000Y105335418D01*
X22951292Y105335418D01*
X22993302Y105293408D01*
X22993302Y103081988D01*
X20739871Y105335418D01*
X20828000Y105335418D01*
X20892103Y105341732D01*
X20953743Y105360430D01*
X21010550Y105390794D01*
X21060343Y105431657D01*
X21101206Y105481450D01*
X21131570Y105538257D01*
X21150268Y105599897D01*
X21156582Y105664000D01*
X21156582Y107188000D01*
X21150268Y107252103D01*
X21131570Y107313743D01*
X21101206Y107370550D01*
X21060343Y107420343D01*
X21010550Y107461206D01*
X20953743Y107491570D01*
X20892103Y107510268D01*
X20828000Y107516582D01*
X19304000Y107516582D01*
X19239897Y107510268D01*
X19178257Y107491570D01*
X19121450Y107461206D01*
X19071657Y107420343D01*
X19030794Y107370550D01*
X19000430Y107313743D01*
X18981732Y107252103D01*
X18975418Y107188000D01*
X18975418Y105664000D01*
X18981732Y105599897D01*
X19000430Y105538257D01*
X19030794Y105481450D01*
X19071657Y105431657D01*
X19121450Y105390794D01*
X19178257Y105360430D01*
X19239897Y105341732D01*
X19304000Y105335418D01*
X19539001Y105335418D01*
X19539001Y105289890D01*
X19536451Y105264000D01*
X19546626Y105160691D01*
X19576761Y105061351D01*
X19625696Y104969799D01*
X19625697Y104969798D01*
X19691553Y104889552D01*
X19711662Y104873049D01*
X22393292Y102191418D01*
X22393291Y65810581D01*
X21825711Y65243000D01*
X21772397Y65243000D01*
X21631942Y65215062D01*
X21499636Y65160259D01*
X21380564Y65080698D01*
X21279302Y64979436D01*
X21199741Y64860364D01*
X21144938Y64728058D01*
X21117000Y64587603D01*
X21117000Y64444397D01*
X21144938Y64303942D01*
X21199741Y64171636D01*
X21279302Y64052564D01*
X21380564Y63951302D01*
X21499636Y63871741D01*
X21631942Y63816938D01*
X21772397Y63789000D01*
X21915603Y63789000D01*
X22056058Y63816938D01*
X22188364Y63871741D01*
X22307436Y63951302D01*
X22408698Y64052564D01*
X22488259Y64171636D01*
X22543062Y64303942D01*
X22571000Y64444397D01*
X22571000Y64497711D01*
X22993301Y64920011D01*
X22993301Y56936391D01*
X22702011Y56645100D01*
X22648697Y56645100D01*
X22508242Y56617162D01*
X22375936Y56562359D01*
X22323310Y56527196D01*
X22323310Y61294938D01*
X22424358Y61315038D01*
X22556664Y61369841D01*
X22675736Y61449402D01*
X22776998Y61550664D01*
X22856559Y61669736D01*
X22911362Y61802042D01*
X22939300Y61942497D01*
X22939300Y62085703D01*
X22911362Y62226158D01*
X22856559Y62358464D01*
X22776998Y62477536D01*
X22675736Y62578798D01*
X22556664Y62658359D01*
X22424358Y62713162D01*
X22283903Y62741100D01*
X22140697Y62741100D01*
X22000242Y62713162D01*
X21867936Y62658359D01*
X21748864Y62578798D01*
X21647602Y62477536D01*
X21568041Y62358464D01*
X21513238Y62226158D01*
X21485300Y62085703D01*
X21485300Y62066822D01*
X21481749Y62071149D01*
X21461645Y62087647D01*
X19332950Y64216341D01*
X19332946Y64216346D01*
X19269002Y64280290D01*
X19269002Y64333603D01*
X19241064Y64474058D01*
X19186261Y64606364D01*
X19106700Y64725436D01*
X19005438Y64826698D01*
X18886366Y64906259D01*
X18754060Y64961062D01*
X18613605Y64989000D01*
X18470399Y64989000D01*
X18329944Y64961062D01*
X18197638Y64906259D01*
X18078566Y64826698D01*
X17977304Y64725436D01*
X17897743Y64606364D01*
X17842940Y64474058D01*
X17815002Y64333603D01*
X17815002Y64190397D01*
X17842940Y64049942D01*
X17897743Y63917636D01*
X17977304Y63798564D01*
X18078566Y63697302D01*
X18197638Y63617741D01*
X18329944Y63562938D01*
X18470399Y63535000D01*
X18523712Y63535000D01*
X18587656Y63471056D01*
X18587661Y63471052D01*
X18615395Y63443318D01*
X18583942Y63437062D01*
X18451636Y63382259D01*
X18332564Y63302698D01*
X18231302Y63201436D01*
X18151741Y63082364D01*
X18096938Y62950058D01*
X18069000Y62809603D01*
X18069000Y62756291D01*
X14796664Y59483953D01*
X14776555Y59467450D01*
X14738970Y59421652D01*
X14710698Y59387203D01*
X14661763Y59295651D01*
X14631628Y59196311D01*
X14621453Y59093002D01*
X14624003Y59067111D01*
X14624003Y57858060D01*
X14624002Y57858054D01*
X14624002Y55740878D01*
X14624003Y54216879D01*
X14624003Y53439082D01*
X14568364Y53476259D01*
X14436058Y53531062D01*
X14295603Y53559000D01*
X14242290Y53559000D01*
X12880395Y54920894D01*
X12880395Y61558316D01*
X14005000Y60433710D01*
X14005000Y60380397D01*
X14032938Y60239942D01*
X14087741Y60107636D01*
X14167302Y59988564D01*
X14268564Y59887302D01*
X14387636Y59807741D01*
X14519942Y59752938D01*
X14660397Y59725000D01*
X14803603Y59725000D01*
X14944058Y59752938D01*
X15076364Y59807741D01*
X15195436Y59887302D01*
X15296698Y59988564D01*
X15376259Y60107636D01*
X15431062Y60239942D01*
X15459000Y60380397D01*
X15459000Y60487000D01*
X15565603Y60487000D01*
X15706058Y60514938D01*
X15838364Y60569741D01*
X15957436Y60649302D01*
X16058698Y60750564D01*
X16138259Y60869636D01*
X16193062Y61001942D01*
X16221000Y61142397D01*
X16221000Y61285603D01*
X16193062Y61426058D01*
X16138259Y61558364D01*
X16058698Y61677436D01*
X15957436Y61778698D01*
X15838364Y61858259D01*
X15706058Y61913062D01*
X15565603Y61941000D01*
X15512290Y61941000D01*
X14081010Y63372279D01*
X14081010Y66446904D01*
X14133636Y66411741D01*
X14265942Y66356938D01*
X14406397Y66329000D01*
X14549603Y66329000D01*
X14690058Y66356938D01*
X14822364Y66411741D01*
X14941436Y66491302D01*
X15042698Y66592564D01*
X15122259Y66711636D01*
X15177062Y66843942D01*
X15205000Y66984397D01*
X15205000Y67037710D01*
X15232338Y67065048D01*
X15252447Y67081551D01*
X15318303Y67161797D01*
X15345463Y67212611D01*
X15403636Y67173741D01*
X15535942Y67118938D01*
X15676397Y67091000D01*
X15819603Y67091000D01*
X15960058Y67118938D01*
X16092364Y67173741D01*
X16211436Y67253302D01*
X16312698Y67354564D01*
X16392259Y67473636D01*
X16447062Y67605942D01*
X16475000Y67746397D01*
X16475000Y67799710D01*
X16502338Y67827048D01*
X16522447Y67843551D01*
X16588303Y67923797D01*
X16637238Y68015349D01*
X16667373Y68114689D01*
X16674999Y68192118D01*
X16674999Y68192119D01*
X16677548Y68217998D01*
X16674999Y68243879D01*
X16674999Y94611321D01*
X17473000Y94611321D01*
X17473000Y94300679D01*
X17533604Y93996006D01*
X17652481Y93709011D01*
X17825064Y93450721D01*
X18044721Y93231064D01*
X18303011Y93058481D01*
X18590006Y92939604D01*
X18894679Y92879000D01*
X19205321Y92879000D01*
X19509994Y92939604D01*
X19796989Y93058481D01*
X20055279Y93231064D01*
X20274936Y93450721D01*
X20447519Y93709011D01*
X20566396Y93996006D01*
X20627000Y94300679D01*
X20627000Y94611321D01*
X20566396Y94915994D01*
X20447519Y95202989D01*
X20274936Y95461279D01*
X20055279Y95680936D01*
X19796989Y95853519D01*
X19509994Y95972396D01*
X19205321Y96033000D01*
X18894679Y96033000D01*
X18590006Y95972396D01*
X18303011Y95853519D01*
X18044721Y95680936D01*
X17825064Y95461279D01*
X17652481Y95202989D01*
X17533604Y94915994D01*
X17473000Y94611321D01*
X16674999Y94611321D01*
X16674999Y95412124D01*
X16677548Y95438002D01*
X16672241Y95491882D01*
X16667373Y95541311D01*
X16637238Y95640651D01*
X16588303Y95732203D01*
X16522447Y95812449D01*
X16502338Y95828952D01*
X14361871Y97969418D01*
X15748000Y97969418D01*
X15812103Y97975732D01*
X15873743Y97994430D01*
X15930550Y98024794D01*
X15980343Y98065657D01*
X16021206Y98115450D01*
X16051570Y98172257D01*
X16070268Y98233897D01*
X16076582Y98298000D01*
X16076582Y99822000D01*
X16070268Y99886103D01*
X16051570Y99947743D01*
X16021206Y100004550D01*
X15980343Y100054343D01*
X15930550Y100095206D01*
X15873743Y100125570D01*
X15812103Y100144268D01*
X15748000Y100150582D01*
X14350999Y100150582D01*
X14350999Y100196124D01*
X14353548Y100222002D01*
X14350999Y100247882D01*
X14343373Y100325311D01*
X14313238Y100424651D01*
X14267930Y100509418D01*
X15748000Y100509418D01*
X15812103Y100515732D01*
X15873743Y100534430D01*
X15930550Y100564794D01*
X15980343Y100605657D01*
X16021206Y100655450D01*
X16051570Y100712257D01*
X16070268Y100773897D01*
X16076582Y100838000D01*
X16076582Y102362000D01*
X16070268Y102426103D01*
X16051570Y102487743D01*
X16021206Y102544550D01*
X15980343Y102594343D01*
X15930550Y102635206D01*
X15873743Y102665570D01*
X15812103Y102684268D01*
X15748000Y102690582D01*
X14224000Y102690582D01*
X14159897Y102684268D01*
X14098257Y102665570D01*
X14041450Y102635206D01*
X13991657Y102594343D01*
X13950794Y102544550D01*
X13920430Y102487743D01*
X13901732Y102426103D01*
X13895418Y102362000D01*
X13895418Y100895873D01*
X13536582Y101254708D01*
X13536582Y102362000D01*
X13530268Y102426103D01*
X13511570Y102487743D01*
X13481206Y102544550D01*
X13440343Y102594343D01*
X13390550Y102635206D01*
X13333743Y102665570D01*
X13272103Y102684268D01*
X13208000Y102690582D01*
X11684000Y102690582D01*
X11619897Y102684268D01*
X11558257Y102665570D01*
X11501450Y102635206D01*
X11451657Y102594343D01*
X11410794Y102544550D01*
X11380430Y102487743D01*
X11361732Y102426103D01*
X11355418Y102362000D01*
X11355418Y100838000D01*
X11361732Y100773897D01*
X11380430Y100712257D01*
X11410794Y100655450D01*
X11451657Y100605657D01*
X11501450Y100564794D01*
X11558257Y100534430D01*
X11619897Y100515732D01*
X11684000Y100509418D01*
X12791292Y100509418D01*
X13150127Y100150582D01*
X11684000Y100150582D01*
X11619897Y100144268D01*
X11558257Y100125570D01*
X11501450Y100095206D01*
X11451657Y100054343D01*
X11410794Y100004550D01*
X11380430Y99947743D01*
X11361732Y99886103D01*
X11355418Y99822000D01*
X11355418Y98298000D01*
X11361732Y98233897D01*
X11380430Y98172257D01*
X11410794Y98115450D01*
X11451657Y98065657D01*
X11501450Y98024794D01*
X11558257Y97994430D01*
X11619897Y97975732D01*
X11684000Y97969418D01*
X11919000Y97969418D01*
X11919000Y97923881D01*
X11916451Y97898000D01*
X11919000Y97872120D01*
X11926626Y97794691D01*
X11956761Y97695351D01*
X12005696Y97603798D01*
X12071552Y97523552D01*
X12091666Y97507045D01*
X14351000Y95247710D01*
X14350999Y85210119D01*
X14351000Y85210109D01*
X14350999Y83178119D01*
X14351000Y83178109D01*
X14350999Y81908119D01*
X14351000Y81908109D01*
X14351000Y81391781D01*
X14314366Y81416259D01*
X14182060Y81471062D01*
X14041605Y81499000D01*
X13898399Y81499000D01*
X13757944Y81471062D01*
X13625638Y81416259D01*
X13506566Y81336698D01*
X13405304Y81235436D01*
X13325743Y81116364D01*
X13317392Y81096202D01*
X13316497Y81096800D01*
X13184191Y81151603D01*
X13043736Y81179541D01*
X12900530Y81179541D01*
X12760075Y81151603D01*
X12627769Y81096800D01*
X12508697Y81017239D01*
X12407435Y80915977D01*
X12327874Y80796905D01*
X12273071Y80664599D01*
X12245133Y80524144D01*
X12245133Y80386637D01*
X12141337Y80365991D01*
X12009031Y80311188D01*
X11889959Y80231627D01*
X11788697Y80130365D01*
X11709136Y80011293D01*
X11654333Y79878987D01*
X11626395Y79738532D01*
X11626395Y79595326D01*
X11654333Y79454871D01*
X11709136Y79322565D01*
X11788697Y79203493D01*
X11826395Y79165795D01*
X11826395Y79075364D01*
X11826396Y79075354D01*
X11826396Y75539493D01*
X11774364Y75574259D01*
X11642058Y75629062D01*
X11501603Y75657000D01*
X11358397Y75657000D01*
X11217942Y75629062D01*
X11085636Y75574259D01*
X10966564Y75494698D01*
X10865302Y75393436D01*
X10785741Y75274364D01*
X10730938Y75142058D01*
X10703000Y75001603D01*
X202000Y75001603D01*
X202000Y99822000D01*
X6275418Y99822000D01*
X6275418Y98298000D01*
X6281732Y98233897D01*
X6300430Y98172257D01*
X6330794Y98115450D01*
X6371657Y98065657D01*
X6421450Y98024794D01*
X6478257Y97994430D01*
X6539897Y97975732D01*
X6604000Y97969418D01*
X8128000Y97969418D01*
X8192103Y97975732D01*
X8253743Y97994430D01*
X8310550Y98024794D01*
X8360343Y98065657D01*
X8401206Y98115450D01*
X8431570Y98172257D01*
X8450268Y98233897D01*
X8456582Y98298000D01*
X8456582Y99822000D01*
X8815418Y99822000D01*
X8815418Y98298000D01*
X8821732Y98233897D01*
X8840430Y98172257D01*
X8870794Y98115450D01*
X8911657Y98065657D01*
X8961450Y98024794D01*
X9018257Y97994430D01*
X9079897Y97975732D01*
X9144000Y97969418D01*
X10668000Y97969418D01*
X10732103Y97975732D01*
X10793743Y97994430D01*
X10850550Y98024794D01*
X10900343Y98065657D01*
X10941206Y98115450D01*
X10971570Y98172257D01*
X10990268Y98233897D01*
X10996582Y98298000D01*
X10996582Y99822000D01*
X10990268Y99886103D01*
X10971570Y99947743D01*
X10941206Y100004550D01*
X10900343Y100054343D01*
X10850550Y100095206D01*
X10793743Y100125570D01*
X10732103Y100144268D01*
X10668000Y100150582D01*
X9144000Y100150582D01*
X9079897Y100144268D01*
X9018257Y100125570D01*
X8961450Y100095206D01*
X8911657Y100054343D01*
X8870794Y100004550D01*
X8840430Y99947743D01*
X8821732Y99886103D01*
X8815418Y99822000D01*
X8456582Y99822000D01*
X8450268Y99886103D01*
X8431570Y99947743D01*
X8401206Y100004550D01*
X8360343Y100054343D01*
X8310550Y100095206D01*
X8253743Y100125570D01*
X8192103Y100144268D01*
X8128000Y100150582D01*
X6604000Y100150582D01*
X6539897Y100144268D01*
X6478257Y100125570D01*
X6421450Y100095206D01*
X6371657Y100054343D01*
X6330794Y100004550D01*
X6300430Y99947743D01*
X6281732Y99886103D01*
X6275418Y99822000D01*
X202000Y99822000D01*
X202000Y102362000D01*
X6275418Y102362000D01*
X6275418Y100838000D01*
X6281732Y100773897D01*
X6300430Y100712257D01*
X6330794Y100655450D01*
X6371657Y100605657D01*
X6421450Y100564794D01*
X6478257Y100534430D01*
X6539897Y100515732D01*
X6604000Y100509418D01*
X8128000Y100509418D01*
X8192103Y100515732D01*
X8253743Y100534430D01*
X8310550Y100564794D01*
X8360343Y100605657D01*
X8401206Y100655450D01*
X8431570Y100712257D01*
X8450268Y100773897D01*
X8456582Y100838000D01*
X8456582Y102362000D01*
X8815418Y102362000D01*
X8815418Y100838000D01*
X8821732Y100773897D01*
X8840430Y100712257D01*
X8870794Y100655450D01*
X8911657Y100605657D01*
X8961450Y100564794D01*
X9018257Y100534430D01*
X9079897Y100515732D01*
X9144000Y100509418D01*
X10668000Y100509418D01*
X10732103Y100515732D01*
X10793743Y100534430D01*
X10850550Y100564794D01*
X10900343Y100605657D01*
X10941206Y100655450D01*
X10971570Y100712257D01*
X10990268Y100773897D01*
X10996582Y100838000D01*
X10996582Y102362000D01*
X10990268Y102426103D01*
X10971570Y102487743D01*
X10941206Y102544550D01*
X10900343Y102594343D01*
X10850550Y102635206D01*
X10793743Y102665570D01*
X10732103Y102684268D01*
X10668000Y102690582D01*
X9144000Y102690582D01*
X9079897Y102684268D01*
X9018257Y102665570D01*
X8961450Y102635206D01*
X8911657Y102594343D01*
X8870794Y102544550D01*
X8840430Y102487743D01*
X8821732Y102426103D01*
X8815418Y102362000D01*
X8456582Y102362000D01*
X8450268Y102426103D01*
X8431570Y102487743D01*
X8401206Y102544550D01*
X8360343Y102594343D01*
X8310550Y102635206D01*
X8253743Y102665570D01*
X8192103Y102684268D01*
X8128000Y102690582D01*
X6604000Y102690582D01*
X6539897Y102684268D01*
X6478257Y102665570D01*
X6421450Y102635206D01*
X6371657Y102594343D01*
X6330794Y102544550D01*
X6300430Y102487743D01*
X6281732Y102426103D01*
X6275418Y102362000D01*
X202000Y102362000D01*
X202000Y109798000D01*
X37798000Y109798000D01*
X37798001Y202000D01*
G36*
X37798000Y110202000D02*
G01*
X202000Y110202000D01*
X202000Y132984000D01*
X7915000Y132984000D01*
X7915000Y132762000D01*
X7958310Y132544266D01*
X8043266Y132339165D01*
X8166602Y132154579D01*
X8323579Y131997602D01*
X8508165Y131874266D01*
X8713266Y131789310D01*
X8931000Y131746000D01*
X9153000Y131746000D01*
X9370734Y131789310D01*
X9575835Y131874266D01*
X9760421Y131997602D01*
X9917398Y132154579D01*
X10040734Y132339165D01*
X10125690Y132544266D01*
X10169000Y132762000D01*
X10169000Y132959377D01*
X29165000Y132959377D01*
X29165000Y132786623D01*
X29198703Y132617189D01*
X29264813Y132457585D01*
X29360790Y132313945D01*
X29482945Y132191790D01*
X29626585Y132095813D01*
X29786189Y132029703D01*
X29955623Y131996000D01*
X30128377Y131996000D01*
X30297811Y132029703D01*
X30457415Y132095813D01*
X30601055Y132191790D01*
X30723210Y132313945D01*
X30819187Y132457585D01*
X30885297Y132617189D01*
X30919000Y132786623D01*
X30919000Y132959377D01*
X30885297Y133128811D01*
X30819187Y133288415D01*
X30723210Y133432055D01*
X30601055Y133554210D01*
X30457415Y133650187D01*
X30297811Y133716297D01*
X30128377Y133750000D01*
X29955623Y133750000D01*
X29786189Y133716297D01*
X29626585Y133650187D01*
X29482945Y133554210D01*
X29360790Y133432055D01*
X29264813Y133288415D01*
X29198703Y133128811D01*
X29165000Y132959377D01*
X10169000Y132959377D01*
X10169000Y132984000D01*
X10125690Y133201734D01*
X10040734Y133406835D01*
X9917398Y133591421D01*
X9760421Y133748398D01*
X9575835Y133871734D01*
X9370734Y133956690D01*
X9153000Y134000000D01*
X8931000Y134000000D01*
X8713266Y133956690D01*
X8508165Y133871734D01*
X8323579Y133748398D01*
X8166602Y133591421D01*
X8043266Y133406835D01*
X7958310Y133201734D01*
X7915000Y132984000D01*
X202000Y132984000D01*
X202000Y142311603D01*
X19085000Y142311603D01*
X19085000Y142168397D01*
X19112938Y142027942D01*
X19167741Y141895636D01*
X19247302Y141776564D01*
X19348564Y141675302D01*
X19467636Y141595741D01*
X19599942Y141540938D01*
X19740397Y141513000D01*
X19883603Y141513000D01*
X20024058Y141540938D01*
X20156364Y141595741D01*
X20182194Y141613000D01*
X27239206Y141613000D01*
X27270000Y141609967D01*
X27300794Y141613000D01*
X27392913Y141622073D01*
X27511103Y141657925D01*
X27620028Y141716147D01*
X27715501Y141794499D01*
X27735138Y141818427D01*
X30647579Y144730867D01*
X30671501Y144750499D01*
X30749853Y144845972D01*
X30808075Y144954897D01*
X30843927Y145073087D01*
X30853000Y145165206D01*
X30853000Y145165207D01*
X30856033Y145195999D01*
X30853000Y145226791D01*
X30853000Y145467418D01*
X30988000Y145467418D01*
X31052103Y145473732D01*
X31113743Y145492430D01*
X31170550Y145522794D01*
X31220343Y145563657D01*
X31261206Y145613450D01*
X31291570Y145670257D01*
X31310268Y145731897D01*
X31316582Y145796000D01*
X31316582Y147320000D01*
X31310268Y147384103D01*
X31291570Y147445743D01*
X31261206Y147502550D01*
X31220343Y147552343D01*
X31170550Y147593206D01*
X31113743Y147623570D01*
X31052103Y147642268D01*
X30988000Y147648582D01*
X29464000Y147648582D01*
X29399897Y147642268D01*
X29338257Y147623570D01*
X29281450Y147593206D01*
X29231657Y147552343D01*
X29190794Y147502550D01*
X29160430Y147445743D01*
X29141732Y147384103D01*
X29135418Y147320000D01*
X29135418Y145796000D01*
X29141732Y145731897D01*
X29160430Y145670257D01*
X29190794Y145613450D01*
X29231657Y145563657D01*
X29281450Y145522794D01*
X29338257Y145492430D01*
X29399897Y145473732D01*
X29464000Y145467418D01*
X29599000Y145467418D01*
X29599000Y145455712D01*
X27010289Y142867000D01*
X20182194Y142867000D01*
X20156364Y142884259D01*
X20024058Y142939062D01*
X19883603Y142967000D01*
X19740397Y142967000D01*
X19599942Y142939062D01*
X19467636Y142884259D01*
X19348564Y142804698D01*
X19247302Y142703436D01*
X19167741Y142584364D01*
X19112938Y142452058D01*
X19085000Y142311603D01*
X202000Y142311603D01*
X202000Y147320000D01*
X18975418Y147320000D01*
X18975418Y145796000D01*
X18981732Y145731897D01*
X19000430Y145670257D01*
X19030794Y145613450D01*
X19071657Y145563657D01*
X19121450Y145522794D01*
X19178257Y145492430D01*
X19239897Y145473732D01*
X19304000Y145467418D01*
X20828000Y145467418D01*
X20892103Y145473732D01*
X20953743Y145492430D01*
X21010550Y145522794D01*
X21060343Y145563657D01*
X21101206Y145613450D01*
X21131570Y145670257D01*
X21150268Y145731897D01*
X21156582Y145796000D01*
X21156582Y147320000D01*
X21515418Y147320000D01*
X21515418Y145796000D01*
X21521732Y145731897D01*
X21540430Y145670257D01*
X21570794Y145613450D01*
X21611657Y145563657D01*
X21661450Y145522794D01*
X21718257Y145492430D01*
X21779897Y145473732D01*
X21844000Y145467418D01*
X23368000Y145467418D01*
X23432103Y145473732D01*
X23493743Y145492430D01*
X23550550Y145522794D01*
X23600343Y145563657D01*
X23641206Y145613450D01*
X23671570Y145670257D01*
X23690268Y145731897D01*
X23696582Y145796000D01*
X23696582Y147320000D01*
X24055418Y147320000D01*
X24055418Y145796000D01*
X24061732Y145731897D01*
X24080430Y145670257D01*
X24110794Y145613450D01*
X24151657Y145563657D01*
X24201450Y145522794D01*
X24258257Y145492430D01*
X24319897Y145473732D01*
X24384000Y145467418D01*
X25908000Y145467418D01*
X25972103Y145473732D01*
X26033743Y145492430D01*
X26090550Y145522794D01*
X26140343Y145563657D01*
X26181206Y145613450D01*
X26211570Y145670257D01*
X26230268Y145731897D01*
X26236582Y145796000D01*
X26236582Y147320000D01*
X26595418Y147320000D01*
X26595418Y145796000D01*
X26601732Y145731897D01*
X26620430Y145670257D01*
X26650794Y145613450D01*
X26691657Y145563657D01*
X26741450Y145522794D01*
X26798257Y145492430D01*
X26859897Y145473732D01*
X26924000Y145467418D01*
X28448000Y145467418D01*
X28512103Y145473732D01*
X28573743Y145492430D01*
X28630550Y145522794D01*
X28680343Y145563657D01*
X28721206Y145613450D01*
X28751570Y145670257D01*
X28770268Y145731897D01*
X28776582Y145796000D01*
X28776582Y147320000D01*
X28770268Y147384103D01*
X28751570Y147445743D01*
X28721206Y147502550D01*
X28680343Y147552343D01*
X28630550Y147593206D01*
X28573743Y147623570D01*
X28512103Y147642268D01*
X28448000Y147648582D01*
X26924000Y147648582D01*
X26859897Y147642268D01*
X26798257Y147623570D01*
X26741450Y147593206D01*
X26691657Y147552343D01*
X26650794Y147502550D01*
X26620430Y147445743D01*
X26601732Y147384103D01*
X26595418Y147320000D01*
X26236582Y147320000D01*
X26230268Y147384103D01*
X26211570Y147445743D01*
X26181206Y147502550D01*
X26140343Y147552343D01*
X26090550Y147593206D01*
X26033743Y147623570D01*
X25972103Y147642268D01*
X25908000Y147648582D01*
X24384000Y147648582D01*
X24319897Y147642268D01*
X24258257Y147623570D01*
X24201450Y147593206D01*
X24151657Y147552343D01*
X24110794Y147502550D01*
X24080430Y147445743D01*
X24061732Y147384103D01*
X24055418Y147320000D01*
X23696582Y147320000D01*
X23690268Y147384103D01*
X23671570Y147445743D01*
X23641206Y147502550D01*
X23600343Y147552343D01*
X23550550Y147593206D01*
X23493743Y147623570D01*
X23432103Y147642268D01*
X23368000Y147648582D01*
X21844000Y147648582D01*
X21779897Y147642268D01*
X21718257Y147623570D01*
X21661450Y147593206D01*
X21611657Y147552343D01*
X21570794Y147502550D01*
X21540430Y147445743D01*
X21521732Y147384103D01*
X21515418Y147320000D01*
X21156582Y147320000D01*
X21150268Y147384103D01*
X21131570Y147445743D01*
X21101206Y147502550D01*
X21060343Y147552343D01*
X21010550Y147593206D01*
X20953743Y147623570D01*
X20892103Y147642268D01*
X20828000Y147648582D01*
X19304000Y147648582D01*
X19239897Y147642268D01*
X19178257Y147623570D01*
X19121450Y147593206D01*
X19071657Y147552343D01*
X19030794Y147502550D01*
X19000430Y147445743D01*
X18981732Y147384103D01*
X18975418Y147320000D01*
X202000Y147320000D01*
X202000Y149798000D01*
X37798000Y149798000D01*
X37798000Y110202000D01*
X37798000Y110202000D01*
G37*
X37798000Y110202000D02*
X202000Y110202000D01*
X202000Y132984000D01*
X7915000Y132984000D01*
X7915000Y132762000D01*
X7958310Y132544266D01*
X8043266Y132339165D01*
X8166602Y132154579D01*
X8323579Y131997602D01*
X8508165Y131874266D01*
X8713266Y131789310D01*
X8931000Y131746000D01*
X9153000Y131746000D01*
X9370734Y131789310D01*
X9575835Y131874266D01*
X9760421Y131997602D01*
X9917398Y132154579D01*
X10040734Y132339165D01*
X10125690Y132544266D01*
X10169000Y132762000D01*
X10169000Y132959377D01*
X29165000Y132959377D01*
X29165000Y132786623D01*
X29198703Y132617189D01*
X29264813Y132457585D01*
X29360790Y132313945D01*
X29482945Y132191790D01*
X29626585Y132095813D01*
X29786189Y132029703D01*
X29955623Y131996000D01*
X30128377Y131996000D01*
X30297811Y132029703D01*
X30457415Y132095813D01*
X30601055Y132191790D01*
X30723210Y132313945D01*
X30819187Y132457585D01*
X30885297Y132617189D01*
X30919000Y132786623D01*
X30919000Y132959377D01*
X30885297Y133128811D01*
X30819187Y133288415D01*
X30723210Y133432055D01*
X30601055Y133554210D01*
X30457415Y133650187D01*
X30297811Y133716297D01*
X30128377Y133750000D01*
X29955623Y133750000D01*
X29786189Y133716297D01*
X29626585Y133650187D01*
X29482945Y133554210D01*
X29360790Y133432055D01*
X29264813Y133288415D01*
X29198703Y133128811D01*
X29165000Y132959377D01*
X10169000Y132959377D01*
X10169000Y132984000D01*
X10125690Y133201734D01*
X10040734Y133406835D01*
X9917398Y133591421D01*
X9760421Y133748398D01*
X9575835Y133871734D01*
X9370734Y133956690D01*
X9153000Y134000000D01*
X8931000Y134000000D01*
X8713266Y133956690D01*
X8508165Y133871734D01*
X8323579Y133748398D01*
X8166602Y133591421D01*
X8043266Y133406835D01*
X7958310Y133201734D01*
X7915000Y132984000D01*
X202000Y132984000D01*
X202000Y142311603D01*
X19085000Y142311603D01*
X19085000Y142168397D01*
X19112938Y142027942D01*
X19167741Y141895636D01*
X19247302Y141776564D01*
X19348564Y141675302D01*
X19467636Y141595741D01*
X19599942Y141540938D01*
X19740397Y141513000D01*
X19883603Y141513000D01*
X20024058Y141540938D01*
X20156364Y141595741D01*
X20182194Y141613000D01*
X27239206Y141613000D01*
X27270000Y141609967D01*
X27300794Y141613000D01*
X27392913Y141622073D01*
X27511103Y141657925D01*
X27620028Y141716147D01*
X27715501Y141794499D01*
X27735138Y141818427D01*
X30647579Y144730867D01*
X30671501Y144750499D01*
X30749853Y144845972D01*
X30808075Y144954897D01*
X30843927Y145073087D01*
X30853000Y145165206D01*
X30853000Y145165207D01*
X30856033Y145195999D01*
X30853000Y145226791D01*
X30853000Y145467418D01*
X30988000Y145467418D01*
X31052103Y145473732D01*
X31113743Y145492430D01*
X31170550Y145522794D01*
X31220343Y145563657D01*
X31261206Y145613450D01*
X31291570Y145670257D01*
X31310268Y145731897D01*
X31316582Y145796000D01*
X31316582Y147320000D01*
X31310268Y147384103D01*
X31291570Y147445743D01*
X31261206Y147502550D01*
X31220343Y147552343D01*
X31170550Y147593206D01*
X31113743Y147623570D01*
X31052103Y147642268D01*
X30988000Y147648582D01*
X29464000Y147648582D01*
X29399897Y147642268D01*
X29338257Y147623570D01*
X29281450Y147593206D01*
X29231657Y147552343D01*
X29190794Y147502550D01*
X29160430Y147445743D01*
X29141732Y147384103D01*
X29135418Y147320000D01*
X29135418Y145796000D01*
X29141732Y145731897D01*
X29160430Y145670257D01*
X29190794Y145613450D01*
X29231657Y145563657D01*
X29281450Y145522794D01*
X29338257Y145492430D01*
X29399897Y145473732D01*
X29464000Y145467418D01*
X29599000Y145467418D01*
X29599000Y145455712D01*
X27010289Y142867000D01*
X20182194Y142867000D01*
X20156364Y142884259D01*
X20024058Y142939062D01*
X19883603Y142967000D01*
X19740397Y142967000D01*
X19599942Y142939062D01*
X19467636Y142884259D01*
X19348564Y142804698D01*
X19247302Y142703436D01*
X19167741Y142584364D01*
X19112938Y142452058D01*
X19085000Y142311603D01*
X202000Y142311603D01*
X202000Y147320000D01*
X18975418Y147320000D01*
X18975418Y145796000D01*
X18981732Y145731897D01*
X19000430Y145670257D01*
X19030794Y145613450D01*
X19071657Y145563657D01*
X19121450Y145522794D01*
X19178257Y145492430D01*
X19239897Y145473732D01*
X19304000Y145467418D01*
X20828000Y145467418D01*
X20892103Y145473732D01*
X20953743Y145492430D01*
X21010550Y145522794D01*
X21060343Y145563657D01*
X21101206Y145613450D01*
X21131570Y145670257D01*
X21150268Y145731897D01*
X21156582Y145796000D01*
X21156582Y147320000D01*
X21515418Y147320000D01*
X21515418Y145796000D01*
X21521732Y145731897D01*
X21540430Y145670257D01*
X21570794Y145613450D01*
X21611657Y145563657D01*
X21661450Y145522794D01*
X21718257Y145492430D01*
X21779897Y145473732D01*
X21844000Y145467418D01*
X23368000Y145467418D01*
X23432103Y145473732D01*
X23493743Y145492430D01*
X23550550Y145522794D01*
X23600343Y145563657D01*
X23641206Y145613450D01*
X23671570Y145670257D01*
X23690268Y145731897D01*
X23696582Y145796000D01*
X23696582Y147320000D01*
X24055418Y147320000D01*
X24055418Y145796000D01*
X24061732Y145731897D01*
X24080430Y145670257D01*
X24110794Y145613450D01*
X24151657Y145563657D01*
X24201450Y145522794D01*
X24258257Y145492430D01*
X24319897Y145473732D01*
X24384000Y145467418D01*
X25908000Y145467418D01*
X25972103Y145473732D01*
X26033743Y145492430D01*
X26090550Y145522794D01*
X26140343Y145563657D01*
X26181206Y145613450D01*
X26211570Y145670257D01*
X26230268Y145731897D01*
X26236582Y145796000D01*
X26236582Y147320000D01*
X26595418Y147320000D01*
X26595418Y145796000D01*
X26601732Y145731897D01*
X26620430Y145670257D01*
X26650794Y145613450D01*
X26691657Y145563657D01*
X26741450Y145522794D01*
X26798257Y145492430D01*
X26859897Y145473732D01*
X26924000Y145467418D01*
X28448000Y145467418D01*
X28512103Y145473732D01*
X28573743Y145492430D01*
X28630550Y145522794D01*
X28680343Y145563657D01*
X28721206Y145613450D01*
X28751570Y145670257D01*
X28770268Y145731897D01*
X28776582Y145796000D01*
X28776582Y147320000D01*
X28770268Y147384103D01*
X28751570Y147445743D01*
X28721206Y147502550D01*
X28680343Y147552343D01*
X28630550Y147593206D01*
X28573743Y147623570D01*
X28512103Y147642268D01*
X28448000Y147648582D01*
X26924000Y147648582D01*
X26859897Y147642268D01*
X26798257Y147623570D01*
X26741450Y147593206D01*
X26691657Y147552343D01*
X26650794Y147502550D01*
X26620430Y147445743D01*
X26601732Y147384103D01*
X26595418Y147320000D01*
X26236582Y147320000D01*
X26230268Y147384103D01*
X26211570Y147445743D01*
X26181206Y147502550D01*
X26140343Y147552343D01*
X26090550Y147593206D01*
X26033743Y147623570D01*
X25972103Y147642268D01*
X25908000Y147648582D01*
X24384000Y147648582D01*
X24319897Y147642268D01*
X24258257Y147623570D01*
X24201450Y147593206D01*
X24151657Y147552343D01*
X24110794Y147502550D01*
X24080430Y147445743D01*
X24061732Y147384103D01*
X24055418Y147320000D01*
X23696582Y147320000D01*
X23690268Y147384103D01*
X23671570Y147445743D01*
X23641206Y147502550D01*
X23600343Y147552343D01*
X23550550Y147593206D01*
X23493743Y147623570D01*
X23432103Y147642268D01*
X23368000Y147648582D01*
X21844000Y147648582D01*
X21779897Y147642268D01*
X21718257Y147623570D01*
X21661450Y147593206D01*
X21611657Y147552343D01*
X21570794Y147502550D01*
X21540430Y147445743D01*
X21521732Y147384103D01*
X21515418Y147320000D01*
X21156582Y147320000D01*
X21150268Y147384103D01*
X21131570Y147445743D01*
X21101206Y147502550D01*
X21060343Y147552343D01*
X21010550Y147593206D01*
X20953743Y147623570D01*
X20892103Y147642268D01*
X20828000Y147648582D01*
X19304000Y147648582D01*
X19239897Y147642268D01*
X19178257Y147623570D01*
X19121450Y147593206D01*
X19071657Y147552343D01*
X19030794Y147502550D01*
X19000430Y147445743D01*
X18981732Y147384103D01*
X18975418Y147320000D01*
X202000Y147320000D01*
X202000Y149798000D01*
X37798000Y149798000D01*
X37798000Y110202000D01*
G36*
X37798000Y150202000D02*
G01*
X202000Y150202000D01*
X202000Y192095603D01*
X22641000Y192095603D01*
X22641000Y191952397D01*
X22668938Y191811942D01*
X22723741Y191679636D01*
X22803302Y191560564D01*
X22904564Y191459302D01*
X23023636Y191379741D01*
X23155942Y191324938D01*
X23296397Y191297000D01*
X23439603Y191297000D01*
X23580058Y191324938D01*
X23712364Y191379741D01*
X23738194Y191397000D01*
X26985206Y191397000D01*
X27016000Y191393967D01*
X27046794Y191397000D01*
X27138913Y191406073D01*
X27257103Y191441925D01*
X27366028Y191500147D01*
X27461501Y191578499D01*
X27481138Y191602427D01*
X30647573Y194768862D01*
X30671501Y194788499D01*
X30749853Y194883972D01*
X30808075Y194992896D01*
X30843927Y195111087D01*
X30856033Y195234000D01*
X30853000Y195264794D01*
X30853000Y195505418D01*
X30988000Y195505418D01*
X31052103Y195511732D01*
X31113743Y195530430D01*
X31170550Y195560794D01*
X31220343Y195601657D01*
X31261206Y195651450D01*
X31291570Y195708257D01*
X31310268Y195769897D01*
X31316582Y195834000D01*
X31316582Y197358000D01*
X31310268Y197422103D01*
X31291570Y197483743D01*
X31261206Y197540550D01*
X31220343Y197590343D01*
X31170550Y197631206D01*
X31113743Y197661570D01*
X31052103Y197680268D01*
X30988000Y197686582D01*
X29464000Y197686582D01*
X29399897Y197680268D01*
X29338257Y197661570D01*
X29281450Y197631206D01*
X29231657Y197590343D01*
X29190794Y197540550D01*
X29160430Y197483743D01*
X29141732Y197422103D01*
X29135418Y197358000D01*
X29135418Y195834000D01*
X29141732Y195769897D01*
X29160430Y195708257D01*
X29190794Y195651450D01*
X29231657Y195601657D01*
X29281450Y195560794D01*
X29338257Y195530430D01*
X29399897Y195511732D01*
X29464000Y195505418D01*
X29599001Y195505418D01*
X29599001Y195493712D01*
X26756289Y192651000D01*
X23738194Y192651000D01*
X23712364Y192668259D01*
X23580058Y192723062D01*
X23439603Y192751000D01*
X23296397Y192751000D01*
X23155942Y192723062D01*
X23023636Y192668259D01*
X22904564Y192588698D01*
X22803302Y192487436D01*
X22723741Y192368364D01*
X22668938Y192236058D01*
X22641000Y192095603D01*
X202000Y192095603D01*
X202000Y197358000D01*
X18975418Y197358000D01*
X18975418Y195834000D01*
X18981732Y195769897D01*
X19000430Y195708257D01*
X19030794Y195651450D01*
X19071657Y195601657D01*
X19121450Y195560794D01*
X19178257Y195530430D01*
X19239897Y195511732D01*
X19304000Y195505418D01*
X20828000Y195505418D01*
X20892103Y195511732D01*
X20953743Y195530430D01*
X21010550Y195560794D01*
X21060343Y195601657D01*
X21101206Y195651450D01*
X21131570Y195708257D01*
X21150268Y195769897D01*
X21156582Y195834000D01*
X21156582Y197358000D01*
X21515418Y197358000D01*
X21515418Y195834000D01*
X21521732Y195769897D01*
X21540430Y195708257D01*
X21570794Y195651450D01*
X21611657Y195601657D01*
X21661450Y195560794D01*
X21718257Y195530430D01*
X21779897Y195511732D01*
X21844000Y195505418D01*
X23368000Y195505418D01*
X23432103Y195511732D01*
X23493743Y195530430D01*
X23550550Y195560794D01*
X23600343Y195601657D01*
X23641206Y195651450D01*
X23671570Y195708257D01*
X23690268Y195769897D01*
X23696582Y195834000D01*
X23696582Y197358000D01*
X24055418Y197358000D01*
X24055418Y195834000D01*
X24061732Y195769897D01*
X24080430Y195708257D01*
X24110794Y195651450D01*
X24151657Y195601657D01*
X24201450Y195560794D01*
X24258257Y195530430D01*
X24319897Y195511732D01*
X24384000Y195505418D01*
X25908000Y195505418D01*
X25972103Y195511732D01*
X26033743Y195530430D01*
X26090550Y195560794D01*
X26140343Y195601657D01*
X26181206Y195651450D01*
X26211570Y195708257D01*
X26230268Y195769897D01*
X26236582Y195834000D01*
X26236582Y197358000D01*
X26595418Y197358000D01*
X26595418Y195834000D01*
X26601732Y195769897D01*
X26620430Y195708257D01*
X26650794Y195651450D01*
X26691657Y195601657D01*
X26741450Y195560794D01*
X26798257Y195530430D01*
X26859897Y195511732D01*
X26924000Y195505418D01*
X28448000Y195505418D01*
X28512103Y195511732D01*
X28573743Y195530430D01*
X28630550Y195560794D01*
X28680343Y195601657D01*
X28721206Y195651450D01*
X28751570Y195708257D01*
X28770268Y195769897D01*
X28776582Y195834000D01*
X28776582Y197358000D01*
X28770268Y197422103D01*
X28751570Y197483743D01*
X28721206Y197540550D01*
X28680343Y197590343D01*
X28630550Y197631206D01*
X28573743Y197661570D01*
X28512103Y197680268D01*
X28448000Y197686582D01*
X26924000Y197686582D01*
X26859897Y197680268D01*
X26798257Y197661570D01*
X26741450Y197631206D01*
X26691657Y197590343D01*
X26650794Y197540550D01*
X26620430Y197483743D01*
X26601732Y197422103D01*
X26595418Y197358000D01*
X26236582Y197358000D01*
X26230268Y197422103D01*
X26211570Y197483743D01*
X26181206Y197540550D01*
X26140343Y197590343D01*
X26090550Y197631206D01*
X26033743Y197661570D01*
X25972103Y197680268D01*
X25908000Y197686582D01*
X24384000Y197686582D01*
X24319897Y197680268D01*
X24258257Y197661570D01*
X24201450Y197631206D01*
X24151657Y197590343D01*
X24110794Y197540550D01*
X24080430Y197483743D01*
X24061732Y197422103D01*
X24055418Y197358000D01*
X23696582Y197358000D01*
X23690268Y197422103D01*
X23671570Y197483743D01*
X23641206Y197540550D01*
X23600343Y197590343D01*
X23550550Y197631206D01*
X23493743Y197661570D01*
X23432103Y197680268D01*
X23368000Y197686582D01*
X21844000Y197686582D01*
X21779897Y197680268D01*
X21718257Y197661570D01*
X21661450Y197631206D01*
X21611657Y197590343D01*
X21570794Y197540550D01*
X21540430Y197483743D01*
X21521732Y197422103D01*
X21515418Y197358000D01*
X21156582Y197358000D01*
X21150268Y197422103D01*
X21131570Y197483743D01*
X21101206Y197540550D01*
X21060343Y197590343D01*
X21010550Y197631206D01*
X20953743Y197661570D01*
X20892103Y197680268D01*
X20828000Y197686582D01*
X19304000Y197686582D01*
X19239897Y197680268D01*
X19178257Y197661570D01*
X19121450Y197631206D01*
X19071657Y197590343D01*
X19030794Y197540550D01*
X19000430Y197483743D01*
X18981732Y197422103D01*
X18975418Y197358000D01*
X202000Y197358000D01*
X202000Y199798000D01*
X37798000Y199798000D01*
X37798000Y150202000D01*
X37798000Y150202000D01*
G37*
X37798000Y150202000D02*
X202000Y150202000D01*
X202000Y192095603D01*
X22641000Y192095603D01*
X22641000Y191952397D01*
X22668938Y191811942D01*
X22723741Y191679636D01*
X22803302Y191560564D01*
X22904564Y191459302D01*
X23023636Y191379741D01*
X23155942Y191324938D01*
X23296397Y191297000D01*
X23439603Y191297000D01*
X23580058Y191324938D01*
X23712364Y191379741D01*
X23738194Y191397000D01*
X26985206Y191397000D01*
X27016000Y191393967D01*
X27046794Y191397000D01*
X27138913Y191406073D01*
X27257103Y191441925D01*
X27366028Y191500147D01*
X27461501Y191578499D01*
X27481138Y191602427D01*
X30647573Y194768862D01*
X30671501Y194788499D01*
X30749853Y194883972D01*
X30808075Y194992896D01*
X30843927Y195111087D01*
X30856033Y195234000D01*
X30853000Y195264794D01*
X30853000Y195505418D01*
X30988000Y195505418D01*
X31052103Y195511732D01*
X31113743Y195530430D01*
X31170550Y195560794D01*
X31220343Y195601657D01*
X31261206Y195651450D01*
X31291570Y195708257D01*
X31310268Y195769897D01*
X31316582Y195834000D01*
X31316582Y197358000D01*
X31310268Y197422103D01*
X31291570Y197483743D01*
X31261206Y197540550D01*
X31220343Y197590343D01*
X31170550Y197631206D01*
X31113743Y197661570D01*
X31052103Y197680268D01*
X30988000Y197686582D01*
X29464000Y197686582D01*
X29399897Y197680268D01*
X29338257Y197661570D01*
X29281450Y197631206D01*
X29231657Y197590343D01*
X29190794Y197540550D01*
X29160430Y197483743D01*
X29141732Y197422103D01*
X29135418Y197358000D01*
X29135418Y195834000D01*
X29141732Y195769897D01*
X29160430Y195708257D01*
X29190794Y195651450D01*
X29231657Y195601657D01*
X29281450Y195560794D01*
X29338257Y195530430D01*
X29399897Y195511732D01*
X29464000Y195505418D01*
X29599001Y195505418D01*
X29599001Y195493712D01*
X26756289Y192651000D01*
X23738194Y192651000D01*
X23712364Y192668259D01*
X23580058Y192723062D01*
X23439603Y192751000D01*
X23296397Y192751000D01*
X23155942Y192723062D01*
X23023636Y192668259D01*
X22904564Y192588698D01*
X22803302Y192487436D01*
X22723741Y192368364D01*
X22668938Y192236058D01*
X22641000Y192095603D01*
X202000Y192095603D01*
X202000Y197358000D01*
X18975418Y197358000D01*
X18975418Y195834000D01*
X18981732Y195769897D01*
X19000430Y195708257D01*
X19030794Y195651450D01*
X19071657Y195601657D01*
X19121450Y195560794D01*
X19178257Y195530430D01*
X19239897Y195511732D01*
X19304000Y195505418D01*
X20828000Y195505418D01*
X20892103Y195511732D01*
X20953743Y195530430D01*
X21010550Y195560794D01*
X21060343Y195601657D01*
X21101206Y195651450D01*
X21131570Y195708257D01*
X21150268Y195769897D01*
X21156582Y195834000D01*
X21156582Y197358000D01*
X21515418Y197358000D01*
X21515418Y195834000D01*
X21521732Y195769897D01*
X21540430Y195708257D01*
X21570794Y195651450D01*
X21611657Y195601657D01*
X21661450Y195560794D01*
X21718257Y195530430D01*
X21779897Y195511732D01*
X21844000Y195505418D01*
X23368000Y195505418D01*
X23432103Y195511732D01*
X23493743Y195530430D01*
X23550550Y195560794D01*
X23600343Y195601657D01*
X23641206Y195651450D01*
X23671570Y195708257D01*
X23690268Y195769897D01*
X23696582Y195834000D01*
X23696582Y197358000D01*
X24055418Y197358000D01*
X24055418Y195834000D01*
X24061732Y195769897D01*
X24080430Y195708257D01*
X24110794Y195651450D01*
X24151657Y195601657D01*
X24201450Y195560794D01*
X24258257Y195530430D01*
X24319897Y195511732D01*
X24384000Y195505418D01*
X25908000Y195505418D01*
X25972103Y195511732D01*
X26033743Y195530430D01*
X26090550Y195560794D01*
X26140343Y195601657D01*
X26181206Y195651450D01*
X26211570Y195708257D01*
X26230268Y195769897D01*
X26236582Y195834000D01*
X26236582Y197358000D01*
X26595418Y197358000D01*
X26595418Y195834000D01*
X26601732Y195769897D01*
X26620430Y195708257D01*
X26650794Y195651450D01*
X26691657Y195601657D01*
X26741450Y195560794D01*
X26798257Y195530430D01*
X26859897Y195511732D01*
X26924000Y195505418D01*
X28448000Y195505418D01*
X28512103Y195511732D01*
X28573743Y195530430D01*
X28630550Y195560794D01*
X28680343Y195601657D01*
X28721206Y195651450D01*
X28751570Y195708257D01*
X28770268Y195769897D01*
X28776582Y195834000D01*
X28776582Y197358000D01*
X28770268Y197422103D01*
X28751570Y197483743D01*
X28721206Y197540550D01*
X28680343Y197590343D01*
X28630550Y197631206D01*
X28573743Y197661570D01*
X28512103Y197680268D01*
X28448000Y197686582D01*
X26924000Y197686582D01*
X26859897Y197680268D01*
X26798257Y197661570D01*
X26741450Y197631206D01*
X26691657Y197590343D01*
X26650794Y197540550D01*
X26620430Y197483743D01*
X26601732Y197422103D01*
X26595418Y197358000D01*
X26236582Y197358000D01*
X26230268Y197422103D01*
X26211570Y197483743D01*
X26181206Y197540550D01*
X26140343Y197590343D01*
X26090550Y197631206D01*
X26033743Y197661570D01*
X25972103Y197680268D01*
X25908000Y197686582D01*
X24384000Y197686582D01*
X24319897Y197680268D01*
X24258257Y197661570D01*
X24201450Y197631206D01*
X24151657Y197590343D01*
X24110794Y197540550D01*
X24080430Y197483743D01*
X24061732Y197422103D01*
X24055418Y197358000D01*
X23696582Y197358000D01*
X23690268Y197422103D01*
X23671570Y197483743D01*
X23641206Y197540550D01*
X23600343Y197590343D01*
X23550550Y197631206D01*
X23493743Y197661570D01*
X23432103Y197680268D01*
X23368000Y197686582D01*
X21844000Y197686582D01*
X21779897Y197680268D01*
X21718257Y197661570D01*
X21661450Y197631206D01*
X21611657Y197590343D01*
X21570794Y197540550D01*
X21540430Y197483743D01*
X21521732Y197422103D01*
X21515418Y197358000D01*
X21156582Y197358000D01*
X21150268Y197422103D01*
X21131570Y197483743D01*
X21101206Y197540550D01*
X21060343Y197590343D01*
X21010550Y197631206D01*
X20953743Y197661570D01*
X20892103Y197680268D01*
X20828000Y197686582D01*
X19304000Y197686582D01*
X19239897Y197680268D01*
X19178257Y197661570D01*
X19121450Y197631206D01*
X19071657Y197590343D01*
X19030794Y197540550D01*
X19000430Y197483743D01*
X18981732Y197422103D01*
X18975418Y197358000D01*
X202000Y197358000D01*
X202000Y199798000D01*
X37798000Y199798000D01*
X37798000Y150202000D01*
M02*
