G04 #@! TF.GenerationSoftware,KiCad,Pcbnew,(5.1.0-rc1-3-g6bb8fde48)*
G04 #@! TF.CreationDate,2019-05-06T08:53:10+02:00
G04 #@! TF.ProjectId,SPACEDOS02A_PCB01A,53504143-4544-44f5-9330-32415f504342,REV*
G04 #@! TF.SameCoordinates,Original*
G04 #@! TF.FileFunction,Legend,Top*
G04 #@! TF.FilePolarity,Positive*
%FSLAX46Y46*%
G04 Gerber Fmt 4.6, Leading zero omitted, Abs format (unit mm)*
G04 Created by KiCad (PCBNEW (5.1.0-rc1-3-g6bb8fde48)) date 2019-05-06 08:53:10*
%MOMM*%
%LPD*%
G04 APERTURE LIST*
%ADD10C,0.300000*%
%ADD11C,0.150000*%
%ADD12C,0.100000*%
G04 APERTURE END LIST*
D10*
X4540571Y142918571D02*
X4612000Y142990000D01*
X4754857Y143061428D01*
X5112000Y143061428D01*
X5254857Y142990000D01*
X5326285Y142918571D01*
X5397714Y142775714D01*
X5397714Y142632857D01*
X5326285Y142418571D01*
X4469142Y141561428D01*
X5397714Y141561428D01*
X6326285Y143061428D02*
X6469142Y143061428D01*
X6612000Y142990000D01*
X6683428Y142918571D01*
X6754857Y142775714D01*
X6826285Y142490000D01*
X6826285Y142132857D01*
X6754857Y141847142D01*
X6683428Y141704285D01*
X6612000Y141632857D01*
X6469142Y141561428D01*
X6326285Y141561428D01*
X6183428Y141632857D01*
X6112000Y141704285D01*
X6040571Y141847142D01*
X5969142Y142132857D01*
X5969142Y142490000D01*
X6040571Y142775714D01*
X6112000Y142918571D01*
X6183428Y142990000D01*
X6326285Y143061428D01*
X8254857Y141561428D02*
X7397714Y141561428D01*
X7826285Y141561428D02*
X7826285Y143061428D01*
X7683428Y142847142D01*
X7540571Y142704285D01*
X7397714Y142632857D01*
X8969142Y141561428D02*
X9254857Y141561428D01*
X9397714Y141632857D01*
X9469142Y141704285D01*
X9612000Y141918571D01*
X9683428Y142204285D01*
X9683428Y142775714D01*
X9612000Y142918571D01*
X9540571Y142990000D01*
X9397714Y143061428D01*
X9112000Y143061428D01*
X8969142Y142990000D01*
X8897714Y142918571D01*
X8826285Y142775714D01*
X8826285Y142418571D01*
X8897714Y142275714D01*
X8969142Y142204285D01*
X9112000Y142132857D01*
X9397714Y142132857D01*
X9540571Y142204285D01*
X9612000Y142275714D01*
X9683428Y142418571D01*
X4362000Y145601428D02*
X4362000Y144530000D01*
X4290571Y144315714D01*
X4147714Y144172857D01*
X3933428Y144101428D01*
X3790571Y144101428D01*
X5004857Y144530000D02*
X5719142Y144530000D01*
X4862000Y144101428D02*
X5362000Y145601428D01*
X5862000Y144101428D01*
X7219142Y144244285D02*
X7147714Y144172857D01*
X6933428Y144101428D01*
X6790571Y144101428D01*
X6576285Y144172857D01*
X6433428Y144315714D01*
X6362000Y144458571D01*
X6290571Y144744285D01*
X6290571Y144958571D01*
X6362000Y145244285D01*
X6433428Y145387142D01*
X6576285Y145530000D01*
X6790571Y145601428D01*
X6933428Y145601428D01*
X7147714Y145530000D01*
X7219142Y145458571D01*
X7862000Y144101428D02*
X7862000Y145601428D01*
X7862000Y144887142D02*
X8719142Y144887142D01*
X8719142Y144101428D02*
X8719142Y145601428D01*
X9719142Y145601428D02*
X10004857Y145601428D01*
X10147714Y145530000D01*
X10290571Y145387142D01*
X10362000Y145101428D01*
X10362000Y144601428D01*
X10290571Y144315714D01*
X10147714Y144172857D01*
X10004857Y144101428D01*
X9719142Y144101428D01*
X9576285Y144172857D01*
X9433428Y144315714D01*
X9362000Y144601428D01*
X9362000Y145101428D01*
X9433428Y145387142D01*
X9576285Y145530000D01*
X9719142Y145601428D01*
X3016571Y186606571D02*
X3088000Y186678000D01*
X3230857Y186749428D01*
X3588000Y186749428D01*
X3730857Y186678000D01*
X3802285Y186606571D01*
X3873714Y186463714D01*
X3873714Y186320857D01*
X3802285Y186106571D01*
X2945142Y185249428D01*
X3873714Y185249428D01*
X4802285Y186749428D02*
X4945142Y186749428D01*
X5088000Y186678000D01*
X5159428Y186606571D01*
X5230857Y186463714D01*
X5302285Y186178000D01*
X5302285Y185820857D01*
X5230857Y185535142D01*
X5159428Y185392285D01*
X5088000Y185320857D01*
X4945142Y185249428D01*
X4802285Y185249428D01*
X4659428Y185320857D01*
X4588000Y185392285D01*
X4516571Y185535142D01*
X4445142Y185820857D01*
X4445142Y186178000D01*
X4516571Y186463714D01*
X4588000Y186606571D01*
X4659428Y186678000D01*
X4802285Y186749428D01*
X6730857Y185249428D02*
X5873714Y185249428D01*
X6302285Y185249428D02*
X6302285Y186749428D01*
X6159428Y186535142D01*
X6016571Y186392285D01*
X5873714Y186320857D01*
X7445142Y185249428D02*
X7730857Y185249428D01*
X7873714Y185320857D01*
X7945142Y185392285D01*
X8088000Y185606571D01*
X8159428Y185892285D01*
X8159428Y186463714D01*
X8088000Y186606571D01*
X8016571Y186678000D01*
X7873714Y186749428D01*
X7588000Y186749428D01*
X7445142Y186678000D01*
X7373714Y186606571D01*
X7302285Y186463714D01*
X7302285Y186106571D01*
X7373714Y185963714D01*
X7445142Y185892285D01*
X7588000Y185820857D01*
X7873714Y185820857D01*
X8016571Y185892285D01*
X8088000Y185963714D01*
X8159428Y186106571D01*
X2838000Y189289428D02*
X2838000Y188218000D01*
X2766571Y188003714D01*
X2623714Y187860857D01*
X2409428Y187789428D01*
X2266571Y187789428D01*
X3480857Y188218000D02*
X4195142Y188218000D01*
X3338000Y187789428D02*
X3838000Y189289428D01*
X4338000Y187789428D01*
X5695142Y187932285D02*
X5623714Y187860857D01*
X5409428Y187789428D01*
X5266571Y187789428D01*
X5052285Y187860857D01*
X4909428Y188003714D01*
X4838000Y188146571D01*
X4766571Y188432285D01*
X4766571Y188646571D01*
X4838000Y188932285D01*
X4909428Y189075142D01*
X5052285Y189218000D01*
X5266571Y189289428D01*
X5409428Y189289428D01*
X5623714Y189218000D01*
X5695142Y189146571D01*
X6338000Y187789428D02*
X6338000Y189289428D01*
X6338000Y188575142D02*
X7195142Y188575142D01*
X7195142Y187789428D02*
X7195142Y189289428D01*
X8195142Y189289428D02*
X8480857Y189289428D01*
X8623714Y189218000D01*
X8766571Y189075142D01*
X8838000Y188789428D01*
X8838000Y188289428D01*
X8766571Y188003714D01*
X8623714Y187860857D01*
X8480857Y187789428D01*
X8195142Y187789428D01*
X8052285Y187860857D01*
X7909428Y188003714D01*
X7838000Y188289428D01*
X7838000Y188789428D01*
X7909428Y189075142D01*
X8052285Y189218000D01*
X8195142Y189289428D01*
X15464285Y165413428D02*
X15464285Y164199142D01*
X15535714Y164056285D01*
X15607142Y163984857D01*
X15750000Y163913428D01*
X16035714Y163913428D01*
X16178571Y163984857D01*
X16250000Y164056285D01*
X16321428Y164199142D01*
X16321428Y165413428D01*
X16964285Y163984857D02*
X17178571Y163913428D01*
X17535714Y163913428D01*
X17678571Y163984857D01*
X17750000Y164056285D01*
X17821428Y164199142D01*
X17821428Y164342000D01*
X17750000Y164484857D01*
X17678571Y164556285D01*
X17535714Y164627714D01*
X17250000Y164699142D01*
X17107142Y164770571D01*
X17035714Y164842000D01*
X16964285Y164984857D01*
X16964285Y165127714D01*
X17035714Y165270571D01*
X17107142Y165342000D01*
X17250000Y165413428D01*
X17607142Y165413428D01*
X17821428Y165342000D01*
X18250000Y165413428D02*
X19107142Y165413428D01*
X18678571Y163913428D02*
X18678571Y165413428D01*
X19607142Y164056285D02*
X19678571Y163984857D01*
X19607142Y163913428D01*
X19535714Y163984857D01*
X19607142Y164056285D01*
X19607142Y163913428D01*
X21178571Y164056285D02*
X21107142Y163984857D01*
X20892857Y163913428D01*
X20750000Y163913428D01*
X20535714Y163984857D01*
X20392857Y164127714D01*
X20321428Y164270571D01*
X20250000Y164556285D01*
X20250000Y164770571D01*
X20321428Y165056285D01*
X20392857Y165199142D01*
X20535714Y165342000D01*
X20750000Y165413428D01*
X20892857Y165413428D01*
X21107142Y165342000D01*
X21178571Y165270571D01*
X21678571Y165413428D02*
X22678571Y165413428D01*
X21678571Y163913428D01*
X22678571Y163913428D01*
X15464285Y125281428D02*
X15464285Y124067142D01*
X15535714Y123924285D01*
X15607142Y123852857D01*
X15750000Y123781428D01*
X16035714Y123781428D01*
X16178571Y123852857D01*
X16250000Y123924285D01*
X16321428Y124067142D01*
X16321428Y125281428D01*
X16964285Y123852857D02*
X17178571Y123781428D01*
X17535714Y123781428D01*
X17678571Y123852857D01*
X17750000Y123924285D01*
X17821428Y124067142D01*
X17821428Y124210000D01*
X17750000Y124352857D01*
X17678571Y124424285D01*
X17535714Y124495714D01*
X17250000Y124567142D01*
X17107142Y124638571D01*
X17035714Y124710000D01*
X16964285Y124852857D01*
X16964285Y124995714D01*
X17035714Y125138571D01*
X17107142Y125210000D01*
X17250000Y125281428D01*
X17607142Y125281428D01*
X17821428Y125210000D01*
X18250000Y125281428D02*
X19107142Y125281428D01*
X18678571Y123781428D02*
X18678571Y125281428D01*
X19607142Y123924285D02*
X19678571Y123852857D01*
X19607142Y123781428D01*
X19535714Y123852857D01*
X19607142Y123924285D01*
X19607142Y123781428D01*
X21178571Y123924285D02*
X21107142Y123852857D01*
X20892857Y123781428D01*
X20750000Y123781428D01*
X20535714Y123852857D01*
X20392857Y123995714D01*
X20321428Y124138571D01*
X20250000Y124424285D01*
X20250000Y124638571D01*
X20321428Y124924285D01*
X20392857Y125067142D01*
X20535714Y125210000D01*
X20750000Y125281428D01*
X20892857Y125281428D01*
X21107142Y125210000D01*
X21178571Y125138571D01*
X21678571Y125281428D02*
X22678571Y125281428D01*
X21678571Y123781428D01*
X22678571Y123781428D01*
X6535714Y159920857D02*
X6750000Y159849428D01*
X7107142Y159849428D01*
X7250000Y159920857D01*
X7321428Y159992285D01*
X7392857Y160135142D01*
X7392857Y160278000D01*
X7321428Y160420857D01*
X7250000Y160492285D01*
X7107142Y160563714D01*
X6821428Y160635142D01*
X6678571Y160706571D01*
X6607142Y160778000D01*
X6535714Y160920857D01*
X6535714Y161063714D01*
X6607142Y161206571D01*
X6678571Y161278000D01*
X6821428Y161349428D01*
X7178571Y161349428D01*
X7392857Y161278000D01*
X8035714Y159849428D02*
X8035714Y161349428D01*
X8607142Y161349428D01*
X8750000Y161278000D01*
X8821428Y161206571D01*
X8892857Y161063714D01*
X8892857Y160849428D01*
X8821428Y160706571D01*
X8750000Y160635142D01*
X8607142Y160563714D01*
X8035714Y160563714D01*
X9464285Y160278000D02*
X10178571Y160278000D01*
X9321428Y159849428D02*
X9821428Y161349428D01*
X10321428Y159849428D01*
X11678571Y159992285D02*
X11607142Y159920857D01*
X11392857Y159849428D01*
X11250000Y159849428D01*
X11035714Y159920857D01*
X10892857Y160063714D01*
X10821428Y160206571D01*
X10750000Y160492285D01*
X10750000Y160706571D01*
X10821428Y160992285D01*
X10892857Y161135142D01*
X11035714Y161278000D01*
X11250000Y161349428D01*
X11392857Y161349428D01*
X11607142Y161278000D01*
X11678571Y161206571D01*
X12321428Y160635142D02*
X12821428Y160635142D01*
X13035714Y159849428D02*
X12321428Y159849428D01*
X12321428Y161349428D01*
X13035714Y161349428D01*
X13678571Y159849428D02*
X13678571Y161349428D01*
X14035714Y161349428D01*
X14250000Y161278000D01*
X14392857Y161135142D01*
X14464285Y160992285D01*
X14535714Y160706571D01*
X14535714Y160492285D01*
X14464285Y160206571D01*
X14392857Y160063714D01*
X14250000Y159920857D01*
X14035714Y159849428D01*
X13678571Y159849428D01*
X15464285Y161349428D02*
X15750000Y161349428D01*
X15892857Y161278000D01*
X16035714Y161135142D01*
X16107142Y160849428D01*
X16107142Y160349428D01*
X16035714Y160063714D01*
X15892857Y159920857D01*
X15750000Y159849428D01*
X15464285Y159849428D01*
X15321428Y159920857D01*
X15178571Y160063714D01*
X15107142Y160349428D01*
X15107142Y160849428D01*
X15178571Y161135142D01*
X15321428Y161278000D01*
X15464285Y161349428D01*
X16678571Y159920857D02*
X16892857Y159849428D01*
X17250000Y159849428D01*
X17392857Y159920857D01*
X17464285Y159992285D01*
X17535714Y160135142D01*
X17535714Y160278000D01*
X17464285Y160420857D01*
X17392857Y160492285D01*
X17250000Y160563714D01*
X16964285Y160635142D01*
X16821428Y160706571D01*
X16749999Y160778000D01*
X16678571Y160920857D01*
X16678571Y161063714D01*
X16749999Y161206571D01*
X16821428Y161278000D01*
X16964285Y161349428D01*
X17321428Y161349428D01*
X17535714Y161278000D01*
X18464285Y161349428D02*
X18607142Y161349428D01*
X18750000Y161278000D01*
X18821428Y161206571D01*
X18892857Y161063714D01*
X18964285Y160778000D01*
X18964285Y160420857D01*
X18892857Y160135142D01*
X18821428Y159992285D01*
X18750000Y159920857D01*
X18607142Y159849428D01*
X18464285Y159849428D01*
X18321428Y159920857D01*
X18250000Y159992285D01*
X18178571Y160135142D01*
X18107142Y160420857D01*
X18107142Y160778000D01*
X18178571Y161063714D01*
X18250000Y161206571D01*
X18321428Y161278000D01*
X18464285Y161349428D01*
X19535714Y161206571D02*
X19607142Y161278000D01*
X19750000Y161349428D01*
X20107142Y161349428D01*
X20250000Y161278000D01*
X20321428Y161206571D01*
X20392857Y161063714D01*
X20392857Y160920857D01*
X20321428Y160706571D01*
X19464285Y159849428D01*
X20392857Y159849428D01*
X20964285Y160278000D02*
X21678571Y160278000D01*
X20821428Y159849428D02*
X21321428Y161349428D01*
X21821428Y159849428D01*
X21964285Y159706571D02*
X23107142Y159706571D01*
X23464285Y159849428D02*
X23464285Y161349428D01*
X24035714Y161349428D01*
X24178571Y161278000D01*
X24250000Y161206571D01*
X24321428Y161063714D01*
X24321428Y160849428D01*
X24250000Y160706571D01*
X24178571Y160635142D01*
X24035714Y160563714D01*
X23464285Y160563714D01*
X25821428Y159992285D02*
X25750000Y159920857D01*
X25535714Y159849428D01*
X25392857Y159849428D01*
X25178571Y159920857D01*
X25035714Y160063714D01*
X24964285Y160206571D01*
X24892857Y160492285D01*
X24892857Y160706571D01*
X24964285Y160992285D01*
X25035714Y161135142D01*
X25178571Y161278000D01*
X25392857Y161349428D01*
X25535714Y161349428D01*
X25750000Y161278000D01*
X25821428Y161206571D01*
X26964285Y160635142D02*
X27178571Y160563714D01*
X27250000Y160492285D01*
X27321428Y160349428D01*
X27321428Y160135142D01*
X27250000Y159992285D01*
X27178571Y159920857D01*
X27035714Y159849428D01*
X26464285Y159849428D01*
X26464285Y161349428D01*
X26964285Y161349428D01*
X27107142Y161278000D01*
X27178571Y161206571D01*
X27250000Y161063714D01*
X27250000Y160920857D01*
X27178571Y160778000D01*
X27107142Y160706571D01*
X26964285Y160635142D01*
X26464285Y160635142D01*
X28250000Y161349428D02*
X28392857Y161349428D01*
X28535714Y161278000D01*
X28607142Y161206571D01*
X28678571Y161063714D01*
X28750000Y160778000D01*
X28750000Y160420857D01*
X28678571Y160135142D01*
X28607142Y159992285D01*
X28535714Y159920857D01*
X28392857Y159849428D01*
X28250000Y159849428D01*
X28107142Y159920857D01*
X28035714Y159992285D01*
X27964285Y160135142D01*
X27892857Y160420857D01*
X27892857Y160778000D01*
X27964285Y161063714D01*
X28035714Y161206571D01*
X28107142Y161278000D01*
X28250000Y161349428D01*
X30178571Y159849428D02*
X29321428Y159849428D01*
X29750000Y159849428D02*
X29750000Y161349428D01*
X29607142Y161135142D01*
X29464285Y160992285D01*
X29321428Y160920857D01*
X30750000Y160278000D02*
X31464285Y160278000D01*
X30607142Y159849428D02*
X31107142Y161349428D01*
X31607142Y159849428D01*
X6535714Y120296857D02*
X6750000Y120225428D01*
X7107142Y120225428D01*
X7250000Y120296857D01*
X7321428Y120368285D01*
X7392857Y120511142D01*
X7392857Y120654000D01*
X7321428Y120796857D01*
X7250000Y120868285D01*
X7107142Y120939714D01*
X6821428Y121011142D01*
X6678571Y121082571D01*
X6607142Y121154000D01*
X6535714Y121296857D01*
X6535714Y121439714D01*
X6607142Y121582571D01*
X6678571Y121654000D01*
X6821428Y121725428D01*
X7178571Y121725428D01*
X7392857Y121654000D01*
X8035714Y120225428D02*
X8035714Y121725428D01*
X8607142Y121725428D01*
X8750000Y121654000D01*
X8821428Y121582571D01*
X8892857Y121439714D01*
X8892857Y121225428D01*
X8821428Y121082571D01*
X8750000Y121011142D01*
X8607142Y120939714D01*
X8035714Y120939714D01*
X9464285Y120654000D02*
X10178571Y120654000D01*
X9321428Y120225428D02*
X9821428Y121725428D01*
X10321428Y120225428D01*
X11678571Y120368285D02*
X11607142Y120296857D01*
X11392857Y120225428D01*
X11250000Y120225428D01*
X11035714Y120296857D01*
X10892857Y120439714D01*
X10821428Y120582571D01*
X10750000Y120868285D01*
X10750000Y121082571D01*
X10821428Y121368285D01*
X10892857Y121511142D01*
X11035714Y121654000D01*
X11250000Y121725428D01*
X11392857Y121725428D01*
X11607142Y121654000D01*
X11678571Y121582571D01*
X12321428Y121011142D02*
X12821428Y121011142D01*
X13035714Y120225428D02*
X12321428Y120225428D01*
X12321428Y121725428D01*
X13035714Y121725428D01*
X13678571Y120225428D02*
X13678571Y121725428D01*
X14035714Y121725428D01*
X14250000Y121654000D01*
X14392857Y121511142D01*
X14464285Y121368285D01*
X14535714Y121082571D01*
X14535714Y120868285D01*
X14464285Y120582571D01*
X14392857Y120439714D01*
X14250000Y120296857D01*
X14035714Y120225428D01*
X13678571Y120225428D01*
X15464285Y121725428D02*
X15750000Y121725428D01*
X15892857Y121654000D01*
X16035714Y121511142D01*
X16107142Y121225428D01*
X16107142Y120725428D01*
X16035714Y120439714D01*
X15892857Y120296857D01*
X15750000Y120225428D01*
X15464285Y120225428D01*
X15321428Y120296857D01*
X15178571Y120439714D01*
X15107142Y120725428D01*
X15107142Y121225428D01*
X15178571Y121511142D01*
X15321428Y121654000D01*
X15464285Y121725428D01*
X16678571Y120296857D02*
X16892857Y120225428D01*
X17250000Y120225428D01*
X17392857Y120296857D01*
X17464285Y120368285D01*
X17535714Y120511142D01*
X17535714Y120654000D01*
X17464285Y120796857D01*
X17392857Y120868285D01*
X17250000Y120939714D01*
X16964285Y121011142D01*
X16821428Y121082571D01*
X16749999Y121154000D01*
X16678571Y121296857D01*
X16678571Y121439714D01*
X16749999Y121582571D01*
X16821428Y121654000D01*
X16964285Y121725428D01*
X17321428Y121725428D01*
X17535714Y121654000D01*
X18464285Y121725428D02*
X18607142Y121725428D01*
X18750000Y121654000D01*
X18821428Y121582571D01*
X18892857Y121439714D01*
X18964285Y121154000D01*
X18964285Y120796857D01*
X18892857Y120511142D01*
X18821428Y120368285D01*
X18750000Y120296857D01*
X18607142Y120225428D01*
X18464285Y120225428D01*
X18321428Y120296857D01*
X18250000Y120368285D01*
X18178571Y120511142D01*
X18107142Y120796857D01*
X18107142Y121154000D01*
X18178571Y121439714D01*
X18250000Y121582571D01*
X18321428Y121654000D01*
X18464285Y121725428D01*
X19535714Y121582571D02*
X19607142Y121654000D01*
X19750000Y121725428D01*
X20107142Y121725428D01*
X20250000Y121654000D01*
X20321428Y121582571D01*
X20392857Y121439714D01*
X20392857Y121296857D01*
X20321428Y121082571D01*
X19464285Y120225428D01*
X20392857Y120225428D01*
X20964285Y120654000D02*
X21678571Y120654000D01*
X20821428Y120225428D02*
X21321428Y121725428D01*
X21821428Y120225428D01*
X21964285Y120082571D02*
X23107142Y120082571D01*
X23464285Y120225428D02*
X23464285Y121725428D01*
X24035714Y121725428D01*
X24178571Y121654000D01*
X24250000Y121582571D01*
X24321428Y121439714D01*
X24321428Y121225428D01*
X24250000Y121082571D01*
X24178571Y121011142D01*
X24035714Y120939714D01*
X23464285Y120939714D01*
X25821428Y120368285D02*
X25750000Y120296857D01*
X25535714Y120225428D01*
X25392857Y120225428D01*
X25178571Y120296857D01*
X25035714Y120439714D01*
X24964285Y120582571D01*
X24892857Y120868285D01*
X24892857Y121082571D01*
X24964285Y121368285D01*
X25035714Y121511142D01*
X25178571Y121654000D01*
X25392857Y121725428D01*
X25535714Y121725428D01*
X25750000Y121654000D01*
X25821428Y121582571D01*
X26964285Y121011142D02*
X27178571Y120939714D01*
X27250000Y120868285D01*
X27321428Y120725428D01*
X27321428Y120511142D01*
X27250000Y120368285D01*
X27178571Y120296857D01*
X27035714Y120225428D01*
X26464285Y120225428D01*
X26464285Y121725428D01*
X26964285Y121725428D01*
X27107142Y121654000D01*
X27178571Y121582571D01*
X27250000Y121439714D01*
X27250000Y121296857D01*
X27178571Y121154000D01*
X27107142Y121082571D01*
X26964285Y121011142D01*
X26464285Y121011142D01*
X28250000Y121725428D02*
X28392857Y121725428D01*
X28535714Y121654000D01*
X28607142Y121582571D01*
X28678571Y121439714D01*
X28750000Y121154000D01*
X28750000Y120796857D01*
X28678571Y120511142D01*
X28607142Y120368285D01*
X28535714Y120296857D01*
X28392857Y120225428D01*
X28250000Y120225428D01*
X28107142Y120296857D01*
X28035714Y120368285D01*
X27964285Y120511142D01*
X27892857Y120796857D01*
X27892857Y121154000D01*
X27964285Y121439714D01*
X28035714Y121582571D01*
X28107142Y121654000D01*
X28250000Y121725428D01*
X30178571Y120225428D02*
X29321428Y120225428D01*
X29750000Y120225428D02*
X29750000Y121725428D01*
X29607142Y121511142D01*
X29464285Y121368285D01*
X29321428Y121296857D01*
X30750000Y120654000D02*
X31464285Y120654000D01*
X30607142Y120225428D02*
X31107142Y121725428D01*
X31607142Y120225428D01*
X18022000Y106747571D02*
X18093428Y106890428D01*
X18093428Y107104714D01*
X18022000Y107319000D01*
X17879142Y107461857D01*
X17736285Y107533285D01*
X17450571Y107604714D01*
X17236285Y107604714D01*
X16950571Y107533285D01*
X16807714Y107461857D01*
X16664857Y107319000D01*
X16593428Y107104714D01*
X16593428Y106961857D01*
X16664857Y106747571D01*
X16736285Y106676142D01*
X17236285Y106676142D01*
X17236285Y106961857D01*
X16593428Y106033285D02*
X18093428Y106033285D01*
X16593428Y105176142D01*
X18093428Y105176142D01*
X16593428Y104461857D02*
X18093428Y104461857D01*
X18093428Y104104714D01*
X18022000Y103890428D01*
X17879142Y103747571D01*
X17736285Y103676142D01*
X17450571Y103604714D01*
X17236285Y103604714D01*
X16950571Y103676142D01*
X16807714Y103747571D01*
X16664857Y103890428D01*
X16593428Y104104714D01*
X16593428Y104461857D01*
X9227428Y108200000D02*
X9941714Y108700000D01*
X9227428Y109057142D02*
X10727428Y109057142D01*
X10727428Y108485714D01*
X10656000Y108342857D01*
X10584571Y108271428D01*
X10441714Y108200000D01*
X10227428Y108200000D01*
X10084571Y108271428D01*
X10013142Y108342857D01*
X9941714Y108485714D01*
X9941714Y109057142D01*
X10727428Y107700000D02*
X9227428Y106700000D01*
X10727428Y106700000D02*
X9227428Y107700000D01*
X11767428Y109533285D02*
X13267428Y109533285D01*
X13267428Y108961857D01*
X13196000Y108819000D01*
X13124571Y108747571D01*
X12981714Y108676142D01*
X12767428Y108676142D01*
X12624571Y108747571D01*
X12553142Y108819000D01*
X12481714Y108961857D01*
X12481714Y109533285D01*
X11910285Y107176142D02*
X11838857Y107247571D01*
X11767428Y107461857D01*
X11767428Y107604714D01*
X11838857Y107819000D01*
X11981714Y107961857D01*
X12124571Y108033285D01*
X12410285Y108104714D01*
X12624571Y108104714D01*
X12910285Y108033285D01*
X13053142Y107961857D01*
X13196000Y107819000D01*
X13267428Y107604714D01*
X13267428Y107461857D01*
X13196000Y107247571D01*
X13124571Y107176142D01*
X12767428Y105890428D02*
X11767428Y105890428D01*
X13338857Y106247571D02*
X12267428Y106604714D01*
X12267428Y105676142D01*
X11838857Y105033285D02*
X11767428Y105033285D01*
X11624571Y105104714D01*
X11553142Y105176142D01*
X13267428Y104533285D02*
X13267428Y103604714D01*
X12696000Y104104714D01*
X12696000Y103890428D01*
X12624571Y103747571D01*
X12553142Y103676142D01*
X12410285Y103604714D01*
X12053142Y103604714D01*
X11910285Y103676142D01*
X11838857Y103747571D01*
X11767428Y103890428D01*
X11767428Y104319000D01*
X11838857Y104461857D01*
X11910285Y104533285D01*
X10727428Y105747571D02*
X10727428Y104890428D01*
X9227428Y105319000D02*
X10727428Y105319000D01*
X10727428Y104533285D02*
X9227428Y103533285D01*
X10727428Y103533285D02*
X9227428Y104533285D01*
X6687428Y107676142D02*
X7401714Y108176142D01*
X6687428Y108533285D02*
X8187428Y108533285D01*
X8187428Y107961857D01*
X8116000Y107819000D01*
X8044571Y107747571D01*
X7901714Y107676142D01*
X7687428Y107676142D01*
X7544571Y107747571D01*
X7473142Y107819000D01*
X7401714Y107961857D01*
X7401714Y108533285D01*
X6758857Y107104714D02*
X6687428Y106890428D01*
X6687428Y106533285D01*
X6758857Y106390428D01*
X6830285Y106319000D01*
X6973142Y106247571D01*
X7116000Y106247571D01*
X7258857Y106319000D01*
X7330285Y106390428D01*
X7401714Y106533285D01*
X7473142Y106819000D01*
X7544571Y106961857D01*
X7616000Y107033285D01*
X7758857Y107104714D01*
X7901714Y107104714D01*
X8044571Y107033285D01*
X8116000Y106961857D01*
X8187428Y106819000D01*
X8187428Y106461857D01*
X8116000Y106247571D01*
X8187428Y105819000D02*
X8187428Y104961857D01*
X6687428Y105390428D02*
X8187428Y105390428D01*
X7687428Y104533285D02*
X7687428Y103461857D01*
X8330285Y104104714D02*
X6401714Y104533285D01*
X7044571Y103604714D02*
X7044571Y104676142D01*
X6401714Y104033285D02*
X8330285Y103604714D01*
X15807428Y107247571D02*
X15807428Y106319000D01*
X15236000Y106819000D01*
X15236000Y106604714D01*
X15164571Y106461857D01*
X15093142Y106390428D01*
X14950285Y106319000D01*
X14593142Y106319000D01*
X14450285Y106390428D01*
X14378857Y106461857D01*
X14307428Y106604714D01*
X14307428Y107033285D01*
X14378857Y107176142D01*
X14450285Y107247571D01*
X15807428Y105890428D02*
X14307428Y105390428D01*
X15807428Y104890428D01*
X15807428Y104533285D02*
X15807428Y103604714D01*
X15236000Y104104714D01*
X15236000Y103890428D01*
X15164571Y103747571D01*
X15093142Y103676142D01*
X14950285Y103604714D01*
X14593142Y103604714D01*
X14450285Y103676142D01*
X14378857Y103747571D01*
X14307428Y103890428D01*
X14307428Y104319000D01*
X14378857Y104461857D01*
X14450285Y104533285D01*
X28214285Y99881428D02*
X28214285Y98667142D01*
X28285714Y98524285D01*
X28357142Y98452857D01*
X28500000Y98381428D01*
X28785714Y98381428D01*
X28928571Y98452857D01*
X29000000Y98524285D01*
X29071428Y98667142D01*
X29071428Y99881428D01*
X29714285Y98452857D02*
X29928571Y98381428D01*
X30285714Y98381428D01*
X30428571Y98452857D01*
X30500000Y98524285D01*
X30571428Y98667142D01*
X30571428Y98810000D01*
X30500000Y98952857D01*
X30428571Y99024285D01*
X30285714Y99095714D01*
X30000000Y99167142D01*
X29857142Y99238571D01*
X29785714Y99310000D01*
X29714285Y99452857D01*
X29714285Y99595714D01*
X29785714Y99738571D01*
X29857142Y99810000D01*
X30000000Y99881428D01*
X30357142Y99881428D01*
X30571428Y99810000D01*
X31000000Y99881428D02*
X31857142Y99881428D01*
X31428571Y98381428D02*
X31428571Y99881428D01*
X32357142Y98524285D02*
X32428571Y98452857D01*
X32357142Y98381428D01*
X32285714Y98452857D01*
X32357142Y98524285D01*
X32357142Y98381428D01*
X33928571Y98524285D02*
X33857142Y98452857D01*
X33642857Y98381428D01*
X33500000Y98381428D01*
X33285714Y98452857D01*
X33142857Y98595714D01*
X33071428Y98738571D01*
X33000000Y99024285D01*
X33000000Y99238571D01*
X33071428Y99524285D01*
X33142857Y99667142D01*
X33285714Y99810000D01*
X33500000Y99881428D01*
X33642857Y99881428D01*
X33857142Y99810000D01*
X33928571Y99738571D01*
X34428571Y99881428D02*
X35428571Y99881428D01*
X34428571Y98381428D01*
X35428571Y98381428D01*
X33698571Y80549428D02*
X33770000Y80478000D01*
X33841428Y80335142D01*
X33841428Y79978000D01*
X33770000Y79835142D01*
X33698571Y79763714D01*
X33555714Y79692285D01*
X33412857Y79692285D01*
X33198571Y79763714D01*
X32341428Y80620857D01*
X32341428Y79692285D01*
X33841428Y78763714D02*
X33841428Y78620857D01*
X33770000Y78478000D01*
X33698571Y78406571D01*
X33555714Y78335142D01*
X33270000Y78263714D01*
X32912857Y78263714D01*
X32627142Y78335142D01*
X32484285Y78406571D01*
X32412857Y78478000D01*
X32341428Y78620857D01*
X32341428Y78763714D01*
X32412857Y78906571D01*
X32484285Y78978000D01*
X32627142Y79049428D01*
X32912857Y79120857D01*
X33270000Y79120857D01*
X33555714Y79049428D01*
X33698571Y78978000D01*
X33770000Y78906571D01*
X33841428Y78763714D01*
X32341428Y76835142D02*
X32341428Y77692285D01*
X32341428Y77263714D02*
X33841428Y77263714D01*
X33627142Y77406571D01*
X33484285Y77549428D01*
X33412857Y77692285D01*
X32341428Y76120857D02*
X32341428Y75835142D01*
X32412857Y75692285D01*
X32484285Y75620857D01*
X32698571Y75478000D01*
X32984285Y75406571D01*
X33555714Y75406571D01*
X33698571Y75478000D01*
X33770000Y75549428D01*
X33841428Y75692285D01*
X33841428Y75978000D01*
X33770000Y76120857D01*
X33698571Y76192285D01*
X33555714Y76263714D01*
X33198571Y76263714D01*
X33055714Y76192285D01*
X32984285Y76120857D01*
X32912857Y75978000D01*
X32912857Y75692285D01*
X32984285Y75549428D01*
X33055714Y75478000D01*
X33198571Y75406571D01*
X36635428Y80728000D02*
X35564000Y80728000D01*
X35349714Y80799428D01*
X35206857Y80942285D01*
X35135428Y81156571D01*
X35135428Y81299428D01*
X35564000Y80085142D02*
X35564000Y79370857D01*
X35135428Y80228000D02*
X36635428Y79728000D01*
X35135428Y79228000D01*
X35278285Y77870857D02*
X35206857Y77942285D01*
X35135428Y78156571D01*
X35135428Y78299428D01*
X35206857Y78513714D01*
X35349714Y78656571D01*
X35492571Y78728000D01*
X35778285Y78799428D01*
X35992571Y78799428D01*
X36278285Y78728000D01*
X36421142Y78656571D01*
X36564000Y78513714D01*
X36635428Y78299428D01*
X36635428Y78156571D01*
X36564000Y77942285D01*
X36492571Y77870857D01*
X35135428Y77228000D02*
X36635428Y77228000D01*
X35921142Y77228000D02*
X35921142Y76370857D01*
X35135428Y76370857D02*
X36635428Y76370857D01*
X36635428Y75370857D02*
X36635428Y75085142D01*
X36564000Y74942285D01*
X36421142Y74799428D01*
X36135428Y74728000D01*
X35635428Y74728000D01*
X35349714Y74799428D01*
X35206857Y74942285D01*
X35135428Y75085142D01*
X35135428Y75370857D01*
X35206857Y75513714D01*
X35349714Y75656571D01*
X35635428Y75728000D01*
X36135428Y75728000D01*
X36421142Y75656571D01*
X36564000Y75513714D01*
X36635428Y75370857D01*
X1424857Y52850285D02*
X1353428Y52636000D01*
X1353428Y52278857D01*
X1424857Y52136000D01*
X1496285Y52064571D01*
X1639142Y51993142D01*
X1781999Y51993142D01*
X1924857Y52064571D01*
X1996285Y52136000D01*
X2067714Y52278857D01*
X2139142Y52564571D01*
X2210571Y52707428D01*
X2281999Y52778857D01*
X2424857Y52850285D01*
X2567714Y52850285D01*
X2710571Y52778857D01*
X2781999Y52707428D01*
X2853428Y52564571D01*
X2853428Y52207428D01*
X2781999Y51993142D01*
X1353428Y51350285D02*
X2853428Y51350285D01*
X2853428Y50778857D01*
X2781999Y50636000D01*
X2710571Y50564571D01*
X2567714Y50493142D01*
X2353428Y50493142D01*
X2210571Y50564571D01*
X2139142Y50636000D01*
X2067714Y50778857D01*
X2067714Y51350285D01*
X1781999Y49921714D02*
X1781999Y49207428D01*
X1353428Y50064571D02*
X2853428Y49564571D01*
X1353428Y49064571D01*
X1496285Y47707428D02*
X1424857Y47778857D01*
X1353428Y47993142D01*
X1353428Y48136000D01*
X1424857Y48350285D01*
X1567714Y48493142D01*
X1710571Y48564571D01*
X1996285Y48636000D01*
X2210571Y48636000D01*
X2496285Y48564571D01*
X2639142Y48493142D01*
X2781999Y48350285D01*
X2853428Y48136000D01*
X2853428Y47993142D01*
X2781999Y47778857D01*
X2710571Y47707428D01*
X2139142Y47064571D02*
X2139142Y46564571D01*
X1353428Y46350285D02*
X1353428Y47064571D01*
X2853428Y47064571D01*
X2853428Y46350285D01*
X1353428Y45707428D02*
X2853428Y45707428D01*
X2853428Y45350285D01*
X2782000Y45136000D01*
X2639142Y44993142D01*
X2496285Y44921714D01*
X2210571Y44850285D01*
X1996285Y44850285D01*
X1710571Y44921714D01*
X1567714Y44993142D01*
X1424857Y45136000D01*
X1353428Y45350285D01*
X1353428Y45707428D01*
X2853428Y43921714D02*
X2853428Y43636000D01*
X2782000Y43493142D01*
X2639142Y43350285D01*
X2353428Y43278857D01*
X1853428Y43278857D01*
X1567714Y43350285D01*
X1424857Y43493142D01*
X1353428Y43636000D01*
X1353428Y43921714D01*
X1424857Y44064571D01*
X1567714Y44207428D01*
X1853428Y44278857D01*
X2353428Y44278857D01*
X2639142Y44207428D01*
X2782000Y44064571D01*
X2853428Y43921714D01*
X1424857Y42707428D02*
X1353428Y42493142D01*
X1353428Y42136000D01*
X1424857Y41993142D01*
X1496285Y41921714D01*
X1639142Y41850285D01*
X1782000Y41850285D01*
X1924857Y41921714D01*
X1996285Y41993142D01*
X2067714Y42136000D01*
X2139142Y42421714D01*
X2210571Y42564571D01*
X2282000Y42636000D01*
X2424857Y42707428D01*
X2567714Y42707428D01*
X2710571Y42636000D01*
X2782000Y42564571D01*
X2853428Y42421714D01*
X2853428Y42064571D01*
X2782000Y41850285D01*
X2853428Y40921714D02*
X2853428Y40778857D01*
X2782000Y40636000D01*
X2710571Y40564571D01*
X2567714Y40493142D01*
X2282000Y40421714D01*
X1924857Y40421714D01*
X1639142Y40493142D01*
X1496285Y40564571D01*
X1424857Y40636000D01*
X1353428Y40778857D01*
X1353428Y40921714D01*
X1424857Y41064571D01*
X1496285Y41136000D01*
X1639142Y41207428D01*
X1924857Y41278857D01*
X2282000Y41278857D01*
X2567714Y41207428D01*
X2710571Y41136000D01*
X2782000Y41064571D01*
X2853428Y40921714D01*
X2710571Y39850285D02*
X2782000Y39778857D01*
X2853428Y39636000D01*
X2853428Y39278857D01*
X2782000Y39136000D01*
X2710571Y39064571D01*
X2567714Y38993142D01*
X2424857Y38993142D01*
X2210571Y39064571D01*
X1353428Y39921714D01*
X1353428Y38993142D01*
X1782000Y38421714D02*
X1782000Y37707428D01*
X1353428Y38564571D02*
X2853428Y38064571D01*
X1353428Y37564571D01*
X1210571Y37421714D02*
X1210571Y36278857D01*
X1353428Y35921714D02*
X2853428Y35921714D01*
X2853428Y35350285D01*
X2782000Y35207428D01*
X2710571Y35136000D01*
X2567714Y35064571D01*
X2353428Y35064571D01*
X2210571Y35136000D01*
X2139142Y35207428D01*
X2067714Y35350285D01*
X2067714Y35921714D01*
X1496285Y33564571D02*
X1424857Y33636000D01*
X1353428Y33850285D01*
X1353428Y33993142D01*
X1424857Y34207428D01*
X1567714Y34350285D01*
X1710571Y34421714D01*
X1996285Y34493142D01*
X2210571Y34493142D01*
X2496285Y34421714D01*
X2639142Y34350285D01*
X2782000Y34207428D01*
X2853428Y33993142D01*
X2853428Y33850285D01*
X2782000Y33636000D01*
X2710571Y33564571D01*
X2139142Y32421714D02*
X2067714Y32207428D01*
X1996285Y32136000D01*
X1853428Y32064571D01*
X1639142Y32064571D01*
X1496285Y32136000D01*
X1424857Y32207428D01*
X1353428Y32350285D01*
X1353428Y32921714D01*
X2853428Y32921714D01*
X2853428Y32421714D01*
X2782000Y32278857D01*
X2710571Y32207428D01*
X2567714Y32136000D01*
X2424857Y32136000D01*
X2282000Y32207428D01*
X2210571Y32278857D01*
X2139142Y32421714D01*
X2139142Y32921714D01*
X2853428Y31136000D02*
X2853428Y30993142D01*
X2782000Y30850285D01*
X2710571Y30778857D01*
X2567714Y30707428D01*
X2282000Y30636000D01*
X1924857Y30636000D01*
X1639142Y30707428D01*
X1496285Y30778857D01*
X1424857Y30850285D01*
X1353428Y30993142D01*
X1353428Y31136000D01*
X1424857Y31278857D01*
X1496285Y31350285D01*
X1639142Y31421714D01*
X1924857Y31493142D01*
X2282000Y31493142D01*
X2567714Y31421714D01*
X2710571Y31350285D01*
X2782000Y31278857D01*
X2853428Y31136000D01*
X1353428Y29207428D02*
X1353428Y30064571D01*
X1353428Y29636000D02*
X2853428Y29636000D01*
X2639142Y29778857D01*
X2496285Y29921714D01*
X2424857Y30064571D01*
X1782000Y28635999D02*
X1782000Y27921714D01*
X1353428Y28778857D02*
X2853428Y28278857D01*
X1353428Y27778857D01*
D11*
X38100000Y96206000D02*
X38100000Y25206000D01*
X38100000Y25206000D02*
X0Y25206000D01*
X0Y96206000D02*
X0Y25206000D01*
X38100000Y96206000D02*
X0Y96206000D01*
X16256000Y102870000D02*
X18796000Y102870000D01*
X18796000Y102870000D02*
X18796000Y97790000D01*
X18796000Y97790000D02*
X16256000Y97790000D01*
X16256000Y97790000D02*
X16256000Y102870000D01*
X11176000Y97790000D02*
X8636000Y97790000D01*
X11176000Y100330000D02*
X11176000Y97790000D01*
X8636000Y100330000D02*
X11176000Y100330000D01*
X8636000Y97790000D02*
X8636000Y100330000D01*
X13716000Y100330000D02*
X11176000Y100330000D01*
X13716000Y102870000D02*
X13716000Y100330000D01*
X11176000Y102870000D02*
X13716000Y102870000D01*
X11176000Y100330000D02*
X11176000Y102870000D01*
X11176000Y100330000D02*
X8636000Y100330000D01*
X11176000Y102870000D02*
X11176000Y100330000D01*
X8636000Y102870000D02*
X11176000Y102870000D01*
X8636000Y100330000D02*
X8636000Y102870000D01*
X13716000Y97790000D02*
X11176000Y97790000D01*
X13716000Y100330000D02*
X13716000Y97790000D01*
X11176000Y100330000D02*
X13716000Y100330000D01*
X11176000Y97790000D02*
X11176000Y100330000D01*
X8636000Y97790000D02*
X6096000Y97790000D01*
X8636000Y102870000D02*
X8636000Y97790000D01*
X6096000Y102870000D02*
X8636000Y102870000D01*
X6096000Y97790000D02*
X6096000Y102870000D01*
D12*
X33096000Y19292000D02*
X33096000Y5092000D01*
X33096000Y19292000D02*
X6096000Y19292000D01*
X6096000Y19292000D02*
X6096000Y5092000D01*
X33096000Y5092000D02*
X6096000Y5092000D01*
D11*
X13716000Y102870000D02*
X16256000Y102870000D01*
X16256000Y102870000D02*
X16256000Y97790000D01*
X16256000Y97790000D02*
X13716000Y97790000D01*
X13716000Y97790000D02*
X13716000Y102870000D01*
X26416000Y145288000D02*
X26416000Y147828000D01*
X28956000Y145288000D02*
X26416000Y145288000D01*
X28956000Y147828000D02*
X28956000Y145288000D01*
X26416000Y147828000D02*
X28956000Y147828000D01*
X23876000Y147828000D02*
X26416000Y147828000D01*
X26416000Y147828000D02*
X26416000Y145288000D01*
X26416000Y145288000D02*
X23876000Y145288000D01*
X23876000Y145288000D02*
X23876000Y147828000D01*
X28956000Y145288000D02*
X28956000Y147828000D01*
X31496000Y145288000D02*
X28956000Y145288000D01*
X31496000Y147828000D02*
X31496000Y145288000D01*
X28956000Y147828000D02*
X31496000Y147828000D01*
X18796000Y145288000D02*
X18796000Y147828000D01*
X21336000Y145288000D02*
X18796000Y145288000D01*
X21336000Y147828000D02*
X21336000Y145288000D01*
X18796000Y147828000D02*
X21336000Y147828000D01*
X21336000Y147828000D02*
X23876000Y147828000D01*
X23876000Y147828000D02*
X23876000Y145288000D01*
X23876000Y145288000D02*
X21336000Y145288000D01*
X21336000Y145288000D02*
X21336000Y147828000D01*
X31496000Y147828000D02*
X34036000Y147828000D01*
X34036000Y147828000D02*
X34036000Y145288000D01*
X34036000Y145288000D02*
X31496000Y145288000D01*
X31496000Y145288000D02*
X31496000Y147828000D01*
X26416000Y197866000D02*
X28956000Y197866000D01*
X28956000Y197866000D02*
X28956000Y195326000D01*
X28956000Y195326000D02*
X26416000Y195326000D01*
X26416000Y195326000D02*
X26416000Y197866000D01*
X23876000Y195326000D02*
X23876000Y197866000D01*
X26416000Y195326000D02*
X23876000Y195326000D01*
X26416000Y197866000D02*
X26416000Y195326000D01*
X23876000Y197866000D02*
X26416000Y197866000D01*
X28956000Y197866000D02*
X31496000Y197866000D01*
X31496000Y197866000D02*
X31496000Y195326000D01*
X31496000Y195326000D02*
X28956000Y195326000D01*
X28956000Y195326000D02*
X28956000Y197866000D01*
X18796000Y197866000D02*
X21336000Y197866000D01*
X21336000Y197866000D02*
X21336000Y195326000D01*
X21336000Y195326000D02*
X18796000Y195326000D01*
X18796000Y195326000D02*
X18796000Y197866000D01*
X21336000Y195326000D02*
X21336000Y197866000D01*
X23876000Y195326000D02*
X21336000Y195326000D01*
X23876000Y197866000D02*
X23876000Y195326000D01*
X21336000Y197866000D02*
X23876000Y197866000D01*
X34036000Y195326000D02*
X31496000Y195326000D01*
X34036000Y197866000D02*
X34036000Y195326000D01*
X31496000Y197866000D02*
X34036000Y197866000D01*
X31496000Y195326000D02*
X31496000Y197866000D01*
X18478571Y59920285D02*
X18526190Y60063142D01*
X18573809Y60110761D01*
X18669047Y60158380D01*
X18811904Y60158380D01*
X18907142Y60110761D01*
X18954761Y60063142D01*
X19002380Y59967904D01*
X19002380Y59586952D01*
X18002380Y59586952D01*
X18002380Y59920285D01*
X18050000Y60015523D01*
X18097619Y60063142D01*
X18192857Y60110761D01*
X18288095Y60110761D01*
X18383333Y60063142D01*
X18430952Y60015523D01*
X18478571Y59920285D01*
X18478571Y59586952D01*
X18002380Y60444095D02*
X18002380Y61015523D01*
X19002380Y60729809D02*
X18002380Y60729809D01*
X19002380Y61872666D02*
X19002380Y61301238D01*
X19002380Y61586952D02*
X18002380Y61586952D01*
X18145238Y61491714D01*
X18240476Y61396476D01*
X18288095Y61301238D01*
X21034285Y83566476D02*
X21034285Y91185523D01*
X24843809Y87376000D02*
X17224761Y87376000D01*
X14168380Y11453904D02*
X13168380Y11453904D01*
X13168380Y11692000D01*
X13216000Y11834857D01*
X13311238Y11930095D01*
X13406476Y11977714D01*
X13596952Y12025333D01*
X13739809Y12025333D01*
X13930285Y11977714D01*
X14025523Y11930095D01*
X14120761Y11834857D01*
X14168380Y11692000D01*
X14168380Y11453904D01*
X14168380Y12977714D02*
X14168380Y12406285D01*
X14168380Y12692000D02*
X13168380Y12692000D01*
X13311238Y12596761D01*
X13406476Y12501523D01*
X13454095Y12406285D01*
X10358380Y15740095D02*
X9358380Y15740095D01*
X10358380Y16311523D02*
X9786952Y15882952D01*
X9358380Y16311523D02*
X9929809Y15740095D01*
M02*
