M48
;DRILL file {KiCad (6.0.0-rc1-dev-205-gc0615c5ef)} date 05/07/19 06:14:25
;FORMAT={3:3/ absolute / metric / suppress leading zeros}
FMAT,2
METRIC,TZ
T1C0.400
T2C0.762
T3C0.889
T4C1.600
%
G90
G05
M71
T1
X5080Y101854
X5080Y100076
X5080Y98044
X5842Y10160
X5842Y7620
X6096Y27178
X6096Y25654
X6096Y23622
X6096Y22352
X6096Y21082
X6096Y19812
X6096Y18288
X6350Y49276
X6350Y6096
X6604Y84582
X6604Y82296
X6604Y14732
X6604Y11938
X6858Y87122
X6858Y16002
X7366Y71120
X7366Y69088
X7366Y5080
X7480Y13246
X7620Y50292
X7874Y17018
X7988Y37503
X8128Y85852
X8382Y82296
X8382Y67310
X8382Y62992
X8382Y7874
X8522Y38788
X8623Y40043
X8623Y36233
X8636Y3810
X9398Y95504
X9652Y89408
X9652Y50292
X9652Y7874
X9893Y36233
X9893Y28613
X9893Y27343
X9906Y83820
X9906Y6604
X10160Y96266
X10160Y2794
X10213Y11777
X10414Y71120
X10414Y68580
X10414Y13970
X10528Y34963
X10528Y33693
X10528Y32423
X10528Y31153
X10528Y29883
X10528Y26073
X10668Y81026
X10840Y40874
X10922Y88138
X10922Y15240
X10922Y7874
X10922Y5334
X11176Y27686
X11430Y74930
X11430Y63796
X11430Y57658
X11430Y16510
X11684Y94996
X11684Y92964
X11684Y50292
X11684Y13970
X11938Y26162
X11963Y11777
X12008Y38831
X12052Y40932
X12192Y86868
X12192Y7874
X12353Y79667
X12446Y89662
X12700Y27432
X12700Y5080
X12954Y13970
X12972Y80453
X13068Y2578
X13081Y10795
X13208Y26073
X13213Y11777
X13462Y7874
X13576Y40932
X13582Y28900
X13970Y27432
X13970Y80772
X14084Y24803
X14224Y55880
X14224Y52832
X14224Y6350
X14224Y5080
X14338Y43218
X14338Y10833
X14338Y2578
X14478Y67056
X14592Y40932
X14598Y12263
X14732Y65024
X14732Y60452
X14732Y7874
X15494Y61214
X15494Y2540
X15608Y42964
X15608Y41694
X15608Y22263
X15608Y20993
X15748Y67818
X15868Y38933
X15888Y10358
X16002Y49530
X16002Y27432
X16002Y26416
X16116Y23406
X16256Y65024
X16256Y62484
X16503Y39568
X16624Y43726
X16668Y34488
X16764Y2540
X17018Y27432
X17018Y26416
X17138Y10358
X17386Y33466
X17780Y92202
X17780Y89916
X17780Y85852
X17780Y80772
X17780Y78740
X18034Y2540
X18288Y66548
X18288Y60198
X18408Y33256
X18408Y10358
X18542Y64262
X18796Y75692
X18796Y62738
X19170Y5024
X19304Y66294
X19431Y36449
X19558Y102108
X19558Y100584
X19558Y98552
X19812Y142240
X19812Y31496
X20053Y2578
X20066Y75692
X20066Y67056
X20186Y38806
X20307Y54775
X20313Y10358
X20440Y5024
X21082Y87630
X21196Y22898
X21196Y21628
X21336Y85344
X21336Y75692
X21456Y33472
X21590Y67564
X21844Y64516
X21958Y2578
X22212Y62014
X22218Y12898
X22720Y60490
X22720Y55918
X23228Y42743
X23228Y22898
X23228Y21628
X23368Y192024
X23736Y14770
X23863Y34328
X23863Y31153
X23876Y2578
X23996Y9342
X24123Y38933
X24123Y37663
X24123Y12263
X24123Y10706
X24244Y30010
X24371Y51981
X24498Y32423
X24498Y26708
X24498Y25438
X24498Y24168
X24498Y22898
X24498Y21628
X24713Y20277
X24713Y19088
X24713Y17818
X25133Y2578
X25400Y55372
X25654Y59796
X25768Y19088
X25768Y17818
X25908Y62992
X25908Y57150
X26028Y28900
X26403Y33693
X26403Y3213
X26670Y37592
X27033Y59073
X27038Y17818
X27673Y34328
X27673Y26073
X27673Y24803
X27673Y23533
X27673Y22263
X27673Y4483
X28194Y56388
X28194Y54610
X28308Y27343
X28308Y20993
X28308Y7658
X28308Y5753
X28448Y88392
X28448Y60960
X28816Y34074
X28816Y32550
X28943Y14008
X28943Y12738
X28943Y10833
X28943Y8928
X29210Y52324
X29464Y72644
X29578Y27978
X29578Y19723
X30213Y37503
X30213Y18453
X30213Y17183
X30213Y15278
X30226Y88392
X30226Y74930
X30226Y38608
X30480Y86614
X30480Y84328
X30734Y76200
X30734Y68834
X30848Y27978
X31115Y36449
X31242Y78994
X31242Y70358
X31496Y77724
X31750Y67310
X31750Y65532
X31750Y62992
X32118Y26708
X32258Y68834
X32372Y33058
X32385Y28321
X32639Y31369
X32639Y29845
X32766Y104648
X32766Y103378
X32766Y102108
X33896Y40678
X33896Y39154
X33896Y37376
X33896Y35852
X33896Y34328
T2
X8596Y14692
X8596Y9692
T3
X32766Y146558
X22606Y196596
X9906Y99060
X25146Y106426
X25146Y146558
X7366Y101600
X7366Y99060
X27686Y106426
X30226Y196596
X12446Y99060
X30226Y106426
X32766Y106426
X20066Y196596
X17526Y101600
X17526Y99060
X27686Y146558
X27686Y196596
X22606Y146558
X9906Y101600
X20066Y146558
X12446Y101600
X14986Y101600
X14986Y99060
X20066Y106426
X25146Y196596
X32766Y196596
X22606Y106426
X30226Y146558
T4
X19050Y94456
X19050Y26956
T0
M30
